<svg width="395" height="249" viewBox="0 0 395 249" fill="none" xmlns="http://www.w3.org/2000/svg">
<path d="M389.816 193.996H119.528C119.219 193.996 118.971 193.749 118.971 193.44V13.7139C118.971 13.4057 119.219 13.1582 119.528 13.1582H390.373V193.44C390.373 193.749 390.125 193.996 389.816 193.996Z" stroke="#BDD5F1" stroke-miterlimit="10"/>
<path d="M393.868 187.024H126.86C126.238 187.024 125.725 186.52 125.725 185.891V1.13306C125.725 0.512264 126.229 0 126.86 0H393.863C394.486 0 394.999 0.503582 394.999 1.13306V185.9C394.995 186.52 394.49 187.024 393.868 187.024Z" fill="#E9F3FB"/>
<path d="M388.689 6.66797H132.035V180.365H388.689V6.66797V6.66797Z" stroke="white" stroke-miterlimit="10"/>
<path d="M341.395 52.2294H182.244C176.169 52.2294 171.238 47.3195 171.238 41.2504C171.238 35.1901 176.16 30.2715 182.244 30.2715H341.4C347.475 30.2715 352.405 35.1814 352.405 41.2504C352.405 47.3195 347.47 52.2294 341.395 52.2294Z" fill="#F6FCFD"/>
<path d="M305.013 70.9266H222.333C219.617 70.9266 217.424 68.7386 217.424 66.0297C217.424 63.3208 219.617 61.1328 222.333 61.1328H305.013C307.729 61.1328 309.922 63.3208 309.922 66.0297C309.922 68.7343 307.729 70.9266 305.013 70.9266Z" fill="#D2E4F5"/>
<path d="M163.745 99.2876C165.46 99.2876 167.179 99.2876 168.894 99.2876C173.524 99.2876 178.154 99.2876 182.785 99.2876C189.678 99.2876 196.563 99.2876 203.456 99.2876C211.807 99.2876 220.15 99.2876 228.505 99.2876C237.714 99.2876 246.922 99.2876 256.122 99.2876C265.352 99.2876 274.582 99.2876 283.817 99.2876C292.486 99.2876 301.15 99.2876 309.81 99.2876C317.087 99.2876 324.354 99.2876 331.635 99.2876C336.905 99.2876 342.166 99.2876 347.437 99.2876C349.917 99.2876 352.398 99.318 354.869 99.2876C354.974 99.2876 355.087 99.2876 355.191 99.2876C357.163 99.2876 359.038 97.5641 358.951 95.5368C358.86 93.5051 357.298 91.786 355.191 91.786C353.477 91.786 351.758 91.786 350.043 91.786C345.413 91.786 340.783 91.786 336.152 91.786C329.259 91.786 322.374 91.786 315.481 91.786C307.13 91.786 298.787 91.786 290.432 91.786C281.223 91.786 272.015 91.786 262.815 91.786C253.585 91.786 244.354 91.786 235.12 91.786C226.451 91.786 217.786 91.786 209.126 91.786C201.85 91.786 194.582 91.786 187.302 91.786C182.032 91.786 176.77 91.786 171.5 91.786C169.02 91.786 166.539 91.7556 164.067 91.786C163.963 91.786 163.85 91.786 163.745 91.786C161.774 91.786 159.898 93.5094 159.985 95.5368C160.077 97.5728 161.643 99.2876 163.745 99.2876Z" fill="#BDD5F1"/>
<path d="M165.073 115.494C166.787 115.494 168.506 115.494 170.221 115.494C174.851 115.494 179.481 115.494 184.112 115.494C191.005 115.494 197.89 115.494 204.783 115.494C213.134 115.494 221.477 115.494 229.832 115.494C239.041 115.494 248.249 115.494 257.449 115.494C266.679 115.494 275.91 115.494 285.144 115.494C293.813 115.494 302.478 115.494 311.138 115.494C318.414 115.494 325.682 115.494 332.962 115.494C338.232 115.494 343.494 115.494 348.764 115.494C351.244 115.494 353.725 115.537 356.197 115.494C356.301 115.494 356.414 115.494 356.519 115.494C358.938 115.494 358.938 111.743 356.519 111.743C354.804 111.743 353.085 111.743 351.37 111.743C346.74 111.743 342.11 111.743 337.479 111.743C330.586 111.743 323.701 111.743 316.808 111.743C308.457 111.743 300.115 111.743 291.759 111.743C282.55 111.743 273.342 111.743 264.142 111.743C254.912 111.743 245.682 111.743 236.447 111.743C227.778 111.743 219.114 111.743 210.454 111.743C203.177 111.743 195.91 111.743 188.629 111.743C183.359 111.743 178.098 111.743 172.828 111.743C170.347 111.743 167.866 111.7 165.395 111.743C165.29 111.743 165.177 111.743 165.073 111.743C162.653 111.743 162.653 115.494 165.073 115.494Z" fill="#BDD5F1"/>
<path d="M150.757 157.539C153.029 157.539 155.296 157.539 157.568 157.539C163.056 157.539 168.534 157.539 174.022 157.539C180.628 157.539 187.239 157.539 193.836 157.539C199.55 157.539 205.264 157.539 210.974 157.539C213.746 157.539 216.553 157.661 219.325 157.539C219.364 157.539 219.407 157.539 219.447 157.539C221.257 157.539 221.266 154.726 219.447 154.726C217.175 154.726 214.908 154.726 212.636 154.726C207.148 154.726 201.669 154.726 196.182 154.726C189.576 154.726 182.965 154.726 176.368 154.726C170.654 154.726 164.94 154.726 159.23 154.726C156.458 154.726 153.651 154.604 150.879 154.726C150.84 154.726 150.796 154.726 150.757 154.726C148.942 154.726 148.938 157.539 150.757 157.539Z" fill="#BDD5F1"/>
<path d="M290.25 156.054C292.521 156.054 294.789 156.054 297.06 156.054C302.548 156.054 308.027 156.054 313.515 156.054C320.121 156.054 326.731 156.054 333.329 156.054C339.043 156.054 344.757 156.054 350.466 156.054C353.238 156.054 356.045 156.175 358.817 156.054C358.856 156.054 358.9 156.054 358.939 156.054C360.75 156.054 360.758 153.241 358.939 153.241C356.668 153.241 354.4 153.241 352.129 153.241C346.641 153.241 341.162 153.241 335.674 153.241C329.068 153.241 322.458 153.241 315.86 153.241C310.146 153.241 304.432 153.241 298.723 153.241C295.951 153.241 293.144 153.119 290.372 153.241C290.332 153.241 290.289 153.241 290.25 153.241C288.435 153.241 288.435 156.054 290.25 156.054Z" fill="#BDD5F1"/>
<path d="M170.071 156.376L155.24 203.717L169.645 198.529L178.514 210.971L193.345 163.639L170.071 156.376Z" fill="#063E61"/>
<path d="M192.69 157.86L217.265 214.921L202.86 209.734L193.991 222.18L169.412 165.119L192.69 157.86Z" fill="#1973AA"/>
<path d="M205.411 150.601C208.457 137.73 200.467 124.828 187.564 121.789C174.661 118.75 161.727 126.72 158.681 139.596C155.635 152.468 163.625 165.37 176.528 168.409C189.431 171.444 202.365 163.473 205.411 150.601Z" fill="white"/>
<path d="M182.109 124.623C193.498 124.623 202.767 133.87 202.767 145.231C202.767 156.592 193.498 165.839 182.109 165.839C170.72 165.839 161.451 156.592 161.451 145.231C161.451 133.87 170.72 124.623 182.109 124.623ZM182.109 123.373C170.006 123.373 160.197 133.158 160.197 145.231C160.197 157.304 170.006 167.089 182.109 167.089C194.211 167.089 204.02 157.304 204.02 145.231C204.029 133.158 194.211 123.373 182.109 123.373Z" fill="#3D8EF0"/>
<path d="M208.368 146.859C209.813 146.486 210.871 145.179 210.871 143.63C210.871 141.993 209.691 140.63 208.133 140.343C209.086 139.753 209.717 138.702 209.717 137.5C209.717 135.663 208.229 134.161 206.388 134.157C206.884 133.571 207.193 132.816 207.193 131.991C207.193 130.146 205.692 128.648 203.842 128.648C203.603 128.648 203.377 128.67 203.15 128.722C203.359 128.288 203.473 127.801 203.473 127.289C203.473 125.444 201.971 123.946 200.122 123.946C199.604 123.946 199.121 124.068 198.685 124.268C198.729 124.042 198.759 123.812 198.759 123.577C198.759 121.732 197.258 120.235 195.409 120.235C194.582 120.235 193.824 120.534 193.237 121.038C193.224 119.202 191.727 117.717 189.886 117.717C188.685 117.717 187.632 118.346 187.036 119.297C186.744 117.743 185.382 116.566 183.741 116.566C182.183 116.566 180.878 117.626 180.503 119.063C180.007 117.825 178.806 116.957 177.392 116.957C175.656 116.957 174.228 118.277 174.054 119.966C173.436 119.267 172.535 118.824 171.534 118.824C169.685 118.824 168.183 120.322 168.183 122.167C168.183 122.279 168.192 122.384 168.196 122.497C167.679 122.158 167.052 121.963 166.386 121.963C164.537 121.963 163.035 123.46 163.035 125.305C163.035 125.679 163.096 126.035 163.209 126.369C162.87 126.256 162.517 126.195 162.143 126.195C160.294 126.195 158.792 127.693 158.792 129.538C158.792 130.207 158.988 130.819 159.327 131.344C159.223 131.335 159.11 131.331 158.997 131.331C157.147 131.331 155.646 132.829 155.646 134.674C155.646 135.676 156.09 136.579 156.79 137.187C155.097 137.361 153.774 138.785 153.774 140.517C153.774 141.928 154.645 143.135 155.885 143.621C154.44 143.994 153.383 145.301 153.383 146.851C153.383 148.487 154.562 149.851 156.12 150.137C155.167 150.727 154.536 151.778 154.536 152.981C154.536 154.817 156.024 156.319 157.865 156.323C157.369 156.909 157.06 157.665 157.06 158.49C157.06 160.335 158.562 161.832 160.411 161.832C160.65 161.832 160.877 161.811 161.103 161.758C160.894 162.193 160.781 162.679 160.781 163.191C160.781 165.036 162.282 166.534 164.132 166.534C164.641 166.534 165.133 166.412 165.568 166.213C165.524 166.438 165.494 166.668 165.494 166.903C165.494 168.748 166.995 170.246 168.845 170.246C169.672 170.246 170.429 169.946 171.016 169.442C171.03 171.279 172.527 172.763 174.367 172.763C175.568 172.763 176.622 172.134 177.218 171.183C177.509 172.737 178.872 173.914 180.512 173.914C182.07 173.914 183.376 172.85 183.75 171.418C184.246 172.655 185.447 173.523 186.862 173.523C188.598 173.523 190.025 172.203 190.199 170.515C190.817 171.214 191.718 171.656 192.719 171.656C194.569 171.656 196.07 170.159 196.07 168.314C196.07 168.201 196.061 168.097 196.057 167.984C196.575 168.322 197.201 168.518 197.867 168.518C199.717 168.518 201.218 167.02 201.218 165.175C201.218 164.802 201.157 164.446 201.044 164.111C201.384 164.224 201.736 164.285 202.11 164.285C203.96 164.285 205.461 162.787 205.461 160.942C205.461 160.274 205.265 159.662 204.926 159.136C205.03 159.145 205.144 159.149 205.257 159.149C207.106 159.149 208.608 157.652 208.608 155.807C208.608 154.804 208.164 153.901 207.463 153.293C209.156 153.119 210.479 151.696 210.479 149.963C210.479 148.553 209.6 147.354 208.368 146.859ZM182.109 168.687C169.119 168.687 158.588 158.181 158.588 145.223C158.588 132.264 169.119 121.759 182.109 121.759C195.1 121.759 205.631 132.264 205.631 145.223C205.631 158.181 195.1 168.687 182.109 168.687Z" fill="#0FA5FF"/>
<path d="M181.852 133.172L185.947 140.995L194.699 142.054L188.537 148.362L190.242 157.014L182.344 153.098L174.645 157.396L175.925 148.666L169.467 142.657L178.157 141.181L181.852 133.172Z" fill="#E89400"/>
<path d="M309.354 177.561C313.306 167.785 316.121 157.566 317.692 147.138C318.088 144.538 318.406 141.924 318.65 139.306C318.876 136.867 319.094 134.401 318.741 131.97C318.471 130.086 317.849 127.333 315.86 126.53C313.75 125.684 312.466 127.655 311.617 129.278C307.13 137.887 312.44 147.26 316.448 154.857C318.741 159.207 320.826 163.761 320.778 168.775C320.769 169.89 320.652 171.006 320.408 172.096C320.238 172.834 319.947 174.787 319.155 175.087C317.727 175.647 318.171 171.523 318.206 170.845C318.493 166.048 320.282 161.29 323.298 157.54C324.064 156.593 324.912 155.703 325.817 154.891C326.187 154.566 326.818 153.837 327.388 153.876C327.884 153.91 328.058 154.496 328.211 154.891C329.151 157.431 328.807 160.266 327.427 162.571C328.067 162.84 328.707 163.109 329.342 163.374C330.165 159.293 331.318 153.685 335.974 152.317C338.22 151.653 340.587 152.534 342.872 152.157C344.739 151.848 346.384 150.798 347.033 148.979C347.485 147.702 345.462 147.16 345.009 148.427C344.243 150.542 341.192 150.212 339.46 150.077C337.241 149.908 335.139 150.06 333.233 151.319C329.325 153.893 328.172 158.529 327.31 162.827C327.084 163.96 328.594 164.698 329.225 163.63C330.487 161.507 331.031 159.037 330.731 156.589C330.522 154.861 329.938 152.256 327.915 151.827C325.73 151.375 323.663 153.889 322.392 155.33C320.93 156.988 319.686 158.842 318.711 160.83C316.718 164.907 315.751 169.5 316.095 174.028C316.23 175.821 317.279 177.531 319.355 177.171C321.378 176.81 322.001 174.362 322.397 172.651C323.541 167.689 322.353 162.658 320.338 158.091C318.219 153.285 315.177 148.896 313.432 143.93C311.918 139.654 311.23 134.514 313.397 130.333C313.641 129.864 313.911 129.404 314.22 128.974C314.572 128.488 314.868 128.184 315.395 128.714C316.261 129.587 316.552 131.414 316.687 132.595C316.992 135.135 316.678 137.744 316.426 140.275C315.164 152.864 312.048 165.267 307.3 177.001C306.817 178.256 308.849 178.803 309.354 177.561Z" fill="#1973AA"/>
<path d="M344.371 148.848L348.127 137.27L353.932 134.544L359.62 140.444L357.004 146.343L345.624 149.864L350.29 144.416C350.29 144.416 352.566 144.533 351.996 142.597C351.425 140.669 349.145 142.371 349.719 143.391L344.371 148.848Z" fill="#1973AA"/>
<path d="M358.005 130.459L354.736 133.502L360.546 139.71L363.814 136.667L358.005 130.459Z" fill="#1973AA"/>
<path d="M358.697 129.652L364.403 135.738C364.403 135.738 383.69 125.132 390.187 107.268L389.003 106.287C388.999 106.287 368.933 115.022 358.697 129.652Z" fill="#1973AA"/>
<path d="M57.5526 111.651L90.879 111.79C91.4969 111.795 91.9365 112.394 91.745 112.98C88.9816 121.419 72.3314 172.233 70.1338 177.026C67.91 181.875 24.1087 209.455 17.7724 213.423C17.3416 213.692 16.7715 213.601 16.4495 213.201L10.222 205.496C9.84337 205.022 9.91735 204.337 10.3917 203.959L53.7534 169.381C54.0842 169.125 54.2713 168.73 54.2669 168.309C54.045 145.339 51.4644 117.126 51.8865 111.256C51.9344 110.588 56.8824 111.647 57.5526 111.651Z" fill="#E9F2FB"/>
<path d="M78.9259 151.327L92.1338 111.8L94.1617 111.9C94.8145 111.93 96.1679 112.82 96.3072 113.458L122.022 235.889C122.235 236.892 121.504 237.851 120.477 237.917L111.251 238.464C110.429 238.511 109.667 238.016 109.384 237.235L78.939 152.872C78.7562 152.373 78.7475 151.826 78.9259 151.327Z" fill="#DEE8F8"/>
<path d="M17.7684 213.423C17.7771 222.444 22.599 232.841 24.2875 236.214C24.6226 236.883 24.4703 237.69 23.9132 238.189C23.2082 238.823 22.1203 238.741 21.5197 238.012C18.3907 234.204 9.62613 223.551 8.70354 222.631C7.69827 221.623 5.05235 216.627 4.53013 215.637C4.48226 215.55 4.36476 215.52 4.28207 215.58L3.87735 215.871C3.60754 216.062 3.23328 216.015 3.02004 215.754L0.139122 212.233C-0.0828217 211.964 -0.0349522 211.56 0.252269 211.352L10.3921 203.959L17.7684 213.423Z" fill="#5B616F"/>
<path d="M122.133 236.627C129.366 242.045 139.78 244.641 143.496 245.318C144.232 245.453 144.784 246.061 144.85 246.803C144.932 247.745 144.214 248.561 143.27 248.605C138.344 248.809 124.483 248.331 123.182 248.357C121.237 248.396 116.18 247.598 115.07 247.415C114.966 247.402 114.879 247.545 114.874 247.645L114.861 248.145C114.852 248.474 114.709 248.926 114.374 248.939L109.696 249C109.343 249.013 109.06 248.6 109.065 248.249L109.234 236.497L122.133 236.627Z" fill="#647079"/>
<path d="M60.4089 178.442C52.5669 174.096 54.312 157.152 54.312 157.152" stroke="#6D8799" stroke-miterlimit="10"/>
<path d="M163.108 38.902C163.108 38.902 170.91 33.9834 172.081 41.9669C172.495 44.7887 171.52 47.6973 169.348 49.5466C167.577 51.053 165.075 51.9213 162.159 49.3556L152.015 60.9988C152.015 60.9988 148.912 54.9124 147.846 48.2096L156.528 42.605C156.528 42.605 160.118 32.4596 161.906 32.0342C163.686 31.6131 163.108 38.902 163.108 38.902Z" fill="#A56C64"/>
<path d="M166.707 41.4153C167.521 41.3805 168.335 41.3154 169.131 41.1331C169.928 40.9464 170.698 40.6599 171.464 40.3821C171.725 40.2865 171.612 39.8698 171.347 39.9653C170.598 40.2344 169.845 40.5166 169.071 40.699C168.296 40.8856 167.5 40.9464 166.703 40.9811C166.429 40.9898 166.429 41.4239 166.707 41.4153Z" fill="black"/>
<path d="M167.149 44.5844C167.976 44.6234 168.803 44.6321 169.621 44.4932C170.439 44.3586 171.231 44.0895 172.019 43.8377C172.284 43.7552 172.171 43.3341 171.901 43.4209C171.131 43.664 170.361 43.9245 169.56 44.0634C168.763 44.2023 167.95 44.1893 167.145 44.1502C166.87 44.1372 166.87 44.5713 167.149 44.5844Z" fill="black"/>
<path d="M167.243 47.2286C167.861 47.4066 168.496 47.5412 169.14 47.5673C169.784 47.5976 170.428 47.5152 171.068 47.4197C171.342 47.3762 171.225 46.9595 170.951 47.0029C170.35 47.0941 169.745 47.1592 169.14 47.1331C168.535 47.1071 167.943 46.9769 167.36 46.8075C167.091 46.7337 166.977 47.1505 167.243 47.2286Z" fill="black"/>
<path d="M81.7065 23.9069C81.7065 23.9069 87.8252 32.7803 84.8572 41.3803C84.8572 41.3803 83.3645 46.3162 79.6611 46.9718C79.6611 46.9718 73.8471 48.7647 71.0314 44.7751C71.0314 44.7751 71.1663 44.5624 71.1968 44.2802C71.2403 43.9069 68.2114 40.7638 68.0591 40.3384C67.9068 39.9129 65.7352 41.5279 64.9171 38.0071C64.0989 34.4907 67.6326 34.3649 68.3376 36.0189C68.3376 36.0189 68.5639 38.6236 68.6205 38.6453C68.6771 38.667 68.7902 36.7438 68.9251 36.0709C69.06 35.3981 66.6752 31.4172 67.2279 28.6301C67.7849 25.8387 71.0271 25.665 71.0271 25.665C71.0271 25.665 70.3569 26.186 75.1134 22.6262C79.87 19.0621 81.7065 23.9069 81.7065 23.9069Z" fill="#A56C64"/>
<path d="M83.5508 23.7894C83.8249 23.2772 84.2514 23.0558 84.6909 23.0427C84.7083 22.7649 84.7867 22.5131 84.9085 22.2874C84.8215 21.8446 84.8737 21.4061 85.0304 21.011C84.2993 20.1775 84.3341 19.2181 84.8215 18.5452C84.6996 18.4931 84.5778 18.441 84.4516 18.3933C83.0982 17.8637 82.9937 16.1098 84.3341 15.5324C84.1383 15.4673 83.9424 15.4152 83.7422 15.3761C83.2287 15.2589 82.6978 15.2416 82.1843 15.1417C80.7656 14.8595 79.5384 13.5876 78.1545 13.631C77.4451 13.6527 76.9272 13.9913 76.244 14.1172C75.4389 14.2648 74.6382 14.1259 73.8287 14.1042C71.9139 14.0564 70.2428 14.6815 68.3802 14.955C67.0964 15.1417 65.6603 14.7857 64.4636 15.1721C64.4679 15.311 64.4853 15.3978 64.4853 15.3978C64.3374 15.3761 64.1938 15.3588 64.0545 15.3458C63.8108 15.4673 63.5845 15.6279 63.3713 15.845C62.2659 16.9694 61.3955 18.1502 60.1596 19.1747C59.1021 20.0516 58.0185 20.8374 56.9001 21.6318C56.4257 21.9705 55.6859 22.3308 55.4205 22.8561C54.7503 24.1932 55.8252 24.6663 56.713 25.2741C57.7879 26.0078 57.4528 27.4274 56.6303 27.944C56.4388 28.3868 56.095 28.8643 55.6555 29.2811C55.786 29.5372 55.8992 29.8064 55.9731 30.0972C56.2343 31.0697 55.2725 34.0564 56.0602 34.586C56.5911 34.942 56.7739 35.463 56.7347 35.9665C56.9131 36.3052 56.9392 36.7132 56.6999 37.1343C57.9141 37.1821 58.5016 38.5496 58.1708 39.6436C58.9193 38.9186 60.0465 38.5148 60.9429 38.8361C61.2737 38.9533 61.5609 39.1747 61.7611 39.4439C62.7185 39.2225 63.4931 39.9952 63.5627 40.8417C64.1198 41.0935 64.5158 41.6275 64.4418 42.296C64.4897 42.296 64.5463 42.296 64.6159 42.296C64.8378 42.2874 65.1381 42.3698 65.3514 42.4219C65.8301 42.5435 66.2043 42.7388 66.6308 42.9646C67.5882 43.4725 68.4412 43.2555 69.3812 43.1947C69.6684 42.9993 69.9948 42.9299 70.3168 42.9559C70.369 42.8778 70.4561 42.7562 70.4952 42.6868C70.5257 42.6303 70.5562 42.5695 70.591 42.5131C70.5779 42.435 70.5692 42.3568 70.5692 42.2743C70.5866 42.1398 70.604 42.0052 70.6214 41.8749C70.6519 41.7621 70.6998 41.6622 70.752 41.5624C70.3473 40.7332 69.577 40.5509 69.577 40.5509C71.6528 39.0271 69.0678 35.9839 69.0678 35.9839C71.7399 34.8856 70.1297 30.2752 70.1297 30.2752C72.9714 29.3028 71.7529 27.2146 71.7529 27.2146C74.2944 26.6242 74.2552 23.9587 74.2552 23.9587C76.3746 25.4825 78.8334 23.4508 78.8334 23.4508C78.6201 25.9036 82.4236 25.1569 82.4236 25.1569C81.884 26.9759 83.6204 27.983 83.9816 28.1654C84.0382 27.1539 83.0198 24.7792 83.5508 23.7894Z" fill="#5B3231"/>
<path d="M79.6777 46.976L80.4654 54.0869L68.9199 53.9741L71.0915 44.0283C71.0958 44.0283 75.5565 47.1974 79.6777 46.976Z" fill="#A56C64"/>
<path d="M123.504 80.7643C123.5 80.7643 118.291 82.4487 115.406 80.9553C114.331 80.3997 113.26 79.8353 112.137 79.3969L96.4055 73.2193L97.7937 121.303L50.2368 121.281L60.0023 70.8577C60.0023 70.8577 49.4578 82.44 54.5973 91.9864L68.2795 112.477L40.6062 130.12C40.6062 130.12 33.6563 95.8935 34.2003 87.7537C34.6746 80.6775 44.8623 63.534 51.8992 56.2625C53.4659 54.6432 55.6331 53.7316 57.8873 53.775L68.9193 53.9747L80.3341 54.0875C80.7563 54.0745 84.8165 54.1092 87.3406 54.2786C88.6244 54.3654 89.8821 54.6693 91.0614 55.1859L116.389 66.2169L152.653 44.6758C152.653 44.6758 157.597 70.315 159.438 70.836L123.504 80.7643Z" fill="#1973AA"/>
<path d="M81.8428 32.5846C82.6827 32.5846 82.6827 31.2822 81.8428 31.2822C81.0029 31.2822 81.0029 32.5846 81.8428 32.5846Z" fill="black"/>
<path d="M74.4753 33.9655C75.3152 33.9655 75.3152 32.6631 74.4753 32.6631C73.6354 32.6631 73.6311 33.9655 74.4753 33.9655Z" fill="black"/>
<path d="M65.8186 113.965C65.8186 113.965 77.2204 122.226 77.3249 123.589C77.4293 124.935 76.8592 125.747 72.664 124.57C68.4689 123.398 72.3899 134.764 71.5587 136.604C70.7275 138.445 68.1338 137.668 62.4285 125.408C62.4285 125.408 59.2995 118.936 58.377 118.675L65.8186 113.965Z" fill="#A56C64"/>
<path d="M116.113 66.2948C114.947 68.383 115.404 70.9703 116.565 72.9543C116.709 73.193 117.083 72.976 116.94 72.7372C115.856 70.8878 115.399 68.4698 116.487 66.5162C116.622 66.2731 116.248 66.0517 116.113 66.2948Z" fill="black"/>
<path d="M60.1266 70.8406C60.4791 69.955 60.6358 68.9999 60.5835 68.0492C60.5661 67.7714 60.1309 67.7714 60.1484 68.0492C60.2006 68.9652 60.0483 69.8725 59.7045 70.7277C59.6609 70.8363 59.7523 70.9665 59.8568 70.9969C59.983 71.0229 60.0831 70.9491 60.1266 70.8406Z" fill="black"/>
<path d="M79.6753 46.9761C79.6753 46.9761 77.2904 47.1672 76.0371 46.4248C76.0371 46.4248 76.9075 48.5043 79.8319 48.6084L79.6753 46.9761Z" fill="#5B3231"/>
<path d="M78.3593 32.4376C78.9816 33.6011 79.6039 34.7602 80.2218 35.9236C80.5221 36.488 80.8267 37.0523 81.127 37.621C81.2271 37.8077 81.3446 37.9466 81.1966 38.1333C81.114 38.2418 80.9834 38.333 80.879 38.4155C80.6396 38.6021 80.3698 38.7584 80.0869 38.8756C79.8302 38.9798 79.9433 39.4009 80.2044 39.2924C80.5047 39.1665 80.7876 39.0189 81.0487 38.8279C81.275 38.6629 81.5709 38.4545 81.7015 38.1984C81.8451 37.9162 81.6362 37.6384 81.5056 37.3953C81.3229 37.048 81.1357 36.705 80.9529 36.3577C80.2131 34.9772 79.4733 33.5967 78.7379 32.2119C78.603 31.9731 78.2287 32.1945 78.3593 32.4376Z" fill="black"/>
<path d="M77.1952 41.0026C78.701 41.059 80.211 41.0721 81.7168 41.046C81.9953 41.0417 81.9953 40.6076 81.7168 40.6119C80.211 40.638 78.701 40.6249 77.1952 40.5685C76.9167 40.5598 76.9167 40.9939 77.1952 41.0026Z" fill="black"/>
<path d="M76.9352 40.7855C76.9178 41.3369 77.0353 41.9924 77.4314 42.4048C77.9014 42.8954 78.7108 43.0039 79.3549 43.043C80.0163 43.082 80.7997 43.0169 81.3001 42.5264C81.7266 42.1096 81.9529 41.4628 81.9268 40.8723C81.9138 40.5945 81.4786 40.5945 81.4916 40.8723C81.5134 41.3542 81.3393 41.8752 80.9912 42.2181C80.5777 42.6219 79.8945 42.6436 79.3549 42.6088C78.8326 42.5784 78.1189 42.5003 77.736 42.0966C77.4226 41.7666 77.353 41.2196 77.3661 40.7855C77.3748 40.5077 76.9396 40.5077 76.9352 40.7855Z" fill="black"/>
<path d="M70.6189 43.6811C70.6189 43.6811 66.18 46.5854 64.4871 42.865C64.4871 42.865 63.6951 43.9503 61.2363 40.9071C61.2363 40.9071 58.1857 43.234 55.8966 39.9346C55.8966 39.9346 55.2612 38.5802 55.4745 37.3126C55.4745 37.3126 51.9147 35.919 54.6259 32.2811C54.6259 32.2811 51.0225 29.7458 54.4997 27.2496C54.4997 27.2496 50.6831 22.3006 57.0411 20.2733C57.0411 20.2733 56.3622 17.3994 59.7132 17.8639C59.7132 17.8639 59.2475 14.1 64.374 14.8598C64.374 14.8598 63.8387 11.2956 67.9468 13.5791C67.9468 13.5791 69.557 12.0163 71.5502 13.3664C71.5502 13.3664 74.0525 9.98458 78.5871 12.776C78.5871 12.776 82.0207 10.028 85.537 15.1854C85.537 15.1854 89.5233 17.3429 86.2986 20.9765C86.2986 20.9765 89.5059 22.6262 87.0906 24.8229C87.0906 24.8229 88.6747 26.8546 85.9591 28.4608C85.9591 28.4608 84.6884 28.9253 83.5874 27.7011C83.5874 27.7011 82.4863 26.9804 82.3166 24.6145C82.3166 24.6145 78.5175 25.3612 78.7264 22.9084C78.7264 22.9084 76.2676 24.9401 74.1482 23.4163C74.1482 23.4163 74.1917 26.0818 71.6459 26.6722C71.6459 26.6722 72.8601 28.7603 70.0227 29.7328C70.0227 29.7328 71.6329 34.3432 68.9608 35.4415C68.9608 35.4415 71.5458 38.4847 69.47 40.0085C69.4743 40.0041 71.6372 40.512 70.6189 43.6811Z" fill="#212327"/>
<path d="M66.0663 113.883C66.0663 113.883 61.7232 108.217 61.2923 106.268C60.8572 104.319 51.9707 122.934 51.9707 122.934L66.0663 113.883Z" fill="#2E88BF"/>
<path d="M54.4932 92.4199C55.6247 95.1592 56.878 97.8551 58.1574 100.534C59.7632 103.902 61.4213 107.271 63.3622 110.462C64.0716 111.63 64.8157 112.884 65.821 113.835C66.0255 114.026 66.3302 113.722 66.13 113.527C65.2727 112.715 64.6286 111.669 64.0106 110.675C63.0924 109.199 62.2569 107.675 61.4474 106.138C59.7197 102.856 58.1226 99.5004 56.5908 96.123C56.0163 94.8553 55.4506 93.5834 54.9197 92.2984C54.8065 92.0509 54.3887 92.1594 54.4932 92.4199Z" fill="black"/>
<path d="M39.5 124.28C39.5 124.28 55.5365 112.441 63.335 109.732" stroke="black" stroke-miterlimit="10"/>
<path d="M116.391 66.2125L153.917 50.9314L152.655 44.667L116.391 66.2125Z" fill="#2E88BF"/>
<path d="M148.514 47.2712C148.875 50.0583 149.302 52.841 149.763 55.615C150.499 60.0474 151.217 64.5883 152.64 68.8601C152.888 69.6024 153.153 70.3578 153.549 71.035C153.767 71.4127 154.093 71.9076 154.568 71.9814C154.911 72.0335 155.059 71.5082 154.711 71.4561C154.415 71.4127 154.176 71.035 154.006 70.7398C153.667 70.1494 153.432 69.5026 153.21 68.8601C152.566 66.9586 152.113 64.9921 151.695 63.0298C150.786 58.7798 150.09 54.482 149.463 50.1798C149.324 49.2117 149.176 48.2046 149.058 47.2712C149.015 46.9326 148.471 46.9283 148.514 47.2712Z" fill="black"/>
<path d="M96.4093 73.2188L88.959 121.302H97.7976L96.4093 73.2188Z" fill="#2E88BF"/>
</svg>
