<svg id="Group_1" data-name="Group 1" xmlns="http://www.w3.org/2000/svg" width="90" height="90" viewBox="0 0 90 90">
  <circle id="Ellipse_1" data-name="Ellipse 1" cx="45" cy="45" r="45" fill="#212f6e"/>
  <path id="Path_1" data-name="Path 1" d="M64.476,48.207l-15.95,9.564a6.875,6.875,0,0,1-7.068,0L25.524,48.207l-1.856,1.1a1.375,1.375,0,0,0,0,2.36L44.293,64.041a1.375,1.375,0,0,0,1.413,0L66.332,51.666a1.375,1.375,0,0,0,0-2.36Z" fill="#fff"/>
  <path id="Path_2" data-name="Path 2" d="M66.332,38.32,45.707,25.945a1.375,1.375,0,0,0-1.413,0L23.668,38.32a1.375,1.375,0,0,0,0,2.36L44.293,53.055a1.375,1.375,0,0,0,1.413,0L66.332,40.68a1.375,1.375,0,0,0,0-2.36Z" fill="#fff"/>
</svg>
