<svg width="44" height="7" viewBox="0 0 44 7" fill="none" xmlns="http://www.w3.org/2000/svg">
<path d="M2.582 0.00699997H13.533V0C16.213 0 18.972 0 21.648 0C24.324 0 27.077 0 29.76 0V0.00699997H40.701C42.138 0.00699997 43.301 1.545 43.301 3.442C43.301 5.339 42.142 6.877 40.719 6.877C40.719 6.877 36.087 6.877 29.764 6.877H13.533C7.214 6.877 2.592 6.877 2.582 6.877C1.155 6.877 0 5.339 0 3.442C0 1.545 1.155 0.00699997 2.582 0.00699997Z" fill="#001D40"/>
<path d="M2.81199 0.138988C2.81199 0.138988 7.38099 0.138988 13.631 0.138988V0.131989C16.283 0.131989 19 0.131989 21.645 0.131989C24.29 0.131989 27.007 0.131989 29.663 0.131989V0.138988C35.906 0.138988 40.468 0.138988 40.468 0.138988C41.1628 0.190164 41.8127 0.501845 42.2875 1.01166C42.7624 1.52147 43.0272 2.1918 43.029 2.8885C43.0307 3.5852 42.7693 4.25687 42.2971 4.76909C41.8248 5.28131 41.1765 5.59629 40.482 5.65099C40.482 5.65099 35.906 5.65099 29.663 5.65099C27.008 5.65099 24.29 5.65099 21.645 5.65099C19 5.65099 16.283 5.65099 13.631 5.65099C7.38099 5.65099 2.82299 5.65099 2.82299 5.65099C2.47382 5.63835 2.13056 5.55702 1.81283 5.41165C1.49511 5.26627 1.20916 5.05971 0.971312 4.80375C0.733469 4.5478 0.548403 4.24748 0.426693 3.91996C0.304982 3.59244 0.249015 3.24415 0.26199 2.89499C0.235476 2.19158 0.489062 1.50638 0.967114 0.98971C1.44517 0.473038 2.10864 0.16709 2.81199 0.138988Z" fill="#2B79BE"/>
<path d="M3.28499 0.543011L13.812 0.536011H29.419L39.949 0.543011C40.2697 0.524309 40.5908 0.571324 40.8926 0.68117C41.1945 0.791015 41.4707 0.961376 41.7044 1.1818C41.938 1.40223 42.1242 1.66807 42.2514 1.96301C42.3787 2.25796 42.4443 2.57579 42.4443 2.89701C42.4443 3.21823 42.3787 3.53606 42.2514 3.83101C42.1242 4.12596 41.938 4.3918 41.7044 4.61222C41.4707 4.83265 41.1945 5.00301 40.8926 5.11285C40.5908 5.2227 40.2697 5.26971 39.949 5.25101H29.419H13.812H3.28499C2.96432 5.26971 2.6432 5.2227 2.34135 5.11285C2.03949 5.00301 1.76327 4.83265 1.52961 4.61222C1.29596 4.3918 1.1098 4.12596 0.982568 3.83101C0.855334 3.53606 0.789703 3.21823 0.789703 2.89701C0.789703 2.57579 0.855334 2.25796 0.982568 1.96301C1.1098 1.66807 1.29596 1.40223 1.52961 1.1818C1.76327 0.961376 2.03949 0.791015 2.34135 0.68117C2.6432 0.571324 2.96432 0.524309 3.28499 0.543011Z" fill="#B55E2C"/>
<path d="M3.28499 0.543011L13.812 0.536011H29.419L39.949 0.543011C40.2697 0.524309 40.5908 0.571324 40.8926 0.68117C41.1945 0.791015 41.4707 0.961376 41.7044 1.1818C41.938 1.40223 42.1242 1.66807 42.2514 1.96301C42.3787 2.25796 42.4443 2.57579 42.4443 2.89701C42.4443 3.21823 42.3787 3.53606 42.2514 3.83101C42.1242 4.12596 41.938 4.3918 41.7044 4.61222C41.4707 4.83265 41.1945 5.00301 40.8926 5.11285C40.5908 5.2227 40.2697 5.26971 39.949 5.25101H29.419H13.812H3.28499C2.96432 5.26971 2.6432 5.2227 2.34135 5.11285C2.03949 5.00301 1.76327 4.83265 1.52961 4.61222C1.29596 4.3918 1.1098 4.12596 0.982568 3.83101C0.855334 3.53606 0.789703 3.21823 0.789703 2.89701C0.789703 2.57579 0.855334 2.25796 0.982568 1.96301C1.1098 1.66807 1.29596 1.40223 1.52961 1.1818C1.76327 0.961376 2.03949 0.791015 2.34135 0.68117C2.6432 0.571324 2.96432 0.524309 3.28499 0.543011Z" fill="#E9DCCB"/>
</svg>
