<svg width="176" height="60" viewBox="0 0 176 60" fill="none" xmlns="http://www.w3.org/2000/svg">
<path d="M163.078 27.4141C157.391 6.72913 128.407 23.4851 128.407 23.4851C116.179 11.4431 98.7911 13.5611 93.1481 19.3451C97.2301 3.78713 71.4811 -3.35488 63.0481 6.80112C60.5801 -5.44888 35.9801 0.30113 40.0921 12.5551C31.3191 10.8891 21.9921 15.4281 21.7171 25.1081C6.07008 19.2081 -10.2399 45.3441 8.1641 51.8271C12.3291 53.2941 17.5501 51.2721 21.8841 52.0901C26.8841 53.0241 28.8711 55.8561 33.5351 56.8071C42.0251 58.5291 53.1221 56.6301 60.0491 52.2601C69.8731 62.9601 100.405 60.8001 106.954 46.7281C109.441 49.0831 112.554 50.6706 115.921 51.3001C117.414 51.6119 118.961 51.5486 120.424 51.116C121.887 50.6834 123.22 49.8949 124.303 48.8211C132.924 53.0991 148.668 51.7271 150.315 40.5211C161.488 56.6291 191.705 28.4371 163.078 27.4141Z" fill="#EBFFFC"/>
<path d="M163.078 27.4142C162.44 24.7707 161.069 22.3605 159.124 20.4602C158.284 26.5442 153.914 32.0452 145.978 32.0452C143.488 32.0939 141.033 31.4496 138.888 30.1842C136.665 32.781 133.925 34.8866 130.844 36.3672C119.578 41.7382 108.584 40.1022 100.57 31.1672C99.4914 32.7499 98.1938 34.1717 96.7161 35.3902C87.7821 42.7522 73.7461 44.6902 63.8801 37.7392C62.3086 36.6311 60.9322 35.2695 59.8071 33.7102C55.9759 36.1743 51.4894 37.4229 46.936 37.2922C40.029 37.0422 32.2361 33.2302 28.8071 26.9802C26.8408 23.5817 25.9052 19.6849 26.1141 15.7642C24.7503 16.9116 23.6513 18.3408 22.8926 19.9534C22.1339 21.5661 21.7336 23.324 21.7191 25.1062C6.07205 19.2062 -10.238 45.3422 8.16604 51.8252C12.331 53.2922 17.552 51.2702 21.886 52.0882C26.886 53.0222 28.873 55.8542 33.537 56.8052C42.027 58.5272 53.124 56.6282 60.051 52.2582C69.875 62.9582 100.407 60.7982 106.956 46.7262C109.443 49.0811 112.556 50.6686 115.923 51.2982C117.416 51.6099 118.963 51.5467 120.426 51.114C121.889 50.6814 123.222 49.893 124.305 48.8192C132.926 53.0972 148.67 51.7252 150.317 40.5192C161.488 56.6282 191.705 28.4372 163.078 27.4142Z" fill="#ACEAEA"/>
<path d="M173.061 30.0731C172.8 32.9461 171.639 35.6632 169.742 37.8371C167.846 40.0109 165.311 41.5304 162.5 42.1788C159.689 42.8272 156.745 42.5714 154.088 41.4479C151.431 40.3243 149.197 38.3905 147.704 35.9221C147.253 35.709 146.815 35.4703 146.392 35.2071C145.343 37.7013 143.587 39.8337 141.34 41.3411C139.093 42.8484 136.454 43.6647 133.748 43.6891C131.249 43.6827 128.8 42.9831 126.675 41.6681C126.348 41.8901 126.04 42.1341 125.688 42.3251C122.817 43.9321 119.565 44.7337 116.275 44.6451C112.986 44.5566 109.782 43.5812 107.001 41.8221C105.829 41.0737 104.763 40.1698 103.834 39.1351C103.084 41.8727 101.427 44.2749 99.1352 45.9495C96.8432 47.6241 94.0512 48.4722 91.215 48.3551C89.4794 48.4115 87.7505 48.113 86.1342 47.478C84.5179 46.843 83.0482 45.8848 81.8151 44.6621C80.5126 46.2191 78.8772 47.464 77.0295 48.3048C75.1818 49.1456 73.169 49.561 71.1394 49.5203C69.1098 49.4796 67.1152 48.9839 65.3027 48.0697C63.4903 47.1555 61.9061 45.8461 60.6671 44.2381C59.9677 45.1435 59.215 46.0063 58.413 46.8221C51.098 54.2221 39.4001 56.5601 30.6771 49.9771C29.4301 49.0302 28.2984 47.9404 27.3051 46.7301C25.8193 47.1346 24.2869 47.3424 22.747 47.3481C16.078 47.3731 10.768 44.0481 7.10303 38.6331C5.36226 35.9681 4.74178 32.7244 5.37604 29.6051C-1.33196 36.4341 -3.14797 47.8341 8.16803 51.8241C12.333 53.2911 17.554 51.2691 21.888 52.0871C26.888 53.0211 28.8751 55.8531 33.5391 56.8041C42.0291 58.5261 53.126 56.6271 60.053 52.2571C69.877 62.9571 100.409 60.7971 106.958 46.7251C109.445 49.0801 112.558 50.6675 115.925 51.2971C117.418 51.6092 118.965 51.5465 120.427 51.1146C121.89 50.6827 123.222 49.895 124.306 48.8221C132.927 53.1001 148.671 51.7281 150.318 40.5221C159.538 53.8171 181.684 36.9521 173.061 30.0731Z" fill="#71D7E2"/>
<path d="M110.426 19.4751C103.926 17.4371 105.21 18.1301 98.9382 20.7481C94.3492 22.6671 92.1382 22.2951 89.0032 18.1831C85.7872 13.9571 86.6932 10.2971 78.9852 11.3061C74.3102 11.9161 71.7372 13.7851 67.2012 11.4611C62.1012 8.84906 58.2312 6.72806 55.6242 10.9231C50.7832 4.43506 47.6852 11.5881 47.4422 15.8731C43.6682 16.7851 29.2582 18.4131 37.1492 25.7831C38.4052 26.9481 45.1402 28.0321 46.9372 27.6131C50.6642 26.7481 51.6672 22.3531 55.0862 21.1631C58.5242 19.9631 61.3582 22.8631 64.2862 22.8211C67.6162 22.7771 70.4062 20.4211 73.8972 21.1741C77.9872 22.0741 79.4322 27.7981 88.6372 24.3351C90.6192 29.9221 96.3322 28.8351 98.7882 27.5131C102.739 25.4001 100.202 24.8131 103.319 23.4921C107.933 21.5401 110.204 24.0741 114.36 26.5811C116.553 27.8951 116.609 29.9251 119.778 29.3811C122.005 28.9981 124.719 26.1231 123.878 23.5501C122.798 20.2021 113.456 20.4211 110.426 19.4751Z" fill="white"/>
</svg>
