<svg width="158" height="60" viewBox="0 0 158 60" fill="none" xmlns="http://www.w3.org/2000/svg">
<path d="M146.922 27.894C141.828 7.20899 115.865 23.965 115.865 23.965C104.912 11.923 89.3358 14.041 84.2808 19.825C87.9368 4.26699 64.8729 -2.87502 57.3219 7.28098C55.1109 -4.96902 33.0749 0.780989 36.7589 13.035C28.8999 11.369 20.5499 15.908 20.2989 25.588C6.28288 19.688 -8.32715 45.824 8.15785 52.307C11.8889 53.774 16.5659 51.752 20.4479 52.57C24.9309 53.504 26.7068 56.336 30.8848 57.287C38.4898 59.009 48.4308 57.11 54.6348 52.74C63.4348 63.44 90.7838 61.28 96.6508 47.208C98.8043 49.5091 101.605 51.1032 104.683 51.78C106.042 52.0722 107.454 51.9965 108.774 51.5608C110.094 51.125 111.274 50.3449 112.192 49.301C119.914 53.579 134.017 52.207 135.492 41.001C145.496 57.109 172.564 28.917 146.922 27.894Z" fill="#EBFFFC"/>
<path d="M146.922 27.894C146.379 25.303 145.156 22.903 143.38 20.94C142.628 27.024 138.713 32.525 131.604 32.525C129.347 32.5654 127.131 31.9162 125.253 30.664C123.317 33.2129 120.861 35.3206 118.047 36.847C107.955 42.218 98.107 40.582 90.929 31.647C89.9799 33.2084 88.8177 34.6297 87.476 35.87C79.476 43.232 66.9 45.17 58.063 38.219C56.6329 37.0863 55.3999 35.725 54.414 34.19C51.0724 36.626 47.0177 37.8857 42.884 37.772C36.697 37.522 29.712 33.71 26.645 27.46C24.8699 23.9983 24.037 20.1305 24.23 16.245C22.9787 17.4569 21.9849 18.909 21.3084 20.5143C20.6319 22.1196 20.2865 23.845 20.293 25.587C6.27699 19.687 -8.333 45.823 8.152 52.306C11.883 53.773 16.56 51.751 20.442 52.569C24.925 53.503 26.701 56.335 30.879 57.286C38.484 59.008 48.425 57.109 54.629 52.739C63.429 63.439 90.778 61.279 96.645 47.207C98.7984 49.5081 101.599 51.1022 104.677 51.779C106.036 52.0712 107.448 51.9956 108.768 51.5598C110.088 51.124 111.268 50.3439 112.186 49.3C119.908 53.578 134.011 52.206 135.486 41C145.496 57.108 172.564 28.917 146.922 27.894Z" fill="#ACEAEA"/>
<path d="M155.863 30.553C155.272 37.46 149.934 43.011 143.608 43.011C141.433 42.9441 139.316 42.2959 137.477 41.1336C135.637 39.9713 134.143 38.3375 133.149 36.402C132.743 36.1876 132.351 35.9489 131.974 35.687C130.094 40.631 125.7 44.169 120.648 44.169C118.38 44.1532 116.17 43.4483 114.312 42.148C114.029 42.3819 113.734 42.6012 113.428 42.805C110.908 44.4063 107.966 45.2148 104.982 45.1256C101.998 45.0365 99.1094 44.0539 96.69 42.305C95.6259 41.5433 94.6712 40.6392 93.8529 39.618C92.4789 44.69 88.7189 48.838 82.5529 48.838C80.9649 48.8766 79.3879 48.5658 77.9333 47.9277C76.4786 47.2895 75.182 46.3396 74.135 45.145C73.0606 46.6812 71.6235 47.9284 69.9514 48.7759C68.2792 49.6233 66.4236 50.0448 64.5495 50.0028C62.6753 49.9609 60.8405 49.4568 59.2079 48.5354C57.5753 47.614 56.1955 46.3037 55.1909 44.721C54.5668 45.62 53.8906 46.4818 53.1659 47.302C46.6139 54.702 36.1349 57.04 28.3209 50.457C27.1912 49.496 26.1777 48.4063 25.3009 47.21C23.9772 47.6134 22.6018 47.8216 21.218 47.828C15.244 47.853 10.4879 44.528 7.20394 39.113C5.63311 36.3826 5.08476 33.1825 5.65695 30.085C-0.351053 36.914 -1.97805 48.314 8.15695 52.304C11.8879 53.771 16.565 51.749 20.447 52.567C24.93 53.501 26.7059 56.333 30.8839 57.284C38.4889 59.006 48.4299 57.107 54.6339 52.737C63.4339 63.437 90.7829 61.277 96.6499 47.205C98.8034 49.506 101.604 51.1001 104.682 51.777C106.041 52.0697 107.453 51.9946 108.773 51.5596C110.093 51.1245 111.273 50.3452 112.191 49.302C119.913 53.58 134.016 52.208 135.491 41.002C143.75 54.297 163.588 37.432 155.863 30.553Z" fill="#71D7E2"/>
<path d="M99.7569 19.955C93.9369 17.917 95.0849 18.61 89.4659 21.228C85.3549 23.147 83.3729 22.775 80.5659 18.663C77.6849 14.437 78.4969 10.777 71.5919 11.786C67.4039 12.396 65.0989 14.265 61.0359 11.941C56.4629 9.32904 53.0009 7.20804 50.6659 11.403C46.3289 4.91504 43.5549 12.068 43.3359 16.353C39.9559 17.265 27.0469 18.893 34.1159 26.263C35.2409 27.428 41.2739 28.512 42.8839 28.093C46.2219 27.228 47.1209 22.833 50.1839 21.643C53.2639 20.443 55.8019 23.343 58.4279 23.301C61.4109 23.257 63.9099 20.901 67.0369 21.654C70.7009 22.554 71.9949 28.278 80.2369 24.815C82.0129 30.402 87.1299 29.315 89.3299 27.993C92.8689 25.88 90.5969 25.293 93.3879 23.972C97.5209 22.02 99.5549 24.554 103.279 27.061C105.244 28.375 105.293 30.405 108.132 29.861C110.127 29.478 112.558 26.603 111.808 24.03C110.839 20.682 102.472 20.901 99.7569 19.955Z" fill="white"/>
</svg>
