<svg width="227" height="76" viewBox="0 0 227 76" fill="none" xmlns="http://www.w3.org/2000/svg">
<path d="M209.154 48.304C226.825 43.934 215.847 29.124 205.025 25.504C194.699 22.035 180.525 21.178 171.535 25.493C170.625 24.542 170.082 20.837 166.325 18.761C162.568 16.685 159.504 18.161 156.756 18.24C161.977 -2.07901 119.808 3.58599 115.948 13.482C114.307 2.49899 113.725 -0.80901 103.576 0.25099C95.7759 1.05799 91.403 9.95099 91.403 9.95099C91.403 9.95099 82.4029 6.05099 77.4639 6.27399C61.3929 6.99499 35.1199 17.393 49.4859 37.729C44.1209 33.115 36.8919 32.452 31.5759 37.466C24.2249 31.188 -2.06105 34.66 0.461954 48.313C2.61895 59.981 27.762 59.551 36.902 60.802C40.734 61.321 53.822 62.263 58.264 63.908C65.49 66.584 62.5339 71.575 70.4639 74.425C84.0399 79.313 101.716 69.104 113.853 67.754C120.719 79.946 143.192 69.113 152.595 63.769C153.915 64.687 155.179 66.359 156.532 67.185C169.789 60.735 183.401 76.737 196.253 62.931C201 62.59 221.153 63.888 224.733 59.171C232.696 48.711 217.753 46.604 209.154 48.304Z" fill="#CDFCF6"/>
<path d="M209.155 48.302C226.826 43.932 215.848 29.122 205.026 25.502C203.965 25.1551 202.886 24.8689 201.793 24.645C204.216 31.832 201.13 41.088 192.568 42.973C192.259 44.2448 191.769 45.4654 191.112 46.597C189.493 49.362 186.218 52.425 182.893 52.916C176.826 53.816 171.036 53.867 165.485 50.795C163.313 49.5753 161.392 47.955 159.823 46.02C157.653 47.3483 155.149 48.0283 152.605 47.98C150.23 48.0799 147.876 47.4994 145.82 46.3068C143.763 45.1142 142.091 43.3591 140.998 41.248C134.64 45.529 127.719 47.115 121.198 42.609C120.879 42.39 120.58 42.157 120.277 41.921C119.789 43.0911 119.236 44.2326 118.619 45.34C115.904 50.167 111.168 55.189 105.419 56.11C100.836 57.0035 96.0855 56.1059 92.1449 53.602C88.3845 57.2182 83.5015 59.441 78.3049 59.902C70.5659 60.752 63.6259 55.747 60.2459 49.102C59.9629 49.027 54.5889 51.473 51.2339 51.473C47.6569 51.473 43.7169 50.192 42.4909 45.811C41.0209 51.54 29.1229 51.138 28.0589 46.171C26.7848 46.5602 25.4554 46.7373 24.1239 46.695C21.6779 46.62 18.3619 46.143 16.2909 44.621C13.4459 42.521 13.3439 42.561 11.3029 39.611C10.6557 38.5421 10.1752 37.3807 9.8779 36.167C3.8689 38.255 -0.648102 42.278 0.463898 48.312C2.6209 59.98 27.7639 59.55 36.9039 60.801C40.7359 61.32 53.8239 62.262 58.2659 63.907C65.4919 66.583 62.5359 71.574 70.4659 74.424C84.0419 79.312 101.718 69.103 113.855 67.753C120.721 79.945 143.194 69.112 152.597 63.768C153.917 64.686 155.181 66.358 156.534 67.184C169.791 60.734 183.403 76.736 196.255 62.93C201.002 62.589 221.155 63.887 224.735 59.17C232.696 48.712 217.753 46.602 209.155 48.302Z" fill="#B0EDED"/>
<path d="M209.155 48.304C221 45.376 219.969 37.756 214.737 31.964C214.424 33.2138 213.9 34.4009 213.187 35.474C209 41.696 203.008 46.807 195.499 48.381C195.36 48.409 195.224 48.42 195.086 48.448C194.426 50.3646 193.343 52.1078 191.917 53.548L188.856 56.606C186.261 59.1532 182.77 60.5803 179.134 60.5803C175.498 60.5803 172.008 59.1532 169.413 56.606C169.352 56.542 169.297 56.47 169.233 56.412C166.419 58.0329 163.373 59.2133 160.202 59.912C153.528 61.323 147.611 61.102 142.015 58.869C141.704 58.786 141.383 58.708 141.072 58.608C140.338 58.3704 139.622 58.0786 138.931 57.735C130.305 63.014 119.383 63.86 111.763 59.035C92.633 66.275 66.552 71.876 57.812 52.361C48.7042 54.2332 39.3681 54.7361 30.112 53.853C22.689 53.163 12.297 51.582 8.69197 43.774C7.74675 41.7686 7.1289 39.6248 6.86195 37.424C2.45095 39.717 -0.450041 43.333 0.461959 48.302C2.61896 59.97 27.762 59.54 36.902 60.791C40.734 61.31 53.822 62.252 58.264 63.897C65.49 66.573 62.534 71.564 70.464 74.414C84.04 79.302 101.716 69.093 113.853 67.743C120.719 79.935 143.192 69.102 152.595 63.758C153.915 64.676 155.179 66.348 156.532 67.174C169.789 60.724 183.401 76.726 196.253 62.92C201 62.579 221.153 63.877 224.733 59.16C232.696 48.712 217.753 46.605 209.155 48.304Z" fill="#71D7E2"/>
<path d="M180.572 28.409C175.498 29.227 175.306 36.509 169.486 33.214C167.334 31.991 167.686 29.399 165.886 27.971C163.82 26.324 160.828 26.071 158.43 25.517C156.45 25.048 153.23 25.137 151.85 23.79C150.47 22.443 151.589 19.071 150.142 17.468C147.342 14.36 142.134 15.893 139.056 13.991C134.681 11.274 134.362 8.7 128.134 10.314C124.044 11.376 120.6 15.935 116.483 16.048C110.552 16.203 112.449 11.783 108.766 8.748C103.007 4.004 103.182 8.759 100.314 12.114C96.4239 16.667 94.0559 13.014 88.5139 12.23C83.9079 11.57 78.2239 11.698 73.9139 13.27C70.4869 14.518 67.1289 12.835 62.7669 14.518C57.5989 15.83 53.0149 18.957 51.0209 23.532C48.5779 29.169 51.6979 30.059 53.5549 35.988C51.4549 42.565 42.3469 35.863 37.8299 36.568C34.6939 37.059 33.6819 39.468 30.7069 40.516C27.5879 41.616 24.0989 39.616 21.5679 41.7C24.7621 42.3732 28.0391 42.564 31.2899 42.266C33.9189 42.022 37.9389 40.023 40.7399 40.647C43.6599 41.307 45.1239 44.523 48.3179 44.754C51.1819 44.962 53.7719 41.621 56.4449 41.199C63.4449 40.099 67.3449 41.909 72.1999 35.989C74.5209 33.158 72.9569 30.909 77.3159 29.451C80.0639 28.53 83.0969 29.798 85.6009 31.386C87.6419 29.955 88.8009 27.205 90.8139 25.921C93.9809 23.911 100.738 23.534 104.246 24.873C106.919 25.902 108.325 29.129 111.821 29.01C115.021 28.899 114.439 27.452 116.921 26.49C121.366 24.76 125.159 25.45 129.881 24.79C135.257 24.036 139.245 23.207 144.46 26.235C148.16 28.376 150.63 33.02 154.204 34.969C158.104 37.099 161.968 35.669 166.582 36C171.764 36.385 175.649 38.315 180.565 39.355C184.599 40.206 183.072 39.801 186.857 38.737C189.034 38.137 189.511 36.106 192.217 36.893C192.783 36.6525 193.29 36.2912 193.703 35.8343C194.115 35.3775 194.423 34.8361 194.604 34.248C192.572 31.343 184.16 27.835 180.572 28.409Z" fill="#EBFFFD"/>
</svg>
