<svg width="118" height="40" viewBox="0 0 118 40" fill="none" xmlns="http://www.w3.org/2000/svg">
<path d="M102.663 17.077C102.483 10.6 96.2359 7.56603 90.3679 8.67703C93.1159 0.477026 76.6509 -3.37397 75.0009 4.82803C69.3559 -1.97197 52.1168 2.80703 54.8508 13.228C51.0738 9.34903 39.4419 7.93503 31.2509 15.995C31.2509 15.995 11.8509 4.77303 8.04487 18.624C-11.1211 19.312 9.11184 38.189 16.5878 27.4C17.6878 34.9 28.2279 35.821 33.9959 32.957C34.7215 33.6763 35.6146 34.2039 36.5947 34.4924C37.5748 34.7809 38.6112 34.8214 39.6108 34.61C41.8648 34.1944 43.9493 33.1327 45.6108 31.554C49.9948 40.973 70.4389 42.418 77.0109 35.254C81.6409 38.185 89.0698 39.447 94.7488 38.293C97.8768 37.658 99.2048 35.764 102.549 35.135C105.449 34.594 108.943 35.945 111.735 34.96C124.063 30.621 113.14 13.124 102.663 17.077Z" fill="#EBFFFC"/>
<path d="M102.663 17.0761C102.655 15.8819 102.389 14.7036 101.881 13.6226C101.374 12.5416 100.638 11.5837 99.7239 10.8151C99.8635 13.4421 99.2382 16.0532 97.9238 18.3321C95.6338 22.5131 90.4098 25.0671 85.7848 25.2321C82.7396 25.3202 79.7388 24.4861 77.1758 22.8391C76.4257 23.8889 75.5009 24.8021 74.4418 25.5391C67.8418 30.1921 58.4508 28.8971 52.4678 23.9701C51.4798 23.1525 50.6134 22.1983 49.8948 21.1361C44.5348 27.1141 37.1649 28.2181 29.6279 24.6211C27.5634 23.6327 25.7276 22.2248 24.2378 20.4871C22.8017 21.3312 21.1594 21.7601 19.4938 21.7261C17.3145 21.7994 15.1897 21.0372 13.5538 19.5954C11.918 18.1536 10.8949 16.1413 10.6938 13.9701C9.39232 15.2433 8.47476 16.8566 8.04583 18.6261C-11.1202 19.3141 9.11286 38.1911 16.5889 27.4021C17.6889 34.9021 28.2288 35.8231 33.9968 32.9591C34.7225 33.6783 35.6155 34.2059 36.5956 34.4944C37.5758 34.783 38.6123 34.8234 39.6119 34.6121C41.8658 34.1964 43.9503 33.1347 45.6119 31.5561C49.9959 40.9751 70.4398 42.4201 77.0118 35.2561C81.6418 38.1871 89.0709 39.4491 94.7499 38.2951C97.8779 37.6601 99.2059 35.7661 102.55 35.1371C105.45 34.5961 108.944 35.9471 111.736 34.9621C124.063 30.6201 113.14 13.1201 102.663 17.0761Z" fill="#ACEAEA"/>
<path d="M112.452 26.132C111.349 27.9168 109.808 29.3897 107.975 30.4104C106.142 31.4311 104.079 31.9656 101.981 31.963C100.95 31.9581 99.9239 31.821 98.9278 31.555C98.2627 32.3618 97.5051 33.0877 96.6708 33.718C90.8338 38.13 83.0038 36.563 78.1068 31.618C77.5696 31.0688 77.0631 30.4902 76.5898 29.885C75.7615 30.9617 74.7019 31.8385 73.4892 32.4505C72.2765 33.0626 70.9417 33.3944 69.5835 33.4213C68.2254 33.4481 66.8785 33.1695 65.6425 32.6058C64.4066 32.0422 63.3131 31.2081 62.4428 30.165C61.617 30.9855 60.6321 31.6284 59.5487 32.0542C58.4653 32.48 57.3063 32.6797 56.1428 32.641C54.2442 32.7186 52.3753 32.1507 50.841 31.0298C49.3066 29.9089 48.1972 28.3013 47.6938 26.469C47.0763 27.1643 46.3632 27.7683 45.5758 28.263C43.7161 29.4424 41.572 30.0971 39.3707 30.1576C37.1693 30.2182 34.9926 29.6824 33.0708 28.607C32.8328 28.471 32.6328 28.316 32.4078 28.169C30.9865 29.0457 29.3508 29.5132 27.6808 29.52C25.8697 29.5023 24.1033 28.9552 22.5992 27.9462C21.0951 26.9371 19.9191 25.5101 19.2158 23.841C18.933 24.0127 18.6416 24.1699 18.3428 24.312C17.3428 25.9645 15.8466 27.2591 14.0676 28.0112C12.2885 28.7634 10.3174 28.9347 8.43526 28.5008C6.55312 28.0669 4.85604 27.0498 3.5859 25.5947C2.31575 24.1395 1.53741 22.3205 1.36184 20.397C-4.40816 25.005 10.4178 36.288 16.5898 27.397C17.6898 34.897 28.2298 35.818 33.9978 32.954C34.7235 33.6732 35.6165 34.2008 36.5966 34.4894C37.5768 34.7779 38.6132 34.8183 39.6128 34.607C41.8667 34.1914 43.9513 33.1296 45.6128 31.551C49.9968 40.97 70.4408 42.415 77.0128 35.251C81.6428 38.182 89.0718 39.444 94.7508 38.29C97.8788 37.655 99.2068 35.761 102.551 35.132C105.451 34.591 108.945 35.942 111.737 34.957C119.307 32.29 118.098 24.657 113.603 20.089C114.029 22.1763 113.615 24.3474 112.452 26.132Z" fill="#71D7E2"/>
<path d="M85.4559 10.895C85.2919 8.025 83.2179 3.239 79.9769 7.581C78.2299 4.767 75.6459 6.189 72.2269 7.939C69.1799 9.489 67.4659 8.244 64.3329 7.834C59.1759 7.155 59.7859 9.609 57.6329 12.434C55.5329 15.182 54.0479 15.434 50.9809 14.159C46.7809 12.407 47.6399 11.938 43.2949 13.305C41.2599 13.934 35.0069 13.787 34.2829 16.025C33.7149 17.75 35.5309 19.671 37.0249 19.925C39.1459 20.291 39.1879 18.943 40.6569 18.056C43.4379 16.373 44.9569 14.676 48.0439 15.99C50.1349 16.872 48.4269 17.263 51.0749 18.682C52.7189 19.561 56.5459 20.29 57.8679 16.547C64.0349 18.868 64.9969 15.033 67.7449 14.447C70.0769 13.931 71.9449 15.509 74.1669 15.547C76.1299 15.577 78.0349 13.631 80.3339 14.438C82.6329 15.245 83.2919 18.176 85.7819 18.758C86.9879 19.033 91.4939 18.306 92.3339 17.532C97.6229 12.592 87.9789 11.502 85.4559 10.895Z" fill="white"/>
</svg>
