<svg width="117" height="61" viewBox="0 0 117 61" fill="none" xmlns="http://www.w3.org/2000/svg">
<g opacity="0.731">
<path d="M68.134 10.4041L66.1981 11.3681C66.0441 11.2111 65.844 11.0531 65.671 10.9001C65.482 11.0931 65.2891 11.2781 65.1121 11.4831C65.6642 11.5378 66.2216 11.4695 66.7442 11.2829C67.2668 11.0963 67.7414 10.7962 68.134 10.4041Z" fill="#EBFFFC"/>
<path d="M94.982 18.145C108.065 2.70403 76.6519 -0.688972 65.6749 10.899C65.8479 11.053 66.0489 11.21 66.2019 11.367L68.1389 10.403C68.5487 10.0924 69.0116 9.85888 69.505 9.71403L68.1389 10.403C67.7461 10.7951 67.2713 11.0952 66.7486 11.2816C66.2258 11.468 65.6682 11.5361 65.1159 11.481C65.2929 11.281 65.4859 11.092 65.6749 10.899C54.82 1.19903 16.6919 -8.54997 24.6969 17.731C4.86392 15.767 -6.99502 33.9 4.95498 49.451C14.728 62.16 40.327 60.302 53.055 50.022C58.664 65.691 100.365 62.495 100.814 43.322C120.511 60.068 125.529 -0.50297 94.982 18.145Z" fill="#EBFFFC"/>
<path d="M113.348 23.085C112.579 26.1096 110.953 28.8475 108.664 30.969C105.44 33.949 101.681 35.554 97.264 34.893C96.2806 34.7385 95.3374 34.3909 94.489 33.87C92.6 45.135 81.819 51.342 70.755 47.343C66.1806 45.8177 62.2727 42.7607 59.691 38.688C58.3965 39.2977 56.9823 39.6116 55.5513 39.6067C54.1204 39.6019 52.7085 39.2785 51.418 38.66C49.6981 37.773 48.3198 36.342 47.498 34.59C45.3138 38.0681 42.2016 40.8669 38.512 42.671C29.377 47.205 17.14 46.225 15.731 34.224C10.288 33.043 6.26104 29.304 5.73804 23.648C-0.783961 29.942 -2.20098 40.148 4.95502 49.448C14.728 62.157 40.327 60.299 53.055 50.019C58.664 65.688 100.365 62.492 100.814 43.319C113.543 54.143 120.114 32.696 114.964 21.187C114.466 21.8529 113.926 22.4868 113.348 23.085Z" fill="#ACEAEA"/>
<path d="M101.504 39.2191C100.898 38.9862 100.306 38.7167 99.7328 38.4121C100.083 44.6031 97.3949 49.7991 89.3889 50.5431C88.5727 51.586 87.6434 52.5351 86.6179 53.3731C79.4389 59.1431 70.3698 58.1391 66.2178 50.0981C66.0008 49.9331 65.7768 49.7791 65.5718 49.6181C65.3038 49.7081 65.0599 49.8311 64.7809 49.9011C58.9279 51.4521 54.3039 48.1461 52.8159 43.1231C47.7939 51.5971 38.7489 57.1511 28.8499 52.6321C27.4039 51.9559 26.0442 51.1089 24.7999 50.1091C16.8409 53.0811 8.59988 50.1441 4.98688 41.7181C2.90808 36.8052 2.4141 31.3661 3.57386 26.1591C-0.992145 32.4591 -1.31813 41.2931 4.95587 49.4521C14.7289 62.1611 40.3279 60.3031 53.0559 50.0231C58.6649 65.6921 100.366 62.4961 100.815 43.3231C110.115 51.2301 116.13 41.8941 116.677 31.8101C116.535 31.8892 116.398 31.9774 116.268 32.0741C113.529 37.5341 107.991 41.7831 101.504 39.2191Z" fill="#71D7E2"/>
<path d="M67.5639 16.6811C62.6949 16.4881 52.3439 10.053 48.6479 7.08105L49.4549 7.90005C40.9889 0.319053 18.9669 1.47705 30.6449 15.8471C27.5939 17.3311 27.6769 18.26 27.3779 21.601C21.8439 21.227 13.1889 25.734 21.0019 29.048C27.4729 31.787 32.2469 24.262 35.6559 20.424C35.7189 20.385 36.2969 21.392 36.4859 21.439C36.3816 20.4126 36.5255 19.3762 36.9056 18.4171C37.2857 17.458 37.8907 16.6042 38.6697 15.9278C39.4487 15.2514 40.3789 14.7722 41.3819 14.5305C42.3849 14.2888 43.4313 14.2918 44.4329 14.5391C44.6729 22.8751 56.5949 22.486 61.6569 17.979C66.8919 30.503 84.3868 19.1131 86.7448 10.5401C79.1638 6.27105 74.5509 16.9691 67.5639 16.6811Z" fill="white"/>
</g>
</svg>
