<svg width="28" height="23" viewBox="0 0 28 23" fill="none" xmlns="http://www.w3.org/2000/svg">
<path d="M26.7189 6.03196C25.6989 2.38896 22.2509 -0.55204 18.1759 0.0879598C17.2303 0.237001 16.3272 0.585164 15.5262 1.10941C14.7253 1.63365 14.0448 2.32202 13.5299 3.12896C13.0109 2.32295 12.3273 1.63579 11.524 1.11256C10.7207 0.589334 9.81589 0.241867 8.86887 0.09296C4.79387 -0.54704 1.34587 2.39296 0.325869 6.03696C-0.339475 8.60968 0.0223844 11.3403 1.33486 13.651C2.76763 15.7719 4.74808 17.4652 7.06587 18.551C8.55887 19.365 10.1249 20.006 11.5789 20.893C12.126 21.2295 12.6514 21.6003 13.1519 22.003C13.2739 22.103 13.3989 22.208 13.5239 22.313C13.6389 22.213 13.7639 22.101 13.8889 22.003C14.3886 21.5979 14.9151 21.227 15.4649 20.893C16.9159 20.006 18.4819 19.365 19.9709 18.551C22.2911 17.4673 24.2734 15.7736 25.7059 13.651C27.0228 11.3401 27.3862 8.60664 26.7189 6.03196Z" fill="#ED1B2F"/>
<g style="mix-blend-mode:multiply">
<path d="M26.7189 6.02894C26.4004 4.88197 25.8482 3.81325 25.0969 2.88994C25.483 3.58733 25.7433 4.34727 25.8659 5.13494C26.3289 8.18294 24.0009 10.8519 21.4539 12.1569C18.5352 13.5105 15.3311 14.1338 12.1179 13.9729C9.43787 13.8729 6.94687 13.7149 4.52787 12.4589C3.31115 11.8712 2.3089 10.9174 1.66168 9.73127C1.01445 8.54513 0.754702 7.18616 0.918864 5.84494C1.13242 4.83574 1.54336 3.8787 2.12805 3.02885C2.71275 2.17901 3.45967 1.45313 4.32587 0.892944C2.36568 2.01036 0.927565 3.85834 0.325869 6.03294C-0.339475 8.60566 0.0223844 11.3363 1.33486 13.6469C2.76763 15.7679 4.74808 17.4611 7.06587 18.5469C8.55887 19.3609 10.1249 20.0019 11.5789 20.8889C12.126 21.2255 12.6514 21.5962 13.1519 21.9989C13.2739 22.0989 13.3989 22.2039 13.5239 22.3089C13.6389 22.2089 13.7639 22.0969 13.8889 21.9989C14.3886 21.5938 14.9151 21.223 15.4649 20.8889C16.9159 20.0019 18.4819 19.3609 19.9709 18.5469C22.2911 17.4633 24.2734 15.7696 25.7059 13.6469C27.0225 11.3363 27.3859 8.60332 26.7189 6.02894Z" fill="#BF1B40"/>
</g>
<g style="mix-blend-mode:multiply">
<path d="M26.7149 6.03294C26.4783 5.17821 26.1095 4.36573 25.6219 3.62494C25.9409 4.28192 26.176 4.97635 26.3219 5.69194C26.6021 7.05211 26.6008 8.45523 26.3183 9.8149C26.0357 11.1746 25.4778 12.462 24.6789 13.5979C21.3109 17.8979 15.0499 20.1709 12.0329 19.5829C6.46191 18.4829 2.77691 15.6049 0.876915 12.7549L0.862915 12.7269C1.00162 13.0427 1.15958 13.3496 1.33591 13.6459C2.76868 15.7669 4.74912 17.4601 7.06691 18.5459C8.55991 19.3599 10.1259 20.0009 11.5799 20.8879C12.1271 21.2245 12.6524 21.5952 13.1529 21.9979C13.2749 22.0979 13.3999 22.2029 13.5249 22.3079C13.6399 22.2079 13.7649 22.0959 13.8899 21.9979C14.3896 21.5928 14.9162 21.222 15.4659 20.8879C16.9169 20.0009 18.4829 19.3599 19.9719 18.5459C22.2922 17.4623 24.2744 15.7686 25.7069 13.6459C27.0206 11.3361 27.3822 8.6051 26.7149 6.03294Z" fill="#8E0F2D"/>
</g>
<g style="mix-blend-mode:color-dodge">
<path d="M12.1719 3.04693C11.4626 2.14263 10.5214 1.44755 9.44849 1.03567C8.37557 0.623789 7.21103 0.510525 6.07885 0.707932C2.13985 1.39693 0.211851 6.85293 2.68585 9.46693C5.15985 12.0809 15.2869 7.12493 12.1719 3.04693Z" fill="#FAB390"/>
</g>
<g style="mix-blend-mode:color-dodge" opacity="0.5">
<path d="M9.48181 2.46898C9.35541 2.12909 9.12782 1.83613 8.82975 1.6296C8.53167 1.42308 8.17744 1.31292 7.81481 1.31398C6.97168 1.29113 6.13564 1.47371 5.3788 1.84598C4.97736 2.03989 4.60671 2.29193 4.27881 2.59398C3.67881 3.17198 2.97881 4.49398 3.75681 5.19998C4.17739 5.48537 4.66655 5.65327 5.17374 5.68632C5.68093 5.71937 6.18774 5.61638 6.6418 5.38798C7.7348 5.04098 9.88181 3.88898 9.48181 2.46898Z" fill="#FAB390"/>
</g>
<g style="mix-blend-mode:color-dodge" opacity="0.5">
<path d="M3.42385 5.56994C3.18539 5.5068 2.93222 5.53107 2.7101 5.63837C2.48799 5.74566 2.3116 5.9289 2.21284 6.15494C1.90684 6.66694 2.06285 7.75494 2.70685 7.97794C3.37185 8.20394 3.86184 7.51494 4.04284 6.96894C4.22384 6.42294 3.98985 5.59094 3.42385 5.56994Z" fill="#FAB390"/>
</g>
</svg>
