<svg width="40" height="26" viewBox="0 0 40 26" fill="none" xmlns="http://www.w3.org/2000/svg">
<path fill-rule="evenodd" clip-rule="evenodd" d="M39.1261 9.67603C38.9261 4.31503 30.2501 0 19.5681 0C8.88612 0 0.209033 4.31503 0.0090332 9.67603H0V16.055C0.12 21.455 8.82909 25.81 19.5641 25.81C30.2991 25.81 39.0111 21.454 39.1271 16.055H39.1321V9.67303L39.1261 9.67603Z" fill="#7A7A7A"/>
<path fill-rule="evenodd" clip-rule="evenodd" d="M34.3151 10.839C31.2421 8.43899 25.766 6.83899 19.515 6.83899C13.264 6.83899 7.77903 8.43899 4.70703 10.852L2.09998 9.92401V15.403H2.10706C2.20706 20.037 9.96101 23.776 19.515 23.776C29.069 23.776 36.815 20.037 36.926 15.403H36.931V9.92401L34.3151 10.839Z" fill="#999999"/>
<path fill-rule="evenodd" clip-rule="evenodd" d="M36.933 11.63C36.933 16.307 29.133 20.099 19.517 20.099C9.90097 20.099 2.10205 16.308 2.10205 11.63C2.10205 6.952 9.90197 3.16205 19.517 3.16205C29.132 3.16205 36.933 6.952 36.933 11.63Z" fill="#F2F2F2"/>
<path fill-rule="evenodd" clip-rule="evenodd" d="M36.933 10.449C36.933 15.126 29.133 18.916 19.517 18.916C9.90097 18.916 2.10205 15.126 2.10205 10.449C2.10205 5.77204 9.90197 1.98102 19.517 1.98102C29.132 1.98102 36.933 5.77204 36.933 10.449Z" fill="#CCCCCC"/>
</svg>
