<svg width="29" height="38" viewBox="0 0 29 38" fill="none" xmlns="http://www.w3.org/2000/svg">
<path d="M28.518 9.73097C28.5147 9.50744 28.4973 9.28433 28.466 9.06297C28.435 8.84397 28.386 8.63097 28.337 8.41597C28.2926 8.21331 28.2379 8.01305 28.173 7.81597C28.096 7.59297 28.009 7.38097 27.915 7.16497C27.831 6.98797 27.748 6.81397 27.647 6.63597C27.5311 6.42358 27.4032 6.21792 27.264 6.01997C27.153 5.85997 27.031 5.70697 26.906 5.55697C26.7516 5.3647 26.5867 5.18109 26.412 5.00697C26.36 4.95497 26.318 4.89897 26.266 4.84997L26.276 4.89497C26.0492 4.66769 25.8063 4.45714 25.549 4.26497C24.4461 3.48232 23.1407 3.0347 21.7896 2.97589C20.4385 2.91707 19.0991 3.24956 17.9324 3.93341C16.7656 4.61726 15.8211 5.62341 15.2122 6.83099C14.6034 8.03858 14.3561 9.39626 14.5 10.741C14.486 10.692 14.469 10.651 14.458 10.602C14.458 10.702 14.5 10.797 14.51 10.902C14.5459 11.1834 14.5993 11.4622 14.67 11.737C14.719 11.932 14.764 12.123 14.83 12.311C14.9284 12.5884 15.0423 12.8602 15.171 13.125C15.258 13.296 15.331 13.466 15.425 13.633C15.5977 13.9126 15.7894 14.1799 15.999 14.433L16.076 14.544L12.448 19.725L12.368 19.669C12.281 19.608 12.1827 19.5647 12.079 19.5417C11.9752 19.5186 11.8679 19.5163 11.7632 19.5347C11.6585 19.5531 11.5584 19.592 11.4688 19.6491C11.3791 19.7062 11.3015 19.7804 11.2405 19.8675C11.1795 19.9545 11.1363 20.0528 11.1132 20.1565C11.0902 20.2603 11.0878 20.3676 11.1063 20.4723C11.1247 20.577 11.1636 20.6771 11.2207 20.7667C11.2778 20.8564 11.352 20.934 11.439 20.995L11.523 21.051L2.37704 34.089C2.10088 34.493 1.99516 34.9895 2.0828 35.471C2.17044 35.9524 2.44437 36.3799 2.84517 36.6606C3.24597 36.9414 3.74131 37.0528 4.22372 36.9707C4.70614 36.8886 5.13671 36.6195 5.42203 36.222L6.31604 34.941L6.88304 35.341L9.88304 37.446C10.2697 37.7173 10.7483 37.8239 11.2136 37.7423C11.6789 37.6607 12.0927 37.3977 12.364 37.011C12.6354 36.6243 12.7419 36.1457 12.6604 35.6804C12.5788 35.2151 12.3157 34.8013 11.929 34.53L10.509 33.53L11.456 32.189L12.876 33.189C13.2635 33.4495 13.7378 33.5475 14.1968 33.4618C14.6558 33.3761 15.0628 33.1135 15.3301 32.7307C15.5974 32.3479 15.7037 31.8754 15.6261 31.4149C15.5484 30.9545 15.2931 30.543 14.915 30.269L11.352 27.769L14.556 23.189L14.636 23.241C14.7229 23.3064 14.822 23.3536 14.9275 23.3799C15.033 23.4062 15.1427 23.4109 15.25 23.3939C15.3574 23.3769 15.4602 23.3385 15.5524 23.2809C15.6446 23.2233 15.7243 23.1477 15.7867 23.0587C15.849 22.9696 15.8929 22.869 15.9155 22.7626C15.9382 22.6563 15.9392 22.5465 15.9185 22.4398C15.8978 22.3331 15.8559 22.2316 15.7951 22.1414C15.7344 22.0513 15.6562 21.9743 15.565 21.915L15.488 21.859L19.124 16.667C20.5757 17.1938 22.1603 17.228 23.6333 16.7644C25.1064 16.3008 26.3858 15.3652 27.274 14.102C27.5362 13.724 27.7622 13.3223 27.949 12.902C28.008 12.759 28.049 12.613 28.095 12.47C28.2016 12.1975 28.2911 11.9186 28.363 11.635C28.408 11.451 28.422 11.266 28.453 11.082C28.4925 10.8376 28.5182 10.5912 28.53 10.344C28.5364 10.1396 28.5324 9.93497 28.518 9.73097ZM18.538 12.383C18.486 12.32 18.438 12.254 18.385 12.183C18.186 11.9023 18.0268 11.5954 17.912 11.271C17.891 11.222 17.884 11.171 17.867 11.118C17.77 10.8098 17.7125 10.4906 17.696 10.168C17.696 10.119 17.682 10.068 17.682 10.018C17.6798 9.65732 17.7266 9.29804 17.821 8.94997C17.9319 8.51447 18.1191 8.10208 18.374 7.73197C18.8156 7.10442 19.4332 6.6218 20.1489 6.34506C20.8646 6.06833 21.6462 6.00989 22.3951 6.17715C23.1439 6.3444 23.8265 6.72983 24.3564 7.28476C24.8863 7.83969 25.2399 8.53922 25.3725 9.295C25.5051 10.0508 25.4108 10.8289 25.1014 11.5311C24.792 12.2333 24.2814 12.828 23.6342 13.2402C22.987 13.6524 22.2321 13.8635 21.465 13.8469C20.6979 13.8303 19.9528 13.5867 19.324 13.147C19.0279 12.9296 18.7641 12.6725 18.538 12.383Z" fill="#1C3D01" fill-opacity="0.75"/>
<path d="M10.3071 31.696L8.89107 30.696L9.83807 29.346L11.2581 30.346C11.6452 30.5923 12.1125 30.6797 12.5625 30.5901C13.0126 30.5005 13.4107 30.2408 13.674 29.8649C13.9373 29.4891 14.0455 29.0262 13.976 28.5726C13.9066 28.119 13.6648 27.7097 13.3011 27.43L8.68507 24.197L6.64207 27.113L6.98307 27.346L6.03307 28.696L5.69907 28.463L3.65607 31.376L8.26807 34.607C8.45918 34.7444 8.67568 34.8425 8.905 34.8956C9.13433 34.9487 9.37192 34.9557 9.60398 34.9163C9.83605 34.8769 10.058 34.7917 10.2569 34.6659C10.4558 34.54 10.6277 34.3759 10.7627 34.183C10.8977 33.9902 10.993 33.7724 11.0432 33.5425C11.0934 33.3125 11.0974 33.0748 11.055 32.8433C11.0126 32.6117 10.9247 32.3909 10.7963 32.1936C10.6679 31.9963 10.5016 31.8265 10.3071 31.694V31.696Z" fill="#EFA239"/>
<g style="mix-blend-mode:multiply">
<g style="mix-blend-mode:multiply">
<path d="M10.4111 25.407L8.68507 24.197L6.64207 27.113L6.98307 27.346L6.03307 28.696L5.69907 28.463L3.65607 31.376L5.26507 32.507C5.31007 32.458 9.34007 26.72 10.4111 25.407Z" fill="#F4C23C"/>
</g>
</g>
<path d="M3.80405 33.391C3.66433 33.5913 3.48643 33.7621 3.28053 33.8935C3.07464 34.0249 2.84483 34.1144 2.60427 34.1568C2.36372 34.1991 2.11717 34.1936 1.87877 34.1404C1.64037 34.0873 1.41482 33.9875 1.21506 33.847C1.01502 33.707 0.844598 33.5288 0.713564 33.3228C0.58253 33.1168 0.493461 32.8869 0.451468 32.6463C0.409474 32.4058 0.415382 32.1593 0.468851 31.9211C0.522321 31.6829 0.622297 31.4575 0.763052 31.258L14.5561 11.568C14.6961 11.3685 14.8742 11.1985 15.08 11.0678C15.2858 10.9371 15.5153 10.8483 15.7554 10.8063C15.9956 10.7643 16.2416 10.7701 16.4795 10.8232C16.7175 10.8763 16.9426 10.9758 17.1421 11.116C17.5463 11.3994 17.8214 11.8318 17.9069 12.3181C17.9925 12.8043 17.8814 13.3046 17.5981 13.709L3.80405 33.391Z" fill="#EFA239"/>
<g style="mix-blend-mode:screen">
<path d="M2.90207 32.719C2.7407 32.9479 2.49521 33.1036 2.21934 33.1519C1.94347 33.2003 1.65967 33.1374 1.43007 32.977C1.20093 32.8158 1.04509 32.5703 0.996725 32.2943C0.948359 32.0184 1.01142 31.7345 1.17207 31.505L8.99407 20.339C9.07359 20.2251 9.17489 20.1281 9.29213 20.0536C9.40937 19.9791 9.54021 19.9286 9.67709 19.905C9.81397 19.8813 9.95418 19.8851 10.0896 19.916C10.225 19.9469 10.353 20.0043 10.4661 20.085C10.6943 20.2452 10.8496 20.4895 10.898 20.7641C10.9464 21.0388 10.8838 21.3214 10.7241 21.55L2.90207 32.719Z" fill="#F4C23C"/>
</g>
<g style="mix-blend-mode:screen">
<path d="M14.591 12.442L12.27 15.751C12.109 15.9798 12.0456 16.2633 12.0936 16.539C12.1416 16.8147 12.2972 17.06 12.526 17.221C12.7549 17.3819 13.0384 17.4454 13.3141 17.3974C13.5897 17.3494 13.8351 17.1938 13.996 16.965L16.196 13.83C15.6027 13.4394 15.0631 12.9727 14.591 12.442Z" fill="#F4C23C"/>
</g>
<path d="M23.928 1.43197C22.7843 0.630898 21.4288 0.186909 20.0328 0.156135C18.6368 0.12536 17.263 0.509183 16.0851 1.25908C14.9072 2.00897 13.9781 3.09127 13.4152 4.36914C12.8524 5.64702 12.681 7.06308 12.9229 8.43832C13.1647 9.81356 13.8089 11.0862 14.7739 12.0954C15.7389 13.1046 16.9815 13.805 18.3446 14.1081C19.7076 14.4112 21.13 14.3033 22.4317 13.7981C23.7335 13.293 24.8562 12.4132 25.658 11.27C26.1915 10.5108 26.5699 9.65382 26.7717 8.74816C26.9735 7.8425 26.9946 6.90593 26.8339 5.99208C26.6732 5.07824 26.3338 4.20507 25.8352 3.42258C25.3366 2.64008 24.6885 1.96364 23.928 1.43197ZM17.703 10.313C17.0726 9.87241 16.587 9.25473 16.3078 8.53809C16.0285 7.82145 15.9682 7.03808 16.1343 6.28712C16.3005 5.53616 16.6857 4.85138 17.2412 4.31943C17.7967 3.78749 18.4975 3.4323 19.255 3.29882C20.0124 3.16535 20.7924 3.25958 21.4963 3.56959C22.2002 3.87961 22.7963 4.39147 23.2091 5.0404C23.6219 5.68933 23.833 6.44615 23.8155 7.21507C23.7981 7.98399 23.5529 8.73045 23.111 9.35997C22.5173 10.1988 21.6164 10.7693 20.6043 10.9476C19.5922 11.1259 18.5506 10.8974 17.706 10.312L17.703 10.313Z" fill="#EFA239"/>
<g style="mix-blend-mode:multiply">
<path d="M24.645 2.01599C24.7551 2.29276 24.7917 2.59331 24.7512 2.8884C24.7107 3.18349 24.5946 3.46308 24.414 3.69999C24.122 4.13199 23.673 3.86699 23.36 3.61999C22.2583 2.66114 20.8226 2.17598 19.365 2.26999C18.1726 2.39866 17.0648 2.94702 16.2393 3.81713C15.4139 4.68725 14.9247 5.82245 14.859 7.01999C14.8106 8.00395 14.983 8.98628 15.3637 9.89491C15.7444 10.8035 16.3237 11.6154 17.059 12.271C17.0841 12.2966 17.0999 12.3298 17.1042 12.3653C17.1085 12.4009 17.101 12.4369 17.0828 12.4677C17.0646 12.4986 17.0367 12.5226 17.0035 12.536C16.9703 12.5494 16.9336 12.5515 16.899 12.542C15.8742 12.1537 14.9647 11.5116 14.2557 10.676C13.5466 9.8403 13.0613 8.83837 12.845 7.76399C12.9326 8.91226 13.2997 10.0217 13.9145 10.9955C14.5292 11.9693 15.3728 12.7779 16.3718 13.3508C17.3708 13.9237 18.4948 14.2435 19.6457 14.2823C20.7966 14.3212 21.9396 14.0778 22.9749 13.5735C24.0102 13.0692 24.9064 12.3192 25.5854 11.389C26.2643 10.4588 26.7053 9.37669 26.87 8.23693C27.0347 7.09716 26.9181 5.93441 26.5303 4.85008C26.1424 3.76575 25.4952 2.79277 24.645 2.01599ZM23.11 9.35899C22.6685 9.98689 22.0508 10.4698 21.3349 10.7468C20.619 11.0238 19.837 11.0824 19.0879 10.9151C18.3387 10.7479 17.6559 10.3624 17.1257 9.80732C16.5956 9.25222 16.2418 8.55244 16.1092 7.79638C15.9765 7.04032 16.0709 6.26191 16.3805 5.55949C16.6901 4.85707 17.2008 4.26216 17.8484 3.84991C18.4959 3.43766 19.251 3.22658 20.0185 3.24332C20.7859 3.26007 21.5311 3.50389 22.16 3.94399C22.5786 4.23664 22.9353 4.60895 23.2097 5.03963C23.4842 5.4703 23.6711 5.95087 23.7596 6.45384C23.8481 6.95681 23.8366 7.4723 23.7256 7.9708C23.6147 8.46931 23.4065 8.94104 23.113 9.35899H23.11Z" fill="#F4C23C"/>
</g>
<g style="mix-blend-mode:multiply">
<path d="M22.355 3.93695C22.1469 3.83545 21.9317 3.74923 21.711 3.67896C21.8684 3.75495 22.0195 3.84322 22.163 3.94296C22.7498 4.35133 23.2126 4.91361 23.5005 5.56795C23.7883 6.22229 23.8902 6.94336 23.7948 7.65185C23.6995 8.36034 23.4106 9.0288 22.9599 9.58373C22.5092 10.1387 21.9143 10.5586 21.2404 10.7973C20.5666 11.0359 19.8399 11.0842 19.1404 10.9366C18.441 10.7891 17.7957 10.4515 17.2756 9.96106C16.7556 9.47056 16.3808 8.84615 16.1927 8.15648C16.0045 7.46681 16.0102 6.73861 16.209 6.05195C15.9576 6.5256 15.8059 7.04578 15.7634 7.58036C15.7209 8.11493 15.7885 8.65254 15.962 9.15996C16.835 11.533 20.079 12.222 22.114 10.949C24.547 9.42096 25.246 5.38495 22.355 3.93695Z" fill="#F4C23C"/>
</g>
<path d="M14.1461 20.213C14.0217 20.3885 13.8328 20.5076 13.6209 20.5441C13.4089 20.5807 13.191 20.5317 13.0151 20.408L9.81607 18.155C9.72918 18.0938 9.65521 18.0162 9.59837 17.9264C9.54154 17.8367 9.50296 17.7366 9.48485 17.6319C9.46674 17.5272 9.46945 17.42 9.49282 17.3164C9.5162 17.2128 9.55978 17.1148 9.62107 17.028C9.6811 16.9403 9.758 16.8654 9.84729 16.8077C9.93658 16.7501 10.0365 16.7108 10.1411 16.6922C10.2458 16.6736 10.3531 16.676 10.4568 16.6993C10.5605 16.7226 10.6585 16.7664 10.7451 16.828L13.9451 19.076C14.1212 19.1998 14.2411 19.3882 14.2786 19.6002C14.316 19.8121 14.268 20.0303 14.1451 20.207L14.1461 20.213Z" fill="#F4C23C"/>
<path d="M25.082 6.03794C24.657 6.26794 24.605 7.33794 24.619 7.77394C24.7055 8.60135 24.4745 9.43073 23.9727 10.0943C23.4709 10.7578 22.7357 11.2059 21.916 11.3479C20.058 11.5669 20.065 12.5479 21.373 12.7709C24.279 13.2579 26.127 9.93494 26.095 7.42894C26.126 7.05685 26.0397 6.6844 25.848 6.36394C25.73 6.21894 25.288 5.92394 25.082 6.03794Z" fill="#F4C23C"/>
<g style="mix-blend-mode:screen">
<path d="M15.356 2.896C16.1701 2.12783 17.1322 1.53357 18.1836 1.14948C19.2349 0.765387 20.3535 0.599522 21.471 0.661999C19.9491 0.293762 18.3467 0.461262 16.9338 1.13629C15.521 1.81131 14.3838 2.95262 13.714 4.368C13.4352 4.99183 13.2839 5.66508 13.269 6.34822C13.254 7.03135 13.3758 7.71058 13.627 8.346C13.4846 7.36597 13.5662 6.36641 13.8657 5.42245C14.1651 4.47849 14.6747 3.61469 15.356 2.896Z" fill="#F4C23C"/>
</g>
</svg>
