<svg width="145" height="45" viewBox="0 0 145 45" fill="none" xmlns="http://www.w3.org/2000/svg">
<g style="mix-blend-mode:multiply" opacity="0.5">
<path d="M135.393 10.879L110.056 10.872C109.956 10.862 109.856 10.8573 109.756 10.858H71.7182C71.7182 10.858 71.5182 10.858 71.4182 10.872L46.0462 10.879C44.7313 10.8822 43.4364 11.2007 42.2701 11.808C40.3274 8.27593 37.4729 5.32965 34.0041 3.27619C30.5353 1.22273 26.5792 0.137272 22.5482 0.132953C18.5677 0.118754 14.6575 1.18107 11.2314 3.20745C7.80539 5.23382 4.99099 8.14886 3.08616 11.644C1.69374 14.2058 0.828281 17.0206 0.54078 19.9222C0.253279 22.8238 0.549557 25.7536 1.41216 28.539C2.82996 33.1522 5.68782 37.1901 9.56705 40.0612C13.4463 42.9324 18.143 44.4858 22.9692 44.494C26.9481 44.5067 30.8566 43.4441 34.2814 41.4184C37.7062 39.3927 40.5199 36.4792 42.4252 32.986L42.4632 32.899C43.5966 33.4574 44.8427 33.7491 46.1062 33.752L71.3772 33.759C71.4882 33.766 71.6002 33.773 71.7152 33.773H109.754C109.865 33.773 109.977 33.766 110.085 33.759L135.425 33.752C140.714 33.752 144.859 28.724 144.859 22.314C144.859 15.904 140.707 10.879 135.393 10.879Z" fill="#A6D5E8"/>
</g>
<path d="M46.0452 14.268C46.0762 14.268 56.8992 14.268 71.7132 14.258V14.244C78.0012 14.254 84.4562 14.254 90.7342 14.254C97.0122 14.254 103.463 14.254 109.755 14.244V14.258C124.569 14.268 135.395 14.268 135.395 14.268C138.76 14.268 141.481 17.868 141.481 22.31C141.481 26.752 138.76 30.366 135.426 30.366C135.426 30.366 124.569 30.366 109.755 30.366V30.38C103.463 30.38 97.0082 30.38 90.7342 30.373C84.4602 30.366 78.0012 30.38 71.7132 30.38V30.37C56.8992 30.37 46.0772 30.37 46.0452 30.37C42.7042 30.37 39.9932 26.765 39.9932 22.314C39.9932 17.863 42.7042 14.268 46.0452 14.268Z" fill="#001D40"/>
<path d="M46.5882 14.573C46.5882 14.573 57.2992 14.566 71.9462 14.563V14.553C78.1542 14.553 84.5362 14.553 90.7232 14.56C96.9312 14.553 103.303 14.553 109.518 14.553V14.563C124.151 14.563 134.848 14.573 134.848 14.573C136.501 14.6337 138.062 15.3481 139.188 16.5593C140.314 17.7704 140.914 19.3792 140.854 21.032C140.913 22.6812 140.317 24.2867 139.195 25.4972C138.074 26.7077 136.518 27.4246 134.869 27.491L109.518 27.498V27.508C103.303 27.501 96.9312 27.501 90.7232 27.501C84.5362 27.501 78.1542 27.501 71.9462 27.508V27.498L46.6062 27.495C44.9529 27.4348 43.3912 26.7206 42.2642 25.5095C41.1373 24.2983 40.5373 22.6893 40.5962 21.036C40.5343 19.3845 41.1307 17.776 42.2543 16.5641C43.3779 15.3521 44.9367 14.636 46.5882 14.573Z" fill="#2B79BE"/>
<path d="M47.6902 15.514C47.7142 15.514 58.1262 15.514 72.3732 15.514V15.504C78.4182 15.504 84.6191 15.504 90.6601 15.511C96.7011 15.518 102.899 15.504 108.95 15.504V15.511C123.19 15.511 133.605 15.511 133.633 15.511C135.137 15.4728 136.594 16.0331 137.684 17.0688C138.774 18.1044 139.409 19.5306 139.448 21.034C139.407 22.5357 138.771 23.9596 137.681 24.9933C136.591 26.0271 135.135 26.5861 133.633 26.548C133.605 26.548 123.19 26.548 108.95 26.555V26.565C102.899 26.565 96.6901 26.565 90.6601 26.565C84.6301 26.565 78.4182 26.565 72.3732 26.565V26.555C58.1262 26.548 47.7152 26.548 47.6902 26.548C46.1868 26.587 44.7292 26.029 43.6362 24.996C42.5432 23.963 41.9039 22.5391 41.8582 21.036C41.9011 19.5309 42.5392 18.1044 43.6325 17.0692C44.7258 16.034 46.185 15.4747 47.6902 15.514Z" fill="#B55E2C"/>
<path d="M47.6902 15.514C47.7142 15.514 58.1262 15.514 72.3732 15.514V15.504C78.4182 15.504 84.6191 15.504 90.6601 15.511C96.7011 15.518 102.899 15.504 108.95 15.504V15.511C123.19 15.511 133.605 15.511 133.633 15.511C135.137 15.4728 136.594 16.0331 137.684 17.0688C138.774 18.1044 139.409 19.5306 139.448 21.034C139.407 22.5357 138.771 23.9596 137.681 24.9933C136.591 26.0271 135.135 26.5861 133.633 26.548C133.605 26.548 123.19 26.548 108.95 26.555V26.565C102.899 26.565 96.6901 26.565 90.6601 26.565C84.6301 26.565 78.4182 26.565 72.3732 26.565V26.555C58.1262 26.548 47.7152 26.548 47.6902 26.548C46.1868 26.587 44.7292 26.029 43.6362 24.996C42.5432 23.963 41.9039 22.5391 41.8582 21.036C41.9011 19.5309 42.5392 18.1044 43.6325 17.0692C44.7258 16.034 46.185 15.4747 47.6902 15.514Z" fill="#E9DCCB"/>
<g style="mix-blend-mode:color-dodge" opacity="0.8">
<path d="M49.5702 16.725C49.5702 16.725 59.5612 16.718 73.2092 16.718C79.0092 16.718 84.9542 16.718 90.7342 16.718C96.5142 16.718 102.458 16.718 108.245 16.718C121.904 16.718 131.866 16.725 131.898 16.725C134.978 16.725 137.469 17.974 137.469 19.512C137.469 21.05 134.977 22.312 131.898 22.312H108.244V22.319C102.457 22.312 96.5172 22.312 90.7332 22.312C84.9492 22.312 79.0062 22.312 73.2082 22.319V22.311H49.6012C46.4942 22.311 44.0012 21.062 44.0012 19.511C44.0012 17.96 46.4942 16.725 49.5702 16.725Z" fill="#FCC9A4"/>
</g>
<g style="mix-blend-mode:color-dodge" opacity="0.5">
<path d="M52.6673 17.6719H129.339C132.206 17.6719 134.528 18.0929 134.528 18.6219C134.528 19.1509 132.207 19.5749 129.339 19.5749H52.6953C49.7953 19.5749 47.4683 19.1499 47.4683 18.6219C47.4683 18.0939 49.8013 17.6719 52.6673 17.6719Z" fill="#FCC9A4"/>
</g>
<path d="M31.6761 5.84694C28.4049 4.13376 24.7003 3.4258 21.0279 3.81204C17.3555 4.19828 13.8793 5.66148 11.0361 8.01773C8.19291 10.374 6.10969 13.5181 5.04829 17.0549C3.9869 20.5918 3.9947 24.3634 5.07071 27.8958C6.14672 31.4282 8.24292 34.5637 11.0958 36.9082C13.9487 39.2526 17.431 40.7015 21.105 41.0725C24.7789 41.4436 28.4806 40.7203 31.7447 38.9936C35.0087 37.2669 37.6895 34.6139 39.4501 31.3679C40.6178 29.1823 41.343 26.7878 41.5842 24.3216C41.8253 21.8553 41.5778 19.3657 40.8557 16.9953C40.1337 14.6248 38.9512 12.42 37.3761 10.507C35.8009 8.59404 33.864 7.01048 31.6761 5.84694ZM37.6761 29.7959C36.048 32.794 33.5676 35.242 30.5485 36.8305C27.5293 38.419 24.1069 39.0768 20.714 38.7205C17.3211 38.3643 14.1099 37.0101 11.4865 34.8292C8.86312 32.6482 6.94523 29.7384 5.97532 26.4676C5.0054 23.1968 5.02701 19.7119 6.0374 16.4534C7.04779 13.1949 9.00161 10.3091 11.6519 8.1608C14.3021 6.01254 17.5298 4.69827 20.9269 4.38413C24.3239 4.07 27.7379 4.7701 30.7371 6.39594C32.7302 7.47561 34.4909 8.93767 35.9184 10.6985C37.3459 12.4592 38.4122 14.4842 39.0563 16.6575C39.7004 18.8308 39.9097 21.1098 39.6722 23.364C39.4347 25.6183 38.755 27.8036 37.6721 29.7949L37.6761 29.7959Z" fill="#001D40"/>
<path style="mix-blend-mode:multiply" d="M30.7331 6.39693C27.7329 4.76924 24.3175 4.06774 20.9186 4.38114C17.5198 4.69455 14.2902 6.00878 11.6382 8.15765C8.9863 10.3065 7.03112 13.1935 6.01994 16.4536C5.00876 19.7136 4.98699 23.2003 5.95739 26.4727C6.92779 29.7451 8.84677 32.6563 11.4717 34.8381C14.0966 37.0199 17.3095 38.3744 20.7042 38.7302C24.0989 39.086 27.5228 38.4272 30.5431 36.8371C33.5633 35.247 36.0442 32.797 37.6721 29.7969C38.7543 27.8052 39.4333 25.6196 39.6703 23.3652C39.9073 21.1108 39.6975 18.8318 39.0531 16.6586C38.4086 14.4853 37.3421 12.4604 35.9145 10.6996C34.4869 8.93885 32.7262 7.47675 30.7331 6.39693Z" fill="url(#paint0_linear_7_211)"/>
<path d="M25.6212 35.785C23.8306 35.6675 22.0603 35.3365 20.3482 34.799C19.773 35.4893 19.1523 36.1404 18.4902 36.748C20.5679 37.2974 22.7202 37.5101 24.8652 37.3779C25.0992 36.8429 25.3562 36.314 25.6212 35.785Z" fill="white"/>
<path d="M8.77517 16.057C7.38016 18.6766 6.8388 21.6668 7.2268 24.6093C7.61481 27.5518 8.91277 30.2994 10.9392 32.468C11.9569 33.5088 13.1224 34.3939 14.3982 35.095C15.2712 34.524 16.1412 33.926 17.0222 33.352C16.0507 32.8136 15.1294 32.1894 14.2692 31.487C12.2682 29.9577 10.732 27.9022 9.83217 25.55C8.72212 22.5285 8.37419 19.28 8.81917 16.092C8.82717 16.06 8.79217 16.019 8.77517 16.057Z" fill="white"/>
<g style="mix-blend-mode:screen" opacity="0.4">
<path d="M30.3682 7.97194C33.5041 9.59754 35.8671 12.4007 36.9389 15.7663C38.0107 19.132 37.7036 22.7854 36.0852 25.9249C35.2219 27.4453 34.0676 28.7807 32.6882 29.8549C31.3087 30.9291 29.7311 31.7209 28.0455 32.1852C26.36 32.6496 24.5994 32.7772 22.8645 32.561C21.1295 32.3448 19.4542 31.7888 17.9342 30.9249C14.7996 29.2999 12.4373 26.4981 11.3656 23.1339C10.2939 19.7696 10.6001 16.1177 12.2172 12.9789C13.9604 9.90819 16.8519 7.6556 20.2558 6.71662C23.6597 5.77765 27.2972 6.22919 30.3682 7.97194Z" fill="white"/>
</g>
<g style="mix-blend-mode:multiply" opacity="0.5">
<path d="M24.3302 8.20295C29.3722 10.931 31.0572 17.585 28.1022 23.041C25.1472 28.497 18.6652 30.7 13.6262 27.969C8.58717 25.238 6.89217 18.591 9.84717 13.134C12.8022 7.67695 19.2852 5.46695 24.3302 8.20295Z" fill="#A6D5E8"/>
</g>
<path d="M35.2822 15.407C35.9642 18.288 34.9822 20.975 33.1112 21.417C31.2402 21.859 29.1612 19.879 28.4862 16.998C27.8112 14.117 28.7862 11.434 30.6682 10.992C32.5502 10.55 34.6102 12.529 35.2822 15.407Z" fill="white"/>
<path d="M33.1581 23.0649C34.1361 23.5939 34.3581 25.0449 33.6761 26.3149C33.4478 26.8836 33.0063 27.3405 32.4459 27.5882C31.8854 27.836 31.2503 27.8549 30.6761 27.6409C30.1851 27.2742 29.8555 26.7311 29.7568 26.1262C29.6582 25.5213 29.7981 24.9017 30.1471 24.3979C30.3774 23.828 30.8205 23.3702 31.3825 23.1213C31.9446 22.8725 32.5814 22.8523 33.1581 23.0649Z" fill="white"/>
<defs>
<linearGradient id="paint0_linear_7_211" x1="5.24524" y1="21.5662" x2="39.7648" y2="21.5662" gradientUnits="userSpaceOnUse">
<stop stop-color="white"/>
<stop offset="0.242" stop-color="#DAF7FF"/>
<stop offset="0.583" stop-color="#ADEDFF"/>
<stop offset="0.847" stop-color="#91E7FF"/>
<stop offset="1" stop-color="#87E5FF"/>
</linearGradient>
</defs>
</svg>
