<svg width="36" height="23" viewBox="0 0 36 23" fill="none" xmlns="http://www.w3.org/2000/svg">
<path fill-rule="evenodd" clip-rule="evenodd" d="M33.282 9.5509C30.182 7.0599 24.66 5.39893 18.357 5.39893C12.054 5.39893 6.51798 7.06394 3.41998 9.55994L0.791016 8.5979V14.2789H0.796021C0.902021 19.0789 8.72199 22.9598 18.357 22.9598C27.992 22.9598 35.813 19.0829 35.919 14.2789H35.925V8.5979L33.282 9.5509Z" fill="#FFBA00"/>
<path fill-rule="evenodd" clip-rule="evenodd" d="M35.924 10.7268C35.924 15.5778 28.059 19.5078 18.357 19.5078C8.65499 19.5078 0.790039 15.5778 0.790039 10.7268C0.790039 5.87581 8.65399 1.9469 18.357 1.9469C28.06 1.9469 35.924 5.87781 35.924 10.7268Z" fill="#FFFF61"/>
<path fill-rule="evenodd" clip-rule="evenodd" d="M35.924 9.66479C35.924 14.5158 28.059 18.4458 18.357 18.4458C8.65499 18.4458 0.790039 14.5158 0.790039 9.66479C0.790039 4.8138 8.65399 0.884888 18.357 0.884888C28.06 0.884888 35.924 4.8148 35.924 9.66479Z" fill="#FFEB00"/>
</svg>
