<svg width="33" height="44" viewBox="0 0 33 44" fill="none" xmlns="http://www.w3.org/2000/svg">
<path d="M32.0101 15.3689V15.3229C32.0175 14.4877 31.9734 13.6528 31.8781 12.8229C31.8731 12.7989 31.8698 12.7745 31.8681 12.7499C31.8511 12.6179 31.8301 12.4859 31.8091 12.3499C31.7881 12.2139 31.7741 12.0499 31.7461 11.9079H31.7321C31.5832 10.9601 31.3105 10.0359 30.9211 9.15895L30.9231 9.15295C30.7548 8.78768 30.554 8.43828 30.3231 8.10895L30.3061 8.07395H30.2921C29.7996 7.33551 29.0945 6.76399 28.2701 6.43495L20.4791 3.49195L20.1941 3.38395L20.1381 3.36695H20.1281L19.8841 3.27695L19.8771 3.30495C15.3771 1.95095 8.80814 8.76495 5.02814 18.7799C1.18614 28.9859 1.71514 38.6359 6.20814 40.3269L6.27414 40.3479V40.3549L6.89714 40.5879H6.90714L14.3501 43.3959C15.1862 43.6926 16.0923 43.7302 16.9501 43.5039H16.9601L16.9951 43.4899C17.3847 43.3937 17.7654 43.2646 18.1331 43.1039L18.1541 43.0939C19.0239 42.691 19.838 42.1774 20.5761 41.5659H20.5901C20.7051 41.4759 20.8161 41.3749 20.9311 41.2769C21.0211 41.1969 21.1151 41.1239 21.2061 41.0469C21.2341 41.0189 21.2581 41.0019 21.2861 40.9739C21.9024 40.413 22.4844 39.8156 23.0291 39.1849H23.0361C23.0587 39.1631 23.0785 39.1386 23.0951 39.1119C23.1611 39.0389 23.2271 38.9619 23.2861 38.8859C23.3861 38.7709 23.4861 38.6559 23.5861 38.5349H23.5761C24.0601 37.9429 24.5361 37.3139 25.0031 36.6349C25.0319 36.6002 25.0577 36.5631 25.0801 36.5239C25.1361 36.4439 25.1881 36.3639 25.2471 36.2799C25.3171 36.1689 25.3931 36.0639 25.4631 35.9489C25.8741 35.3159 26.2741 34.6489 26.6631 33.9619H26.6731C26.7601 33.8089 26.8501 33.6519 26.9341 33.4959C26.9721 33.4229 27.0181 33.3499 27.0561 33.2769L27.0661 33.2529C27.4171 32.5949 27.7661 31.9029 28.0961 31.1999C28.2141 30.9599 28.3261 30.7159 28.4341 30.4689H28.4241C28.7341 29.7869 29.0241 29.0839 29.3081 28.3639C29.3601 28.2389 29.4081 28.1129 29.4541 27.9919C29.5001 27.8709 29.5441 27.7379 29.5931 27.6129C29.8571 26.8819 30.0931 26.1619 30.3201 25.4419H30.3271C30.4111 25.1879 30.4841 24.9299 30.5601 24.6729H30.5531C30.7691 23.9249 30.9711 23.1839 31.1381 22.4529L31.1481 22.4109L31.1861 22.2509C31.2281 22.0509 31.2731 21.8509 31.3111 21.6589H31.3041C31.4681 20.8799 31.6041 20.1169 31.7111 19.3729C31.7281 19.2729 31.7351 19.1679 31.7531 19.0669C31.7701 18.9349 31.7881 18.8029 31.8021 18.6669L31.8231 18.5519H31.8161C31.9161 17.7339 31.9731 16.9439 32.0001 16.1819H32.0071C32.0141 16.0499 32.0071 15.9239 32.0141 15.7919C32.0211 15.6599 32.0101 15.5039 32.0101 15.3689Z" fill="#1C3D01" fill-opacity="0.75"/>
<path d="M26.6492 3.59596L18.2662 0.43396L12.2072 17.356C11.9842 17.899 11.7652 18.445 11.5492 19.005C11.1562 20.052 10.8082 21.1 10.5022 22.133L4.96216 37.625L12.7262 40.555C17.2192 42.255 23.9802 35.355 27.8262 25.15C31.6722 14.945 31.1482 5.29396 26.6492 3.59596Z" fill="#F4C23C"/>
<g style="mix-blend-mode:multiply">
<path d="M26.6492 3.59596L18.2662 0.43396L12.2072 17.356C11.9842 17.899 11.7652 18.445 11.5492 19.005C11.1562 20.052 10.8082 21.1 10.5022 22.133L4.96216 37.625L12.7262 40.555C17.2192 42.255 23.9802 35.355 27.8262 25.15C31.6722 14.945 31.1482 5.29396 26.6492 3.59596Z" fill="#F3BA3E"/>
</g>
<g style="mix-blend-mode:multiply">
<path d="M26.6492 3.59596L18.2662 0.43396L12.2072 17.356C11.9842 17.899 11.7652 18.445 11.5492 19.005C11.1562 20.052 10.8082 21.1 10.5022 22.133L4.96216 37.625L12.7262 40.555C17.2192 42.255 23.9802 35.355 27.8262 25.15C31.6722 14.945 31.1482 5.29396 26.6492 3.59596Z" fill="#F3DBA6"/>
</g>
<g style="mix-blend-mode:multiply">
<path d="M19.2052 0.787903L18.5722 0.550903L4.64917 37.5109L5.27517 37.7479C9.77517 39.4479 16.5322 32.5479 20.3752 22.3389C24.2182 12.1299 23.6942 2.4789 19.2052 0.787903Z" fill="#F3DBA6"/>
</g>
<path d="M7.32104 31.0389L21.404 36.3529C21.585 36.1479 21.769 35.9279 21.954 35.7059L7.58905 30.2799L7.32104 31.0389Z" fill="#F4C23C"/>
<path d="M6.2771 33.9519L18.9611 38.7369C19.1941 38.5489 19.4241 38.3509 19.6611 38.1449L6.5481 33.1929L6.2771 33.9519Z" fill="#F4C23C"/>
<path d="M8.35815 28.1329L23.3772 33.7979C23.5272 33.5749 23.6832 33.3489 23.8332 33.1119L8.63315 27.3739L8.35815 28.1329Z" fill="#F4C23C"/>
<path d="M10.4981 22.1329L10.4351 22.3169L26.4601 28.3649C26.5781 28.1209 26.6901 27.8779 26.7981 27.6309L10.6861 21.5519C10.6231 21.7469 10.5571 21.9379 10.4981 22.1329Z" fill="#F4C23C"/>
<path d="M9.39917 25.2268L25.0412 31.1268C25.1732 30.8938 25.3052 30.6568 25.4342 30.4208L9.66717 24.4648L9.39917 25.2268Z" fill="#F4C23C"/>
<path d="M11.5501 19.0039C11.5011 19.1329 11.4631 19.2579 11.4141 19.3869L27.6791 25.5219C27.7281 25.3969 27.7791 25.2709 27.8251 25.1499C27.8711 25.0289 27.9191 24.8959 27.9641 24.7709L11.6991 18.6329C11.6471 18.7619 11.5981 18.8799 11.5501 19.0039Z" fill="#F4C23C"/>
<path d="M13.561 13.594L29.509 19.611C29.568 19.343 29.631 19.082 29.683 18.818L13.829 12.835L13.561 13.594Z" fill="#F4C23C"/>
<path d="M12.5171 16.4989L28.6951 22.6059C28.7784 22.3485 28.8551 22.0909 28.9251 21.8329L12.7881 15.7449L12.5171 16.4989Z" fill="#F4C23C"/>
<path d="M14.5981 10.6849L30.0831 16.5279C30.1251 16.2529 30.1631 15.9819 30.1941 15.7099L14.8691 9.9259L14.5981 10.6849Z" fill="#F4C23C"/>
<path d="M15.635 7.7749L30.383 13.3389C30.393 13.0499 30.397 12.7679 30.397 12.4859L15.91 7.0199L15.635 7.7749Z" fill="#F4C23C"/>
<path d="M19.6861 22.0739C15.8441 32.2839 9.0861 39.1849 4.5861 37.4829C0.0860975 35.7809 -0.431903 26.1459 3.4101 15.9359C7.2521 5.72595 14.0171 -1.17105 18.5131 0.526946C23.0091 2.22495 23.5381 11.8709 19.6861 22.0739Z" fill="#F4C23C"/>
<g style="mix-blend-mode:screen">
<path d="M3.84908 16.0999C7.63108 6.0599 14.2331 -0.7711 18.7251 0.6179C18.6591 0.5869 18.5861 0.5549 18.5131 0.5279C14.0131 -1.1721 7.25608 5.7279 3.41308 15.9369C-0.429922 26.1459 0.0930786 35.7929 4.58908 37.4839C4.66197 37.5124 4.73643 37.5368 4.81208 37.5569C0.515078 35.6389 0.0660787 26.1389 3.84908 16.0999Z" fill="#F4C23C"/>
</g>
<g style="mix-blend-mode:multiply">
<path d="M17.889 21.392C14.775 29.66 9.297 35.245 5.661 33.871C2.025 32.497 1.597 24.684 4.711 16.423C7.825 8.16196 13.296 2.57296 16.936 3.95096C20.576 5.32896 21.004 13.134 17.889 21.392Z" fill="#F3BA3E"/>
</g>
<path d="M17.284 21.17C14.455 28.68 9.48401 33.753 6.17601 32.507C2.86801 31.261 2.48701 24.159 5.31601 16.653C8.14501 9.147 13.116 4.073 16.416 5.319C19.716 6.565 20.114 13.667 17.284 21.17Z" fill="#F4C23C"/>
<g style="mix-blend-mode:screen">
<path d="M5.9162 16.882C8.6622 9.606 13.4162 4.612 16.7162 5.451C16.6202 5.39832 16.5199 5.35415 16.4162 5.319C13.1162 4.073 8.1372 9.147 5.3162 16.653C2.4952 24.159 2.8732 31.258 6.1762 32.507C6.27733 32.5452 6.3809 32.5766 6.4862 32.601C3.4522 31.053 3.1702 24.159 5.9162 16.882Z" fill="#F4C23C"/>
</g>
</svg>
