<svg width="110" height="98" viewBox="0 0 110 98" fill="none" xmlns="http://www.w3.org/2000/svg">
<path d="M30.9419 28.962C30.8819 29.388 30.7419 29.826 30.6919 30.278C30.6797 30.7975 30.6286 31.3153 30.5389 31.827L30.4639 31.864C30.7199 31.998 31.3549 31.696 31.6789 31.681C32.1199 31.661 32.6629 31.881 32.5659 31.311C32.3949 30.328 31.4259 29.759 30.9419 28.962Z" fill="#592B06"/>
<path d="M83.1719 37.9439H83.3349C83.2846 37.9025 83.2315 37.8648 83.1759 37.8309C83.1759 37.8649 83.1719 37.9059 83.1719 37.9439Z" fill="#592B06"/>
<path d="M81.7928 34.803C81.1123 35.066 80.4867 35.4533 79.9478 35.945C79.4838 36.465 79.2258 36.918 79.9398 37.3C80.4375 37.5438 80.9857 37.6664 81.5398 37.658C82.1298 37.685 82.6768 37.522 83.1808 37.83C83.1928 36.53 83.3978 35.245 83.3728 33.993C83.0228 33.889 82.1328 34.627 81.7928 34.803Z" fill="#592B06"/>
<path d="M88.8829 42.2939C81.9067 41.8279 74.9284 43.1712 68.6239 46.1939C61.9759 49.4289 54.4549 55.3849 52.0239 62.8019C50.3239 68.0099 49.0499 74.0499 49.8729 79.5669C50.7459 85.4059 53.8149 91.1769 53.7499 97.0889C56.9889 96.3669 59.5009 92.4319 62.8799 91.2959C62.8799 91.2959 65.4749 93.0239 68.8349 90.1019C73.3599 86.1629 77.9349 81.6019 83.3169 80.1019C89.2869 78.4339 91.6769 72.0909 94.8359 70.1699C97.4059 64.1429 94.1359 62.8759 96.6159 58.3859C99.7429 52.7269 98.0448 48.5419 99.7428 43.7389L98.6119 43.3389C95.5699 42.4739 92.0819 42.4669 88.8829 42.2939Z" fill="#6D390A"/>
<path d="M71.1248 67.755C70.1848 70.516 70.0848 76.03 69.3868 78.855C68.7198 81.577 68.0868 84.319 67.6458 87.085C67.4659 88.0824 67.3407 89.0889 67.2708 90.1C67.2531 90.3869 67.2628 90.6749 67.2998 90.96C67.332 91.0067 67.361 91.0555 67.3868 91.106C67.9045 90.8231 68.3898 90.4844 68.8338 90.096C70.4118 88.723 71.9988 87.276 73.6228 85.906C73.7468 83.684 74.1228 81.454 74.4638 79.211C74.8638 76.601 75.4308 73.491 74.3748 70.959C73.9188 69.86 71.1248 67.755 71.1248 67.755Z" fill="#592B06"/>
<path d="M69.2578 89.7269C70.3728 88.7509 71.4948 87.7569 72.6268 86.7709C72.8808 84.8859 73.1988 83.0079 73.4778 81.1109C73.9228 78.1189 71.8848 72.8039 71.2668 70.2109C71.2278 76.7819 71.0308 84.2919 69.2578 89.7269Z" fill="#471F04"/>
<path d="M98.3307 43.27C96.4467 44.339 94.6307 45.51 92.8438 46.745C94.1215 46.8012 95.3825 47.0577 96.5807 47.505C96.8726 47.6039 97.1378 47.7686 97.3559 47.9863C97.574 48.204 97.7391 48.4689 97.8386 48.7606C97.938 49.0523 97.9691 49.3629 97.9294 49.6684C97.8897 49.974 97.7804 50.2664 97.6097 50.523C96.2227 56.5 90.8427 60.364 89.5287 66.364C88.8966 69.902 88.5149 73.4803 88.3867 77.072C91.0207 74.572 92.7638 71.421 94.8348 70.163C97.4058 64.136 94.1347 62.869 96.6147 58.379C99.7417 52.72 98.0438 48.535 99.7418 43.732L98.6108 43.332C98.5218 43.312 98.4247 43.293 98.3307 43.27Z" fill="#592B06"/>
<path d="M89.9258 73.952C91.5875 71.0687 93.5836 68.3915 95.8728 65.976C95.9988 63.151 94.8438 61.581 96.6168 58.376C97.2778 57.1881 97.7935 55.9251 98.1528 54.614C96.5598 57.392 94.7688 60.042 92.9468 62.67C91.9378 66.436 90.8528 70.179 89.9258 73.952Z" fill="#471F04"/>
<path d="M53.3307 68.282C53.2092 68.2985 53.0863 68.3035 52.9637 68.297C52.6907 75.213 52.5868 82.14 52.3848 89.058C53.227 91.6536 53.6868 94.358 53.7498 97.086C55.3466 96.5825 56.8051 95.7159 58.0107 94.554C57.9817 94.114 57.9557 93.676 57.9297 93.237C57.9106 91.1588 57.6102 89.0927 57.0367 87.095C56.4707 85.458 55.4417 83.862 55.1367 82.139C54.1247 76.374 56.2688 71.684 59.6848 67.462C57.6128 67.837 55.4897 67.987 53.3307 68.282Z" fill="#592B06"/>
<path d="M77.5458 52.7259C77.6508 52.6889 72.6228 53.9119 73.8688 54.4769C74.5363 54.6051 75.1937 54.7812 75.8358 55.0039C75.9888 55.0649 79.8658 54.9149 79.8658 54.9149C77.0298 61.6629 77.6408 71.5679 77.0928 78.7149C76.9668 80.3459 76.8008 81.9679 76.5848 83.5619C77.7579 82.6996 79.0005 81.936 80.2998 81.2789C80.3998 79.7979 80.5208 78.3199 80.7078 76.8499C81.2534 73.4828 82.1679 70.186 83.4348 67.0189C84.4818 64.0189 83.7538 60.8189 84.7658 57.8519C85.5658 55.5219 86.6538 53.4269 87.2528 51.1229C85.8786 51.9289 84.3215 52.3709 82.7288 52.4069C81.0008 52.3899 79.2298 52.1459 77.5458 52.7259Z" fill="#592B06"/>
<path d="M77.5458 52.7259C77.6508 52.6889 72.6228 53.9119 73.8688 54.4769C74.5363 54.6051 75.1937 54.7812 75.8358 55.0039C75.9888 55.0649 79.8658 54.9149 79.8658 54.9149C77.0298 61.6629 77.6408 71.5679 77.0928 78.7149C76.9668 80.3459 76.8008 81.9679 76.5848 83.5619C76.8848 83.3439 77.2008 83.1269 77.5068 82.9219C77.6588 80.0519 78.0488 77.2089 78.3708 74.3409C78.7168 71.2589 78.8438 68.1569 79.4538 65.1049C80.5068 59.8729 81.7198 56.1739 85.8698 52.6789C86.1689 52.4226 86.5375 52.261 86.9288 52.2149C87.0448 51.8549 87.1568 51.4929 87.2518 51.1229C85.8776 51.9289 84.3205 52.3709 82.7278 52.4069C81.0008 52.3899 79.2298 52.1459 77.5458 52.7259Z" fill="#471F04"/>
<path d="M60.5269 66.383C60.8835 69.4485 61.0531 72.5328 61.0349 75.619C60.9589 78.727 60.5269 81.786 60.8829 84.895C61.1449 87.184 61.5369 89.477 61.8109 91.763C62.0937 91.6175 62.3841 91.4873 62.6808 91.373C62.5088 88.941 63.1299 86.573 63.5259 84.136C64.0449 80.912 63.9799 77.911 65.1619 74.796C66.6089 70.987 66.1779 67.183 68.8169 63.414C69.4169 62.558 73.5049 57.814 73.6739 56.83C70.7269 57.901 62.1669 63.626 60.5269 66.383Z" fill="#592B06"/>
<path d="M60.5269 66.383C60.8835 69.4485 61.0531 72.5328 61.0349 75.619C60.9589 78.727 60.5269 81.786 60.8829 84.895C61.1449 87.184 61.5369 89.477 61.8109 91.763C62.0649 91.631 62.3188 91.523 62.5768 91.419C62.3498 85.674 62.2769 79.919 62.4839 74.174C62.6839 68.674 65.2569 65.298 68.0109 60.838C68.0319 60.689 68.0519 60.538 68.0759 60.392C64.9664 61.4995 62.3117 63.6063 60.5269 66.383Z" fill="#471F04"/>
<path d="M52.9847 63.23C50.5297 56.502 40.4757 50.483 34.3077 47.587C28.1397 44.691 19.7767 44.707 13.0867 44.387C11.4459 44.3827 9.81384 44.147 8.23877 43.687C8.23877 49.066 8.42874 54.818 10.9327 59.413C11.9677 61.313 13.0697 68.492 15.2327 72.584C16.6977 75.349 18.1938 74.723 20.5208 75.669C24.1718 77.15 25.9947 82.33 32.1777 85.728C34.3837 86.943 35.7637 90.042 40.3577 91.571C42.2611 92.089 44.2542 92.1886 46.1998 91.863C48.8638 92.939 48.9517 95.431 53.7477 97.088C53.8947 91.731 53.4227 86.23 53.4227 80.533C53.4247 75.379 54.7167 67.987 52.9847 63.23Z" fill="#915922"/>
<path d="M30.7688 68.3879C30.7618 68.4259 30.7598 68.4689 30.7508 68.5069C31.3544 70.7328 31.5399 73.0514 31.2978 75.3449C31.3218 78.6729 30.6328 81.7399 28.2578 82.9079C29.45 83.9983 30.7664 84.9444 32.1798 85.7269C33.5078 86.4599 34.5408 87.8769 36.1548 89.2199C34.9394 86.3566 33.9367 83.4076 33.1548 80.3969C32.1998 76.4629 31.8438 72.3039 30.7688 68.3879Z" fill="#6D390A"/>
<path d="M53.3109 69.052C52.3854 68.2401 51.3178 67.6064 50.1619 67.183C50.1759 67.269 50.1919 67.363 50.2079 67.483C50.2489 67.619 50.2909 67.751 50.3339 67.883C50.4852 68.007 50.6197 68.1502 50.7339 68.309C53.8259 72.663 52.5859 77.948 52.7589 82.919C52.9159 87.206 53.4759 91.47 53.7689 95.748C53.8169 90.811 53.4259 85.756 53.4259 80.529C53.4259 77.286 53.9349 73.157 53.8859 69.355C53.6797 69.2842 53.4858 69.182 53.3109 69.052Z" fill="#AA692E"/>
<path d="M49.1049 78.9689C48.0975 76.0423 47.3447 73.0341 46.8549 69.9779C46.0869 67.8189 45.4079 65.3689 46.9449 64.1579C47.3249 63.8556 47.7528 63.619 48.2109 63.4579C47.9295 63.2748 47.6248 63.1305 47.3049 63.0289C46.1547 63.6838 44.9004 64.1357 43.5969 64.3649C45.7982 70.5519 46.8514 77.0887 46.7049 83.6539C46.7329 83.7136 46.757 83.7751 46.7769 83.8379C47.0148 85.028 46.9654 86.2577 46.6329 87.4249C46.6518 87.5262 46.6615 87.6289 46.6619 87.7319C46.6783 89.1456 46.5931 90.5585 46.4069 91.9599C47.8519 92.6209 48.5359 93.7189 49.7939 94.8439C49.4939 91.2859 49.0649 87.7369 48.9369 84.1559C48.8829 82.5209 49.0269 80.7529 49.1049 78.9689Z" fill="#AA692E"/>
<path d="M14.2038 58.818C12.9382 57.7724 11.7762 56.6074 10.7338 55.339C10.0216 53.4018 9.62747 51.3621 9.56683 49.299C9.49125 47.7646 9.53503 46.2266 9.69781 44.699C9.39359 44.4442 9.11001 44.1656 8.84979 43.866C8.64979 43.813 8.44482 43.751 8.23682 43.687C8.23682 49.066 8.42679 54.818 10.9308 59.413C11.9658 61.313 13.0678 68.492 15.2308 72.584C15.4728 73.1612 15.8454 73.6744 16.3193 74.0832C16.7932 74.492 17.3554 74.7853 17.9618 74.94C15.7748 70.385 11.7958 63.415 14.2038 58.818Z" fill="#AA692E"/>
<path d="M24.8359 56.143C24.4082 55.7271 24.0211 55.2713 23.6799 54.782C22.4909 54.1 21.4508 53.193 20.2228 52.645C20.2008 53.405 20.1319 54.16 20.0369 54.915C20.0369 55.004 20.0559 55.086 20.0619 55.17C21.065 58.2378 21.785 61.3909 22.2129 64.59C22.2888 64.7472 22.3451 64.9131 22.3809 65.084C22.5189 65.854 22.6659 66.613 22.7979 67.37C22.972 67.6581 23.072 67.9848 23.0889 68.321C23.3842 71.4665 23.4894 74.6269 23.4039 77.785C23.8939 78.285 24.3788 78.814 24.8918 79.396C25.0028 77.005 25.1729 74.605 25.1819 72.196C25.2069 66.735 22.8189 61.439 24.8359 56.143Z" fill="#AA692E"/>
<path d="M21.1298 53.273C21.4248 52.857 22.7298 48.967 22.4298 48.9C20.7048 48.617 16.4869 48.07 16.0999 48.085C16.3074 51.1836 16.7757 54.2591 17.4998 57.279C18.3658 60.447 19.9998 63.241 21.0248 66.339C22.1882 70.0688 22.9886 73.9023 23.4149 77.786C23.7149 78.086 24.0078 78.41 24.3148 78.748C24.3042 72.5007 23.7015 66.2686 22.5148 60.135C21.7618 56.639 21.4168 55.496 21.1298 53.273Z" fill="#7F491C"/>
<path d="M21.1969 53.16C21.4879 52.742 22.7259 48.967 22.4329 48.9C20.7079 48.617 11.1219 45.6 10.7329 45.616C12.0269 47.827 15.359 49.502 16.562 49.839C19.656 50.926 19.6329 52.971 20.2039 55.382C20.9539 58.55 21.6599 61.77 22.3039 64.965C23.3339 69.3689 23.8967 73.8691 23.9829 78.391C24.0929 78.511 24.201 78.623 24.312 78.749C24.3013 72.5018 23.6986 66.2696 22.5119 60.136C21.7609 56.639 21.4779 55.382 21.1969 53.16Z" fill="#592B06"/>
<path d="M38.9938 62.18C41.2068 65.407 43.5128 70.162 44.9758 79.203C45.6578 83.453 45.7058 87.586 46.2008 91.861C46.3798 91.95 46.8738 92.197 47.0308 92.299C47.2578 90.029 47.5618 87.757 47.7588 85.444C48.2978 78.959 46.1438 71.702 45.5588 65.27C45.5588 65.27 50.1678 62.884 51.1938 61.575C48.0368 61.663 38.2498 60.189 38.9938 62.18Z" fill="#7F491C"/>
<path d="M30.0488 56.83L33.6658 59.423C36.8978 60.662 42.0348 65.172 42.0198 65.31C42.7658 65.769 45.5138 72.186 46.0358 74.819C47.2636 80.4833 47.457 86.3229 46.6068 92.056C46.7532 92.1292 46.8953 92.2103 47.0328 92.299C47.2598 90.029 47.5638 87.757 47.7608 85.445C48.2998 78.96 46.1458 71.703 45.5608 65.271C45.5608 65.271 50.1698 62.885 51.1948 61.576C48.0378 61.663 33.0308 55.77 30.0488 56.83Z" fill="#592B06"/>
<path d="M92.3667 53.537C91.5507 53.888 90.7108 54.173 89.8868 54.501C89.4398 54.678 88.9938 54.86 88.5468 55.037C86.7707 55.8064 84.9536 56.4774 83.1037 57.047C83.0469 57.0607 82.9891 57.0698 82.9308 57.074C82.8011 57.1277 82.6586 57.1423 82.5208 57.116L82.3628 57.172C82.3914 58.0388 82.3764 58.9066 82.3178 59.772C82.1558 60.704 81.4908 61.396 81.3708 62.363C81.1188 64.418 82.1078 74.845 81.5708 76.778C83.5048 76.714 83.0177 76.261 84.9527 76.072C86.5147 75.922 89.9908 67.861 91.5058 67.288C93.0208 66.715 96.0508 64.859 96.9878 63.483C97.8878 62.147 97.8217 61.055 98.5257 59.607C99.2397 58.129 99.9927 58.147 100.987 56.827C102.008 55.473 100.002 50.762 100.002 50.762L92.3667 53.537Z" fill="#824B19"/>
<path d="M91.103 58.7359C90.175 58.6539 89.2469 58.6039 88.3179 58.5699C89.5509 60.2039 90.657 61.4509 89.53 63.7879C88.305 66.3199 86.0369 68.5209 85.2859 71.2629C84.8324 72.8744 84.4909 74.5153 84.2639 76.1739C84.4529 76.1369 84.6779 76.1059 84.9539 76.0739C85.1758 76.0279 85.3786 75.916 85.5359 75.7529C86.3954 72.7122 87.6224 69.7876 89.1899 67.0439C90.254 64.9216 91.167 62.7268 91.9219 60.4759C92.2779 59.4589 92.878 58.8899 91.103 58.7359Z" fill="#93552B"/>
<path d="M91.1169 55.723C90.3009 56.636 91.0229 59.052 91.0309 59.299C91.2069 62.318 90.636 63.892 88.353 67.228C86.6075 69.8765 85.4966 72.8921 85.1069 76.04C86.7329 75.429 90.041 67.849 91.507 67.292C93.019 66.716 96.0519 64.862 96.9899 63.487C97.8899 62.151 97.824 61.059 98.528 59.611C99.242 58.133 99.995 58.151 100.988 56.831C102.009 55.477 100.003 50.765 100.003 50.765C100.004 50.535 95.0039 52.551 91.1169 55.723Z" fill="#683411"/>
<path d="M92.7209 57.597C92.0613 57.5263 91.3943 57.6091 90.772 57.839C90.858 58.554 91.0279 59.182 91.0309 59.299C91.2069 62.318 90.636 63.892 88.353 67.228C86.6075 69.8766 85.4967 72.8921 85.1069 76.04C85.8289 75.768 86.887 74.122 87.962 72.325C87.162 69.225 89.4319 66.325 91.3569 63.794C91.8365 61.8226 92.5112 59.9038 93.371 58.066L93.293 58.013C93.1094 57.8649 92.9185 57.726 92.7209 57.597Z" fill="#592B06"/>
<path d="M78.0758 68.054C75.7808 68.937 73.2828 68.17 71.1248 67.754C71.1226 69.8109 71.2724 71.8651 71.5728 73.9C71.7548 75.973 72.5728 84.762 72.6268 86.77C74.1538 87.309 75.3128 86.807 76.7678 85.753C77.7848 85.02 78.3308 80.364 79.1168 77.071C79.8088 74.176 83.9608 70.101 84.0518 67.109L83.9128 67.239C81.9728 65.606 79.7738 67.403 78.0758 68.054Z" fill="#683411"/>
<path d="M76.8489 70.688C75.4512 75.9546 74.7631 81.3843 74.8029 86.833C75.3222 86.6559 75.8152 86.4097 76.2688 86.101C76.2758 83.693 76.4109 81.301 76.5569 78.901C76.5105 77.4169 76.6847 75.934 77.0739 74.501C78.2659 71.512 81.5599 70.585 83.7649 68.483C83.9054 68.0897 83.9951 67.6801 84.0318 67.264C82.0229 69.0253 79.5341 70.1469 76.8839 70.485C76.8801 70.5538 76.8684 70.622 76.8489 70.688Z" fill="#592B06"/>
<path d="M71.1248 67.755C71.1226 69.8119 71.2724 71.8662 71.5728 73.901C71.7548 75.974 72.5728 84.763 72.6268 86.771C73.0623 86.9347 73.527 87.0066 73.9916 86.9822C74.4562 86.9578 74.9109 86.8375 75.3268 86.629C75.3301 80.1205 76.3563 73.6529 78.3678 67.463C76 68.0633 73.5331 68.1627 71.1248 67.755Z" fill="#824B19"/>
<path d="M74.4797 70.6429C75.9467 72.7549 75.8217 74.8579 75.3967 77.3149C74.9468 80.4727 74.7305 83.6593 74.7498 86.8489C74.9473 86.7891 75.1404 86.7156 75.3278 86.6289C75.3573 81.3565 76.0337 76.1076 77.3417 70.9999C76.3729 71.1181 75.3899 70.9955 74.4797 70.6429Z" fill="#93552B"/>
<path d="M21.5049 61.134C20.3689 61.883 19.1419 63.658 17.8599 64.167C18.0599 66.315 19.4159 69.257 20.3319 71.305C21.363 73.5487 22.2759 75.8449 23.0669 78.184C23.2879 78.184 23.7619 78.411 23.9829 78.391C24.0607 75.9973 23.9342 73.6013 23.6049 71.229C22.6729 65.822 22.1619 63.832 21.5049 61.134Z" fill="#6D390A"/>
<path d="M20.5349 65.528C20.9951 64.2171 21.3483 62.871 21.5909 61.503C21.5639 61.382 21.5349 61.259 21.5039 61.134C20.3679 61.883 19.1409 63.658 17.8589 64.167C18.0589 66.315 19.4149 69.257 20.3309 71.305C21.3619 73.5487 22.2749 75.8449 23.0659 78.184C23.1398 78.1893 23.2129 78.2027 23.2839 78.224C22.5709 75.248 21.9329 72.277 21.1179 69.317C20.8119 68.195 20.2599 66.731 20.5349 65.528Z" fill="#5B2B07"/>
<path d="M12.8789 62.426C14.7709 65.011 17.0049 67.48 18.2309 70.385C19.2249 72.743 20.4759 77.429 23.0679 78.185C22.0679 74.141 20.0629 68.815 19.2439 65.823C18.8079 64.231 15.8939 59.361 12.8789 62.426Z" fill="#7F491C"/>
<path d="M12.825 62.476C12.8417 62.4584 12.8593 62.4417 12.8779 62.426L12.825 62.476Z" fill="#7F491C"/>
<path d="M12.8789 62.426C12.9189 62.479 12.9579 62.533 12.9959 62.586C13.1253 62.5801 13.2544 62.603 13.3739 62.653C17.4619 64.442 19.0379 66.711 20.2739 70.896C20.9088 72.9823 21.7141 75.0128 22.6819 76.967C22.7449 77.108 22.8149 77.26 22.8729 77.42C21.8229 73.488 20.0109 68.626 19.2459 65.82C18.8079 64.231 15.8939 59.361 12.8789 62.426Z" fill="#935527"/>
<path d="M49.3009 74.331C48.6939 72.705 48.3009 70.563 47.7759 69.174L47.5439 69.058C48.1609 70.917 48.1979 73.158 48.7439 75.163C48.9581 76.0272 49.23 76.8762 49.5579 77.704C49.6621 78.0394 49.8216 78.3551 50.0299 78.638C50.2879 78.922 50.8419 78.948 50.9719 79.224C51.1899 79.691 50.5929 80.945 50.4439 81.484C50.1523 82.4018 50.0033 83.3589 50.002 84.322C50.002 85.529 50.057 86.751 50.002 87.957C49.96 88.857 49.6319 90.092 50.0099 90.935C49.8999 86.928 51.4879 82.302 52.3319 78.573C50.2609 78.63 49.9269 76.005 49.3009 74.331Z" fill="#7F491C"/>
<path d="M29.6948 62.1799C29.5448 61.4009 29.3648 57.5899 29.1428 56.8299C28.5288 56.4299 27.3799 56.5129 26.6809 56.2759C26.2659 56.1379 24.6939 55.9269 24.9209 56.1649L24.8038 56.049C25.0518 56.79 24.7888 61.518 24.8038 62.282C25.2948 62.182 26.1598 59.264 26.7088 59.309C26.907 60.671 26.863 62.0573 26.5788 63.4039C28.0788 64.2779 27.5208 65.5859 27.3858 67.0369C27.2218 68.7059 28.3618 67.7489 28.2568 69.4259C28.1738 70.8059 27.0568 74.7 27.2428 76.076C27.7102 77.2478 28.0502 78.4664 28.2568 79.7109C28.2568 79.8299 28.3008 79.748 28.3818 79.535C27.4128 75.902 28.5719 72.2959 29.6469 68.7739C29.6249 68.0599 29.6098 67.3399 29.6388 66.6129C29.6618 66.1049 29.6789 65.599 29.6939 65.088C29.3819 63.292 29.7518 63.9989 29.6948 62.1799Z" fill="#6D390A"/>
<path d="M86.1428 35.405L80.6768 36.371C81.621 35.6309 82.5134 34.827 83.3478 33.965C78.3028 28.549 71.6328 28.445 67.5078 24.823C65.4648 23.034 56.2158 18.54 53.7528 16.907C48.1318 20.273 44.0138 20.222 41.5638 23.491C39.1508 26.709 34.2998 27.091 30.9178 29.041C31.1018 29.502 31.5338 30.602 31.7578 31.094C27.4668 30.346 22.1208 34.883 17.9888 37.63C14.3888 40.03 8.11084 43.509 8.11084 43.509C12.8348 48.652 16.8878 49.542 21.6748 50.257C22.0178 51.157 20.7318 52.547 21.3818 54.012C23.4098 58.554 38.4818 60.512 42.0698 64.612C42.9368 65.603 47.4458 63.332 47.4458 63.332C47.4458 64.15 45.5608 65.274 45.5608 65.274C49.9998 67.836 52.1108 70.421 54.0188 70.144C55.8848 69.868 60.9748 66.807 62.6278 65.782C65.8498 63.782 66.8768 61.674 70.3278 60.372C74.5468 58.781 76.7748 58.696 79.8688 54.919C78.1844 54.6363 76.4835 54.4613 74.7768 54.395C79.1678 52.37 84.3448 53.795 88.7448 51.162C92.2288 49.081 95.7448 44.518 99.7448 43.736C98.3948 42.287 94.8728 39.617 86.1428 35.405Z" fill="#D7E205"/>
<path d="M84.1728 37C83.6728 36.685 83.1728 36.352 82.6728 36.017L80.6778 36.372C80.9478 36.162 81.3688 35.811 81.8078 35.432C80.2888 34.392 78.7898 33.332 77.2218 32.375C74.4808 31.542 71.7218 30.775 69.0778 29.903C64.3568 28.352 59.8918 27.303 54.9138 28.376C51.4998 29.114 48.2268 30.225 44.8738 31.166C39.4428 32.685 33.9098 33.774 28.4198 35.037C25.8776 36.3712 23.2541 37.5445 20.5648 38.55C18.8626 39.0996 17.2324 39.8509 15.7088 40.788C13.5238 42.183 10.7298 46.467 15.6608 47.173C18.5298 47.585 21.1338 47.284 23.6348 49.068C25.7888 50.605 27.2688 52.793 29.2068 54.575C33.8678 58.851 40.6758 58.887 46.3068 61.375C49.8828 62.96 54.1248 65.512 57.9838 63.14C61.8838 60.74 65.4968 57.796 69.1768 55.076C72.2498 52.801 75.3488 49.853 78.8608 48.271C81.6768 46.999 84.9318 46.211 87.4838 44.445C92.4598 41.002 87.0938 38.832 84.1728 37Z" fill="#FFF039"/>
<path d="M32.0197 59.1529C31.0697 59.0219 30.1197 58.8719 29.1747 58.6729C29.0747 58.6729 28.9748 58.6659 28.8748 58.6589C30.0988 59.1119 31.3807 59.5589 32.6527 60.0059C32.5817 59.9579 32.5137 59.9229 32.4427 59.8799C32.3171 59.8038 32.2125 59.6973 32.1386 59.5703C32.0647 59.4433 32.0238 59.2998 32.0197 59.1529Z" fill="#43D7EF"/>
<path d="M83.6758 52.181C81.6538 52.454 76.1278 53.104 75.1888 53.681C74.3398 54.201 73.5789 54.631 74.5259 54.706C76.0004 54.8233 77.4633 55.0573 78.9009 55.406C74.6009 59.187 69.9809 58.979 68.7009 59.785C67.3782 60.7555 66.168 61.8708 65.0929 63.11C63.4839 64.699 56.1419 68.91 53.9279 69.317C52.2929 69.617 51.6978 67.717 47.3658 65.538C46.3518 65.028 48.5899 62.975 48.7309 62.5C47.1763 62.7451 45.6597 63.1898 44.2189 63.823C43.8152 63.9643 43.3861 64.018 42.96 63.9806C42.534 63.9432 42.1207 63.8155 41.7479 63.6059C38.0609 59.9739 28.1689 57.9549 25.5479 56.8289C24.0939 56.2049 21.9609 54.884 21.7629 53.22C21.7942 52.2529 22.0434 51.3053 22.4919 50.448C22.9379 49.072 20.6178 49.353 19.9388 49.21C17.4028 48.668 10.6389 46.48 8.12488 43.502L8.11987 43.507C12.8439 48.65 16.8969 49.54 21.6839 50.255C22.0269 51.155 20.7409 52.5449 21.3909 54.0099C23.4189 58.5519 38.4909 60.51 42.0789 64.61C42.9459 65.601 47.4549 63.33 47.4549 63.33C47.4549 64.148 45.5699 65.2719 45.5699 65.2719C50.0089 67.8339 52.1199 70.419 54.0279 70.142C55.8939 69.866 60.9839 66.805 62.6369 65.78C65.8589 63.78 66.8859 61.6719 70.3369 60.3699C74.5559 58.7779 76.7839 58.694 79.8779 54.917C78.1934 54.6343 76.4926 54.4593 74.7859 54.393C79.1769 52.368 84.3538 53.793 88.7538 51.16C91.5538 49.493 94.3619 46.231 97.4279 44.6C95.2669 45.087 93.2999 47.0359 91.5059 48.3149C88.9279 50.1389 86.8838 51.742 83.6758 52.181Z" fill="#BAE64A"/>
<path d="M99.5588 50.85C99.1149 51.9519 98.4413 52.9467 97.5828 53.768C98.1163 54.7204 98.488 55.7548 98.6828 56.829C97.8608 58.951 97.0918 60.143 96.5828 61.629C96.4228 62.229 96.7168 63.429 96.5378 64.02C96.7038 63.8537 96.855 63.6734 96.9898 63.481C97.8898 62.145 97.8238 61.053 98.5278 59.605C99.2418 58.127 99.9948 58.145 100.989 56.825C102.01 55.471 100.004 50.759 100.004 50.759C100.006 50.725 99.8378 50.762 99.5588 50.85Z" fill="#592B06"/>
<path d="M91.0959 55.5209C90.5659 56.1379 93.6579 56.7379 93.8959 57.4089C93.8959 57.4089 93.7249 58.8969 93.6399 59.4089C93.3169 61.3349 93.0279 63.2679 92.6929 65.1889C94.4184 62.1573 95.7278 58.9071 96.5859 55.5259C95.0179 55.9059 92.7029 55.2529 91.0959 55.5209Z" fill="#471F04"/>
<path d="M96.3448 50.067C93.3918 53.461 87.0208 55.727 82.3618 57.174C83.7618 58.595 86.0938 57.437 87.2528 58.243C88.3671 58.9877 89.6899 59.3576 91.0288 59.299C92.0247 58.7338 92.9815 58.1024 93.8928 57.409C94.2928 57.049 91.4848 56.309 92.1558 55.962C92.5108 55.778 96.2758 55.98 96.6718 55.798C99.2788 54.598 99.3568 53.205 100.004 52.092C100.931 50.486 98.9278 49.823 96.3448 50.067Z" fill="#A06422"/>
<path d="M93.4387 54.9649H93.4137C92.6361 55.0906 91.873 55.2936 91.1357 55.5709C91.1029 55.5797 91.0694 55.5864 91.0357 55.5909C91.4617 55.9999 91.7887 56.6239 92.3857 56.8259C94.0427 57.3909 91.6527 58.7899 91.0317 58.8679C90.1967 58.9739 88.1317 57.8529 87.2557 57.7539C86.36 57.7557 85.4652 57.6955 84.5777 57.5739C84.0387 57.4739 83.2697 57.1149 82.7397 57.0579C82.6147 57.0989 82.4857 57.1409 82.3647 57.1769C83.7647 58.5979 86.0967 57.4399 87.2557 58.2459C88.37 58.9906 89.6928 59.3605 91.0317 59.3019C92.0276 58.7368 92.9845 58.1053 93.8958 57.4119C94.2958 57.0519 91.4878 56.3119 92.1588 55.9649C92.5138 55.7809 96.2787 55.9829 96.6747 55.8009C97.3791 55.5338 98.0162 55.1155 98.5413 54.5754C99.0664 54.0353 99.4666 53.3865 99.7137 52.6749C98.6217 54.3449 97.3427 55.4559 93.4387 54.9649Z" fill="#C98441"/>
<path d="M77.7368 65.604C77.7368 65.604 75.8898 66.614 74.9778 67.004C73.7898 67.6121 72.454 67.8717 71.1248 67.753C71.261 68.1776 71.4668 68.5767 71.7338 68.934C73.0798 70.5 76.3628 71.873 78.2338 71.118C79.4418 70.635 83.4858 68.612 83.9958 67.436C84.7108 65.791 79.0588 65.102 77.7368 65.604Z" fill="#A06422"/>
<path d="M71.5258 67.81C71.3911 67.8035 71.2572 67.7851 71.1257 67.755C71.262 68.1797 71.4678 68.5788 71.7347 68.936C73.0807 70.502 76.3637 71.875 78.2347 71.12C80.168 70.3265 81.978 69.2607 83.6097 67.955C80.1417 70.597 74.3468 71.402 71.5258 67.81Z" fill="#C98441"/>
<path d="M17.9668 58.752C15.1888 59.961 10.3667 62.477 14.3317 63.04C16.1249 63.6596 17.7894 64.6025 19.2428 65.822C20.2328 64.543 21.5048 63.034 21.5048 61.134C20.1297 60.6787 18.9059 59.8547 17.9668 58.752Z" fill="#BA8342"/>
<path d="M18.591 64.751C17.1472 63.7247 15.503 63.0149 13.7659 62.668C12.8259 62.468 12.9659 62.106 12.8959 61.947C12.6669 62.447 13.012 62.847 14.332 63.039C16.1252 63.6585 17.7897 64.6014 19.243 65.821C20.208 64.572 21.432 63.108 21.494 61.27C21.1738 62.1897 20.7419 63.0666 20.208 63.881C19.927 64.36 19.018 65.131 18.591 64.751Z" fill="#FCBF75"/>
<path d="M41.494 67.824C41.0111 67.6749 40.4987 67.6483 40.0031 67.7468C39.5074 67.8453 39.0441 68.0656 38.6549 68.388C37.9951 69.0639 37.4686 69.8581 37.1029 70.729C36.0619 73.059 35.529 74.751 36.112 77.416C36.9029 80.5874 37.871 83.712 39.0119 86.775C39.7359 88.897 40.802 92.884 42.729 94.241C43.6012 93.5444 44.4198 92.7833 45.1779 91.964C43.9664 88.0386 43.1924 83.9914 42.8699 79.896C42.4699 75.905 41.8 71.759 41.494 67.824Z" fill="#6D390A"/>
<path d="M41.0408 83.7489C40.0155 81.2384 39.4623 78.5602 39.4088 75.8489C39.4488 73.1869 40.6447 71.2219 41.3727 68.7169C41.4126 68.5726 41.469 68.4333 41.5408 68.3019C41.5248 68.1439 41.5037 67.9789 41.4927 67.8199C41.0099 67.6708 40.4975 67.6443 40.0019 67.7428C39.5062 67.8412 39.0429 68.0616 38.6538 68.3839C37.994 69.0599 37.4674 69.854 37.1017 70.7249C36.0607 73.0549 35.5277 74.7469 36.1107 77.4119C36.9016 80.5834 37.8698 83.708 39.0107 86.7709C39.7347 88.8929 40.8007 92.8799 42.7277 94.2369C43.3877 93.6369 44.1987 93.0099 44.8337 92.3299C42.3217 90.4109 42.1678 86.8709 41.0408 83.7489Z" fill="#5B2B07"/>
<path d="M38.4349 76.5349C38.0279 74.6279 38.795 70.8709 37.064 69.8129C35.931 69.1239 34.178 68.8189 32.934 68.0209C31.839 67.3209 26.718 65.0519 25.408 65.1849C25.628 69.0269 29.221 73.7689 30.84 77.8739C32.5344 81.7288 33.981 85.6878 35.171 89.7269C35.601 91.3379 38.952 91.0109 40.527 94.0799L42.7269 94.2409C42.7269 94.2409 42.259 91.2199 41.915 90.0139C41.483 88.4999 39.0559 79.4709 38.4349 76.5349Z" fill="#7F491C"/>
<path d="M38.4348 76.535C38.1468 75.161 38.4558 72.825 38.0038 71.23C37.048 71.4816 36.0582 71.5788 35.0718 71.518C38.0858 74.287 38.7717 79.2 39.4557 83.076C40.1437 86.921 41.6367 90.487 42.5027 94.226L42.7278 94.241C42.7278 94.241 42.2598 91.221 41.9158 90.014C41.4828 88.5 39.0558 79.471 38.4348 76.535Z" fill="#935527"/>
<path d="M29.774 61.6489C28.32 63.0219 27.0839 63.0789 25.7209 64.3129C24.3119 65.5919 27.9709 69.8939 30.0489 70.9459C32.3986 71.9685 34.9835 72.3278 37.5229 71.9849C39.6919 71.7409 41.5929 67.6499 41.5929 67.6499C40.3179 66.7939 37.5249 66.4499 35.5339 65.1299C32.9509 63.4139 29.774 61.6489 29.774 61.6489Z" fill="#BA8342"/>
<path d="M30.4859 70.16C28.8699 69.577 25.1799 67.18 26.1119 63.995C25.9809 64.095 25.8529 64.195 25.7209 64.312C24.3119 65.591 27.9709 69.893 30.0489 70.945C32.3986 71.9675 34.9835 72.3269 37.5229 71.984C39.2409 71.792 40.7919 69.184 41.3579 68.11C38.4879 71.635 35.8729 72.091 30.4859 70.16Z" fill="#FCBF75"/>
<path d="M83.4248 37.9299H83.5858C83.5381 37.8892 83.4869 37.8527 83.4328 37.8209C83.4328 37.8559 83.4248 37.8889 83.4248 37.9299Z" fill="#45503F"/>
<path d="M65.6479 25.582C65.7179 25.5376 65.7968 25.5092 65.879 25.499C65.8149 25.3192 65.7377 25.1444 65.6479 24.976V25.582Z" fill="#577959"/>
<path d="M26.6851 20.9919C26.7611 20.9919 26.8851 20.8009 27.0731 20.8119C27.2015 22.9737 27.6765 25.1008 28.48 27.1119C28.652 26.4602 28.8864 25.8266 29.1801 25.2199C29.9611 26.7469 30.938 29.2199 32.48 30.0519C32.235 28.0869 31.6801 26.2879 32.4191 24.4199C32.6658 24.7423 32.9793 25.0076 33.3382 25.1974C33.6971 25.3873 34.0927 25.4973 34.498 25.5199C34.252 23.6409 33.7361 20.0959 34.2231 18.3349C34.4706 18.652 34.6676 19.0055 34.8071 19.3829C34.9191 16.8989 36.3071 14.1939 37.7621 12.0639C32.1601 11.7119 26.9291 15.1229 26.6851 20.9919Z" fill="#629304"/>
<path d="M26.6851 20.992C26.7611 20.992 26.8851 20.801 27.0731 20.812C27.0832 21.5964 27.1689 22.378 27.329 23.146C28.452 22.521 30.4611 26.281 30.5121 25.384C30.581 24.0881 30.7793 22.8024 31.1041 21.546C31.4185 22.1888 31.8526 22.7657 32.3831 23.246C32.1931 22.512 31.1041 19.794 32.0551 19.446C32.3291 19.834 32.85 20.238 33.022 20.556C32.679 20.127 32.71 18.656 33.105 17.246C34.1598 15.8659 35.4006 14.6386 36.7921 13.599C37.1021 13.068 37.427 12.553 37.756 12.069C32.16 11.712 26.9291 15.123 26.6851 20.992Z" fill="#4C8202"/>
<path d="M36.4971 11.6379C38.0801 15.3199 39.953 17.9179 40.829 21.8909C41.895 26.7339 41.3291 30.8109 39.5421 35.5579C40.3651 37.4159 43.848 38.1269 44.353 36.6389C45.202 34.1449 45.4041 27.7879 44.9771 25.1969C44.5352 22.4869 43.5577 19.892 42.1017 17.5639C40.6457 15.2359 38.7404 13.2213 36.4971 11.6379Z" fill="#944C0A"/>
<path d="M36.4971 11.6379C36.8391 12.4449 37.203 13.1979 37.564 13.9229C37.664 13.9519 37.773 13.9859 37.882 14.0229C38.2885 14.1581 38.6547 14.3929 38.9471 14.7059C39.2395 15.019 39.4488 15.4002 39.556 15.8149C39.6715 15.9519 39.7753 16.0984 39.866 16.2529C42.137 20.1219 44.9321 25.5119 44.1171 30.1899C43.6291 33.0149 42.226 35.2259 39.975 36.2079C41.209 37.5539 43.9141 37.9329 44.3521 36.6349C45.2011 34.1409 45.4031 27.7839 44.9761 25.1929C44.5339 22.4836 43.5563 19.8896 42.1005 17.5622C40.6447 15.2349 38.7398 13.2209 36.4971 11.6379Z" fill="#753B0B"/>
<path d="M23.7258 14.0679C23.7908 14.1029 23.9979 14.0079 24.1519 14.1089C23.1483 16.0301 22.4589 18.0997 22.1099 20.2389C22.5923 19.7688 23.1195 19.3468 23.6838 18.9789C23.5618 20.6879 23.1279 23.3169 24.0189 24.8139C24.8189 23.0069 25.2759 21.1779 26.8679 19.9539C26.9138 20.357 27.0462 20.7455 27.256 21.0928C27.4659 21.44 27.7483 21.7378 28.0839 21.9659C28.8439 20.2309 30.2269 16.9279 31.5469 15.6709C31.5973 16.0704 31.5845 16.4754 31.5089 16.8709C32.8839 14.7999 35.4678 13.1929 37.8088 12.1179C33.1968 8.9349 26.9528 9.1529 23.7258 14.0679Z" fill="#7DA307"/>
<path d="M32.3849 14.5459C29.1609 15.3699 30.1229 17.6459 28.3219 20.0459C27.4989 21.1459 27.4929 18.7529 26.4029 18.3459C25.0739 19.5889 24.3159 22.2709 23.7959 24.3299C23.8565 24.4967 23.9314 24.658 24.0199 24.8119C24.8199 23.0049 25.2769 21.1759 26.8689 19.9519C26.9149 20.355 27.0473 20.7434 27.2571 21.0907C27.467 21.4379 27.7494 21.7358 28.0849 21.9639C28.8449 20.2289 30.2279 16.9259 31.5469 15.6689C31.5974 16.0684 31.5846 16.4733 31.5089 16.8689C32.8829 14.7979 35.4689 13.1909 37.8089 12.1159C37.7239 12.0569 37.6339 12.0079 37.5509 11.9519C37.6629 11.8749 33.2899 14.3179 32.3849 14.5459Z" fill="#639404"/>
<path d="M33.3799 11.7629C32.0536 11.7429 30.7372 11.9933 29.5109 12.4989C28.3842 13.0592 27.4028 13.8732 26.6439 14.8769C25.9529 15.7893 25.3907 16.7923 24.9729 17.8579C25.6874 16.7681 26.5496 15.7827 27.5349 14.9299C28.3067 14.0896 29.206 13.3761 30.1999 12.8159C31.2642 12.32 32.4258 12.0679 33.5999 12.0779C34.6926 12.1706 35.7899 12.198 36.8859 12.1599C37.1559 12.1159 37.6609 12.2319 37.6319 12.0599C37.1089 11.6599 36.0759 11.8049 35.5449 11.7449C34.8236 11.7058 34.1005 11.7118 33.3799 11.7629Z" fill="#639404"/>
<path d="M25.774 11.8609C27.779 11.1159 30.5251 10.9769 29.7261 11.4049C28.1463 12.299 26.6304 13.3014 25.1891 14.4049C27.4651 13.9499 25.0631 17.0349 25.1771 17.3049C27.9391 13.9559 32.932 11.6859 37.287 12.3709C37.461 12.2879 37.6351 12.1949 37.8101 12.1139C37.7251 12.0549 37.6351 12.0059 37.5521 11.9499C33.8161 9.50691 29.108 9.27291 25.774 11.8609Z" fill="#4C8202"/>
<path d="M26.274 2.90092C26.288 2.97492 26.49 3.07693 26.504 3.25593C24.3835 3.69816 22.3468 4.4745 20.47 5.55592C21.1398 5.63374 21.801 5.77368 22.4449 5.97392C21.0449 6.96492 18.738 8.29592 18.137 9.93592C20.051 9.41192 21.75 8.60092 23.705 9.05992C23.4232 9.35082 23.2073 9.69889 23.0718 10.0805C22.9364 10.4622 22.8846 10.8685 22.92 11.2719C24.746 10.7599 28.175 9.73892 29.986 9.96392C29.7079 10.2533 29.388 10.4993 29.037 10.6939C31.51 10.4459 34.3889 11.4259 36.7079 12.5599C36.2419 6.97392 32.117 2.28992 26.274 2.90092Z" fill="#7BB708"/>
<path d="M31.3831 9.90393C28.7071 7.93593 27.5591 10.1209 24.5521 10.2479C23.1831 10.3089 25.0341 8.78292 24.6521 7.68592C22.8521 7.44592 20.3011 8.55492 18.3731 9.45592C18.2851 9.61226 18.2076 9.77428 18.1411 9.94092C20.0551 9.41692 21.7541 8.60593 23.7091 9.06493C23.4272 9.35593 23.2112 9.70417 23.0757 10.086C22.9403 10.4678 22.8886 10.8743 22.9241 11.2779C24.7501 10.7659 28.1791 9.74492 29.9901 9.96992C29.712 10.2593 29.3921 10.5053 29.0411 10.6999C31.5141 10.4519 34.3931 11.4319 36.7121 12.5659C36.7051 12.4659 36.6841 12.3659 36.6711 12.2589C36.7931 12.2969 32.1391 10.4589 31.3831 9.90393Z" fill="#5FA004"/>
<path d="M34.168 8.91392C33.3464 7.87333 32.3198 7.01255 31.152 6.38492C30.0037 5.86801 28.7514 5.62364 27.493 5.67092C26.348 5.71761 25.2147 5.91945 24.124 6.27092C25.4217 6.13388 26.732 6.17662 28.018 6.39792C29.156 6.46816 30.2765 6.71303 31.34 7.12392C32.4 7.63135 33.3323 8.37058 34.068 9.28692C34.6889 10.1892 35.362 11.0543 36.084 11.8779C36.284 12.0599 36.518 12.5259 36.631 12.3939C36.61 11.7329 35.842 11.0279 35.553 10.5799C35.1275 9.99549 34.6649 9.43901 34.168 8.91392Z" fill="#5FA004"/>
<path d="M32.15 4.80487C31.0899 4.03448 29.8852 3.48618 28.608 3.19287C28.9671 3.61119 29.3601 3.99917 29.783 4.35287C28.813 3.67687 27.167 3.93787 26.113 4.17787C24.8116 4.35582 23.5283 4.6476 22.278 5.04987C23.743 5.11987 24.6639 4.66787 25.5359 4.82287C23.9344 5.35175 22.4487 6.18199 21.1589 7.26887C21.9813 6.87267 22.7794 6.42788 23.549 5.93687C24.0905 5.69735 24.6443 5.4864 25.2079 5.30487C26.2063 4.89828 27.2943 4.76237 28.3619 4.91087C29.4391 4.83461 30.5177 5.0382 31.4929 5.50187C32.3309 6.03187 32.708 5.99587 33.423 6.72387C33.916 7.22387 34.3319 7.74187 34.5939 8.05187C34.7279 8.20187 35.3599 9.05187 35.3599 9.05187L35.338 8.98387C34.359 7.33787 33.951 6.07387 32.15 4.80487Z" fill="#AACE13"/>
<path d="M49.837 16.508C47.377 11.174 41.237 10.017 36.199 12.469C38.357 13.888 40.672 15.858 41.723 18.111C41.7065 17.7109 41.7531 17.3106 41.861 16.925C42.977 18.362 43.861 21.84 44.344 23.668C44.7092 23.4941 45.0324 23.2432 45.2913 22.9324C45.5503 22.6217 45.7388 22.2586 45.844 21.868C47.239 23.315 47.413 25.19 47.944 27.097C49.044 25.746 49.011 23.083 49.149 21.379C49.6508 21.8275 50.1094 22.322 50.519 22.856C50.4906 20.6897 50.1159 18.5419 49.409 16.494C49.574 16.411 49.768 16.534 49.837 16.508Z" fill="#629304"/>
<path d="M49.837 16.508C47.377 11.174 41.237 10.017 36.199 12.469C36.689 12.792 37.1839 13.145 37.6719 13.521C39.3562 13.9476 40.9721 14.6091 42.472 15.486C43.372 16.643 43.9659 17.986 43.8069 18.515C43.8549 18.153 44.1779 17.587 44.2859 17.121C45.2949 17.083 45.328 20.013 45.429 20.765C45.7375 20.1172 45.9187 19.4162 45.963 18.7C46.7441 19.7378 47.4178 20.8522 47.9739 22.026C48.3689 22.834 48.791 18.593 50.067 18.743C49.9235 17.9713 49.7034 17.2159 49.41 16.488C49.574 16.411 49.768 16.534 49.837 16.508Z" fill="#4C8202"/>
<path d="M49.5599 9.17898C49.6599 9.02698 49.8939 9.03398 49.9389 8.97898C45.0839 5.67098 39.2239 7.83698 36.1709 12.537C38.7449 12.637 41.7479 13.137 43.8049 14.528C43.5882 14.1907 43.4231 13.823 43.3149 13.437C45.0149 14.092 47.5559 16.625 48.9149 17.943C49.1382 17.6046 49.286 17.2219 49.3481 16.8212C49.4103 16.4205 49.3853 16.0111 49.2749 15.621C51.2089 16.142 52.3279 17.662 53.7599 19.026C54.0079 17.297 52.6119 15.034 51.8459 13.498C52.5079 13.6269 53.1563 13.8174 53.7829 14.067C52.6453 12.2226 51.2195 10.5724 49.5599 9.17898Z" fill="#7DA307"/>
<path d="M49.0939 13.9559C48.2409 14.7449 49.1479 16.9559 47.9649 16.2559C45.3799 14.7199 45.4089 12.2559 42.1149 12.7169C41.1879 12.8469 36.2199 12.2569 36.3489 12.2869C36.2854 12.3661 36.226 12.4486 36.1709 12.5339C38.7449 12.6339 41.7479 13.1339 43.8049 14.5249C43.5882 14.1876 43.4231 13.8199 43.3149 13.4339C45.0149 14.0889 47.5559 16.6219 48.9149 17.9389C49.1382 17.6004 49.286 17.2178 49.3481 16.8171C49.4103 16.4164 49.3853 16.0071 49.2749 15.6169C51.2089 16.1379 52.3279 17.6569 53.7599 19.0219C53.7812 18.8444 53.7889 18.6655 53.7829 18.4869C52.5209 16.7869 50.7979 14.5969 49.0939 13.9559Z" fill="#639404"/>
<path d="M43.9889 9.72888C42.6627 9.73189 41.3508 10.004 40.1329 10.5289C39.4474 10.7544 38.7773 11.0243 38.1269 11.3369C37.6629 11.5919 36.6469 11.8559 36.3169 12.4249C36.3549 12.5929 36.7799 12.2929 37.0429 12.2249C38.0686 11.844 39.0705 11.4015 40.0429 10.8999C41.1246 10.4417 42.2955 10.2328 43.4689 10.2889C44.6012 10.4297 45.7049 10.7448 46.7409 11.2229C47.9773 11.6386 49.1506 12.2224 50.2279 12.9579C49.4334 12.134 48.5321 11.4203 47.5479 10.8359C46.4614 10.2005 45.2441 9.82188 43.9889 9.72888Z" fill="#639404"/>
<path d="M49.4711 10.18C48.6521 9.472 47.3311 8.455 46.1561 8.594C46.6953 8.48204 47.2244 8.32585 47.738 8.127C46.4757 7.78039 45.1563 7.69229 43.8591 7.868C41.6711 8.127 40.7171 9.051 39.0681 10.041L39.019 10.09C39.019 10.09 39.98 9.641 40.165 9.569C40.546 9.42 41.157 9.161 41.829 8.958C42.5763 8.79001 43.3446 8.73574 44.108 8.797C45.1853 8.84879 46.2305 9.17997 47.1411 9.758C48.1516 10.1368 49.0457 10.7727 49.735 11.603C50.1447 12.03 50.5319 12.4779 50.8951 12.945C51.3395 13.7405 51.8313 14.5086 52.368 15.245C51.7458 13.6776 50.8293 12.2439 49.668 11.021C50.511 11.297 51.1091 12.121 52.4291 12.76C51.5211 11.8144 50.5312 10.9511 49.4711 10.18Z" fill="#9BB917"/>
<path d="M41.4059 24.074C41.4205 24.0129 41.4435 23.954 41.474 23.899L41.231 24.01L41.4059 24.074Z" fill="#9C6422"/>
<path d="M44.079 26.977C43.415 27.0683 42.7386 26.9688 42.129 26.69C42.076 25.939 42.008 25.231 41.929 24.539C42.344 24.572 42.888 24.491 43.198 24.49C42.7519 24.4828 42.3102 24.3996 41.892 24.244C41.801 23.523 41.684 22.816 41.539 22.113C41.8764 22.0417 42.2201 22.0042 42.565 22.001C42.197 21.825 41.795 21.83 41.444 21.682C41.2316 20.7383 40.9645 19.8077 40.644 18.895C40.577 18.695 40.504 18.487 40.444 18.275C40.6067 18.1547 40.7846 18.0565 40.973 17.983C40.7717 18.0289 40.5636 18.0381 40.359 18.01C40.323 17.916 40.292 17.827 40.259 17.733C39.3836 16.2721 38.4204 14.8655 37.375 13.521C38.728 16.293 40.117 18.628 40.837 21.891C41.8232 26.3671 41.4106 31.0381 39.655 35.272C39.8112 35.2114 39.9721 35.1636 40.136 35.129C40.502 35.05 40.795 34.229 41.015 33.286C41.8262 33.4185 42.6584 33.2726 43.376 32.872C42.6258 32.9983 41.8571 32.9622 41.122 32.766C41.322 31.824 41.444 30.872 41.522 30.472C41.9188 30.67 42.3647 30.7478 42.8051 30.696C43.2455 30.6441 43.6611 30.4648 44.001 30.18C43.2064 30.2408 42.4077 30.1387 41.654 29.88C41.836 29.097 42.017 28.317 42.195 27.535C42.184 27.441 42.181 27.347 42.172 27.252C42.818 27.259 43.4613 27.1662 44.079 26.977Z" fill="#9C6422"/>
<path d="M40.349 1.72294C39.4379 2.50874 38.6226 3.39922 37.92 4.37594C37.7496 3.77216 37.8139 3.12628 38.1 2.56794C36.9514 4.00825 36.1782 5.71117 35.85 7.52394C35.8011 8.35029 35.8423 9.17952 35.973 9.99694C36.09 10.7819 36.579 11.8439 36.221 12.5969L36.528 12.3119C37.046 11.6262 37.492 10.889 37.859 10.1119C38.2844 9.19239 38.7784 8.30621 39.337 7.46094C40.3749 6.0023 41.6971 4.76858 43.224 3.83394C42.9871 3.70759 42.7206 3.64716 42.4524 3.65895C42.1841 3.67073 41.9239 3.7543 41.699 3.90094C42.692 2.71994 43.053 1.19594 44.229 0.100937C43.16 -0.0680634 41.228 1.04794 40.349 1.72294Z" fill="#7BB708"/>
<path d="M44.199 0.0999756C44.0154 0.280266 43.8102 0.437126 43.588 0.566975C42.1214 1.46308 40.881 2.68501 39.963 4.13797C39.993 4.72397 41.418 4.45497 40.976 4.86797C39.1443 6.50347 37.7374 8.55941 36.876 10.859C36.717 11.386 36.566 11.905 36.405 12.426L36.528 12.311C37.0463 11.6254 37.4923 10.8882 37.859 10.111C38.2845 9.19148 38.7786 8.30531 39.337 7.45998C40.375 6.00136 41.6971 4.76764 43.224 3.83297C42.9871 3.70663 42.7206 3.6462 42.4523 3.65798C42.1841 3.66977 41.924 3.75334 41.699 3.89997C42.692 2.71897 43.053 1.19498 44.228 0.0999756C44.2184 0.100602 44.2087 0.100602 44.199 0.0999756Z" fill="#5FA004"/>
<path d="M36.073 13.7779C33.605 14.2229 35.4489 19.5659 38.0919 18.4429C40.4159 17.4589 37.837 12.9939 36.073 13.7779Z" fill="#753B0B"/>
<path d="M36.124 13.7668C36.4551 13.975 36.7388 14.2503 36.957 14.5748C37.1682 14.8864 37.3132 15.2379 37.3831 15.6077C37.4529 15.9775 37.4461 16.3578 37.363 16.7248C37.2047 17.3278 36.9283 17.8933 36.55 18.3888C36.7856 18.5155 37.0472 18.5864 37.3146 18.5959C37.5819 18.6055 37.8479 18.5534 38.092 18.4438C40.396 17.4648 37.882 13.0768 36.124 13.7668Z" fill="#6B3007"/>
<path d="M36.76 13.7119C36.9501 13.8807 37.1248 14.0661 37.282 14.2659C37.7533 14.9641 37.9978 15.7907 37.982 16.6329C37.9267 17.3663 37.6068 18.0547 37.082 18.5699C37.4247 18.6294 37.7775 18.5852 38.095 18.4429C40.127 17.5809 38.406 14.0529 36.76 13.7119Z" fill="#542403"/>
<path d="M38.6618 16.9579C38.5508 17.4704 38.2509 17.9224 37.8218 18.2239C38.1114 18.1787 38.3764 18.0343 38.5714 17.8154C38.7663 17.5966 38.8793 17.3168 38.8908 17.0239C38.8555 16.394 38.6824 15.7796 38.3838 15.2239C38.4038 15.6979 38.6958 16.6649 38.6618 16.9579Z" fill="#5C280E"/>
<path d="M36.0129 14.1939L35.9829 14.1039C35.0259 14.4809 34.9659 16.8279 35.8449 17.3039C36.6109 17.7219 36.1809 16.3039 36.0969 15.9429C35.9759 15.4129 36.1329 14.4399 36.0129 14.1939Z" fill="#9C6422"/>
<path d="M36.102 10.2429C33.895 9.04292 31.991 14.3649 34.752 15.1429C37.185 15.8359 37.969 10.7429 36.102 10.2429Z" fill="#753B0B"/>
<path d="M36.1451 10.267C36.3319 10.8097 36.3473 11.3967 36.1894 11.9485C36.0315 12.5003 35.7078 12.9902 35.2621 13.352C34.76 13.7213 34.1908 13.9893 33.5862 14.141C33.6898 14.3875 33.8489 14.6068 34.0511 14.7819C34.2534 14.9569 34.4933 15.0828 34.7521 15.15C37.1661 15.83 37.9521 10.832 36.1451 10.267Z" fill="#6B3007"/>
<path d="M36.738 11.392C36.6682 12.2302 36.3405 13.0263 35.8 13.671C35.2964 14.2075 34.6161 14.5445 33.884 14.62C34.1167 14.8769 34.4179 15.0621 34.7521 15.154C36.8801 15.754 37.752 11.927 36.681 10.632C36.7249 10.8828 36.744 11.1374 36.738 11.392Z" fill="#542403"/>
<path d="M34.6799 14.8109C34.9333 14.9553 35.2287 15.0081 35.5164 14.9604C35.8041 14.9126 36.0667 14.7674 36.2599 14.5489C36.626 14.034 36.878 13.447 36.999 12.8269C36.712 13.2019 36.3429 14.1369 36.1299 14.3469C35.7222 14.6785 35.2044 14.8441 34.6799 14.8109Z" fill="#5C280E"/>
<path d="M33.713 12.8559C34.048 13.6559 34.602 12.2829 34.763 11.9559C35.007 11.4649 35.733 10.8049 35.798 10.5369L35.829 10.4499C34.848 10.1399 33.329 11.9339 33.713 12.8559Z" fill="#9C6422"/>
<path d="M38.133 11.3239C35.661 11.7729 37.505 17.1109 40.152 15.9909C42.469 15.0029 39.891 10.5359 38.133 11.3239Z" fill="#753B0B"/>
<path d="M38.175 11.3099C38.6619 11.6149 39.0425 12.0629 39.265 12.5926C39.4875 13.1222 39.5409 13.7077 39.418 14.2689C39.2574 14.8723 38.9805 15.4385 38.603 15.9359C38.8392 16.0627 39.1013 16.1336 39.3691 16.1431C39.637 16.1526 39.9035 16.1006 40.148 15.9909C42.457 15.0159 39.938 10.6229 38.175 11.3099Z" fill="#6B3007"/>
<path d="M38.8169 11.2609C39.0083 11.4296 39.1822 11.6172 39.3359 11.8209C39.8092 12.5159 40.0539 13.3412 40.0359 14.1819C39.9786 14.9148 39.6591 15.6025 39.1359 16.1189C39.4788 16.1785 39.8315 16.1354 40.1499 15.9949C42.1799 15.1279 40.4559 11.5999 38.8169 11.2609Z" fill="#542403"/>
<path d="M40.7169 14.5059C40.605 15.017 40.3057 15.4676 39.8779 15.7689C40.1659 15.7237 40.4292 15.58 40.6229 15.3622C40.8166 15.1444 40.9286 14.8661 40.9399 14.5749C40.9031 13.9462 40.7327 13.3325 40.4399 12.7749C40.4539 13.2449 40.7499 14.2089 40.7169 14.5059Z" fill="#5C280E"/>
<path d="M38.0669 11.7369L38.0359 11.6479C37.0789 12.0259 37.0159 14.3719 37.8989 14.8479C38.6619 15.2659 38.2319 13.8479 38.1489 13.4819C38.0319 12.9569 38.1849 11.9859 38.0669 11.7369Z" fill="#9C6422"/>
<path d="M16.5209 28.3019C15.7799 27.0459 14.3429 24.6809 14.1599 23.2869C14.4287 23.4386 14.6736 23.6289 14.8869 23.8519C14.3201 21.8685 14.2833 19.7711 14.7799 17.7689C10.7019 19.2049 8.01691 23.2029 9.61591 27.4429C9.66991 27.4199 9.70589 27.2429 9.83289 27.1969C10.5787 28.6922 11.5576 30.0592 12.7329 31.2469C12.661 30.7329 12.6373 30.2133 12.6619 29.6949C13.6729 30.5439 15.1159 32.0069 16.4549 32.1329C15.6919 30.8059 14.7549 29.6969 14.7119 28.1499C14.9848 28.3037 15.2877 28.3969 15.5999 28.4232C15.912 28.4494 16.2262 28.4081 16.5209 28.3019Z" fill="#7AB508"/>
<path d="M9.61504 27.4469C9.66904 27.4239 9.70502 27.2469 9.83202 27.2009C10.0765 27.7545 10.3742 28.283 10.721 28.7789C11.328 27.9999 13.89 30.0629 13.659 29.4109C13.3145 28.47 13.0672 27.4962 12.921 26.5049C13.3351 26.8694 13.817 27.1487 14.339 27.3269C13.983 26.8629 12.391 25.2619 12.957 24.7269C13.27 24.9269 13.757 25.0519 13.982 25.2269C13.407 24.5653 13.0757 23.7269 13.043 22.8509C13.3737 21.5538 13.8822 20.3087 14.554 19.1509C14.618 18.6809 14.691 18.2149 14.779 17.7749C10.701 19.2089 8.01704 23.2019 9.61504 27.4469Z" fill="#5FA004"/>
<path d="M13.7578 17.851C15.9908 19.986 18.1038 21.266 19.9228 23.82C22.0144 26.7667 23.1351 30.2923 23.1288 33.906C24.2758 34.976 26.9628 34.431 26.8728 33.222C26.34 30.305 25.3226 27.4979 23.8628 24.917C22.732 23.1272 21.2561 21.5806 19.5211 20.3674C17.7862 19.1543 15.8269 18.2988 13.7578 17.851Z" fill="#B76214"/>
<path d="M13.7578 17.851C14.2478 18.318 14.7278 18.741 15.2048 19.151C15.2868 19.143 15.3728 19.132 15.4618 19.128C15.7912 19.101 16.122 19.1574 16.4238 19.292C16.7257 19.4265 16.9888 19.6349 17.1888 19.8979C17.3137 19.9603 17.4334 20.0326 17.5468 20.114C20.3238 22.178 23.9318 25.1569 24.7698 28.7249C25.0621 29.6652 25.1118 30.6641 24.9142 31.6287C24.7166 32.5933 24.2782 33.4923 23.6398 34.242C24.9208 34.826 26.9498 34.279 26.8778 33.225C26.345 30.308 25.3276 27.5009 23.8678 24.92C22.7367 23.1291 21.2602 21.5816 19.5243 20.3679C17.7884 19.1542 15.8281 18.2985 13.7578 17.851Z" fill="#914E17"/>
<path d="M5.42383 23.426C5.48283 23.433 5.60085 23.303 5.73785 23.326C5.60731 24.9914 5.74235 26.6669 6.13788 28.29C6.33865 27.8107 6.58509 27.3519 6.87384 26.92C7.30484 28.172 7.79084 30.168 8.87384 30.964C8.90184 29.437 8.67383 28.002 9.42883 26.654C9.58438 26.9259 9.79645 27.1614 10.0507 27.3444C10.305 27.5274 10.5956 27.6538 10.9028 27.715C10.9178 26.255 10.9028 23.491 11.4628 22.202C11.6177 22.4688 11.7298 22.7584 11.7949 23.06C12.331 21.0675 13.3802 19.2504 14.8378 17.79C10.6008 16.928 6.23383 18.968 5.42383 23.426Z" fill="#9BC90E"/>
<path d="M11.7127 21.153C9.67472 22.713 11.0447 24.034 10.4927 26.285C10.2357 27.314 9.51374 25.618 8.61274 25.658C8.04574 26.94 8.31277 29.068 8.56477 30.692C8.66143 30.7891 8.76357 30.8806 8.87074 30.966C8.89874 29.439 8.67073 28.004 9.42573 26.656C9.58128 26.9279 9.79334 27.1633 10.0476 27.3464C10.3019 27.5294 10.5925 27.6558 10.8997 27.717C10.9147 26.257 10.8997 23.493 11.4587 22.204C11.614 22.471 11.726 22.7609 11.7907 23.063C12.3271 21.0703 13.3767 19.2532 14.8347 17.793C14.7537 17.777 14.6767 17.766 14.5957 17.752C13.6924 18.9333 12.7302 20.0684 11.7127 21.153Z" fill="#7BB708"/>
<path d="M13.1138 18.213C12.5909 18.4028 12.0802 18.6249 11.5848 18.878C10.6359 19.2638 9.77562 19.8392 9.05682 20.569C8.42596 21.3053 7.97506 22.1784 7.7398 23.119C7.52415 23.9737 7.42691 24.8539 7.4508 25.735C7.63294 24.7476 7.94744 23.7893 8.3858 22.886C8.68486 22.059 9.10988 21.2832 9.64581 20.586C10.2514 19.9126 10.9991 19.3821 11.8348 19.033C12.6363 18.7718 13.4211 18.4619 14.1848 18.105C14.3638 17.992 14.7608 17.925 14.6848 17.81C14.2008 17.685 13.5078 18.099 13.1138 18.213Z" fill="#7BB708"/>
<path d="M6.21289 21.2469C7.41289 20.1089 9.31287 19.1809 8.87787 19.7269C8.0269 20.8395 7.25282 22.0089 6.56091 23.2269C8.04191 22.2179 7.26089 25.1269 7.42889 25.2959C7.93857 23.6131 8.85264 22.0808 10.0912 20.8329C11.3297 19.5849 12.855 18.6593 14.5339 18.1369C14.6339 18.0239 14.7339 17.9059 14.8339 17.7969C14.7539 17.7809 14.6759 17.7699 14.5949 17.7559C11.2129 17.1469 7.79989 18.3989 6.21289 21.2469Z" fill="#5FA004"/>
<path d="M3.86495 14.735C3.89695 14.783 4.07097 14.792 4.13797 14.914C2.76706 15.8703 1.55667 17.0381 0.551967 18.374C1.04935 18.2247 1.56006 18.1242 2.07693 18.074C1.38193 19.2 0.14694 20.838 0.21194 22.18C1.41194 21.235 2.37495 20.15 3.89895 19.88C3.7869 20.1718 3.73908 20.4844 3.75875 20.7964C3.77843 21.1084 3.86514 21.4125 4.01297 21.688C5.14997 20.772 7.27698 19.01 8.63198 18.627C8.52369 18.9163 8.36968 19.1864 8.17593 19.427C10.0582 18.5796 12.1297 18.24 14.184 18.442C12.169 14.616 7.82895 12.536 3.86495 14.735Z" fill="#9BC90E"/>
<path d="M9.60696 18.161C7.10696 17.575 6.95295 19.461 4.85995 20.466C3.90495 20.922 4.75994 19.283 4.15994 18.615C2.81094 18.99 1.33298 20.548 0.238977 21.769C0.22209 21.9043 0.214705 22.0406 0.216943 22.177C1.41694 21.232 2.37996 20.147 3.90396 19.877C3.79212 20.1689 3.74452 20.4815 3.76437 20.7935C3.78421 21.1055 3.87102 21.4096 4.01895 21.685C5.15595 20.769 7.28396 19.007 8.63796 18.624C8.52954 18.9132 8.37561 19.1833 8.18197 19.424C10.0642 18.5765 12.1356 18.2369 14.19 18.439C14.15 18.365 14.1079 18.3 14.0689 18.233C14.1639 18.23 10.307 18.325 9.60696 18.161Z" fill="#7BB708"/>
<path d="M12.7649 17.382C12.2887 17.0957 11.7944 16.8408 11.2849 16.619C10.3849 16.1305 9.39541 15.8292 8.37592 15.733C7.40587 15.714 6.44453 15.9194 5.56689 16.333C4.76868 16.7097 4.02577 17.1938 3.35889 17.772C4.23749 17.2822 5.17986 16.9168 6.15894 16.686C6.9875 16.3904 7.85754 16.2274 8.73694 16.203C9.64237 16.2426 10.5272 16.4857 11.3259 16.914C12.038 17.3662 12.7752 17.7775 13.5339 18.146C13.7339 18.21 14.0339 18.469 14.0799 18.346C13.8619 17.883 13.1049 17.609 12.7649 17.382Z" fill="#7BB708"/>
<path d="M8.61304 14.311C7.62801 14.0866 6.60816 14.0608 5.61304 14.235C5.99222 14.4261 6.38782 14.5827 6.79504 14.703C5.81606 14.6883 4.86703 15.0408 4.13501 15.691C3.26533 16.2084 2.44315 16.8017 1.67804 17.464C2.74004 17.072 3.256 16.474 3.922 16.322C2.94394 17.1799 2.13889 18.2168 1.55005 19.377C2.01682 18.8493 2.45094 18.2936 2.85004 17.713C3.1619 17.3783 3.49242 17.0614 3.84003 16.764C4.42498 16.1736 5.15626 15.7491 5.95905 15.534C6.69949 15.152 7.52657 14.9694 8.35901 15.004C8.95039 15.0134 9.53713 15.1104 10.1 15.292C10.6 15.492 11.0501 15.74 11.3311 15.88C11.4661 15.95 12.175 16.36 12.175 16.36L12.138 16.32C10.938 15.444 10.272 14.668 8.61304 14.311Z" fill="#C2E52E"/>
<path d="M24.3809 17.3999C24.4809 17.2939 24.6529 17.3209 24.6909 17.2869C21.3399 14.2389 16.6369 15.2679 13.7979 18.5319C15.8431 18.8068 17.7807 19.6126 19.4178 20.8689C19.2864 20.5897 19.1987 20.2919 19.1578 19.9859C20.3868 20.6699 22.0578 22.8699 22.9578 24.0249C23.1642 23.7894 23.3173 23.5121 23.4067 23.212C23.4961 22.9119 23.5197 22.596 23.4758 22.2859C24.9008 22.8929 25.5919 24.1719 26.5399 25.3669C26.9139 24.0759 26.0868 22.1979 25.6718 20.9409C26.1613 21.112 26.6343 21.3272 27.0848 21.5839C26.4129 20.0537 25.5 18.6411 24.3809 17.3999Z" fill="#7AB508"/>
<path d="M24.6899 17.286C21.3389 14.238 16.6359 15.267 13.7969 18.531C14.2429 18.613 14.6969 18.7109 15.1589 18.8309C16.4835 18.6288 17.8298 18.6127 19.1589 18.783C20.1499 19.33 20.9759 20.103 21.0229 20.531C20.9429 20.257 21.0019 19.754 20.9369 19.393C21.6369 19.064 22.5499 21.131 22.8479 21.637C22.8721 21.0859 22.7892 20.5354 22.6039 20.016C23.4729 20.5135 24.2877 21.1003 25.0349 21.767C25.5559 22.22 24.5809 19.081 25.5279 18.804C25.1951 18.2994 24.8114 17.8303 24.3829 17.404C24.4769 17.293 24.6519 17.321 24.6899 17.286Z" fill="#5FA004"/>
<path d="M25.212 14.5429C25.7203 14.4328 26.238 14.3718 26.7579 14.3608C25.3944 13.3958 23.8854 12.6547 22.288 12.1658C22.311 12.0248 22.476 11.9658 22.494 11.9078C18.05 11.0258 14.5489 14.3289 13.7939 18.5859C15.6891 17.7685 17.7654 17.4617 19.816 17.6959C19.5602 17.5227 19.332 17.312 19.139 17.0709C20.539 17.0229 23.107 18.0548 24.47 18.5818C24.526 18.2738 24.5156 17.9574 24.4396 17.6537C24.3635 17.3501 24.2235 17.0661 24.0289 16.8209C25.5599 16.6069 26.807 17.3458 28.236 17.8868C27.894 16.5868 26.215 15.4019 25.212 14.5429Z" fill="#9BC90E"/>
<path d="M23.4009 15.698C23.0299 16.513 24.343 17.814 23.293 17.672C20.993 17.361 20.2689 15.604 18.0709 16.928C17.4499 17.297 13.7469 18.375 13.8489 18.358C13.8329 18.434 13.8079 18.511 13.7939 18.587C15.6891 17.7696 17.7654 17.4628 19.816 17.697C19.5602 17.5238 19.332 17.3131 19.139 17.072C20.539 17.024 23.107 18.056 24.47 18.583C24.526 18.275 24.5156 17.9585 24.4396 17.6549C24.3635 17.3512 24.2235 17.0672 24.0289 16.822C25.5599 16.608 26.807 17.347 28.236 17.888C28.1995 17.7556 28.1513 17.6268 28.092 17.503C26.68 16.675 24.7989 15.639 23.4009 15.698Z" fill="#7BB708"/>
<path d="M18.4998 14.2369C17.5585 14.6371 16.7081 15.2239 15.9998 15.9619C15.5823 16.3313 15.1879 16.7261 14.8188 17.1439C14.5638 17.4629 13.9259 17.9559 13.8599 18.4609C13.9429 18.5679 14.1498 18.2249 14.3178 18.1009C14.9329 17.5231 15.511 16.9072 16.0488 16.2569C16.6797 15.6067 17.4477 15.1056 18.2968 14.7899C19.1414 14.5473 20.0186 14.4376 20.8969 14.4649C21.898 14.3865 22.9052 14.4467 23.8898 14.6439C23.08 14.2962 22.2264 14.0607 21.3528 13.9439C20.392 13.8203 19.4155 13.9206 18.4998 14.2369Z" fill="#7BB708"/>
<path d="M22.9199 13.4359C23.6009 13.3809 24.2779 13.7919 25.4069 13.8359C24.476 13.439 23.5119 13.1248 22.5259 12.8969C21.6304 12.5013 20.619 12.4563 19.6919 12.7709C20.0412 12.5286 20.3703 12.2584 20.6759 11.9629C19.6743 12.0966 18.7099 12.4313 17.8409 12.9469C16.3689 13.7949 15.9729 14.7379 15.0999 15.9329L15.0779 15.9849C15.0779 15.9849 15.6259 15.3749 15.7329 15.2679C15.9579 15.0469 16.3169 14.6809 16.7329 14.3329C17.2132 13.9891 17.7425 13.7195 18.3029 13.5329C19.0837 13.2465 19.9256 13.168 20.7459 13.3049C21.5785 13.2649 22.4067 13.4468 23.1459 13.8319C23.5655 14.0094 23.9751 14.2097 24.3729 14.4319C24.931 14.8613 25.5125 15.2593 26.1149 15.6239C25.1993 14.6973 24.1148 13.9546 22.9199 13.4359Z" fill="#C2E52E"/>
<path d="M20.8501 25.2039C20.8971 25.2039 20.9411 25.1969 20.9921 25.1959C20.9858 25.1475 20.9858 25.0984 20.9921 25.0499L20.8501 25.2039Z" fill="#C18844"/>
<path d="M23.001 29.7029C23.73 29.8179 24.2171 29.3549 24.6741 28.7489C24.1287 29.0355 23.5297 29.2058 22.915 29.2489C22.807 28.6389 22.7041 28.0319 22.5941 27.4259C22.5581 27.3599 22.526 27.2949 22.494 27.2259C22.9549 27.0347 23.3836 26.7737 23.765 26.4519C23.3201 26.718 22.8083 26.8512 22.29 26.8359C22.027 26.3189 21.763 25.8359 21.502 25.3689C21.8029 25.245 22.0971 25.1051 22.3831 24.9499C22.0651 25.0811 21.7267 25.1563 21.3831 25.1719C21.1051 24.6869 20.807 24.2219 20.493 23.7719C20.7124 23.6185 20.947 23.4882 21.1931 23.3829C20.8751 23.3689 20.5931 23.4959 20.3021 23.4919C19.8636 22.8875 19.3916 22.3082 18.8881 21.7569C18.7781 21.6379 18.665 21.5089 18.553 21.3829C18.6364 21.2489 18.7347 21.1247 18.8461 21.0129C18.7145 21.1037 18.5684 21.1714 18.4141 21.2129C18.3631 21.1569 18.314 21.1079 18.264 21.0449C17.2036 20.27 16.0954 19.5626 14.946 18.9269C16.8099 20.3372 18.4844 21.9817 19.928 23.8199C21.9802 26.6997 23.0973 30.1408 23.1281 33.6769C23.2197 33.584 23.3202 33.5003 23.428 33.4269C23.664 33.2619 23.616 32.5899 23.496 31.8549C24.1107 31.703 24.6563 31.3486 25.045 30.8489C24.5513 31.1628 23.9969 31.3693 23.418 31.4549C23.262 30.7249 23.067 30.0109 23.001 29.7029Z" fill="#C18844"/>
<path d="M15.1139 10.7889C15.4589 9.65291 15.2598 8.46291 15.7618 7.33191C14.9528 7.53191 13.9148 8.90991 13.4958 9.65091C13.0874 10.484 12.7777 11.362 12.5729 12.2669C12.2716 11.8879 12.1229 11.41 12.1559 10.9269C11.7785 12.2975 11.7441 13.7399 12.0558 15.1269C12.2732 15.7268 12.5528 16.3022 12.8899 16.8439C13.2069 17.3679 13.8719 17.9739 13.8489 18.6129L13.9828 18.3179C14.1422 17.6748 14.2351 17.017 14.2599 16.3549C14.287 15.5739 14.3706 14.7959 14.5099 14.0269C14.8086 12.6796 15.3763 11.4065 16.1789 10.2839C15.9723 10.2642 15.7642 10.3007 15.5767 10.3896C15.3892 10.4785 15.2293 10.6165 15.1139 10.7889Z" fill="#9BC90E"/>
<path d="M15.1151 10.7889C15.4601 9.65291 15.261 8.46291 15.763 7.33191L15.7411 7.33991C15.6659 7.52336 15.5649 7.6951 15.4411 7.84991C14.6741 8.93176 14.1638 10.1742 13.9491 11.4829C14.1491 11.8829 15.0771 11.2659 14.8891 11.6929C14.0828 13.406 13.7052 15.2894 13.789 17.1809C13.835 17.6009 13.88 18.0179 13.927 18.4329L13.9821 18.3169C14.1414 17.6738 14.2342 17.016 14.2591 16.3539C14.286 15.5729 14.3695 14.7948 14.5091 14.0259C14.8078 12.6786 15.3755 11.4055 16.1781 10.2829C15.9717 10.2636 15.764 10.3005 15.5769 10.3896C15.3898 10.4786 15.2302 10.6166 15.1151 10.7889Z" fill="#7BB708"/>
<path d="M14.1029 19.4939C12.4829 20.5569 15.4029 23.7939 16.9419 22.1939C18.2939 20.7989 15.1159 18.4079 14.1029 19.4939Z" fill="#914E17"/>
<path d="M14.1289 19.4719C14.5654 19.5439 14.9694 19.7482 15.2859 20.0573C15.6025 20.3664 15.8165 20.7652 15.8989 21.1999C15.9699 21.6762 15.9461 22.1618 15.8289 22.6289C16.0344 22.6476 16.2415 22.6185 16.4338 22.5439C16.6262 22.4693 16.7987 22.3513 16.9379 22.1989C18.2819 20.8119 15.1749 18.4509 14.1289 19.4719Z" fill="#843E0F"/>
<path d="M14.5708 19.2419C14.7563 19.3037 14.9357 19.3823 15.1068 19.4769C15.6525 19.8296 16.0744 20.3439 16.3138 20.9479C16.4954 21.485 16.4766 22.0696 16.2608 22.5939C16.5223 22.5306 16.7592 22.3915 16.9418 22.1939C18.1238 20.9709 15.8458 18.9889 14.5708 19.2419Z" fill="#682E07"/>
<path d="M16.1758 19.8279C16.3328 20.1559 16.8248 20.7519 16.8968 20.9729C16.9706 21.3708 16.8932 21.782 16.6798 22.1259C16.8709 22.0066 17.015 21.8252 17.0879 21.612C17.1608 21.3989 17.1579 21.1672 17.0798 20.9559C16.9198 20.4609 16.5188 20.2089 16.1758 19.8279Z" fill="#72381C"/>
<path d="M14.182 19.8089L14.1329 19.7539C13.5689 20.3119 14.233 21.9939 15.004 22.0699C15.676 22.1299 14.9389 21.2549 14.7739 21.0269C14.5229 20.6839 14.344 19.9489 14.182 19.8089Z" fill="#C18844"/>
<path d="M13.06 16.9809C11.129 16.7969 11.383 21.1449 13.576 20.8679C15.511 20.6229 14.531 16.7679 13.06 16.9809Z" fill="#914E17"/>
<path d="M13.0949 16.9819C13.2955 17.2081 13.4485 17.4724 13.5449 17.7589C13.6361 18.0343 13.6697 18.3256 13.6437 18.6146C13.6178 18.9035 13.5328 19.1841 13.3939 19.4389C13.1498 19.8534 12.8267 20.2159 12.4429 20.5059C12.5917 20.6486 12.7711 20.7555 12.9674 20.8184C13.1637 20.8813 13.3718 20.8986 13.5759 20.8689C15.4919 20.6259 14.5449 16.8429 13.0949 16.9819Z" fill="#843E0F"/>
<path d="M13.579 17.0779C13.6871 17.2414 13.7785 17.4152 13.8521 17.5969C14.0537 18.2131 14.0611 18.8764 13.873 19.4969C13.6789 20.029 13.2983 20.4728 12.802 20.7459C13.0436 20.8601 13.3132 20.9018 13.578 20.8659C15.268 20.6509 14.728 17.6759 13.579 17.0779Z" fill="#682E07"/>
<path d="M14.3118 19.886C14.1193 20.2411 13.8029 20.513 13.4229 20.65C13.6467 20.676 13.8726 20.6239 14.0625 20.5026C14.2524 20.3812 14.3945 20.198 14.4648 19.984C14.57 19.5094 14.57 19.0175 14.4648 18.543C14.3808 18.895 14.3978 19.672 14.3118 19.886Z" fill="#72381C"/>
<path d="M12.1478 19.554C12.6268 20.024 12.6048 18.877 12.6218 18.596C12.6438 18.17 12.9609 17.486 12.9219 17.275V17.2C12.1319 17.286 11.5968 19.013 12.1478 19.554Z" fill="#C18844"/>
<path d="M14.8209 17.13C13.2009 18.197 16.1209 21.43 17.6569 19.839C19.0119 18.437 15.8339 16.045 14.8209 17.13Z" fill="#914E17"/>
<path d="M14.8489 17.1139C15.148 17.1607 15.4339 17.2701 15.6879 17.4349C15.931 17.5921 16.1393 17.7974 16.2999 18.0382C16.4606 18.279 16.5701 18.5501 16.6219 18.8349C16.6908 19.3116 16.6653 19.7971 16.5469 20.2639C16.7522 20.2817 16.959 20.2527 17.1514 20.1789C17.3439 20.1051 17.5171 19.9885 17.6579 19.8379C19.0009 18.4499 15.8929 16.0909 14.8489 17.1139Z" fill="#843E0F"/>
<path d="M15.2891 16.881C15.6924 17.008 16.0603 17.2281 16.363 17.5234C16.6658 17.8186 16.8949 18.1809 17.032 18.581C17.2136 19.1177 17.1948 19.702 16.9791 20.226C17.2387 20.166 17.4747 20.0303 17.657 19.836C18.847 18.612 16.5581 16.63 15.2891 16.881Z" fill="#682E07"/>
<path d="M16.897 17.465C17.053 17.795 17.548 18.388 17.614 18.61C17.6911 19.0081 17.615 19.4206 17.401 19.765C17.5915 19.6457 17.7352 19.4645 17.808 19.2519C17.8809 19.0392 17.8783 18.808 17.801 18.597C17.641 18.101 17.233 17.849 16.897 17.465Z" fill="#72381C"/>
<path d="M14.9019 17.446L14.8509 17.391C14.2899 17.949 14.9509 19.636 15.7219 19.711C16.3909 19.772 15.6519 18.896 15.4929 18.667C15.2439 18.322 15.0649 17.588 14.9019 17.446Z" fill="#C18844"/>
<path d="M66.6899 8.70497C66.7159 8.67897 66.7159 8.67597 66.6899 8.70497Z" fill="#80EDFF"/>
<path d="M47.8829 19.528C47.7599 20.028 47.6329 20.528 47.4829 21.028C47.659 20.5403 47.7927 20.0385 47.8829 19.528Z" fill="#80EDFF"/>
<path d="M75.9969 16.479C75.9969 15.738 73.9238 14.449 73.9238 14.449C73.8724 14.2769 73.8389 14.1 73.8238 13.921C73.5788 11.429 75.6679 5.748 74.1379 2.557L70.9468 1.604C69.0768 1.604 63.1398 5.267 63.1398 6.941C63.0378 10.9024 62.6928 14.8538 62.1068 18.773C61.9728 19.727 59.5298 20.594 59.1858 21.607C57.0578 27.981 53.9738 35.377 55.8728 40.455C58.9728 42.344 61.9728 42.683 66.5508 42.213C68.3218 42.036 69.5458 40.772 71.1208 40.455C74.1208 39.855 77.2798 42.284 80.0018 39.491C82.4708 36.959 79.1479 37.152 77.1219 30.823C76.0639 27.511 75.9969 20.691 75.9969 16.479Z" fill="#8DA09C"/>
<path d="M67.2509 32.535C66.1359 30.31 65.88 27.788 65.451 25.368C65.3375 24.5427 65.4263 23.7022 65.7099 22.919C63.561 22.9352 61.4756 22.1914 59.8219 20.819C59.5428 21.0184 59.3219 21.2887 59.182 21.602C57.054 27.976 53.9699 35.372 55.8689 40.45C58.9689 42.339 61.969 42.678 66.547 42.208C68.318 42.031 69.542 40.767 71.117 40.45C71.245 40.425 71.3789 40.406 71.5039 40.391C71.3609 40.052 71.2129 39.718 71.0459 39.391C69.8689 37.056 68.4209 34.873 67.2509 32.535Z" fill="#869B96"/>
<path d="M55.4561 38.933C55.5476 39.4506 55.6865 39.9587 55.8711 40.451C56.666 40.9408 57.5115 41.3432 58.3931 41.651C58.4798 40.0471 58.7482 38.4583 59.1931 36.915C59.3931 36.258 61.9031 31.157 61.9811 31.225C61.9681 31.211 61.9481 31.195 61.9321 31.179C59.7191 33.744 57.4921 36.267 55.4561 38.933Z" fill="#93AAA5"/>
<path d="M67.2509 32.535C66.4401 30.6986 65.9115 28.7503 65.6829 26.756C64.5371 31.874 64.6559 37.1942 66.0289 42.256C66.2029 42.24 66.3759 42.226 66.5489 42.207C68.3209 42.03 69.5439 40.766 71.1189 40.449C71.2469 40.424 71.3809 40.405 71.5059 40.39C71.3629 40.051 71.2149 39.717 71.0479 39.39C69.8689 37.055 68.4209 34.873 67.2509 32.535Z" fill="#5E756F"/>
<path d="M62.0899 18.822C61.8699 19.757 59.5149 20.607 59.1839 21.602C59.1209 21.792 59.0609 21.976 58.9949 22.164C59.0239 22.187 59.0569 22.206 59.0799 22.228C60.9266 23.5975 63.1158 24.4301 65.4059 24.634C65.5352 22.988 66.1486 21.4171 67.1689 20.119C65.5203 19.9634 63.9032 19.5679 62.3689 18.945C62.2699 18.907 62.1749 18.867 62.0899 18.822Z" fill="#B5C6C2"/>
<path d="M66.3599 20.929C66.3389 20.96 66.2929 21.029 66.2139 21.143C66.0415 21.4045 65.8553 21.6565 65.6559 21.898C66.0189 21.424 65.3709 22.314 65.2129 22.44C64.4922 23.0512 63.5856 23.4 62.6412 23.4294C61.6967 23.4588 60.7702 23.1671 60.0129 22.602C59.6624 22.3685 59.3672 22.0614 59.1479 21.702C59.0979 21.859 59.0479 22.013 58.9939 22.166C59.0229 22.189 59.0559 22.208 59.0789 22.23C60.9256 23.5995 63.1148 24.4321 65.4048 24.636C65.5342 22.99 66.1476 21.4191 67.1678 20.121H67.1389C66.8799 20.379 66.6179 20.637 66.3599 20.929Z" fill="#CADDD9"/>
<path d="M70.944 1.59998C69.074 1.59998 63.137 5.26298 63.137 6.93698C63.137 6.99198 63.137 7.04498 63.137 7.10098C64.473 7.27598 65.8119 7.45297 67.1689 7.53197C67.3253 7.54142 67.4805 7.56417 67.6329 7.59998C67.8515 7.32716 68.1238 7.10217 68.433 6.93898C70.468 5.83198 72.4589 4.66898 74.5079 3.65398C74.4278 3.27468 74.3051 2.90567 74.142 2.55397L70.944 1.59998Z" fill="#AABCB8"/>
<path d="M73.4749 2.35596C72.6429 2.76296 71.8159 3.16895 71.0019 3.60995C69.2225 4.77296 67.302 5.70415 65.2869 6.38095C64.6653 6.54219 64.0058 6.46328 63.4399 6.15996C63.2655 6.38375 63.1612 6.65406 63.1399 6.93695C63.1399 6.99195 63.1399 7.04496 63.1399 7.10096C64.4759 7.27596 65.8149 7.45296 67.1719 7.53196C67.3282 7.54141 67.4834 7.56416 67.6359 7.59996C67.8544 7.32714 68.1268 7.10215 68.4359 6.93896C70.4709 5.83196 72.4619 4.66896 74.5109 3.65396C74.4307 3.27466 74.308 2.90565 74.1449 2.55396L73.4749 2.35596Z" fill="#BCD4CF"/>
<path d="M74.1359 2.55301L73.7909 2.453C73.6466 2.57729 73.4853 2.68033 73.3119 2.759C70.7449 3.88 68.7489 5.778 66.6189 7.527C67.3831 11.6815 67.5686 15.9217 67.1699 20.127C69.2799 18.641 71.7469 15.827 73.9319 14.452C73.8758 14.2807 73.8393 14.1035 73.8229 13.924C73.5749 11.425 75.6609 5.74401 74.1359 2.55301Z" fill="#5E756F"/>
<path opacity="0.75" d="M67.1689 20.12C68.5406 19.0571 69.8529 17.9197 71.0999 16.713C71.8609 12.692 72.2619 8.58196 72.8879 4.53296C71.7216 9.41311 69.8389 14.0936 67.301 18.422C67.267 18.999 67.2219 19.563 67.1689 20.12Z" fill="#415B53"/>
<path opacity="0.75" d="M73.7899 2.44897C73.6456 2.57326 73.4843 2.6763 73.3109 2.75497C70.7439 3.87597 68.7479 5.77397 66.6179 7.52297C66.9844 9.49624 67.216 11.4922 67.3109 13.497C67.5088 12.3767 67.6029 11.2405 67.5919 10.103C67.5209 6.71297 70.4149 5.53297 72.6189 3.57197C73.0692 3.15365 73.6547 2.91093 74.2689 2.88797C74.2269 2.77697 74.1869 2.66297 74.1349 2.55397L73.7899 2.44897Z" fill="#415B53"/>
<path d="M75.9971 16.475C75.9925 16.4124 75.979 16.3508 75.957 16.292C75.4896 17.2797 74.9238 18.2178 74.2681 19.092C73.4851 20.039 69.9061 18.992 69.1981 19.983L67.8411 24.658C67.8411 27.549 69.791 31.642 71.197 34.158C72.3819 36.4166 73.9299 38.4652 75.7791 40.222C75.9873 40.4041 76.1649 40.6185 76.3051 40.857C76.984 40.9316 77.671 40.8475 78.3118 40.6113C78.9527 40.3751 79.5299 39.9933 79.998 39.496C82.467 36.964 79.144 37.157 77.118 30.828C76.064 27.507 75.9971 20.691 75.9971 16.475Z" fill="#75928B"/>
<path d="M71.373 20.407C72.261 20.017 73.656 19.928 74.397 19.344C74.8527 18.9739 75.4182 18.765 76.0051 18.75C75.9971 17.939 75.9971 17.174 75.9971 16.479C75.9925 16.4164 75.979 16.3548 75.957 16.296C75.4896 17.2838 74.9238 18.2219 74.2681 19.096C73.4851 20.043 69.9061 18.996 69.1981 19.987L67.8411 24.662C67.8411 27.553 69.791 31.646 71.197 34.162C72.2557 36.1498 73.5817 37.9832 75.1381 39.611C74.2711 38.145 73.4381 36.659 72.5961 35.171C71.2457 33.0494 70.1448 30.7791 69.3151 28.405C68.5791 26.605 68.415 24.017 69.496 22.333C69.9292 21.5281 70.5795 20.8608 71.373 20.407Z" fill="#6F8781"/>
<path d="M75.9979 16.475C75.9936 16.4124 75.9802 16.3507 75.9579 16.292C75.5087 17.2171 74.9825 18.1029 74.3849 18.94C74.4129 19.1303 74.4229 19.3228 74.4149 19.515C74.1369 23.798 74.2309 28.222 73.9089 32.555C74.2279 34.718 75.4679 37.026 76.2419 39.025C76.4799 39.638 76.7279 40.242 76.9749 40.851C77.5451 40.8387 78.1069 40.7115 78.6268 40.4772C79.1467 40.2428 79.6141 39.906 80.0009 39.487C82.4699 36.955 79.1469 37.148 77.1209 30.819C76.0649 27.507 75.9979 20.691 75.9979 16.475Z" fill="#5E756F"/>
<path opacity="0.51" d="M31.6301 42.9239C28.4921 43.0769 25.6301 43.4179 22.5691 42.9239C19.8951 42.4909 20.3261 40.9409 17.5461 40.9559L17.8871 40.5829C16.2551 41.3109 13.1381 42.9009 15.6731 43.4299C20.7851 44.5009 23.0121 50.1009 27.7161 50.2009C32.4201 50.3009 33.9161 48.6199 37.8771 48.0829C41.7961 47.5519 48.1431 47.5479 49.8381 45.1879C51.5331 42.8279 35.3851 42.7369 31.6301 42.9239Z" fill="#999908"/>
<path d="M46.115 35.8809C45.532 35.4809 45.02 35.2409 44.481 34.8299C43.7037 34.033 42.6836 33.5169 41.581 33.3629C40.941 33.2309 39.334 33.2839 38.874 32.7789C38.185 32.0189 38.918 31.1859 38.519 30.3889C37.771 28.8819 35.683 28.8029 34.08 29.1819C33.17 29.3902 32.3537 29.8919 31.757 30.6099V30.8229C30.2987 30.172 28.7053 29.8811 27.111 29.9749C25.188 30.2999 24.702 32.2149 22.892 32.7179C21.056 33.2329 19.423 32.5609 17.659 33.5229C16.905 33.9358 16.2499 34.508 15.7396 35.1999C15.2293 35.8917 14.8759 36.6865 14.704 37.5289C14.287 39.1289 14.231 41.1389 15.704 42.2129C17.051 43.1969 18.975 42.4959 20.309 43.3249C21.972 44.3549 22.017 46.5019 23.528 47.7079C25.095 48.9579 27.455 49.1829 29.428 49.1809C32.13 49.1636 34.7709 48.375 37.04 46.9079C39.126 45.6709 40.14 45.8949 42.532 46.0079C46.669 46.2199 51.262 44.8439 49.332 39.8429C48.7377 38.1969 47.6039 36.8005 46.115 35.8809Z" fill="#9BC90E"/>
<path d="M46.1151 35.8809C45.7491 35.6239 45.4071 35.4349 45.0661 35.2269V35.2349C44.7768 36.3093 44.133 37.2544 43.239 37.9169C43.2607 38.6888 43.0514 39.4496 42.6379 40.1019C42.2245 40.7541 41.6257 41.268 40.9184 41.5778C40.211 41.8876 39.4273 41.9791 38.6676 41.8407C37.9079 41.7023 37.2067 41.3403 36.6541 40.8009C36.4715 41.6167 36.0087 42.3426 35.3462 42.8524C34.6836 43.3622 33.8634 43.6235 33.028 43.5909C32.8719 43.3564 32.6624 43.1622 32.4167 43.0243C32.1709 42.8864 31.896 42.8088 31.6144 42.7978C31.3329 42.7867 31.0527 42.8426 30.7969 42.9609C30.5411 43.0791 30.3171 43.2563 30.1431 43.4779C29.7894 43.6797 29.408 43.8287 29.0111 43.9199C28.5461 44.1185 28.0457 44.2205 27.5401 44.2199C26.5737 44.2087 25.6454 43.8416 24.9327 43.1889C24.22 42.5362 23.773 41.6436 23.6771 40.6819C23.4817 40.2618 23.3192 39.8272 23.1911 39.3819L23.1821 39.3919C22.5463 39.747 21.8313 39.9361 21.1031 39.9419C20.3796 39.9374 19.6692 39.7495 19.0381 39.3959L18.0121 39.5339C16.9774 39.5337 15.9852 39.123 15.2531 38.3919C15.0347 38.1638 14.8432 37.9115 14.6821 37.6399C14.2921 39.2229 14.2721 41.1599 15.7071 42.2079C17.0541 43.1919 18.9791 42.4909 20.3131 43.3199C21.9751 44.3509 22.0201 46.4969 23.5311 47.7029C25.0981 48.9529 27.4571 49.1779 29.4311 49.1759C32.1331 49.1586 34.774 48.37 37.0431 46.9029C39.1281 45.6659 40.1431 45.8899 42.5351 46.0029C46.6721 46.2149 51.2651 44.8389 49.3351 39.8379C48.7391 38.1933 47.6043 36.7987 46.1151 35.8809Z" fill="#80B708"/>
<path d="M48.293 42.6329C47.4995 43.0784 46.5766 43.2366 45.68 43.0809C44.9554 43.8072 43.973 44.2174 42.947 44.2219H42.523C41.554 44.2133 40.6236 43.841 39.916 43.1789C39.5732 43.7491 39.0897 44.2218 38.5119 44.5517C37.9341 44.8815 37.2814 45.0576 36.616 45.0629C36.1086 45.0623 35.6065 44.9603 35.1391 44.7629C34.9731 45.0716 34.7655 45.3559 34.522 45.6079C34.455 45.6789 34.38 45.7529 34.313 45.8209C33.6116 46.5071 32.679 46.9062 31.6983 46.9399C30.7177 46.9736 29.7598 46.6394 29.013 46.0029C28.347 46.5071 27.5301 46.7711 26.695 46.7519H26.46C25.9318 46.7629 25.4072 46.661 24.9215 46.4531C24.4357 46.2452 23.9999 45.936 23.6432 45.5462C23.2865 45.1565 23.017 44.6951 22.8528 44.1928C22.6886 43.6906 22.6335 43.1591 22.6911 42.6339C22.4137 42.7042 22.1291 42.7414 21.843 42.7449H21.63C20.8754 42.7371 20.1389 42.5129 19.5079 42.099C18.8769 41.6851 18.3778 41.0989 18.07 40.4099C17.316 40.367 16.5902 40.1087 15.9787 39.6656C15.3671 39.2224 14.8955 38.6131 14.62 37.9099C14.298 39.4389 14.35 41.2239 15.705 42.2099C17.06 43.1959 18.976 42.4929 20.305 43.3219C21.967 44.3519 22.012 46.4989 23.523 47.7049C25.09 48.9549 27.45 49.1799 29.423 49.1779C32.1251 49.1607 34.766 48.3721 37.035 46.9049C39.12 45.6679 40.1351 45.8919 42.5271 46.0049C46.2661 46.1949 50.364 45.0809 49.693 41.1679C49.3698 41.7756 48.8855 42.2825 48.293 42.6329Z" fill="#528402"/>
<path d="M38.817 32.6809C38.259 31.9489 38.9059 31.1539 38.5249 30.3879C38.5079 30.3569 38.4829 30.3349 38.4669 30.3009C37.9979 31.4784 37.1443 32.4627 36.045 33.0936C34.9457 33.7245 33.6652 33.965 32.4119 33.7759C30.6173 35.5198 28.2142 36.4964 25.7119 36.4989C26.4488 37.2144 27.3059 37.7946 28.2439 38.2129C29.13 38.5939 30.0854 38.7876 31.0499 38.7819C32.4379 38.7489 31.8919 39.0169 32.0039 38.4339C32.4459 36.1659 34.84 35.4239 36.804 35.7119C38.557 35.9689 39.4779 34.8739 38.9669 33.3329C38.8971 33.1206 38.847 32.9024 38.817 32.6809Z" fill="#80B708"/>
<path opacity="0.51" d="M55.311 51.5089C52.367 51.3229 49.411 51.4909 46.489 51.0719C46.2187 51.0033 45.9425 50.9604 45.6641 50.9439L44.9091 50.8829C44.4221 50.9439 42.5451 51.2719 42.5291 52.0089C42.5221 52.4089 45.0731 53.0759 45.5961 53.1839C46.1744 53.2557 46.728 53.4611 47.2131 53.7839C47.6488 54.0629 48.1567 54.2082 48.6741 54.2019C49.841 54.2934 51.0132 54.2934 52.1801 54.2019C52.7191 54.1749 53.2281 54.2019 53.7501 54.2019C54.3352 54.1423 54.9069 53.9886 55.4431 53.7469C56.3981 53.4469 57.6261 53.7469 58.4611 53.2169C58.8921 52.9429 59.134 52.5439 58.715 52.0689C58.03 51.3019 56.22 51.5679 55.311 51.5089Z" fill="#999908"/>
<path d="M57.908 44.4559C58.486 42.4859 57.496 41.0559 55.466 40.1629C53.42 39.2689 52.241 40.3909 50.486 40.9939C49.038 41.4879 47.25 40.6939 45.648 41.7379C44.361 42.5789 43.085 45.1939 43.748 46.5229L43.56 47.0829C41.831 47.3419 41.72 50.4929 43.717 50.2729C43.19 52.6399 46.728 53.0269 48.4 53.2619C50.2205 53.5333 52.0747 53.0766 53.561 51.9909C55.431 53.8659 59.032 51.8049 59.794 49.8729C60.43 48.2389 60.618 44.2619 57.908 44.4559Z" fill="#9BC90E"/>
<path d="M57.908 44.4559C58.486 42.4869 57.496 41.0559 55.466 40.1629C55.4518 40.1588 55.4377 40.1538 55.424 40.1479C55.6346 40.7251 55.7462 41.3336 55.7541 41.948V42.1339C55.7391 43.456 55.259 44.7305 54.3981 45.7338C53.5372 46.7372 52.3504 47.4053 51.046 47.6209C51.0344 47.6236 51.023 47.6273 51.012 47.632C50.0668 48.3133 48.925 48.6676 47.76 48.641C46.9814 48.6692 46.2066 48.5199 45.4943 48.2042C44.7821 47.8885 44.1511 47.4148 43.6491 46.8189L43.559 47.0819C41.83 47.3409 41.719 50.4919 43.716 50.2719C43.189 52.6389 46.7271 53.0259 48.3991 53.2609C50.2196 53.5323 52.0737 53.0757 53.56 51.99C55.43 53.865 59.0311 51.8039 59.7931 49.8719C60.4301 48.2389 60.618 44.2619 57.908 44.4559Z" fill="#80B708"/>
<path d="M57.908 44.453C58.44 42.647 57.642 41.3 55.94 40.403C56.0111 40.5097 56.0746 40.6213 56.13 40.737C58.23 44.003 56.743 49.568 51.661 49.568C51.581 49.568 51.503 49.558 51.419 49.558C51.319 49.622 51.237 49.705 51.134 49.765C50.1688 50.5077 48.9775 50.8961 47.76 50.865C46.6794 50.9103 45.6127 50.6093 44.7151 50.0061C43.8175 49.4028 43.1361 48.5286 42.77 47.511C41.879 48.425 42.1 50.444 43.716 50.265C43.189 52.632 46.7269 53.019 48.3989 53.254C50.2195 53.5253 52.0736 53.0687 53.56 51.983C55.43 53.858 59.03 51.797 59.793 49.865C60.43 48.239 60.619 44.262 57.908 44.453Z" fill="#528402"/>
<path d="M72.9961 32.713C73.1551 32.622 73.0661 32.555 73.2361 32.549C73.2443 32.5615 73.2544 32.5727 73.2661 32.582C73.2551 32.463 73.2361 32.351 73.2361 32.224L72.9961 32.713Z" fill="#703F1E"/>
<path d="M94.972 27.1139C94.64 27.7139 93.9561 28.0979 93.5121 28.6319C93.5331 27.1799 93.297 25.5989 93.954 24.5819C92.846 24.4359 93.1091 28.8009 92.5901 29.7439C91.8651 31.0539 89.406 31.7109 88.105 32.3809C84.1 34.4409 82.1951 30.6809 81.2051 27.2029C81.1589 26.8484 81.1542 26.4896 81.191 26.1339C79.623 26.9389 81.4231 30.0279 82.0721 30.9979C82.9441 32.3059 84.7111 33.3159 85.4141 34.6499C85.7081 35.1989 85.8141 36.6589 85.2631 37.1309C84.6281 37.6759 83.6631 37.0199 82.9291 36.7609C81.3481 36.2029 79.339 35.9779 77.907 35.1309C76.283 34.1699 76.7471 32.5879 75.8191 31.2919C75.3581 32.5189 76.562 33.8439 76.657 35.0239C74.957 34.9349 74.2681 33.7239 73.2681 32.5809C73.5111 36.6049 79.9391 36.5059 82.8091 37.6499C83.6509 38.0134 84.3292 38.6746 84.7141 39.5068C85.0989 40.3391 85.1634 41.2841 84.8951 42.1609C84.6311 42.8309 82.9951 43.7359 81.9601 44.5609C84.3261 43.4239 87.0321 43.4719 89.7501 43.7029C89.3951 43.1159 88.2941 42.6659 87.9261 41.9409C87.5536 41.1586 87.3169 40.3186 87.2261 39.4569C87.0261 37.6569 87.0981 35.5509 88.4191 34.2749C89.6641 33.0809 91.5711 32.4509 92.7701 31.1509C93.197 30.6454 93.4433 30.0121 93.47 29.3509C94.578 28.2629 96.8141 26.2679 95.5911 24.8809C95.4313 25.6374 95.2245 26.3832 94.972 27.1139Z" fill="#703F1E"/>
<path d="M96.298 13.967C97.155 11.058 95.6981 8.94402 92.6871 7.63102C89.6761 6.31802 87.9241 7.97002 85.3361 8.85902C83.1951 9.59202 80.556 8.41502 78.189 9.95902C76.289 11.197 74.3971 15.059 75.3821 17.032L75.1101 17.854C72.5421 18.24 72.3791 22.895 75.3381 22.564C74.5551 26.064 79.7821 26.637 82.2491 26.981C85.3321 27.411 87.298 26.686 89.876 25.106C92.638 27.881 97.9581 24.836 99.0761 21.976C100.024 19.56 100.307 13.693 96.298 13.967Z" fill="#9BC90E"/>
<path d="M96.298 13.967C97.155 11.058 95.6981 8.94403 92.6871 7.63103C92.6677 7.62186 92.6476 7.61417 92.6271 7.60803C92.9403 8.46053 93.107 9.3599 93.1201 10.268V10.544C93.098 12.4982 92.3879 14.3821 91.1147 15.8648C89.8415 17.3474 88.0865 18.3339 86.1581 18.651C86.1445 18.6575 86.1304 18.6629 86.116 18.667C84.7189 19.6755 83.0297 20.1982 81.3071 20.155C80.1572 20.1977 79.0127 19.9773 77.9608 19.5108C76.9089 19.0443 75.9774 18.3439 75.2371 17.463L75.1101 17.853C72.5421 18.239 72.3791 22.894 75.3381 22.563C74.5551 26.063 79.7821 26.636 82.2491 26.98C85.3321 27.41 87.298 26.685 89.876 25.105C92.638 27.88 97.9581 24.835 99.0761 21.975C100.024 19.559 100.307 13.693 96.298 13.967Z" fill="#80B708"/>
<path d="M96.298 13.967C97.087 11.307 95.904 9.31499 93.398 7.98999C93.498 8.14599 93.5821 8.31799 93.6751 8.48099C96.7751 13.307 94.575 21.532 87.069 21.532C86.947 21.532 86.833 21.516 86.713 21.514C86.567 21.614 86.445 21.734 86.291 21.821C84.8646 22.9214 83.103 23.4973 81.302 23.452C79.7062 23.5184 78.1308 23.0735 76.8054 22.1823C75.4799 21.2911 74.4737 19.9999 73.9331 18.497C72.6121 19.851 72.933 22.833 75.333 22.563C74.55 26.063 79.7771 26.636 82.2431 26.98C85.3261 27.41 87.292 26.685 89.87 25.105C92.633 27.88 97.952 24.835 99.075 21.975C100.024 19.559 100.311 13.693 96.298 13.967Z" fill="#528402"/>
<path d="M74.5299 26.788H74.4079C73.8499 25.973 71.3849 26.162 70.3869 26.57C69.649 26.8637 68.9992 27.3426 68.5003 27.9606C68.0015 28.5786 67.6703 29.3148 67.5389 30.098C67.2779 33.007 69.3939 33.669 71.9589 34.023C74.1669 34.329 75.9679 34.211 76.0179 31.71C80.3099 31.898 78.4359 25.82 74.5299 26.788Z" fill="#9BC90E"/>
<path d="M75.259 29.123C74.679 29.692 73.9743 30.1179 73.201 30.367C72.5898 30.5228 71.9648 30.6179 71.335 30.651C70.7299 30.6622 70.1289 30.5482 69.57 30.3161C69.011 30.0839 68.5061 29.7387 68.087 29.302C67.994 29.209 67.923 29.102 67.837 29.002C67.6743 29.3486 67.5728 29.7208 67.537 30.102C67.276 33.011 69.392 33.673 71.957 34.027C74.165 34.333 75.966 34.215 76.016 31.714C78.888 31.84 78.986 29.167 77.576 27.667C76.9052 28.2978 76.1184 28.7923 75.259 29.123Z" fill="#80B708"/>
<path d="M75.9639 30.359C75.7881 30.359 75.6125 30.3486 75.4379 30.328C74.9632 30.9619 74.3289 31.4585 73.5995 31.767C72.8702 32.0756 72.072 32.185 71.2865 32.0843C70.5011 31.9835 69.7564 31.6761 69.1286 31.1935C68.5007 30.7108 68.0122 30.0702 67.7129 29.337C67.6253 29.5827 67.5666 29.8378 67.5379 30.097C67.2769 33.006 69.3929 33.668 71.9579 34.022C74.1659 34.328 75.9669 34.21 76.0169 31.708C77.8169 31.791 78.5169 30.761 78.4589 29.614C78.3959 29.652 78.3449 29.696 78.2839 29.731C77.5809 30.1447 76.7796 30.3616 75.9639 30.359Z" fill="#528402"/>
<path d="M82.4579 14.338C82.3579 15.024 82.2159 16.787 81.5499 17.238C80.7499 17.778 79.5249 16.815 78.7749 16.674C78.9199 17.62 80.8429 17.395 81.0459 18.326C81.0599 18.297 81.0729 18.27 81.0849 18.247V18.484C81.0808 18.4272 81.0676 18.3715 81.0459 18.319C80.7616 18.8066 80.6536 19.3771 80.7399 19.935C80.8495 19.9281 80.9593 19.9281 81.0689 19.935C81.2639 17.867 82.9789 16.621 82.7889 14.335C82.7349 14.342 82.5109 14.342 82.4579 14.338Z" fill="#703F1E"/>
<path d="M79.403 6.59898C78.003 6.55498 74.921 7.44198 74.614 8.68898L74.4659 8.74198C69.2729 9.34198 69.7499 17.585 74.8849 15.412C76.0849 18.43 78.3309 17.758 80.8749 16.385C83.8349 14.785 86.1109 13.014 84.4749 9.60098C83.9592 8.70648 83.2215 7.96019 82.3329 7.43429C81.4444 6.90839 80.4352 6.62067 79.403 6.59898Z" fill="#9BC90E"/>
<path d="M83.6079 8.396C83.5509 8.553 83.508 8.724 83.44 8.881C83.1291 9.60342 82.6713 10.2532 82.0955 10.789C81.5198 11.3248 80.8388 11.7348 80.096 11.993C79.3153 12.2417 78.511 12.4092 77.6959 12.493C76.6441 12.5402 75.5957 12.3431 74.6329 11.917C73.4378 11.9 72.2569 11.6546 71.1539 11.194C70.1079 13.652 71.4539 16.86 74.8859 15.409C76.0859 18.427 78.3319 17.755 80.8769 16.382C83.8369 14.782 86.1129 13.011 84.4769 9.598C84.2571 9.1512 83.9633 8.7448 83.6079 8.396Z" fill="#80B708"/>
<path d="M83.9179 8.75293C83.8855 9.78061 83.5813 10.7813 83.0361 11.6531C82.491 12.5249 81.7244 13.2365 80.8146 13.7154C79.9047 14.1944 78.8842 14.4235 77.8569 14.3795C76.8297 14.3355 75.8325 14.0199 74.9669 13.4649C74.7669 13.5649 74.5519 13.6649 74.3369 13.7419C73.3476 14.1118 72.2779 14.2125 71.2369 14.0339L70.9719 13.9659C71.4099 15.3909 72.7319 16.3259 74.8889 15.4129C76.0889 18.4309 78.3349 17.7589 80.8789 16.3859C83.8399 14.7859 86.1149 13.0149 84.4789 9.60193C84.3249 9.29849 84.1366 9.01364 83.9179 8.75293Z" fill="#528402"/>
<path d="M103.439 14.919C102.045 14.877 98.96 15.764 98.651 17.007L98.4991 17.064C93.3111 17.664 93.785 25.904 98.919 23.731C100.119 26.75 102.367 26.076 104.908 24.703C107.873 23.103 110.144 21.339 108.508 17.917C107.992 17.0242 107.254 16.2794 106.366 15.7543C105.478 15.2293 104.47 14.9416 103.439 14.919Z" fill="#9BC90E"/>
<path d="M107.647 16.7201C107.587 16.8801 107.553 17.0461 107.476 17.2051C107.166 17.9273 106.708 18.5771 106.133 19.113C105.558 19.6489 104.878 20.0593 104.135 20.3181C103.354 20.5653 102.55 20.7329 101.735 20.8181C100.682 20.8648 99.6325 20.6677 98.6681 20.2421C97.4726 20.2257 96.2914 19.9792 95.1891 19.5161C94.1491 21.9801 95.4891 25.1861 98.9211 23.7321C100.121 26.7511 102.369 26.0771 104.91 24.7041C107.874 23.1041 110.146 21.3401 108.51 17.9181C108.291 17.4735 107.999 17.0686 107.647 16.7201Z" fill="#80B708"/>
<path d="M107.949 17.076C107.917 18.1035 107.613 19.1042 107.068 19.9758C106.523 20.8475 105.757 21.559 104.847 22.0377C103.937 22.5165 102.917 22.7453 101.89 22.7009C100.863 22.6565 99.866 22.3405 99.001 21.785C98.792 21.885 98.586 21.985 98.371 22.066C97.3791 22.4356 96.3069 22.5349 95.264 22.354C95.178 22.339 95.092 22.3101 95.001 22.2901C95.439 23.7161 96.767 24.646 98.917 23.733C100.117 26.752 102.365 26.078 104.906 24.705C107.871 23.105 110.142 21.341 108.506 17.919C108.354 17.6172 108.167 17.3343 107.949 17.076Z" fill="#528402"/>
<path d="M100.189 24.105H100.083C99.6101 23.405 97.4971 23.569 96.6521 23.915C96.0196 24.1667 95.4627 24.577 95.035 25.1065C94.6073 25.636 94.3232 26.2668 94.2101 26.938C93.9881 29.421 95.8001 29.986 97.9981 30.292C99.8821 30.554 101.42 30.454 101.466 28.316C105.132 28.473 103.532 23.275 100.189 24.105Z" fill="#9BC90E"/>
<path d="M100.818 26.105C100.322 26.5902 99.7205 26.9534 99.0601 27.166C98.5362 27.3 98.0002 27.3814 97.4602 27.409C96.9429 27.4186 96.4292 27.3213 95.9513 27.1231C95.4734 26.9248 95.0417 26.63 94.6831 26.257C94.6051 26.175 94.5411 26.078 94.4661 25.989C94.3295 26.2896 94.2427 26.6105 94.2091 26.939C93.9871 29.422 95.7991 29.987 97.9971 30.293C99.8811 30.555 101.419 30.455 101.465 28.317C103.919 28.422 104.006 26.136 102.8 24.854C102.225 25.3938 101.553 25.8185 100.818 26.105Z" fill="#80B708"/>
<path d="M101.413 27.16C101.268 27.16 101.113 27.146 100.967 27.134C100.561 27.6754 100.018 28.0994 99.3944 28.3627C98.7707 28.626 98.0884 28.7192 97.4169 28.6329C96.7455 28.5467 96.109 28.2839 95.5722 27.8714C95.0354 27.459 94.6175 26.9116 94.3612 26.285C94.284 26.496 94.233 26.7157 94.2091 26.939C93.9871 29.422 95.7991 29.987 97.9971 30.293C99.8811 30.555 101.419 30.455 101.465 28.317C103.003 28.384 103.608 27.504 103.547 26.526C103.498 26.56 103.447 26.596 103.402 26.626C102.798 26.9772 102.112 27.1615 101.413 27.16Z" fill="#528402"/>
<path opacity="0.51" d="M87.2638 47.4538C85.3528 47.3368 83.4398 47.4459 81.5478 47.1709C81.37 47.1272 81.1886 47.0998 81.0058 47.0889L80.5178 47.0479C80.2028 47.0889 78.9848 47.2989 78.9768 47.7779C78.9768 48.0409 80.6268 48.4698 80.9638 48.5378C81.3379 48.5859 81.6961 48.719 82.0108 48.9268C82.2943 49.1079 82.6244 49.2024 82.9608 49.1989C83.7175 49.261 84.4781 49.261 85.2348 49.1989C85.5838 49.1829 85.9148 49.2039 86.2498 49.1989C86.6299 49.162 87.0014 49.0633 87.3498 48.9069C87.9698 48.7069 88.7668 48.9069 89.3088 48.5629C89.5868 48.3839 89.7438 48.1238 89.4738 47.8158C89.0208 47.3218 87.8458 47.4928 87.2638 47.4538Z" fill="#999908"/>
<path d="M88.9458 42.8799C89.3198 41.6039 88.6758 40.6719 87.3608 40.0969C86.0458 39.5219 85.2608 40.2459 84.1348 40.6369C83.1918 40.9559 82.0348 40.4369 80.9938 41.1199C80.1598 41.6629 79.3338 43.3599 79.7658 44.2199L79.6408 44.5839C78.5188 44.7519 78.4468 46.7919 79.7458 46.6479C79.3998 48.1859 81.6948 48.4359 82.7768 48.5899C83.958 48.7634 85.1601 48.4676 86.1258 47.7659C87.3338 48.9809 89.6708 47.6429 90.1658 46.3929C90.5818 45.3339 90.7068 42.7549 88.9458 42.8799Z" fill="#9BC90E"/>
<path d="M88.9458 42.8808C89.3198 41.6048 88.6758 40.6728 87.3608 40.0978C87.3514 40.097 87.3421 40.0943 87.3338 40.0898C87.4688 40.4644 87.5408 40.8587 87.5468 41.2568V41.3758C87.5383 42.2337 87.2276 43.061 86.6691 43.7122C86.1106 44.3635 85.3403 44.7968 84.4938 44.9358L84.4778 44.9438C83.8633 45.3844 83.1228 45.6145 82.3668 45.5998C81.8617 45.6182 81.3591 45.5211 80.8972 45.3162C80.4352 45.1112 80.0261 44.8036 79.7008 44.4168L79.6418 44.5888C78.5198 44.7568 78.4478 46.7968 79.7468 46.6528C79.4008 48.1908 81.6958 48.4408 82.7778 48.5948C83.9589 48.7683 85.161 48.4726 86.1268 47.7708C87.3348 48.9858 89.6718 47.6478 90.1668 46.3978C90.5818 45.3348 90.7068 42.7558 88.9458 42.8808Z" fill="#80B708"/>
<path d="M88.9458 42.8809C89.1104 42.3634 89.07 41.8025 88.8329 41.314C88.5958 40.8255 88.1802 40.4467 87.6718 40.2559C87.7158 40.3259 87.7559 40.3983 87.7918 40.4729C89.1528 42.5929 88.1918 46.1999 84.8918 46.1999C84.8398 46.1999 84.7918 46.1999 84.7358 46.1999C84.6728 46.2409 84.6168 46.2899 84.5528 46.3309C83.927 46.813 83.1545 47.0654 82.3648 47.0459C81.6639 47.076 80.9718 46.881 80.3897 46.4895C79.8076 46.0979 79.3661 45.5304 79.1298 44.8699C78.5498 45.4699 78.6908 46.7699 79.7458 46.6549C79.4008 48.1929 81.6948 48.4429 82.7778 48.5969C83.9589 48.7705 85.1611 48.4747 86.1268 47.7729C87.3348 48.9879 89.6718 47.6499 90.1668 46.3999C90.5808 45.3349 90.7058 42.7549 88.9458 42.8809Z" fill="#528402"/>
</svg>
