<svg width="107" height="107" viewBox="0 0 107 107" fill="none" xmlns="http://www.w3.org/2000/svg">
<path d="M26.552 30.472C26.5382 31.0623 26.4793 31.6507 26.376 32.232L26.291 32.27C26.58 32.419 27.305 32.077 27.672 32.062C28.172 32.034 28.786 32.283 28.677 31.643C28.484 30.532 27.377 29.883 26.834 28.978C26.767 29.465 26.602 29.958 26.552 30.472Z" fill="#245984"/>
<path d="M86.0339 39.1581H86.2209C86.1624 39.1141 86.1013 39.0737 86.0379 39.0371C86.0399 39.0751 86.0339 39.1221 86.0339 39.1581Z" fill="#3A6E2A"/>
<path d="M104.825 45.7211L103.539 45.2771C100.094 44.2951 96.139 44.2891 92.507 44.0951C84.6012 43.5647 76.6924 45.0866 69.548 48.5131C62.01 52.1791 53.482 58.9261 50.734 67.3421C48.804 73.2421 47.361 80.0871 48.292 86.3421C49.28 92.9581 52.757 99.4991 52.687 106.2C56.359 105.382 59.203 100.925 63.035 99.6311C63.035 99.6311 65.978 101.592 69.785 98.2841C74.919 93.8171 80.103 88.6481 86.206 86.9401C92.97 85.0511 95.684 77.8551 99.259 75.6811C102.175 68.8491 98.459 67.4141 101.274 62.3261C104.825 55.9091 102.897 51.1681 104.825 45.7211Z" fill="#2A699E"/>
<path d="M69.789 98.285C71.581 96.727 73.378 95.085 75.217 93.529C75.359 91.017 75.793 88.488 76.175 85.942C76.619 82.984 77.265 79.458 76.075 76.593C75.556 75.333 72.39 72.957 72.39 72.957C71.325 76.085 71.21 82.333 70.42 85.538C69.663 88.626 68.949 91.738 68.448 94.872C68.2444 96.001 68.1032 97.1404 68.025 98.285C68.0038 98.6089 68.0145 98.9342 68.057 99.256C68.095 99.313 68.121 99.373 68.157 99.428C68.7395 99.1053 69.2865 98.7222 69.789 98.285Z" fill="#245984"/>
<path d="M72.5389 75.7421C72.4969 83.1891 72.2819 91.7001 70.2629 97.8631C71.5299 96.7581 72.8 95.6311 74.086 94.5141C74.373 92.3741 74.7339 90.2451 75.0509 88.0941C75.5549 84.7031 73.2429 78.6761 72.5389 75.7421Z" fill="#29475F"/>
<path d="M93.249 71.3711C92.5263 75.3819 92.0918 79.4393 91.949 83.5121C94.933 80.6811 96.913 77.1071 99.258 75.6791C102.174 68.8461 98.458 67.4121 101.273 62.3241C104.824 55.9061 102.892 51.1651 104.824 45.7181L103.538 45.2741C103.438 45.2481 103.328 45.2251 103.226 45.1931C101.088 46.4071 99.026 47.7351 97.006 49.1331C98.4527 49.2019 99.8803 49.4923 101.239 49.9941C101.569 50.1075 101.869 50.295 102.116 50.5423C102.362 50.7895 102.549 51.0899 102.661 51.4204C102.774 51.7509 102.809 52.1028 102.764 52.4491C102.72 52.7954 102.596 53.1268 102.404 53.4181C100.832 60.1931 94.735 64.5711 93.249 71.3711Z" fill="#245984"/>
<path d="M103.016 58.062C101.21 61.207 99.1819 64.217 97.1159 67.194C95.9729 71.461 94.7399 75.699 93.6919 79.986C95.5738 76.716 97.8366 73.6805 100.433 70.943C100.573 67.743 99.2659 65.957 101.272 62.328C102.024 60.9818 102.609 59.5493 103.016 58.062Z" fill="#29475F"/>
<path d="M52.2139 73.5541C52.0749 73.5711 51.9347 73.5755 51.7949 73.5671C51.4949 81.4091 51.3719 89.2591 51.1399 97.0991C52.0949 100.041 52.6161 103.107 52.6869 106.199C54.4959 105.63 56.1485 104.649 57.5149 103.334C57.4849 102.834 57.4549 102.334 57.4299 101.834C57.4035 99.4773 57.0625 97.1346 56.4159 94.8681C55.7739 93.0151 54.6029 91.2081 54.2589 89.2531C53.1089 82.7161 55.5429 77.4011 59.4189 72.6151C57.0659 73.0441 54.6589 73.2161 52.2139 73.5541Z" fill="#245984"/>
<path d="M78.573 90.875C79.905 89.9009 81.3136 89.0361 82.785 88.289C82.898 86.608 83.036 84.931 83.246 83.265C83.8654 79.4488 84.9009 75.7118 86.334 72.121C87.522 68.721 86.702 65.095 87.849 61.733C88.749 59.089 89.983 56.717 90.665 54.108C89.1057 55.0172 87.3415 55.5164 85.537 55.559C83.573 55.538 81.567 55.259 79.663 55.916C79.778 55.878 74.084 57.265 75.498 57.903C76.2519 58.0491 76.9942 58.2496 77.719 58.503C77.897 58.575 82.288 58.403 82.288 58.403C79.075 66.054 79.772 77.281 79.145 85.389C79.002 87.23 78.819 89.071 78.573 90.875Z" fill="#245984"/>
<path d="M78.573 90.8751C78.922 90.6241 79.266 90.3841 79.619 90.1481C79.793 86.8971 80.237 83.6791 80.597 80.4251C80.988 76.9251 81.133 73.4141 81.827 69.9541C83.019 64.0181 84.394 59.8271 89.097 55.8681C89.4355 55.5771 89.8535 55.3943 90.297 55.3431C90.433 54.9351 90.558 54.5271 90.667 54.1061C89.1077 55.0152 87.3434 55.5144 85.539 55.5571C83.575 55.5361 81.569 55.2571 79.665 55.9141C79.78 55.8761 74.086 57.2631 75.5 57.9011C76.2538 58.0471 76.9961 58.2476 77.721 58.5011C77.899 58.5731 82.29 58.4011 82.29 58.4011C79.077 66.0521 79.774 77.2791 79.147 85.3871C79.002 87.2301 78.819 89.0711 78.573 90.8751Z" fill="#29475F"/>
<path d="M65.622 80.9381C67.26 76.6201 66.774 72.3061 69.764 68.0381C70.446 67.0671 75.083 61.6961 75.27 60.5741C71.933 61.7881 62.226 68.2741 60.364 71.4001C60.7701 74.8754 60.9645 78.3722 60.946 81.8711C60.857 85.3901 60.37 88.8611 60.774 92.3821C61.074 94.9821 61.514 97.5821 61.828 100.171C62.1477 100.006 62.4762 99.8585 62.812 99.7291C62.612 96.9751 63.32 94.2951 63.764 91.5241C64.359 87.8681 64.285 84.4661 65.622 80.9381Z" fill="#245984"/>
<path d="M68.854 65.1061C68.882 64.9441 68.896 64.7721 68.926 64.6061C65.3994 65.8599 62.3882 68.2479 60.364 71.3961C60.7701 74.8714 60.9645 78.3682 60.946 81.8671C60.857 85.3861 60.37 88.8571 60.774 92.3781C61.074 94.9781 61.514 97.5781 61.828 100.167C62.113 100.025 62.402 99.8931 62.695 99.7781C62.436 93.2661 62.346 86.7461 62.584 80.2261C62.808 73.9981 65.728 70.1671 68.854 65.1061Z" fill="#29475F"/>
<path d="M51.817 67.8211C49.035 60.1981 37.642 53.3681 30.648 50.0931C23.654 46.8181 14.178 46.8271 6.59497 46.4531C4.73343 46.4563 2.88111 46.1916 1.09497 45.6671C1.09497 51.7671 1.30497 58.2821 4.15097 63.5001C5.32197 65.6441 6.57398 73.7901 9.03098 78.4251C10.691 81.5601 12.38 80.8481 15.024 81.9191C19.16 83.6001 21.224 89.4721 28.234 93.3251C30.734 94.7001 32.302 98.2111 37.506 99.9491C39.6631 100.535 41.9214 100.647 44.126 100.278C47.146 101.496 47.248 104.32 52.684 106.201C52.854 100.129 52.319 93.8901 52.319 87.4311C52.323 81.6011 53.787 73.2211 51.817 67.8211Z" fill="#4897D3"/>
<path d="M23.791 90.133C25.1431 91.3672 26.6353 92.4386 28.237 93.325C29.744 94.154 30.917 95.76 32.747 97.28C31.3678 94.0354 30.2313 90.6929 29.347 87.28C28.263 82.823 27.859 78.106 26.642 73.666C26.636 73.713 26.629 73.76 26.623 73.8C27.3083 76.3249 27.5189 78.9552 27.244 81.557C27.266 85.332 26.484 88.807 23.791 90.133Z" fill="#2B5B7D"/>
<path d="M52.1919 74.424C51.1399 73.5078 49.9293 72.7913 48.6199 72.3101C48.6369 72.4101 48.6539 72.51 48.6709 72.648C48.7179 72.803 48.7709 72.9581 48.8159 73.1071C48.9873 73.2499 49.1396 73.4142 49.2689 73.596C52.7689 78.526 51.3689 84.515 51.5689 90.153C51.7449 95.013 52.3789 99.8401 52.7099 104.689C52.7699 99.1021 52.3249 93.364 52.3249 87.437C52.3249 83.769 52.9009 79.0871 52.8349 74.7711C52.6038 74.6895 52.3869 74.5724 52.1919 74.424Z" fill="#3C7DAE"/>
<path d="M48.207 103.662C47.873 99.6281 47.3801 95.6051 47.2361 91.5481C47.1721 89.6971 47.3361 87.6821 47.4191 85.6651C46.278 82.349 45.4232 78.9412 44.8641 75.4791C43.9951 73.0311 43.232 70.2511 44.972 68.8791C45.4004 68.5342 45.8848 68.2653 46.4041 68.0841C46.0837 67.8783 45.7377 67.7153 45.375 67.5991C44.0735 68.3439 42.6523 68.8565 41.175 69.1141C43.6717 76.1253 44.8673 83.5335 44.703 90.9741C44.733 91.0441 44.7651 91.1121 44.7861 91.1801C45.0582 92.5307 45.0037 93.9268 44.6271 95.2521C44.6439 95.3671 44.6539 95.483 44.6571 95.5991C44.6739 97.2007 44.5767 98.8014 44.3661 100.389C46.0061 101.142 46.782 102.389 48.207 103.662Z" fill="#3C7DAE"/>
<path d="M1.79388 45.8761C1.56188 45.8121 1.33488 45.7461 1.09888 45.6681C1.09888 51.7681 1.30888 58.2831 4.15488 63.5011C5.32588 65.6451 6.57788 73.7911 9.03488 78.4261C9.30774 79.0801 9.72895 79.6617 10.2652 80.1249C10.8015 80.5881 11.4382 80.9203 12.1249 81.0951C9.64288 75.9371 5.13088 68.0361 7.85988 62.8271C6.42623 61.6403 5.10956 60.3189 3.92789 58.8811C3.92789 59.3441 2.81688 55.8271 2.60588 52.0381C2.51875 50.2955 2.56991 48.5487 2.75888 46.8141C2.41157 46.5289 2.08878 46.2152 1.79388 45.8761Z" fill="#3C7DAE"/>
<path d="M19.9739 86.15C20.0989 83.44 20.2949 80.72 20.3059 77.989C20.3339 71.794 17.6219 65.795 19.9149 59.789C19.4301 59.3189 18.9905 58.8043 18.6019 58.252C17.2549 57.478 16.0749 56.452 14.6809 55.827C14.6559 56.69 14.5809 57.553 14.4729 58.405C14.4789 58.505 14.4879 58.594 14.4989 58.692C15.6355 62.1695 16.4528 65.7433 16.9409 69.369C17.0262 69.5465 17.0877 69.7345 17.1239 69.928C17.2879 70.801 17.4559 71.66 17.6019 72.523C17.8004 72.8481 17.9146 73.2176 17.9339 73.598C18.2688 77.1636 18.3881 80.7461 18.2909 84.326C18.8439 84.888 19.3979 85.489 19.9739 86.15Z" fill="#3C7DAE"/>
<path d="M17.184 51.5821C15.233 51.2591 10.447 50.6411 10.011 50.6581C10.2472 54.1695 10.7767 57.6549 11.594 61.0781C12.572 64.6701 14.427 67.8381 15.594 71.3471C16.9113 75.5765 17.8188 79.9229 18.304 84.3261C18.638 84.6681 18.971 85.0341 19.318 85.4181C19.3075 78.3362 18.6258 71.2713 17.282 64.3181C16.426 60.3521 16.032 59.0581 15.716 56.5331C16.05 56.0681 17.522 51.6621 17.184 51.5821Z" fill="#4078B5"/>
<path d="M17.186 51.5821C15.235 51.2591 4.367 47.8371 3.927 47.8611C5.389 50.3671 9.172 52.2611 10.536 52.6451C14.036 53.8801 14.013 56.1981 14.661 58.9271C15.511 62.5271 16.31 66.1721 17.043 69.7891C18.2066 74.7831 18.8434 79.8853 18.943 85.0121C19.064 85.1481 19.19 85.2751 19.315 85.4181C19.3044 78.3362 18.6227 71.2713 17.279 64.3181C16.423 60.3521 16.104 58.9241 15.779 56.4061C16.119 55.9391 17.522 51.6591 17.186 51.5821Z" fill="#245984"/>
<path d="M49.7959 65.948C46.2189 66.048 35.1189 64.377 35.9629 66.639C38.4729 70.288 41.0849 75.682 42.7449 85.929C43.5289 90.749 43.5739 95.439 44.1349 100.278C44.3409 100.378 44.8979 100.663 45.0809 100.778C45.3359 98.207 45.6809 95.629 45.9009 93.008C46.5129 85.657 44.0729 77.426 43.4119 70.141C43.4069 70.141 48.6309 67.433 49.7959 65.948Z" fill="#4078B5"/>
<path d="M49.791 65.9481C46.214 66.0481 29.204 59.3661 25.821 60.5711L29.921 63.5101C33.585 64.9101 39.408 70.0221 39.389 70.1851C40.233 70.6991 43.35 77.9851 43.937 80.9601C45.155 87.1601 45.729 94.1891 44.585 100.499C44.753 100.586 44.914 100.68 45.072 100.777C45.327 98.2061 45.672 95.6281 45.892 93.0071C46.504 85.6561 44.064 77.4251 43.403 70.1401C43.407 70.1411 48.631 67.4341 49.791 65.9481Z" fill="#245984"/>
<path d="M83.996 66.8491C83.707 69.1741 84.829 80.9921 84.221 83.1851C86.421 83.1111 85.862 82.6011 88.059 82.3851C89.829 82.2171 93.769 73.0851 95.489 72.4261C97.209 71.7671 100.638 69.6761 101.699 68.1121C102.725 66.5991 102.647 65.3621 103.446 63.7171C104.26 62.0471 105.11 62.0641 106.232 60.5701C107.392 59.0291 105.116 53.6931 105.116 53.6931L96.462 56.8381C95.54 57.2271 94.585 57.5581 93.648 57.9301C93.142 58.1301 92.636 58.3361 92.128 58.5381C90.114 59.41 88.0536 60.1704 85.956 60.8161C85.8928 60.8322 85.8282 60.8422 85.763 60.8461C85.6169 60.9076 85.4558 60.9246 85.3 60.8951L85.117 60.9551C85.117 60.9551 85.172 63.3101 85.068 63.9111C84.882 64.9641 84.128 65.7501 83.996 66.8491Z" fill="#3073AA"/>
<path d="M88.4349 76.929C87.9204 78.7561 87.5328 80.6165 87.2749 82.497C87.4919 82.455 87.7449 82.421 88.0589 82.387C88.3112 82.3348 88.5418 82.2072 88.7199 82.021C89.6945 78.5767 91.0823 75.2629 92.8529 72.152C94.0629 69.7476 95.0989 67.2596 95.9529 64.707C96.3529 63.553 97.0409 62.901 95.0259 62.728C93.9739 62.641 92.9259 62.575 91.8719 62.541C93.2659 64.394 94.5239 65.801 93.2469 68.458C91.8609 71.321 89.2899 73.822 88.4349 76.929Z" fill="#4086CC"/>
<path d="M88.229 82.3481C90.076 81.6481 93.823 73.0611 95.489 72.4281C97.2 71.7781 100.638 69.6781 101.699 68.1141C102.725 66.6011 102.647 65.3641 103.446 63.7191C104.26 62.0491 105.11 62.0661 106.232 60.5721C107.392 59.0311 105.116 53.6951 105.116 53.6951C105.116 53.4311 99.446 55.7221 95.049 59.3201C94.118 60.3511 94.934 63.0901 94.949 63.3661C95.14 66.7921 94.492 68.5771 91.902 72.3581C89.9316 75.3643 88.6752 78.7815 88.229 82.3481Z" fill="#2E5A7A"/>
<path d="M88.229 82.3481C89.049 82.0381 90.248 80.1631 91.47 78.1291C90.556 74.6201 93.136 71.3291 95.312 68.4571C95.86 66.225 96.6253 64.052 97.597 61.9691C97.569 61.9501 97.542 61.9331 97.512 61.9091C97.306 61.7391 97.083 61.5901 96.864 61.4391C96.1167 61.3559 95.3603 61.4498 94.656 61.7131C94.75 62.5251 94.941 63.2321 94.956 63.3641C95.147 66.7901 94.499 68.5751 91.909 72.3561C89.9358 75.3623 88.677 78.7802 88.229 82.3481Z" fill="#245984"/>
<path d="M78.7788 93.3511C79.9288 92.5261 80.5468 87.2511 81.4398 83.5161C82.2238 80.2371 86.9288 75.6161 87.0398 72.2231L86.8808 72.3761C84.6808 70.5211 82.1908 72.5571 80.2648 73.3001C77.6648 74.3001 74.8308 73.4251 72.3828 72.9581C72.3813 75.2889 72.5518 77.6165 72.8928 79.9221C73.0928 82.2731 74.0258 92.2331 74.0868 94.5111C75.8168 95.1211 77.1318 94.5591 78.7788 93.3511Z" fill="#2E5A7A"/>
<path d="M79.125 80.601C80.481 77.211 84.217 76.162 86.712 73.781C86.8699 73.3335 86.9707 72.8678 87.012 72.395C84.7363 74.3922 81.9155 75.6636 78.912 76.046C78.9049 76.1227 78.8916 76.1986 78.872 76.273C77.102 82.266 76.702 88.387 76.553 94.573C77.1433 94.3763 77.7024 94.0957 78.213 93.74C78.213 91.024 78.374 88.31 78.545 85.59C78.639 84.036 78.539 82.072 79.125 80.601Z" fill="#245984"/>
<path d="M77.1468 94.3491C77.1508 86.9704 78.3147 79.6383 80.5958 72.6211C77.9109 73.3026 75.1135 73.417 72.3818 72.9571C72.3804 75.2878 72.5508 77.6155 72.8918 79.9211C73.0918 82.2721 74.0248 92.2321 74.0858 94.5111C74.5796 94.6969 75.1065 94.7784 75.6333 94.7505C76.1601 94.7226 76.6755 94.5859 77.1468 94.3491Z" fill="#3073AA"/>
<path d="M76.4899 94.596C76.7147 94.53 76.9343 94.4474 77.1469 94.349C77.1804 88.3713 77.9468 82.4202 79.4289 76.629C78.3301 76.7645 77.2149 76.6271 76.1819 76.229C77.8479 78.629 77.7079 81.006 77.2279 83.795C76.7166 87.3723 76.4699 90.9824 76.4899 94.596Z" fill="#4086CC"/>
<path d="M12.0068 68.885C12.2338 71.32 13.7708 74.653 14.8018 76.973C15.9727 79.5162 17.0075 82.1199 17.9018 84.773C18.1528 84.773 18.6898 85.022 18.9408 85.007C19.0304 82.2937 18.8869 79.5777 18.5118 76.889C17.4538 70.758 16.8758 68.503 16.1278 65.447C14.8508 66.295 13.4588 68.305 12.0068 68.885Z" fill="#2B5B7D"/>
<path d="M16.2388 65.8651C16.2028 65.7271 16.1688 65.591 16.1328 65.451C14.8518 66.295 13.4598 68.305 12.0078 68.885C12.2348 71.32 13.7718 74.6531 14.8028 76.9731C15.9737 79.5162 17.0085 82.1199 17.9028 84.773C17.9858 84.7768 18.0679 84.792 18.1468 84.8181C17.3468 81.4471 16.6188 78.075 15.6968 74.718C15.3458 73.441 14.7218 71.787 15.0358 70.425C15.3878 68.872 16.1278 67.4871 16.2388 65.8651Z" fill="#2A526F"/>
<path d="M6.354 66.9151C8.507 69.8481 11.036 72.6381 12.424 75.9361C13.555 78.6031 14.972 83.9201 17.907 84.7771C16.77 80.1891 14.498 74.1471 13.572 70.7611C13.074 68.9591 9.776 63.4381 6.354 66.9151Z" fill="#4078B5"/>
<path d="M6.35382 66.9151V66.9071L6.29883 66.9671C6.31915 66.952 6.33761 66.9345 6.35382 66.9151Z" fill="#4078B5"/>
<path d="M6.354 66.9151C6.401 66.9771 6.448 67.0401 6.494 67.0961C6.63874 67.0891 6.78322 67.1144 6.91701 67.1701C11.552 69.1971 13.344 71.7631 14.736 76.5081C15.4567 78.877 16.3708 81.1828 17.469 83.4021C17.543 83.5571 17.616 83.7231 17.684 83.9081C16.498 79.4521 14.439 73.941 13.572 70.762C13.074 68.959 9.776 63.4381 6.354 66.9151Z" fill="#4390DD"/>
<path d="M48.4539 99.2291C48.3309 94.6871 50.1309 89.4451 51.0849 85.2111C48.7429 85.2831 48.3579 82.306 47.6489 80.411C46.9599 78.568 46.5119 76.1391 45.9229 74.5691L45.6589 74.4351C46.3589 76.5411 46.4009 79.0851 47.0209 81.3611C47.263 82.3387 47.5718 83.2986 47.9449 84.2341C48.0603 84.6142 48.2406 84.9715 48.4779 85.2901C48.7669 85.6151 49.3979 85.645 49.5449 85.959C49.7939 86.486 49.1199 87.9101 48.9449 88.5161C48.6157 89.5578 48.4471 90.6436 48.4449 91.7361C48.4449 93.1071 48.5049 94.488 48.4449 95.855C48.3919 96.878 48.0219 98.2701 48.4539 99.2291Z" fill="#4078B5"/>
<path d="M25.421 66.6421C25.247 65.7581 25.0451 61.4351 24.7921 60.5751C24.0991 60.1221 22.7921 60.2141 22.0061 59.9461C21.5301 59.7871 19.753 59.5461 20.013 59.8181L19.8791 59.6881C20.1571 60.5251 19.8601 65.8881 19.8791 66.7541C20.4341 66.6541 21.4181 63.3281 22.0361 63.3831C22.2615 64.9267 22.2111 66.4981 21.8871 68.0241C23.5871 69.0141 22.9621 70.4981 22.7991 72.1451C22.6161 74.0371 23.913 72.9551 23.791 74.8451C23.691 76.4131 22.435 80.8271 22.643 82.3851C23.1711 83.7134 23.5559 85.0942 23.791 86.5041C23.785 86.6361 23.838 86.5491 23.933 86.3041C22.833 82.1831 24.1481 78.1041 25.3701 74.1041C25.3421 73.2961 25.3301 72.4831 25.3611 71.6601C25.3841 71.0801 25.404 70.4971 25.421 69.9281C25.07 67.8901 25.485 68.6961 25.421 66.6421Z" fill="#2B5B7D"/>
<path d="M86.2359 34.6571C80.5209 28.5131 72.9559 28.3981 68.2819 24.2921C65.9659 22.2541 55.4819 17.1661 52.6889 15.3151C46.3219 19.1341 41.6529 19.0701 38.8749 22.7721C36.1359 26.4251 30.6419 26.8521 26.8059 29.0651C27.0139 29.5921 27.5059 30.8401 27.7579 31.3901C22.8929 30.5481 16.8319 35.6901 12.1509 38.8071C8.06394 41.5231 0.950928 45.4671 0.950928 45.4671C6.30193 51.2991 10.8989 52.3141 16.3249 53.1181C16.7119 54.1341 15.2559 55.7111 15.9959 57.3771C18.2959 62.5261 35.3759 64.7341 39.4449 69.3861C40.4289 70.5101 45.5379 67.9351 45.5379 67.9351C45.5379 68.8641 43.4039 70.1411 43.4039 70.1411C48.4319 73.0411 50.8249 75.9731 52.9929 75.6561C55.1049 75.3481 60.8729 71.8751 62.7499 70.7131C66.4009 68.4451 67.5609 66.059 71.4759 64.582C76.2599 62.776 78.7819 62.6821 82.2849 58.4001C80.3767 58.0809 78.4502 57.8828 76.5169 57.8071C81.4959 55.5071 87.3599 57.1251 92.3479 54.1391C96.3049 51.7781 100.288 46.6031 104.823 45.7211C103.291 44.0891 99.2979 41.0651 89.3999 36.2851L83.2069 37.3851C84.2759 36.5438 85.2878 35.6325 86.2359 34.6571Z" fill="#97D3FF"/>
<path opacity="0.43" d="M29.4379 39.524C37.9738 37.8021 46.6261 36.7181 55.3229 36.281C65.1671 35.5627 75.0462 35.4528 84.9039 35.952C85.3715 35.5457 85.8162 35.1137 86.2359 34.6581C80.5209 28.5141 72.9559 28.399 68.2819 24.293C65.9659 22.255 55.4819 17.167 52.6889 15.316C46.3219 19.135 41.6529 19.071 38.8749 22.773C36.1359 26.426 30.6419 26.853 26.8059 29.066C27.0139 29.593 27.5059 30.841 27.7579 31.391C22.8929 30.549 16.8319 35.691 12.1509 38.808C8.06394 41.524 0.950928 45.468 0.950928 45.468C2.72411 47.4755 4.82615 49.1663 7.16693 50.468C7.46693 50.262 7.76694 50.0751 8.05994 49.8791C13.4519 43.9191 21.8019 41.186 29.4379 39.524Z" fill="#82C3F9"/>
<path opacity="0.52" d="M17.384 35.195C29.151 33.463 42.128 35.8641 53.23 37.3671C67.93 39.3581 84.757 41.6771 97.479 50.1331C99.81 48.1421 102.231 46.227 104.83 45.721C103.298 44.089 99.305 41.065 89.408 36.285L83.215 37.385C84.2829 36.544 85.2938 35.633 86.241 34.6581C80.526 28.5141 72.961 28.399 68.287 24.293C65.971 22.255 55.487 17.167 52.694 15.316C46.327 19.135 41.658 19.071 38.88 22.773C36.141 26.426 30.647 26.853 26.811 29.066C27.019 29.593 27.511 30.841 27.763 31.391C24.572 30.84 20.87 32.862 17.384 35.195Z" fill="#63A3EA"/>
<path d="M28.0538 63.207C26.9738 63.058 25.9028 62.89 24.8298 62.663C24.7148 62.663 24.5978 62.652 24.4858 62.644C25.8718 63.163 27.3268 63.664 28.7638 64.166L28.5278 64.03C28.3864 63.9433 28.269 63.8226 28.1862 63.6788C28.1034 63.5351 28.0579 63.3729 28.0538 63.207Z" fill="#476FE6"/>
<path d="M65.5449 67.6891C63.7189 69.4891 55.3969 74.2661 52.8889 74.7301C51.0289 75.0761 50.3559 72.9111 45.4509 70.4461C44.2989 69.8681 46.8339 67.5371 46.9999 66.9991C45.2348 67.2808 43.5124 67.7848 41.8739 68.4991C41.4165 68.6584 40.9306 68.7192 40.448 68.6775C39.9655 68.6358 39.4972 68.4925 39.0739 68.2571C34.8959 64.1361 23.6829 61.8471 20.7119 60.5721C19.0589 59.8641 16.6419 58.3641 16.4119 56.4791C16.2779 55.3481 16.8919 54.4071 17.2389 53.3381C17.7489 51.7781 15.1199 52.0951 14.3489 51.9381C11.4739 51.3171 3.8119 48.8441 0.9599 45.4651H0.951904C6.3029 51.2961 10.8999 52.3121 16.3259 53.1161C16.7129 54.1321 15.2569 55.7091 15.9969 57.3751C18.2969 62.5241 35.3769 64.7321 39.4459 69.3841C40.4299 70.5081 45.5389 67.9331 45.5389 67.9331C45.5389 68.8621 43.4049 70.1391 43.4049 70.1391C48.4329 73.0391 50.8259 75.9701 52.9939 75.6541C55.1059 75.3461 60.8739 71.8731 62.7509 70.7111C66.4019 68.4431 67.5619 66.0571 71.4769 64.5801C76.2609 62.7741 78.7829 62.6801 82.2859 58.3981C80.3777 58.0789 78.4512 57.8808 76.5179 57.8051C81.4969 55.5051 87.3609 57.1231 92.3489 54.1371C95.5199 52.2481 98.7079 48.5521 102.186 46.7031C99.7339 47.2581 97.5059 49.4641 95.4729 50.9171C92.5619 52.9851 90.2409 54.8021 86.6019 55.2991C84.3169 55.6091 78.0519 56.3451 76.9849 56.9991C76.0239 57.5921 75.1639 58.0761 76.2349 58.1641C77.9047 58.3006 79.5611 58.5681 81.1889 58.9641C76.3239 63.2481 71.0889 63.0171 69.6299 63.9281C68.1341 65.0277 66.7641 66.289 65.5449 67.6891Z" fill="#D7F7FF"/>
<path d="M101.242 66.0181C101.059 66.6901 101.395 68.0581 101.191 68.7301C101.378 68.5398 101.548 68.3337 101.699 68.1141C102.725 66.6011 102.647 65.3641 103.446 63.7191C104.26 62.0491 105.11 62.0661 106.232 60.5721C107.392 59.0311 105.116 53.6951 105.116 53.6951C105.116 53.6481 104.925 53.6951 104.616 53.7951C104.114 55.0447 103.35 56.1724 102.376 57.1021C102.983 58.1821 103.405 59.3559 103.626 60.5751C102.691 62.9751 101.816 64.3241 101.242 66.0181Z" fill="#245984"/>
<path d="M96.832 70.0421C98.626 66.5031 100.443 63.0031 101.242 59.0891C99.465 59.5251 96.842 58.7831 95.017 59.0891C94.417 59.7841 97.922 60.4721 98.194 61.2271C98.194 61.2271 97.994 62.9151 97.903 63.4881C97.534 65.6771 97.206 67.8591 96.832 70.0421Z" fill="#29475F"/>
<path d="M96.226 59.588C96.626 59.38 100.891 59.6071 101.341 59.3971C104.295 58.0471 104.384 56.4601 105.115 55.1971C106.173 53.3801 103.897 52.6321 100.964 52.9061C97.621 56.7511 90.402 59.32 85.116 60.956C86.701 62.571 89.351 61.256 90.663 62.176C91.9287 63.0193 93.4307 63.4362 94.95 63.366C96.0788 62.728 97.1624 62.013 98.193 61.2261C98.648 60.8181 95.466 59.977 96.226 59.588Z" fill="#57A9D5"/>
<path d="M94.948 62.876C93.998 62.997 91.648 61.728 90.661 61.614C88.833 61.406 89.461 61.761 87.624 61.414C87.014 61.295 86.141 60.889 85.539 60.825C85.399 60.867 85.252 60.914 85.114 60.955C86.699 62.57 89.349 61.255 90.661 62.175C91.9267 63.0183 93.4287 63.4352 94.948 63.365C96.0768 62.727 97.1604 62.0119 98.191 61.225C98.642 60.817 95.462 59.975 96.223 59.587C96.623 59.379 100.888 59.606 101.338 59.396C102.137 59.0933 102.859 58.6191 103.455 58.007C104.05 57.3949 104.504 56.6596 104.785 55.853C103.546 57.753 102.092 59.013 97.67 58.453H97.649C96.7662 58.5946 95.8999 58.8244 95.063 59.139C95.0252 59.1491 94.9868 59.1568 94.948 59.162C95.426 59.625 95.8 60.333 96.478 60.562C98.358 61.199 95.648 62.788 94.948 62.876Z" fill="#75C5F2"/>
<path d="M80.4388 76.772C81.8098 76.22 86.3918 73.929 86.9718 72.596C87.7858 70.728 81.3718 69.946 79.8798 70.511C79.8798 70.511 77.7798 71.659 76.7468 72.103C75.3998 72.7888 73.888 73.0846 72.3818 72.957C72.5368 73.4374 72.7695 73.8891 73.0708 74.294C74.6048 76.065 78.3178 77.624 80.4388 76.772Z" fill="#57A9D5"/>
<path d="M80.4388 76.7691C82.6306 75.8648 84.6822 74.6526 86.5318 73.1691C82.6068 76.1691 76.0318 77.0841 72.8418 73.0101C72.6877 73.001 72.5344 72.982 72.3828 72.9531C72.5377 73.4335 72.7705 73.8852 73.0718 74.2901C74.6048 76.0641 78.3178 77.6241 80.4388 76.7691Z" fill="#75C5F2"/>
<path d="M8.00784 67.61C10.0178 68.09 11.9078 69.58 13.5718 70.762C14.6958 69.313 16.1328 67.602 16.1328 65.451C14.5749 64.9313 13.1888 63.9952 12.1248 62.744C8.97884 64.122 3.50684 66.961 8.00784 67.61Z" fill="#69B8ED"/>
<path d="M12.8359 69.5481C11.1966 68.3871 9.33271 67.5815 7.36386 67.183C6.29886 66.962 6.46387 66.5601 6.37387 66.3761C6.11887 66.9391 6.51186 67.3981 8.00786 67.6111C10.0179 68.0911 11.9079 69.5811 13.5719 70.7631C14.6639 69.3521 16.0559 67.6861 16.1219 65.6071C15.7635 66.6491 15.2735 67.6411 14.6639 68.5591C14.3509 69.1041 13.3179 69.9771 12.8359 69.5481Z" fill="#ABEDFF"/>
<path d="M35.5748 73.669C34.8275 74.4349 34.232 75.3355 33.8198 76.323C32.6358 78.965 32.0368 80.884 32.6978 83.908C33.5928 87.4998 34.6881 91.0387 35.9788 94.508C36.7988 96.918 38.0038 101.434 40.1948 102.973C41.1798 102.181 42.1066 101.318 42.9678 100.393C41.5906 95.943 40.7138 91.3533 40.3538 86.709C39.8988 82.189 39.1428 77.494 38.7938 73.033C38.2466 72.8635 37.6659 72.8328 37.1039 72.9439C36.5419 73.0549 36.0164 73.3041 35.5748 73.669Z" fill="#2B5B7D"/>
<path d="M38.8488 73.582C38.8318 73.401 38.8108 73.216 38.7958 73.036C38.2487 72.8659 37.6679 72.8347 37.1057 72.9452C36.5436 73.0557 36.0178 73.3044 35.5758 73.669C34.8285 74.4349 34.233 75.3355 33.8208 76.323C32.6368 78.965 32.0378 80.884 32.6988 83.908C33.5937 87.4998 34.6891 91.0387 35.9798 94.508C36.7998 96.918 38.0048 101.434 40.1958 102.973C40.9438 102.289 41.8578 101.583 42.5848 100.814C39.7368 98.634 39.5568 94.619 38.2848 91.085C37.1212 88.2394 36.495 85.2028 36.4378 82.129C36.4798 79.111 37.8378 76.884 38.6628 74.043C38.7081 73.8832 38.7705 73.7286 38.8488 73.582Z" fill="#2A526F"/>
<path d="M33.767 75.285C32.488 74.509 30.5009 74.161 29.0849 73.255C27.8479 72.462 22.04 69.882 20.554 70.042C20.796 74.394 24.877 79.775 26.711 84.427C28.694 89.445 30.2389 92.692 31.6239 97.86C32.1129 99.681 35.9079 99.318 37.6889 102.795L40.1889 102.976C40.1889 102.976 39.656 99.55 39.265 98.184C38.774 96.467 36.026 86.234 35.323 82.904C34.872 80.746 35.735 76.481 33.767 75.285Z" fill="#4078B5"/>
<path d="M34.8359 76.8931C33.7538 77.1787 32.633 77.2898 31.5159 77.2221C34.9309 80.3551 35.7069 85.9221 36.4889 90.3221C37.2649 94.6791 38.9559 98.7221 39.9379 102.956L40.1949 102.975C40.1949 102.975 39.6619 99.5491 39.2709 98.1831C38.7799 96.4661 36.0319 86.2331 35.3289 82.9031C34.9989 81.3531 35.3479 78.7011 34.8359 76.8931Z" fill="#4390DD"/>
<path d="M20.9159 69.053C19.3159 70.5 23.4679 75.377 25.8159 76.57C28.4787 77.7301 31.4081 78.1396 34.2869 77.754C36.7499 77.476 38.9049 72.838 38.9049 72.838C37.4559 71.871 34.2929 71.478 32.0389 69.984C29.1099 68.035 25.5019 66.031 25.5019 66.031C23.8589 67.587 22.4609 67.648 20.9159 69.053Z" fill="#69B8ED"/>
<path d="M20.9159 69.053C19.3159 70.5 23.4679 75.377 25.8159 76.57C28.4787 77.7302 31.4081 78.1396 34.2869 77.754C36.2359 77.533 37.9869 74.581 38.6369 73.359C35.3789 77.352 32.4139 77.867 26.3089 75.682C24.4809 75.027 20.3009 72.305 21.3489 68.692C21.2109 68.811 21.0669 68.919 20.9159 69.053Z" fill="#ABEDFF"/>
<path d="M65.386 24.8201C65.4682 24.7686 65.5601 24.7346 65.656 24.7201C65.5813 24.5104 65.491 24.3065 65.386 24.1101V24.8201Z" fill="#30B850"/>
<path opacity="0.44" d="M84.557 39.787C79.144 38.369 76.796 38.435 71.43 39.237C67.902 39.758 61.646 38.871 53.011 38.461C50.4829 38.2746 47.9554 38.8307 45.739 40.061C43.831 41.217 42.509 41.119 41.019 42.97C39.878 44.396 36.086 43.331 35.5 45.191C39.825 48.666 45.8 48.891 49.964 48.6C50.918 48.543 60.939 47.892 57.964 46.33C56.764 45.699 53.308 44.93 53.51 44.757C55.163 43.35 62.871 45.038 65.11 45.82C71.868 48.19 78.76 47.261 89.129 48.666C93.974 49.327 97.409 46.551 97.779 45.631C97.177 42.269 87.403 40.537 84.557 39.787Z" fill="#5288D8"/>
<path opacity="0.44" d="M27.929 43.302C26.811 43.011 21.959 43.155 18.187 43.119C18.057 43.134 17.928 43.149 17.787 43.155C17.213 43.174 16.646 43.174 16.072 43.183C14.3818 43.4327 12.6721 43.5238 10.965 43.455C10.3075 43.3779 9.6591 43.2369 9.02896 43.034C8.76096 43.025 8.50196 43.011 8.23796 43.006C7.06296 42.968 2.78297 43.057 4.20897 45.539C5.6487 46.7631 7.39821 47.5662 9.26497 47.86C16.397 48.266 16.871 46.049 19.313 45.828C22.324 45.55 23.753 46.412 26.787 46.291C28.3029 46.1066 29.8272 45.9988 31.354 45.968C32.174 46.019 35.447 46.656 33.93 44.984C33.247 44.216 28.849 43.54 27.929 43.302Z" fill="#5288D8"/>
<path d="M20.7859 27.596H21.0199C21.0165 27.5701 21.0115 27.5444 21.0049 27.519C20.9269 27.642 20.8509 27.564 20.7859 27.596Z" fill="#58A5DA"/>
<path d="M26.2468 39.632C25.9468 39.315 25.4578 39.271 25.1418 38.954C24.6678 38.474 24.8058 38.423 24.9828 37.732C25.0738 37.366 25.2098 36.99 25.2968 36.625C25.4732 35.8121 25.7849 35.0346 26.2188 34.325C25.8358 34.18 24.9648 34.159 24.6698 33.904C24.4468 33.704 24.4018 33.004 24.3598 32.691C24.1347 31.6963 24.1856 30.6589 24.5068 29.691C23.4508 29.07 21.9248 28.548 21.0978 27.6H21.0168C21.2418 28.439 20.6168 29.527 20.2628 30.305C19.6978 31.544 18.4078 33.199 18.2988 34.545C18.3199 35.2322 18.3951 35.9166 18.5238 36.592C18.5779 37.5724 18.7348 38.5443 18.9918 39.492C19.4438 40.7698 19.9653 42.022 20.5538 43.243C20.8298 43.843 21.3298 44.59 21.1808 45.224C23.537 45.0463 25.833 44.3942 27.9308 43.307C27.5148 42.501 27.2188 41.615 26.8308 40.769C26.6985 40.3611 26.5013 39.9771 26.2468 39.632Z" fill="#5AA6DB"/>
<path d="M24.4469 42.767C23.2379 41.528 23.3988 39.719 23.8118 38.174C24.2713 36.9135 24.9004 35.7215 25.6819 34.631C25.6819 34.631 23.2529 35.753 22.6299 34.82C21.4189 33.014 21.5699 30.803 22.2939 28.74C22.3149 28.678 22.3408 28.625 22.3678 28.564C21.893 28.3143 21.4634 27.9867 21.0968 27.595H21.0159C21.2409 28.434 20.6159 29.522 20.2619 30.3C19.6969 31.539 18.4069 33.194 18.2979 34.54C18.3189 35.2272 18.3941 35.9116 18.5228 36.587C18.5769 37.5674 18.7338 38.5393 18.9908 39.487C19.4428 40.7648 19.9643 42.017 20.5528 43.238C20.8288 43.838 21.3289 44.585 21.1799 45.219C23.2695 45.0446 25.3148 44.5192 27.2298 43.665C26.728 43.7776 26.2052 43.7537 25.7158 43.5958C25.2264 43.4379 24.7882 43.1517 24.4469 42.767Z" fill="#418BBB"/>
<path d="M21.4069 35.63C20.8741 34.9849 20.5978 34.1661 20.6309 33.33C20.6819 32.269 20.7179 31.205 20.7729 30.159C20.9516 29.2716 21.0808 28.3748 21.1599 27.473C20.1679 27.601 19.1299 27.862 18.1289 28.079C17.4679 28.224 16.7879 28.257 16.1379 28.419C15.6699 28.532 15.6149 28.619 15.4899 29.119C15.2139 30.241 15.0609 31.35 14.8229 32.485C14.4909 34.123 14.0129 35.737 13.6989 37.385C13.347 39.121 12.7404 40.7954 11.8989 42.354C12.4863 42.7463 13.1457 43.0182 13.8389 43.154C14.4992 43.3906 15.1718 43.5909 15.8539 43.754C17.6049 44.12 19.7009 44.262 21.2599 45.201C21.4829 44.3305 21.6169 43.4396 21.6599 42.542C21.8489 41.056 21.9189 39.507 22.2599 38.047C22.4272 37.6684 22.4696 37.2464 22.3809 36.842C22.1939 36.396 21.6799 36.021 21.4069 35.63Z" fill="#62C0EF"/>
<path d="M14.8639 41.7411C13.3869 39.8901 14.1579 38.0861 14.5199 35.8481C14.9049 33.4631 15.1959 31.0641 15.6399 28.6951C15.5712 28.83 15.5211 28.9737 15.4909 29.1221C15.2149 30.2441 15.0619 31.3531 14.8239 32.4881C14.4919 34.1261 14.0139 35.7391 13.6999 37.3881C13.348 39.124 12.7414 40.7985 11.8999 42.3571C12.4873 42.7494 13.1467 43.0213 13.8399 43.1571C14.5001 43.3937 15.1728 43.594 15.8549 43.7571C16.8089 43.9571 17.8649 44.0931 18.8809 44.3241C17.5709 43.6001 15.7099 42.7951 14.8639 41.7411Z" fill="#42ADE8"/>
<path d="M21.4078 35.63C20.875 34.9849 20.5987 34.1661 20.6318 33.33C20.6828 32.269 20.7188 31.205 20.7738 30.159C20.9525 29.2716 21.0817 28.3748 21.1608 27.473C20.1688 27.601 19.1308 27.862 18.1298 28.079C17.4688 28.224 16.7888 28.257 16.1388 28.419C15.6928 28.525 15.6228 28.612 15.5078 29.057C15.9608 28.957 19.3628 28.39 19.8498 28.362C21.6798 28.262 19.9368 32.627 20.1178 34.285C20.3348 36.346 21.3378 35.926 21.3628 38.061C21.3904 40.1154 21.0518 42.1584 20.3628 44.094C20.287 44.2911 20.1922 44.4803 20.0798 44.659C20.4865 44.8043 20.8797 44.985 21.2548 45.199C21.4778 44.3285 21.6118 43.4376 21.6548 42.54C21.8438 41.054 21.9138 39.505 22.2548 38.045C22.4222 37.6664 22.4645 37.2443 22.3758 36.84C22.1928 36.396 21.6838 36.021 21.4078 35.63Z" fill="#E1F8FF"/>
<path d="M13.3349 39.7901C10.4039 39.4541 8.10885 39.4371 7.76485 40.1021C7.15085 41.2841 4.17285 42.8021 4.55585 44.1021C4.79585 44.9311 7.16185 46.8561 7.16185 46.8561C9.63338 47.1338 12.1299 47.1033 14.5938 46.765C15.7348 46.378 17.2699 45.972 17.3799 45.394C16.6309 43.03 16.1759 40.1191 13.3349 39.7901Z" fill="#B4E7FC"/>
<path d="M11.616 41.422C10.206 41.5106 8.81022 41.0972 7.67597 40.255C6.90697 41.415 4.19497 42.855 4.55997 44.104C4.79997 44.933 7.16597 46.858 7.16597 46.858C9.63751 47.1358 12.134 47.1052 14.598 46.767C15.739 46.38 17.274 45.974 17.384 45.396C16.884 43.826 16.515 42.019 15.493 40.88C14.1845 40.9157 12.8841 41.0975 11.616 41.422Z" fill="#EEFBFF"/>
<path d="M14.8399 40.963C13.6231 41.5088 12.3652 41.9578 11.0779 42.306C11.0636 42.305 11.0493 42.307 11.0359 42.312C11.466 43.259 11.9675 44.172 12.5359 45.043C12.8649 45.676 13.2029 46.305 13.5199 46.943C13.8825 46.923 14.2421 46.8653 14.5929 46.771C15.7339 46.384 17.2689 45.978 17.3789 45.4C16.8649 43.772 16.4909 41.887 15.3789 40.754C15.1969 40.822 15.0189 40.888 14.8399 40.963Z" fill="#359BC9"/>
<path d="M15.3949 40.778L15.3759 40.75C15.1969 40.822 15.0189 40.888 14.8399 40.963C13.6231 41.5087 12.3652 41.9578 11.0779 42.306C11.0636 42.305 11.0493 42.307 11.0359 42.312C11.466 43.259 11.9675 44.172 12.5359 45.043C12.8649 45.676 13.2029 46.305 13.5199 46.943C13.8825 46.923 14.2421 46.8653 14.5929 46.771C14.7759 46.709 14.9649 46.648 15.1539 46.586C14.7183 46.0238 14.3871 45.3881 14.1759 44.709C13.9889 44.1075 13.9608 43.4679 14.0941 42.8524C14.2275 42.2368 14.5178 41.6662 14.9369 41.196C15.0724 41.039 15.2261 40.8986 15.3949 40.778Z" fill="#0D70BA"/>
<path d="M11.4899 42.1801C11.2212 42.1721 10.9536 42.1416 10.6899 42.0891C10.0911 41.9973 9.51634 41.7876 8.99901 41.4723C8.48167 41.157 8.03197 40.7423 7.6759 40.2521C6.9129 41.4081 4.19491 42.8601 4.55991 44.1051C4.79991 44.9341 7.16591 46.8591 7.16591 46.8591C9.63744 47.1369 12.1339 47.1063 14.5979 46.7681C14.6489 46.7471 14.6979 46.7321 14.7489 46.7151C14.5109 46.4151 14.2809 46.1151 14.0729 45.7911C13.2539 44.5361 12.3469 43.3761 11.4899 42.1801Z" fill="#7CAEF7"/>
<path opacity="0.54" d="M6.58975 41.529C6.64075 41.48 6.67476 41.455 6.71976 41.414C6.77976 41.331 6.85975 41.229 6.95575 41.114C7.06175 40.98 7.17676 40.851 7.29576 40.725C7.43376 40.583 7.56976 40.444 7.70976 40.298C7.69605 40.2825 7.68335 40.2662 7.67175 40.249C6.90875 41.405 4.19076 42.857 4.55576 44.102C4.79576 44.931 7.16176 46.856 7.16176 46.856C7.61025 46.9512 8.06728 47.0005 8.52576 47.003C7.81775 46.7902 7.17309 46.4062 6.64876 45.885C6.35834 45.6032 6.12639 45.2668 5.9662 44.8952C5.80601 44.5235 5.72074 44.1239 5.71526 43.7193C5.70977 43.3146 5.7842 42.9128 5.93427 42.537C6.08433 42.1612 6.30707 41.8186 6.58975 41.529Z" fill="#3691CE"/>
<path d="M11.4898 42.1801C11.3258 42.1721 11.1608 42.1591 10.9988 42.1381C10.7838 43.6811 10.8988 45.0161 9.62579 46.2121C9.28397 46.5219 8.90509 46.7883 8.4978 47.0051C10.5339 47.1382 12.5783 47.0585 14.5978 46.7671C14.6488 46.7461 14.6978 46.7311 14.7488 46.7141C14.5108 46.4141 14.2818 46.1141 14.0728 45.7901C13.2538 44.5371 12.3468 43.3771 11.4898 42.1801Z" fill="#47A7DD"/>
<path d="M14.0689 45.7821V45.7881C13.4229 44.7981 13.9299 45.5691 14.0689 45.7821Z" fill="#52A1D4"/>
<path d="M14.0678 45.7831C13.6598 45.1621 13.2308 44.5591 12.7988 43.9661C12.5588 43.6411 12.3188 43.3201 12.0828 42.9951C11.9428 42.8061 11.6298 42.1871 11.4048 42.1731C11.4328 42.2261 13.9508 45.5241 13.3048 46.5571C12.8778 47.2411 8.8848 46.7971 8.4978 47.0051C9.6668 47.0561 10.8458 47.0601 12.0148 47.0241C12.9346 47.0504 13.8534 46.946 14.7438 46.7141C14.5058 46.4141 14.2768 46.1081 14.0678 45.7901C14.1148 45.8511 14.0998 45.8341 14.0678 45.7831Z" fill="#2F88AF"/>
<path d="M14.0679 45.781C14.0999 45.832 14.1149 45.849 14.0679 45.787V45.781Z" fill="#52A1D4"/>
<path d="M59.8611 26.7191C58.6011 26.3071 55.7041 27.6501 54.1441 27.8261C52.6951 33.0431 53.7131 39.1381 51.6001 44.0261C54.9731 47.6981 54.7331 44.8651 56.9411 41.8411C58.7221 39.3931 62.0711 34.0181 64.2281 31.9481C63.6671 30.0901 60.3861 26.8961 59.8611 26.7191Z" fill="#428FD4"/>
<path d="M51.6021 44.0311C52.1532 44.7447 52.8634 45.3197 53.6761 45.7101C54.2601 44.5201 54.8341 43.3191 55.4211 42.1291C56.6711 39.5791 57.3971 36.7591 58.7021 34.2451C57.1907 32.8569 55.4405 31.7538 53.5361 30.9891C52.9731 35.3991 53.3021 40.0981 51.6021 44.0311Z" fill="#247DC5"/>
<path d="M59.744 30.9432C59.5749 30.9269 59.4113 30.8747 59.264 30.7902C57.173 35.6142 55.284 40.5512 52.782 45.1752C54.954 46.9302 55.031 44.4632 56.941 41.8472C58.722 39.3992 62.071 34.0242 64.228 31.9542C64.1342 31.6554 64.0042 31.3693 63.841 31.1022C62.4734 31.1866 61.1009 31.1333 59.744 30.9432Z" fill="#206EC1"/>
<path d="M59.744 30.9432C59.5749 30.9269 59.4113 30.8747 59.264 30.7902C57.358 35.1902 55.617 39.6802 53.428 43.9452C53.893 43.2632 54.386 42.5952 54.846 41.9452C55.668 40.7662 58.788 33.2982 59.346 33.0192C60.8635 32.3256 62.5167 31.9799 64.185 32.0072C64.2 31.9922 64.215 31.9732 64.232 31.9582C64.1382 31.6594 64.0082 31.3733 63.845 31.1062C62.476 31.1895 61.1021 31.1349 59.744 30.9432Z" fill="#116BBC"/>
<path d="M59.8612 26.7191C58.6012 26.3071 55.7042 27.6501 54.1442 27.8261C54.1292 27.8831 54.1122 27.9411 54.0952 27.9961C55.6362 29.3521 58.2072 31.6431 59.2122 31.8851C60.8122 32.2571 62.4702 31.7851 64.0872 31.5851C63.0394 29.6819 61.5988 28.0233 59.8612 26.7191Z" fill="#475CD4"/>
<path d="M54.1442 27.826C54.1292 27.883 54.1122 27.941 54.0952 27.996C55.4747 29.2804 56.9426 30.4663 58.4882 31.5451C58.7962 29.9061 59.2882 28.306 59.6142 26.666C58.2522 26.464 55.6082 27.663 54.1442 27.826Z" fill="#6B7BD4"/>
<path d="M54.0952 27.9961C54.9222 28.7231 56.0442 29.7221 57.0602 30.5211C56.8776 30.0735 56.6578 29.642 56.4032 29.2311C56.0592 28.7081 55.2362 28.3981 55.6362 28.0001C56.3884 27.5582 57.2084 27.2436 58.0632 27.0691C58.3948 26.9688 58.7132 26.8288 59.0112 26.6521C57.5772 26.7651 55.4112 27.6811 54.1442 27.8251C54.1292 27.8841 54.1122 27.9411 54.0952 27.9961Z" fill="#588BD4"/>
<path opacity="0.64" d="M54.0952 27.9961C55.6362 29.3521 58.2072 31.6431 59.2122 31.8851C60.1832 32.0689 61.1802 32.0689 62.1512 31.8851C58.5422 31.8211 54.2512 27.8171 54.1432 27.8301C54.1292 27.8831 54.1122 27.9411 54.0952 27.9961Z" fill="#70ABD4"/>
<path d="M49.448 0.539086C46.371 0.550086 40.964 5.63909 37.657 7.18209C38.297 19.7551 45.027 32.4461 43.967 44.7981C54.113 50.4111 51.499 44.3351 54.138 36.0341C56.27 29.3341 59.71 15.0241 62.938 8.86309C60.32 5.16809 50.742 0.527086 49.448 0.539086Z" fill="#88C7FF"/>
<path d="M43.967 44.7991C46.734 46.3271 48.551 46.984 49.786 46.969C50.186 43.915 50.57 40.8491 50.986 37.7951C51.87 31.2541 51.407 24.4951 52.429 17.9801C48.072 16.0341 43.3993 14.8915 38.636 14.6071C40.645 24.7261 44.817 34.8751 43.967 44.7991Z" fill="#2DA0E0"/>
<path d="M61.4591 7.26514C58.5046 8.46277 55.4362 9.35769 52.3011 9.93614C51.9153 10.0168 51.5175 10.0212 51.1301 9.94913C50.0761 22.1241 49.5301 34.3991 47.4131 46.4491C53.4951 48.7211 51.8531 43.2191 54.1371 36.0331C56.2691 29.3331 59.7091 15.0231 62.9371 8.86214C62.505 8.27674 62.0093 7.74113 61.4591 7.26514Z" fill="#2D86E0"/>
<path d="M61.4611 7.26514C58.5066 8.46277 55.4382 9.35769 52.3031 9.93614C51.9174 10.0168 51.5196 10.0212 51.1321 9.94913C50.1671 21.0491 49.6321 32.2361 47.9321 43.2491C48.4611 41.4021 49.0541 39.5751 49.5791 37.7941C50.5311 34.5791 51.9171 15.8151 52.9391 14.7991C55.7753 12.1517 59.1678 10.1724 62.8681 9.00613C62.8871 8.95513 62.9131 8.90614 62.9321 8.86414C62.5024 8.27841 62.009 7.74214 61.4611 7.26514Z" fill="#0B7BCE"/>
<path d="M49.448 0.539089C46.371 0.550089 40.964 5.63909 37.657 7.18209C37.665 7.31609 37.676 7.4561 37.687 7.5991C42.071 9.4501 49.427 12.6141 51.832 12.3911C55.621 12.0491 58.932 9.77909 62.367 8.16009C59.158 4.60209 50.663 0.527089 49.448 0.539089Z" fill="#94A4FF"/>
<path d="M37.657 7.18211C37.665 7.31611 37.676 7.45611 37.687 7.59911C41.238 9.09911 46.74 11.4631 49.981 12.1891C49.448 8.3401 49.346 4.45111 48.865 0.589111C45.726 1.15411 40.766 5.73911 37.657 7.18211Z" fill="#DEE3FF"/>
<path d="M37.687 7.59906C40.033 8.58906 43.24 9.95805 46.079 10.9841C45.3423 10.134 44.5398 9.34322 43.679 8.61906C42.536 7.71006 40.493 7.63307 41.079 6.47307C41.685 5.25507 44.709 3.34307 45.748 2.62607C46.4032 2.16055 47.0011 1.61911 47.529 1.01306C44.443 2.31306 40.354 5.92907 37.655 7.18207C37.665 7.31607 37.676 7.45706 37.687 7.59906Z" fill="#B6D4FF"/>
<path opacity="0.64" d="M37.657 7.18311C37.665 7.31711 37.676 7.4571 37.687 7.6001C42.071 9.4511 49.427 12.6151 51.832 12.3921C54.1049 12.0912 56.2993 11.3583 58.297 10.2331C50.298 12.7531 37.884 7.07711 37.657 7.18311Z" fill="#E9F6FF"/>
<path d="M45.048 14.0001C42.048 11.8491 33.44 10.8441 32.448 11.1901C30.083 12.0251 27.288 17.3901 25.156 19.4551C29.003 28.9551 37.571 36.9241 40.056 46.7041C49.362 48.3131 45.726 44.3391 45.537 37.2511C45.388 31.5241 44.215 19.6001 45.048 14.0001Z" fill="#88C7FF"/>
<path d="M40.49 43.8421C38.858 42.1501 38.263 39.5791 36.979 37.6421C35.287 35.0791 33.279 32.7601 31.364 30.3671C34.894 35.6421 38.564 40.8461 40.05 46.7031C41.417 46.9912 42.8162 47.0971 44.211 47.0181C43.346 45.6121 41.633 45.0251 40.49 43.8421Z" fill="#DEE3FF"/>
<path d="M45.0481 14.0001C44.5575 13.6645 44.0326 13.3822 43.4821 13.1581C41.5339 14.8713 39.4143 16.3792 37.1571 17.6581C36.8801 17.8219 36.5748 17.9322 36.2571 17.9831C38.6971 27.6341 41.5571 37.2221 43.1451 47.0511C48.4371 47.1811 45.7021 43.3831 45.5361 37.2511C45.3881 31.5241 44.2151 19.6001 45.0481 14.0001Z" fill="#7CAEF7"/>
<path d="M37.1571 17.6611C36.8801 17.8249 36.5748 17.9352 36.2571 17.9861C38.4821 26.7861 41.0511 35.5271 42.6921 44.4601C42.6051 42.8921 42.5711 41.3321 42.5051 39.8161C42.3751 37.0941 38.4291 22.2851 38.9471 21.2311C40.4197 18.436 42.4996 16.0062 45.0341 14.1201C45.0341 14.0841 45.0421 14.0371 45.0491 13.9991C44.5585 13.6635 44.0336 13.3812 43.4831 13.1571C41.5347 14.8717 39.4149 16.3811 37.1571 17.6611Z" fill="#699CE8"/>
<path d="M32.4461 11.19C30.0811 12.025 27.2861 17.39 25.1541 19.455C25.1971 19.555 25.2411 19.663 25.2821 19.765C29.1481 20.018 35.6551 20.488 37.4491 19.678C40.2691 18.401 42.2141 15.77 44.4201 13.608C41.0001 11.731 33.3761 10.865 32.4461 11.19Z" fill="#C8CEFC"/>
<path d="M25.1541 19.455C25.1971 19.555 25.2411 19.663 25.2821 19.765C28.8335 20.0993 32.4041 20.1808 35.9671 20.009C34.5351 17.193 33.4121 14.233 32.0141 11.391C29.7511 12.663 27.1581 17.51 25.1541 19.455Z" fill="#DEE3FF"/>
<path d="M27.5941 17.9911C27.7391 16.8971 29.5491 14.6211 30.1611 13.7911C30.5408 13.2561 30.8566 12.6785 31.1021 12.0701C29.0751 13.9001 26.8921 17.7701 25.1541 19.4551C25.1971 19.5551 25.2411 19.6631 25.2821 19.7651C27.3561 19.9031 30.1891 20.0961 32.6461 20.1301C31.8525 19.6719 31.0239 19.2773 30.1681 18.9501C29.0471 18.5581 27.4561 19.0471 27.5941 17.9911Z" fill="#B6D4FF"/>
<path d="M25.1541 19.455C25.1971 19.555 25.2411 19.663 25.2821 19.765C29.1481 20.018 35.6551 20.488 37.4491 19.678C39.1157 18.8354 40.6085 17.686 41.8491 16.29C36.3621 20.367 25.3001 19.313 25.1541 19.455Z" fill="#E9F6FF"/>
<path opacity="0.46" d="M43.3742 42.779C42.4542 40.686 42.0162 38.479 41.2892 36.325C41.0826 35.7307 40.834 35.1519 40.5452 34.593C41.5522 38.72 42.4642 42.866 43.1452 47.055C45.5572 47.112 46.2882 46.347 46.3712 44.924C45.4802 45.593 44.2002 44.647 43.3742 42.779Z" fill="#247DC5"/>
<path d="M64.3568 55.887L60.6678 52.457L50.5138 51.316L40.4548 49.093V53.203L33.1698 57.551L29.0088 56.918C25.6638 57.171 20.5808 57.908 20.5808 57.908L30.5928 60.915L34.3648 64.787L42.1788 64.693L53.6358 58.793L59.7858 60.863L67.3978 60.648L77.9088 55.08L84.0508 54.466L78.4958 52.451L64.3568 55.887Z" fill="#2D86E0"/>
<path d="M62.3609 59.972C59.5856 59.5241 56.8884 58.6822 54.3509 57.472C54.2639 57.432 54.1899 57.383 54.1089 57.342C49.1169 59.452 44.8639 63.108 39.2219 63.586C37.0553 63.7268 34.8795 63.5761 32.7529 63.138L34.3639 64.791L42.1779 64.697L53.6349 58.797L59.7849 60.867L67.3969 60.652L70.9439 58.775C68.1369 59.519 65.2769 60.355 62.3609 59.972Z" fill="#116BBC"/>
<path d="M64.3568 55.887L60.6678 52.457L50.5138 51.316L40.4548 49.093V53.203L33.1698 57.551L29.0088 56.918C25.6638 57.171 20.5808 57.908 20.5808 57.908L20.8078 57.974L26.9818 59.827C26.9818 59.827 32.7558 60.394 35.0408 60.938C35.0408 60.938 41.3848 56.938 42.5508 56.418C42.5781 56.4175 42.6053 56.4138 42.6318 56.407C42.8398 55.954 43.5688 53.642 43.8068 53.207C44.3128 52.274 58.1898 55.432 58.1898 55.432L64.7778 59.268C64.7778 59.268 73.2778 55.919 77.8778 54.59L80.0778 54.873L84.0498 54.473L78.4948 52.458L64.3568 55.887Z" fill="#51AAF4"/>
<path opacity="0.44" d="M48.9398 66.6791V66.5641C48.3398 66.3261 46.9468 66.4471 47.0398 67.3551C47.1018 67.9351 48.4978 68.5031 48.9398 68.8771C49.9933 69.9834 51.2826 70.8379 52.7118 71.3771C54.3038 71.8511 56.6668 71.3321 58.2758 71.1311C59.6398 70.9521 62.4668 70.8891 63.5148 70.1311C61.4488 68.6881 58.6058 68.3971 56.2788 67.7911C53.8238 67.1471 51.4028 65.8181 48.9398 66.6791Z" fill="#5288D8"/>
<path d="M57.2099 61.8121C56.8703 61.2429 56.346 60.8073 55.7243 60.5777C55.1025 60.3481 54.4209 60.3383 53.7929 60.5501C52.4409 60.8181 50.7349 60.6501 50.2609 62.0441C50.0019 62.7901 49.8609 63.5631 49.5469 64.3441C49.1321 65.0876 48.7631 65.8557 48.4419 66.6441C48.4949 67.3031 49.7359 68.2441 50.2289 68.7311C50.9593 69.5437 51.8277 70.2208 52.7939 70.7311C53.7209 71.1241 54.7259 70.6061 55.7389 70.4161C56.7139 70.2351 58.1869 70.3371 59.0329 69.9061C58.5433 68.663 58.1423 67.3868 57.8329 66.0871C57.5769 64.8701 57.7789 62.7981 57.2099 61.8121Z" fill="#58A5DA"/>
<path d="M53.7919 60.5461C52.4399 60.8141 50.7339 60.6461 50.2599 62.0401C50.1709 62.2951 50.1009 62.5501 50.0259 62.8111C50.5866 63.4339 51.0968 64.1004 51.5519 64.8041C52.3809 66.0751 52.6039 67.0691 54.2229 67.0861C54.8689 67.0861 55.5089 67.1121 56.1459 67.1291C56.323 65.2541 56.6196 63.3923 57.0339 61.5551C56.6621 61.0748 56.1517 60.7204 55.5718 60.5399C54.9919 60.3594 54.3705 60.3616 53.7919 60.5461Z" fill="#88C3FC"/>
<path d="M55.9679 65.2161C55.9679 65.2161 54.3889 66.0531 54.1619 65.7161C53.1832 64.1486 51.9161 62.7808 50.4279 61.6851C50.3561 61.7978 50.299 61.9191 50.2579 62.0461C50.1689 62.3011 50.0989 62.5561 50.0239 62.8171C50.5846 63.44 51.0949 64.1064 51.5499 64.8101C52.3789 66.0811 52.6019 67.0761 54.2209 67.0921C54.8669 67.0921 55.5069 67.1181 56.1439 67.1351C56.3211 65.2602 56.6177 63.3984 57.0319 61.5611C56.9749 61.4821 56.9109 61.4021 56.8529 61.3381C56.8559 61.3361 56.0679 64.9321 55.9679 65.2161Z" fill="#EBFAFF"/>
<path d="M56.327 65.8551C55.7687 65.833 55.2111 65.9137 54.682 66.0931C54.2879 66.2762 53.8649 66.3892 53.432 66.4271C53.022 67.7641 52.765 69.1051 52.314 70.4651C52.473 70.5521 52.631 70.6521 52.792 70.7241C53.719 71.1171 54.724 70.5991 55.737 70.4101C56.712 70.2291 58.185 70.3311 59.031 69.9001C58.78 69.1841 58.531 68.5081 58.306 67.8301C57.596 67.2491 56.98 66.4901 56.327 65.8551Z" fill="#418BBB"/>
<path d="M54.68 66.0931C54.2859 66.2761 53.8629 66.3891 53.43 66.4271C53.02 67.7641 52.763 69.1051 52.312 70.4651C52.471 70.5521 52.629 70.6521 52.79 70.7241C52.8499 70.748 52.9118 70.7664 52.975 70.7791C53.0422 70.3279 53.1374 69.8814 53.26 69.4421C53.3603 69.1036 53.4964 68.7767 53.666 68.4671C53.832 68.085 54.0661 67.7363 54.357 67.4381C54.516 67.2551 54.68 67.0681 54.857 66.8941C55.3304 66.4605 55.9223 66.1778 56.557 66.0821C56.478 66.0101 56.404 65.9331 56.33 65.8551C55.7701 65.8324 55.2107 65.913 54.68 66.0931Z" fill="#3B84B4"/>
<path d="M53.7479 65.8001C53.3169 65.2861 52.8579 64.7911 52.4559 64.2511C52.1239 63.7961 51.8059 63.3351 51.4699 62.8871C51.0676 62.5384 50.7189 62.1324 50.4349 61.6821C50.3618 61.7946 50.3033 61.9159 50.2609 62.0431C50.0019 62.7891 49.8609 63.5621 49.5469 64.3431C49.1322 65.0866 48.7631 65.8547 48.4419 66.6431C48.4949 67.3021 49.7359 68.2431 50.2289 68.7301C50.9599 69.5421 51.8282 70.2191 52.7939 70.7301C53.0963 69.2246 53.5313 67.7489 54.0939 66.3201C54.0525 66.2025 53.9982 66.0898 53.9319 65.9841C54.0679 66.2311 54.0049 66.1711 53.7479 65.8001Z" fill="#5AA6DB"/>
<path d="M95.062 23.6891C92.408 22.2251 86.514 21.8741 83.462 23.1111C82.223 30.0771 80.818 36.9441 80.78 44.3631L81.151 45.4791C82.7729 46.1907 84.4579 46.7485 86.184 47.1451C88.898 47.7681 92.332 45.9081 93.641 44.5631C95.248 42.8991 95.552 36.8001 96.191 34.3431C97.207 30.4511 99.468 26.1181 95.062 23.6891Z" fill="#7DCAF9"/>
<path d="M83.651 23.3711C83.677 23.2411 83.708 23.1251 83.738 23.0061C83.6438 23.0328 83.5515 23.0663 83.462 23.1061C82.223 30.0721 80.818 36.9391 80.78 44.3581L81.154 45.4781C82.1101 45.9016 83.0909 46.2669 84.091 46.5721C82.5218 44.9415 81.6504 42.7631 81.662 40.5001C81.9085 34.7497 82.5733 29.0249 83.651 23.3711Z" fill="#6C8CDD"/>
<path d="M95.0619 23.6891C92.4079 22.2251 86.5149 21.8741 83.4619 23.1111C83.4239 23.3111 83.3859 23.5171 83.3469 23.7291C83.7242 23.9377 84.0625 24.2101 84.3469 24.5341C88.1959 28.8251 88.0889 35.1241 87.3879 40.5541C87.1379 42.7762 86.7396 44.9791 86.1959 47.1481C88.9099 47.7711 92.3379 45.9111 93.6469 44.5661C95.2539 42.9021 95.5579 36.8031 96.1969 34.3461C97.2099 30.4511 99.4679 26.1181 95.0619 23.6891Z" fill="#62C0EF"/>
<path d="M89.939 25.561C89.5039 32.8734 88.3904 40.1296 86.613 47.236C89.202 47.786 92.4021 45.848 93.6451 44.567C95.2521 42.903 95.556 36.804 96.195 34.347C96.949 31.457 98.3821 28.333 97.2831 25.914C94.5871 26.555 92.657 25.053 89.939 25.561Z" fill="#2E92E5"/>
<path d="M89.936 25.5611C89.7277 29.5777 89.2836 33.5786 88.606 37.5431C88.723 36.9331 88.848 36.3251 88.993 35.7171C89.584 33.2641 90.249 30.9571 92.045 29.1171C93.373 27.7501 95.401 27.4021 97.073 26.6711C97.2088 26.6108 97.3489 26.5604 97.492 26.5201C97.4339 26.3162 97.3638 26.1158 97.282 25.9201C94.586 26.5551 92.657 25.0531 89.936 25.5611Z" fill="#277ECC"/>
<path d="M95.0621 23.6891C92.4081 22.2251 86.5141 21.8741 83.4621 23.1111C83.4505 23.1546 83.4412 23.1986 83.4341 23.2431C83.9878 23.402 84.4998 23.6806 84.9341 24.0591C86.1115 25.0024 87.2181 26.0309 88.2451 27.1361C88.6451 27.6161 89.0381 28.2411 89.4841 28.7641C92.1408 27.9884 94.746 27.0459 97.2841 25.9421C96.8142 24.9652 96.0324 24.1725 95.0621 23.6891Z" fill="#B6D4FF"/>
<path d="M89.7381 27.2971C88.4381 26.7811 84.5951 23.1101 84.2381 22.8511C83.9726 22.9175 83.7125 23.0041 83.4601 23.1101C83.4485 23.1536 83.4392 23.1976 83.4321 23.2421C83.9858 23.401 84.4979 23.6796 84.9321 24.0581C86.1095 25.0014 87.2161 26.0299 88.2431 27.1351C88.6431 27.6151 89.0361 28.2401 89.4821 28.7631C92.1389 27.9874 94.7441 27.0448 97.2821 25.9411C97.2401 25.8541 97.1951 25.7671 97.1501 25.6801C97.0301 25.7351 91.8191 28.1191 89.7381 27.2971Z" fill="#EBFAFF"/>
</svg>
