<svg width="89" height="98" viewBox="0 0 89 98" fill="none" xmlns="http://www.w3.org/2000/svg">
<path d="M54.8403 19.257C54.9333 22.085 56.3203 23.689 57.7203 26.024C59.6342 29.3114 62.0576 32.2743 64.9003 34.802C65.9123 35.683 72.4533 39.841 73.3273 38.283C73.7913 37.454 71.9083 35.603 71.3023 35.213C69.7553 34.213 69.4192 34.477 68.5162 32.797C67.1862 30.318 65.1933 29.289 63.5773 27.154C61.9773 25.054 61.8072 22.372 60.7442 19.98C59.8192 17.904 57.9443 13.552 57.0823 11.843C57.2773 12.905 54.8033 17.997 54.8403 19.257Z" fill="url(#paint0_linear_2_785)"/>
<path d="M57.0831 11.843C57.081 11.8095 57.0724 11.7769 57.0576 11.7469C57.0429 11.7168 57.0223 11.69 56.9971 11.668C57.0241 11.72 57.0531 11.784 57.0831 11.843Z" fill="url(#paint1_linear_2_785)"/>
<path d="M21.5402 33.853C21.5278 34.346 21.4787 34.8374 21.3932 35.323L21.3242 35.357C21.5652 35.484 22.1692 35.198 22.4782 35.183C22.8932 35.161 23.4132 35.369 23.3182 34.83C23.1582 33.902 22.2362 33.362 21.7762 32.603C21.7172 33.01 21.5842 33.421 21.5402 33.853Z" fill="#6B0C03"/>
<path d="M71.363 41.1291H71.518C71.4694 41.0928 71.4186 41.0594 71.3661 41.0291C71.3661 41.0591 71.363 41.0931 71.363 41.1291Z" fill="#6B0C03"/>
<path d="M69.8082 40.863C70.3672 40.883 70.8912 40.726 71.3662 41.023C71.3802 39.783 71.5722 38.569 71.5502 37.378C71.2192 37.278 70.3762 37.978 70.0502 38.147C69.4055 38.3961 68.8127 38.763 68.3022 39.229C67.8572 39.724 67.6142 40.157 68.2922 40.518C68.7653 40.7452 69.2834 40.8631 69.8082 40.863Z" fill="#6B0C03"/>
<path d="M87.0972 46.622L86.0252 46.247C83.1332 45.43 79.8252 45.425 76.7832 45.26C70.1611 44.8157 63.5366 46.0902 57.5522 48.96C51.2392 52.033 44.0942 57.684 41.7942 64.73C40.1772 69.669 38.9662 75.408 39.7492 80.64C40.5742 86.185 43.4922 91.661 43.4282 97.273C46.5042 96.59 48.8902 92.855 52.0982 91.773C52.0982 91.773 54.5582 93.413 57.7492 90.643C62.0492 86.9 66.3922 82.572 71.5022 81.143C77.1672 79.564 79.4402 73.543 82.4372 71.71C84.8772 65.994 81.7652 64.791 84.1252 60.529C87.0972 55.157 85.4802 51.182 87.0972 46.622Z" fill="#7A0D05"/>
<path d="M56.296 91.462C56.3272 91.5063 56.356 91.5524 56.382 91.6C56.8733 91.3343 57.3335 91.0147 57.754 90.647C59.254 89.339 60.759 87.965 62.302 86.664C62.42 84.558 62.781 82.44 63.102 80.306C63.473 77.834 64.017 74.877 63.016 72.479C62.579 71.424 59.93 69.433 59.93 69.433C59.037 72.054 58.941 77.287 58.278 79.971C57.642 82.553 57.046 85.158 56.624 87.788C56.4559 88.7341 56.338 89.6884 56.271 90.647C56.2551 90.9189 56.2635 91.1916 56.296 91.462Z" fill="#6B0C03"/>
<path d="M60.0582 71.765C60.0242 78 59.8372 85.135 58.1582 90.292C59.2162 89.366 60.2812 88.417 61.3582 87.484C61.5992 85.694 61.9012 83.91 62.1682 82.113C62.5832 79.268 60.6492 74.224 60.0582 71.765Z" fill="#560202"/>
<path d="M77.3982 68.106C76.7992 71.4664 76.4373 74.8648 76.3152 78.276C78.8152 75.905 80.4702 72.913 82.4372 71.712C84.8772 65.996 81.7652 64.793 84.1252 60.531C87.0972 55.158 85.4802 51.182 87.0972 46.623L86.0262 46.248C85.9382 46.224 85.8452 46.207 85.7612 46.182C83.9692 47.198 82.2432 48.313 80.5472 49.482C81.7602 49.537 82.9574 49.7795 84.0962 50.201C84.3733 50.2957 84.6249 50.4527 84.8317 50.6599C85.0385 50.8672 85.195 51.1192 85.2891 51.3964C85.3832 51.6737 85.4124 51.9689 85.3745 52.2592C85.3365 52.5495 85.2324 52.8273 85.0702 53.071C83.7522 58.747 78.6452 62.415 77.3982 68.106Z" fill="#6B0C03"/>
<path d="M85.5852 56.957C84.0702 59.596 82.3742 62.114 80.6422 64.605C79.6832 68.179 78.6512 71.735 77.7732 75.321C79.3522 72.5846 81.2468 70.0428 83.4182 67.748C83.5392 65.068 82.4392 63.577 84.1252 60.532C84.7523 59.4027 85.2425 58.2025 85.5852 56.957Z" fill="#560202"/>
<path d="M43.0322 69.9341C42.9164 69.9472 42.7997 69.9512 42.6832 69.946C42.4272 76.514 42.3273 83.086 42.1353 89.656C42.9363 92.1189 43.3722 94.6858 43.4292 97.2751C44.946 96.7996 46.3315 95.9779 47.4762 94.875C47.4512 94.456 47.4273 94.041 47.4023 93.623C47.3805 91.6508 47.096 89.6902 46.5562 87.793C46.0142 86.241 45.0373 84.723 44.7473 83.087C43.7853 77.616 45.8222 73.163 49.0652 69.155C47.0952 69.507 45.0822 69.6531 43.0322 69.9341Z" fill="#6B0C03"/>
<path d="M65.1102 84.445C66.2251 83.6256 67.4054 82.8992 68.6392 82.273C68.7302 80.873 68.8392 79.467 69.0242 78.073C69.5421 74.8766 70.4097 71.7469 71.6112 68.74C72.6112 65.893 71.9182 62.849 72.8782 60.04C73.6342 57.828 74.6722 55.84 75.2402 53.651C73.9328 54.4146 72.4537 54.8354 70.9402 54.874C69.2949 54.6866 67.6295 54.7881 66.0192 55.174C66.1192 55.139 61.3432 56.298 62.5272 56.835C63.1604 56.9549 63.7838 57.1221 64.3922 57.335C64.5402 57.394 68.2182 57.251 68.2182 57.251C65.5252 63.657 66.1092 73.063 65.5872 79.851C65.4742 81.393 65.3162 82.929 65.1102 84.445Z" fill="#6B0C03"/>
<path d="M65.1102 84.4449C65.4022 84.2359 65.6922 84.031 65.9862 83.834C66.1292 81.112 66.5022 78.4119 66.8042 75.6899C67.1282 72.7589 67.2532 69.8139 67.8322 66.9179C68.8322 61.9519 69.9852 58.44 73.9262 55.124C74.2079 54.88 74.5562 54.7261 74.9262 54.6819C75.0372 54.3409 75.1452 53.9949 75.2382 53.6429C73.9309 54.4066 72.4517 54.8273 70.9382 54.8659C69.2929 54.6785 67.6276 54.7801 66.0172 55.166C66.1172 55.131 61.3412 56.29 62.5252 56.827C63.1585 56.9469 63.7819 57.114 64.3902 57.327C64.5382 57.386 68.2162 57.243 68.2162 57.243C65.5232 63.649 66.1072 73.055 65.5852 79.843C65.4742 81.393 65.3162 82.9289 65.1102 84.4449Z" fill="#560202"/>
<path d="M54.269 76.151C55.584 72.509 55.1181 68.903 57.5601 65.287C58.1201 64.462 61.924 59.901 62.067 58.962C59.288 60.02 51.254 65.594 49.738 68.236C50.1263 71.1388 50.3364 74.0626 50.3671 76.991C50.3451 79.947 49.984 82.857 50.372 85.798C50.659 87.966 51.0661 90.142 51.3621 92.308C51.6264 92.1617 51.9 92.0328 52.1811 91.922C52.1422 89.6089 52.3721 87.2991 52.8661 85.039C53.3121 81.973 53.202 79.124 54.269 76.151Z" fill="#6B0C03"/>
<path d="M56.9701 62.863C56.9921 62.723 57.0041 62.576 57.0291 62.441C54.0774 63.4928 51.5568 65.4917 49.8601 68.126C50.199 71.0362 50.3606 73.9642 50.3441 76.894C50.2731 79.847 49.8631 82.75 50.2021 85.703C50.4501 87.875 50.8201 90.053 51.0851 92.223C51.3211 92.103 51.5661 91.995 51.8121 91.895C51.5931 86.444 51.5201 80.982 51.7171 75.526C51.9051 70.305 54.3531 67.1 56.9701 62.863Z" fill="#560202"/>
<path d="M42.6971 65.132C40.3721 58.747 30.8291 53.0321 24.9711 50.2841C19.1131 47.5361 11.1711 47.5451 4.82413 47.2361C3.26722 47.2357 1.71831 47.0135 0.224121 46.576C0.224121 51.684 0.401128 57.146 2.78113 61.51C3.76313 63.31 4.81413 70.13 6.86613 74.01C8.25813 76.639 9.67611 76.043 11.8881 76.941C15.3521 78.347 17.0821 83.2611 22.9531 86.4901C25.0461 87.6441 26.3581 90.59 30.7161 92.037C32.5237 92.5266 34.4154 92.6221 36.2631 92.317C38.7961 93.338 38.8801 95.7021 43.4301 97.2711C43.5751 92.1921 43.1211 86.971 43.1211 81.557C43.1191 76.67 44.3491 69.65 42.6971 65.132Z" fill="#AA2805"/>
<path d="M19.2312 83.815C20.3592 84.8542 21.6086 85.7534 22.9522 86.493C24.2142 87.193 25.1952 88.532 26.7272 89.807C25.5711 87.0891 24.6185 84.2891 23.8772 81.43C22.9772 77.699 22.6332 73.75 21.6162 70.03L21.5972 70.1451C22.1692 72.2588 22.3455 74.4601 22.1172 76.638C22.1372 79.797 21.4802 82.71 19.2312 83.815Z" fill="#7C1D04"/>
<path d="M43.0172 70.661C42.1375 69.8895 41.1224 69.288 40.0232 68.887C40.0382 68.968 40.0532 69.063 40.0692 69.172C40.1062 69.302 40.1472 69.43 40.1872 69.555C40.3308 69.6705 40.4579 69.8051 40.5652 69.955C43.5012 74.088 42.3222 79.105 42.4902 83.825C42.6352 87.895 43.1682 91.943 43.4472 96.005C43.4942 91.319 43.1202 86.516 43.1202 81.555C43.1202 78.48 43.6062 74.555 43.5542 70.946C43.3609 70.8808 43.1795 70.7845 43.0172 70.661Z" fill="#CC2206"/>
<path d="M39.6772 95.152C39.3952 91.772 38.9872 88.403 38.8652 85.002C38.8092 83.453 38.9442 81.771 39.0152 80.076C38.0618 77.2985 37.3465 74.4449 36.8772 71.546C36.1512 69.494 35.5082 67.172 36.9662 66.02C37.325 65.7305 37.7309 65.5049 38.1662 65.353C37.8981 65.1836 37.6094 65.0492 37.3072 64.953C36.2141 65.5738 35.0224 66.002 33.7842 66.219C35.8763 72.091 36.8781 78.2959 36.7402 84.528C36.7668 84.5854 36.7905 84.6442 36.8112 84.704C37.0372 85.8337 36.9902 87.0011 36.6742 88.109C36.6914 88.2061 36.7004 88.3044 36.7012 88.403C36.7141 89.7441 36.6329 91.0843 36.4582 92.414C37.8342 93.039 38.4842 94.08 39.6772 95.152Z" fill="#CC2206"/>
<path d="M0.803162 46.747C0.611162 46.7 0.417168 46.647 0.222168 46.577C0.222168 51.685 0.399175 57.147 2.77917 61.511C3.76117 63.311 4.81217 70.131 6.86417 74.011C7.09379 74.5591 7.44736 75.0466 7.89709 75.4351C8.34683 75.8235 8.88049 76.1025 9.45618 76.25C7.37418 71.927 3.59716 65.312 5.88516 60.944C4.68471 59.9519 3.58232 58.8469 2.59317 57.644C1.91517 55.8054 1.54061 53.8688 1.48416 51.91C1.40786 50.4527 1.44899 48.9917 1.60716 47.541C1.31859 47.298 1.04975 47.0325 0.803162 46.747Z" fill="#CC2206"/>
<path d="M16.0282 80.4819C16.1282 78.2109 16.2952 75.934 16.3052 73.653C16.3302 68.459 14.0572 63.4339 15.9762 58.4009C15.5709 58.0069 15.2028 57.5764 14.8763 57.1149C13.8175 56.3821 12.7214 55.7049 11.5923 55.0859C11.571 55.8061 11.5126 56.5248 11.4172 57.239C11.4252 57.32 11.4343 57.3989 11.4413 57.4819C12.3956 60.3946 13.0801 63.3889 13.4862 66.4269C13.5579 66.5742 13.6101 66.7302 13.6412 66.8909C13.7762 67.6229 13.9162 68.344 14.0412 69.071C14.211 69.3415 14.3068 69.6518 14.3192 69.9709C14.5992 72.9569 14.6993 75.957 14.6192 78.9549C15.0832 79.4259 15.5472 79.9339 16.0282 80.4819Z" fill="#CC2206"/>
<path d="M13.6952 51.528C12.0612 51.263 8.05721 50.745 7.68921 50.755C7.88703 53.6964 8.33126 56.6159 9.01721 59.483C9.83921 62.494 11.3862 65.146 12.3632 68.083C13.4663 71.6238 14.2258 75.2626 14.6312 78.949C14.9132 79.239 15.1932 79.543 15.4802 79.865C15.4707 73.9353 14.9015 68.0198 13.7802 62.197C13.0612 58.876 12.7302 57.791 12.4642 55.678C12.7432 55.288 13.9772 51.597 13.6952 51.528Z" fill="#871307"/>
<path d="M13.6942 51.528C12.0612 51.263 2.96224 48.396 2.59424 48.415C3.81724 50.515 6.98322 52.104 8.12622 52.426C11.0622 53.455 11.0392 55.394 11.5822 57.686C12.2942 60.691 12.9622 63.749 13.5772 66.786C14.5548 70.9679 15.0888 75.2412 15.1702 79.535C15.2702 79.646 15.3782 79.753 15.4802 79.871C15.4707 73.9413 14.9015 68.0257 13.7802 62.203C13.0612 58.882 12.7912 57.692 12.5252 55.578C12.8032 55.18 13.9762 51.598 13.6942 51.528Z" fill="#6B0C03"/>
<path d="M41.0031 63.565C38.0031 63.644 28.7111 62.249 29.4181 64.139C31.5181 67.198 33.7092 71.709 35.0982 80.297C35.7532 84.334 35.7981 88.257 36.2611 92.317C36.4371 92.396 36.9011 92.634 37.0531 92.727C37.2721 90.575 37.5531 88.414 37.7401 86.222C38.2551 80.066 36.2111 73.178 35.6561 67.072C35.6561 67.076 40.0311 64.808 41.0031 63.565Z" fill="#871307"/>
<path d="M41.001 63.569C38.001 63.648 23.76 58.053 20.925 59.062L24.359 61.522C27.429 62.698 32.307 66.9809 32.295 67.1159C32.995 67.5479 35.6081 73.64 36.1021 76.139C37.2701 81.516 37.4541 87.0603 36.6451 92.5029C36.7851 92.5756 36.9184 92.6516 37.045 92.7309C37.264 90.5799 37.5451 88.418 37.7321 86.226C38.2471 80.07 36.203 73.1819 35.648 67.0759C35.655 67.0759 40.031 64.808 41.001 63.569Z" fill="#6B0C03"/>
<path d="M69.6541 64.3181C69.4111 66.2671 70.3541 76.1671 69.8411 78.0001C71.6801 77.9411 71.2161 77.5121 73.0521 77.3321C74.5401 77.1881 77.8411 69.537 79.2791 68.994C80.7171 68.451 83.5891 66.6941 84.4791 65.3811C85.3361 64.1121 85.2701 63.0721 85.9391 61.6971C86.6241 60.2971 87.3391 60.3131 88.2761 59.0611C89.2441 57.7731 87.3411 53.3 87.3411 53.3L80.0921 55.9341C79.3211 56.2651 78.5191 56.5401 77.7331 56.8521C77.3111 57.0231 76.8881 57.1901 76.4661 57.3521C74.779 58.0829 73.0531 58.7205 71.2961 59.2621C71.2421 59.2758 71.1868 59.2841 71.1311 59.287C71.0084 59.3379 70.8732 59.3508 70.7431 59.3241L70.5931 59.3811C70.6205 60.2059 70.6065 61.0316 70.5511 61.8551C70.3981 62.7401 69.7671 63.4001 69.6541 64.3181Z" fill="#9B2405"/>
<path d="M73.3721 72.759C72.9397 74.289 72.6156 75.8475 72.4021 77.423C72.5831 77.389 72.7951 77.36 73.0531 77.332C73.2634 77.2907 73.456 77.186 73.6051 77.032C74.4253 74.1458 75.5908 71.3691 77.0761 68.7621C78.0897 66.7474 78.9586 64.6631 79.6761 62.5251C80.0081 61.5611 80.5841 61.015 78.8951 60.871C78.0141 60.797 77.1381 60.743 76.2541 60.712C77.4201 62.268 78.4751 63.449 77.4031 65.665C76.2381 68.072 74.0851 70.158 73.3721 72.759Z" fill="#B53512"/>
<path d="M73.197 77.2991C74.739 76.7181 77.883 69.5231 79.275 68.9931C80.708 68.4481 83.585 66.693 84.475 65.38C85.332 64.111 85.266 63.0721 85.935 61.6961C86.62 60.2961 87.335 60.312 88.272 59.06C89.241 57.772 87.337 53.2991 87.337 53.2991C87.337 53.0811 82.583 54.999 78.903 58.005C78.122 58.874 78.803 61.167 78.82 61.405C78.98 64.27 78.442 65.7671 76.272 68.9331C74.62 71.4495 73.568 74.3117 73.197 77.2991Z" fill="#771305"/>
<path d="M73.197 77.3C73.885 77.042 74.885 75.476 75.909 73.77C75.145 70.827 77.309 68.07 79.127 65.67C79.5847 63.7997 80.2261 61.9791 81.042 60.235C81.0178 60.2194 80.9947 60.202 80.973 60.183C80.796 60.045 80.61 59.915 80.424 59.793C79.7987 59.7209 79.1651 59.7991 78.576 60.021C78.654 60.699 78.814 61.292 78.822 61.405C78.982 64.27 78.444 65.767 76.274 68.933C74.6212 71.4496 73.5684 74.3121 73.197 77.3Z" fill="#6B0C03"/>
<path d="M65.2782 86.5179C66.2402 85.8179 66.7562 81.405 67.5062 78.276C68.1622 75.532 72.1062 71.6589 72.1942 68.8159L72.0642 68.944C70.2212 67.39 68.1342 69.099 66.5202 69.72C64.3422 70.555 61.9672 69.8199 59.9202 69.4329C59.9181 71.3838 60.0602 73.3321 60.3452 75.262C60.5192 77.235 61.2952 85.578 61.3452 87.483C62.8042 87.998 63.8992 87.5219 65.2782 86.5179Z" fill="#771305"/>
<path d="M65.5732 75.836C66.7072 72.996 69.8372 72.113 71.9282 70.124C72.0599 69.7507 72.1442 69.3623 72.1791 68.968C70.273 70.639 67.9116 71.7031 65.3972 72.024C65.39 72.0884 65.3783 72.1523 65.3622 72.215C64.0368 77.2147 63.3837 82.3688 63.4201 87.541C63.9143 87.374 64.3826 87.1384 64.8112 86.841C64.8162 84.561 64.9481 82.293 65.0881 80.013C65.0406 78.6043 65.2041 77.1964 65.5732 75.836Z" fill="#6B0C03"/>
<path d="M63.914 87.352C63.917 81.1712 64.8926 75.0294 66.805 69.152C64.5568 69.7225 62.2142 69.8179 59.927 69.432C59.925 71.3828 60.067 73.3311 60.352 75.261C60.526 77.234 61.302 85.577 61.352 87.482C61.7648 87.6387 62.2057 87.708 62.6467 87.6857C63.0876 87.6633 63.5192 87.5497 63.914 87.352Z" fill="#9B2405"/>
<path d="M63.3652 87.557C63.5525 87.5015 63.7356 87.4326 63.9132 87.351C63.9424 82.3437 64.5851 77.3589 65.8271 72.508C64.9069 72.6244 63.9721 72.5086 63.1082 72.171C64.5082 74.178 64.3842 76.179 63.9842 78.506C63.5545 81.5036 63.3476 84.5289 63.3652 87.557Z" fill="#B53512"/>
<path d="M9.35815 66.025C9.54915 68.064 10.8352 70.856 11.7042 72.802C12.6833 74.9325 13.5511 77.1124 14.3041 79.333C14.5131 79.333 14.9621 79.542 15.1711 79.533C15.2466 77.2603 15.1268 74.9852 14.8131 72.733C13.9251 67.6 13.4411 65.71 12.8131 63.146C11.7371 63.855 10.5752 65.541 9.35815 66.025Z" fill="#7C1D04"/>
<path d="M12.9001 63.496C12.8751 63.381 12.8441 63.263 12.8141 63.145C11.7371 63.856 10.5752 65.545 9.35815 66.026C9.54915 68.065 10.8352 70.857 11.7042 72.803C12.6833 74.9335 13.5511 77.1135 14.3041 79.334C14.3723 79.338 14.4395 79.3511 14.5042 79.373C13.8312 76.548 13.2252 73.728 12.4542 70.915C11.9924 69.7743 11.801 68.5421 11.8951 67.315C12.3324 66.0711 12.6685 64.794 12.9001 63.496Z" fill="#60210C"/>
<path d="M4.62402 64.375C6.42402 66.829 8.54602 69.168 9.70802 71.928C10.653 74.166 11.839 78.614 14.301 79.328C13.348 75.484 11.444 70.428 10.668 67.593C10.259 66.08 7.48902 61.459 4.62402 64.375Z" fill="#871307"/>
<path d="M4.62416 64.375L4.57715 64.424C4.59415 64.402 4.61216 64.387 4.62416 64.375Z" fill="#871307"/>
<path d="M4.62402 64.375C4.66502 64.424 4.70303 64.475 4.73903 64.52C4.86148 64.5171 4.98307 64.5413 5.09503 64.591C8.97803 66.284 10.478 68.438 11.646 72.414C12.2496 74.3957 13.0142 76.3248 13.932 78.182C14 78.3204 14.0608 78.4623 14.114 78.607C13.114 74.874 11.397 70.257 10.668 67.598C10.259 66.08 7.48902 61.459 4.62402 64.375Z" fill="#BC270A"/>
<path d="M39.8811 91.438C39.7731 87.633 41.2811 83.238 42.0861 79.702C40.1221 79.758 39.7961 77.264 39.2061 75.677C38.6291 74.131 38.2541 72.098 37.7631 70.777L37.5371 70.667C38.1241 72.434 38.1601 74.562 38.6811 76.467C38.8836 77.2866 39.1425 78.0912 39.4561 78.875C39.5549 79.1947 39.7059 79.4957 39.9031 79.766C40.1461 80.034 40.6721 80.066 40.7961 80.321C41.0021 80.763 40.4371 81.951 40.2961 82.459C40.0197 83.3324 39.8784 84.2429 39.8771 85.159C39.8771 86.305 39.9281 87.466 39.8771 88.608C39.8351 89.465 39.5251 90.638 39.8811 91.438Z" fill="#871307"/>
<path d="M20.5952 64.143C20.4522 63.401 20.2812 59.784 20.0702 59.062C19.4902 58.682 18.3942 58.757 17.7352 58.535C17.3352 58.402 15.8482 58.199 16.0612 58.429L15.9502 58.319C16.0607 60.2908 16.0607 62.2672 15.9502 64.239C16.4162 64.148 17.2392 61.374 17.7622 61.416C17.9499 62.7093 17.9066 64.0258 17.6342 65.304C19.0602 66.133 18.5342 67.374 18.4002 68.752C18.2482 70.335 19.3282 69.432 19.2322 71.023C19.1492 72.331 18.0932 76.033 18.2702 77.332C18.7134 78.4439 19.036 79.6002 19.2322 80.781C19.2252 80.899 19.2722 80.818 19.3502 80.616C18.4292 77.167 19.5272 73.745 20.5502 70.4C20.5262 69.722 20.5162 69.038 20.5432 68.348C20.5582 67.865 20.5752 67.381 20.5942 66.9C20.2982 65.192 20.6492 65.869 20.5952 64.143Z" fill="#7C1D04"/>
<path d="M71.5281 37.358C66.7411 32.213 60.4071 32.11 56.4941 28.674C54.5521 26.974 45.7721 22.705 43.4291 21.156C38.0961 24.356 34.1871 24.305 31.8611 27.405C29.5611 30.463 24.9611 30.822 21.7491 32.677C21.9281 33.116 22.3381 34.155 22.5491 34.629C18.4771 33.917 13.3991 38.223 9.4761 40.829C6.0551 43.107 0.0991211 46.413 0.0991211 46.413C4.58412 51.297 8.43012 52.142 12.9781 52.82C13.3021 53.67 12.0781 54.99 12.7031 56.382C14.6251 60.697 28.9321 62.548 32.3421 66.448C33.1601 67.384 37.4421 65.224 37.4421 65.224C37.4421 66.002 35.6551 67.074 35.6551 67.074C39.8671 69.506 41.8701 71.961 43.6841 71.694C45.4521 71.436 50.2911 68.527 51.8621 67.553C54.9151 65.653 55.8901 63.653 59.1671 62.418C63.1731 60.903 65.2891 60.823 68.2221 57.241C66.623 56.9745 65.0089 56.8075 63.3891 56.741C67.5611 54.817 72.4741 56.169 76.6511 53.675C79.9621 51.699 83.2981 47.362 87.0971 46.621C85.8141 45.252 82.4681 42.721 74.1811 38.721L68.9941 39.641C69.8884 38.937 70.735 38.1743 71.5281 37.358Z" fill="#E02107"/>
<path d="M22.8 61.263C21.9 61.14 21 60.998 20.1 60.809C20.007 60.809 19.908 60.799 19.811 60.796C20.974 61.23 22.19 61.647 23.395 62.07C23.327 62.033 23.263 61.998 23.195 61.955C23.0764 61.8821 22.9781 61.7804 22.9091 61.6595C22.84 61.5386 22.8025 61.4022 22.8 61.263Z" fill="#EF5F2E"/>
<path d="M54.1982 65.0269C52.6692 66.5319 45.6981 70.5269 43.5981 70.9179C42.0461 71.2009 41.4802 69.394 37.3712 67.334C36.4062 66.846 38.5301 64.896 38.6711 64.447C37.193 64.6784 35.7508 65.0991 34.3802 65.6989C33.9966 65.8324 33.5891 65.883 33.1846 65.8475C32.78 65.812 32.3876 65.6912 32.0331 65.493C28.5331 62.047 19.1441 60.13 16.6531 59.062C15.2711 58.462 13.2442 57.2139 13.0532 55.6349C13.0883 54.7175 13.3275 53.8194 13.7531 53.006C14.1751 51.698 11.9791 51.968 11.3301 51.83C8.92214 51.312 2.50614 49.24 0.115143 46.408L0.108154 46.4149C4.59315 51.2989 8.43915 52.144 12.9872 52.822C13.3112 53.673 12.0872 54.9919 12.7122 56.3849C14.6342 60.6999 28.9411 62.551 32.3511 66.451C33.1691 67.388 37.4511 65.228 37.4511 65.228C37.4511 66.006 35.6642 67.0779 35.6642 67.0779C39.8762 69.5099 41.8791 71.965 43.6931 71.698C45.4611 71.44 50.3002 68.5309 51.8712 67.5569C54.9242 65.6569 55.8991 63.657 59.1761 62.422C63.1821 60.907 65.2981 60.827 68.2311 57.245C66.632 56.9785 65.018 56.8115 63.3982 56.745C67.5702 54.821 72.4832 56.173 76.6602 53.679C79.3112 52.096 81.9862 48.9949 84.8972 47.4449C82.8432 47.9119 80.9791 49.7589 79.2741 50.9749C76.8361 52.7099 74.8952 54.2279 71.8462 54.6469C69.9342 54.9049 64.6842 55.519 63.7932 56.071C62.9932 56.565 62.2661 56.971 63.1621 57.045C64.5608 57.1596 65.9485 57.3836 67.3122 57.715C63.2382 61.301 58.8512 61.102 57.6342 61.869C56.375 62.7906 55.2225 63.8498 54.1982 65.0269Z" fill="#FF917B"/>
<path d="M84.0982 63.619C83.9452 64.186 84.2252 65.332 84.0522 65.892C84.2088 65.7335 84.3522 65.5626 84.4812 65.381C85.3382 64.112 85.2722 63.073 85.9412 61.697C86.6262 60.297 87.3412 60.313 88.2782 59.061C89.2472 57.773 87.3432 53.3 87.3432 53.3C87.3432 53.263 87.1812 53.295 86.9212 53.386C86.5003 54.4323 85.8599 55.3762 85.0432 56.154C85.5523 57.0581 85.9065 58.041 86.0912 59.062C85.3182 61.074 84.5782 62.203 84.0982 63.619Z" fill="#6B0C03"/>
<path d="M80.4011 66.989C82.0421 64.1131 83.2867 61.0284 84.1011 57.819C82.6131 58.184 80.4141 57.564 78.8881 57.819C78.3821 58.4 81.3181 58.973 81.5461 59.609C81.5461 59.609 81.3821 61.02 81.3001 61.504C80.9901 63.332 80.7181 65.168 80.4011 66.989Z" fill="#560202"/>
<path d="M79.894 58.238C80.233 58.059 83.8041 58.253 84.1801 58.081C86.6541 56.945 86.73 55.619 87.342 54.559C88.223 53.038 86.321 52.412 83.864 52.645C81.064 55.865 75.018 58.014 70.592 59.386C71.918 60.734 74.136 59.634 75.239 60.4C76.2973 61.1068 77.5537 61.4572 78.825 61.4C79.7701 60.8638 80.6778 60.2644 81.5421 59.606C81.9231 59.267 79.258 58.567 79.894 58.238Z" fill="#B7230F"/>
<path d="M78.826 60.9909C78.026 61.0909 76.0651 60.0259 75.2401 59.9309C74.3889 59.9323 73.5387 59.8766 72.695 59.7639C72.182 59.6689 71.453 59.3269 70.95 59.2709L70.592 59.3839C71.918 60.7319 74.136 59.6319 75.239 60.3979C76.2973 61.1048 77.5537 61.4552 78.825 61.3979C79.77 60.8617 80.6778 60.2624 81.5421 59.6039C81.9221 59.2609 79.2571 58.5629 79.8931 58.2319C80.2321 58.0529 83.803 58.247 84.179 58.075C84.8474 57.8207 85.4519 57.4233 85.9503 56.9105C86.4487 56.3978 86.8289 55.7822 87.0641 55.1069C86.0281 56.6969 84.8091 57.748 81.1071 57.282H81.0871C80.3485 57.3988 79.6238 57.5905 78.924 57.8539C78.8912 57.8635 78.8578 57.8708 78.8241 57.8759C79.2241 58.2629 79.5361 58.853 80.1031 59.049C81.6781 59.591 79.413 60.9149 78.826 60.9909Z" fill="#D63B2B"/>
<path d="M66.6722 72.631C67.8182 72.167 71.6602 70.247 72.1452 69.131C72.8232 67.567 67.4572 66.9139 66.2052 67.3929C66.2052 67.3929 64.4482 68.3499 63.5842 68.7209C62.4568 69.2986 61.1892 69.5464 59.9272 69.4359C60.0526 69.8388 60.2472 70.2168 60.5022 70.5529C61.7832 72.0309 64.8982 73.344 66.6722 72.631Z" fill="#B7230F"/>
<path d="M66.6721 72.626C68.5059 71.8694 70.223 70.8562 71.7721 69.617C68.4831 72.123 62.9801 72.8909 60.3061 69.4799C60.1781 69.4713 60.0508 69.4542 59.925 69.429C60.0504 69.8318 60.245 70.2098 60.5001 70.546C61.7831 72.034 64.8981 73.344 66.6721 72.626Z" fill="#D63B2B"/>
<path d="M6.00615 64.9539C7.70918 65.5425 9.28971 66.4387 10.6692 67.598C11.6112 66.383 12.8141 64.95 12.8141 63.145C11.5107 62.7094 10.3505 61.9271 9.45816 60.882C6.82116 62.033 2.24015 64.4209 6.00615 64.9539Z" fill="#D82F0E"/>
<path d="M10.053 66.581C8.68126 65.6075 7.12017 64.9332 5.47101 64.602C4.57801 64.413 4.71301 64.076 4.63901 63.922C4.42801 64.396 4.75502 64.777 6.00602 64.955C7.70902 65.5436 9.28953 66.4398 10.669 67.599C11.585 66.414 12.748 65.017 12.804 63.276C12.5018 64.1503 12.0927 64.984 11.586 65.758C11.32 66.208 10.458 66.94 10.053 66.581Z" fill="#FF917B"/>
<path d="M29.0982 70.03C28.4746 70.6744 27.9752 71.4284 27.6252 72.254C26.6382 74.465 26.1332 76.076 26.6872 78.604C27.4352 81.6155 28.354 84.582 29.4392 87.489C30.1242 89.505 31.1392 93.289 32.9642 94.575C33.7924 93.9145 34.5696 93.1924 35.2892 92.415C34.1394 88.688 33.4049 84.8454 33.0992 80.957C32.7192 77.17 32.0852 73.232 31.7992 69.501C31.3404 69.3586 30.8534 69.3323 30.382 69.4247C29.9105 69.517 29.4694 69.725 29.0982 70.03Z" fill="#7C1D04"/>
<path d="M31.838 69.957C31.826 69.805 31.806 69.65 31.796 69.5C31.3373 69.3579 30.8504 69.3319 30.3792 69.4244C29.9079 69.5169 29.467 69.725 29.096 70.03C28.4724 70.6745 27.9731 71.4284 27.6231 72.254C26.6361 74.465 26.131 76.076 26.685 78.604C27.433 81.6155 28.3518 84.582 29.437 87.489C30.122 89.505 31.137 93.289 32.962 94.575C33.593 94.003 34.362 93.414 34.962 92.768C32.573 90.942 32.426 87.584 31.362 84.617C30.3863 82.2343 29.8605 79.6914 29.811 77.117C29.85 74.592 30.987 72.728 31.674 70.349C31.7158 70.2134 31.7708 70.0821 31.838 69.957Z" fill="#60210C"/>
<path d="M27.5891 71.3849C26.5141 70.7319 24.8491 70.4449 23.6641 69.6849C22.6261 69.0199 17.764 66.862 16.519 66.99C16.725 70.638 20.142 75.1439 21.678 79.0389C23.288 82.6987 24.6622 86.4577 25.7921 90.2929C26.1991 91.8199 29.3811 91.5109 30.8751 94.4259L32.9641 94.576C32.9641 94.576 32.5241 91.7109 32.1941 90.5649C31.7841 89.1269 29.484 80.556 28.894 77.765C28.505 75.958 29.2291 72.3909 27.5891 71.3849Z" fill="#96110B"/>
<path d="M28.4822 72.7321C27.5746 72.9703 26.6349 73.0624 25.6982 73.005C28.5602 75.632 29.2112 80.293 29.8642 83.98C30.5102 87.627 31.9292 91.014 32.7532 94.561L32.9642 94.574C32.9642 94.574 32.5242 91.709 32.1942 90.563C31.7842 89.125 29.4842 80.5551 28.8942 77.7631C28.6172 76.4611 28.9132 74.2441 28.4822 72.7321Z" fill="#BC270A"/>
<path d="M16.82 66.163C15.48 67.378 18.96 71.463 20.927 72.463C23.1585 73.4364 25.6146 73.7778 28.027 73.45C30.086 73.222 31.891 69.333 31.891 69.333C30.681 68.521 28.032 68.197 26.14 66.942C23.688 65.315 20.669 63.636 20.669 63.636C19.284 64.94 18.114 64.989 16.82 66.163Z" fill="#D82F0E"/>
<path d="M16.82 66.17C15.48 67.385 18.96 71.47 20.927 72.47C23.1585 73.4434 25.6146 73.7849 28.027 73.457C29.657 73.275 31.127 70.799 31.67 69.78C28.941 73.123 26.461 73.557 21.344 71.721C19.812 71.178 16.312 68.896 17.188 65.869C17.066 65.954 16.943 66.051 16.82 66.17Z" fill="#FF917B"/>
<path d="M48.777 65.791C48.77 65.767 48.767 65.74 48.762 65.717L48.562 65.9311C48.6392 65.8934 48.7114 65.8464 48.777 65.791Z" fill="#88442E"/>
<path d="M47.4552 61.631L47.3452 61.7C47.3752 61.71 47.4042 61.71 47.4312 61.72C47.4392 61.69 47.4462 61.663 47.4552 61.631Z" fill="#7E3E29"/>
<path d="M23.639 46.359C22.5261 46.3626 21.4281 46.6159 20.426 47.1L19.739 45.9C19.6389 46.2935 19.515 46.6805 19.368 47.059C19.211 47.643 19.211 47.7271 18.674 47.9081C17.6899 48.1953 16.6877 48.4161 15.674 48.569C14.693 48.6508 13.7278 48.8661 12.805 49.209C12.2334 49.6748 11.7245 50.2125 11.291 50.809C11.799 50.48 12.381 50.203 12.913 49.888C13.4296 49.6299 13.9976 49.4909 14.575 49.481C14.6509 50.3771 14.6509 51.278 14.575 52.174C14.8696 51.457 15.0407 50.6952 15.081 49.9211C15.371 50.0211 15.608 50.182 15.906 50.272C15.7328 49.9588 15.532 49.6616 15.306 49.384C16.6 49.195 17.896 49.041 19.175 48.856C19.478 47.897 22.927 47.017 23.639 46.359Z" fill="#770303"/>
<path d="M49.4681 47.816C48.7681 48.096 47.9311 49.269 47.0901 49.841C46.7198 48.7739 46.4588 47.6719 46.3111 46.552C45.9251 49.36 46.3181 50.718 43.5331 52.058C43.3942 51.2813 43.1936 50.5168 42.9331 49.772C43.6751 48.949 44.4821 47.501 44.9881 46.998C44.2701 47.6985 43.5014 48.3449 42.6881 48.932C42.5798 48.7794 42.4796 48.6212 42.3881 48.458L41.7571 48.136C43.3801 50.644 41.3991 52.427 39.7911 54.16C40.8101 53.539 41.8781 53.338 42.8771 52.683C42.2771 54.514 42.4521 55.439 41.2011 56.802C40.2391 57.85 37.9581 58.738 37.6521 60.158C39.7111 60.511 38.8201 61.967 37.6651 62.895C38.1141 63.875 39.1651 64.059 39.6361 64.92C40.0561 65.688 39.8761 67.031 39.9971 67.839C40.4056 67.3608 40.6382 66.7573 40.6564 66.1286C40.6746 65.5 40.4773 64.884 40.0971 64.383C38.9591 62.712 38.4631 63.294 39.8831 61.349C39.5831 61.008 39.4961 60.349 39.1981 59.996C40.6396 59.1627 41.9111 58.0653 42.9461 56.761C44.1437 57.1197 45.3693 57.3765 46.6101 57.529C44.6101 56.518 41.6271 56.535 43.4161 53.656C44.5911 51.754 47.7311 50.951 49.4681 47.816Z" fill="#770303"/>
<path d="M28.2961 51.804C28.1021 51.056 29.1721 50.047 28.9631 49.304C28.5238 49.5803 28.1183 49.9072 27.7551 50.278L27.8451 50.084C26.6741 52.747 26.0091 53.263 24.7941 55.909C24.222 55.8489 23.645 55.8539 23.0741 55.924C23.6037 56.0437 24.1203 56.2156 24.6161 56.437C23.6461 57.811 23.0821 59.594 22.1621 60.907C23.2598 59.1166 24.4913 57.4117 25.8461 55.807C26.4641 55.215 26.9461 55.276 27.8051 54.88C27.2284 54.8239 26.6465 54.8576 26.0801 54.98C26.2807 54.1828 26.6869 53.4521 27.2581 52.861C28.0341 52.073 30.6581 51.597 31.7321 51.519C31.2761 51.482 30.8851 51.367 30.4431 51.291C30.9811 50.891 31.5331 50.479 32.0341 50.039C31.1851 50.013 29.0491 51.382 28.2961 51.804Z" fill="#770303"/>
<path d="M53.7211 54.226C55.3411 54.086 57.2921 56.433 58.7831 55.846C57.3981 55.389 55.6981 54.146 54.2421 54.01C54.9763 53.8509 55.6869 53.5975 56.3561 53.256C55.4944 53.3144 54.6375 53.43 53.7911 53.6021C53.8301 53.2681 53.8741 52.917 53.8911 52.574C54.6861 52.361 55.5411 52.1391 56.3311 51.8871C55.8011 51.8601 55.1091 51.845 54.5171 51.769C54.4631 51.001 57.1241 48.448 57.6461 47.938C57.1231 47.82 56.4921 46.354 55.9571 46.238C56.141 46.8166 56.2959 47.404 56.4211 47.998L54.3301 49.481C54.2371 50.669 53.3361 51.8911 53.0561 53.0041C52.615 53.1985 52.1926 53.4328 51.7941 53.704C51.5225 53.5061 51.2704 53.2828 51.0411 53.037C51.0959 52.556 51.2408 52.0896 51.4681 51.662C51.083 52.0621 50.7776 52.5318 50.5681 53.0461C50.1528 52.4194 49.5691 51.9227 48.8841 51.613C49.6015 52.3185 50.2753 53.0669 50.9021 53.8541C50.2541 54.8026 49.4804 55.6587 48.6021 56.399L48.6421 56.5681C48.6501 56.4451 48.6941 56.804 48.7131 56.885C49.073 56.5295 49.488 56.2343 49.9421 56.011C50.0282 56.7676 50.203 57.5114 50.4631 58.2271C50.2088 58.6501 49.9318 59.0591 49.6331 59.4521C49.3589 59.726 49.1139 60.0276 48.9021 60.3521C48.358 60.9742 47.7607 61.5477 47.1171 62.066C47.4827 62.6476 47.8863 63.2045 48.3251 63.7331C47.9571 65.0731 46.2411 66.161 45.5691 67.407C46.0396 67.0719 46.4814 66.6983 46.8901 66.29C47.3008 67.0434 47.6681 67.8197 47.9901 68.6151C47.6442 67.6811 47.4455 66.699 47.4011 65.704C47.4401 65.475 48.4151 64.416 48.5011 63.942C48.995 64.5128 49.5786 64.9992 50.2291 65.382C49.3065 64.5202 48.5045 63.5377 47.8451 62.4611C48.1321 61.9551 48.5451 61.271 49.0181 60.596C49.5705 60.7394 50.1348 60.8321 50.7041 60.873C50.502 60.3725 50.22 59.9081 49.8691 59.498C50.2034 59.0842 50.6022 58.727 51.0501 58.4401C50.9221 57.6861 50.3651 56.0521 50.8201 55.4311C51.6903 54.8275 52.6793 54.4167 53.7211 54.226Z" fill="#770303"/>
<path d="M35.3582 2.69108C29.8482 8.34408 30.2582 15.7741 29.0322 21.4961C27.5692 28.3221 25.2422 34.1641 18.7202 37.6671C15.8442 39.0781 11.0652 39.9861 11.4422 42.5811C11.8272 45.1921 15.6882 44.5181 17.4162 45.1141C20.5257 46.2016 23.8158 46.6794 27.1062 46.5211C28.5882 46.3911 30.2532 45.7411 31.7942 46.1511C32.9352 46.4561 34.1562 47.3831 35.3092 47.7951C38.9558 48.9643 42.8247 49.2683 46.6092 48.6831C48.2512 48.4571 50.1532 47.5931 51.5262 47.7461C52.9552 47.9081 54.6412 48.9731 56.2192 49.2011C59.8375 49.9011 63.5866 49.3277 66.8302 47.5781C70.2122 45.7021 76.4662 44.9841 78.9782 43.0301C80.7682 41.0241 68.9412 36.5201 63.2422 29.9301C56.9912 22.7111 56.4332 16.4671 53.3422 10.0111C51.8352 6.86005 50.2032 3.87405 47.1322 1.98905C44.4692 0.360052 37.4782 0.519078 35.3582 2.69108Z" fill="#E02107"/>
<path d="M22.2822 46.299C23.876 46.558 25.4943 46.6329 27.1052 46.522C28.5872 46.392 30.2522 45.742 31.7932 46.152C32.9342 46.457 34.1552 47.384 35.3082 47.796C36.3472 48.172 41.5422 48.743 42.6892 48.932C42.2332 41.116 39.6722 32.891 37.7892 25.208C35.0402 28.794 34.1122 33.463 31.6312 37.252C29.1236 40.839 25.9496 43.9105 22.2822 46.299Z" fill="#AF0202"/>
<path d="M37.6522 16.015C36.7522 15.129 31.8721 12.886 30.4891 12.556C29.8341 15.669 29.6151 18.776 29.0331 21.496C27.5701 28.322 25.2432 34.164 18.7212 37.667C15.8452 39.078 11.0662 39.986 11.4432 42.581C11.8282 45.192 15.6892 44.518 17.4172 45.114C20.5266 46.2017 23.8167 46.6794 27.1072 46.521C27.9932 46.445 28.8302 43.205 27.6182 43.078C24.9102 42.794 22.6082 41.924 22.5302 40.297C22.2892 35.353 27.6012 32.644 29.4132 28.571C31.6947 24.0985 34.4574 19.8883 37.6522 16.015Z" fill="#CC1717"/>
<path d="M45.8171 45.205C41.6171 45.321 37.7101 46.391 33.7061 44.763C31.2781 43.777 29.2431 42.583 26.4841 43.254C25.2833 43.5491 24.0612 43.7497 22.8291 43.854C20.12 44.218 17.3661 44.0546 14.7191 43.373C13.5168 43.0633 12.4456 42.3759 11.6631 41.412C11.4618 41.7653 11.384 42.1756 11.4421 42.578C11.8271 45.189 15.6881 44.515 17.4161 45.111C20.5252 46.1986 23.815 46.6763 27.1051 46.518C28.5871 46.388 30.2521 45.738 31.7931 46.149C32.9341 46.454 34.1561 47.381 35.3081 47.793C38.9548 48.9618 42.8236 49.2655 46.6081 48.68C48.2501 48.454 50.1521 47.59 51.5251 47.743C52.9541 47.905 54.6401 48.97 56.2181 49.198C59.8364 49.898 63.5854 49.3246 66.8291 47.575C70.2111 45.698 76.4651 44.981 78.9771 43.027C80.7671 41.021 68.9401 36.517 63.2411 29.927C57.1341 22.872 56.4561 16.749 53.5411 10.443C50.4511 12.443 50.5171 19.122 47.3411 16.287C43.4801 12.848 41.1921 20.848 41.0001 20.941C41.0571 26.751 46.9871 30.685 49.8581 35.531C51.0931 37.613 53.8581 40.443 52.3711 42.797C50.7801 45.318 48.6881 45.133 45.8171 45.205Z" fill="#CC1717"/>
<path d="M64.4222 45.3841C61.6782 46.0241 60.1882 48.484 57.5222 49.248C57.4092 49.278 57.2992 49.292 57.1902 49.317C60.5068 49.7942 63.8887 49.1837 66.8292 47.5771C70.2112 45.7001 76.4652 44.9831 78.9772 43.0291C80.7682 41.0221 68.9402 36.519 63.2412 29.929C57.5422 23.339 56.5652 17.5461 54.0782 11.6641C48.8872 14.0311 49.0542 20.5521 49.9782 26.0731C50.0627 26.1483 50.1308 26.2403 50.1782 26.343C51.5532 29.266 53.6662 27.188 56.1282 27.774C56.9537 27.935 57.7348 28.272 58.4185 28.7618C59.1022 29.2517 59.6723 29.8831 60.0902 30.6131C61.5548 33.0636 63.6729 35.0577 66.2072 36.3721C67.7133 37.0968 68.98 38.2383 69.8572 39.6611C70.1613 40.3101 70.2868 41.0285 70.2207 41.7421C70.1546 42.4558 69.8993 43.1389 69.4812 43.7211C68.0532 45.2741 66.3242 44.9401 64.4222 45.3841Z" fill="#AF0202"/>
<path d="M76.788 44.088C79.534 42.26 81.778 43.637 84.432 44.288C84.2387 42.9221 83.6352 41.6472 82.7015 40.6317C81.7678 39.6162 80.5479 38.9081 79.203 38.601C77.674 38.401 77.203 38.974 75.923 39.784C74.289 40.823 73.398 40.746 71.623 40.067C69.0162 38.9466 66.2575 38.2197 63.437 37.91C60.398 37.623 58.02 36.634 57.401 33.517C56.927 31.136 55.589 29.817 54.436 27.709C53.71 26.2952 53.1721 24.7924 52.836 23.239C52.591 19.866 52.026 15.983 53.442 14.439C54.905 13.734 56.633 19.105 57.126 19.739C62.064 17.084 53.252 4.71698 49.858 2.45098C46.405 0.142983 42.058 -0.416007 36.368 1.33599C31.4 2.87299 31.4 5.57699 29.268 14.75C27.631 21.797 24.835 28.074 27.211 27.818C29.925 27.518 30.157 14.473 33.029 14.561C33.377 17.273 32.408 20.476 31.797 23.241C30.557 27.051 29.765 29.912 28.938 32.053C27.286 36.317 21.602 34.553 17.497 37.134C15.4158 38.6071 12.9536 39.4481 10.406 39.556C7.63704 39.539 4.61304 40.913 4.23804 44.056C5.91704 42.966 10.495 43.211 12.611 43.219C15.392 43.227 18.36 43.025 20.336 40.88C21.455 39.667 21.487 39.167 23.385 39.007C24.824 38.884 27.961 39.199 31.885 34.94C33.354 32.3545 34.3369 29.5217 34.785 26.582C35.421 25.899 35.975 25.396 36.292 25.517C37.038 25.78 35.855 30.171 35.74 33.231C34.78 36.439 33.998 39.853 31.784 42.531C29.3249 45.2477 26.2479 47.3325 22.813 48.609C19.396 50.045 15.557 49.5 12.359 51.181C8.89304 52.998 9.33202 56.917 10.145 60.167C10.504 61.601 10.825 64.077 12.487 64.705C14.987 65.655 14.573 62.45 13.857 59.583C13.04 55.643 17.585 55.644 20.957 54.629C24.511 53.561 28.294 48.706 32.172 49.199C34.484 49.457 25.572 54.614 28.472 55.099C37.527 56.599 38.03 45.399 38.535 42.999C38.824 41.625 39.973 37.842 40.935 34.408C41.779 35.696 43.11 36.624 43.726 38.095C44.2435 39.5676 44.3048 41.162 43.902 42.67C43.472 45.561 43.526 48.725 46.426 50.316C49.165 51.816 52.326 51.254 53.697 54.739C54.1856 56.0331 54.1998 57.4584 53.737 58.762C53.369 59.903 52.546 60.971 53.187 62.226C53.747 63.32 55.055 63.169 55.522 64.29C56.072 65.59 54.928 67.155 54.795 68.413C54.319 72.902 58.374 67.964 59.081 66.44C59.928 64.623 61.719 60.254 60.102 58.64C59.1267 57.9144 58.3389 56.9662 57.804 55.8746C57.2692 54.783 57.0028 53.5794 57.027 52.364C56.899 49.014 54.661 47.884 51.904 46.557C50.5599 45.9926 49.4108 45.0465 48.5989 43.8358C47.787 42.625 47.3479 41.2027 47.336 39.745C47.208 36.929 48.382 33.663 47.115 30.967C46.423 29.509 44.715 28.88 44.091 27.312C43.656 26.219 44.16 20.955 44.327 19.975C49.055 16.023 46.966 25.358 48.801 27.775C48.801 27.804 48.801 27.831 48.801 27.856L48.901 27.903C49.1495 28.2225 49.4546 28.4937 49.801 28.703C50.839 29.786 51.927 30.959 51.951 32.454C51.9421 32.4101 51.9248 32.3683 51.9 32.331C51.925 32.383 51.935 32.431 51.956 32.481C51.956 32.52 51.964 32.554 51.964 32.592C51.9671 32.5565 51.9644 32.5207 51.956 32.486C52.965 35.091 50.577 37.741 54.285 39.516C56.629 40.637 60.095 39.616 62.199 41.327C64.516 43.215 62.729 46.538 65.628 48.151C68.048 49.499 68.846 47.527 71.549 48.47C73.6271 49.5985 75.5572 50.9804 77.295 52.584C78.07 53.443 77.769 55.704 78.986 55.655C80.025 55.611 80.981 52.965 81.217 52.214C81.759 50.469 81.507 50.079 80.301 49.025C79.358 48.195 78.421 47.393 77.466 46.549C76.122 45.357 75.145 45.182 76.788 44.088Z" fill="url(#paint2_linear_2_785)"/>
<path d="M36.3741 2.46906C35.7738 2.63892 35.1966 2.8814 34.6551 3.19107C33.7201 4.44107 32.9551 6.07306 36.4931 7.43506C37.5261 7.83506 44.6501 8.27406 47.3491 7.49606C50.8491 6.47706 50.8661 4.45305 49.8651 3.39005C49.7251 3.32105 49.1651 3.02006 49.0231 2.96506C45.5811 1.63906 42.0871 1.07206 36.3741 2.46906Z" fill="#FFA80D"/>
<path d="M43.0001 5.15795C40.9751 5.64895 38.5471 4.22995 36.5791 3.23095C35.7401 3.21895 33.8791 3.07092 33.9411 4.11492C33.9411 4.13892 33.9061 4.13495 33.8851 4.14495C33.7851 5.20995 34.3411 6.32694 36.4851 7.33294C37.5181 7.81594 44.6421 8.35095 47.3411 7.40695C48.6402 7.06777 49.7606 6.24497 50.4731 5.10693C50.4565 4.75137 50.4124 4.39766 50.3411 4.04895C49.2011 2.42195 44.1511 4.87595 43.0001 5.15795Z" fill="#F98B06"/>
<path d="M4.41414 42.187C3.78114 43.292 0.722149 44.72 1.11415 45.943C1.36415 46.719 3.79414 48.527 3.79414 48.527C6.33807 48.785 8.90299 48.7548 11.4401 48.437C12.6151 48.076 14.1912 47.698 14.3042 47.153C13.5312 44.931 13.0671 42.2 10.1431 41.896C7.12614 41.579 4.76714 41.566 4.41414 42.187Z" fill="#D83827"/>
<path d="M4.31527 42.327C3.52527 43.412 0.739271 44.769 1.11527 45.943C1.36527 46.719 3.79526 48.527 3.79526 48.527C6.33919 48.785 8.90411 48.7547 11.4413 48.437C12.6153 48.076 14.1923 47.698 14.3053 47.153C13.7943 45.68 13.4123 43.984 12.3593 42.916C11.3043 43.183 9.42428 43.545 8.38328 43.768C6.91326 43.7075 5.49561 43.2053 4.31527 42.327Z" fill="#FF8A8A"/>
<path d="M7.82008 44.251C7.80694 44.257 7.79245 44.2594 7.77808 44.258C8.22153 45.1526 8.73795 46.0092 9.32208 46.819C9.65808 47.419 10.0041 48.005 10.3351 48.603C10.7059 48.5804 11.074 48.5252 11.4351 48.438C12.6091 48.077 14.1861 47.699 14.2991 47.154C13.7681 45.625 13.3811 43.854 12.2401 42.797C12.0541 42.861 11.8701 42.929 11.6861 42.997C10.4299 43.5091 9.13773 43.9283 7.82008 44.251Z" fill="#8C190A"/>
<path d="M12.2621 42.818L12.2431 42.796C12.0571 42.86 11.8731 42.928 11.6891 42.996C10.432 43.5093 9.13882 43.9294 7.82008 44.253C7.80694 44.259 7.79245 44.2614 7.77808 44.26C8.22153 45.1547 8.73795 46.0112 9.32208 46.821C9.65808 47.421 10.0041 48.007 10.3351 48.605C10.7059 48.5825 11.074 48.5272 11.4351 48.44C11.6191 48.383 11.8151 48.327 12.0141 48.268C11.5701 47.7504 11.2284 47.1531 11.0071 46.508C10.8159 45.9411 10.7874 45.332 10.9249 44.7498C11.0624 44.1675 11.3604 43.6355 11.7851 43.2141C11.929 43.0649 12.089 42.9321 12.2621 42.818Z" fill="#772003"/>
<path d="M7.42208 44.048C6.20697 43.891 5.09789 43.2753 4.32207 42.327C3.53707 43.409 0.74306 44.769 1.12206 45.943C1.37206 46.719 3.80207 48.527 3.80207 48.527C6.346 48.785 8.91093 48.7547 11.4481 48.437C11.4951 48.42 11.5481 48.408 11.6001 48.39C11.3551 48.107 11.1241 47.821 10.9061 47.521C10.0671 46.348 9.13807 45.261 8.25307 44.134C7.97433 44.1258 7.69659 44.0971 7.42208 44.048Z" fill="#AD1505"/>
<path opacity="0.39" d="M3.33416 43.4199C3.40082 43.3426 3.48349 43.2479 3.58216 43.1359C3.69316 43.0129 3.80815 42.8909 3.92815 42.7769C4.07315 42.6419 4.21316 42.5039 4.35816 42.3769C4.34577 42.3608 4.33241 42.3454 4.31815 42.3309C3.53315 43.4129 0.739154 44.7729 1.11815 45.9469C1.36815 46.7229 3.79816 48.5309 3.79816 48.5309C4.26236 48.6138 4.73264 48.658 5.20415 48.6629C4.4865 48.4705 3.82362 48.1134 3.26816 47.6199C2.97244 47.3693 2.73384 47.0582 2.56844 46.7076C2.40304 46.357 2.31466 45.975 2.30925 45.5874C2.30385 45.1998 2.38156 44.8155 2.53713 44.4604C2.6927 44.1053 2.92253 43.7877 3.21116 43.5289C3.25816 43.4829 3.29316 43.4519 3.33416 43.4199Z" fill="#841203"/>
<path d="M7.74103 44.094C7.51803 45.542 7.64103 46.794 6.32703 47.916C5.97226 48.2105 5.58226 48.4597 5.16602 48.658C7.25893 48.7856 9.35927 48.7116 11.438 48.437C11.485 48.42 11.538 48.408 11.59 48.39C11.345 48.107 11.114 47.821 10.896 47.521C10.057 46.348 9.12801 45.261 8.24301 44.134C8.07512 44.129 7.90759 44.1157 7.74103 44.094Z" fill="#AF0202"/>
<path d="M10.8971 47.519V47.507C10.8611 47.466 10.8111 47.392 10.7571 47.323C10.7971 47.381 10.8361 47.435 10.8971 47.519Z" fill="#BE4922"/>
<path d="M10.7552 47.325C10.5962 47.104 10.4412 46.881 10.7552 47.325Z" fill="#BE4922"/>
<path d="M5.16602 48.659C6.37302 48.711 7.58202 48.715 8.78702 48.681C9.72894 48.7051 10.67 48.6077 11.587 48.3911C11.3457 48.1124 11.116 47.8251 10.898 47.5291L10.891 47.51C10.474 46.934 10.032 46.369 9.58502 45.81C9.34202 45.51 9.09402 45.204 8.84802 44.899C8.71002 44.727 8.38603 44.1431 8.14803 44.1331C8.18003 44.1821 10.77 47.275 10.105 48.247C9.67501 48.883 5.56302 48.468 5.16602 48.659Z" fill="#891506"/>
<path d="M10.8953 47.509V47.521C10.9403 47.578 10.9293 47.566 10.8953 47.509Z" fill="#BE4922"/>
<path d="M66.1021 54.36C66.8901 54.66 67.7171 54.181 68.5621 53.982C69.497 53.9125 70.42 53.7301 71.3111 53.439C70.8548 52.4096 70.4696 51.3501 70.1581 50.268C69.9011 49.268 69.9891 47.512 69.4781 46.704C69.1696 46.2413 68.713 45.897 68.1833 45.7275C67.6536 45.558 67.082 45.5734 66.5621 45.771C65.4381 46.048 63.9951 45.971 63.6481 47.16C63.4621 47.796 63.3661 48.453 63.1331 49.114C62.8163 49.7556 62.5336 50.4136 62.2861 51.085C62.3601 51.64 63.4392 52.385 63.8712 52.774C64.5162 53.4293 65.2713 53.9661 66.1021 54.36Z" fill="#7F2209"/>
<path d="M67.1653 51.252C67.7073 51.232 68.2473 51.232 68.7873 51.218C68.8637 49.637 69.0431 48.0627 69.3242 46.505C68.9946 46.1145 68.5531 45.8347 68.0593 45.7035C67.5655 45.5722 67.0432 45.5958 66.5633 45.771C65.4393 46.048 63.9963 45.971 63.6493 47.16C63.5853 47.378 63.5332 47.594 63.4792 47.816C63.9743 48.3187 64.4281 48.8605 64.8362 49.436C65.5812 50.471 65.8033 51.298 67.1653 51.252Z" fill="#D83827"/>
<path d="M67.1652 51.251C67.7072 51.231 68.2472 51.231 68.7872 51.217C68.8637 49.636 69.043 48.0617 69.3242 46.504C69.2732 46.438 69.2242 46.379 69.1652 46.318C69.1652 46.318 68.6332 49.555 68.5652 49.794C68.5652 49.794 67.2082 50.38 67.0022 50.105C66.1327 48.8358 65.042 47.7332 63.7822 46.85C63.7259 46.9473 63.6816 47.051 63.6502 47.159C63.5862 47.377 63.5342 47.593 63.4802 47.815C63.9754 48.3171 64.4296 48.8582 64.8382 49.433C65.5812 50.47 65.8032 51.297 67.1652 51.251Z" fill="#F9756B"/>
<path d="M68.5623 53.982C69.4971 53.9125 70.4202 53.7302 71.3112 53.439C71.0712 52.847 70.8373 52.286 70.6263 51.725C70.0003 51.264 69.4532 50.65 68.8882 50.139C68.4181 50.1412 67.9524 50.2296 67.5143 50.4C67.1898 50.566 66.8395 50.6756 66.4782 50.724C66.1782 51.865 66.0173 52.997 65.6873 54.156C65.8216 54.2307 65.9601 54.2974 66.1022 54.356C66.8902 54.659 67.7173 54.181 68.5623 53.982Z" fill="#6D1808"/>
<path d="M66.4462 53.2651C66.5177 52.9741 66.6207 52.6918 66.7532 52.4231C66.8759 52.096 67.0599 51.7953 67.2952 51.537C67.4172 51.377 67.5522 51.2161 67.6902 51.0591C68.0749 50.6809 68.5613 50.4231 69.0902 50.3171C69.0222 50.2561 68.9582 50.1941 68.8902 50.1331C68.4201 50.1352 67.9544 50.2237 67.5162 50.3941C67.1917 50.56 66.8414 50.6696 66.4802 50.7181C66.1802 51.8591 66.0192 52.9911 65.6892 54.1501C65.8236 54.2247 65.9621 54.2915 66.1042 54.3501C66.1552 54.366 66.2069 54.3794 66.2592 54.3901C66.2968 54.0114 66.3593 53.6356 66.4462 53.2651Z" fill="#631A02"/>
<path d="M66.0991 54.355C66.2991 53.0797 66.611 51.8246 67.0311 50.604C66.9851 50.509 66.2311 49.478 65.8751 49.04C65.5811 48.674 64.9941 48.193 64.7011 47.825C64.35 47.5481 64.0414 47.2213 63.7851 46.855C63.7258 46.9497 63.6804 47.0524 63.6501 47.16C63.4641 47.796 63.3681 48.453 63.1351 49.114C62.8182 49.7556 62.5355 50.4135 62.2881 51.085C62.3621 51.64 63.4411 52.385 63.8731 52.774C64.5158 53.4284 65.2695 53.9637 66.0991 54.355Z" fill="#A30404"/>
<path d="M39.5322 6.66196C38.5749 6.70865 37.6225 6.49815 36.7741 6.05237C35.9256 5.60659 35.2119 4.94177 34.7072 4.12695C34.3782 5.57995 35.9362 7.26396 37.4582 7.88196C39.1782 8.58196 42.6132 8.45093 44.4102 8.25793C44.7512 8.21893 49.4932 7.18295 49.4742 4.12695C48.6593 4.87923 47.7443 5.51523 46.7552 6.01694C45.0652 6.67494 43.8902 6.98096 39.5322 6.66196Z" fill="#DD5E00"/>
<path d="M35.3952 3.50598C35.3342 5.57498 39.1953 2.949 40.5103 2.767C42.7583 2.451 45.0103 3.51799 47.0783 3.10999C49.0193 1.32699 36.0422 0.334985 35.3952 3.50598Z" fill="#F9E316"/>
<path d="M33.3961 6.09998C30.6621 8.11198 30.0961 12.852 29.3271 15.795C28.6171 18.515 26.4841 23.686 27.7661 26.377C29.0661 25.277 29.0981 21.877 29.3661 20.184C29.7189 17.8987 30.223 15.6394 30.8751 13.421C31.1086 12.3479 31.4607 11.3041 31.9251 10.309C32.7791 8.78996 32.6611 9.21496 34.1171 9.21896C34.9781 9.21896 36.4341 9.87896 35.8171 8.06296C35.5631 7.30096 34.0041 6.36298 33.3961 6.09998Z" fill="url(#paint3_linear_2_785)"/>
<path d="M56.1652 69.157C57.2343 68.2143 57.9459 66.932 58.1802 65.526C58.6882 63.471 58.2102 63.499 57.0382 62.046C55.3132 59.925 56.2872 56.656 55.7662 53.992C55.5022 52.7262 54.952 51.5375 54.1576 50.5173C53.3632 49.497 52.3457 48.6722 51.1832 48.106C48.5292 46.606 46.8012 45.106 45.8832 42.106C44.8442 38.686 45.9002 34.57 44.0962 31.277C43.1412 29.539 42.3382 28.908 42.0422 26.93C41.7802 25.158 42.0792 23.035 41.6422 21.3C40.1642 20.573 40.0022 22.989 40.0292 24.008C40.4492 26.993 40.0852 30.501 42.4892 32.599C45.5792 35.287 44.3332 45.488 47.3422 47.508C49.0422 48.657 53.6232 50.696 53.8932 52.571C54.2591 54.3855 54.5262 56.2185 54.6932 58.062C54.6272 58.896 53.9832 59.876 53.9662 60.625C53.9052 62.95 56.5342 62.042 56.8532 64.236C57.1102 65.97 55.3282 67.163 56.1652 69.157Z" fill="url(#paint4_linear_2_785)"/>
<path d="M52.1622 11.395C52.8932 11.3687 53.6153 11.5628 54.2346 11.9521C54.8539 12.3414 55.3419 12.9078 55.6352 13.578C56.3598 14.8379 57.0151 16.1366 57.5982 17.468C58.1982 18.847 58.0202 20.7739 59.4492 21.6069C58.8372 20.3069 58.9072 18.6879 58.4202 17.3869C57.8802 15.9589 57.1042 14.6569 56.5502 13.2319C56.1702 12.2479 55.2642 10.753 54.8402 9.89796C53.5402 7.22696 52.0342 5.03794 49.9992 6.30494C49.7752 9.33594 43.5752 10.005 41.3742 10.117C37.5372 10.323 35.0972 8.75696 34.2382 13.406C34.2382 13.543 34.2332 13.681 34.2282 13.816C33.7714 15.848 33.4706 17.9121 33.3282 19.99C32.9842 23.171 31.5282 25.1149 30.4002 28.0289C29.4382 30.5049 29.9862 32.997 27.5212 34.666C25.0762 36.325 22.8052 36.5049 19.9812 37.1719C18.0082 37.6389 16.7602 38.7719 15.0452 39.7369C13.1632 40.7919 11.2452 40.1009 9.39718 40.8739C10.8732 42.7929 15.4772 40.074 17.0622 39.234C19.4772 37.95 21.6172 37.7659 24.1462 36.9559C29.7722 35.1439 31.0582 30.156 33.3732 25.52C34.2011 23.7554 34.7874 21.8872 35.1162 19.966C35.4592 20.166 35.8792 20.266 36.0272 20.575C36.6092 21.763 35.8402 23.5599 35.8842 24.9299C35.9292 26.1749 36.2062 27.43 36.2592 28.766C36.4592 34.201 35.2592 38.5369 31.9122 42.6979C30.2062 44.8239 28.1492 45.673 25.7952 46.824C24.6242 47.393 23.8562 48.436 22.7302 49.024C21.6042 49.612 19.8362 49.624 18.6612 49.934C16.2089 50.5592 13.8213 51.415 11.5302 52.49C9.09717 53.708 7.80718 57.7449 10.6172 59.4609C11.3592 57.8919 10.2982 55.769 11.2042 54.174C12.7412 51.467 16.6882 52.321 19.2042 51.761C21.8212 51.177 24.9852 49.439 27.4742 48.329C29.1112 47.595 30.4882 47.4669 31.7322 45.9869C32.5622 44.9979 33.1322 43.737 33.9172 42.666C35.7702 40.142 36.2862 37.528 36.9762 34.431C38.2992 28.547 37.2762 22.2309 38.4372 16.3309C39.0832 13.0309 40.6532 12.316 43.7492 11.579C44.0932 11.5 44.6232 11.409 45.2612 11.319C49.9492 13.325 46.6412 22.453 49.0982 26.162C49.8032 27.222 51.1522 27.932 51.6212 29.122C51.9337 30.4413 52.1169 31.788 52.1682 33.143C52.7252 36.805 53.1252 37.249 56.5102 38.497C58.3441 39.0153 60.1308 39.688 61.8512 40.5079C63.6942 41.6079 63.7512 43.1709 64.2592 45.0079C65.7312 45.0079 65.9332 42.895 65.6512 41.682C66.3412 41.825 67.0702 41.8709 67.7332 42.0299C68.9332 42.3149 70.0502 42.837 71.2332 43.164C72.394 43.8528 73.4666 44.6806 74.4272 45.6289C75.5982 46.8709 77.1272 50.406 79.1982 49.944C79.2742 48.634 77.3282 47.5439 76.4342 46.7239C74.9952 45.4239 74.9342 44.578 74.4012 43.141C74.8842 42.5552 75.4245 42.0192 76.0142 41.541C77.1142 40.847 80.2282 41.517 81.4022 40.976C82.1932 40.615 79.8802 39.716 79.1142 39.429C78.4472 39.183 77.8062 39.601 77.2272 39.868C76.4462 40.231 76.2332 40.121 75.6562 40.632C75.007 41.209 74.1624 41.5169 73.2942 41.493C71.8882 41.5913 70.4763 41.4258 69.1312 41.005C67.8596 40.3954 66.5467 39.8761 65.2022 39.451C64.5302 39.259 62.5412 38.3589 61.8662 38.4219C60.4347 37.6324 58.9066 37.0327 57.3202 36.638C56.3819 36.4517 55.5261 35.9747 54.8741 35.2747C54.2222 34.5747 53.8072 33.6871 53.6882 32.738C52.9622 31.073 53.1022 27.476 50.5632 25.238C49.4102 24.227 49.5632 21.608 49.7752 20.169C50.0532 18.259 50.8112 16.863 50.3752 14.828C50.2108 14.1492 49.9914 13.485 49.7192 12.842C49.895 12.3546 50.235 11.9437 50.6808 11.6797C51.1265 11.4156 51.6503 11.315 52.1622 11.395Z" fill="url(#paint5_linear_2_785)"/>
<defs>
<linearGradient id="paint0_linear_2_785" x1="54.8398" y1="25.236" x2="73.4" y2="25.236" gradientUnits="userSpaceOnUse">
<stop offset="0.055" stop-color="#FFC931"/>
<stop offset="0.388" stop-color="#FFAA00"/>
<stop offset="1" stop-color="#FF6315"/>
</linearGradient>
<linearGradient id="paint1_linear_2_785" x1="56.9972" y1="11.7553" x2="57.0828" y2="11.7553" gradientUnits="userSpaceOnUse">
<stop offset="0.055" stop-color="#FFC931"/>
<stop offset="0.388" stop-color="#FFAA00"/>
<stop offset="1" stop-color="#FF6315"/>
</linearGradient>
<linearGradient id="paint2_linear_2_785" x1="44.335" y1="0.306885" x2="44.335" y2="70.2545" gradientUnits="userSpaceOnUse">
<stop offset="0.055" stop-color="#FFC931"/>
<stop offset="0.388" stop-color="#FFAA00"/>
<stop offset="1" stop-color="#FF6315"/>
</linearGradient>
<linearGradient id="paint3_linear_2_785" x1="31.6647" y1="6.09998" x2="31.6647" y2="26.377" gradientUnits="userSpaceOnUse">
<stop offset="0.055" stop-color="#FFFC3C"/>
<stop offset="0.461" stop-color="#FFEC21"/>
<stop offset="1" stop-color="#FFAD2C"/>
</linearGradient>
<linearGradient id="paint4_linear_2_785" x1="49.2042" y1="21.1658" x2="49.2042" y2="69.157" gradientUnits="userSpaceOnUse">
<stop offset="0.055" stop-color="#FFFC3C"/>
<stop offset="0.461" stop-color="#FFEC21"/>
<stop offset="1" stop-color="#FFAD2C"/>
</linearGradient>
<linearGradient id="paint5_linear_2_785" x1="45.2943" y1="5.93567" x2="45.2943" y2="59.4609" gradientUnits="userSpaceOnUse">
<stop offset="0.055" stop-color="#FFFC3C"/>
<stop offset="0.461" stop-color="#FFEC21"/>
<stop offset="1" stop-color="#FFAD2C"/>
</linearGradient>
</defs>
</svg>
