<svg width="90" height="98" viewBox="0 0 90 98" fill="none" xmlns="http://www.w3.org/2000/svg">
<path d="M33.937 1.79472C28.427 7.44772 28.837 14.8777 27.611 20.5997C26.148 27.4257 23.821 33.2677 17.299 36.7707C14.423 38.1817 9.64403 39.0897 10.021 41.6847C10.406 44.2957 14.267 43.6217 15.995 44.2177C19.1045 45.3052 22.3946 45.783 25.685 45.6247C27.167 45.4947 28.832 44.8447 30.373 45.2547C31.514 45.5597 32.735 46.4867 33.888 46.8987C37.5346 48.0679 41.4035 48.3719 45.188 47.7867C46.83 47.5607 48.732 46.6967 50.105 46.8497C51.534 47.0117 53.22 48.0767 54.798 48.3047C58.4163 49.0047 62.1654 48.4313 65.409 46.6817C68.791 44.8057 75.045 44.0877 77.557 42.1337C79.347 40.1277 67.52 35.6237 61.821 29.0337C55.57 21.8147 55.012 15.5707 51.921 9.11474C50.414 5.96369 48.782 2.97769 45.711 1.09269C43.048 -0.53631 36.057 -0.377284 33.937 1.79472Z" fill="black"/>
<path d="M55.3403 19.2577C55.4333 22.0857 56.8203 23.6897 58.2203 26.0247C60.1342 29.3121 62.5576 32.275 65.4003 34.8027C66.4123 35.6837 72.9533 39.8418 73.8273 38.2838C74.2913 37.4548 72.4083 35.6038 71.8023 35.2138C70.2553 34.2138 69.9192 34.4778 69.0162 32.7978C67.6862 30.3188 65.6933 29.2897 64.0773 27.1547C62.4773 25.0547 62.3072 22.3727 61.2442 19.9807C60.3192 17.9047 58.4443 13.5527 57.5823 11.8438C57.7773 12.9058 55.3033 17.9977 55.3403 19.2577Z" fill="url(#paint0_linear_58_2025)"/>
<path d="M57.5831 11.843C57.581 11.8095 57.5724 11.7769 57.5576 11.7469C57.5429 11.7168 57.5223 11.69 57.4971 11.668C57.5241 11.72 57.5531 11.784 57.5831 11.843Z" fill="url(#paint1_linear_58_2025)"/>
<path d="M22.0402 33.8516C22.0278 34.3446 21.9787 34.836 21.8932 35.3216L21.8242 35.3556C22.0652 35.4826 22.6692 35.1966 22.9782 35.1816C23.3932 35.1596 23.9132 35.3676 23.8182 34.8286C23.6582 33.9006 22.7362 33.3606 22.2762 32.6016C22.2172 33.0086 22.0842 33.4196 22.0402 33.8516Z" fill="#6B0C03"/>
<path d="M71.863 41.1273H72.018C71.9694 41.091 71.9186 41.0576 71.8661 41.0273C71.8661 41.0573 71.863 41.0913 71.863 41.1273Z" fill="#6B0C03"/>
<path d="M70.3082 40.8619C70.8672 40.8819 71.3912 40.7249 71.8662 41.0219C71.8802 39.7819 72.0722 38.5679 72.0502 37.3769C71.7192 37.2769 70.8762 37.9769 70.5502 38.1459C69.9055 38.395 69.3127 38.7619 68.8022 39.2279C68.3572 39.7229 68.1142 40.1559 68.7922 40.5169C69.2653 40.7441 69.7834 40.862 70.3082 40.8619Z" fill="#6B0C03"/>
<path d="M87.5972 46.6203L86.5252 46.2453C83.6332 45.4283 80.3252 45.4233 77.2832 45.2583C70.6611 44.814 64.0366 46.0885 58.0522 48.9583C51.7392 52.0313 44.5942 57.6823 42.2942 64.7283C40.6772 69.6673 39.4662 75.4063 40.2492 80.6383C41.0742 86.1833 43.9922 91.6593 43.9282 97.2713C47.0042 96.5883 49.3902 92.8533 52.5982 91.7713C52.5982 91.7713 55.0582 93.4113 58.2492 90.6413C62.5492 86.8983 66.8922 82.5703 72.0022 81.1413C77.6672 79.5623 79.9402 73.5413 82.9372 71.7083C85.3772 65.9923 82.2652 64.7893 84.6252 60.5273C87.5972 55.1553 85.9802 51.1803 87.5972 46.6203Z" fill="#7A0D05"/>
<path d="M56.796 91.4626C56.8272 91.5069 56.856 91.553 56.882 91.6006C57.3733 91.3349 57.8335 91.0153 58.254 90.6476C59.754 89.3396 61.259 87.9656 62.802 86.6646C62.92 84.5586 63.281 82.4406 63.602 80.3066C63.973 77.8346 64.517 74.8776 63.516 72.4796C63.079 71.4246 60.43 69.4336 60.43 69.4336C59.537 72.0546 59.441 77.2876 58.778 79.9716C58.142 82.5536 57.546 85.1586 57.124 87.7886C56.9559 88.7347 56.838 89.689 56.771 90.6476C56.7551 90.9195 56.7635 91.1922 56.796 91.4626Z" fill="#6B0C03"/>
<path d="M60.5582 71.7656C60.5242 78.0006 60.3372 85.1356 58.6582 90.2926C59.7162 89.3666 60.7812 88.4176 61.8582 87.4846C62.0992 85.6946 62.4012 83.9106 62.6682 82.1136C63.0832 79.2686 61.1492 74.2246 60.5582 71.7656Z" fill="#560202"/>
<path d="M77.8982 68.1076C77.2992 71.468 76.9373 74.8664 76.8152 78.2776C79.3152 75.9066 80.9702 72.9146 82.9372 71.7136C85.3772 65.9976 82.2652 64.7946 84.6252 60.5326C87.5972 55.1596 85.9802 51.1836 87.5972 46.6246L86.5262 46.2496C86.4382 46.2256 86.3452 46.2086 86.2612 46.1836C84.4692 47.1996 82.7432 48.3146 81.0472 49.4836C82.2602 49.5386 83.4574 49.7811 84.5962 50.2026C84.8733 50.2973 85.1249 50.4543 85.3317 50.6615C85.5385 50.8688 85.695 51.1208 85.7891 51.398C85.8832 51.6753 85.9124 51.9705 85.8745 52.2608C85.8365 52.5511 85.7324 52.8289 85.5702 53.0726C84.2522 58.7486 79.1452 62.4166 77.8982 68.1076Z" fill="#6B0C03"/>
<path d="M86.0852 56.957C84.5702 59.596 82.8742 62.114 81.1422 64.605C80.1832 68.179 79.1512 71.735 78.2732 75.321C79.8522 72.5846 81.7468 70.0428 83.9182 67.748C84.0392 65.068 82.9392 63.577 84.6252 60.532C85.2523 59.4027 85.7425 58.2025 86.0852 56.957Z" fill="#560202"/>
<path d="M43.5322 69.9353C43.4164 69.9484 43.2997 69.9525 43.1832 69.9473C42.9272 76.5153 42.8273 83.0872 42.6353 89.6572C43.4363 92.1201 43.8722 94.6871 43.9292 97.2764C45.446 96.8009 46.8315 95.9792 47.9762 94.8763C47.9512 94.4573 47.9273 94.0423 47.9023 93.6243C47.8805 91.6521 47.596 89.6915 47.0562 87.7943C46.5142 86.2423 45.5373 84.7242 45.2473 83.0882C44.2853 77.6172 46.3222 73.1642 49.5652 69.1562C47.5952 69.5082 45.5822 69.6543 43.5322 69.9353Z" fill="#6B0C03"/>
<path d="M65.6102 84.4463C66.7251 83.6269 67.9054 82.9005 69.1392 82.2743C69.2302 80.8743 69.3392 79.4683 69.5242 78.0743C70.0421 74.8779 70.9097 71.7482 72.1112 68.7413C73.1112 65.8943 72.4182 62.8503 73.3782 60.0413C74.1342 57.8293 75.1722 55.8413 75.7402 53.6523C74.4328 54.4159 72.9537 54.8367 71.4402 54.8753C69.7949 54.6879 68.1295 54.7894 66.5192 55.1753C66.6192 55.1403 61.8432 56.2993 63.0272 56.8363C63.6604 56.9562 64.2838 57.1234 64.8922 57.3363C65.0402 57.3953 68.7182 57.2523 68.7182 57.2523C66.0252 63.6583 66.6092 73.0643 66.0872 79.8523C65.9742 81.3943 65.8162 82.9303 65.6102 84.4463Z" fill="#6B0C03"/>
<path d="M65.6102 84.4465C65.9022 84.2375 66.1922 84.0326 66.4862 83.8356C66.6292 81.1136 67.0022 78.4135 67.3042 75.6915C67.6282 72.7605 67.7532 69.8155 68.3322 66.9195C69.3322 61.9535 70.4852 58.4416 74.4262 55.1256C74.7079 54.8816 75.0562 54.7277 75.4262 54.6835C75.5372 54.3425 75.6452 53.9965 75.7382 53.6445C74.4309 54.4082 72.9517 54.8289 71.4382 54.8675C69.7929 54.6801 68.1276 54.7817 66.5172 55.1676C66.6172 55.1326 61.8412 56.2916 63.0252 56.8286C63.6585 56.9485 64.2819 57.1156 64.8902 57.3286C65.0382 57.3876 68.7162 57.2446 68.7162 57.2446C66.0232 63.6506 66.6072 73.0566 66.0852 79.8446C65.9742 81.3946 65.8162 82.9305 65.6102 84.4465Z" fill="#560202"/>
<path d="M54.769 76.1499C56.084 72.5079 55.6181 68.9019 58.0601 65.2859C58.6201 64.4609 62.424 59.8999 62.567 58.9609C59.788 60.0189 51.754 65.5929 50.238 68.2349C50.6263 71.1377 50.8364 74.0615 50.8671 76.9899C50.8451 79.9459 50.484 82.8559 50.872 85.7969C51.159 87.9649 51.5661 90.1409 51.8621 92.3069C52.1264 92.1606 52.4 92.0317 52.6811 91.9209C52.6422 89.6078 52.8721 87.298 53.3661 85.0379C53.8121 81.9719 53.702 79.1229 54.769 76.1499Z" fill="#6B0C03"/>
<path d="M57.4701 62.8634C57.4921 62.7234 57.5041 62.5764 57.5291 62.4414C54.5774 63.4932 52.0568 65.4921 50.3601 68.1264C50.699 71.0366 50.8606 73.9646 50.8441 76.8944C50.7731 79.8474 50.3631 82.7504 50.7021 85.7034C50.9501 87.8754 51.3201 90.0534 51.5851 92.2234C51.8211 92.1034 52.0661 91.9954 52.3121 91.8954C52.0931 86.4444 52.0201 80.9824 52.2171 75.5264C52.4051 70.3054 54.8531 67.1004 57.4701 62.8634Z" fill="#560202"/>
<path d="M43.1971 65.1302C40.8721 58.7452 31.3291 53.0303 25.4711 50.2823C19.6131 47.5343 11.6711 47.5433 5.32413 47.2343C3.76722 47.2339 2.21831 47.0117 0.724121 46.5742C0.724121 51.6822 0.901128 57.1442 3.28113 61.5082C4.26313 63.3082 5.31413 70.1282 7.36613 74.0082C8.75813 76.6372 10.1761 76.0412 12.3881 76.9392C15.8521 78.3452 17.5821 83.2593 23.4531 86.4883C25.5461 87.6423 26.8581 90.5882 31.2161 92.0352C33.0237 92.5248 34.9154 92.6203 36.7631 92.3152C39.2961 93.3362 39.3801 95.7003 43.9301 97.2693C44.0751 92.1903 43.6211 86.9692 43.6211 81.5552C43.6191 76.6682 44.8491 69.6482 43.1971 65.1302Z" fill="#AA2805"/>
<path d="M19.7312 83.8163C20.8592 84.8555 22.1086 85.7546 23.4522 86.4942C24.7142 87.1942 25.6952 88.5333 27.2272 89.8083C26.0711 87.0904 25.1185 84.2904 24.3772 81.4313C23.4772 77.7003 23.1332 73.7513 22.1162 70.0312L22.0972 70.1464C22.6692 72.2601 22.8455 74.4614 22.6172 76.6393C22.6372 79.7983 21.9802 82.7113 19.7312 83.8163Z" fill="#161515"/>
<path d="M43.5172 70.6607C42.6375 69.8892 41.6224 69.2877 40.5232 68.8867C40.5382 68.9677 40.5532 69.0627 40.5692 69.1717C40.6062 69.3017 40.6472 69.4297 40.6872 69.5547C40.8308 69.6702 40.9579 69.8048 41.0652 69.9547C44.0012 74.0877 42.8222 79.1047 42.9902 83.8247C43.1352 87.8947 43.6682 91.9427 43.9472 96.0047C43.9942 91.3187 43.6202 86.5157 43.6202 81.5547C43.6202 78.4797 44.1062 74.5547 44.0542 70.9457C43.8609 70.8805 43.6795 70.7842 43.5172 70.6607Z" fill="#CC2206"/>
<path d="M40.1772 95.1521C39.8952 91.7721 39.4872 88.4031 39.3652 85.0021C39.3092 83.4531 39.4442 81.7711 39.5152 80.0761C38.5618 77.2986 37.8465 74.445 37.3772 71.5461C36.6512 69.4941 36.0082 67.1721 37.4662 66.0201C37.825 65.7306 38.2309 65.505 38.6662 65.3531C38.3981 65.1837 38.1094 65.0493 37.8072 64.9531C36.7141 65.5739 35.5224 66.0021 34.2842 66.2191C36.3763 72.0911 37.3781 78.296 37.2402 84.5281C37.2668 84.5855 37.2905 84.6443 37.3112 84.7041C37.5372 85.8338 37.4902 87.0012 37.1742 88.1091C37.1914 88.2062 37.2004 88.3045 37.2012 88.4031C37.2141 89.7442 37.1329 91.0844 36.9582 92.4141C38.3342 93.0391 38.9842 94.0801 40.1772 95.1521Z" fill="#CC2206"/>
<path d="M1.30316 46.7481C1.11116 46.7011 0.917168 46.6481 0.722168 46.5781C0.722168 51.6861 0.899175 57.1481 3.27917 61.5121C4.26117 63.3121 5.31217 70.1321 7.36417 74.0121C7.59379 74.5602 7.94736 75.0477 8.39709 75.4362C8.84683 75.8246 9.38049 76.1036 9.95618 76.2511C7.87418 71.9281 4.09716 65.3131 6.38516 60.9451C5.18471 59.953 4.08232 58.848 3.09317 57.6451C2.41517 55.8065 2.04061 53.8699 1.98416 51.9111C1.90786 50.4538 1.94899 48.9928 2.10716 47.5421C1.81859 47.2991 1.54975 47.0336 1.30316 46.7481Z" fill="#CC2206"/>
<path d="M16.5282 80.4819C16.6282 78.2109 16.7952 75.934 16.8052 73.653C16.8302 68.459 14.5572 63.4339 16.4762 58.4009C16.0709 58.0069 15.7028 57.5764 15.3763 57.1149C14.3175 56.3821 13.2214 55.7049 12.0923 55.0859C12.071 55.8061 12.0126 56.5248 11.9172 57.239C11.9252 57.32 11.9343 57.3989 11.9413 57.4819C12.8956 60.3946 13.5801 63.3889 13.9862 66.4269C14.0579 66.5742 14.1101 66.7302 14.1412 66.8909C14.2762 67.6229 14.4162 68.344 14.5412 69.071C14.711 69.3415 14.8068 69.6518 14.8192 69.9709C15.0992 72.9569 15.1993 75.957 15.1192 78.9549C15.5832 79.4259 16.0472 79.9339 16.5282 80.4819Z" fill="#CC2206"/>
<path d="M14.1952 51.527C12.5612 51.262 8.55721 50.744 8.18921 50.754C8.38703 53.6954 8.83126 56.6149 9.51721 59.482C10.3392 62.493 11.8862 65.145 12.8632 68.082C13.9663 71.6228 14.7258 75.2616 15.1312 78.948C15.4132 79.238 15.6932 79.542 15.9802 79.864C15.9707 73.9343 15.4015 68.0188 14.2802 62.196C13.5612 58.875 13.2302 57.79 12.9642 55.677C13.2432 55.287 14.4772 51.596 14.1952 51.527Z" fill="#140C0B"/>
<path d="M14.1942 51.5272C12.5612 51.2622 3.46224 48.3952 3.09424 48.4142C4.31724 50.5142 7.48322 52.1032 8.62622 52.4252C11.5622 53.4542 11.5392 55.3932 12.0822 57.6852C12.7942 60.6902 13.4622 63.7482 14.0772 66.7852C15.0548 70.9671 15.5888 75.2404 15.6702 79.5342C15.7702 79.6452 15.8782 79.7522 15.9802 79.8702C15.9707 73.9405 15.4015 68.0249 14.2802 62.2022C13.5612 58.8812 13.2912 57.6912 13.0252 55.5772C13.3032 55.1792 14.4762 51.5972 14.1942 51.5272Z" fill="#6B0C03"/>
<path d="M41.5031 63.5666C38.5031 63.6456 29.2111 62.2506 29.9181 64.1406C32.0181 67.1996 34.2092 71.7106 35.5982 80.2986C36.2532 84.3356 36.2981 88.2586 36.7611 92.3186C36.9371 92.3976 37.4011 92.6356 37.5531 92.7286C37.7721 90.5766 38.0531 88.4156 38.2401 86.2236C38.7551 80.0676 36.7111 73.1796 36.1561 67.0736C36.1561 67.0776 40.5311 64.8096 41.5031 63.5666Z" fill="#140C0B"/>
<path d="M41.501 63.5702C38.501 63.6492 24.26 58.0542 21.425 59.0632L24.859 61.5232C27.929 62.6992 32.807 66.9821 32.795 67.1171C33.495 67.5491 36.1081 73.6412 36.6021 76.1402C37.7701 81.5172 37.9541 87.0615 37.1451 92.5041C37.2851 92.5768 37.4184 92.6528 37.545 92.7321C37.764 90.5811 38.0451 88.4192 38.2321 86.2272C38.7471 80.0712 36.703 73.1831 36.148 67.0771C36.155 67.0771 40.531 64.8092 41.501 63.5702Z" fill="#6B0C03"/>
<path d="M70.1541 64.3189C69.9111 66.2679 70.8541 76.1679 70.3411 78.0009C72.1801 77.9419 71.7161 77.5129 73.5521 77.3329C75.0401 77.1889 78.3411 69.5378 79.7791 68.9948C81.2171 68.4518 84.0891 66.6949 84.9791 65.3819C85.8361 64.1129 85.7701 63.0729 86.4391 61.6979C87.1241 60.2979 87.8391 60.3139 88.7761 59.0619C89.7441 57.7739 87.8411 53.3008 87.8411 53.3008L80.5921 55.9349C79.8211 56.2659 79.0191 56.5409 78.2331 56.8529C77.8111 57.0239 77.3881 57.1909 76.9661 57.3529C75.279 58.0837 73.5531 58.7213 71.7961 59.2629C71.7421 59.2766 71.6868 59.2849 71.6311 59.2878C71.5084 59.3387 71.3732 59.3516 71.2431 59.3249L71.0931 59.3819C71.1205 60.2067 71.1065 61.0324 71.0511 61.8559C70.8981 62.7409 70.2671 63.4009 70.1541 64.3189Z" fill="#9B2405"/>
<path d="M73.8721 72.7579C73.4397 74.2879 73.1156 75.8464 72.9021 77.4219C73.0831 77.3879 73.2951 77.3589 73.5531 77.3309C73.7634 77.2896 73.956 77.1849 74.1051 77.0309C74.9253 74.1447 76.0908 71.368 77.5761 68.761C78.5897 66.7463 79.4586 64.662 80.1761 62.524C80.5081 61.56 81.0841 61.0139 79.3951 60.8699C78.5141 60.7959 77.6381 60.7419 76.7541 60.7109C77.9201 62.2669 78.9751 63.4479 77.9031 65.6639C76.7381 68.0709 74.5851 70.1569 73.8721 72.7579Z" fill="#B53512"/>
<path d="M73.697 77.2981C75.239 76.7171 78.383 69.5221 79.775 68.9921C81.208 68.4471 84.085 66.692 84.975 65.379C85.832 64.11 85.766 63.0711 86.435 61.6951C87.12 60.2951 87.835 60.311 88.772 59.059C89.741 57.771 87.837 53.2981 87.837 53.2981C87.837 53.0801 83.083 54.998 79.403 58.004C78.622 58.873 79.303 61.166 79.32 61.404C79.48 64.269 78.942 65.7661 76.772 68.9321C75.12 71.4485 74.068 74.3107 73.697 77.2981Z" fill="#771305"/>
<path d="M73.697 77.2987C74.385 77.0407 75.385 75.4747 76.409 73.7687C75.645 70.8257 77.809 68.0687 79.627 65.6687C80.0847 63.7984 80.7261 61.9778 81.542 60.2337C81.5178 60.2181 81.4947 60.2007 81.473 60.1817C81.296 60.0437 81.11 59.9137 80.924 59.7917C80.2987 59.7196 79.6651 59.7978 79.076 60.0197C79.154 60.6977 79.314 61.2907 79.322 61.4037C79.482 64.2687 78.944 65.7657 76.774 68.9317C75.1212 71.4483 74.0684 74.3108 73.697 77.2987Z" fill="#6B0C03"/>
<path d="M65.7782 86.5176C66.7402 85.8176 67.2562 81.4047 68.0062 78.2757C68.6622 75.5317 72.6062 71.6586 72.6942 68.8156L72.5642 68.9437C70.7212 67.3897 68.6342 69.0987 67.0202 69.7197C64.8422 70.5547 62.4672 69.8196 60.4202 69.4326C60.4181 71.3835 60.5602 73.3318 60.8452 75.2617C61.0192 77.2347 61.7952 85.5777 61.8452 87.4827C63.3042 87.9977 64.3992 87.5216 65.7782 86.5176Z" fill="#771305"/>
<path d="M66.0732 75.8367C67.2072 72.9967 70.3372 72.1137 72.4282 70.1247C72.5599 69.7514 72.6442 69.3631 72.6791 68.9688C70.773 70.6398 68.4116 71.7038 65.8972 72.0247C65.89 72.0891 65.8783 72.153 65.8622 72.2157C64.5368 77.2154 63.8837 82.3695 63.9201 87.5417C64.4143 87.3747 64.8826 87.1392 65.3112 86.8418C65.3162 84.5618 65.4481 82.2937 65.5881 80.0137C65.5406 78.605 65.7041 77.1971 66.0732 75.8367Z" fill="#6B0C03"/>
<path d="M64.414 87.3523C64.417 81.1715 65.3926 75.0297 67.305 69.1523C65.0568 69.7228 62.7142 69.8182 60.427 69.4323C60.425 71.3831 60.567 73.3314 60.852 75.2613C61.026 77.2343 61.802 85.5773 61.852 87.4823C62.2648 87.639 62.7057 87.7083 63.1467 87.686C63.5876 87.6636 64.0192 87.55 64.414 87.3523Z" fill="#9B2405"/>
<path d="M63.8652 87.5579C64.0525 87.5024 64.2356 87.4335 64.4132 87.3519C64.4424 82.3446 65.0851 77.3598 66.3271 72.5089C65.4069 72.6253 64.4721 72.5095 63.6082 72.1719C65.0082 74.1789 64.8842 76.1799 64.4842 78.5069C64.0545 81.5045 63.8476 84.5298 63.8652 87.5579Z" fill="#B53512"/>
<path d="M9.85815 66.0235C10.0492 68.0625 11.3352 70.8545 12.2042 72.8005C13.1833 74.931 14.0511 77.1109 14.8041 79.3315C15.0131 79.3315 15.4621 79.5405 15.6711 79.5315C15.7466 77.2588 15.6268 74.9837 15.3131 72.7315C14.4251 67.5985 13.9411 65.7085 13.3131 63.1445C12.2371 63.8535 11.0752 65.5395 9.85815 66.0235Z" fill="#161515"/>
<path d="M13.4001 63.4955C13.3751 63.3805 13.3441 63.2625 13.3141 63.1445C12.2371 63.8555 11.0752 65.5445 9.85815 66.0255C10.0492 68.0645 11.3352 70.8565 12.2042 72.8025C13.1833 74.933 14.0511 77.113 14.8041 79.3335C14.8723 79.3375 14.9395 79.3506 15.0042 79.3725C14.3312 76.5475 13.7252 73.7275 12.9542 70.9145C12.4924 69.7738 12.301 68.5416 12.3951 67.3145C12.8324 66.0706 13.1685 64.7935 13.4001 63.4955Z" fill="#60210C"/>
<path d="M5.12402 64.3751C6.92402 66.8291 9.04602 69.1681 10.208 71.9281C11.153 74.1661 12.339 78.6141 14.801 79.3281C13.848 75.4841 11.944 70.4281 11.168 67.5931C10.759 66.0801 7.98902 61.4591 5.12402 64.3751Z" fill="#140C0B"/>
<path d="M5.12416 64.375L5.07715 64.424C5.09415 64.402 5.11216 64.387 5.12416 64.375Z" fill="#140C0B"/>
<path d="M5.12402 64.3751C5.16502 64.4241 5.20303 64.4751 5.23903 64.5201C5.36148 64.5172 5.48307 64.5414 5.59503 64.5911C9.47803 66.2841 10.978 68.4381 12.146 72.4141C12.7496 74.3958 13.5142 76.3249 14.432 78.1821C14.5 78.3205 14.5608 78.4624 14.614 78.6071C13.614 74.8741 11.897 70.2571 11.168 67.5981C10.759 66.0801 7.98902 61.4591 5.12402 64.3751Z" fill="#BC270A"/>
<path d="M40.3811 91.439C40.2731 87.634 41.7811 83.239 42.5861 79.703C40.6221 79.759 40.2961 77.265 39.7061 75.678C39.1291 74.132 38.7541 72.099 38.2631 70.778L38.0371 70.668C38.6241 72.435 38.6601 74.563 39.1811 76.468C39.3836 77.2876 39.6425 78.0922 39.9561 78.876C40.0549 79.1957 40.2059 79.4967 40.4031 79.767C40.6461 80.035 41.1721 80.067 41.2961 80.322C41.5021 80.764 40.9371 81.952 40.7961 82.46C40.5197 83.3334 40.3784 84.2439 40.3771 85.16C40.3771 86.306 40.4281 87.467 40.3771 88.609C40.3351 89.466 40.0251 90.639 40.3811 91.439Z" fill="#140C0B"/>
<path d="M21.0952 64.1443C20.9522 63.4023 20.7812 59.7853 20.5702 59.0633C19.9902 58.6833 18.8942 58.7583 18.2352 58.5363C17.8352 58.4033 16.3482 58.2003 16.5612 58.4303L16.4502 58.3203C16.5607 60.2921 16.5607 62.2685 16.4502 64.2403C16.9162 64.1493 17.7392 61.3753 18.2622 61.4173C18.4499 62.7106 18.4066 64.0271 18.1342 65.3053C19.5602 66.1343 19.0342 67.3753 18.9002 68.7533C18.7482 70.3363 19.8282 69.4333 19.7322 71.0243C19.6492 72.3323 18.5932 76.0343 18.7702 77.3333C19.2134 78.4452 19.536 79.6015 19.7322 80.7823C19.7252 80.9003 19.7722 80.8193 19.8502 80.6173C18.9292 77.1683 20.0272 73.7463 21.0502 70.4013C21.0262 69.7233 21.0162 69.0393 21.0432 68.3493C21.0582 67.8663 21.0752 67.3823 21.0942 66.9013C20.7982 65.1933 21.1492 65.8703 21.0952 64.1443Z" fill="#161515"/>
<path d="M72.0281 37.3583C67.2411 32.2133 60.9071 32.1102 56.9941 28.6742C55.0521 26.9742 46.2721 22.7053 43.9291 21.1562C38.5961 24.3563 34.6871 24.3053 32.3611 27.4053C30.0611 30.4633 25.4611 30.8222 22.2491 32.6772C22.4281 33.1162 22.8381 34.1553 23.0491 34.6293C18.9771 33.9173 13.8991 38.2232 9.9761 40.8292C6.5551 43.1072 0.599121 46.4132 0.599121 46.4132C5.08412 51.2972 8.93012 52.1422 13.4781 52.8202C13.8021 53.6702 12.5781 54.9902 13.2031 56.3822C15.1251 60.6972 29.4321 62.5482 32.8421 66.4482C33.6601 67.3842 37.9421 65.2243 37.9421 65.2243C37.9421 66.0023 36.1551 67.0742 36.1551 67.0742C40.3671 69.5062 42.3701 71.9613 44.1841 71.6943C45.9521 71.4363 50.7911 68.5273 52.3621 67.5533C55.4151 65.6533 56.3901 63.6533 59.6671 62.4183C63.6731 60.9033 65.7891 60.8232 68.7221 57.2412C67.123 56.9747 65.5089 56.8077 63.8891 56.7412C68.0611 54.8172 72.9741 56.1692 77.1511 53.6752C80.4621 51.6992 83.7981 47.3622 87.5971 46.6212C86.3141 45.2522 82.9681 42.7213 74.6811 38.7213L69.4941 39.6412C70.3884 38.9372 71.235 38.1746 72.0281 37.3583Z" fill="#423D3C"/>
<path d="M23.3 61.2639C22.4 61.1409 21.5 60.9989 20.6 60.8099C20.507 60.8099 20.408 60.7999 20.311 60.7969C21.474 61.2309 22.69 61.6479 23.895 62.0709C23.827 62.0339 23.763 61.9989 23.695 61.9559C23.5764 61.883 23.4781 61.7813 23.4091 61.6604C23.34 61.5395 23.3025 61.4031 23.3 61.2639Z" fill="#EF5F2E"/>
<path d="M54.6982 65.0252C53.1692 66.5302 46.1981 70.5251 44.0981 70.9161C42.5461 71.1991 41.9802 69.3922 37.8712 67.3322C36.9062 66.8442 39.0301 64.8942 39.1711 64.4452C37.693 64.6766 36.2508 65.0973 34.8802 65.6971C34.4966 65.8306 34.0891 65.8813 33.6846 65.8458C33.28 65.8103 32.8876 65.6894 32.5331 65.4912C29.0331 62.0452 19.6441 60.1282 17.1531 59.0602C15.7711 58.4602 13.7442 57.2121 13.5532 55.6331C13.5883 54.7157 13.8275 53.8176 14.2531 53.0042C14.6751 51.6962 12.4791 51.9663 11.8301 51.8283C9.42214 51.3103 3.00614 49.2383 0.615143 46.4062L0.608154 46.4132C5.09315 51.2972 8.93915 52.1422 13.4872 52.8202C13.8112 53.6712 12.5872 54.9901 13.2122 56.3831C15.1342 60.6981 29.4411 62.5492 32.8511 66.4492C33.6691 67.3862 37.9511 65.2262 37.9511 65.2262C37.9511 66.0042 36.1642 67.0762 36.1642 67.0762C40.3762 69.5082 42.3791 71.9632 44.1931 71.6962C45.9611 71.4382 50.8002 68.5291 52.3712 67.5551C55.4242 65.6551 56.3991 63.6552 59.6761 62.4202C63.6821 60.9052 65.7981 60.8252 68.7311 57.2432C67.132 56.9767 65.518 56.8097 63.8982 56.7432C68.0702 54.8192 72.9832 56.1712 77.1602 53.6772C79.8112 52.0942 82.4862 48.9931 85.3972 47.4431C83.3432 47.9101 81.4791 49.7571 79.7741 50.9731C77.3361 52.7081 75.3952 54.2261 72.3462 54.6451C70.4342 54.9031 65.1842 55.5172 64.2932 56.0692C63.4932 56.5632 62.7661 56.9692 63.6621 57.0432C65.0608 57.1578 66.4485 57.3818 67.8122 57.7132C63.7382 61.2992 59.3512 61.1002 58.1342 61.8672C56.875 62.7888 55.7225 63.8481 54.6982 65.0252Z" fill="#443B39"/>
<path d="M84.5982 63.6192C84.4452 64.1862 84.7252 65.3322 84.5522 65.8922C84.7088 65.7337 84.8522 65.5628 84.9812 65.3812C85.8382 64.1122 85.7722 63.0732 86.4412 61.6972C87.1262 60.2972 87.8412 60.3132 88.7782 59.0612C89.7472 57.7732 87.8432 53.3002 87.8432 53.3002C87.8432 53.2632 87.6812 53.2952 87.4212 53.3862C87.0003 54.4325 86.3599 55.3764 85.5432 56.1542C86.0523 57.0583 86.4065 58.0412 86.5912 59.0622C85.8182 61.0742 85.0782 62.2032 84.5982 63.6192Z" fill="#6B0C03"/>
<path d="M80.9011 66.9874C82.5421 64.1115 83.7867 61.0268 84.6011 57.8174C83.1131 58.1824 80.9141 57.5624 79.3881 57.8174C78.8821 58.3984 81.8181 58.9714 82.0461 59.6074C82.0461 59.6074 81.8821 61.0184 81.8001 61.5024C81.4901 63.3304 81.2181 65.1664 80.9011 66.9874Z" fill="#560202"/>
<path d="M80.394 58.238C80.733 58.059 84.3041 58.253 84.6801 58.081C87.1541 56.945 87.23 55.619 87.842 54.559C88.723 53.038 86.821 52.412 84.364 52.645C81.564 55.865 75.518 58.014 71.092 59.386C72.418 60.734 74.636 59.634 75.739 60.4C76.7973 61.1068 78.0537 61.4572 79.325 61.4C80.2701 60.8638 81.1778 60.2644 82.0421 59.606C82.4231 59.267 79.758 58.567 80.394 58.238Z" fill="#B7230F"/>
<path d="M79.326 60.9895C78.526 61.0895 76.5651 60.0245 75.7401 59.9295C74.8889 59.9309 74.0387 59.8752 73.195 59.7625C72.682 59.6675 71.953 59.3255 71.45 59.2695L71.092 59.3825C72.418 60.7305 74.636 59.6305 75.739 60.3965C76.7973 61.1034 78.0537 61.4538 79.325 61.3965C80.27 60.8603 81.1778 60.261 82.0421 59.6025C82.4221 59.2595 79.7571 58.5615 80.3931 58.2305C80.7321 58.0515 84.303 58.2456 84.679 58.0736C85.3474 57.8193 85.9519 57.4219 86.4503 56.9091C86.9487 56.3964 87.3289 55.7808 87.5641 55.1055C86.5281 56.6955 85.3091 57.7466 81.6071 57.2806H81.5871C80.8485 57.3974 80.1238 57.5891 79.424 57.8525C79.3912 57.8621 79.3578 57.8694 79.3241 57.8745C79.7241 58.2615 80.0361 58.8516 80.6031 59.0476C82.1781 59.5896 79.913 60.9135 79.326 60.9895Z" fill="#D63B2B"/>
<path d="M67.1722 72.6305C68.3182 72.1665 72.1602 70.2465 72.6452 69.1305C73.3232 67.5665 67.9572 66.9134 66.7052 67.3924C66.7052 67.3924 64.9482 68.3494 64.0842 68.7204C62.9568 69.2981 61.6892 69.5459 60.4272 69.4354C60.5526 69.8383 60.7472 70.2163 61.0022 70.5524C62.2832 72.0304 65.3982 73.3435 67.1722 72.6305Z" fill="#B7230F"/>
<path d="M67.1721 72.6267C69.0059 71.8701 70.723 70.8569 72.2721 69.6177C68.9831 72.1237 63.4801 72.8916 60.8061 69.4806C60.6781 69.472 60.5508 69.4549 60.425 69.4297C60.5504 69.8325 60.745 70.2105 61.0001 70.5467C62.2831 72.0347 65.3981 73.3447 67.1721 72.6267Z" fill="#D63B2B"/>
<path d="M6.50615 64.9547C8.20918 65.5433 9.78971 66.4395 11.1692 67.5988C12.1112 66.3838 13.3141 64.9508 13.3141 63.1458C12.0107 62.7102 10.8505 61.9279 9.95816 60.8828C7.32116 62.0338 2.74015 64.4217 6.50615 64.9547Z" fill="#D82F0E"/>
<path d="M10.553 66.5823C9.18126 65.6088 7.62017 64.9345 5.97101 64.6033C5.07801 64.4143 5.21301 64.0773 5.13901 63.9233C4.92801 64.3973 5.25502 64.7783 6.50602 64.9563C8.20902 65.5449 9.78953 66.4411 11.169 67.6003C12.085 66.4153 13.248 65.0183 13.304 63.2773C13.0018 64.1516 12.5927 64.9853 12.086 65.7593C11.82 66.2093 10.958 66.9413 10.553 66.5823Z" fill="#FF917B"/>
<path d="M29.5982 70.0305C28.9746 70.6749 28.4752 71.4289 28.1252 72.2545C27.1382 74.4655 26.6332 76.0765 27.1872 78.6045C27.9352 81.616 28.854 84.5825 29.9392 87.4895C30.6242 89.5055 31.6392 93.2895 33.4642 94.5755C34.2924 93.915 35.0696 93.1929 35.7892 92.4155C34.6394 88.6885 33.9049 84.8459 33.5992 80.9575C33.2192 77.1705 32.5852 73.2325 32.2992 69.5015C31.8404 69.3591 31.3534 69.3328 30.882 69.4252C30.4105 69.5175 29.9694 69.7255 29.5982 70.0305Z" fill="#161515"/>
<path d="M32.338 69.958C32.326 69.806 32.306 69.651 32.296 69.501C31.8373 69.3589 31.3504 69.3329 30.8792 69.4254C30.4079 69.5179 29.967 69.726 29.596 70.031C28.9724 70.6755 28.4731 71.4294 28.1231 72.255C27.1361 74.466 26.631 76.077 27.185 78.605C27.933 81.6165 28.8518 84.583 29.937 87.49C30.622 89.506 31.637 93.29 33.462 94.576C34.093 94.004 34.862 93.415 35.462 92.769C33.073 90.943 32.926 87.585 31.862 84.618C30.8863 82.2353 30.3605 79.6924 30.311 77.118C30.35 74.593 31.487 72.729 32.174 70.35C32.2158 70.2144 32.2708 70.0831 32.338 69.958Z" fill="#60210C"/>
<path d="M28.0891 71.3847C27.0141 70.7317 25.3491 70.4447 24.1641 69.6847C23.1261 69.0197 18.264 66.8618 17.019 66.9898C17.225 70.6378 20.642 75.1437 22.178 79.0387C23.788 82.6985 25.1622 86.4575 26.2921 90.2927C26.6991 91.8197 29.8811 91.5107 31.3751 94.4257L33.4641 94.5758C33.4641 94.5758 33.0241 91.7107 32.6941 90.5647C32.2841 89.1267 29.984 80.5558 29.394 77.7648C29.005 75.9578 29.7291 72.3907 28.0891 71.3847Z" fill="#96110B"/>
<path d="M28.9822 72.7305C28.0746 72.9687 27.1349 73.0608 26.1982 73.0034C29.0602 75.6304 29.7112 80.2914 30.3642 83.9784C31.0102 87.6254 32.4292 91.0124 33.2532 94.5594L33.4642 94.5724C33.4642 94.5724 33.0242 91.7074 32.6942 90.5614C32.2842 89.1234 29.9842 80.5535 29.3942 77.7615C29.1172 76.4595 29.4132 74.2425 28.9822 72.7305Z" fill="#BC270A"/>
<path d="M17.32 66.1637C15.98 67.3787 19.46 71.4637 21.427 72.4637C23.6585 73.4371 26.1146 73.7785 28.527 73.4507C30.586 73.2227 32.391 69.3337 32.391 69.3337C31.181 68.5217 28.532 68.1977 26.64 66.9427C24.188 65.3157 21.169 63.6367 21.169 63.6367C19.784 64.9407 18.614 64.9897 17.32 66.1637Z" fill="#D82F0E"/>
<path d="M17.32 66.1682C15.98 67.3832 19.46 71.4682 21.427 72.4682C23.6585 73.4416 26.1146 73.7831 28.527 73.4552C30.157 73.2732 31.627 70.7972 32.17 69.7782C29.441 73.1212 26.961 73.5552 21.844 71.7192C20.312 71.1762 16.812 68.8942 17.688 65.8672C17.566 65.9522 17.443 66.0492 17.32 66.1682Z" fill="#FF917B"/>
<path d="M49.277 65.7927C49.27 65.7687 49.267 65.7418 49.262 65.7188L49.062 65.9328C49.1392 65.8951 49.2114 65.8481 49.277 65.7927Z" fill="#88442E"/>
<path d="M47.9552 61.6328L47.8452 61.7018C47.8752 61.7118 47.9042 61.7118 47.9312 61.7218C47.9392 61.6918 47.9462 61.6648 47.9552 61.6328Z" fill="#7E3E29"/>
<path d="M24.139 46.3574C23.0261 46.361 21.9281 46.6143 20.926 47.0984L20.239 45.8984C20.1389 46.2919 20.015 46.6789 19.868 47.0574C19.711 47.6414 19.711 47.7255 19.174 47.9065C18.1899 48.1937 17.1877 48.4145 16.174 48.5674C15.193 48.6492 14.2278 48.8645 13.305 49.2074C12.7334 49.6732 12.2245 50.2109 11.791 50.8074C12.299 50.4784 12.881 50.2014 13.413 49.8864C13.9296 49.6283 14.4976 49.4893 15.075 49.4794C15.1509 50.3755 15.1509 51.2764 15.075 52.1724C15.3696 51.4554 15.5407 50.6936 15.581 49.9195C15.871 50.0195 16.108 50.1804 16.406 50.2704C16.2328 49.9572 16.032 49.66 15.806 49.3824C17.1 49.1934 18.396 49.0394 19.675 48.8544C19.978 47.8954 23.427 47.0154 24.139 46.3574Z" fill="#770303"/>
<path d="M49.9681 47.8148C49.2681 48.0948 48.4311 49.2678 47.5901 49.8398C47.2198 48.7727 46.9588 47.6707 46.8111 46.5508C46.4251 49.3588 46.8181 50.7168 44.0331 52.0568C43.8942 51.2801 43.6936 50.5156 43.4331 49.7708C44.1751 48.9478 44.9821 47.4998 45.4881 46.9968C44.7701 47.6973 44.0014 48.3437 43.1881 48.9308C43.0798 48.7782 42.9796 48.62 42.8881 48.4568L42.2571 48.1348C43.8801 50.6428 41.8991 52.4258 40.2911 54.1588C41.3101 53.5378 42.3781 53.3368 43.3771 52.6818C42.7771 54.5128 42.9521 55.4378 41.7011 56.8008C40.7391 57.8488 38.4581 58.7368 38.1521 60.1568C40.2111 60.5098 39.3201 61.9658 38.1651 62.8938C38.6141 63.8738 39.6651 64.0578 40.1361 64.9188C40.5561 65.6868 40.3761 67.0298 40.4971 67.8378C40.9056 67.3596 41.1382 66.7561 41.1564 66.1274C41.1746 65.4988 40.9773 64.8828 40.5971 64.3818C39.4591 62.7108 38.9631 63.2928 40.3831 61.3478C40.0831 61.0068 39.9961 60.3478 39.6981 59.9948C41.1396 59.1615 42.4111 58.0641 43.4461 56.7598C44.6437 57.1185 45.8693 57.3753 47.1101 57.5278C45.1101 56.5168 42.1271 56.5338 43.9161 53.6548C45.0911 51.7528 48.2311 50.9498 49.9681 47.8148Z" fill="#270D0D"/>
<path d="M28.7961 51.8047C28.6021 51.0567 29.6721 50.0477 29.4631 49.3047C29.0238 49.581 28.6183 49.9079 28.2551 50.2787L28.3451 50.0847C27.1741 52.7477 26.5091 53.2637 25.2941 55.9097C24.722 55.8496 24.145 55.8546 23.5741 55.9247C24.1037 56.0444 24.6203 56.2163 25.1161 56.4377C24.1461 57.8117 23.5821 59.5947 22.6621 60.9077C23.7598 59.1173 24.9913 57.4124 26.3461 55.8077C26.9641 55.2157 27.4461 55.2767 28.3051 54.8807C27.7284 54.8246 27.1465 54.8583 26.5801 54.9807C26.7807 54.1835 27.1869 53.4528 27.7581 52.8617C28.5341 52.0737 31.1581 51.5977 32.2321 51.5197C31.7761 51.4827 31.3851 51.3677 30.9431 51.2917C31.4811 50.8917 32.0331 50.4797 32.5341 50.0397C31.6851 50.0137 29.5491 51.3827 28.7961 51.8047Z" fill="#770303"/>
<path d="M54.2211 54.2263C55.8411 54.0863 57.7921 56.4333 59.2831 55.8463C57.8981 55.3893 56.1981 54.1463 54.7421 54.0103C55.4763 53.8512 56.1869 53.5978 56.8561 53.2563C55.9944 53.3147 55.1375 53.4303 54.2911 53.6024C54.3301 53.2684 54.3741 52.9173 54.3911 52.5743C55.1861 52.3613 56.0411 52.1394 56.8311 51.8874C56.3011 51.8604 55.6091 51.8453 55.0171 51.7693C54.9631 51.0013 57.6241 48.4483 58.1461 47.9383C57.6231 47.8203 56.9921 46.3543 56.4571 46.2383C56.641 46.8169 56.7959 47.4043 56.9211 47.9983L54.8301 49.4813C54.7371 50.6693 53.8361 51.8914 53.5561 53.0044C53.115 53.1988 52.6926 53.4331 52.2941 53.7043C52.0225 53.5064 51.7704 53.2831 51.5411 53.0373C51.5959 52.5563 51.7408 52.0899 51.9681 51.6623C51.583 52.0624 51.2776 52.5321 51.0681 53.0464C50.6528 52.4197 50.0691 51.923 49.3841 51.6133C50.1015 52.3188 50.7753 53.0672 51.4021 53.8544C50.7541 54.8029 49.9804 55.659 49.1021 56.3993L49.1421 56.5684C49.1501 56.4454 49.1941 56.8043 49.2131 56.8853C49.573 56.5298 49.988 56.2346 50.4421 56.0113C50.5282 56.7679 50.703 57.5117 50.9631 58.2274C50.7088 58.6504 50.4318 59.0594 50.1331 59.4524C49.8589 59.7263 49.6139 60.0279 49.4021 60.3524C48.858 60.9745 48.2607 61.548 47.6171 62.0663C47.9827 62.6479 48.3863 63.2048 48.8251 63.7334C48.4571 65.0734 46.7411 66.1613 46.0691 67.4073C46.5396 67.0722 46.9814 66.6986 47.3901 66.2903C47.8008 67.0437 48.1681 67.82 48.4901 68.6154C48.1442 67.6814 47.9455 66.6993 47.9011 65.7043C47.9401 65.4753 48.9151 64.4163 49.0011 63.9423C49.495 64.5131 50.0786 64.9995 50.7291 65.3823C49.8065 64.5205 49.0045 63.538 48.3451 62.4614C48.6321 61.9554 49.0451 61.2713 49.5181 60.5963C50.0705 60.7397 50.6348 60.8324 51.2041 60.8733C51.002 60.3728 50.72 59.9084 50.3691 59.4983C50.7034 59.0845 51.1022 58.7273 51.5501 58.4404C51.4221 57.6864 50.8651 56.0524 51.3201 55.4314C52.1903 54.8278 53.1793 54.417 54.2211 54.2263Z" fill="#770303"/>
<path d="M22.7822 46.298C24.376 46.557 25.9943 46.6319 27.6052 46.521C29.0872 46.391 30.7522 45.741 32.2932 46.151C33.4342 46.456 34.6552 47.383 35.8082 47.795C36.8472 48.171 42.0422 48.742 43.1892 48.931C42.7332 41.115 40.1722 32.89 38.2892 25.207C35.5402 28.793 34.6122 33.462 32.1312 37.251C29.6236 40.838 26.4496 43.9095 22.7822 46.298Z" fill="#1A1717"/>
<path d="M38.1522 16.0137C37.2522 15.1277 32.3721 12.8847 30.9891 12.5547C30.3341 15.6677 30.1151 18.7747 29.5331 21.4947C28.0701 28.3207 25.7432 34.1627 19.2212 37.6657C16.3452 39.0767 11.5662 39.9847 11.9432 42.5797C12.3282 45.1907 16.1892 44.5167 17.9172 45.1127C21.0266 46.2004 24.3167 46.6781 27.6072 46.5197C28.4932 46.4437 29.3302 43.2037 28.1182 43.0767C25.4102 42.7927 23.1082 41.9227 23.0302 40.2957C22.7892 35.3517 28.1012 32.6427 29.9132 28.5697C32.1947 24.0972 34.9574 19.887 38.1522 16.0137Z" fill="#363131"/>
<path d="M46.3171 45.2034C42.1171 45.3194 38.2101 46.3894 34.2061 44.7614C31.7781 43.7754 29.7431 42.5814 26.9841 43.2524C25.7833 43.5475 24.5612 43.7481 23.3291 43.8524C20.62 44.2164 17.8661 44.053 15.2191 43.3714C14.0168 43.0617 12.9456 42.3743 12.1631 41.4104C11.9618 41.7637 11.884 42.174 11.9421 42.5764C12.3271 45.1874 16.1881 44.5134 17.9161 45.1094C21.0252 46.197 24.315 46.6747 27.6051 46.5164C29.0871 46.3864 30.7521 45.7364 32.2931 46.1474C33.4341 46.4524 34.6561 47.3794 35.8081 47.7914C39.4548 48.9602 43.3236 49.2639 47.1081 48.6784C48.7501 48.4524 50.6521 47.5884 52.0251 47.7414C53.4541 47.9034 55.1401 48.9684 56.7181 49.1964C60.3364 49.8964 64.0854 49.323 67.3291 47.5734C70.7111 45.6964 76.9651 44.9794 79.4771 43.0254C81.2671 41.0194 69.4401 36.5154 63.7411 29.9254C57.6341 22.8704 56.9561 16.7474 54.0411 10.4414C50.9511 12.4414 51.0171 19.1204 47.8411 16.2854C43.9801 12.8464 41.6921 20.8464 41.5001 20.9394C41.5571 26.7494 47.4871 30.6834 50.3581 35.5294C51.5931 37.6114 54.3581 40.4414 52.8711 42.7954C51.2801 45.3164 49.1881 45.1314 46.3171 45.2034Z" fill="#423939"/>
<path d="M64.9222 45.3841C62.1782 46.0241 60.6882 48.484 58.0222 49.248C57.9092 49.278 57.7992 49.292 57.6902 49.317C61.0068 49.7942 64.3887 49.1837 67.3292 47.5771C70.7112 45.7001 76.9652 44.9831 79.4772 43.0291C81.2682 41.0221 69.4402 36.519 63.7412 29.929C58.0422 23.339 57.0652 17.5461 54.5782 11.6641C49.3872 14.0311 49.5542 20.5521 50.4782 26.0731C50.5627 26.1483 50.6308 26.2403 50.6782 26.343C52.0532 29.266 54.1662 27.188 56.6282 27.774C57.4537 27.935 58.2348 28.272 58.9185 28.7618C59.6022 29.2517 60.1723 29.8831 60.5902 30.6131C62.0548 33.0636 64.1729 35.0577 66.7072 36.3721C68.2133 37.0968 69.48 38.2383 70.3572 39.6611C70.6613 40.3101 70.7868 41.0285 70.7207 41.7421C70.6546 42.4558 70.3993 43.1389 69.9812 43.7211C68.5532 45.2741 66.8242 44.9401 64.9222 45.3841Z" fill="#181616"/>
<path d="M77.288 44.0897C80.034 42.2617 82.278 43.6387 84.932 44.2897C84.7387 42.9238 84.1352 41.6489 83.2015 40.6334C82.2678 39.6179 81.0479 38.9098 79.703 38.6027C78.174 38.4027 77.703 38.9757 76.423 39.7857C74.789 40.8247 73.898 40.7477 72.123 40.0687C69.5162 38.9483 66.7575 38.2214 63.937 37.9117C60.898 37.6247 58.52 36.6357 57.901 33.5187C57.427 31.1377 56.089 29.8187 54.936 27.7107C54.21 26.2969 53.6721 24.7941 53.336 23.2407C53.091 19.8677 52.526 15.9847 53.942 14.4407C55.405 13.7357 57.133 19.1067 57.626 19.7407C62.564 17.0857 53.752 4.71869 50.358 2.45269C46.905 0.144693 42.558 -0.414297 36.868 1.3377C31.9 2.8747 31.9 5.5787 29.768 14.7517C28.131 21.7987 25.335 28.0757 27.711 27.8197C30.425 27.5197 30.657 14.4747 33.529 14.5627C33.877 17.2747 32.908 20.4777 32.297 23.2427C31.057 27.0527 30.265 29.9137 29.438 32.0547C27.786 36.3187 22.102 34.5547 17.997 37.1357C15.9158 38.6088 13.4536 39.4498 10.906 39.5577C8.13704 39.5407 5.11304 40.9147 4.73804 44.0577C6.41704 42.9677 10.995 43.2127 13.111 43.2207C15.892 43.2287 18.86 43.0267 20.836 40.8817C21.955 39.6687 21.987 39.1687 23.885 39.0087C25.324 38.8857 28.461 39.2007 32.385 34.9417C33.854 32.3562 34.8369 29.5234 35.285 26.5837C35.921 25.9007 36.475 25.3977 36.792 25.5187C37.538 25.7817 36.355 30.1727 36.24 33.2327C35.28 36.4407 34.498 39.8547 32.284 42.5327C29.8249 45.2494 26.7479 47.3342 23.313 48.6107C19.896 50.0467 16.057 49.5017 12.859 51.1827C9.39304 52.9997 9.83202 56.9187 10.645 60.1687C11.004 61.6027 11.325 64.0787 12.987 64.7067C15.487 65.6567 15.073 62.4517 14.357 59.5847C13.54 55.6447 18.085 55.6457 21.457 54.6307C25.011 53.5627 28.794 48.7077 32.672 49.2007C34.984 49.4587 26.072 54.6157 28.972 55.1007C38.027 56.6007 38.53 45.4007 39.035 43.0007C39.324 41.6267 40.473 37.8437 41.435 34.4097C42.279 35.6977 43.61 36.6257 44.226 38.0967C44.7435 39.5693 44.8048 41.1637 44.402 42.6717C43.972 45.5627 44.026 48.7267 46.926 50.3177C49.665 51.8177 52.826 51.2557 54.197 54.7407C54.6856 56.0348 54.6998 57.4601 54.237 58.7637C53.869 59.9047 53.046 60.9727 53.687 62.2277C54.247 63.3217 55.555 63.1707 56.022 64.2917C56.572 65.5917 55.428 67.1567 55.295 68.4147C54.819 72.9037 58.874 67.9657 59.581 66.4417C60.428 64.6247 62.219 60.2557 60.602 58.6417C59.6267 57.9161 58.8389 56.9679 58.304 55.8763C57.7692 54.7847 57.5028 53.5811 57.527 52.3657C57.399 49.0157 55.161 47.8857 52.404 46.5587C51.0599 45.9943 49.9108 45.0482 49.0989 43.8375C48.287 42.6267 47.8479 41.2044 47.836 39.7467C47.708 36.9307 48.882 33.6647 47.615 30.9687C46.923 29.5107 45.215 28.8817 44.591 27.3137C44.156 26.2207 44.66 20.9567 44.827 19.9767C49.555 16.0247 47.466 25.3597 49.301 27.7767C49.301 27.8057 49.301 27.8327 49.301 27.8577L49.401 27.9047C49.6495 28.2242 49.9546 28.4954 50.301 28.7047C51.339 29.7877 52.427 30.9607 52.451 32.4557C52.4421 32.4118 52.4248 32.37 52.4 32.3327C52.425 32.3847 52.435 32.4327 52.456 32.4827C52.456 32.5217 52.464 32.5557 52.464 32.5937C52.4671 32.5582 52.4644 32.5224 52.456 32.4877C53.465 35.0927 51.077 37.7427 54.785 39.5177C57.129 40.6387 60.595 39.6177 62.699 41.3287C65.016 43.2167 63.229 46.5397 66.128 48.1527C68.548 49.5007 69.346 47.5287 72.049 48.4717C74.1271 49.6002 76.0572 50.9821 77.795 52.5857C78.57 53.4447 78.269 55.7057 79.486 55.6567C80.525 55.6127 81.481 52.9667 81.717 52.2157C82.259 50.4707 82.007 50.0807 80.801 49.0267C79.858 48.1967 78.921 47.3947 77.966 46.5507C76.622 45.3587 75.645 45.1837 77.288 44.0897Z" fill="url(#paint2_linear_58_2025)"/>
<path d="M4.91414 42.1887C4.28114 43.2937 1.22215 44.7217 1.61415 45.9447C1.86415 46.7207 4.29414 48.5287 4.29414 48.5287C6.83807 48.7867 9.40299 48.7565 11.9401 48.4387C13.1151 48.0777 14.6912 47.6997 14.8042 47.1547C14.0312 44.9327 13.5671 42.2017 10.6431 41.8977C7.62614 41.5807 5.26714 41.5677 4.91414 42.1887Z" fill="#D83827"/>
<path d="M4.81527 42.3281C4.02527 43.4131 1.23927 44.7701 1.61527 45.9441C1.86527 46.7201 4.29526 48.5281 4.29526 48.5281C6.83919 48.7861 9.40411 48.7558 11.9413 48.4381C13.1153 48.0771 14.6923 47.6991 14.8053 47.1541C14.2943 45.6811 13.9123 43.9851 12.8593 42.9171C11.8043 43.1841 9.92428 43.5461 8.88328 43.7691C7.41326 43.7086 5.99561 43.2064 4.81527 42.3281Z" fill="#FF8A8A"/>
<path d="M8.32008 44.2509C8.30694 44.2569 8.29245 44.2593 8.27808 44.2579C8.72153 45.1525 9.23795 46.0091 9.82208 46.8189C10.1581 47.4189 10.5041 48.0049 10.8351 48.6029C11.2059 48.5803 11.574 48.5251 11.9351 48.4379C13.1091 48.0769 14.6861 47.6989 14.7991 47.1539C14.2681 45.6249 13.8811 43.8539 12.7401 42.7969C12.5541 42.8609 12.3701 42.9289 12.1861 42.9969C10.9299 43.509 9.63773 43.9282 8.32008 44.2509Z" fill="#211513"/>
<path d="M12.7621 42.8189L12.7431 42.7969C12.5571 42.8609 12.3731 42.9289 12.1891 42.9969C10.932 43.5102 9.63882 43.9303 8.32008 44.2539C8.30694 44.2599 8.29245 44.2623 8.27808 44.2609C8.72153 45.1556 9.23795 46.0121 9.82208 46.8219C10.1581 47.4219 10.5041 48.0079 10.8351 48.6059C11.2059 48.5834 11.574 48.5281 11.9351 48.4409C12.1191 48.3839 12.3151 48.3279 12.5141 48.2689C12.0701 47.7513 11.7284 47.154 11.5071 46.5089C11.3159 45.942 11.2874 45.3329 11.4249 44.7507C11.5624 44.1684 11.8604 43.6364 12.2851 43.215C12.429 43.0658 12.589 42.933 12.7621 42.8189Z" fill="#262321"/>
<path d="M7.92208 44.0491C6.70697 43.8921 5.59789 43.2764 4.82207 42.3281C4.03707 43.4101 1.24306 44.7701 1.62206 45.9441C1.87206 46.7201 4.30207 48.5281 4.30207 48.5281C6.846 48.7861 9.41093 48.7558 11.9481 48.4381C11.9951 48.4211 12.0481 48.4091 12.1001 48.3911C11.8551 48.1081 11.6241 47.8221 11.4061 47.5221C10.5671 46.3491 9.63807 45.2621 8.75307 44.1351C8.47433 44.1269 8.19659 44.0982 7.92208 44.0491Z" fill="#150D0D"/>
<path opacity="0.39" d="M3.83416 43.421C3.90082 43.3437 3.98349 43.249 4.08216 43.137C4.19316 43.014 4.30815 42.892 4.42815 42.778C4.57315 42.643 4.71316 42.505 4.85816 42.378C4.84577 42.3619 4.83241 42.3465 4.81815 42.332C4.03315 43.414 1.23916 44.774 1.61815 45.948C1.86815 46.724 4.29816 48.532 4.29816 48.532C4.76236 48.6149 5.23264 48.6591 5.70415 48.664C4.9865 48.4716 4.32362 48.1145 3.76816 47.621C3.47244 47.3704 3.23384 47.0593 3.06844 46.7087C2.90304 46.3581 2.81466 45.9761 2.80925 45.5885C2.80385 45.2009 2.88156 44.8166 3.03713 44.4615C3.1927 44.1064 3.42253 43.7888 3.71116 43.53C3.75816 43.484 3.79316 43.453 3.83416 43.421Z" fill="#841203"/>
<path d="M8.24103 44.0938C8.01803 45.5417 8.14103 46.7937 6.82703 47.9157C6.47226 48.2102 6.08226 48.4594 5.66602 48.6577C7.75893 48.7853 9.85927 48.7113 11.938 48.4367C11.985 48.4197 12.038 48.4077 12.09 48.3897C11.845 48.1067 11.614 47.8207 11.396 47.5207C10.557 46.3477 9.62801 45.2607 8.74301 44.1337C8.57512 44.1287 8.40759 44.1155 8.24103 44.0938Z" fill="#2F2727"/>
<path d="M11.3971 47.5202V47.5082C11.3611 47.4672 11.3111 47.3932 11.2571 47.3242C11.2971 47.3822 11.3361 47.4362 11.3971 47.5202Z" fill="#BE4922"/>
<path d="M11.2552 47.3263C11.0962 47.1053 10.9412 46.8823 11.2552 47.3263Z" fill="#BE4922"/>
<path d="M5.66602 48.6587C6.87302 48.7107 8.08202 48.7147 9.28702 48.6807C10.2289 48.7048 11.17 48.6074 12.087 48.3908C11.8457 48.1121 11.616 47.8248 11.398 47.5288L11.391 47.5097C10.974 46.9337 10.532 46.3687 10.085 45.8097C9.84202 45.5097 9.59402 45.2037 9.34802 44.8987C9.21002 44.7267 8.88603 44.1428 8.64803 44.1328C8.68003 44.1818 11.27 47.2747 10.605 48.2467C10.175 48.8827 6.06302 48.4677 5.66602 48.6587Z" fill="#891506"/>
<path d="M11.3953 47.5078V47.5198C11.4403 47.5768 11.4293 47.5648 11.3953 47.5078Z" fill="#BE4922"/>
<path d="M66.6021 54.3587C67.3901 54.6587 68.2171 54.1797 69.0621 53.9807C69.997 53.9112 70.92 53.7288 71.8111 53.4377C71.3548 52.4083 70.9696 51.3488 70.6581 50.2667C70.4011 49.2667 70.4891 47.5107 69.9781 46.7027C69.6696 46.24 69.213 45.8957 68.6833 45.7262C68.1536 45.5567 67.582 45.5721 67.0621 45.7697C65.9381 46.0467 64.4951 45.9697 64.1481 47.1587C63.9621 47.7947 63.8661 48.4517 63.6331 49.1127C63.3163 49.7543 63.0336 50.4123 62.7861 51.0837C62.8601 51.6387 63.9392 52.3837 64.3712 52.7727C65.0162 53.428 65.7713 53.9648 66.6021 54.3587Z" fill="#312C2B"/>
<path d="M67.6653 51.2533C68.2073 51.2333 68.7473 51.2333 69.2873 51.2193C69.3637 49.6383 69.5431 48.064 69.8242 46.5063C69.4946 46.1158 69.0531 45.836 68.5593 45.7048C68.0655 45.5735 67.5432 45.5971 67.0633 45.7723C65.9393 46.0493 64.4963 45.9723 64.1493 47.1613C64.0853 47.3793 64.0332 47.5953 63.9792 47.8173C64.4743 48.32 64.9281 48.8618 65.3362 49.4373C66.0812 50.4723 66.3033 51.2993 67.6653 51.2533Z" fill="#201E1E"/>
<path d="M67.6652 51.2494C68.2072 51.2294 68.7472 51.2294 69.2872 51.2154C69.3637 49.6344 69.543 48.0601 69.8242 46.5024C69.7732 46.4364 69.7242 46.3774 69.6652 46.3164C69.6652 46.3164 69.1332 49.5534 69.0652 49.7924C69.0652 49.7924 67.7082 50.3784 67.5022 50.1034C66.6327 48.8342 65.542 47.7316 64.2822 46.8484C64.2259 46.9457 64.1816 47.0494 64.1502 47.1574C64.0862 47.3754 64.0342 47.5914 63.9802 47.8134C64.4754 48.3155 64.9296 48.8566 65.3382 49.4314C66.0812 50.4684 66.3032 51.2954 67.6652 51.2494Z" fill="#4E3C3A"/>
<path d="M69.0623 53.9836C69.9971 53.9141 70.9202 53.7318 71.8112 53.4406C71.5712 52.8486 71.3373 52.2876 71.1263 51.7266C70.5003 51.2656 69.9532 50.6516 69.3882 50.1406C68.9181 50.1428 68.4524 50.2312 68.0143 50.4016C67.6898 50.5676 67.3395 50.6772 66.9782 50.7256C66.6782 51.8666 66.5173 52.9986 66.1873 54.1576C66.3216 54.2323 66.4601 54.299 66.6022 54.3576C67.3902 54.6606 68.2173 54.1826 69.0623 53.9836Z" fill="#534C4B"/>
<path d="M66.9462 53.2648C67.0177 52.9738 67.1207 52.6915 67.2532 52.4228C67.3759 52.0957 67.5599 51.795 67.7952 51.5367C67.9172 51.3767 68.0522 51.2158 68.1902 51.0588C68.5749 50.6806 69.0613 50.4228 69.5902 50.3168C69.5222 50.2558 69.4582 50.1938 69.3902 50.1328C68.9201 50.1349 68.4544 50.2234 68.0162 50.3938C67.6917 50.5597 67.3414 50.6693 66.9802 50.7178C66.6802 51.8588 66.5192 52.9908 66.1892 54.1498C66.3236 54.2244 66.4621 54.2912 66.6042 54.3498C66.6552 54.3657 66.7069 54.3791 66.7592 54.3898C66.7968 54.0111 66.8593 53.6353 66.9462 53.2648Z" fill="#252120"/>
<path d="M66.5991 54.3555C66.7991 53.0802 67.111 51.8251 67.5311 50.6045C67.4851 50.5095 66.7311 49.4785 66.3751 49.0405C66.0811 48.6745 65.4941 48.1935 65.2011 47.8255C64.85 47.5486 64.5414 47.2218 64.2851 46.8555C64.2258 46.9502 64.1804 47.0529 64.1501 47.1605C63.9641 47.7965 63.8681 48.4535 63.6351 49.1145C63.3182 49.7561 63.0355 50.414 62.7881 51.0855C62.8621 51.6405 63.9411 52.3855 64.3731 52.7745C65.0158 53.4289 65.7695 53.9642 66.5991 54.3555Z" fill="#322D2D"/>
<path d="M40.0322 6.66001C39.0749 6.7067 38.1225 6.4962 37.2741 6.05042C36.4256 5.60464 35.7119 4.93982 35.2072 4.125C34.8782 5.578 36.4362 7.26201 37.9582 7.88001C39.6782 8.58001 43.1132 8.44898 44.9102 8.25598C45.2512 8.21698 49.9932 7.181 49.9742 4.125C49.1593 4.87728 48.2443 5.51328 47.2552 6.01499C45.5652 6.67299 44.3902 6.97901 40.0322 6.66001Z" fill="#433E3A"/>
<path d="M33.8961 6.10156C31.1621 8.11356 30.5961 12.8536 29.8271 15.7966C29.1171 18.5166 26.9841 23.6876 28.2661 26.3786C29.5661 25.2786 29.5981 21.8786 29.8661 20.1856C30.2189 17.9003 30.723 15.641 31.3751 13.4226C31.6086 12.3495 31.9607 11.3057 32.4251 10.3106C33.2791 8.79154 33.1611 9.21654 34.6171 9.22054C35.4781 9.22054 36.9341 9.88054 36.3171 8.06454C36.0631 7.30254 34.5041 6.36456 33.8961 6.10156Z" fill="url(#paint3_linear_58_2025)"/>
<path d="M56.6652 69.1553C57.7343 68.2126 58.4459 66.9303 58.6802 65.5243C59.1882 63.4693 58.7102 63.4973 57.5382 62.0443C55.8132 59.9233 56.7872 56.6543 56.2662 53.9903C56.0022 52.7245 55.452 51.5358 54.6576 50.5156C53.8632 49.4953 52.8457 48.6705 51.6832 48.1043C49.0292 46.6043 47.3012 45.1043 46.3832 42.1043C45.3442 38.6843 46.4002 34.5683 44.5962 31.2753C43.6412 29.5373 42.8382 28.9063 42.5422 26.9283C42.2802 25.1563 42.5792 23.0333 42.1422 21.2983C40.6642 20.5713 40.5022 22.9873 40.5292 24.0063C40.9492 26.9913 40.5852 30.4993 42.9892 32.5973C46.0792 35.2853 44.8332 45.4863 47.8422 47.5063C49.5422 48.6553 54.1232 50.6943 54.3932 52.5693C54.7591 54.3838 55.0262 56.2168 55.1932 58.0603C55.1272 58.8943 54.4832 59.8743 54.4662 60.6233C54.4052 62.9483 57.0342 62.0403 57.3532 64.2343C57.6102 65.9683 55.8282 67.1613 56.6652 69.1553Z" fill="url(#paint4_linear_58_2025)"/>
<path d="M52.6622 11.3968C53.3932 11.3705 54.1153 11.5646 54.7346 11.9539C55.3539 12.3432 55.8419 12.9096 56.1352 13.5798C56.8598 14.8397 57.5151 16.1384 58.0982 17.4698C58.6982 18.8488 58.5202 20.7757 59.9492 21.6087C59.3372 20.3087 59.4072 18.6897 58.9202 17.3887C58.3802 15.9607 57.6042 14.6587 57.0502 13.2337C56.6702 12.2497 55.7642 10.7548 55.3402 9.89979C54.0402 7.22879 52.5342 5.03977 50.4992 6.30677C50.2752 9.33777 44.0752 10.0068 41.8742 10.1188C38.0372 10.3248 35.5972 8.75879 34.7382 13.4078C34.7382 13.5448 34.7332 13.6828 34.7282 13.8178C34.2714 15.8498 33.9706 17.9139 33.8282 19.9918C33.4842 23.1728 32.0282 25.1167 30.9002 28.0307C29.9382 30.5067 30.4862 32.9988 28.0212 34.6678C25.5762 36.3268 23.3052 36.5067 20.4812 37.1737C18.5082 37.6407 17.2602 38.7737 15.5452 39.7387C13.6632 40.7937 11.7452 40.1027 9.89717 40.8757C11.3732 42.7947 15.9772 40.0758 17.5622 39.2358C19.9772 37.9518 22.1172 37.7677 24.6462 36.9577C30.2722 35.1457 31.5582 30.1578 33.8732 25.5218C34.7011 23.7572 35.2874 21.889 35.6162 19.9678C35.9592 20.1678 36.3792 20.2678 36.5272 20.5768C37.1092 21.7648 36.3402 23.5617 36.3842 24.9317C36.4292 26.1767 36.7062 27.4318 36.7592 28.7678C36.9592 34.2028 35.7592 38.5387 32.4122 42.6997C30.7062 44.8257 28.6492 45.6748 26.2952 46.8258C25.1242 47.3948 24.3562 48.4378 23.2302 49.0258C22.1042 49.6138 20.3362 49.6258 19.1612 49.9358C16.7089 50.561 14.3213 51.4168 12.0302 52.4918C9.59716 53.7098 8.30717 57.7467 11.1172 59.4627C11.8592 57.8937 10.7982 55.7708 11.7042 54.1758C13.2412 51.4688 17.1882 52.3228 19.7042 51.7628C22.3212 51.1788 25.4852 49.4408 27.9742 48.3308C29.6112 47.5968 30.9882 47.4687 32.2322 45.9887C33.0622 44.9997 33.6322 43.7388 34.4172 42.6678C36.2702 40.1438 36.7862 37.5298 37.4762 34.4328C38.7992 28.5488 37.7762 22.2327 38.9372 16.3327C39.5832 13.0327 41.1532 12.3178 44.2492 11.5808C44.5932 11.5018 45.1232 11.4108 45.7612 11.3208C50.4492 13.3268 47.1412 22.4548 49.5982 26.1638C50.3032 27.2238 51.6522 27.9338 52.1212 29.1238C52.4337 30.4431 52.6169 31.7898 52.6682 33.1448C53.2252 36.8068 53.6252 37.2508 57.0102 38.4988C58.8441 39.0171 60.6308 39.6898 62.3512 40.5097C64.1942 41.6097 64.2512 43.1727 64.7592 45.0097C66.2312 45.0097 66.4332 42.8968 66.1512 41.6838C66.8412 41.8268 67.5702 41.8727 68.2332 42.0317C69.4332 42.3167 70.5502 42.8388 71.7332 43.1658C72.894 43.8546 73.9666 44.6824 74.9272 45.6307C76.0982 46.8727 77.6272 50.4078 79.6982 49.9458C79.7742 48.6358 77.8282 47.5457 76.9342 46.7257C75.4952 45.4257 75.4342 44.5798 74.9012 43.1428C75.3842 42.557 75.9245 42.021 76.5142 41.5428C77.6142 40.8488 80.7282 41.5188 81.9022 40.9778C82.6932 40.6168 80.3802 39.7178 79.6142 39.4308C78.9472 39.1848 78.3062 39.6028 77.7272 39.8698C76.9462 40.2328 76.7332 40.1228 76.1562 40.6338C75.507 41.2108 74.6624 41.5187 73.7942 41.4948C72.3882 41.5931 70.9763 41.4276 69.6312 41.0068C68.3596 40.3972 67.0467 39.8779 65.7022 39.4528C65.0302 39.2608 63.0412 38.3607 62.3662 38.4237C60.9347 37.6342 59.4066 37.0345 57.8202 36.6398C56.8819 36.4535 56.0261 35.9765 55.3741 35.2765C54.7222 34.5765 54.3072 33.6889 54.1882 32.7398C53.4622 31.0748 53.6022 27.4778 51.0632 25.2398C49.9102 24.2288 50.0632 21.6098 50.2752 20.1708C50.5532 18.2608 51.3112 16.8648 50.8752 14.8298C50.7108 14.151 50.4914 13.4868 50.2192 12.8438C50.395 12.3564 50.735 11.9455 51.1808 11.6815C51.6265 11.4174 52.1503 11.3168 52.6622 11.3968Z" fill="url(#paint5_linear_58_2025)"/>
<defs>
<linearGradient id="paint0_linear_58_2025" x1="55.3398" y1="25.2367" x2="73.9" y2="25.2367" gradientUnits="userSpaceOnUse">
<stop offset="0.055" stop-color="#FFC931"/>
<stop offset="0.388" stop-color="#FFAA00"/>
<stop offset="1" stop-color="#FF6315"/>
</linearGradient>
<linearGradient id="paint1_linear_58_2025" x1="57.4972" y1="11.7553" x2="57.5828" y2="11.7553" gradientUnits="userSpaceOnUse">
<stop offset="0.055" stop-color="#FFC931"/>
<stop offset="0.388" stop-color="#FFAA00"/>
<stop offset="1" stop-color="#FF6315"/>
</linearGradient>
<linearGradient id="paint2_linear_58_2025" x1="44.835" y1="0.308595" x2="44.835" y2="70.2562" gradientUnits="userSpaceOnUse">
<stop offset="0.055" stop-color="#181714"/>
<stop offset="0.388" stop-color="#323130"/>
<stop offset="1" stop-color="#CDB7AC"/>
</linearGradient>
<linearGradient id="paint3_linear_58_2025" x1="32.1647" y1="6.10156" x2="32.1647" y2="26.3786" gradientUnits="userSpaceOnUse">
<stop offset="0.055" stop-color="#282824"/>
<stop offset="0.461" stop-color="#FFEC21"/>
<stop offset="0.484375" stop-color="#A39A48"/>
<stop offset="1" stop-color="#BEB6AA"/>
</linearGradient>
<linearGradient id="paint4_linear_58_2025" x1="49.7042" y1="21.1641" x2="49.7042" y2="69.1553" gradientUnits="userSpaceOnUse">
<stop offset="0.055" stop-color="#5C5C45"/>
<stop offset="0.461" stop-color="#373628"/>
<stop offset="1" stop-color="#8D8A84"/>
</linearGradient>
<linearGradient id="paint5_linear_58_2025" x1="45.7943" y1="5.9375" x2="45.7943" y2="59.4627" gradientUnits="userSpaceOnUse">
<stop offset="0.055" stop-color="#161C18"/>
<stop offset="0.461" stop-color="#1B1A17"/>
<stop offset="1" stop-color="#553F1C"/>
</linearGradient>
</defs>
</svg>
