<svg width="103" height="103" viewBox="0 0 103 103" fill="none" xmlns="http://www.w3.org/2000/svg">
<path d="M28.4239 31.9212C28.4064 32.4651 28.3509 33.0071 28.2579 33.5432L28.1799 33.5812C28.4479 33.7212 29.1169 33.4032 29.4609 33.3912C29.9189 33.3692 30.4919 33.5972 30.3899 33.0012C30.2119 31.9682 29.1899 31.3732 28.6839 30.5352C28.6199 30.9822 28.4669 31.4452 28.4239 31.9212Z" fill="#592B06"/>
<path d="M83.5391 39.9756H83.7111C83.6589 39.9285 83.6019 39.8869 83.5411 39.8516C83.5411 39.8896 83.5391 39.9336 83.5391 39.9756Z" fill="#592B06"/>
<path d="M81.8139 39.6697C82.4359 39.6997 83.0139 39.5256 83.5399 39.8496C83.5519 38.4786 83.7699 37.1366 83.7399 35.8236C83.3779 35.7116 82.4399 36.4826 82.0849 36.6706C81.3704 36.9464 80.7137 37.3534 80.1489 37.8707C79.6569 38.4177 79.3899 38.8937 80.1389 39.2897C80.6595 39.5466 81.2334 39.6768 81.8139 39.6697Z" fill="#592B06"/>
<path d="M100.942 46.0462L99.753 45.6322C96.5529 44.7322 92.8929 44.7232 89.5329 44.5412C82.2078 44.0488 74.8799 45.4592 68.2609 48.6351C61.2759 52.0301 53.3749 58.2822 50.8289 66.0792C49.0409 71.5422 47.6999 77.8881 48.5629 83.6791C49.4799 89.8111 52.7029 95.8702 52.6329 102.079C56.0329 101.326 58.6749 97.1942 62.2259 96.0012C62.2259 96.0012 64.9479 97.8112 68.4779 94.7422C73.2349 90.6062 78.0409 85.8222 83.6919 84.2342C89.9579 82.4862 92.4719 75.8242 95.7919 73.8022C98.4919 67.4782 95.0489 66.1471 97.6579 61.4301C100.942 55.4931 99.1559 51.0912 100.942 46.0462Z" fill="#6D390A"/>
<path d="M68.4759 94.7413C70.1349 93.3023 71.8009 91.7823 73.5029 90.3413C73.6389 88.0053 74.0369 85.6653 74.3919 83.3103C74.8059 80.5703 75.4029 77.3003 74.2919 74.6463C73.8099 73.4813 70.8749 71.2773 70.8749 71.2773C69.8899 74.1773 69.7839 79.9632 69.0519 82.9382C68.3519 85.7952 67.6869 88.6752 67.2219 91.5802C67.0339 92.6265 66.9043 93.6825 66.8339 94.7433C66.8143 95.0434 66.823 95.3447 66.8599 95.6433C66.8959 95.6973 66.9239 95.7433 66.9539 95.7973C67.5002 95.5051 68.0109 95.1507 68.4759 94.7413Z" fill="#592B06"/>
<path d="M71.0301 73.8555C70.9941 80.7555 70.7881 88.6455 68.9241 94.3555C70.0971 93.3285 71.2741 92.2794 72.4631 91.2554C72.7291 89.2714 73.0631 87.2955 73.3631 85.3045C73.8201 82.1595 71.6831 76.5805 71.0301 73.8555Z" fill="#471F04"/>
<path d="M90.2171 69.8175C89.5527 73.5339 89.1516 77.2926 89.0171 81.0655C91.7841 78.4395 93.6171 75.1285 95.7901 73.8025C98.4901 67.4785 95.0471 66.1475 97.6561 61.4305C100.943 55.4915 99.1561 51.0905 100.943 46.0445L99.754 45.6305L99.4601 45.5625C97.4841 46.6835 95.5741 47.9125 93.6991 49.2115C95.0398 49.2746 96.3627 49.5445 97.6211 50.0115C97.9275 50.1157 98.2058 50.289 98.4346 50.5179C98.6634 50.7469 98.8366 51.0253 98.9406 51.3317C99.0447 51.6382 99.077 51.9645 99.0349 52.2854C98.9929 52.6063 98.8776 52.9132 98.6981 53.1825C97.2461 59.4535 91.5931 63.5135 90.2171 69.8175Z" fill="#592B06"/>
<path d="M99.2701 57.4844C97.5961 60.3974 95.7171 63.1794 93.8011 65.9404C92.7441 69.8924 91.6011 73.8294 90.6321 77.7934C92.3755 74.7647 94.4714 71.9532 96.8761 69.4174C97.0061 66.4464 95.7931 64.7954 97.6551 61.4304C98.3478 60.1837 98.89 58.8591 99.2701 57.4844Z" fill="#471F04"/>
<path d="M52.1959 71.8347C52.0683 71.8469 51.94 71.8502 51.8119 71.8447C51.5259 79.1077 51.4179 86.3827 51.2029 93.6507C52.0896 96.3749 52.5717 99.2146 52.6339 102.079C54.3131 101.554 55.847 100.646 57.1139 99.4248C57.0859 98.9628 57.0579 98.5037 57.0279 98.0397C57.0071 95.8567 56.6919 93.6865 56.0909 91.5878C55.4979 89.8738 54.4149 88.1928 54.0969 86.3828C53.0319 80.3328 55.2839 75.4047 58.8739 70.9688C56.6919 71.3568 54.4679 71.5197 52.1959 71.8347Z" fill="#592B06"/>
<path d="M76.624 87.8873C77.8566 86.9826 79.1609 86.1799 80.524 85.4874C80.624 83.9364 80.752 82.3874 80.948 80.8374C81.5228 77.3012 82.4828 73.8386 83.811 70.5113C84.911 67.3643 84.151 63.9994 85.211 60.8844C86.046 58.4364 87.187 56.2343 87.821 53.8203C86.3764 54.664 84.7414 55.1275 83.069 55.1673C81.249 55.1473 79.388 54.8853 77.622 55.4993C77.732 55.4613 72.455 56.7444 73.764 57.3374C74.464 57.4686 75.1528 57.6542 75.824 57.8923C75.988 57.9543 80.058 57.7923 80.058 57.7923C77.079 64.8773 77.722 75.2863 77.147 82.7923C77.019 84.5063 76.849 86.2073 76.624 87.8873Z" fill="#592B06"/>
<path d="M76.624 87.8893C76.94 87.6613 77.265 87.4293 77.591 87.2163C77.749 84.2033 78.161 81.2163 78.498 78.2083C78.856 74.9633 78.992 71.7083 79.633 68.5033C80.733 63.0033 82.011 59.1223 86.375 55.4573C86.6843 55.1867 87.0673 55.0147 87.475 54.9633C87.603 54.5853 87.723 54.2023 87.823 53.8203C86.3784 54.6639 84.7434 55.1274 83.071 55.1673C81.251 55.1473 79.39 54.8853 77.624 55.4993C77.734 55.4613 72.457 56.7443 73.766 57.3373C74.466 57.4685 75.1548 57.6541 75.826 57.8923C75.99 57.9543 80.06 57.7923 80.06 57.7923C77.081 64.8773 77.724 75.2863 77.149 82.7923C77.019 84.5083 76.849 86.2093 76.624 87.8893Z" fill="#471F04"/>
<path d="M64.62 78.6736C66.143 74.6736 65.691 70.6737 68.46 66.7207C69.091 65.8207 73.383 60.8437 73.56 59.8047C70.46 60.9297 61.473 66.9376 59.749 69.8376C60.1247 73.0571 60.304 76.2964 60.286 79.5377C60.206 82.8047 59.752 86.0137 60.128 89.2827C60.404 91.6827 60.813 94.0956 61.105 96.4976C61.3991 96.3422 61.7019 96.2039 62.012 96.0836C61.836 93.5336 62.483 91.0506 62.899 88.4836C63.451 85.0956 63.382 81.9466 64.62 78.6736Z" fill="#592B06"/>
<path d="M67.614 64.011C67.64 63.857 67.656 63.701 67.682 63.543C64.4149 64.7092 61.626 66.9245 59.751 69.843C60.1266 73.0624 60.306 76.3018 60.288 79.543C60.208 82.81 59.754 86.019 60.13 89.288C60.406 91.688 60.815 94.102 61.107 96.503C61.3674 96.3689 61.6344 96.248 61.907 96.141C61.665 90.105 61.587 84.066 61.807 78.026C62.015 72.248 64.72 68.698 67.614 64.011Z" fill="#471F04"/>
<path d="M51.8279 66.523C49.2519 59.458 38.6939 53.134 32.2179 50.096C25.7419 47.058 16.9559 47.069 9.9289 46.725C8.20619 46.7247 6.4922 46.4806 4.83789 46C4.83789 51.647 5.0379 57.689 7.6669 62.513C8.7519 64.507 9.9129 72.054 12.1889 76.348C13.7259 79.253 15.2889 78.596 17.7399 79.585C21.5779 81.14 23.4889 86.585 29.9809 90.155C32.3009 91.432 33.7489 94.681 38.5709 96.289C40.5712 96.8314 42.6653 96.9338 44.7089 96.589C47.5089 97.722 47.6019 100.342 52.6339 102.076C52.7939 96.455 52.2959 90.676 52.2959 84.69C52.2959 79.284 53.6529 71.52 51.8279 66.523Z" fill="#915922"/>
<path d="M25.864 87.1904C27.1166 88.3341 28.4979 89.3285 29.98 90.1534C31.375 90.9204 32.466 92.4054 34.158 93.8204C32.8798 90.8137 31.8265 87.7161 31.007 84.5534C30.007 80.4214 29.626 76.0534 28.507 71.9414C28.497 71.9834 28.493 72.0234 28.485 72.0654C29.1195 74.4035 29.3148 76.8391 29.061 79.2484C29.083 82.7414 28.356 85.9614 25.864 87.1904Z" fill="#6D390A"/>
<path d="M52.1759 72.6437C51.2055 71.7887 50.0839 71.1227 48.8689 70.6797C48.8849 70.7697 48.9009 70.8697 48.9169 70.9977C48.9609 71.1377 49.0029 71.2797 49.0489 71.4167C49.2067 71.5481 49.3469 71.6993 49.4659 71.8667C52.7149 76.4387 51.4119 81.9857 51.5959 87.2107C51.7579 91.7107 52.3429 96.1927 52.6569 100.686C52.7089 95.5007 52.2949 90.1857 52.2949 84.6967C52.2949 81.2967 52.8289 76.9537 52.7729 72.9657C52.5598 72.8868 52.3589 72.7784 52.1759 72.6437Z" fill="#AA692E"/>
<path d="M48.487 99.7253C48.177 95.9903 47.72 92.2663 47.587 88.5033C47.527 86.7893 47.675 84.9283 47.757 83.0563C46.6995 79.9826 45.9073 76.8241 45.389 73.6153C44.589 71.3453 43.876 68.7743 45.489 67.5033C45.8874 67.1856 46.3368 66.9377 46.818 66.7702C46.5255 66.5754 46.2057 66.4251 45.869 66.3242C44.6582 67.0095 43.3392 67.483 41.969 67.7243C44.2836 74.219 45.3915 81.0821 45.238 87.9753C45.266 88.0413 45.296 88.1052 45.318 88.1752C45.5691 89.4257 45.517 90.7181 45.166 91.9443C45.1849 92.0512 45.1943 92.1596 45.194 92.2683C45.2091 93.7515 45.1189 95.2338 44.924 96.7042C46.445 97.3912 47.162 98.5443 48.487 99.7253Z" fill="#AA692E"/>
<path d="M5.4809 46.19C5.2669 46.13 5.05289 46.07 4.83789 46C4.83789 51.647 5.0379 57.689 7.6669 62.513C8.7519 64.507 9.9129 72.054 12.1889 76.348C12.4434 76.953 12.8342 77.491 13.3308 77.9201C13.8274 78.3493 14.4164 78.6579 15.0519 78.822C12.7519 74.042 8.5759 66.722 11.1059 61.89C9.7751 60.7929 8.55439 59.5687 7.46089 58.235C6.70663 56.2034 6.2921 54.0614 6.2339 51.895C6.15099 50.2829 6.19714 48.6667 6.3719 47.062C6.05306 46.7945 5.75518 46.503 5.4809 46.19Z" fill="#AA692E"/>
<path d="M22.3291 83.5041C22.4431 80.9941 22.6231 78.4791 22.6291 75.9491C22.6531 70.2061 20.1451 64.6491 22.2671 59.0831C21.8161 58.6466 21.4085 58.1673 21.0501 57.6521C19.8769 56.8454 18.6637 56.0984 17.4151 55.4141C17.3926 56.2115 17.3291 57.0072 17.2251 57.7981C17.2311 57.8841 17.2391 57.9761 17.2491 58.0681C18.303 61.2892 19.0602 64.6 19.5111 67.9591C19.5924 68.1239 19.6503 68.2992 19.6831 68.4801C19.8311 69.2851 19.9831 70.0801 20.1231 70.8801C20.3091 71.1816 20.4145 71.526 20.4291 71.8801C20.7415 75.1826 20.8511 78.5011 20.7571 81.8171C21.2801 82.3391 21.7901 82.8981 22.3291 83.5041Z" fill="#AA692E"/>
<path d="M19.7439 51.4744C17.9359 51.1804 13.5059 50.6074 13.0979 50.6254C13.3171 53.8764 13.8085 57.1034 14.5669 60.2724C15.4739 63.6054 17.1889 66.5404 18.2669 69.7894C19.4869 73.7079 20.3268 77.7348 20.7749 81.8144C21.0869 82.1344 21.3989 82.4714 21.7139 82.8234C21.7069 76.2652 21.0774 69.7226 19.8339 63.2834C19.0339 59.6024 18.6729 58.4024 18.3769 56.0664C18.6889 55.6334 20.0559 51.5524 19.7439 51.4744Z" fill="#241F1B"/>
<path d="M19.7439 51.4724C17.9359 51.1784 7.86691 48.0094 7.46191 48.0274C8.81691 50.3534 12.3189 52.1074 13.5799 52.4634C16.8329 53.6044 16.8029 55.7524 17.4019 58.2804C18.1929 61.6114 18.9329 64.9944 19.6099 68.3494C20.6925 72.9742 21.2838 77.7004 21.3739 82.4494C21.4879 82.5714 21.6019 82.6894 21.7159 82.8174C21.7088 76.2593 21.0793 69.7166 19.8359 63.2774C19.0359 59.5964 18.7429 58.2774 18.4469 55.9444C18.7559 55.5104 20.0559 51.5504 19.7439 51.4724Z" fill="#592B06"/>
<path d="M49.954 64.7916C46.641 64.8836 36.354 63.3326 37.136 65.4246C39.462 68.8136 41.886 73.8026 43.422 83.3026C44.145 87.7666 44.187 92.1106 44.709 96.5946C44.897 96.6866 45.414 96.9525 45.582 97.0555C45.82 94.6735 46.139 92.2796 46.343 89.8556C46.91 83.0436 44.649 75.4215 44.037 68.6715C44.038 68.6745 48.879 66.1666 49.954 64.7916Z" fill="#241F1B"/>
<path d="M49.954 64.7913C46.641 64.8833 30.876 58.6913 27.741 59.8063L31.541 62.5293C34.941 63.8293 40.335 68.5653 40.317 68.7093C41.096 69.1933 43.99 75.9303 44.529 78.6983C45.66 84.4473 46.189 90.9574 45.129 96.7984C45.283 96.8824 45.435 96.9643 45.579 97.0563C45.817 94.6743 46.136 92.2803 46.34 89.8563C46.908 83.0453 44.646 75.4223 44.034 68.6723C44.038 68.6733 48.879 66.1663 49.954 64.7913Z" fill="#592B06"/>
<path d="M81.6469 65.6225C81.3769 67.7785 82.4179 78.7305 81.8569 80.7605C83.8889 80.6885 83.3759 80.2185 85.4099 80.0195C87.0499 79.8575 90.7099 71.3975 92.2959 70.7945C93.8819 70.1915 97.0699 68.2445 98.0489 66.7945C99.0039 65.3945 98.9279 64.2465 99.668 62.7225C100.421 61.1735 101.209 61.1935 102.254 59.8055C103.325 58.3825 101.219 53.4375 101.219 53.4375L93.1969 56.3465C92.3439 56.7125 91.4609 57.0115 90.5969 57.3615L89.1859 57.9225C87.3212 58.7304 85.4133 59.4348 83.4709 60.0325C83.4112 60.0476 83.3503 60.0576 83.2889 60.0625C83.154 60.1178 83.0055 60.1311 82.8629 60.1005L82.6909 60.1645C82.6909 60.1645 82.7389 62.3405 82.6449 62.9015C82.4679 63.8785 81.7709 64.6065 81.6469 65.6225Z" fill="#824B19"/>
<path d="M85.7591 74.9619C85.2833 76.6549 84.9241 78.3787 84.6841 80.1209C84.8841 80.0829 85.1181 80.0509 85.4091 80.0209C85.6417 79.9718 85.8542 79.854 86.0191 79.6829C86.9251 76.4903 88.2131 73.4188 89.8551 70.5349C90.9763 68.3067 91.9358 66.0007 92.7261 63.6349C93.1001 62.5639 93.7371 61.9649 91.8671 61.8049C90.8901 61.7209 89.9211 61.6649 88.9421 61.6289C90.2351 63.3429 91.4041 64.6559 90.2171 67.1119C88.9301 69.7699 86.5481 72.0819 85.7591 74.9619Z" fill="#93552B"/>
<path d="M85.5669 79.9792C87.2769 79.3382 90.7519 71.3793 92.2949 70.7943C93.8789 70.1943 97.0689 68.2453 98.0479 66.7943C99.0029 65.3943 98.9269 64.2463 99.667 62.7223C100.42 61.1733 101.207 61.1933 102.253 59.8053C103.324 58.3823 101.218 53.4373 101.218 53.4373C101.218 53.1913 95.9609 55.3133 91.8849 58.6443C91.0219 59.5973 91.7849 62.1373 91.7969 62.3963C91.9749 65.5693 91.3769 67.2193 88.9759 70.7263C87.1477 73.5097 85.9816 76.675 85.5669 79.9792Z" fill="#683411"/>
<path d="M85.5669 79.9779C86.3279 79.6899 87.4409 77.9599 88.5669 76.0779C87.7239 72.8249 90.1099 69.7779 92.1279 67.1159C92.6352 65.0477 93.3453 63.0346 94.2479 61.1059C94.2219 61.0899 94.1939 61.0679 94.1659 61.0479C93.9743 60.8914 93.7739 60.7458 93.5659 60.6119C92.8749 60.5375 92.1761 60.6237 91.5239 60.8639C91.6079 61.6169 91.7859 62.2729 91.7959 62.3979C91.9739 65.5709 91.3759 67.2219 88.9749 70.7279C87.1475 73.5106 85.9817 76.6748 85.5669 79.9779Z" fill="#592B06"/>
<path d="M76.813 90.1784C77.876 89.4094 78.449 84.5193 79.277 81.0643C80.004 78.0253 84.364 73.7434 84.466 70.6004L84.316 70.7424C82.278 69.0224 79.97 70.9124 78.186 71.5974C75.778 72.5184 73.153 71.7094 70.886 71.2794C70.8854 73.4381 71.0439 75.5939 71.36 77.7294C71.552 79.9074 72.411 89.1434 72.467 91.2524C74.068 91.8174 75.283 91.2924 76.813 90.1784Z" fill="#683411"/>
<path d="M77.1301 78.3626C78.3831 75.2236 81.8481 74.2526 84.1601 72.0426C84.3083 71.6308 84.4024 71.2016 84.4401 70.7656C82.3308 72.6142 79.7175 73.7908 76.9351 74.1446C76.9312 74.2173 76.9177 74.2893 76.8951 74.3585C75.4308 79.8911 74.7085 85.5937 74.7471 91.3165C75.2934 91.1316 75.8118 90.8729 76.2881 90.5476C76.2941 88.0236 76.4361 85.5106 76.5881 82.9926C76.5388 81.4309 76.7215 79.8706 77.1301 78.3626Z" fill="#592B06"/>
<path d="M75.3011 91.1017C75.3009 84.2661 76.3778 77.4731 78.4921 70.9727C76.0052 71.6065 73.4132 71.7121 70.8831 71.2827C70.8825 73.4414 71.0409 75.5972 71.3571 77.7327C71.5491 79.9107 72.4081 89.1457 72.4641 91.2557C72.9219 91.4274 73.4104 91.5023 73.8987 91.4758C74.387 91.4493 74.8645 91.3219 75.3011 91.1017Z" fill="#824B19"/>
<path d="M74.689 91.3256C74.8984 91.266 75.1027 91.1898 75.3 91.0976C75.3297 85.5587 76.0397 80.0444 77.414 74.6786C76.3965 74.805 75.3635 74.6779 74.407 74.3086C75.95 76.5226 75.816 78.7406 75.374 81.3156C74.9003 84.6309 74.6713 87.9766 74.689 91.3256Z" fill="#93552B"/>
<path d="M14.947 67.513C15.157 69.765 16.577 72.858 17.537 75.006C18.6222 77.3628 19.5825 79.7752 20.414 82.233C20.648 82.233 21.141 82.469 21.375 82.457C21.4554 79.9418 21.3216 77.4244 20.975 74.932C19.99 69.255 19.456 67.163 18.767 64.332C17.576 65.111 16.288 66.977 14.947 67.513Z" fill="#6D390A"/>
<path d="M18.8671 64.7123C18.8331 64.5803 18.8011 64.4542 18.7671 64.3242C17.5721 65.1072 16.2831 66.9732 14.9431 67.5092C15.1531 69.7612 16.5731 72.8543 17.5331 75.0023C18.6183 77.3591 19.5786 79.7714 20.4101 82.2292C20.4855 82.2347 20.56 82.2488 20.6321 82.2712C19.8911 79.1482 19.2191 76.0252 18.3641 72.9162C18.0401 71.7392 17.4591 70.2002 17.7491 68.9402C18.2348 67.5632 18.6087 66.1493 18.8671 64.7123Z" fill="#5B2B07"/>
<path d="M9.70898 65.6804C11.699 68.4004 14.045 70.9894 15.332 74.0424C16.377 76.5144 17.692 81.4354 20.413 82.2304C19.36 77.9824 17.254 72.3834 16.395 69.2524C15.94 67.5794 12.876 62.4654 9.70898 65.6804Z" fill="#241F1B"/>
<path d="M9.70898 65.6804C9.75098 65.7384 9.79698 65.7924 9.83698 65.8504C9.97198 65.8423 10.107 65.8663 10.231 65.9204C14.523 67.7964 16.185 70.1764 17.474 74.5784C18.1428 76.7702 18.989 78.9039 20.004 80.9584C20.072 81.1024 20.144 81.2584 20.204 81.4244C19.104 77.3004 17.197 72.1954 16.392 69.2534C15.94 67.5794 12.876 62.4654 9.70898 65.6804Z" fill="#935527"/>
<path d="M48.7109 95.6235C48.5949 91.4095 50.2659 86.5575 51.1489 82.6355C48.9749 82.7015 48.6189 79.9445 47.9599 78.1835C47.3269 76.4755 46.9109 74.2235 46.3659 72.7685L46.1199 72.6445C46.7689 74.5985 46.8069 76.9545 47.3849 79.0605C47.6092 79.9686 47.8942 80.8606 48.2379 81.7305C48.3514 82.0808 48.5202 82.4106 48.7379 82.7075C49.0059 83.0075 49.5909 83.0375 49.7229 83.3225C49.9529 83.8085 49.3229 85.1325 49.1719 85.6945C48.8655 86.6593 48.7084 87.6652 48.7059 88.6775C48.7059 89.9465 48.7619 91.2315 48.7059 92.4975C48.6589 93.4395 48.3159 94.7315 48.7109 95.6235Z" fill="#241F1B"/>
<path d="M27.373 65.4253C27.213 64.6063 27.027 60.6063 26.792 59.8063C26.153 59.3843 24.942 59.4723 24.21 59.2263C23.77 59.0803 22.124 58.8513 22.362 59.1083L22.236 58.9883C22.496 59.7633 22.224 64.7283 22.236 65.5303C22.752 65.4303 23.661 62.3593 24.236 62.4113C24.4462 63.8416 24.3988 65.2978 24.096 66.7113C25.672 67.6283 25.089 69.0113 24.943 70.5263C24.775 72.2783 25.97 71.2794 25.86 73.0364C25.77 74.4894 24.603 78.5813 24.795 80.0213C25.2852 81.2517 25.6423 82.531 25.86 83.8374C25.86 83.9614 25.904 83.8773 25.988 83.6513C24.975 79.8333 26.188 76.0514 27.321 72.3514C27.297 71.6024 27.287 70.8444 27.311 70.0874C27.333 69.5534 27.351 69.0143 27.369 68.4873C27.052 66.5923 27.433 67.3353 27.373 65.4253Z" fill="#6D390A"/>
<path d="M83.722 35.7969C78.422 30.1079 71.415 29.9968 67.085 26.1968C64.941 24.3108 55.228 19.5969 52.638 17.8789C46.738 21.4119 42.412 21.3599 39.838 24.7949C37.298 28.1779 32.207 28.5728 28.654 30.6238C28.848 31.1128 29.301 32.2599 29.533 32.7779C25.027 31.9949 19.414 36.7598 15.073 39.6478C11.288 42.1658 4.69897 45.8198 4.69897 45.8198C9.664 51.2198 13.916 52.1559 18.948 52.9069C19.304 53.8519 17.955 55.3068 18.64 56.8488C20.77 61.6208 36.593 63.6668 40.366 67.9788C41.277 69.0198 46.011 66.6359 46.011 66.6359C46.011 67.4909 44.035 68.6778 44.035 68.6778C48.691 71.3638 50.913 74.0779 52.917 73.7869C54.873 73.5009 60.226 70.2869 61.961 69.2049C65.342 67.1049 66.419 64.8949 70.043 63.5239C74.475 61.8519 76.813 61.7619 80.061 57.7949C78.2923 57.502 76.5073 57.319 74.716 57.2468C79.328 55.1168 84.763 56.6138 89.38 53.8538C93.049 51.6618 96.741 46.8709 100.939 46.0469C99.52 44.5339 95.82 41.7308 86.65 37.3088L80.913 38.3258C81.9041 37.5458 82.8425 36.7009 83.722 35.7969Z" fill="#93B40D"/>
<path d="M36.412 32.8135C33.012 32.9355 29.746 33.5705 26.412 33.0015C25.5026 33.249 24.6208 33.5884 23.78 34.0145C25.6578 34.4352 27.5597 34.7395 29.475 34.9255C31.849 35.1095 34.267 34.9675 36.622 35.3115C39.867 35.7905 42.137 37.1755 42.948 39.9195C44.448 37.8335 44.918 35.3895 41.793 33.9855C40.112 33.1902 38.2715 32.7894 36.412 32.8135Z" fill="#84990A"/>
<path d="M47.946 36.4403C49.453 34.5043 50.368 32.2663 52.168 30.5463C53.8937 29.1819 55.9066 28.2269 58.0549 27.7533C61.0971 27.0117 64.2013 26.5527 67.328 26.3823C67.248 26.3203 67.164 26.2623 67.086 26.1943C66.1492 25.4614 65.1535 24.8071 64.109 24.2383C55.176 25.7463 42.176 29.2423 47.946 36.4403Z" fill="#84990A"/>
<path d="M18.581 54.9883C18.3821 55.5942 18.404 56.251 18.643 56.8422C19.1843 57.828 19.9953 58.639 20.981 59.1802C23.0449 57.5783 25.4254 56.4327 27.965 55.8192C29.693 53.9012 31.144 51.9792 31.456 49.4492C31.216 49.4792 30.978 49.5232 30.737 49.5492C27.848 52.8602 23.055 56.0373 18.581 54.9883Z" fill="#84990A"/>
<path d="M38.153 47.5195C37.63 47.7635 37.09 47.9795 36.553 48.1865C36.553 48.2105 36.553 48.2345 36.553 48.2605C36.4597 48.5677 36.4293 48.8906 36.4637 49.2099C36.498 49.5292 36.5964 49.8382 36.753 50.1185C36.8596 50.0569 36.9777 50.0179 37.1 50.0038C37.2223 49.9897 37.3462 50.0008 37.464 50.0365C38.241 50.2605 39.021 50.4745 39.792 50.6955C43.407 50.3535 47.383 50.8875 50.082 53.3875C50.1942 53.4055 50.302 53.4441 50.4 53.5015C50.826 53.3255 51.253 53.1695 51.687 53.0335C48.316 50.2405 44.048 49.5025 39.687 48.3455C39.6496 48.3562 39.6115 48.3642 39.573 48.3695C38.732 48.3705 38.333 48.0565 38.153 47.5195Z" fill="#84990A"/>
<path d="M90.8869 39.4336C89.7719 38.8506 88.5449 38.2246 87.1989 37.5736C84.1055 38.4109 80.8998 38.7568 77.6989 38.5986C72.556 39.3418 67.3087 38.781 62.4389 36.9676C58.4849 36.2866 53.8389 34.8476 54.4539 31.3086C53.8872 31.658 53.3627 32.0718 52.8909 32.5416C52.948 32.7229 52.948 32.9174 52.8909 33.0986C52.7971 33.3896 52.7472 33.6929 52.7429 33.9986C52.8085 34.1128 52.8504 34.2391 52.8662 34.3698C52.882 34.5005 52.8714 34.6331 52.8349 34.7596C54.5489 41.1606 79.2819 41.8376 90.8869 39.4336Z" fill="#84990A"/>
<path d="M72.4771 51.071C73.963 50.8271 75.4771 50.8069 76.9691 51.011C80.6401 51.492 84.1261 52.683 87.3511 51.365C87.9661 50.931 88.6001 50.522 89.2351 50.106C89.4168 49.1556 89.5119 48.1906 89.5191 47.223C88.3781 48.576 86.2801 49.071 83.9061 48.923C81.6061 48.773 79.3561 48.256 77.0661 48.04C76.5391 47.996 76.0251 47.974 75.5191 47.97C75.3351 47.988 75.1571 48 74.9761 48.024C72.9521 48.294 71.1381 48.468 69.4761 47.508C69.1148 47.389 68.764 47.2405 68.4271 47.064C68.3851 47.038 68.3591 47.016 68.3271 47C67.5061 48.782 66.5551 51.61 69.2981 51.47C70.367 51.425 71.4302 51.2916 72.4771 51.071Z" fill="#84990A"/>
<path d="M23.0209 43.8443C19.6639 43.6163 15.5939 43.4783 13.3019 40.7773C12.3019 41.4043 11.2359 42.0443 10.2019 42.6613C11.8237 43.6348 13.5369 44.4473 15.3169 45.0873C17.2589 45.5153 19.2169 45.8983 21.1259 46.4523C22.147 46.5779 23.1742 46.6473 24.2029 46.6603C29.7239 46.6943 35.3729 47.0943 39.6289 43.4493C39.3389 43.4753 39.0439 43.5053 38.7289 43.5333C33.6589 45.2893 28.3279 44.2103 23.0209 43.8443Z" fill="#84990A"/>
<path d="M29.8171 62.2426C28.8171 62.1046 27.8171 61.9426 26.8281 61.7366C26.7201 61.7366 26.6121 61.7266 26.5081 61.7266C27.7931 62.2006 29.1361 62.6676 30.4741 63.1266L30.2541 63.0026C30.1232 62.9228 30.0146 62.8114 29.9382 62.6785C29.8619 62.5457 29.8202 62.3958 29.8171 62.2426Z" fill="#43D7EF"/>
<path d="M64.5481 66.4025C62.8581 68.0685 55.1481 72.4945 52.8231 72.9245C51.1031 73.2405 50.4791 71.2395 45.9351 68.9525C44.8681 68.4215 47.2161 66.2525 47.3661 65.7615C45.7305 66.0174 44.1351 66.485 42.6201 67.1525C42.195 67.2993 41.7438 67.3549 41.2958 67.3156C40.8478 67.2763 40.4131 67.1431 40.0201 66.9245C36.1521 63.1045 25.7651 60.9925 23.0101 59.8055C21.4791 59.1485 19.2361 57.7595 19.0261 56.0115C19.0644 54.998 19.3256 54.0055 19.7911 53.1045C20.2651 51.6595 17.8311 51.9575 17.1141 51.8045C14.4531 51.2345 7.3511 48.9375 4.7141 45.8125H4.7041C9.6691 51.2125 13.9211 52.1485 18.9531 52.8995C19.3091 53.8445 17.9601 55.2995 18.6451 56.8415C20.7751 61.6135 36.5981 63.6595 40.3711 67.9715C41.2821 69.0125 46.0161 66.6285 46.0161 66.6285C46.0161 67.4835 44.0401 68.6705 44.0401 68.6705C48.6961 71.3565 50.9181 74.0705 52.9221 73.7795C54.8781 73.4935 60.2311 70.2795 61.9661 69.1975C65.3471 67.0975 66.4241 64.8875 70.0481 63.5165C74.4801 61.8445 76.8181 61.7545 80.0661 57.7875C78.2975 57.4947 76.5124 57.3117 74.7211 57.2395C79.3331 55.1095 84.7681 56.6065 89.3851 53.8465C92.3241 52.0925 95.2791 48.6655 98.5021 46.9465C96.2281 47.4645 94.1701 49.5105 92.2821 50.8465C89.5821 52.7685 87.4371 54.4465 84.0641 54.9105C81.9461 55.2005 76.1411 55.8835 75.1541 56.4855C74.2651 57.0305 73.4641 57.4855 74.4541 57.5605C76.0019 57.6888 77.5372 57.9379 79.0461 58.3055C74.5381 62.2715 69.6811 62.0585 68.3381 62.9055C66.9479 63.9256 65.6766 65.0986 64.5481 66.4025Z" fill="#BAE64A"/>
<path d="M97.6259 64.8463C97.4539 65.4773 97.7679 66.7464 97.5739 67.3604C97.7484 67.1865 97.9071 66.9974 98.0479 66.7954C99.0029 65.3954 98.9269 64.2473 99.667 62.7233C100.42 61.1743 101.208 61.1943 102.253 59.8063C103.324 58.3833 101.218 53.4383 101.218 53.4383C101.218 53.3903 101.04 53.4303 100.752 53.5263C100.285 54.6836 99.576 55.7274 98.6719 56.5873C99.2371 57.5875 99.63 58.6757 99.833 59.8063C98.9659 62.0333 98.1589 63.2823 97.6259 64.8463Z" fill="#592B06"/>
<path d="M93.5359 68.5762C95.1999 65.2972 96.8849 62.0522 97.6259 58.4292C95.9799 58.8292 93.5459 58.1492 91.8589 58.4292C91.2979 59.0742 94.5489 59.7042 94.7959 60.4112C94.7959 60.4112 94.6179 61.9702 94.5299 62.5032C94.1909 64.5282 93.8859 66.5582 93.5359 68.5762Z" fill="#471F04"/>
<path d="M92.976 58.8913C93.349 58.6913 97.3 58.9093 97.717 58.7173C100.455 57.4703 100.539 55.9983 101.217 54.8293C102.19 53.1433 100.088 52.4493 97.373 52.7033C94.273 56.2703 87.584 58.6433 82.687 60.1643C84.158 61.6573 86.609 60.4403 87.828 61.2873C88.9986 62.0706 90.3889 62.4592 91.796 62.3963C92.8409 61.8055 93.8433 61.1425 94.796 60.4123C95.218 60.0323 92.271 59.2583 92.976 58.8913Z" fill="#A06422"/>
<path d="M91.7951 61.9414C90.9141 62.0534 88.7421 60.8764 87.8271 60.7724C86.8854 60.7766 85.9447 60.7131 85.0121 60.5824C84.4471 60.4824 83.6391 60.1004 83.0841 60.0404C82.9481 60.0824 82.8161 60.1264 82.6841 60.1644C84.1551 61.6574 86.6061 60.4404 87.8251 61.2874C88.9959 62.0722 90.387 62.4619 91.7951 62.3994C92.84 61.8086 93.8424 61.1457 94.7951 60.4154C95.2171 60.0354 92.2691 59.2624 92.9751 58.8944C93.3481 58.6944 97.2991 58.9124 97.7161 58.7204C98.4556 58.4408 99.1246 58.0022 99.676 57.4356C100.227 56.869 100.648 56.1883 100.907 55.4414C99.764 57.1974 98.4171 58.3604 94.3191 57.8414H94.2951C93.4764 57.975 92.6727 58.1877 91.8951 58.4764C91.8571 58.4884 91.8231 58.4924 91.7871 58.5024C92.2331 58.9284 92.5801 59.5854 93.2081 59.7954C94.9521 60.3884 92.4431 61.8594 91.7951 61.9414Z" fill="#C98441"/>
<path d="M78.349 74.815C79.618 74.302 83.866 72.177 84.403 70.945C85.154 69.215 79.216 68.491 77.827 69.015C77.827 69.015 75.8889 70.084 74.9269 70.492C73.6776 71.1295 72.2742 71.4029 70.877 71.281C71.0193 71.7261 71.2353 72.1442 71.516 72.518C72.938 74.162 76.385 75.597 78.349 74.815Z" fill="#A06422"/>
<path d="M78.349 74.8133C80.3797 73.978 82.2816 72.8588 83.998 71.4893C80.357 74.2613 74.267 75.1103 71.312 71.3353C71.1686 71.3277 71.0258 71.3097 70.885 71.2812C71.0274 71.7264 71.2434 72.1445 71.524 72.5182C72.938 74.1622 76.385 75.5993 78.349 74.8133Z" fill="#C98441"/>
<path d="M11.2401 66.3242C13.1041 66.7702 14.853 68.1503 16.395 69.2513C17.434 67.9063 18.7711 66.3242 18.7711 64.3242C17.3271 63.8446 16.0413 62.9803 15.052 61.8242C12.141 63.0872 7.07004 65.7322 11.2401 66.3242Z" fill="#BA8342"/>
<path d="M15.717 68.1208C14.1987 67.0451 12.472 66.299 10.648 65.9307C9.66102 65.7247 9.81102 65.3477 9.73502 65.1777C9.49706 65.7037 9.85902 66.1308 11.245 66.3248C13.109 66.7698 14.858 68.1507 16.4 69.2517C17.413 67.9347 18.7 66.3947 18.762 64.4688C18.4287 65.4352 17.9755 66.356 17.413 67.2097C17.117 67.7087 16.162 68.5178 15.717 68.1208Z" fill="#FCBF75"/>
<path d="M36.7801 71.9422C36.0886 72.6533 35.5364 73.4877 35.1521 74.4022C34.0611 76.8482 33.5011 78.6262 34.1151 81.4242C34.9436 84.7558 35.9595 88.0381 37.1581 91.2552C37.9191 93.4872 39.0341 97.6692 41.0581 99.0982C41.9729 98.3643 42.8326 97.5641 43.6301 96.7042C42.358 92.5816 41.5451 88.3312 41.2061 84.0302C40.7861 79.8422 40.0871 75.4862 39.7611 71.3522C39.2542 71.1966 38.7165 71.169 38.1963 71.272C37.6761 71.3749 37.1896 71.6052 36.7801 71.9422Z" fill="#6D390A"/>
<path d="M39.8151 71.8625C39.7991 71.6965 39.7751 71.5225 39.7631 71.3525C39.2558 71.1966 38.7178 71.169 38.1972 71.2722C37.6766 71.3753 37.1897 71.606 36.7801 71.9435C36.0886 72.6546 35.5364 73.489 35.1521 74.4035C34.0611 76.8495 33.5011 78.6275 34.1151 81.4255C34.9436 84.7571 35.9595 88.0394 37.1581 91.2565C37.9191 93.4885 39.0341 97.6705 41.0581 99.0995C41.7581 98.4625 42.6011 97.8105 43.2721 97.0995C40.6341 95.0775 40.4721 91.3585 39.2901 88.0795C38.211 85.4452 37.6291 82.6337 37.5741 79.7875C37.6181 76.9945 38.8741 74.9255 39.6361 72.2945C39.6808 72.1447 39.7408 71.9999 39.8151 71.8625Z" fill="#5B2B07"/>
<path d="M35.1141 73.4374C33.9271 72.7144 32.0831 72.3964 30.7721 71.5574C29.6271 70.8224 24.2481 68.4344 22.8721 68.5764C23.0981 72.6104 26.8721 77.5964 28.5791 81.9084C30.4131 86.5584 31.8441 89.5654 33.1271 94.3544C33.5811 96.0444 37.0991 95.7014 38.7501 98.9264L41.0641 99.0964C41.0641 99.0964 40.5721 95.9194 40.2111 94.6504C39.7551 93.0654 37.2111 83.5804 36.5541 80.4974C36.1281 78.4974 36.9281 74.5464 35.1141 73.4374Z" fill="#241F1B"/>
<path d="M36.099 74.9297C35.0949 75.191 34.0557 75.2923 33.02 75.2297C36.185 78.1407 36.906 83.2996 37.63 87.3706C38.347 91.4086 39.918 95.1556 40.83 99.0776L41.066 99.0997C41.066 99.0997 40.574 95.9227 40.213 94.6537C39.757 93.0697 37.213 83.5837 36.556 80.5007C36.245 79.0577 36.573 76.6057 36.099 74.9297Z" fill="#935527"/>
<path d="M23.1989 67.6623C21.7159 69.0093 25.5629 73.5233 27.7409 74.6273C30.2092 75.7036 32.9257 76.0811 35.5939 75.7183C37.8739 75.4663 39.8719 71.1623 39.8719 71.1623C38.5289 70.2693 35.5999 69.9113 33.5099 68.5203C30.7969 66.7203 27.4519 64.8633 27.4519 64.8633C25.9259 66.3073 24.6269 66.3643 23.1989 67.6623Z" fill="#BA8342"/>
<path d="M23.1989 67.6641C21.7159 69.0111 25.5629 73.5251 27.7409 74.6291C30.2092 75.7054 32.9257 76.0828 35.5939 75.7201C37.3999 75.5201 39.0269 72.7851 39.6259 71.6581C36.6049 75.3511 33.8609 75.8321 28.2029 73.8021C26.5079 73.1971 22.6339 70.6771 23.6089 67.3281C23.4699 67.4381 23.3339 67.5381 23.1989 67.6641Z" fill="#FCBF75"/>
<path opacity="0.46" d="M31.7881 69.4359C30.1311 69.3359 28.4671 69.4279 26.8241 69.1919C26.6688 69.1572 26.5115 69.1325 26.3531 69.1179L25.9311 69.0859C25.6571 69.1179 24.6001 69.3079 24.5901 69.7169C24.5901 69.9489 26.0231 70.3169 26.3201 70.3819C26.6441 70.422 26.9549 70.5348 27.2291 70.7119C27.4719 70.8713 27.7557 70.9567 28.0461 70.9579C28.7039 71.0038 29.3642 71.0038 30.0221 70.9579C30.3281 70.9399 30.6131 70.9579 30.9051 70.9579C31.2358 70.9242 31.5585 70.8357 31.8601 70.6959C32.3991 70.5219 33.0871 70.6959 33.5601 70.3959C33.8041 70.2379 33.9341 70.0139 33.7021 69.7489C33.3171 69.3219 32.2961 69.4739 31.7881 69.4359Z" fill="#662F0A"/>
<path d="M27.892 70.427C28.9174 70.5827 29.9628 70.3256 30.799 69.712C31.852 70.769 33.882 69.612 34.308 68.521C34.666 67.6 34.774 65.362 33.247 65.47C33.575 64.363 33.015 63.558 31.872 63.052C30.729 62.546 30.058 63.18 29.072 63.522C28.257 63.8 27.248 63.348 26.346 63.938C25.623 64.414 24.899 65.886 25.275 66.638L25.175 66.952C24.196 67.096 24.136 68.874 25.263 68.746C24.963 70.075 26.955 70.293 27.892 70.427Z" fill="#9BC90E"/>
<path d="M27.8921 70.4242C28.9175 70.5799 29.9629 70.3228 30.7991 69.7092C31.8521 70.7662 33.8821 69.6092 34.3081 68.5182C34.6661 67.5972 34.7741 65.3592 33.2471 65.4672C33.5751 64.3602 33.0151 63.5552 31.8721 63.0492C31.8621 63.0492 31.8541 63.0492 31.8481 63.0352C31.9672 63.3619 32.0301 63.7065 32.0341 64.0542V64.1622C32.0249 64.9066 31.7539 65.6239 31.2686 66.1884C30.7833 66.7529 30.1147 67.1285 29.3801 67.2492L29.3661 67.2552C28.8344 67.6393 28.1919 67.8395 27.5361 67.8252C27.0972 67.8407 26.6605 67.7563 26.2589 67.5784C25.8574 67.4005 25.5015 67.1337 25.2181 66.7982L25.1701 66.9482C24.1911 67.0922 24.1311 68.8702 25.2581 68.7422C24.9631 70.0722 26.9551 70.2932 27.8921 70.4242Z" fill="#80B708"/>
<path d="M27.897 70.4265C28.9225 70.5822 29.9678 70.3251 30.804 69.7115C31.857 70.7685 33.887 69.6115 34.313 68.5205C34.671 67.5995 34.779 65.3615 33.252 65.4695C33.3961 65.0206 33.3623 64.5336 33.1576 64.1089C32.9529 63.6842 32.5929 63.3544 32.152 63.1875C32.188 63.2475 32.22 63.3135 32.258 63.3775C33.439 65.2175 32.604 68.3505 29.738 68.3505C29.694 68.3505 29.65 68.3405 29.602 68.3405C29.544 68.3805 29.496 68.4245 29.442 68.4585C28.9008 68.881 28.2283 69.1001 27.542 69.0775C26.934 69.1036 26.3334 68.9349 25.8279 68.5961C25.3223 68.2572 24.938 67.7659 24.731 67.1935C24.231 67.7115 24.353 68.8485 25.265 68.7445C24.963 70.0705 26.955 70.2925 27.897 70.4265Z" fill="#528402"/>
<g opacity="0.41">
<path d="M62.295 33.2703C63.0757 33.9707 63.903 34.6175 64.771 35.2063C66.9546 35.0254 69.1485 35.0053 71.335 35.1463C73.315 35.2843 77.435 35.6583 78.273 33.5463C77.5872 32.7534 76.7766 32.0779 75.873 31.5463C72.792 29.9463 68.573 30.8413 65.225 30.7463C64.651 30.7518 64.0898 30.5767 63.6207 30.2458C63.1516 29.9149 62.7984 29.4449 62.611 28.9023C62.3655 29.4585 61.9462 29.9199 61.416 30.2173C60.425 30.8083 60.053 30.7393 60.765 31.6863C61.2184 32.2662 61.7311 32.7971 62.295 33.2703Z" fill="#728407"/>
</g>
<path d="M43.779 29.9262C40.95 29.7502 38.098 29.9102 35.297 29.5102C35.0352 29.4422 34.7672 29.4006 34.497 29.3862L33.774 29.3242C33.302 29.3862 31.492 29.7002 31.48 30.4092C31.472 30.7972 33.934 31.4362 34.437 31.5422C34.9919 31.6059 35.5234 31.8017 35.987 32.1132C36.4046 32.3811 36.8909 32.5221 37.387 32.5192C38.5098 32.6032 39.6372 32.6032 40.76 32.5192C41.279 32.4892 41.771 32.5192 42.271 32.5192C42.8346 32.4618 43.3851 32.3132 43.901 32.0792C44.818 31.7892 46.001 32.0792 46.801 31.5652C47.217 31.3012 47.445 30.9222 47.041 30.4652C46.394 29.7292 44.646 29.9842 43.779 29.9262Z" fill="#748E09"/>
<path d="M37.124 31.6147C38.8771 31.8776 40.663 31.4373 42.093 30.3897C43.893 32.1977 47.352 30.2157 48.083 28.3517C48.7 26.7827 48.883 22.9627 46.273 23.1387C46.833 21.2467 45.873 19.8717 43.921 19.0147C41.969 18.1577 40.821 19.2327 39.133 19.8147C37.742 20.2917 36.02 19.5267 34.477 20.5297C33.244 21.3407 32.009 23.8587 32.651 25.1297L32.471 25.6687C30.805 25.9207 30.697 28.9517 32.621 28.7377C32.117 31.0197 35.515 31.3907 37.124 31.6147Z" fill="#9BC90E"/>
<path d="M37.124 31.616C38.877 31.8791 40.663 31.4388 42.093 30.391C43.893 32.199 47.352 30.217 48.083 28.353C48.7 26.785 48.883 22.964 46.273 23.14C46.833 21.248 45.873 19.873 43.921 19.016C43.907 19.008 43.897 19.008 43.881 19C44.0851 19.5543 44.1933 20.1394 44.201 20.73V20.914C44.1862 22.1862 43.7239 23.4125 42.8952 24.3779C42.0665 25.3432 40.9243 25.9858 39.669 26.193L39.639 26.201C38.7293 26.8577 37.6296 27.1988 36.508 27.172C35.7597 27.1984 35.0152 27.0542 34.3308 26.7503C33.6465 26.4464 33.0402 25.9908 32.558 25.418L32.472 25.672C30.806 25.924 30.698 28.955 32.622 28.741C32.117 31.021 35.515 31.397 37.124 31.616Z" fill="#80B708"/>
<path d="M37.124 31.6218C38.8771 31.8848 40.663 31.4445 42.093 30.3969C43.893 32.2049 47.352 30.2228 48.083 28.3588C48.7 26.7908 48.883 22.9699 46.273 23.1459C46.785 21.4139 46.015 20.1169 44.387 19.2539C44.453 19.3539 44.503 19.4659 44.567 19.5719C46.585 22.7189 45.156 28.0719 40.267 28.0719C40.187 28.0719 40.113 28.0639 40.037 28.0599C39.937 28.1279 39.859 28.2058 39.759 28.2598C38.8308 28.9781 37.6833 29.3543 36.51 29.3249C35.4698 29.3682 34.4429 29.0779 33.5793 28.4963C32.7158 27.9146 32.0608 27.0721 31.71 26.0918C30.855 26.9768 31.063 28.9149 32.623 28.7459C32.117 31.0219 35.516 31.3938 37.124 31.6218Z" fill="#528402"/>
<path d="M69.0379 27.5828C68.3457 27.1812 67.6922 26.7162 67.086 26.1938C66.7757 25.9321 66.4494 25.6899 66.109 25.4688C61.4431 25.6585 56.8551 26.7277 52.586 28.6198C50.648 29.5408 47.762 30.9617 47.423 33.3757C46.862 37.3677 51.781 40.7758 55.018 41.7598C55.943 42.0398 56.818 42.2598 57.666 42.4648C61.191 43.3958 63.4489 44.0927 65.1489 45.5647C66.8329 47.0237 64.3159 48.6117 62.1799 49.9047C58.7969 51.2357 55.592 53.1838 51.816 52.6438C47.116 51.9788 42.806 49.8547 38.057 49.4247C37.8905 49.4213 37.7277 49.3749 37.5845 49.29C37.4412 49.205 37.3224 49.0846 37.2395 48.9401C37.1567 48.7957 37.1127 48.6322 37.1117 48.4657C37.1107 48.2992 37.1528 48.1353 37.234 47.9898C38.811 44.8288 42.7769 43.9958 43.8519 40.3508C45.6599 34.2128 39.7519 33.7628 35.4299 33.9968C31.8769 34.1888 27.789 34.7498 24.254 33.7968C23.3965 34.1937 22.5619 34.638 21.754 35.1278C25.966 37.3378 31.371 34.8278 35.747 36.6278C38.113 37.6008 40.183 38.9977 39.747 41.7987C39.323 44.5078 35.489 45.3558 33.071 46.0168C30.4663 46.0598 27.8614 45.9434 25.271 45.6687C21.971 45.3967 13.732 45.3247 11.871 41.6687C10.402 42.5557 8.88795 43.4467 7.62695 44.1687C13.875 49.5517 25.964 45.3257 29.884 49.6537C29.9332 49.9091 30.0173 50.1565 30.134 50.3888C29.934 51.0258 29.728 51.6887 29.642 51.8637C27.772 54.7727 22.279 57.5328 18.5 56.4218C18.5329 56.5712 18.5798 56.7172 18.64 56.8578C19.3374 58.061 20.3898 59.019 21.653 59.6008C23.789 57.1808 27.6609 57.3927 30.6149 58.2517C33.1086 58.8576 35.3417 60.2486 36.985 62.2197C37.0529 62.2696 37.1141 62.3282 37.1669 62.3938C38.2179 63.6648 37.459 64.3537 37.467 65.9327C38.4713 66.4657 39.4077 67.1177 40.256 67.8747C40.126 66.8537 39.5149 65.9567 39.3689 64.7197C39.1429 62.8117 39.687 61.0328 37.629 60.0098C36.798 59.5958 35.929 59.2327 35.155 58.7647C34.869 58.7087 34.582 58.6528 34.316 58.5788C33.463 58.3508 30.9449 57.2339 31.5069 55.8179C31.8269 54.9949 32.714 53.9297 38.558 52.5347C39.9629 52.329 41.3906 52.3344 42.794 52.5507C45.841 53.1797 48.3409 55.3638 51.6199 55.0208C54.7949 54.6868 57.71 53.4597 60.82 52.8207C63.378 52.2877 67.3579 51.6938 69.3859 53.9058C72.7209 57.5628 70.9769 61.0287 68.3949 64.3057C68.9226 64.0104 69.4714 63.7547 70.0369 63.5407C71.2919 63.0707 72.3669 62.7238 73.3519 62.3798C73.7179 59.5968 73.969 56.5528 73.116 53.9198C73.116 53.9198 73.6259 52.0398 76.4389 52.0398C79.0299 52.0398 82.6769 54.8287 86.9469 53.4397C88.0999 53.0637 92.0679 51.9018 92.9949 47.7398C93.7199 44.4628 90.623 43.6397 93.828 41.9887C93.4144 42.108 92.9921 42.1944 92.565 42.2468C93.265 42.0928 94.04 41.9328 95.001 41.7538C93.328 40.7538 91.2639 39.6317 88.6929 38.3407C88.5469 38.3647 88.4049 38.3908 88.2569 38.4148C86.8761 38.7055 85.4808 38.9228 84.077 39.0658C81.0457 39.4923 77.9942 39.7593 74.935 39.8658C70.429 40.0058 65.1659 40.0537 60.8739 38.1537C57.6129 37.5487 53.6009 36.3058 53.6069 32.7328C53.6299 27.4548 62.4259 27.4288 69.0379 27.5828ZM71.6059 42.8707C75.5803 42.6067 79.5695 42.6622 83.535 43.0367C83.491 43.0567 83.435 43.0708 83.397 43.0868C83.477 43.0708 83.563 43.0627 83.647 43.0507C85.941 43.2507 87.4469 43.4748 87.5069 43.4778C88.1234 43.7133 88.6588 44.1216 89.049 44.6537C89.4392 45.1858 89.6677 45.8192 89.707 46.4778C89.915 49.6388 87.4829 50.6358 84.9949 51.0098C81.9879 51.4598 79.6819 49.5028 76.1889 49.5028C71.8389 49.5028 68.017 50.7178 68.86 48.0938C69.0831 47.7672 69.2457 47.4031 69.34 47.0188C69.1748 46.3775 68.8679 45.7815 68.4418 45.2745C68.0157 44.7676 67.4813 44.3628 66.8779 44.0898C66.8779 44.0898 67.649 43.1937 71.601 42.8707H71.6059Z" fill="#43D7EF"/>
<path d="M70.045 63.5212C70.225 63.4532 70.393 63.3953 70.563 63.3333C71.9672 60.9644 72.6362 58.2319 72.485 55.4823C71.34 46.4073 56.774 54.7753 51.478 53.7483C47.917 53.0613 44.467 50.9993 40.762 51.2363C38.0278 51.3068 35.3399 51.9586 32.877 53.1483C30.177 54.6483 29.454 57.2142 33.393 58.7152C34.0657 58.9403 34.6968 59.2744 35.261 59.7043C35.5444 59.9419 35.8116 60.1981 36.061 60.4713C37.891 61.6463 37.979 63.8423 38.349 66.1943C38.3551 66.2764 38.3511 66.3591 38.337 66.4403C39.0432 66.8218 39.6923 67.3008 40.265 67.8632C40.135 66.8422 39.524 65.9452 39.378 64.7082C39.152 62.8002 39.696 61.0223 37.638 59.9983C36.807 59.5853 35.938 59.2213 35.164 58.7533C34.878 58.6973 34.591 58.6413 34.325 58.5673C33.472 58.3393 30.954 57.2222 31.516 55.8062C31.836 54.9832 32.723 53.9183 38.568 52.5233C39.9729 52.3175 41.4007 52.3229 42.804 52.5393C45.851 53.1683 48.351 55.3523 51.63 55.0093C54.805 54.6753 57.72 53.4483 60.83 52.8093C63.388 52.2753 67.368 51.6822 69.396 53.8942C72.731 57.5502 70.987 61.0173 68.405 64.2943C68.9318 63.9964 69.48 63.738 70.045 63.5212Z" fill="#6BEEFC"/>
<path d="M36.6421 35.0387C35.1374 34.8076 33.6163 34.6999 32.0941 34.7167C28.8791 35.2267 25.4741 36.0597 22.9011 34.4727C22.5211 34.6727 22.1361 34.8947 21.7561 35.1197C25.9681 37.3297 31.3731 34.8197 35.7491 36.6197C38.0371 37.5587 40.0491 38.9017 39.7731 41.5307C41.3761 39.0697 40.8961 35.7947 36.6421 35.0387Z" fill="#6BEEFC"/>
<path d="M27.6879 46.9423C26.4393 46.5333 25.1454 46.2784 23.8349 46.1833C21.7469 46.0513 19.6249 46.1473 17.5489 45.9173C15.5062 45.7508 13.5238 45.1439 11.7379 44.1383C10.9376 43.9446 10.1946 43.5638 9.5699 43.0273C8.88493 43.4273 8.22693 43.8103 7.62793 44.1543C13.8759 49.5373 25.9649 45.3113 29.8849 49.6393C29.9341 49.8946 30.0182 50.1419 30.1349 50.3743C30.1149 50.4443 30.0929 50.5043 30.0749 50.5743C30.6459 49.1663 30.6639 47.8553 27.6879 46.9423Z" fill="#6BEEFC"/>
<path d="M51.642 30.3298C55.628 27.5688 61.475 26.4298 66.956 26.0878C66.726 25.9018 66.446 25.6957 66.109 25.4688C61.4428 25.6584 56.8545 26.7274 52.585 28.6196C50.647 29.5406 47.762 30.9617 47.422 33.3757C46.861 37.3677 51.78 40.7756 55.017 41.7596C55.942 42.0396 56.817 42.2598 57.665 42.4648C59.7654 42.9202 61.8025 43.63 63.731 44.5786C62.34 39.9326 53.582 40.7928 50.753 36.9398C49.07 34.6408 49.198 32.0298 51.642 30.3298Z" fill="#6BEEFC"/>
<path d="M83.6471 43.0493C85.9411 43.2493 87.4471 43.4733 87.5071 43.4773C87.7023 43.5697 87.8914 43.6746 88.0731 43.7913C85.6351 40.3683 79.2571 41.3793 75.5381 41.2693C72.7691 41.1853 68.1611 41.3514 65.7771 43.0294C62.6771 45.2194 68.4021 46.0003 68.8341 48.1923C68.8385 48.1584 68.8459 48.125 68.8561 48.0923C69.0789 47.7656 69.2411 47.4015 69.3351 47.0173C69.17 46.376 68.8632 45.7799 68.437 45.273C68.0109 44.766 67.4765 44.3612 66.8731 44.0883C66.8731 44.0883 67.6481 43.1884 71.6051 42.8654C75.5794 42.6012 79.5686 42.6567 83.5341 43.0314C83.4901 43.0514 83.4341 43.0654 83.3961 43.0814C83.4771 43.0694 83.5631 43.0613 83.6471 43.0493Z" fill="#6BEEFC"/>
<path d="M93.499 40.8516C90.236 41.9926 91.327 46.3327 90.25 49.2597C87.74 56.0477 77.904 49.4297 73.542 52.5747C73.612 52.6987 73.682 52.8186 73.742 52.9506C74.1081 52.623 74.536 52.3717 75.0005 52.2115C75.4649 52.0513 75.9567 51.9854 76.447 52.0176C79.039 52.0176 82.685 54.8067 86.955 53.4177C88.108 53.0417 92.076 51.8786 93.003 47.7176C93.728 44.4406 90.631 43.6177 93.836 41.9667C93.4225 42.0859 93.0002 42.1722 92.573 42.2247C93.273 42.0707 94.048 41.9106 95.009 41.7306C94.54 41.4466 94.035 41.1556 93.499 40.8516Z" fill="#6BEEFC"/>
<path d="M73.5001 61.2109C72.3723 61.8186 71.125 62.1719 69.8461 62.2459C69.4042 62.9527 68.9224 63.6338 68.4031 64.2859C68.9307 63.9906 69.4796 63.7349 70.0451 63.5209C71.3001 63.0509 72.3751 62.7039 73.3601 62.3599C73.4101 61.9829 73.4601 61.5989 73.5001 61.2109Z" fill="#6DEEFC"/>
<path d="M18.5029 56.4102C18.5359 56.5595 18.5828 56.7055 18.6429 56.8462C19.3404 58.0493 20.3928 59.0074 21.6559 59.5892C21.7679 59.4632 21.8879 59.3492 22.0119 59.2332C20.8965 58.6056 19.9684 57.6923 19.3229 56.5872C19.0458 56.5472 18.7718 56.4881 18.5029 56.4102Z" fill="#6DEEFC"/>
<path d="M37.471 65.9197C38.4753 66.4526 39.4117 67.1047 40.26 67.8617C40.1815 67.3853 40.0472 66.9198 39.86 66.4747C39.1221 65.934 38.3475 65.4452 37.542 65.0117C37.4938 65.3119 37.47 65.6156 37.471 65.9197Z" fill="#6DEEFC"/>
<path opacity="0.64" d="M78.0219 71.0193C78.2005 71.1352 78.409 71.1963 78.6219 71.1953C79.1055 71.2323 79.5913 71.2323 80.0749 71.1953C80.2989 71.1833 80.5109 71.1953 80.7269 71.1953C80.9685 71.1676 81.2045 71.1035 81.4269 71.0053C81.8269 70.8793 82.3319 71.0053 82.6759 70.7833C82.8599 70.6713 82.9559 70.5053 82.7819 70.3143C82.4999 69.9943 81.7469 70.1043 81.3729 70.0823C80.1539 70.0043 78.9349 70.0723 77.7249 69.8983C77.6135 69.8698 77.4997 69.8517 77.3849 69.8443L77.0709 69.8203C76.8709 69.8443 76.0919 69.9803 76.0859 70.2863C76.0859 70.4563 77.1389 70.7303 77.3569 70.7703C77.5942 70.8036 77.8212 70.8886 78.0219 71.0193Z" fill="#773910"/>
<path d="M76.5748 69.5725C76.3548 70.5555 77.8178 70.7136 78.5108 70.8076C79.2642 70.9209 80.0318 70.7323 80.6468 70.2826C81.4218 71.0596 82.9108 70.2086 83.2228 69.4136C83.4908 68.7346 83.5688 67.0896 82.4478 67.1676C82.6858 66.3526 82.2758 65.7566 81.4328 65.3896C80.5898 65.0226 80.1018 65.4896 79.3768 65.7336C78.7768 65.9396 78.0358 65.6076 77.3708 66.0436C76.8428 66.3916 76.3118 67.4726 76.5838 68.0236L76.5078 68.2555C75.7918 68.3555 75.7458 69.6675 76.5748 69.5725Z" fill="#9BC90E"/>
<path d="M79.6059 68.4748H79.5959C79.204 68.7577 78.7302 68.9046 78.2469 68.8928C77.9247 68.9043 77.604 68.842 77.3094 68.7109C77.0148 68.5797 76.754 68.383 76.5469 68.1357L76.5069 68.2477C75.7919 68.3477 75.7459 69.6627 76.5749 69.5667C76.3549 70.5497 77.8179 70.7077 78.5109 70.8017C79.2644 70.9148 80.0321 70.7258 80.6469 70.2757C81.4219 71.0527 82.911 70.2018 83.223 69.4068C83.491 68.7278 83.5689 67.0828 82.4479 67.1608C82.6859 66.3458 82.2759 65.7498 81.4329 65.3828H81.4189C81.5068 65.6207 81.5528 65.8721 81.555 66.1258V66.1998C81.5494 66.7476 81.3509 67.2759 80.9945 67.692C80.6381 68.108 80.1464 68.3852 79.6059 68.4748Z" fill="#80B708"/>
<path d="M79.862 69.2852C79.826 69.2852 79.798 69.2752 79.762 69.2752C79.724 69.3012 79.686 69.3392 79.644 69.3632C79.2454 69.6713 78.7527 69.8323 78.249 69.8192C77.8018 69.8384 77.3601 69.7142 76.9885 69.4646C76.6168 69.2151 76.3346 68.8534 76.183 68.4322C75.813 68.8102 75.903 69.6452 76.577 69.5712C76.357 70.5542 77.82 70.7122 78.513 70.8062C79.2664 70.9198 80.0341 70.7311 80.649 70.2812C81.424 71.0582 82.913 70.2072 83.225 69.4122C83.493 68.7332 83.571 67.0882 82.45 67.1662C82.5556 66.8361 82.5301 66.4781 82.3788 66.1664C82.2274 65.8547 81.9617 65.6132 81.637 65.4922C81.667 65.5322 81.687 65.5782 81.717 65.6282C81.9562 65.9736 82.0975 66.3773 82.1261 66.7965C82.1547 67.2157 82.0694 67.6348 81.8793 68.0095C81.6893 68.3842 81.4015 68.7006 81.0464 68.9251C80.6912 69.1497 80.282 69.2741 79.862 69.2852Z" fill="#528402"/>
<path opacity="0.46" d="M10.7881 66.2441C11.1401 66.3501 11.5881 66.4081 11.9511 66.5441C12.2171 65.2891 13.9511 64.9692 14.5011 63.8642C13.9893 63.8551 13.4788 63.917 12.9841 64.0481L12.8421 64.0602C11.946 64.5557 11.2277 65.3194 10.7881 66.2441Z" fill="#662F0A"/>
<path d="M4.39507 58.9134L4.41505 58.9334C4.39791 58.8536 4.38589 58.7728 4.37906 58.6914L4.23706 59.0354C4.34106 58.9674 4.27907 58.9294 4.39507 58.9134Z" fill="#703F1E"/>
<path d="M4.41504 58.934C4.80504 61.623 9.12504 61.194 11.115 61.801C11.59 61.9706 12.0057 62.274 12.312 62.6747C12.6183 63.0754 12.802 63.5562 12.841 64.059C13.1149 64.1522 13.4061 64.1826 13.6933 64.1479C13.9805 64.1133 14.2562 64.0146 14.5 63.859C14.158 63.2059 13.6832 62.6316 13.1061 62.1728C12.529 61.714 11.8624 61.381 11.149 61.195C9.9698 61.0304 8.80807 60.7589 7.67804 60.384C6.53104 59.827 6.75303 58.735 6.05403 57.918C5.81403 58.763 6.70304 59.59 6.83304 60.384C5.68404 60.423 5.15204 59.647 4.41504 58.934Z" fill="#703F1E"/>
<path d="M4.93593 54.9614L4.85392 54.9714C4.43592 54.4584 2.78393 54.7234 2.14293 55.0534C1.66217 55.2912 1.25113 55.6494 0.94973 56.093C0.64834 56.5367 0.466859 57.0508 0.422925 57.5854C0.410925 59.5554 1.87194 59.8854 3.62294 59.9774C5.12294 60.0614 6.32793 59.8774 6.22293 58.1954C9.11193 58.0704 7.50893 54.0944 4.93593 54.9614Z" fill="#9BC90E"/>
<path d="M4.25198 57.4478C3.84809 57.5856 3.43181 57.6841 3.00897 57.7418C2.60306 57.7841 2.1928 57.742 1.80391 57.6183C1.41501 57.4946 1.05586 57.2918 0.74897 57.0228C0.68097 56.9608 0.62297 56.8888 0.56097 56.8228C0.471978 57.0661 0.424649 57.3227 0.420972 57.5818C0.408972 59.5518 1.86998 59.8818 3.62098 59.9738C5.12098 60.0578 6.32597 59.8738 6.22097 58.1918C8.16097 58.1098 8.07697 56.3078 7.04397 55.3828C6.62604 55.8427 6.12403 56.2185 5.56498 56.4898C5.20702 56.9061 4.75765 57.234 4.25198 57.4478Z" fill="#80B708"/>
<path d="M6.101 57.2835C5.983 57.2915 5.86499 57.2915 5.74699 57.2915C5.46225 57.7434 5.06303 58.112 4.58984 58.3598C4.11665 58.6076 3.58633 58.7258 3.0527 58.7025C2.51907 58.6791 2.00112 58.515 1.55139 58.2268C1.10166 57.9386 0.73616 57.5366 0.491986 57.0615C0.447422 57.2321 0.423262 57.4073 0.419995 57.5835C0.407995 59.5535 1.86899 59.8835 3.61999 59.9755C5.11999 60.0595 6.325 59.8755 6.22 58.1935C7.437 58.1415 7.851 57.4145 7.739 56.6445C7.706 56.6778 7.67056 56.7085 7.63299 56.7365C7.18055 57.0528 6.65144 57.2417 6.101 57.2835Z" fill="#528402"/>
<path d="M41.5911 61.5628C45.4211 62.3628 47.086 66.5628 50.611 66.6338C54.136 66.7048 55.2551 65.4508 58.2241 65.0448C61.1611 64.6448 65.9131 64.6448 67.1821 62.8788C68.4511 61.1128 56.356 61.0448 53.545 61.1788C51.2897 61.4246 49.0144 61.4246 46.7591 61.1788C44.7591 60.8568 45.077 59.6958 42.995 59.7018L43.249 59.4258C42.027 59.9748 39.6931 61.1668 41.5911 61.5628Z" fill="#748E09"/>
<path d="M58.7111 51.7932C58.1541 50.6662 56.5851 50.6062 55.3841 50.8882C54.703 51.0451 54.0923 51.4214 53.6461 51.9592V52.1192C52.5548 51.6318 51.3622 51.414 50.1691 51.4842C48.7281 51.7282 48.3611 53.1622 47.0081 53.5422C45.6311 53.9242 44.4081 53.4182 43.0901 54.1422C42.5246 54.4508 42.0333 54.8791 41.6506 55.3973C41.2678 55.9155 41.0028 56.511 40.8741 57.1422C40.5621 58.3422 40.5221 59.8422 41.6271 60.6532C42.6321 61.3882 44.0731 60.8612 45.0721 61.4822C46.3151 62.2552 46.3511 63.8622 47.4821 64.7672C48.7974 65.6016 50.3469 65.9891 51.9001 65.8722C53.9242 65.8604 55.9023 65.2683 57.6001 64.1662C59.1661 63.2392 59.9261 63.4052 61.7181 63.5012C64.8181 63.6572 68.2561 62.6282 66.8181 58.8792C66.3722 57.6452 65.5221 56.5982 64.4061 55.9082C63.9701 55.6082 63.5851 55.4282 63.1811 55.1212C62.5978 54.5266 61.8354 54.1402 61.0111 54.0212C60.5311 53.9272 59.3311 53.9672 58.9851 53.5872C58.4561 53.0122 59.0111 52.3922 58.7111 51.7932Z" fill="#9BC90E"/>
<path d="M54.5901 61.6831C54.0075 61.6955 53.4352 61.5271 52.9521 61.2011C52.7928 61.3525 52.6178 61.4866 52.4301 61.6011C52.1668 61.7536 51.8819 61.8656 51.5851 61.9331C51.2377 62.0831 50.8636 62.1613 50.4851 62.1631C49.7601 62.1544 49.0636 61.8791 48.5287 61.3895C47.9937 60.9 47.6578 60.2306 47.5851 59.5091C47.4419 59.195 47.321 58.8712 47.2231 58.5401H47.2151C46.7434 58.8099 46.2096 58.9525 45.6662 58.9539C45.1227 58.9553 44.5883 58.8155 44.1151 58.5481C43.8571 58.5781 43.6001 58.6141 43.3421 58.6481C42.5678 58.6468 41.8256 58.3386 41.2781 57.7911C41.1114 57.6219 40.9675 57.4316 40.8501 57.2251C40.5561 58.4121 40.5422 59.8671 41.6212 60.6541C42.6262 61.3891 44.0671 60.8621 45.0661 61.4831C46.3091 62.2561 46.3451 63.8631 47.4761 64.7681C48.7921 65.6006 50.3415 65.9864 51.8941 65.8681C53.9182 65.8564 55.8965 65.2643 57.5941 64.1621C59.1611 63.2351 59.9201 63.4011 61.7121 63.4971C64.8121 63.6531 68.2501 62.6241 66.8121 58.8751C66.3662 57.6411 65.5162 56.594 64.4001 55.9041C64.1241 55.7121 63.8691 55.5681 63.6151 55.4141V55.4201C63.396 56.2241 62.9132 56.9313 62.2441 57.4281C62.2552 57.821 62.1865 58.2122 62.0423 58.5779C61.8981 58.9436 61.6814 59.2764 61.4051 59.5561C60.8603 60.09 60.1298 60.3918 59.367 60.3981C58.6042 60.4045 57.8688 60.1148 57.3152 59.5901C57.1785 60.2031 56.8307 60.7486 56.3325 61.1312C55.8344 61.5138 55.2177 61.7092 54.5901 61.6831Z" fill="#80B708"/>
<path d="M55.7131 63.2006C55.6631 63.2506 55.6071 63.3007 55.5531 63.3567C55.0277 63.8696 54.3295 64.1675 53.5957 64.192C52.8619 64.2164 52.1454 63.9655 51.5871 63.4887C51.0881 63.8665 50.4758 64.0642 49.8501 64.0496H49.6741C49.2788 64.0578 48.8864 63.9816 48.5229 63.826C48.1594 63.6705 47.8333 63.4392 47.5663 63.1476C47.2993 62.856 47.0976 62.5108 46.9746 62.1351C46.8516 61.7593 46.8102 61.3617 46.8531 60.9687C46.6453 61.0203 46.4322 61.0478 46.2181 61.0507H46.0601C44.2565 59.9227 42.5044 58.7145 40.8091 57.4297C40.6166 57.9884 40.5914 58.5912 40.7365 59.164C40.8817 59.7369 41.1908 60.2549 41.6261 60.6546C42.6261 61.3896 44.0721 60.8627 45.0711 61.4837C46.3141 62.2567 46.3501 63.8637 47.4811 64.7687C48.797 65.6013 50.3464 65.987 51.8991 65.8686C53.9232 65.8569 55.9014 65.2649 57.5991 64.1627C59.1661 63.2357 59.9251 63.4016 61.7171 63.4976C64.5171 63.6376 67.5831 62.7976 67.0841 59.8686C66.8404 60.3225 66.476 60.7001 66.0311 60.9597C65.437 61.2949 64.7452 61.4144 64.0731 61.2976C63.5303 61.8412 62.7953 62.1491 62.0271 62.1546H61.7111C60.9837 62.1465 60.2855 61.8673 59.7531 61.3717C59.497 61.8011 59.1347 62.1575 58.7011 62.4066C58.2675 62.6556 57.7771 62.7889 57.2771 62.7937C56.8967 62.7915 56.5204 62.7141 56.1701 62.5657C56.0473 62.7971 55.8935 63.0107 55.7131 63.2006Z" fill="#528402"/>
<path d="M58.708 51.7965C58.7 51.7725 58.676 51.7565 58.664 51.7305C58.3144 52.6132 57.6759 53.3513 56.8529 53.8246C56.0299 54.2979 55.0708 54.4783 54.132 54.3365C52.7862 55.6401 50.9867 56.3701 49.113 56.3725C49.6675 56.9077 50.3103 57.3431 51.013 57.6595C51.6758 57.9456 52.3912 58.0894 53.113 58.0815C54.15 58.0595 53.744 58.2635 53.826 57.8295C54.156 56.1235 55.948 55.5675 57.426 55.7815C58.737 55.9735 59.426 55.1585 59.047 54.0055C58.9947 53.846 58.954 53.6829 58.925 53.5175C58.512 52.9655 58.994 52.3695 58.708 51.7965Z" fill="#80B708"/>
<path d="M82.6661 50.5692C82.8448 50.6851 83.0531 50.7469 83.2661 50.7472C83.7498 50.7812 84.2354 50.7812 84.7191 50.7472C84.9431 50.7292 85.1551 50.7472 85.3661 50.7472C85.6083 50.7213 85.8447 50.6565 86.0661 50.5552C86.4661 50.4332 86.9711 50.5552 87.3151 50.3372C87.4991 50.2212 87.5951 50.0552 87.4231 49.8552C87.1391 49.5412 86.3861 49.6552 86.0121 49.6292C84.7951 49.5512 83.5741 49.6232 82.3631 49.4472C82.2517 49.4192 82.1378 49.4018 82.0231 49.3952L81.7111 49.3672C81.5111 49.3952 80.7301 49.5292 80.7241 49.8332C80.7241 50.0072 81.7771 50.2772 81.9931 50.3202C82.2334 50.3511 82.4635 50.4363 82.6661 50.5692Z" fill="#748E09"/>
<path d="M81.2211 49.1191C81.0011 50.1021 82.4621 50.2621 83.1531 50.3561C83.9072 50.4693 84.6756 50.2803 85.2911 49.8301C86.0661 50.6111 87.5551 49.7521 87.8691 48.9531C88.1351 48.2761 88.2151 46.6311 87.0921 46.7091C87.3301 45.8961 86.9201 45.3091 86.0791 44.9391C85.2381 44.5691 84.7461 45.0311 84.0211 45.2791C83.4211 45.4791 82.6801 45.1571 82.0151 45.5911C81.4871 45.9351 80.9561 47.0221 81.2281 47.5711L81.1521 47.8011C80.4361 47.9081 80.3921 49.2111 81.2211 49.1191Z" fill="#9BC90E"/>
<path d="M84.2561 48.0214L84.2441 48.0294C83.8526 48.3132 83.3785 48.4601 82.8951 48.4474C82.573 48.4593 82.2524 48.3975 81.9577 48.2667C81.6631 48.1358 81.4023 47.9394 81.1951 47.6924L81.1551 47.8024C80.4401 47.9104 80.3961 49.2134 81.2251 49.1214C81.0051 50.1044 82.4661 50.2644 83.1571 50.3584C83.9113 50.4716 84.6796 50.2826 85.2951 49.8324C86.0701 50.6134 87.5591 49.7544 87.8731 48.9554C88.1391 48.2784 88.2191 46.6334 87.0961 46.7114C87.3341 45.8984 86.9241 45.3114 86.0831 44.9414H86.0651C86.1538 45.1779 86.2005 45.4279 86.2031 45.6804V45.7584C86.1968 46.3045 85.9981 46.8308 85.642 47.2447C85.2858 47.6586 84.7951 47.9337 84.2561 48.0214Z" fill="#80B708"/>
<path d="M84.5061 48.8312C84.4726 48.8306 84.4392 48.8279 84.4061 48.8232C84.3693 48.8553 84.3298 48.8841 84.2881 48.9092C83.8903 49.2193 83.3973 49.3819 82.8931 49.3692C82.4456 49.3883 82.0038 49.2638 81.6321 49.0139C81.2604 48.764 80.9783 48.4018 80.8271 47.9802C80.4591 48.3582 80.5471 49.1952 81.2271 49.1192C81.0071 50.1022 82.4681 50.2622 83.1591 50.3562C83.9132 50.4688 84.6813 50.2798 85.2971 49.8302C86.0721 50.6112 87.5611 49.7522 87.8751 48.9532C88.1411 48.2762 88.2211 46.6312 87.0981 46.7092C87.2024 46.3792 87.1763 46.0217 87.0251 45.7103C86.8738 45.3989 86.609 45.1573 86.2851 45.0352C86.3151 45.0832 86.3351 45.1272 86.3631 45.1732C86.6033 45.5187 86.7454 45.9227 86.7744 46.3425C86.8034 46.7622 86.7181 47.182 86.5277 47.5571C86.3372 47.9323 86.0487 48.2489 85.6927 48.4732C85.3368 48.6976 84.9267 48.8213 84.5061 48.8312Z" fill="#528402"/>
<path d="M54.1859 21.9204L54.2058 21.9484C54.193 21.849 54.1863 21.7488 54.1859 21.6484L53.9858 22.0565C54.1158 21.9815 54.0419 21.9334 54.1859 21.9204Z" fill="#703F1E"/>
<path d="M62.2478 25.433C60.9308 24.967 59.2588 24.78 58.0718 24.082C56.7148 23.282 57.1028 21.962 56.3298 20.882C55.9428 21.901 56.9498 23.006 57.0298 23.989C55.6168 23.913 55.0418 22.91 54.2068 21.955C54.4128 25.302 59.7578 25.22 62.1478 26.171C62.8478 26.4752 63.4116 27.026 63.732 27.7187C64.0525 28.4113 64.1072 29.1976 63.8858 29.928C63.6658 30.487 62.3038 31.235 61.4438 31.928C63.502 31.1185 65.7384 30.871 67.9238 31.211C67.6318 30.727 66.7128 30.35 66.4068 29.744C66.0972 29.0944 65.8992 28.3974 65.8208 27.682C65.6568 26.182 65.7148 24.429 66.8208 23.372C67.8518 22.372 69.4408 21.855 70.4438 20.772C70.7953 20.3504 70.9993 19.8254 71.0248 19.277C71.9478 18.366 73.8058 16.705 72.7908 15.552C72.656 16.1798 72.4837 16.7989 72.2748 17.406C71.9968 17.906 71.4298 18.223 71.0578 18.671C71.0758 17.471 70.8798 16.145 71.4298 15.304C70.5028 15.178 70.7298 18.804 70.2908 19.598C69.6908 20.689 67.6478 21.234 66.5618 21.798C63.2248 23.506 61.6408 20.379 60.8188 17.48C60.7752 17.1876 60.7704 16.8907 60.8048 16.597C59.5048 17.266 60.9988 19.832 61.5378 20.641C62.2608 21.73 63.7378 22.573 64.3188 23.682C64.5608 24.138 64.6568 25.356 64.1928 25.748C63.6588 26.194 62.8578 25.649 62.2478 25.433Z" fill="#703F1E"/>
<path d="M70.3729 1.19485C67.8599 0.0948443 66.4069 1.47686 64.2529 2.21986C62.4749 2.82686 60.2769 1.84585 58.3049 3.13285C56.7259 4.15985 55.1499 7.37684 55.9669 9.01984L55.7408 9.70486C53.6068 10.0249 53.4709 13.8949 55.9329 13.6249C55.2829 16.5299 59.6269 17.0079 61.6829 17.2999C63.9224 17.6342 66.2034 17.0719 68.0308 15.7349C70.3308 18.0449 74.7549 15.5069 75.6879 13.1349C76.4769 11.1209 76.7109 6.23485 73.3779 6.47085C74.0879 4.04185 72.8689 2.28585 70.3729 1.19485Z" fill="#9BC90E"/>
<path d="M64.9398 10.3618C64.9273 10.3678 64.9137 10.3712 64.8999 10.3717C63.7395 11.2149 62.3338 11.6524 60.8999 11.6167C59.9425 11.6509 58.9899 11.4665 58.1144 11.0777C57.2389 10.6889 56.4635 10.1059 55.8469 9.37277L55.7408 9.70277C53.6068 10.0227 53.4709 13.8927 55.9329 13.6227C55.2829 16.5277 59.6269 17.0057 61.6829 17.2977C63.9224 17.6321 66.2034 17.0698 68.0308 15.7327C70.3308 18.0427 74.7549 15.5047 75.6879 13.1327C76.4769 11.1187 76.7109 6.23278 73.3779 6.46878C74.0869 4.04478 72.8679 2.28878 70.3729 1.19378C70.3568 1.18306 70.3381 1.17684 70.3188 1.17578C70.5815 1.88478 70.7202 2.63372 70.7288 3.38978V3.61578C70.7098 5.24105 70.1193 6.80776 69.0608 8.04124C68.0023 9.27472 66.5434 10.0962 64.9398 10.3618Z" fill="#80B708"/>
<path d="M65.699 12.7593C65.599 12.7593 65.499 12.7473 65.399 12.7413C65.275 12.8193 65.177 12.9213 65.049 12.9993C63.8625 13.9162 62.3959 14.3955 60.897 14.3563C59.5689 14.4117 58.2578 14.0419 57.1545 13.3005C56.0512 12.5591 55.2134 11.4849 54.763 10.2343C53.663 11.3593 53.935 13.8343 55.93 13.6213C55.28 16.5263 59.624 17.0043 61.68 17.2953C63.9193 17.63 66.2004 17.068 68.028 15.7313C70.328 18.0413 74.752 15.5033 75.685 13.1313C76.474 11.1173 76.708 6.23127 73.375 6.46727C74.028 4.24927 73.045 2.59728 70.959 1.48828C71.045 1.61828 71.115 1.76227 71.191 1.90027C73.776 5.91027 71.95 12.7593 65.699 12.7593Z" fill="#528402"/>
<path d="M55.1589 17.1283C54.6909 16.4513 52.6429 16.6073 51.8139 16.9463C51.1993 17.1904 50.658 17.589 50.2425 18.1035C49.827 18.618 49.5512 19.231 49.4419 19.8833C49.2219 22.2993 50.9889 22.8523 53.1209 23.1483C54.9569 23.4023 56.4559 23.3063 56.4979 21.2283C60.0709 21.3783 58.5099 16.3203 55.2609 17.1283H55.1589Z" fill="#9BC90E"/>
<path d="M52.6029 20.3433C52.1001 20.3555 51.6002 20.2626 51.1353 20.0706C50.6704 19.8786 50.2507 19.5918 49.9029 19.2283C49.8209 19.1423 49.7609 19.0543 49.6909 18.9703C49.5574 19.26 49.4729 19.5699 49.4409 19.8873C49.2209 22.3033 50.9879 22.8563 53.1199 23.1523C54.9559 23.4063 56.4549 23.3103 56.4969 21.2323C58.8849 21.3323 58.9709 19.1083 57.7969 17.8633C57.2375 18.3874 56.5831 18.7997 55.8689 19.0783C55.3871 19.5511 54.8016 19.9048 54.1589 20.1113C53.649 20.2388 53.1279 20.3165 52.6029 20.3433Z" fill="#80B708"/>
<path d="M53.0129 21.5659C52.2698 21.5976 51.5361 21.3901 50.9197 20.9739C50.3032 20.5578 49.8364 19.9549 49.5879 19.2539C49.5119 19.457 49.4628 19.6691 49.4419 19.8849C49.2219 22.3009 50.9889 22.8539 53.1209 23.1499C54.9569 23.4039 56.4559 23.3079 56.4979 21.2299C57.9979 21.2919 58.5859 20.4369 58.5279 19.4839C58.4799 19.5139 58.4359 19.5519 58.3859 19.5839C57.8004 19.9285 57.1332 20.1098 56.4539 20.1089C56.3099 20.1089 56.1619 20.0969 56.0139 20.0829C55.6784 20.5622 55.2277 20.9493 54.7032 21.2085C54.1787 21.4676 53.5974 21.5906 53.0129 21.5659Z" fill="#528402"/>
<path d="M60.428 11.4355C60.5185 11.4275 60.6096 11.4275 60.7 11.4355C60.864 9.71744 62.289 8.67344 62.131 6.77344C62.087 6.77344 61.899 6.77344 61.857 6.77344C61.773 7.34344 61.657 8.80745 61.104 9.18145C60.439 9.63345 59.416 8.83544 58.79 8.71144C58.914 9.50044 60.514 9.31144 60.69 10.0865C60.704 10.0625 60.708 10.0465 60.722 10.0225V10.2225C60.7163 10.1748 60.7056 10.1279 60.69 10.0825C60.4496 10.4899 60.357 10.9678 60.428 11.4355Z" fill="#703F1E"/>
<path d="M55.203 2.11239C50.885 2.61239 51.283 9.47539 55.557 7.66339C56.557 10.1774 58.42 9.61539 60.538 8.47439C63.004 7.14539 64.898 5.67439 63.538 2.82939C63.1086 2.08523 62.4948 1.46427 61.7556 1.02638C61.0165 0.588487 60.1769 0.348435 59.318 0.32939C58.157 0.29339 55.59 1.0294 55.334 2.0654L55.203 2.11239Z" fill="#9BC90E"/>
<path d="M55.5569 7.66603C56.5569 10.1801 58.4199 9.61802 60.5379 8.47702C63.0039 7.14802 64.8979 5.67703 63.5379 2.83203C63.3543 2.46078 63.1099 2.1228 62.8149 1.83203C62.7669 1.96403 62.7369 2.10603 62.6769 2.23903C62.4169 2.83863 62.0356 3.37791 61.557 3.82296C61.0784 4.26801 60.5128 4.60919 59.8959 4.82502C59.2451 5.0326 58.5751 5.17398 57.8959 5.24702C57.02 5.28347 56.1475 5.11787 55.3459 4.76303C54.3495 4.75301 53.3645 4.54922 52.4459 4.16302C51.5849 6.20802 52.6979 8.87303 55.5569 7.66603Z" fill="#80B708"/>
<path d="M52.513 6.51592C52.439 6.50392 52.369 6.47991 52.291 6.46791C52.655 7.64891 53.756 8.42591 55.554 7.66791C56.554 10.182 58.418 9.61992 60.536 8.47892C63.002 7.14992 64.896 5.67891 63.536 2.83391C63.4107 2.58111 63.2552 2.34439 63.073 2.12891C63.0462 2.9842 62.7931 3.81708 62.3394 4.54261C61.8857 5.26813 61.2477 5.86034 60.4904 6.25884C59.7332 6.65734 58.8838 6.84787 58.0289 6.81099C57.174 6.77411 56.3441 6.51114 55.624 6.04891C55.456 6.13782 55.2819 6.21468 55.103 6.2789C54.2764 6.58788 53.382 6.66973 52.513 6.51592Z" fill="#528402"/>
<path d="M75.5609 14.5962C76.5609 17.1062 78.4239 16.5442 80.5399 15.3962C83.0079 14.0692 84.8979 12.5962 83.5399 9.75517C83.1114 9.00934 82.4972 8.38711 81.757 7.94902C81.0168 7.51093 80.1758 7.27189 79.3159 7.25517C78.1569 7.21917 75.5879 7.95518 75.3339 8.98918L75.2059 9.03517C70.8909 9.54117 71.2859 16.4022 75.5609 14.5962Z" fill="#9BC90E"/>
<path d="M75.56 14.5949C76.555 17.1049 78.423 16.5429 80.539 15.3949C83.007 14.0679 84.897 12.5949 83.539 9.75391C83.3543 9.38325 83.1101 9.04542 82.816 8.75391C82.768 8.88991 82.738 9.02592 82.678 9.15392C82.4179 9.75406 82.0364 10.2939 81.5574 10.7393C81.0784 11.1847 80.5124 11.5261 79.895 11.7419C79.2441 11.9492 78.5741 12.0906 77.895 12.1639C77.0195 12.2027 76.1469 12.0392 75.345 11.6859C74.3487 11.6697 73.3646 11.4644 72.445 11.0809C71.583 13.1319 72.702 15.8009 75.56 14.5949Z" fill="#80B708"/>
<path d="M75.5599 14.5968C76.5549 17.1068 78.4229 16.5448 80.5389 15.3968C83.0069 14.0698 84.8969 12.5968 83.5389 9.75578C83.4124 9.50296 83.2559 9.26626 83.0729 9.05078C83.0458 9.9059 82.7923 10.7385 82.3385 11.4638C81.8847 12.189 81.2466 12.7809 80.4894 13.1792C79.7322 13.5775 78.883 13.7678 78.0283 13.7309C77.1735 13.6939 76.3438 13.4309 75.6239 12.9688C75.4519 13.0548 75.2759 13.1328 75.1039 13.2048C74.278 13.5123 73.385 13.5945 72.5169 13.4428C72.4409 13.4308 72.3729 13.4068 72.2969 13.3908C72.6629 14.5788 73.7659 15.3578 75.5599 14.5968Z" fill="#528402"/>
<path d="M77.6679 18.4094C80.7229 18.5374 79.3879 14.2094 76.6089 14.8984H76.5229C76.1229 14.3194 74.3689 14.4554 73.6619 14.7464C73.1357 14.9552 72.6723 15.2963 72.3167 15.7368C71.961 16.1772 71.7252 16.702 71.6319 17.2604C71.4479 19.3224 72.9549 19.7984 74.7809 20.0494C76.3559 20.2654 77.6389 20.1834 77.6679 18.4094Z" fill="#9BC90E"/>
<path d="M77.668 18.4063C79.71 18.4923 79.782 16.5883 78.779 15.5273C78.2989 15.9734 77.7387 16.3246 77.128 16.5623C76.7146 16.9655 76.214 17.2683 75.665 17.4473C75.2298 17.557 74.7844 17.622 74.336 17.6413C73.9051 17.6512 73.477 17.5715 73.0786 17.4071C72.6802 17.2426 72.3204 16.9972 72.022 16.6863C71.96 16.6223 71.904 16.5403 71.844 16.4683C71.7286 16.7173 71.6562 16.9841 71.63 17.2573C71.446 19.3193 72.953 19.7953 74.779 20.0463C76.356 20.2613 77.639 20.1813 77.668 18.4063Z" fill="#80B708"/>
<path d="M77.668 18.4097C78.951 18.4657 79.45 17.7287 79.402 16.9167C79.36 16.9427 79.324 16.9727 79.278 16.9987C78.7773 17.2891 78.2088 17.4423 77.63 17.4427C77.506 17.4427 77.378 17.4287 77.252 17.4227C76.9138 17.8723 76.4627 18.2245 75.9444 18.4434C75.4262 18.6624 74.8592 18.7402 74.3011 18.6691C73.743 18.598 73.2136 18.3805 72.7668 18.0386C72.32 17.6968 71.9716 17.2428 71.757 16.7227C71.6927 16.8971 71.6504 17.0788 71.631 17.2637C71.447 19.3257 72.954 19.8017 74.78 20.0527C76.356 20.2667 77.639 20.1847 77.668 18.4097Z" fill="#528402"/>
<path d="M24.11 50.8087C22.529 50.7087 20.945 50.7987 19.38 50.5727C19.2323 50.5407 19.0826 50.5187 18.932 50.5067L18.532 50.4727C18.266 50.5067 17.261 50.6807 17.253 51.0727C17.245 51.2907 18.616 51.6477 18.899 51.7057C19.2089 51.741 19.506 51.8494 19.766 52.0217C19.9984 52.1712 20.2687 52.251 20.545 52.2517C21.1714 52.2987 21.8005 52.2987 22.427 52.2517C22.715 52.2357 22.991 52.2517 23.268 52.2517C23.5813 52.2191 23.8875 52.1367 24.175 52.0077C24.689 51.8477 25.348 52.0077 25.795 51.7217C26.029 51.5717 26.153 51.3557 25.931 51.1047C25.57 50.6967 24.595 50.8427 24.11 50.8087Z" fill="#748E09"/>
<path d="M20.4019 51.7464C21.3786 51.8935 22.374 51.6503 23.1729 51.0694C24.1729 52.0744 26.1039 50.9694 26.5119 49.9344C26.8579 49.0574 26.9579 46.9274 25.5029 47.0274C25.8149 45.9684 25.2789 45.2034 24.1919 44.7274C23.1049 44.2514 22.4619 44.8534 21.5249 45.1754C20.7479 45.4454 19.7889 45.0134 18.9249 45.5754C18.2379 46.0274 17.5499 47.4294 17.9079 48.1474L17.8079 48.4474C16.8769 48.5874 16.8209 50.2734 17.8939 50.1574C17.6099 51.4174 19.5059 51.6224 20.4019 51.7464Z" fill="#9BC90E"/>
<path d="M20.4018 51.7456C21.3785 51.8928 22.3739 51.6496 23.1728 51.0686C24.1728 52.0736 26.1038 50.9686 26.5118 49.9336C26.8578 49.0566 26.9578 46.9266 25.5028 47.0266C25.8148 45.9676 25.2788 45.2026 24.1918 44.7266H24.1698C24.2828 45.036 24.343 45.3622 24.3478 45.6916V45.7916C24.3413 46.5015 24.0841 47.1864 23.6214 47.7249C23.1588 48.2635 22.5206 48.6211 21.8198 48.7346H21.8058C21.2997 49.1029 20.6865 49.2944 20.0608 49.2796C19.6439 49.2938 19.2292 49.2131 18.848 49.0435C18.4669 48.8739 18.1293 48.6198 17.8608 48.3006L17.8128 48.4426C16.8818 48.5826 16.8258 50.2686 17.8988 50.1526C17.6098 51.4176 19.5058 51.6226 20.4018 51.7456Z" fill="#80B708"/>
<path d="M20.4008 51.7464C21.3775 51.8935 22.3729 51.6503 23.1718 51.0694C24.1718 52.0744 26.1028 50.9694 26.5108 49.9344C26.8568 49.0574 26.9568 46.9274 25.5018 47.0274C25.6387 46.5997 25.6054 46.1357 25.4089 45.7319C25.2124 45.3281 24.8678 45.0156 24.4468 44.8594C24.4852 44.9144 24.5186 44.9726 24.5468 45.0334C25.6778 46.7854 24.8788 49.7714 22.1468 49.7714H22.0168C21.9628 49.8014 21.9168 49.8494 21.8608 49.8774C21.345 50.2769 20.707 50.4857 20.0548 50.4684C19.476 50.4931 18.9045 50.3324 18.4233 50.0097C17.9422 49.6871 17.5766 49.2193 17.3798 48.6744C16.9018 49.1624 17.0178 50.2474 17.8898 50.1514C17.6098 51.4144 19.5058 51.6224 20.4008 51.7464Z" fill="#528402"/>
<path opacity="0.28" d="M22.836 43.0675C23.236 43.4035 23.936 43.1495 24.378 43.1295C25.6538 43.0123 26.9348 42.9596 28.216 42.9715C30.378 43.0795 32.404 44.0185 34.532 43.4645C35.485 43.2165 39.947 41.6945 39.06 40.6155C38.688 40.1735 36.81 40.2435 36.277 40.1615C34.806 39.9475 35.1659 39.7435 34.3009 38.8965C32.9639 37.5895 31.401 38.0775 29.673 38.0775C28.126 38.0775 26.71 37.5905 25.213 37.9775C23.813 38.3475 22.25 38.4705 20.823 38.8705L21.614 38.6065C20.521 38.9325 16.097 39.5695 16.974 41.3515C16.6367 41.508 16.3343 41.7307 16.085 42.0065C17.653 42.9535 21.285 40.6065 22.685 41.9065C22.758 41.9685 22.356 42.6715 22.836 43.0675Z" fill="#476362"/>
<path d="M11.488 30.7405L11.508 30.7665C11.4958 30.6717 11.4898 30.5761 11.49 30.4805L11.29 30.8685C11.424 30.7945 11.354 30.7445 11.488 30.7405Z" fill="#703F1E"/>
<path d="M26.9639 29.6327C27.2996 29.2309 27.4951 28.7306 27.521 28.2077C28.394 27.3447 30.1689 25.7657 29.1989 24.6647C29.0726 25.2624 28.9086 25.8516 28.7079 26.4287C28.4459 26.9047 27.9029 27.2097 27.5509 27.6287C27.5689 26.4797 27.3829 25.2287 27.9029 24.4287C27.0239 24.3107 27.2359 27.7697 26.8219 28.5167C26.2459 29.5537 24.2999 30.0757 23.2689 30.6047C20.0939 32.2367 18.5829 29.2557 17.7999 26.5047C17.7627 26.2231 17.7594 25.9381 17.7899 25.6557C16.5469 26.2927 17.9739 28.7407 18.4899 29.5137C19.1809 30.5467 20.5819 31.3477 21.1439 32.4027C21.3739 32.8407 21.4579 33.9977 21.0199 34.3707C20.5199 34.8027 19.7509 34.2827 19.1719 34.0787C17.8099 33.7677 16.4785 33.335 15.1939 32.7857C13.9029 32.0267 14.2749 30.7697 13.5349 29.7427C13.1709 30.7157 14.1289 31.7647 14.1999 32.7037C12.8569 32.6317 12.3119 31.6747 11.5129 30.7657C11.7129 33.9527 16.7979 33.8767 19.0739 34.7817C19.7405 35.0701 20.2776 35.5936 20.583 36.2525C20.8884 36.9114 20.9407 37.6597 20.7299 38.3547C20.5199 38.8857 19.2299 39.6077 18.4039 40.2547C20.3624 39.4814 22.492 39.2463 24.5719 39.5737C24.2979 39.1117 23.4209 38.7567 23.1289 38.1807C22.8325 37.5611 22.6438 36.8956 22.5709 36.2127C22.4169 34.7857 22.4709 33.1127 23.5199 32.1047C24.4959 31.1627 26.0119 30.6617 26.9639 29.6327Z" fill="#703F1E"/>
<path d="M18.6289 26.3281C20.7611 26.6464 22.9327 26.1114 24.673 24.8391C26.861 27.0391 31.073 24.6231 31.964 22.3591C32.715 20.4491 32.9349 15.7951 29.7639 16.0131C30.4409 13.7131 29.2829 12.0371 26.9009 10.9941C24.5189 9.95107 23.1269 11.2601 21.0769 11.9691C19.3769 12.5501 17.2859 11.6151 15.4159 12.8401C13.9159 13.8171 12.409 16.8821 13.188 18.4401L12.9699 19.0911C10.9399 19.3911 10.8099 23.0811 13.1539 22.8191C12.5349 25.6021 16.6729 26.0501 18.6289 26.3281Z" fill="#9BC90E"/>
<path d="M18.6288 26.3286C20.761 26.647 22.9327 26.112 24.6729 24.8396C26.8609 27.0396 31.0729 24.6235 31.9639 22.3595C32.7149 20.4495 32.9348 15.7956 29.7638 16.0136C30.4408 13.7136 29.2828 12.0376 26.9008 10.9946C26.8828 10.9866 26.8709 10.9846 26.8529 10.9766C27.1021 11.6511 27.234 12.3634 27.2428 13.0826V13.3026C27.2263 14.8511 26.6643 16.3442 25.6555 17.5192C24.6468 18.6942 23.256 19.4758 21.7278 19.7266L21.6978 19.7385C20.5889 20.5366 19.2497 20.9506 17.8839 20.9175C16.9731 20.9514 16.0667 20.7774 15.2332 20.4087C14.3998 20.04 13.6613 19.4863 13.0739 18.7896L12.9738 19.0976C10.9438 19.3976 10.8139 23.0876 13.1579 22.8266C12.5349 25.6006 16.6728 26.0506 18.6288 26.3286Z" fill="#80B708"/>
<path d="M18.629 26.3303C20.7611 26.6487 22.9328 26.1137 24.673 24.8413C26.861 27.0413 31.073 24.6253 31.964 22.3613C32.715 20.4513 32.935 15.7973 29.764 16.0153C30.385 13.9073 29.448 12.3283 27.464 11.2773C27.55 11.4013 27.612 11.5353 27.688 11.6713C30.144 15.4903 28.405 22.0093 22.451 22.0093C22.357 22.0093 22.267 21.9953 22.167 21.9953C22.055 22.0753 21.959 22.1693 21.835 22.2413C20.7063 23.1156 19.3102 23.573 17.883 23.5363C16.6181 23.5886 15.3695 23.2358 14.319 22.5293C13.2684 21.8228 12.4707 20.7995 12.042 19.6083C10.997 20.6793 11.253 23.0413 13.153 22.8273C12.535 25.6033 16.673 26.0523 18.629 26.3303Z" fill="#528402"/>
<path d="M12.5111 26.1697H12.4111C11.9691 25.5247 10.0171 25.6787 9.22806 26.0017C8.64327 26.2338 8.12822 26.6128 7.73268 27.102C7.33714 27.5913 7.07447 28.1743 6.97006 28.7947C6.76406 31.0947 8.43906 31.6217 10.4701 31.9057C12.2181 32.1457 13.6491 32.0497 13.6871 30.0717C17.0891 30.2167 15.6071 25.4067 12.5111 26.1697Z" fill="#9BC90E"/>
<path d="M11.4651 29.008C10.9802 29.1324 10.484 29.2074 9.9841 29.232C9.5045 29.2426 9.02789 29.1532 8.58473 28.9695C8.14157 28.7858 7.74152 28.5118 7.41006 28.165C7.33806 28.091 7.28007 28.005 7.21007 27.925C7.08113 28.2003 6.99997 28.4955 6.97006 28.798C6.76406 31.098 8.43906 31.625 10.4701 31.909C12.2181 32.149 13.6491 32.053 13.6871 30.075C15.9611 30.175 16.0451 28.057 14.9241 26.875C14.3912 27.3729 13.768 27.7643 13.0881 28.028C12.6311 28.477 12.0752 28.8126 11.4651 29.008Z" fill="#80B708"/>
<path d="M13.233 28.9744C12.8563 29.476 12.3534 29.8689 11.7755 30.113C11.1977 30.3571 10.5655 30.4438 9.9432 30.3643C9.32097 30.2847 8.73092 30.0417 8.23308 29.6601C7.73523 29.2784 7.34738 28.7716 7.10899 28.1914C7.04176 28.3858 6.99615 28.587 6.97299 28.7914C6.76699 31.0914 8.44199 31.6184 10.473 31.9024C12.221 32.1424 13.652 32.0464 13.69 30.0684C15.117 30.1344 15.676 29.3154 15.622 28.4104C15.578 28.4404 15.532 28.4724 15.486 28.5024C14.9291 28.8306 14.2944 29.0033 13.648 29.0024C13.5092 29.0021 13.3706 28.9927 13.233 28.9744Z" fill="#528402"/>
<path d="M17.7062 19.4023C17.6955 19.4227 17.6867 19.4441 17.6802 19.4663C17.6862 19.5103 17.7122 19.5403 17.7062 19.5943V19.4023Z" fill="#703F1E"/>
<path d="M17.433 20.7525C17.5201 20.7444 17.6079 20.7444 17.695 20.7525C17.849 19.1155 19.206 18.1245 19.058 16.3125C19.012 16.3125 18.838 16.3125 18.792 16.3125C18.714 16.8595 18.6 18.2505 18.075 18.6125C17.442 19.0405 16.469 18.2785 15.875 18.1625C15.993 18.9155 17.511 18.7375 17.681 19.4755C17.6875 19.4534 17.6962 19.4319 17.707 19.4115V19.6035C17.713 19.5495 17.687 19.5195 17.681 19.4755C17.4527 19.8595 17.365 20.311 17.433 20.7525Z" fill="#703F1E"/>
<path d="M16.3762 10.181C15.2692 10.145 12.8232 10.848 12.5762 11.835L12.4582 11.877C8.34418 12.35 8.72118 18.882 12.7902 17.158C13.7412 19.552 15.5192 19.018 17.5382 17.931C19.8842 16.664 21.6882 15.265 20.3892 12.558C19.9799 11.8512 19.3959 11.2615 18.6932 10.8453C17.9905 10.429 17.1927 10.2003 16.3762 10.181Z" fill="#9BC90E"/>
<path d="M19.5731 11.9845C19.3253 12.5565 18.962 13.0711 18.506 13.4962C18.05 13.9212 17.5111 14.2475 16.9231 14.4545C16.3041 14.6485 15.6678 14.7825 15.0231 14.8545C14.1876 14.8936 13.3546 14.736 12.5911 14.3945C11.6431 14.3851 10.706 14.1912 9.8321 13.8235C9.00909 15.7715 10.0721 18.3175 12.7911 17.1605C13.7421 19.5545 15.5201 19.0205 17.5381 17.9335C19.8841 16.6665 21.6881 15.2675 20.3891 12.5605C20.2158 12.2055 19.9835 11.8826 19.7021 11.6055C19.6591 11.7245 19.6331 11.8605 19.5731 11.9845Z" fill="#80B708"/>
<path d="M16.9771 16.0487C16.3096 16.3271 15.5828 16.4332 14.8636 16.3574C14.1444 16.2815 13.4558 16.0262 12.8611 15.6147C12.6951 15.6927 12.5331 15.7767 12.3611 15.8387C11.5734 16.1305 10.7226 16.2085 9.89512 16.0647C9.82512 16.0527 9.75512 16.0327 9.68512 16.0147C10.0351 17.1417 11.0851 17.8847 12.7901 17.1557C13.7411 19.5497 15.5191 19.0157 17.5381 17.9287C19.8841 16.6617 21.6881 15.2627 20.3891 12.5557C20.2705 12.3154 20.1227 12.0907 19.9491 11.8867C19.9624 12.8067 19.6812 13.7069 19.1465 14.4557C18.6118 15.2045 17.8516 15.7627 16.9771 16.0487Z" fill="#528402"/>
<path opacity="0.42" d="M45.781 46.3164L44.854 46.9774C44.019 46.5334 42.9919 47.6084 43.0249 48.4124C44.5939 48.4924 46.9789 49.3174 48.3959 48.9584C49.3959 48.7104 49.3869 48.2274 50.5359 48.1734C51.4575 48.2853 52.3893 48.2853 53.311 48.1734C55.96 47.2604 51.7439 46.6264 50.8009 46.5844C48.9189 46.4944 47.506 47.5774 45.781 46.3164Z" fill="#728407"/>
<path d="M49.846 37.5202C49.946 37.4642 49.918 37.5323 50.046 37.5363L49.74 37.3242C49.7779 37.3954 49.8113 37.4689 49.84 37.5443L49.846 37.5202Z" fill="#703F1E"/>
<path d="M49.8399 37.5469C49.6199 38.5559 49.6059 39.4949 48.6289 40.0989C48.3029 39.3699 48.5869 38.1889 47.9139 37.6189C47.7859 38.6839 48.5779 39.4669 47.9259 40.5679C47.1921 41.5059 46.3755 42.3761 45.4859 43.1679C44.995 43.7176 44.6242 44.3637 44.3971 45.0648C44.17 45.766 44.0916 46.5068 44.1669 47.2399C44.4568 47.2352 44.742 47.1656 45.0016 47.0363C45.2611 46.9071 45.4884 46.7214 45.6669 46.4929C45.4179 46.0535 45.3026 45.551 45.3353 45.047C45.368 44.5429 45.5472 44.0595 45.8509 43.6559C47.1749 42.0389 51.0069 40.0069 49.8399 37.5469Z" fill="#703F1E"/>
<path d="M49.5858 33.0592C48.8648 33.1412 47.3458 33.8302 47.2778 34.4942L47.2058 34.5342C44.5838 35.2342 45.4518 39.4342 47.9268 37.9292C48.7718 39.3902 49.8748 38.8742 51.0838 37.9772C52.4838 36.9322 53.5178 35.8512 52.4168 34.2172C52.0842 33.7972 51.6489 33.4701 51.1531 33.2672C50.6572 33.0644 50.1174 32.9928 49.5858 33.0592Z" fill="#9BC90E"/>
<path d="M51.8768 33.6602C51.8674 33.7499 51.8513 33.8388 51.8288 33.9261C51.723 34.3206 51.5366 34.6888 51.2814 35.0076C51.0261 35.3263 50.7075 35.5887 50.3458 35.7782C49.9614 35.9649 49.5595 36.113 49.1458 36.2202C48.6088 36.3224 48.0556 36.2998 47.5288 36.1541C46.9114 36.2377 46.2836 36.1996 45.6807 36.0421C45.3367 37.3891 46.2658 38.9351 47.9208 37.9281C48.7658 39.3891 49.8688 38.8732 51.0778 37.9762C52.4778 36.9312 53.5118 35.8502 52.4108 34.2162C52.2661 34.0014 52.0855 33.8133 51.8768 33.6602Z" fill="#80B708"/>
<path d="M50.5398 36.8082C50.1332 37.0541 49.6713 37.1935 49.1967 37.2138C48.722 37.2341 48.2498 37.1345 47.8238 36.9242C47.7238 36.9902 47.6238 37.0562 47.5238 37.1162C47.043 37.3809 46.5004 37.5127 45.9518 37.4982C45.9043 37.4972 45.8568 37.4932 45.8098 37.4862C46.1418 38.1862 46.8928 38.5632 47.9318 37.9302C48.7768 39.3912 49.8798 38.8752 51.0888 37.9782C52.4888 36.9332 53.5228 35.8522 52.4218 34.2182C52.3229 34.0727 52.206 33.9403 52.0738 33.8242C52.1711 34.4203 52.0746 35.0318 51.7984 35.5689C51.5223 36.1061 51.0811 36.5404 50.5398 36.8082Z" fill="#528402"/>
<path d="M53.6769 48.7656C53.4649 48.7936 52.6459 48.9356 52.6399 49.2596C52.6399 49.4356 53.7489 49.7236 53.9809 49.7686C54.2307 49.7993 54.4702 49.8869 54.6809 50.0246C54.8706 50.1491 55.093 50.2145 55.3199 50.2126C55.8274 50.2526 56.3374 50.2526 56.8449 50.2126C57.0829 50.2026 57.3019 50.2126 57.5279 50.2126C57.783 50.1874 58.032 50.1198 58.2649 50.0126C58.6829 49.8786 59.2179 50.0126 59.5799 49.7786C59.7739 49.6606 59.8739 49.4846 59.6919 49.2786C59.3919 48.9406 58.6049 49.0566 58.2109 49.0306C56.9279 48.9526 55.6389 49.0226 54.3669 48.8466C54.2501 48.8137 54.13 48.7936 54.0089 48.7866L53.6769 48.7656Z" fill="#748E09"/>
<path d="M58.279 44.0954C57.386 43.7034 56.872 44.1954 56.109 44.4574C55.475 44.6734 54.7 44.3254 53.999 44.7794C53.44 45.1474 52.882 46.2874 53.172 46.8674L53.092 47.1094C52.333 47.2234 52.285 48.6004 53.158 48.4984C52.93 49.5334 54.473 49.6984 55.196 49.7984C55.589 49.8584 55.99 49.8404 56.3761 49.7453C56.7622 49.6502 57.1257 49.48 57.446 49.2444C58.261 50.0614 59.828 49.1664 60.16 48.3234C60.442 47.6064 60.524 45.8774 59.343 45.9614C59.595 45.1084 59.162 44.4834 58.279 44.0954Z" fill="#9BC90E"/>
<path d="M56.352 47.3478H56.338C55.9249 47.6453 55.4259 47.7998 54.917 47.7878C54.5783 47.8002 54.2412 47.7352 53.9314 47.5978C53.6216 47.4604 53.3472 47.2542 53.129 46.9948L53.091 47.1068C52.332 47.2208 52.284 48.5978 53.157 48.4958C52.929 49.5308 54.472 49.6958 55.195 49.7958C55.5879 49.856 55.9889 49.8382 56.375 49.7433C56.7611 49.6484 57.1247 49.4783 57.445 49.2428C58.26 50.0598 59.827 49.1648 60.159 48.3218C60.441 47.6048 60.523 45.8758 59.342 45.9598C59.596 45.1028 59.162 44.4768 58.279 44.0898H58.259C58.3505 44.3408 58.3986 44.6056 58.401 44.8728V44.9508C58.3973 45.5279 58.1895 46.0851 57.8145 46.5238C57.4395 46.9625 56.9215 47.2544 56.352 47.3478Z" fill="#80B708"/>
<path d="M56.626 48.1902C56.586 48.1902 56.5521 48.1902 56.5261 48.1902C56.4801 48.2202 56.4421 48.2543 56.3961 48.2823C55.9761 48.6081 55.4564 48.7784 54.9251 48.7643C54.4541 48.7834 53.9894 48.6516 53.5987 48.3881C53.208 48.1245 52.9117 47.7431 52.7531 47.2993C52.3671 47.6993 52.461 48.5823 53.165 48.4993C52.937 49.5343 54.4801 49.6993 55.2031 49.7993C55.5961 49.8595 55.997 49.8416 56.3831 49.7467C56.7692 49.6518 57.1328 49.4818 57.4531 49.2462C58.2681 50.0632 59.8351 49.1683 60.1671 48.3253C60.4491 47.6083 60.531 45.8793 59.35 45.9633C59.4618 45.6157 59.4354 45.2384 59.2761 44.9099C59.1169 44.5813 58.8371 44.3268 58.4951 44.1992C58.5251 44.2452 58.549 44.2932 58.579 44.3452C58.832 44.7083 58.9817 45.1332 59.0123 45.5746C59.0429 46.0161 58.9532 46.4575 58.7528 46.852C58.5525 47.2465 58.2488 47.5793 57.8743 47.815C57.4998 48.0506 57.0684 48.1803 56.626 48.1902Z" fill="#528402"/>
<path d="M42.8859 48.4447C42.806 48.4279 42.7252 48.4159 42.6439 48.4087L42.4219 48.3867C42.2759 48.4087 41.7219 48.5027 41.7219 48.7187C41.7219 48.8387 42.4669 49.0367 42.6219 49.0707C42.7921 49.0877 42.9555 49.1461 43.0979 49.2407C43.2262 49.3232 43.3754 49.3676 43.5279 49.3687C43.8705 49.3916 44.2143 49.3916 44.5569 49.3687C44.7169 49.3567 44.8649 49.3687 45.0189 49.3687C45.192 49.3501 45.3608 49.3035 45.5189 49.2307C45.8029 49.1447 46.1579 49.2307 46.4039 49.0747C46.5359 48.9927 46.6039 48.8747 46.4799 48.7387C46.2799 48.5127 45.7479 48.5907 45.4799 48.5747C44.6099 48.5207 43.7409 48.5647 42.8859 48.4447Z" fill="#748E09"/>
<path d="M43.4429 49.0882C43.9781 49.1683 44.5233 49.0339 44.96 48.7143C45.507 49.2633 46.56 48.6603 46.786 48.0953C46.976 47.6133 47.032 46.4482 46.235 46.5022C46.405 45.9242 46.115 45.5022 45.516 45.2412C44.917 44.9802 44.573 45.3112 44.057 45.4892C43.632 45.6352 43.108 45.3993 42.638 45.7033C42.258 45.9533 41.885 46.7203 42.081 47.1103L42.027 47.2723C41.518 47.3503 41.482 48.2722 42.073 48.2112C41.917 48.9052 42.9539 49.0162 43.4429 49.0882Z" fill="#9BC90E"/>
<path d="M43.4429 49.0882C43.9781 49.1683 44.5233 49.0339 44.9599 48.7142C45.5069 49.2642 46.5599 48.6602 46.7859 48.0952C46.9759 47.6142 47.0319 46.4492 46.2349 46.5032C46.4049 45.9262 46.1149 45.5032 45.5159 45.2422H45.5059C45.5684 45.4117 45.6022 45.5905 45.6059 45.7712V45.8232C45.603 46.2123 45.4626 46.5878 45.2095 46.8833C44.9564 47.1789 44.6069 47.3754 44.2229 47.4382H44.2129C43.9363 47.6384 43.6013 47.7418 43.2599 47.7322C43.0315 47.7402 42.8043 47.6965 42.5952 47.6042C42.3862 47.5119 42.2008 47.3734 42.0529 47.1992L42.0289 47.2732C41.5199 47.3512 41.4839 48.2732 42.0749 48.2122C41.9169 48.9032 42.9539 49.0162 43.4429 49.0882Z" fill="#80B708"/>
<path d="M43.4439 49.0884C43.9791 49.1685 44.5242 49.0341 44.9609 48.7144C45.5079 49.2634 46.5609 48.6604 46.7869 48.0954C46.9769 47.6134 47.0329 46.4494 46.2359 46.5034C46.3124 46.2698 46.2954 46.0155 46.1883 45.7941C46.0813 45.5728 45.8926 45.4015 45.6619 45.3164C45.6799 45.3464 45.6959 45.3784 45.7159 45.4164C45.8865 45.6616 45.9877 45.9484 46.0085 46.2463C46.0294 46.5443 45.9693 46.8424 45.8344 47.1089C45.6996 47.3755 45.4952 47.6006 45.2428 47.7604C44.9904 47.9201 44.6995 48.0086 44.4009 48.0164C44.3769 48.0164 44.3569 48.0104 44.3309 48.0104C44.3029 48.0264 44.2768 48.0524 44.2508 48.0684C43.9682 48.2899 43.6168 48.4053 43.2579 48.3944C42.9408 48.4068 42.628 48.3183 42.3644 48.1417C42.1008 47.965 41.9 47.7094 41.7909 47.4114C41.5309 47.6814 41.5909 48.2724 42.0729 48.2184C41.9169 48.9054 42.9539 49.0174 43.4439 49.0884Z" fill="#528402"/>
<path d="M24.0589 85.433C24.0749 83.289 23.9329 81.854 24.0529 79.541C24.1649 77.317 23.47 75.4649 23.153 73.2729C22.841 71.1289 22.122 68.655 21.724 66.543C21.4422 64.2341 21.4187 61.901 21.6539 59.587C20.4109 58.678 19.454 58.292 18.554 56.668C18.554 61.112 20.444 65.22 20.864 69.556C21.074 71.744 21.318 74.092 21.418 76.242C21.508 78.126 21.3739 82.4539 21.3739 82.4539C22.4069 83.5929 23.1929 84.554 24.0589 85.433Z" fill="#30B9D8"/>
<path d="M20.6349 61.499C20.6929 61.687 21.4439 63.191 21.4939 63.387C21.5079 62.096 21.6079 60.815 21.6559 59.587C20.4129 58.678 19.4559 58.292 18.5559 56.668C18.5644 57.5894 18.6413 58.509 18.7859 59.419C19.2859 59.177 19.0859 58.548 19.2859 59.177C19.5139 59.882 20.5449 65.607 20.6329 66.324C20.9909 66.35 20.5149 61.059 20.6349 61.499Z" fill="#18A1B7"/>
<path d="M35.095 72.1488C34.755 73.1278 36.981 73.1278 37.995 74.1688C39.024 75.2318 42.151 94.9198 43.458 96.9058L43.634 96.7058C41.828 90.4598 40.695 74.7798 40.559 73.5278C40.439 72.4348 40.559 71.8418 39.874 71.1678C40.252 70.1678 40.807 68.6958 40.264 67.8678C39.4652 67.0504 38.5189 66.3915 37.475 65.9258C37.8729 67.3656 38.036 68.8601 37.958 70.3518C37.899 70.6768 35.553 70.8078 35.095 72.1488Z" fill="#30B9D8"/>
<path d="M39.7319 71.3277C38.9601 72.1513 38.1428 72.9312 37.2839 73.6637C37.5465 73.793 37.7861 73.9646 37.9929 74.1717C38.1579 74.421 38.279 74.6966 38.3509 74.9867C39.0099 73.9867 39.6939 73.0127 40.3869 72.0397C40.302 71.7049 40.1221 71.4017 39.8689 71.1667L39.8829 71.1367C39.8392 71.2053 39.7886 71.2693 39.7319 71.3277Z" fill="#43D7EF"/>
<path d="M40.2609 67.8639C39.4621 67.0465 38.5158 66.3876 37.4719 65.9219C37.87 67.3617 38.0335 68.8562 37.9559 70.348C37.9439 70.42 37.8179 70.4859 37.6299 70.5559C38.4434 70.6193 39.2335 70.8581 39.9459 71.2559C39.9199 71.2299 39.8999 71.2039 39.8719 71.1719C40.2489 70.1679 40.8089 68.6949 40.2609 67.8639Z" fill="#18A1B7"/>
<path d="M40.594 78.8239C40.574 78.4999 40.26 73.879 40.254 73.557C40.2486 73.4386 40.2681 73.3204 40.3112 73.21C40.3542 73.0996 40.4199 72.9994 40.504 72.9159C40.5142 72.439 40.4012 71.9675 40.176 71.5469C39.6111 72.5126 38.8517 73.3503 37.946 74.007C37.9199 74.0255 37.8925 74.0422 37.864 74.057C37.906 74.095 37.952 74.131 37.992 74.173C38.3847 74.9567 38.6587 75.7946 38.805 76.659C39.087 76.659 40.322 82.2079 40.505 82.4589C40.421 81.9339 39.205 75.9529 39.318 75.4269C39.625 74.0469 40.594 78.8239 40.594 78.8239Z" fill="#18A1B7"/>
<path d="M68.4031 64.2863C69.0916 65.6702 69.6727 67.1051 70.1411 68.5783C71.3561 72.5503 69.0221 71.7933 69.1281 74.0433C69.2381 76.2433 69.7041 88.9772 69.9991 93.4112C71.1741 92.3762 72.4601 91.2573 72.4601 91.2573C72.2741 89.4233 71.6511 76.1653 72.4161 74.3153C72.8981 73.1403 73.3571 73.3583 73.5591 72.5453C73.6469 71.8702 73.6006 71.1844 73.4231 70.5272C73.0311 67.8215 73.0089 65.075 73.3571 62.3633C71.6403 62.8209 69.979 63.4657 68.4031 64.2863Z" fill="#30B9D8"/>
<path d="M71.562 73.611C71.6794 73.5997 71.7977 73.6183 71.906 73.6649L72.376 73.8489C72.4468 73.8854 72.5139 73.929 72.576 73.979C72.892 73.388 73.188 73.2789 73.387 72.9719C72.27 72.7053 71.2166 72.2211 70.287 71.5469C70.1606 71.8072 70.0013 72.0502 69.813 72.27C69.861 72.35 69.907 72.4279 69.955 72.5059C70.037 72.5979 70.119 72.6919 70.205 72.7779C70.6029 73.1358 71.0628 73.4181 71.562 73.611Z" fill="#43D7EF"/>
<path d="M72.7751 73.6549C71.7478 73.3105 70.7933 72.7785 69.9601 72.0859C69.1291 74.0419 69.8001 75.2609 69.8861 76.9969C70.3981 76.6449 69.5601 73.8059 70.2961 73.8559C71.3131 73.9339 70.7641 82.8839 70.8841 83.8949C71.1141 83.8249 71.1761 76.0379 72.0531 80.3259C71.9374 78.3137 72.061 76.2949 72.4211 74.3119C72.5117 74.0792 72.6306 73.8585 72.7751 73.6549Z" fill="#18A1B7"/>
<path d="M73.2061 63.6555C73.2461 63.1845 73.2961 62.7385 73.3601 62.3555C71.6421 62.8138 69.9798 63.4597 68.4031 64.2815C68.4031 64.2815 68.6511 64.7615 68.9791 65.5065C69.1157 65.5517 69.2404 65.6269 69.3442 65.7266C69.448 65.8262 69.5283 65.9478 69.5791 66.0825C70.2392 67.686 70.7865 69.3337 71.2171 71.0135C71.2999 71.0291 71.3796 71.0582 71.4531 71.0995C71.2431 69.7685 69.8191 65.0095 70.8531 64.8635C72.0761 64.6835 72.2061 69.1695 72.5801 70.3425C72.6681 70.6285 72.4001 65.8745 72.4861 66.1565C72.3789 65.7226 72.3858 65.2684 72.5062 64.838C72.6266 64.4076 72.8563 64.0157 73.1731 63.7005C73.1801 63.6855 73.1961 63.6755 73.2061 63.6555Z" fill="#18A1B7"/>
<path d="M42.117 36.0898C43.024 41.5328 37.479 47.2378 30.951 47.4368C35.369 48.2038 35.6109 49.8368 31.1909 52.2878C27.4759 54.3518 29.481 55.4148 22.877 57.1158C25.62 56.3988 29.267 57.7208 30.748 53.5568C31.236 52.1858 33.6329 52.2998 34.7919 51.4828C37.0979 49.8388 36.4179 48.7678 35.6109 47.6888C38.8719 45.5848 45.817 39.9758 42.117 36.0898Z" fill="#6BEEFC"/>
<path d="M88.9119 40.6603C88.5999 40.9123 87.0519 40.0773 84.3239 39.9753C82.5979 39.9033 79.9879 39.7013 78.2859 39.8253C62.2269 41.0363 61.2219 39.1383 57.7569 37.8253C56.1633 37.2249 54.7144 36.295 53.5049 35.0963C52.5619 34.0793 52.4679 31.3063 53.6049 30.3443V30.2383C52.2973 30.9502 51.3234 32.1494 50.8949 33.5753C50.6689 35.2163 52.1299 36.2903 53.3949 37.0383C54.9059 37.8934 56.4629 38.6646 58.0589 39.3483C59.477 39.8371 60.8683 40.4006 62.2269 41.0363C62.8409 41.4043 63.1839 42.0113 63.9179 42.1773C64.7134 42.2624 65.5163 42.1129 66.2279 41.7473C67.5925 41.2023 69.0325 40.8695 70.4979 40.7603C72.2719 40.5723 74.0669 40.5363 75.8589 40.4523C78.9404 40.1776 82.0403 40.1776 85.1219 40.4523C86.2289 40.6163 88.5529 42.2723 89.6219 41.8753C91.8219 41.0563 89.6279 39.0903 88.5029 39.1383C88.1529 39.1603 89.9109 39.8513 88.9119 40.6603Z" fill="#6BEEFC"/>
<path d="M60.7959 51.2581C62.5059 51.3141 64.2529 50.6711 66.0449 50.6671C67.629 50.6089 69.2098 50.8494 70.7049 51.3761C71.293 51.6475 71.8967 51.8836 72.5129 52.0831C73.2491 52.1489 73.9887 52.001 74.6429 51.6571C76.3519 51.1351 78.1959 51.5911 79.8959 51.2511C78.9029 50.3021 76.7109 50.6661 75.3499 50.6661C73.6159 50.6661 71.9089 51.0401 70.1849 50.8661C69.6239 50.8141 65.9009 50.0611 65.8349 49.4491C65.7689 48.8371 67.2179 48.7221 67.4439 48.2161C67.7819 47.4451 67.0139 46.8951 66.4439 46.6211L66.3439 46.7151C67.7239 48.0031 61.4489 50.5281 60.7959 51.2581Z" fill="#6BEEFC"/>
<path d="M55.413 32.918C55.149 32.946 54.1401 33.118 54.1341 33.518C54.1281 33.736 55.497 34.094 55.782 34.151C56.0906 34.1895 56.3864 34.2975 56.6471 34.467C56.8801 34.6179 57.1524 34.6972 57.43 34.695C58.0545 34.7419 58.6816 34.7419 59.306 34.695C59.6 34.677 59.8711 34.695 60.1471 34.695C60.4622 34.6636 60.7699 34.5805 61.058 34.449C61.572 34.291 62.229 34.449 62.674 34.163C62.908 34.017 63.034 33.803 62.81 33.552C62.443 33.138 61.469 33.284 60.988 33.252C59.41 33.152 57.821 33.244 56.257 33.016C56.1114 32.9831 55.9637 32.9598 55.8151 32.946L55.413 32.918Z" fill="#748E09"/>
<path d="M61.0721 27.1653C59.9721 26.6883 59.3421 27.2913 58.4001 27.6133C57.6271 27.8773 56.6661 27.4533 55.8061 28.0133C55.1171 28.4653 54.4291 29.8713 54.7871 30.5853L54.687 30.8853C53.758 31.0273 53.698 32.7133 54.773 32.5973C54.487 33.8663 56.3871 34.0723 57.2791 34.1973C58.2552 34.3448 59.2501 34.1016 60.048 33.5203C61.055 34.5253 62.979 33.4203 63.389 32.3833C63.737 31.5083 63.837 29.3833 62.38 29.4783C62.69 28.4093 62.1541 27.6403 61.0721 27.1653Z" fill="#9BC90E"/>
<path d="M58.7001 31.168H58.6821C58.1762 31.534 57.5643 31.7244 56.9401 31.71C56.5224 31.7259 56.1067 31.6464 55.7244 31.4774C55.3421 31.3085 55.0034 31.0546 54.7341 30.735L54.6861 30.875C53.7571 31.017 53.6971 32.703 54.7721 32.587C54.4861 33.856 56.3861 34.062 57.2781 34.187C58.2542 34.3346 59.2492 34.0913 60.0471 33.51C61.0541 34.515 62.9781 33.41 63.3881 32.373C63.7361 31.498 63.8361 29.373 62.3791 29.468C62.6911 28.409 62.1571 27.64 61.0721 27.168H61.0481C61.1632 27.4769 61.2241 27.8034 61.2281 28.133V28.233C61.218 28.9411 60.9592 29.623 60.4971 30.1596C60.0349 30.6961 59.3988 31.0531 58.7001 31.168Z" fill="#80B708"/>
<path d="M59.0332 32.2097C58.9872 32.2097 58.9432 32.2097 58.9012 32.2097C58.8472 32.2457 58.8012 32.2917 58.7492 32.3257C58.2298 32.7207 57.5914 32.927 56.9392 32.9107C56.3601 32.9362 55.788 32.7759 55.3066 32.4531C54.8251 32.1303 54.4595 31.6621 54.2632 31.1167C53.7832 31.6067 53.8992 32.6927 54.7712 32.5937C54.4852 33.8627 56.3862 34.0687 57.2772 34.1937C58.2533 34.3413 59.2483 34.098 60.0462 33.5167C61.0532 34.5217 62.9772 33.4167 63.3872 32.3797C63.7352 31.5047 63.8352 29.3797 62.3782 29.4747C62.5151 29.0472 62.4824 28.5835 62.2867 28.1795C62.091 27.7755 61.7475 27.4623 61.3272 27.3047C61.3632 27.3627 61.3952 27.4187 61.4272 27.4807C62.5572 29.2307 61.7572 32.2097 59.0332 32.2097Z" fill="#528402"/>
<path d="M62.8049 38.1989C63.1221 38.4003 63.4901 38.5072 63.8659 38.5069C64.7153 38.5717 65.5684 38.5717 66.4179 38.5069C66.8099 38.4829 67.1789 38.5069 67.5609 38.5069C67.9854 38.4612 68.4001 38.3491 68.7899 38.1749C69.4899 37.9509 70.3799 38.1749 70.9899 37.7889C71.3059 37.5829 71.4789 37.2949 71.1739 36.9519C70.6739 36.3899 69.3579 36.5859 68.6999 36.5439C66.5599 36.4139 64.4059 36.5319 62.2839 36.2259C62.0856 36.1757 61.8831 36.1442 61.6789 36.1319L61.1339 36.0859C60.7759 36.1319 59.4119 36.3699 59.3999 36.9089C59.3999 37.2009 61.2519 37.6859 61.6319 37.7699C62.0518 37.8161 62.4543 37.9633 62.8049 38.1989Z" fill="#748E09"/>
<path d="M60.2609 35.6502C59.8729 37.3682 62.4489 37.6502 63.6609 37.8202C64.986 38.0215 66.3369 37.6896 67.4179 36.8972C68.7789 38.2662 71.3959 36.7612 71.9499 35.3562C72.4179 34.1652 72.5549 31.2782 70.5789 31.4122C71.0009 29.9772 70.2789 28.9382 68.8049 28.2912C67.3309 27.6442 66.4569 28.4612 65.1829 28.8912C64.1279 29.2512 62.8269 28.6772 61.6639 29.4382C60.7289 30.0432 59.7959 31.9522 60.2769 32.9172L60.1449 33.3273C58.8839 33.5173 58.8039 35.8102 60.2609 35.6502Z" fill="#9BC90E"/>
<path d="M65.5879 33.7163L65.5679 33.7262C64.8788 34.2203 64.0476 34.477 63.1999 34.4573C62.6333 34.4781 62.0694 34.3693 61.5511 34.1394C61.0328 33.9094 60.5737 33.5642 60.2089 33.1302L60.1469 33.3302C58.8839 33.5162 58.8039 35.8102 60.2609 35.6502C59.8729 37.3692 62.4489 37.6503 63.6609 37.8203C64.986 38.0217 66.3369 37.6898 67.4179 36.8973C68.7789 38.2663 71.3959 36.7613 71.9499 35.3563C72.4179 34.1653 72.5549 31.2783 70.5789 31.4123C71.0009 29.9773 70.2789 28.9383 68.8049 28.2913L68.7709 28.2812C68.9271 28.7016 69.009 29.1459 69.0129 29.5943V29.7263C69.0016 30.6877 68.6521 31.6145 68.0259 32.3441C67.3996 33.0736 66.5365 33.5594 65.5879 33.7163Z" fill="#80B708"/>
<path d="M66.0388 35.1367C65.9788 35.1367 65.9228 35.1268 65.8608 35.1268C65.7888 35.1748 65.7328 35.2347 65.6548 35.2827C64.952 35.8229 64.085 36.1053 63.1988 36.0827C62.413 36.1162 61.6372 35.8975 60.9846 35.4585C60.332 35.0195 59.837 34.3832 59.5718 33.6427C58.9188 34.3077 59.0788 35.7768 60.2588 35.6488C59.8708 37.3668 62.4468 37.6487 63.6588 37.8187C64.9836 38.0198 66.3341 37.6879 67.4148 36.8957C68.7758 38.2647 71.3938 36.7597 71.9468 35.3547C72.4148 34.1637 72.5518 31.2767 70.5758 31.4107C70.7629 30.8322 70.72 30.2039 70.4562 29.6561C70.1924 29.1083 69.7278 28.6831 69.1588 28.4688C69.2108 28.5428 69.2488 28.6267 69.2968 28.7107C70.8188 31.0897 69.7378 35.1367 66.0388 35.1367Z" fill="#528402"/>
</svg>
