<svg width="104" height="103" viewBox="0 0 104 103" fill="none" xmlns="http://www.w3.org/2000/svg">
<path d="M28.9239 31.9221C28.9064 32.466 28.8509 33.008 28.7579 33.5441L28.6799 33.5821C28.9479 33.7221 29.6169 33.4041 29.9609 33.3921C30.4189 33.3701 30.9919 33.5981 30.8899 33.0021C30.7119 31.9691 29.6899 31.3741 29.1839 30.5361C29.1199 30.9831 28.9669 31.4461 28.9239 31.9221Z" fill="#592B06"/>
<path d="M84.0391 39.9741H84.2111C84.1589 39.927 84.1019 39.8854 84.0411 39.8501C84.0411 39.8881 84.0391 39.9321 84.0391 39.9741Z" fill="#592B06"/>
<path d="M82.3139 39.6712C82.9359 39.7012 83.5139 39.5271 84.0399 39.8511C84.0519 38.4801 84.2699 37.1381 84.2399 35.8251C83.8779 35.7131 82.9399 36.4841 82.5849 36.6721C81.8704 36.9479 81.2137 37.3549 80.6489 37.8722C80.1569 38.4192 79.8899 38.8952 80.6389 39.2912C81.1595 39.5481 81.7334 39.6783 82.3139 39.6712Z" fill="#592B06"/>
<path d="M101.442 46.0451L100.253 45.6311C97.0529 44.7311 93.3929 44.7221 90.0329 44.5401C82.7078 44.0477 75.3799 45.4581 68.7609 48.634C61.7759 52.029 53.8749 58.2811 51.3289 66.0781C49.5409 71.5411 48.1999 77.887 49.0629 83.678C49.9799 89.81 53.2029 95.8691 53.1329 102.078C56.5329 101.325 59.1749 97.1931 62.7259 96.0001C62.7259 96.0001 65.4479 97.8101 68.9779 94.7411C73.7349 90.6051 78.5409 85.8211 84.1919 84.2331C90.4579 82.4851 92.9719 75.8231 96.2919 73.8011C98.9919 67.4771 95.5489 66.146 98.1579 61.429C101.442 55.492 99.6559 51.0901 101.442 46.0451Z" fill="#6D390A"/>
<path d="M68.9759 94.7431C70.6349 93.3041 72.3009 91.7841 74.0029 90.3431C74.1389 88.0071 74.5369 85.6671 74.8919 83.3121C75.3059 80.5721 75.9029 77.3021 74.7919 74.6481C74.3099 73.4831 71.3749 71.2791 71.3749 71.2791C70.3899 74.1791 70.2839 79.965 69.5519 82.94C68.8519 85.797 68.1869 88.677 67.7219 91.582C67.5339 92.6283 67.4043 93.6843 67.3339 94.7451C67.3143 95.0452 67.323 95.3465 67.3599 95.6451C67.3959 95.6991 67.4239 95.7451 67.4539 95.7991C68.0002 95.5069 68.5109 95.1525 68.9759 94.7431Z" fill="#592B06"/>
<path d="M71.5301 73.8571C71.4941 80.7571 71.2881 88.6471 69.4241 94.3571C70.5971 93.3301 71.7741 92.281 72.9631 91.257C73.2291 89.273 73.5631 87.2971 73.8631 85.3061C74.3201 82.1611 72.1831 76.5821 71.5301 73.8571Z" fill="#471F04"/>
<path d="M90.7171 69.8181C90.0527 73.5345 89.6516 77.2932 89.5171 81.0661C92.2841 78.4401 94.1171 75.1291 96.2901 73.8031C98.9901 67.4791 95.5471 66.1481 98.1561 61.4311C101.443 55.4921 99.6561 51.0911 101.443 46.0451L100.254 45.6311L99.9601 45.5631C97.9841 46.6841 96.0741 47.9131 94.1991 49.2121C95.5398 49.2752 96.8627 49.5451 98.1211 50.0121C98.4275 50.1163 98.7058 50.2896 98.9346 50.5185C99.1634 50.7475 99.3366 51.0259 99.4406 51.3323C99.5447 51.6388 99.577 51.9651 99.5349 52.286C99.4929 52.6069 99.3776 52.9138 99.1981 53.1831C97.7461 59.4541 92.0931 63.5141 90.7171 69.8181Z" fill="#592B06"/>
<path d="M99.7701 57.4841C98.0961 60.3971 96.2171 63.1791 94.3011 65.9401C93.2441 69.8921 92.1011 73.8291 91.1321 77.7931C92.8755 74.7644 94.9714 71.9529 97.3761 69.4171C97.5061 66.4461 96.2931 64.7951 98.1551 61.4301C98.8478 60.1834 99.39 58.8588 99.7701 57.4841Z" fill="#471F04"/>
<path d="M52.6959 71.8361C52.5683 71.8483 52.44 71.8516 52.3119 71.8461C52.0259 79.1091 51.9179 86.3841 51.7029 93.6521C52.5896 96.3763 53.0717 99.2159 53.1339 102.08C54.8131 101.555 56.347 100.647 57.6139 99.4261C57.5859 98.9641 57.5579 98.5051 57.5279 98.0411C57.5071 95.8581 57.1919 93.6878 56.5909 91.5891C55.9979 89.8751 54.9149 88.1941 54.5969 86.3841C53.5319 80.3341 55.7839 75.4061 59.3739 70.9701C57.1919 71.3581 54.9679 71.5211 52.6959 71.8361Z" fill="#592B06"/>
<path d="M77.124 87.8891C78.3566 86.9844 79.6609 86.1817 81.024 85.4892C81.124 83.9382 81.252 82.3892 81.448 80.8392C82.0228 77.303 82.9828 73.8404 84.311 70.5131C85.411 67.3661 84.651 64.0012 85.711 60.8862C86.546 58.4382 87.687 56.2361 88.321 53.8221C86.8764 54.6658 85.2414 55.1293 83.569 55.1691C81.749 55.1491 79.888 54.8871 78.122 55.5011C78.232 55.4631 72.955 56.7462 74.264 57.3392C74.964 57.4704 75.6528 57.656 76.324 57.8941C76.488 57.9561 80.558 57.7941 80.558 57.7941C77.579 64.8791 78.222 75.2881 77.647 82.7941C77.519 84.5081 77.349 86.2091 77.124 87.8891Z" fill="#592B06"/>
<path d="M77.124 87.8891C77.44 87.6611 77.765 87.4291 78.091 87.2161C78.249 84.2031 78.661 81.2161 78.998 78.2081C79.356 74.9631 79.492 71.7081 80.133 68.5031C81.233 63.0031 82.511 59.1221 86.875 55.4571C87.1843 55.1865 87.5673 55.0145 87.975 54.9631C88.103 54.5851 88.223 54.2021 88.323 53.8201C86.8784 54.6637 85.2434 55.1272 83.571 55.1671C81.751 55.1471 79.89 54.8851 78.124 55.4991C78.234 55.4611 72.957 56.7441 74.266 57.3371C74.966 57.4683 75.6548 57.6539 76.326 57.8921C76.49 57.9541 80.56 57.7921 80.56 57.7921C77.581 64.8771 78.224 75.2861 77.649 82.7921C77.519 84.5081 77.349 86.2091 77.124 87.8891Z" fill="#471F04"/>
<path d="M65.12 78.674C66.643 74.674 66.191 70.6741 68.96 66.7211C69.591 65.8211 73.883 60.8441 74.06 59.8051C70.96 60.9301 61.973 66.938 60.249 69.838C60.6247 73.0575 60.804 76.2968 60.786 79.5381C60.706 82.8051 60.252 86.0141 60.628 89.2831C60.904 91.6831 61.313 94.096 61.605 96.498C61.8991 96.3426 62.2019 96.2043 62.512 96.084C62.336 93.534 62.983 91.051 63.399 88.484C63.951 85.096 63.882 81.947 65.12 78.674Z" fill="#592B06"/>
<path d="M68.114 64.0101C68.14 63.8561 68.156 63.7001 68.182 63.5421C64.9149 64.7083 62.126 66.9236 60.251 69.8421C60.6266 73.0615 60.806 76.3009 60.788 79.5421C60.708 82.8091 60.254 86.0181 60.63 89.2871C60.906 91.6871 61.315 94.1011 61.607 96.5021C61.8674 96.368 62.1344 96.2471 62.407 96.1401C62.165 90.1041 62.087 84.0651 62.307 78.0251C62.515 72.2471 65.22 68.6971 68.114 64.0101Z" fill="#471F04"/>
<path d="M52.3279 66.5241C49.7519 59.4591 39.1939 53.1351 32.7179 50.0971C26.2419 47.0591 17.4559 47.0701 10.4289 46.7261C8.70619 46.7258 6.9922 46.4817 5.33789 46.0011C5.33789 51.6481 5.5379 57.6901 8.1669 62.5141C9.2519 64.5081 10.4129 72.0551 12.6889 76.3491C14.2259 79.2541 15.7889 78.5971 18.2399 79.5861C22.0779 81.1411 23.9889 86.5861 30.4809 90.1561C32.8009 91.4331 34.2489 94.6821 39.0709 96.2901C41.0712 96.8325 43.1653 96.9349 45.2089 96.5901C48.0089 97.7231 48.1019 100.343 53.1339 102.077C53.2939 96.4561 52.7959 90.6771 52.7959 84.6911C52.7959 79.2851 54.1529 71.5211 52.3279 66.5241Z" fill="#915922"/>
<path d="M26.364 87.1921C27.6166 88.3358 28.9979 89.3302 30.48 90.1551C31.875 90.9221 32.966 92.4071 34.658 93.8221C33.3798 90.8154 32.3265 87.7178 31.507 84.5551C30.507 80.4231 30.126 76.0551 29.007 71.9431C28.997 71.9851 28.993 72.0251 28.985 72.0671C29.6195 74.4052 29.8148 76.8408 29.561 79.2501C29.583 82.7431 28.856 85.9631 26.364 87.1921Z" fill="#6D390A"/>
<path d="M52.6759 72.6421C51.7055 71.7871 50.5839 71.1211 49.3689 70.6781C49.3849 70.7681 49.4009 70.8681 49.4169 70.9961C49.4609 71.1361 49.5029 71.2781 49.5489 71.4151C49.7067 71.5465 49.8469 71.6977 49.9659 71.8651C53.2149 76.4371 51.9119 81.9841 52.0959 87.2091C52.2579 91.7091 52.8429 96.1911 53.1569 100.684C53.2089 95.4991 52.7949 90.1841 52.7949 84.6951C52.7949 81.2951 53.3289 76.9521 53.2729 72.9641C53.0598 72.8852 52.8589 72.7768 52.6759 72.6421Z" fill="#AA692E"/>
<path d="M48.987 99.7271C48.677 95.9921 48.22 92.2681 48.087 88.5051C48.027 86.7911 48.175 84.9301 48.257 83.0581C47.1995 79.9844 46.4073 76.8259 45.889 73.6171C45.089 71.3471 44.376 68.7761 45.989 67.5051C46.3874 67.1874 46.8368 66.9395 47.318 66.772C47.0255 66.5772 46.7057 66.4269 46.369 66.326C45.1582 67.0113 43.8392 67.4848 42.469 67.7261C44.7836 74.2208 45.8915 81.0839 45.738 87.9771C45.766 88.0431 45.796 88.107 45.818 88.177C46.0691 89.4275 46.017 90.7199 45.666 91.9461C45.6849 92.053 45.6943 92.1614 45.694 92.2701C45.7091 93.7533 45.6189 95.2356 45.424 96.706C46.945 97.393 47.662 98.5461 48.987 99.7271Z" fill="#AA692E"/>
<path d="M5.9809 46.1911C5.7669 46.1311 5.55289 46.0711 5.33789 46.0011C5.33789 51.6481 5.5379 57.6901 8.1669 62.5141C9.2519 64.5081 10.4129 72.0551 12.6889 76.3491C12.9434 76.9541 13.3342 77.4921 13.8308 77.9212C14.3274 78.3504 14.9164 78.659 15.5519 78.8231C13.2519 74.0431 9.0759 66.7231 11.6059 61.8911C10.2751 60.794 9.05439 59.5698 7.96089 58.2361C7.20663 56.2045 6.7921 54.0625 6.7339 51.8961C6.65099 50.284 6.69714 48.6678 6.8719 47.0631C6.55306 46.7956 6.25518 46.5041 5.9809 46.1911Z" fill="#AA692E"/>
<path d="M22.8291 83.5041C22.9431 80.9941 23.1231 78.4791 23.1291 75.9491C23.1531 70.2061 20.6451 64.6491 22.7671 59.0831C22.3161 58.6466 21.9085 58.1673 21.5501 57.6521C20.3769 56.8454 19.1637 56.0984 17.9151 55.4141C17.8926 56.2115 17.8291 57.0072 17.7251 57.7981C17.7311 57.8841 17.7391 57.9761 17.7491 58.0681C18.803 61.2892 19.5602 64.6 20.0111 67.9591C20.0924 68.1239 20.1503 68.2992 20.1831 68.4801C20.3311 69.2851 20.4831 70.0801 20.6231 70.8801C20.8091 71.1816 20.9145 71.526 20.9291 71.8801C21.2415 75.1826 21.3511 78.5011 21.2571 81.8171C21.7801 82.3391 22.2901 82.8981 22.8291 83.5041Z" fill="#AA692E"/>
<path d="M20.2439 51.4731C18.4359 51.1791 14.0059 50.6061 13.5979 50.6241C13.8171 53.8751 14.3085 57.1021 15.0669 60.2711C15.9739 63.6041 17.6889 66.5391 18.7669 69.7881C19.9869 73.7066 20.8268 77.7335 21.2749 81.8131C21.5869 82.1331 21.8989 82.4701 22.2139 82.8221C22.2069 76.2639 21.5774 69.7213 20.3339 63.2821C19.5339 59.6011 19.1729 58.4011 18.8769 56.0651C19.1889 55.6321 20.5559 51.5511 20.2439 51.4731Z" fill="#7F491C"/>
<path d="M20.2439 51.4741C18.4359 51.1801 8.36691 48.0111 7.96191 48.0291C9.31691 50.3551 12.8189 52.1091 14.0799 52.4651C17.3329 53.6061 17.3029 55.7541 17.9019 58.2821C18.6929 61.6131 19.4329 64.9961 20.1099 68.3511C21.1925 72.9759 21.7838 77.7021 21.8739 82.4511C21.9879 82.5731 22.1019 82.6911 22.2159 82.8191C22.2088 76.261 21.5793 69.7183 20.3359 63.2791C19.5359 59.5981 19.2429 58.2791 18.9469 55.9461C19.2559 55.5121 20.5559 51.5521 20.2439 51.4741Z" fill="#592B06"/>
<path d="M50.454 64.7911C47.141 64.8831 36.854 63.3321 37.636 65.4241C39.962 68.8131 42.386 73.8021 43.922 83.3021C44.645 87.7661 44.687 92.1101 45.209 96.5941C45.397 96.6861 45.914 96.952 46.082 97.055C46.32 94.673 46.639 92.2791 46.843 89.8551C47.41 83.0431 45.149 75.4211 44.537 68.6711C44.538 68.6741 49.379 66.1661 50.454 64.7911Z" fill="#7F491C"/>
<path d="M50.454 64.7911C47.141 64.8831 31.376 58.6911 28.241 59.8061L32.041 62.5291C35.441 63.8291 40.835 68.5651 40.817 68.7091C41.596 69.1931 44.49 75.9301 45.029 78.6981C46.16 84.4471 46.689 90.9572 45.629 96.7982C45.783 96.8822 45.935 96.9641 46.079 97.0561C46.317 94.6741 46.636 92.2801 46.84 89.8561C47.408 83.0451 45.146 75.4221 44.534 68.6721C44.538 68.6731 49.379 66.1661 50.454 64.7911Z" fill="#592B06"/>
<path d="M82.1469 65.6221C81.8769 67.7781 82.9179 78.7301 82.3569 80.7601C84.3889 80.6881 83.8759 80.2181 85.9099 80.0191C87.5499 79.8571 91.2099 71.3971 92.7959 70.7941C94.3819 70.1911 97.5699 68.2441 98.5489 66.7941C99.5039 65.3941 99.4279 64.2461 100.168 62.7221C100.921 61.1731 101.709 61.1931 102.754 59.8051C103.825 58.3821 101.719 53.4371 101.719 53.4371L93.6969 56.3461C92.8439 56.7121 91.9609 57.0111 91.0969 57.3611L89.6859 57.9221C87.8212 58.73 85.9133 59.4344 83.9709 60.0321C83.9112 60.0472 83.8503 60.0572 83.7889 60.0621C83.654 60.1174 83.5055 60.1307 83.3629 60.1001L83.1909 60.1641C83.1909 60.1641 83.2389 62.3401 83.1449 62.9011C82.9679 63.8781 82.2709 64.6061 82.1469 65.6221Z" fill="#824B19"/>
<path d="M86.2591 74.9601C85.7833 76.6531 85.4241 78.3769 85.1841 80.1191C85.3841 80.0811 85.6181 80.0491 85.9091 80.0191C86.1417 79.97 86.3542 79.8522 86.5191 79.6811C87.4251 76.4885 88.7131 73.417 90.3551 70.5331C91.4763 68.3049 92.4358 65.9989 93.2261 63.6331C93.6001 62.5621 94.2371 61.9631 92.3671 61.8031C91.3901 61.7191 90.4211 61.6631 89.4421 61.6271C90.7351 63.3411 91.9041 64.6541 90.7171 67.1101C89.4301 69.7681 87.0481 72.0801 86.2591 74.9601Z" fill="#93552B"/>
<path d="M86.0669 79.979C87.7769 79.338 91.2519 71.3791 92.7949 70.7941C94.3789 70.1941 97.5689 68.2451 98.5479 66.7941C99.5029 65.3941 99.4269 64.2461 100.167 62.7221C100.92 61.1731 101.707 61.1931 102.753 59.8051C103.824 58.3821 101.718 53.4371 101.718 53.4371C101.718 53.1911 96.4609 55.3131 92.3849 58.6441C91.5219 59.5971 92.2849 62.1371 92.2969 62.3961C92.4749 65.5691 91.8769 67.2191 89.4759 70.7261C87.6477 73.5095 86.4816 76.6748 86.0669 79.979Z" fill="#683411"/>
<path d="M86.0669 79.9791C86.8279 79.6911 87.9409 77.9611 89.0669 76.0791C88.2239 72.8261 90.6099 69.7791 92.6279 67.1171C93.1352 65.0489 93.8453 63.0358 94.7479 61.1071C94.7219 61.0911 94.6939 61.0691 94.6659 61.0491C94.4743 60.8926 94.2739 60.747 94.0659 60.6131C93.3749 60.5387 92.6761 60.6249 92.0239 60.8651C92.1079 61.6181 92.2859 62.2741 92.2959 62.3991C92.4739 65.5721 91.8759 67.2231 89.4749 70.7291C87.6475 73.5118 86.4817 76.676 86.0669 79.9791Z" fill="#592B06"/>
<path d="M77.313 90.1792C78.376 89.4102 78.949 84.5201 79.777 81.0651C80.504 78.0261 84.864 73.7442 84.966 70.6012L84.816 70.7432C82.778 69.0232 80.47 70.9132 78.686 71.5982C76.278 72.5192 73.653 71.7102 71.386 71.2802C71.3854 73.4389 71.5439 75.5947 71.86 77.7302C72.052 79.9082 72.911 89.1442 72.967 91.2532C74.568 91.8182 75.783 91.2932 77.313 90.1792Z" fill="#683411"/>
<path d="M77.6301 78.3612C78.8831 75.2222 82.3481 74.2512 84.6601 72.0412C84.8083 71.6294 84.9024 71.2002 84.9401 70.7642C82.8308 72.6128 80.2175 73.7894 77.4351 74.1432C77.4312 74.2159 77.4177 74.2879 77.3951 74.3571C75.9308 79.8897 75.2085 85.5923 75.2471 91.3151C75.7934 91.1302 76.3118 90.8715 76.7881 90.5462C76.7941 88.0222 76.9361 85.5092 77.0881 82.9912C77.0388 81.4295 77.2215 79.8692 77.6301 78.3612Z" fill="#592B06"/>
<path d="M75.8011 91.1001C75.8009 84.2645 76.8778 77.4715 78.9921 70.9711C76.5052 71.6049 73.9132 71.7105 71.3831 71.2811C71.3825 73.4398 71.5409 75.5956 71.8571 77.7311C72.0491 79.9091 72.9081 89.1441 72.9641 91.2541C73.4219 91.4258 73.9104 91.5007 74.3987 91.4742C74.887 91.4477 75.3645 91.3203 75.8011 91.1001Z" fill="#824B19"/>
<path d="M75.189 91.3271C75.3984 91.2675 75.6027 91.1913 75.8 91.0991C75.8297 85.5602 76.5397 80.0459 77.914 74.6801C76.8965 74.8065 75.8635 74.6794 74.907 74.3101C76.45 76.5241 76.316 78.7421 75.874 81.3171C75.4003 84.6324 75.1713 87.9781 75.189 91.3271Z" fill="#93552B"/>
<path d="M15.447 67.5111C15.657 69.7631 17.077 72.8561 18.037 75.0041C19.1222 77.3609 20.0825 79.7733 20.914 82.2311C21.148 82.2311 21.641 82.4671 21.875 82.4551C21.9554 79.9399 21.8216 77.4225 21.475 74.9301C20.49 69.2531 19.956 67.1611 19.267 64.3301C18.076 65.1091 16.788 66.9751 15.447 67.5111Z" fill="#6D390A"/>
<path d="M19.3671 64.7141C19.3331 64.5821 19.3011 64.456 19.2671 64.326C18.0721 65.109 16.7831 66.975 15.4431 67.511C15.6531 69.763 17.0731 72.8561 18.0331 75.0041C19.1183 77.3609 20.0786 79.7732 20.9101 82.231C20.9855 82.2365 21.06 82.2506 21.1321 82.273C20.3911 79.15 19.7191 76.027 18.8641 72.918C18.5401 71.741 17.9591 70.202 18.2491 68.942C18.7348 67.565 19.1087 66.1511 19.3671 64.7141Z" fill="#5B2B07"/>
<path d="M10.209 65.6801C12.199 68.4001 14.545 70.9891 15.832 74.0421C16.877 76.5141 18.192 81.4351 20.913 82.2301C19.86 77.9821 17.754 72.3831 16.895 69.2521C16.44 67.5791 13.376 62.4651 10.209 65.6801Z" fill="#7F491C"/>
<path d="M10.209 65.6801C10.251 65.7381 10.297 65.7921 10.337 65.8501C10.472 65.842 10.607 65.866 10.731 65.9201C15.023 67.7961 16.685 70.1761 17.974 74.5781C18.6428 76.7699 19.489 78.9036 20.504 80.9581C20.572 81.1021 20.644 81.2581 20.704 81.4241C19.604 77.3001 17.697 72.1951 16.892 69.2531C16.44 67.5791 13.376 62.4651 10.209 65.6801Z" fill="#935527"/>
<path d="M49.2109 95.6251C49.0949 91.4111 50.7659 86.5591 51.6489 82.6371C49.4749 82.7031 49.1189 79.9461 48.4599 78.1851C47.8269 76.4771 47.4109 74.2251 46.8659 72.7701L46.6199 72.6461C47.2689 74.6001 47.3069 76.9561 47.8849 79.0621C48.1092 79.9702 48.3942 80.8622 48.7379 81.7321C48.8514 82.0824 49.0202 82.4122 49.2379 82.7091C49.5059 83.0091 50.0909 83.0391 50.2229 83.3241C50.4529 83.8101 49.8229 85.1341 49.6719 85.6961C49.3655 86.6609 49.2084 87.6668 49.2059 88.6791C49.2059 89.9481 49.2619 91.2331 49.2059 92.4991C49.1589 93.4411 48.8159 94.7331 49.2109 95.6251Z" fill="#7F491C"/>
<path d="M27.873 65.425C27.713 64.606 27.527 60.606 27.292 59.806C26.653 59.384 25.442 59.472 24.71 59.226C24.27 59.08 22.624 58.851 22.862 59.108L22.736 58.988C22.996 59.763 22.724 64.728 22.736 65.53C23.252 65.43 24.161 62.359 24.736 62.411C24.9462 63.8413 24.8988 65.2975 24.596 66.711C26.172 67.628 25.589 69.011 25.443 70.526C25.275 72.278 26.47 71.2791 26.36 73.0361C26.27 74.4891 25.103 78.581 25.295 80.021C25.7852 81.2514 26.1423 82.5307 26.36 83.8371C26.36 83.9611 26.404 83.877 26.488 83.651C25.475 79.833 26.688 76.0511 27.821 72.3511C27.797 71.6021 27.787 70.8441 27.811 70.0871C27.833 69.5531 27.851 69.014 27.869 68.487C27.552 66.592 27.933 67.335 27.873 65.425Z" fill="#6D390A"/>
<path d="M84.222 35.7961C78.922 30.1071 71.915 29.996 67.585 26.196C65.441 24.31 55.728 19.5961 53.138 17.8781C47.238 21.4111 42.912 21.3591 40.338 24.7941C37.798 28.1771 32.707 28.572 29.154 30.623C29.348 31.112 29.801 32.2591 30.033 32.7771C25.527 31.9941 19.914 36.759 15.573 39.647C11.788 42.165 5.19897 45.819 5.19897 45.819C10.164 51.219 14.416 52.1551 19.448 52.9061C19.804 53.8511 18.455 55.306 19.14 56.848C21.27 61.62 37.093 63.666 40.866 67.978C41.777 69.019 46.511 66.6351 46.511 66.6351C46.511 67.4901 44.535 68.677 44.535 68.677C49.191 71.363 51.413 74.0771 53.417 73.7861C55.373 73.5001 60.726 70.2861 62.461 69.2041C65.842 67.1041 66.919 64.8941 70.543 63.5231C74.975 61.8511 77.313 61.7611 80.561 57.7941C78.7923 57.5012 77.0073 57.3182 75.216 57.246C79.828 55.116 85.263 56.613 89.88 53.853C93.549 51.661 97.241 46.8701 101.439 46.0461C100.02 44.5331 96.32 41.73 87.15 37.308L81.413 38.325C82.4041 37.545 83.3425 36.7001 84.222 35.7961Z" fill="#93B40D"/>
<path d="M36.912 32.8132C33.512 32.9352 30.246 33.5702 26.912 33.0012C26.0026 33.2487 25.1208 33.5881 24.28 34.0142C26.1578 34.4349 28.0597 34.7392 29.975 34.9252C32.349 35.1092 34.767 34.9672 37.122 35.3112C40.367 35.7902 42.637 37.1752 43.448 39.9192C44.948 37.8332 45.418 35.3892 42.293 33.9852C40.612 33.1899 38.7715 32.7891 36.912 32.8132Z" fill="#84990A"/>
<path d="M48.446 36.44C49.953 34.504 50.868 32.266 52.668 30.546C54.3937 29.1816 56.4066 28.2266 58.5549 27.753C61.5971 27.0114 64.7013 26.5524 67.828 26.382C67.748 26.32 67.664 26.262 67.586 26.194C66.6492 25.4611 65.6535 24.8068 64.609 24.238C55.676 25.746 42.676 29.242 48.446 36.44Z" fill="#84990A"/>
<path d="M19.081 54.9901C18.8821 55.596 18.904 56.2528 19.143 56.844C19.6843 57.8298 20.4953 58.6408 21.481 59.182C23.5449 57.5801 25.9254 56.4345 28.465 55.821C30.193 53.903 31.644 51.981 31.956 49.451C31.716 49.481 31.478 49.525 31.237 49.551C28.348 52.862 23.555 56.0391 19.081 54.9901Z" fill="#84990A"/>
<path d="M38.653 47.5211C38.13 47.7651 37.59 47.9811 37.053 48.1881C37.053 48.2121 37.053 48.2361 37.053 48.2621C36.9597 48.5693 36.9293 48.8922 36.9637 49.2115C36.998 49.5308 37.0964 49.8398 37.253 50.1201C37.3596 50.0585 37.4777 50.0195 37.6 50.0054C37.7223 49.9913 37.8462 50.0024 37.964 50.0381C38.741 50.2621 39.521 50.4761 40.292 50.6971C43.907 50.3551 47.883 50.8891 50.582 53.3891C50.6942 53.4071 50.802 53.4457 50.9 53.5031C51.326 53.3271 51.753 53.1711 52.187 53.0351C48.816 50.2421 44.548 49.5041 40.187 48.3471C40.1496 48.3578 40.1115 48.3658 40.073 48.3711C39.232 48.3721 38.833 48.0581 38.653 47.5211Z" fill="#84990A"/>
<path d="M91.3869 39.4321C90.2719 38.8491 89.0449 38.2231 87.6989 37.5721C84.6055 38.4094 81.3998 38.7553 78.1989 38.5971C73.056 39.3403 67.8087 38.7795 62.9389 36.9661C58.9849 36.2851 54.3389 34.8461 54.9539 31.3071C54.3872 31.6565 53.8627 32.0703 53.3909 32.5401C53.448 32.7214 53.448 32.9159 53.3909 33.0971C53.2971 33.3881 53.2472 33.6914 53.2429 33.9971C53.3085 34.1113 53.3504 34.2376 53.3662 34.3683C53.382 34.499 53.3714 34.6316 53.3349 34.7581C55.0489 41.1591 79.7819 41.8361 91.3869 39.4321Z" fill="#84990A"/>
<path d="M72.9771 51.0721C74.463 50.8282 75.9771 50.808 77.4691 51.0121C81.1401 51.4931 84.6261 52.6841 87.8511 51.3661C88.4661 50.9321 89.1001 50.5231 89.7351 50.1071C89.9168 49.1567 90.0119 48.1917 90.0191 47.2241C88.8781 48.5771 86.7801 49.0721 84.4061 48.9241C82.1061 48.7741 79.8561 48.2571 77.5661 48.0411C77.0391 47.9971 76.5251 47.9751 76.0191 47.9711C75.8351 47.9891 75.6571 48.0011 75.4761 48.0251C73.4521 48.2951 71.6381 48.4691 69.9761 47.5091C69.6148 47.3901 69.264 47.2416 68.9271 47.0651C68.8851 47.0391 68.8591 47.0171 68.8271 47.0011C68.0061 48.7831 67.0551 51.6111 69.7981 51.4711C70.867 51.4261 71.9302 51.2927 72.9771 51.0721Z" fill="#84990A"/>
<path d="M23.5209 43.8431C20.1639 43.6151 16.0939 43.4771 13.8019 40.7761C12.8019 41.4031 11.7359 42.0431 10.7019 42.6601C12.3237 43.6336 14.0369 44.4461 15.8169 45.0861C17.7589 45.5141 19.7169 45.8971 21.6259 46.4511C22.647 46.5767 23.6742 46.6461 24.7029 46.6591C30.2239 46.6931 35.8729 47.0931 40.1289 43.4481C39.8389 43.4741 39.5439 43.5041 39.2289 43.5321C34.1589 45.2881 28.8279 44.2091 23.5209 43.8431Z" fill="#84990A"/>
<path d="M30.3171 62.2421C29.3171 62.1041 28.3171 61.9421 27.3281 61.7361C27.2201 61.7361 27.1121 61.7261 27.0081 61.7261C28.2931 62.2001 29.6361 62.6671 30.9741 63.1261L30.7541 63.0021C30.6232 62.9223 30.5146 62.8109 30.4382 62.678C30.3619 62.5452 30.3202 62.3953 30.3171 62.2421Z" fill="#43D7EF"/>
<path d="M65.0481 66.4041C63.3581 68.0701 55.6481 72.4961 53.3231 72.9261C51.6031 73.2421 50.9791 71.2411 46.4351 68.9541C45.3681 68.4231 47.7161 66.2541 47.8661 65.7631C46.2305 66.019 44.6351 66.4866 43.1201 67.1541C42.695 67.3009 42.2438 67.3565 41.7958 67.3172C41.3478 67.2779 40.9131 67.1447 40.5201 66.9261C36.6521 63.1061 26.2651 60.9941 23.5101 59.8071C21.9791 59.1501 19.7361 57.7611 19.5261 56.0131C19.5644 54.9996 19.8256 54.0071 20.2911 53.1061C20.7651 51.6611 18.3311 51.9591 17.6141 51.8061C14.9531 51.2361 7.8511 48.9391 5.2141 45.8141H5.2041C10.1691 51.2141 14.4211 52.1501 19.4531 52.9011C19.8091 53.8461 18.4601 55.3011 19.1451 56.8431C21.2751 61.6151 37.0981 63.6611 40.8711 67.9731C41.7821 69.0141 46.5161 66.6301 46.5161 66.6301C46.5161 67.4851 44.5401 68.6721 44.5401 68.6721C49.1961 71.3581 51.4181 74.0721 53.4221 73.7811C55.3781 73.4951 60.7311 70.2811 62.4661 69.1991C65.8471 67.0991 66.9241 64.8891 70.5481 63.5181C74.9801 61.8461 77.3181 61.7561 80.5661 57.7891C78.7975 57.4963 77.0124 57.3133 75.2211 57.2411C79.8331 55.1111 85.2681 56.6081 89.8851 53.8481C92.8241 52.0941 95.7791 48.6671 99.0021 46.9481C96.7281 47.4661 94.6701 49.5121 92.7821 50.8481C90.0821 52.7701 87.9371 54.4481 84.5641 54.9121C82.4461 55.2021 76.6411 55.8851 75.6541 56.4871C74.7651 57.0321 73.9641 57.4871 74.9541 57.5621C76.5019 57.6904 78.0372 57.9395 79.5461 58.3071C75.0381 62.2731 70.1811 62.0601 68.8381 62.9071C67.4479 63.9272 66.1766 65.1002 65.0481 66.4041Z" fill="#BAE64A"/>
<path d="M98.1259 64.847C97.9539 65.478 98.2679 66.7471 98.0739 67.3611C98.2484 67.1872 98.4071 66.9981 98.5479 66.7961C99.5029 65.3961 99.4269 64.248 100.167 62.724C100.92 61.175 101.708 61.195 102.753 59.807C103.824 58.384 101.718 53.439 101.718 53.439C101.718 53.391 101.54 53.431 101.252 53.527C100.785 54.6843 100.076 55.7281 99.1719 56.588C99.7371 57.5882 100.13 58.6764 100.333 59.807C99.4659 62.034 98.6589 63.283 98.1259 64.847Z" fill="#592B06"/>
<path d="M94.0359 68.5771C95.6999 65.2981 97.3849 62.0531 98.1259 58.4301C96.4799 58.8301 94.0459 58.1501 92.3589 58.4301C91.7979 59.0751 95.0489 59.7051 95.2959 60.4121C95.2959 60.4121 95.1179 61.9711 95.0299 62.5041C94.6909 64.5291 94.3859 66.5591 94.0359 68.5771Z" fill="#471F04"/>
<path d="M93.476 58.8931C93.849 58.6931 97.8 58.9111 98.217 58.7191C100.955 57.4721 101.039 56.0001 101.717 54.8311C102.69 53.1451 100.588 52.4511 97.873 52.7051C94.773 56.2721 88.084 58.6451 83.187 60.1661C84.658 61.6591 87.109 60.4421 88.328 61.2891C89.4986 62.0724 90.8889 62.461 92.296 62.3981C93.3409 61.8073 94.3433 61.1443 95.296 60.4141C95.718 60.0341 92.771 59.2601 93.476 58.8931Z" fill="#A06422"/>
<path d="M92.2951 61.9421C91.4141 62.0541 89.2421 60.8771 88.3271 60.7731C87.3854 60.7773 86.4447 60.7138 85.5121 60.5831C84.9471 60.4831 84.1391 60.1011 83.5841 60.0411C83.4481 60.0831 83.3161 60.1271 83.1841 60.1651C84.6551 61.6581 87.1061 60.4411 88.3251 61.2881C89.4959 62.0729 90.887 62.4626 92.2951 62.4001C93.34 61.8093 94.3424 61.1464 95.2951 60.4161C95.7171 60.0361 92.7691 59.2631 93.4751 58.8951C93.8481 58.6951 97.7991 58.9131 98.2161 58.7211C98.9556 58.4415 99.6246 58.0029 100.176 57.4363C100.727 56.8697 101.148 56.189 101.407 55.4421C100.264 57.1981 98.9171 58.3611 94.8191 57.8421H94.7951C93.9764 57.9757 93.1727 58.1884 92.3951 58.4771C92.3571 58.4891 92.3231 58.4931 92.2871 58.5031C92.7331 58.9291 93.0801 59.5861 93.7081 59.7961C95.4521 60.3891 92.9431 61.8601 92.2951 61.9421Z" fill="#C98441"/>
<path d="M78.849 74.8161C80.118 74.3031 84.366 72.1781 84.903 70.9461C85.654 69.2161 79.716 68.4921 78.327 69.0161C78.327 69.0161 76.3889 70.0851 75.4269 70.4931C74.1776 71.1306 72.7742 71.404 71.377 71.2821C71.5193 71.7272 71.7353 72.1453 72.016 72.5191C73.438 74.1631 76.885 75.5981 78.849 74.8161Z" fill="#A06422"/>
<path d="M78.849 74.8131C80.8797 73.9778 82.7816 72.8586 84.498 71.4891C80.857 74.2611 74.767 75.1101 71.812 71.3351C71.6686 71.3275 71.5258 71.3095 71.385 71.2811C71.5274 71.7263 71.7434 72.1444 72.024 72.5181C73.438 74.1621 76.885 75.5991 78.849 74.8131Z" fill="#C98441"/>
<path d="M11.7401 66.326C13.6041 66.772 15.353 68.1521 16.895 69.2531C17.934 67.9081 19.2711 66.326 19.2711 64.326C17.8271 63.8464 16.5413 62.9821 15.552 61.826C12.641 63.089 7.57005 65.734 11.7401 66.326Z" fill="#BA8342"/>
<path d="M16.217 68.1221C14.6987 67.0464 12.972 66.3004 11.148 65.9321C10.161 65.7261 10.311 65.3491 10.235 65.1791C9.99704 65.7051 10.359 66.1321 11.745 66.3261C13.609 66.7711 15.358 68.1521 16.9 69.2531C17.913 67.9361 19.2 66.3961 19.262 64.4701C18.9287 65.4365 18.4755 66.3574 17.913 67.2111C17.617 67.7101 16.662 68.5191 16.217 68.1221Z" fill="#FCBF75"/>
<path d="M37.2801 71.9431C36.5886 72.6542 36.0364 73.4886 35.6521 74.4031C34.5611 76.8491 34.0011 78.6271 34.6151 81.4251C35.4436 84.7567 36.4595 88.039 37.6581 91.2561C38.4191 93.4881 39.5341 97.6701 41.5581 99.0991C42.4729 98.3652 43.3326 97.565 44.1301 96.7051C42.858 92.5825 42.0451 88.3321 41.7061 84.0311C41.2861 79.8431 40.5871 75.4871 40.2611 71.3531C39.7542 71.1975 39.2165 71.1699 38.6963 71.2729C38.1761 71.3758 37.6896 71.6061 37.2801 71.9431Z" fill="#6D390A"/>
<path d="M40.3151 71.8611C40.2991 71.6951 40.2751 71.5211 40.2631 71.3511C39.7558 71.1952 39.2178 71.1676 38.6972 71.2708C38.1766 71.3739 37.6897 71.6046 37.2801 71.9421C36.5886 72.6532 36.0364 73.4876 35.6521 74.4021C34.5611 76.8481 34.0011 78.6261 34.6151 81.4241C35.4436 84.7557 36.4595 88.038 37.6581 91.2551C38.4191 93.4871 39.5341 97.6691 41.5581 99.0981C42.2581 98.4611 43.1011 97.8091 43.7721 97.0981C41.1341 95.0761 40.9721 91.3571 39.7901 88.0781C38.711 85.4438 38.1291 82.6323 38.0741 79.7861C38.1181 76.9931 39.3741 74.9241 40.1361 72.2931C40.1808 72.1433 40.2408 71.9985 40.3151 71.8611Z" fill="#5B2B07"/>
<path d="M35.6141 73.4391C34.4271 72.7161 32.5831 72.3981 31.2721 71.5591C30.1271 70.8241 24.7481 68.4361 23.3721 68.5781C23.5981 72.6121 27.3721 77.5981 29.0791 81.9101C30.9131 86.5601 32.3441 89.5671 33.6271 94.3561C34.0811 96.0461 37.5991 95.7031 39.2501 98.9281L41.5641 99.0981C41.5641 99.0981 41.0721 95.9211 40.7111 94.6521C40.2551 93.0671 37.7111 83.5821 37.0541 80.4991C36.6281 78.4991 37.4281 74.5481 35.6141 73.4391Z" fill="#7F491C"/>
<path d="M36.599 74.9301C35.5949 75.1914 34.5557 75.2927 33.52 75.2301C36.685 78.1411 37.406 83.3 38.13 87.371C38.847 91.409 40.418 95.156 41.33 99.078L41.566 99.1001C41.566 99.1001 41.074 95.9231 40.713 94.6541C40.257 93.0701 37.713 83.5841 37.056 80.5011C36.745 79.0581 37.073 76.6061 36.599 74.9301Z" fill="#935527"/>
<path d="M23.6989 67.6641C22.2159 69.0111 26.0629 73.5251 28.2409 74.6291C30.7092 75.7054 33.4257 76.0829 36.0939 75.7201C38.3739 75.4681 40.3719 71.1641 40.3719 71.1641C39.0289 70.2711 36.0999 69.9131 34.0099 68.5221C31.2969 66.7221 27.9519 64.8651 27.9519 64.8651C26.4259 66.3091 25.1269 66.3661 23.6989 67.6641Z" fill="#BA8342"/>
<path d="M23.6989 67.6651C22.2159 69.0121 26.0629 73.5261 28.2409 74.6301C30.7092 75.7064 33.4257 76.0838 36.0939 75.7211C37.8999 75.5211 39.5269 72.7861 40.1259 71.6591C37.1049 75.3521 34.3609 75.8331 28.7029 73.8031C27.0079 73.1981 23.1339 70.6781 24.1089 67.3291C23.9699 67.4391 23.8339 67.5391 23.6989 67.6651Z" fill="#FCBF75"/>
<path opacity="0.46" d="M32.2881 69.437C30.6311 69.337 28.9671 69.429 27.3241 69.193C27.1688 69.1583 27.0115 69.1336 26.8531 69.119L26.4311 69.087C26.1571 69.119 25.1001 69.309 25.0901 69.718C25.0901 69.95 26.5231 70.318 26.8201 70.383C27.1441 70.4231 27.4549 70.5359 27.7291 70.713C27.9719 70.8724 28.2557 70.9578 28.5461 70.959C29.2039 71.0049 29.8642 71.0049 30.5221 70.959C30.8281 70.941 31.1131 70.959 31.4051 70.959C31.7358 70.9253 32.0585 70.8368 32.3601 70.697C32.8991 70.523 33.5871 70.697 34.0601 70.397C34.3041 70.239 34.4341 70.015 34.2021 69.75C33.8171 69.323 32.7961 69.475 32.2881 69.437Z" fill="#662F0A"/>
<path d="M28.392 70.4261C29.4174 70.5818 30.4628 70.3247 31.299 69.7111C32.352 70.7681 34.382 69.6111 34.808 68.5201C35.166 67.5991 35.274 65.3611 33.747 65.4691C34.075 64.3621 33.515 63.5571 32.372 63.0511C31.229 62.5451 30.558 63.1791 29.572 63.5211C28.757 63.7991 27.748 63.3471 26.846 63.9371C26.123 64.4131 25.399 65.8851 25.775 66.6371L25.675 66.9511C24.696 67.0951 24.636 68.8731 25.763 68.7451C25.463 70.0741 27.455 70.2921 28.392 70.4261Z" fill="#9BC90E"/>
<path d="M28.3921 70.4261C29.4175 70.5818 30.4629 70.3247 31.2991 69.7111C32.3521 70.7681 34.3821 69.6111 34.8081 68.5201C35.1661 67.5991 35.2741 65.3611 33.7471 65.4691C34.0751 64.3621 33.5151 63.5571 32.3721 63.0511C32.3621 63.0511 32.3541 63.0511 32.3481 63.0371C32.4672 63.3638 32.5301 63.7084 32.5341 64.0561V64.1641C32.5249 64.9085 32.2539 65.6258 31.7686 66.1903C31.2833 66.7548 30.6147 67.1304 29.8801 67.2511L29.8661 67.2571C29.3344 67.6412 28.6919 67.8414 28.0361 67.8271C27.5972 67.8426 27.1605 67.7582 26.7589 67.5803C26.3574 67.4024 26.0015 67.1356 25.7181 66.8001L25.6701 66.9501C24.6911 67.0941 24.6311 68.8721 25.7581 68.7441C25.4631 70.0741 27.4551 70.2951 28.3921 70.4261Z" fill="#80B708"/>
<path d="M28.397 70.426C29.4225 70.5817 30.4678 70.3246 31.304 69.711C32.357 70.768 34.387 69.611 34.813 68.52C35.171 67.599 35.279 65.361 33.752 65.469C33.8961 65.0201 33.8623 64.5331 33.6576 64.1084C33.4529 63.6837 33.0929 63.3539 32.652 63.187C32.688 63.247 32.72 63.313 32.758 63.377C33.939 65.217 33.104 68.35 30.238 68.35C30.194 68.35 30.15 68.34 30.102 68.34C30.044 68.38 29.996 68.424 29.942 68.458C29.4008 68.8805 28.7283 69.0996 28.042 69.077C27.434 69.1031 26.8334 68.9344 26.3279 68.5956C25.8223 68.2567 25.438 67.7654 25.231 67.193C24.731 67.711 24.853 68.848 25.765 68.744C25.463 70.07 27.455 70.292 28.397 70.426Z" fill="#528402"/>
<g opacity="0.41">
<path d="M62.795 33.2691C63.5757 33.9695 64.403 34.6163 65.271 35.2051C67.4546 35.0242 69.6485 35.0041 71.835 35.1451C73.815 35.2831 77.935 35.6571 78.773 33.5451C78.0872 32.7522 77.2766 32.0767 76.373 31.5451C73.292 29.9451 69.073 30.8401 65.725 30.7451C65.151 30.7506 64.5898 30.5755 64.1207 30.2446C63.6516 29.9137 63.2984 29.4437 63.111 28.9011C62.8655 29.4573 62.4462 29.9187 61.916 30.2161C60.925 30.8071 60.553 30.7381 61.265 31.6851C61.7184 32.265 62.2311 32.7959 62.795 33.2691Z" fill="#728407"/>
</g>
<path d="M44.279 29.928C41.45 29.752 38.598 29.912 35.797 29.512C35.5352 29.444 35.2672 29.4024 34.997 29.388L34.274 29.326C33.802 29.388 31.992 29.702 31.98 30.411C31.972 30.799 34.434 31.438 34.937 31.544C35.4919 31.6077 36.0234 31.8035 36.487 32.115C36.9046 32.3829 37.3909 32.5239 37.887 32.521C39.0098 32.605 40.1372 32.605 41.26 32.521C41.779 32.491 42.271 32.521 42.771 32.521C43.3346 32.4636 43.8851 32.315 44.401 32.081C45.318 31.791 46.501 32.081 47.301 31.567C47.717 31.303 47.945 30.924 47.541 30.467C46.894 29.731 45.146 29.986 44.279 29.928Z" fill="#748E09"/>
<path d="M37.624 31.6161C39.3771 31.879 41.163 31.4387 42.593 30.3911C44.393 32.1991 47.852 30.2171 48.583 28.3531C49.2 26.7841 49.383 22.9641 46.773 23.1401C47.333 21.2481 46.373 19.8731 44.421 19.0161C42.469 18.1591 41.321 19.2341 39.633 19.8161C38.242 20.2931 36.52 19.5281 34.977 20.5311C33.744 21.3421 32.509 23.8601 33.151 25.1311L32.971 25.6701C31.305 25.9221 31.197 28.9531 33.121 28.7391C32.617 31.0211 36.015 31.3921 37.624 31.6161Z" fill="#9BC90E"/>
<path d="M37.624 31.6161C39.377 31.8792 41.163 31.4389 42.593 30.3911C44.393 32.1991 47.852 30.2171 48.583 28.3531C49.2 26.7851 49.383 22.9641 46.773 23.1401C47.333 21.2481 46.373 19.8731 44.421 19.0161C44.407 19.0081 44.397 19.0081 44.381 19.0001C44.5851 19.5544 44.6933 20.1395 44.701 20.7301V20.9141C44.6862 22.1863 44.2239 23.4126 43.3952 24.378C42.5665 25.3433 41.4243 25.9859 40.169 26.1931L40.139 26.2011C39.2293 26.8578 38.1296 27.1989 37.008 27.1721C36.2597 27.1985 35.5152 27.0543 34.8308 26.7504C34.1465 26.4465 33.5402 25.9909 33.058 25.4181L32.972 25.6721C31.306 25.9241 31.198 28.9551 33.122 28.7411C32.617 31.0211 36.015 31.3971 37.624 31.6161Z" fill="#80B708"/>
<path d="M37.624 31.621C39.3771 31.884 41.163 31.4437 42.593 30.3961C44.393 32.2041 47.852 30.222 48.583 28.358C49.2 26.79 49.383 22.9691 46.773 23.1451C47.285 21.4131 46.515 20.1161 44.887 19.2531C44.953 19.3531 45.003 19.4651 45.067 19.5711C47.085 22.7181 45.656 28.0711 40.767 28.0711C40.687 28.0711 40.613 28.0631 40.537 28.0591C40.437 28.1271 40.359 28.205 40.259 28.259C39.3308 28.9773 38.1833 29.3535 37.01 29.3241C35.9698 29.3674 34.9429 29.0771 34.0793 28.4955C33.2158 27.9138 32.5608 27.0713 32.21 26.091C31.355 26.976 31.563 28.9141 33.123 28.7451C32.617 31.0211 36.016 31.393 37.624 31.621Z" fill="#528402"/>
<path d="M69.5379 27.5821C68.8457 27.1805 68.1922 26.7155 67.586 26.1931C67.2757 25.9314 66.9494 25.6892 66.609 25.4681C61.9431 25.6579 57.3551 26.727 53.086 28.6191C51.148 29.5401 48.262 30.9611 47.923 33.3751C47.362 37.3671 52.281 40.7751 55.518 41.7591C56.443 42.0391 57.318 42.2591 58.166 42.4641C61.691 43.3951 63.9489 44.0921 65.6489 45.5641C67.3329 47.0231 64.8159 48.6111 62.6799 49.9041C59.2969 51.2351 56.092 53.1831 52.316 52.6431C47.616 51.9781 43.306 49.8541 38.557 49.4241C38.3905 49.4207 38.2277 49.3743 38.0845 49.2894C37.9412 49.2044 37.8224 49.0839 37.7395 48.9394C37.6567 48.795 37.6127 48.6315 37.6117 48.465C37.6107 48.2985 37.6528 48.1346 37.734 47.9891C39.311 44.8281 43.2769 43.9951 44.3519 40.3501C46.1599 34.2121 40.2519 33.7621 35.9299 33.9961C32.3769 34.1881 28.289 34.7491 24.754 33.7961C23.8965 34.193 23.0619 34.6373 22.254 35.1271C26.466 37.3371 31.871 34.8271 36.247 36.6271C38.613 37.6001 40.683 38.9971 40.247 41.7981C39.823 44.5071 35.989 45.3551 33.571 46.0161C30.9663 46.0591 28.3614 45.9428 25.771 45.6681C22.471 45.3961 14.232 45.3241 12.371 41.6681C10.902 42.5551 9.38795 43.4461 8.12695 44.1681C14.375 49.5511 26.464 45.3251 30.384 49.6531C30.4332 49.9085 30.5173 50.1558 30.634 50.3881C30.434 51.0251 30.228 51.6881 30.142 51.8631C28.272 54.7721 22.779 57.5321 19 56.4211C19.0329 56.5705 19.0798 56.7165 19.14 56.8571C19.8374 58.0603 20.8898 59.0183 22.153 59.6001C24.289 57.1801 28.1609 57.3921 31.1149 58.2511C33.6086 58.857 35.8417 60.248 37.485 62.2191C37.5529 62.269 37.6141 62.3275 37.6669 62.3931C38.7179 63.6641 37.959 64.3531 37.967 65.9321C38.9713 66.4651 39.9077 67.1171 40.756 67.8741C40.626 66.8531 40.0149 65.9561 39.8689 64.7191C39.6429 62.8111 40.187 61.0321 38.129 60.0091C37.298 59.5951 36.429 59.2321 35.655 58.7641C35.369 58.7081 35.082 58.6521 34.816 58.5781C33.963 58.3501 31.4449 57.2332 32.0069 55.8172C32.3269 54.9942 33.214 53.9291 39.058 52.5341C40.4629 52.3284 41.8906 52.3338 43.294 52.5501C46.341 53.1791 48.8409 55.3631 52.1199 55.0201C55.2949 54.6861 58.21 53.4591 61.32 52.8201C63.878 52.2871 67.8579 51.6931 69.8859 53.9051C73.2209 57.5621 71.4769 61.0281 68.8949 64.3051C69.4226 64.0098 69.9714 63.7541 70.5369 63.5401C71.7919 63.0701 72.8669 62.7231 73.8519 62.3791C74.2179 59.5961 74.469 56.5521 73.616 53.9191C73.616 53.9191 74.1259 52.0391 76.9389 52.0391C79.5299 52.0391 83.1769 54.8281 87.4469 53.4391C88.5999 53.0631 92.5679 51.9011 93.4949 47.7391C94.2199 44.4621 91.123 43.6391 94.328 41.9881C93.9144 42.1074 93.4921 42.1937 93.065 42.2461C93.765 42.0921 94.54 41.9321 95.501 41.7531C93.828 40.7531 91.7639 39.6311 89.1929 38.3401C89.0469 38.3641 88.9049 38.3901 88.7569 38.4141C87.3761 38.7048 85.9808 38.9221 84.577 39.0651C81.5457 39.4916 78.4942 39.7586 75.435 39.8651C70.929 40.0051 65.6659 40.0531 61.3739 38.1531C58.1129 37.5481 54.1009 36.3051 54.1069 32.7321C54.1299 27.4541 62.9259 27.4281 69.5379 27.5821ZM72.1059 42.8701C76.0803 42.6061 80.0695 42.6616 84.035 43.0361C83.991 43.0561 83.935 43.0701 83.897 43.0861C83.977 43.0701 84.063 43.0621 84.147 43.0501C86.441 43.2501 87.9469 43.4741 88.0069 43.4771C88.6234 43.7126 89.1588 44.1209 89.549 44.653C89.9392 45.1851 90.1677 45.8185 90.207 46.4771C90.415 49.6381 87.9829 50.6351 85.4949 51.0091C82.4879 51.4591 80.1819 49.5021 76.6889 49.5021C72.3389 49.5021 68.517 50.7171 69.36 48.0931C69.5831 47.7665 69.7457 47.4024 69.84 47.0181C69.6748 46.3768 69.3679 45.7808 68.9418 45.2738C68.5157 44.7669 67.9813 44.3621 67.3779 44.0891C67.3779 44.0891 68.149 43.1931 72.101 42.8701H72.1059Z" fill="#43D7EF"/>
<path d="M70.545 63.5201C70.725 63.4521 70.893 63.3942 71.063 63.3322C72.4672 60.9633 73.1362 58.2308 72.985 55.4812C71.84 46.4062 57.274 54.7742 51.978 53.7472C48.417 53.0602 44.967 50.9982 41.262 51.2352C38.5278 51.3057 35.8399 51.9575 33.377 53.1472C30.677 54.6472 29.954 57.2131 33.893 58.7141C34.5657 58.9392 35.1968 59.2733 35.761 59.7032C36.0444 59.9408 36.3116 60.197 36.561 60.4702C38.391 61.6452 38.479 63.8412 38.849 66.1932C38.8551 66.2753 38.8511 66.358 38.837 66.4392C39.5432 66.8207 40.1923 67.2997 40.765 67.8621C40.635 66.8411 40.024 65.9441 39.878 64.7071C39.652 62.7991 40.196 61.0212 38.138 59.9972C37.307 59.5842 36.438 59.2202 35.664 58.7522C35.378 58.6962 35.091 58.6402 34.825 58.5662C33.972 58.3382 31.454 57.2211 32.016 55.8051C32.336 54.9821 33.223 53.9172 39.068 52.5222C40.4729 52.3164 41.9007 52.3218 43.304 52.5382C46.351 53.1672 48.851 55.3512 52.13 55.0082C55.305 54.6742 58.22 53.4472 61.33 52.8082C63.888 52.2742 67.868 51.6811 69.896 53.8931C73.231 57.5491 71.487 61.0162 68.905 64.2932C69.4318 63.9953 69.98 63.7369 70.545 63.5201Z" fill="#6BEEFC"/>
<path d="M37.1421 35.0401C35.6374 34.809 34.1163 34.7013 32.5941 34.7181C29.3791 35.2281 25.9741 36.0611 23.4011 34.4741C23.0211 34.6741 22.6361 34.8961 22.2561 35.1211C26.4681 37.3311 31.8731 34.8211 36.2491 36.6211C38.5371 37.5601 40.5491 38.9031 40.2731 41.5321C41.8761 39.0711 41.3961 35.7961 37.1421 35.0401Z" fill="#6BEEFC"/>
<path d="M28.1879 46.9431C26.9393 46.5341 25.6454 46.2792 24.3349 46.1841C22.2469 46.0521 20.1249 46.1481 18.0489 45.9181C16.0062 45.7516 14.0238 45.1447 12.2379 44.1391C11.4376 43.9454 10.6946 43.5646 10.0699 43.0281C9.38493 43.4281 8.72693 43.8111 8.12793 44.1551C14.3759 49.5381 26.4649 45.3121 30.3849 49.6401C30.4341 49.8954 30.5182 50.1427 30.6349 50.3751C30.6149 50.4451 30.5929 50.5051 30.5749 50.5751C31.1459 49.1671 31.1639 47.8561 28.1879 46.9431Z" fill="#6BEEFC"/>
<path d="M52.142 30.3282C56.128 27.5672 61.975 26.4282 67.456 26.0862C67.226 25.9002 66.946 25.6942 66.609 25.4672C61.9428 25.6568 57.3545 26.7259 53.085 28.6181C51.147 29.5391 48.262 30.9602 47.922 33.3742C47.361 37.3662 52.28 40.7741 55.517 41.7581C56.442 42.0381 57.317 42.2582 58.165 42.4632C60.2654 42.9186 62.3025 43.6285 64.231 44.5771C62.84 39.9311 54.082 40.7912 51.253 36.9382C49.57 34.6392 49.698 32.0282 52.142 30.3282Z" fill="#6BEEFC"/>
<path d="M84.1471 43.0491C86.4411 43.2491 87.9471 43.4731 88.0071 43.4771C88.2023 43.5695 88.3914 43.6744 88.5731 43.7911C86.1351 40.3681 79.7571 41.3791 76.0381 41.2691C73.2691 41.1851 68.6611 41.3512 66.2771 43.0292C63.1771 45.2192 68.9021 46.0001 69.3341 48.1921C69.3385 48.1582 69.3459 48.1248 69.3561 48.0921C69.5789 47.7654 69.7411 47.4013 69.8351 47.0171C69.67 46.3758 69.3632 45.7797 68.937 45.2728C68.5109 44.7658 67.9765 44.361 67.3731 44.0881C67.3731 44.0881 68.1481 43.1882 72.1051 42.8652C76.0794 42.601 80.0686 42.6565 84.0341 43.0312C83.9901 43.0512 83.9341 43.0652 83.8961 43.0812C83.9771 43.0692 84.0631 43.0611 84.1471 43.0491Z" fill="#6BEEFC"/>
<path d="M93.999 40.8531C90.736 41.9941 91.827 46.3342 90.75 49.2612C88.24 56.0492 78.404 49.4312 74.042 52.5762C74.112 52.7002 74.182 52.8201 74.242 52.9521C74.6081 52.6245 75.036 52.3732 75.5005 52.213C75.9649 52.0528 76.4567 51.9869 76.947 52.0191C79.539 52.0191 83.185 54.8082 87.455 53.4192C88.608 53.0432 92.576 51.8801 93.503 47.7191C94.228 44.4421 91.131 43.6192 94.336 41.9682C93.9225 42.0874 93.5002 42.1737 93.073 42.2262C93.773 42.0722 94.548 41.9121 95.509 41.7321C95.04 41.4481 94.535 41.1571 93.999 40.8531Z" fill="#6BEEFC"/>
<path d="M74.0001 61.2111C72.8723 61.8188 71.625 62.1721 70.3461 62.2461C69.9042 62.9529 69.4224 63.634 68.9031 64.2861C69.4307 63.9908 69.9796 63.7351 70.5451 63.5211C71.8001 63.0511 72.8751 62.7041 73.8601 62.3601C73.9101 61.9831 73.9601 61.5991 74.0001 61.2111Z" fill="#6DEEFC"/>
<path d="M19.0029 56.4091C19.0359 56.5584 19.0828 56.7044 19.1429 56.8451C19.8404 58.0482 20.8928 59.0063 22.1559 59.5881C22.2679 59.4621 22.3879 59.3481 22.5119 59.2321C21.3965 58.6045 20.4684 57.6912 19.8229 56.5861C19.5458 56.5461 19.2718 56.487 19.0029 56.4091Z" fill="#6DEEFC"/>
<path d="M37.971 65.9201C38.9753 66.453 39.9117 67.1051 40.76 67.8621C40.6815 67.3857 40.5472 66.9202 40.36 66.4751C39.6221 65.9344 38.8475 65.4456 38.042 65.0121C37.9938 65.3123 37.97 65.616 37.971 65.9201Z" fill="#6DEEFC"/>
<path opacity="0.64" d="M78.5219 71.021C78.7005 71.1369 78.909 71.198 79.1219 71.197C79.6055 71.234 80.0913 71.234 80.5749 71.197C80.7989 71.185 81.0109 71.197 81.2269 71.197C81.4685 71.1693 81.7045 71.1052 81.9269 71.007C82.3269 70.881 82.8319 71.007 83.1759 70.785C83.3599 70.673 83.4559 70.507 83.2819 70.316C82.9999 69.996 82.2469 70.106 81.8729 70.084C80.6539 70.006 79.4349 70.074 78.2249 69.9C78.1135 69.8715 77.9997 69.8534 77.8849 69.846L77.5709 69.822C77.3709 69.846 76.5919 69.982 76.5859 70.288C76.5859 70.458 77.6389 70.732 77.8569 70.772C78.0942 70.8053 78.3212 70.8903 78.5219 71.021Z" fill="#773910"/>
<path d="M77.0748 69.571C76.8548 70.554 78.3178 70.7121 79.0108 70.8061C79.7642 70.9194 80.5318 70.7308 81.1468 70.2811C81.9218 71.0581 83.4108 70.2071 83.7228 69.4121C83.9908 68.7331 84.0688 67.0881 82.9478 67.1661C83.1858 66.3511 82.7758 65.7551 81.9328 65.3881C81.0898 65.0211 80.6018 65.4881 79.8768 65.7321C79.2768 65.9381 78.5358 65.6061 77.8708 66.0421C77.3428 66.3901 76.8118 67.4711 77.0838 68.0221L77.0078 68.254C76.2918 68.354 76.2458 69.666 77.0748 69.571Z" fill="#9BC90E"/>
<path d="M80.1059 68.4751H80.0959C79.704 68.758 79.2302 68.9049 78.7469 68.8931C78.4247 68.9046 78.104 68.8423 77.8094 68.7112C77.5148 68.58 77.254 68.3833 77.0469 68.136L77.0069 68.248C76.2919 68.348 76.2459 69.663 77.0749 69.567C76.8549 70.55 78.3179 70.708 79.0109 70.802C79.7644 70.9151 80.5321 70.7261 81.1469 70.276C81.9219 71.053 83.411 70.2021 83.723 69.4071C83.991 68.7281 84.0689 67.0831 82.9479 67.1611C83.1859 66.3461 82.7759 65.7501 81.9329 65.3831H81.9189C82.0068 65.621 82.0528 65.8724 82.055 66.1261V66.2001C82.0494 66.7479 81.8509 67.2762 81.4945 67.6923C81.1381 68.1083 80.6464 68.3855 80.1059 68.4751Z" fill="#80B708"/>
<path d="M80.362 69.2841C80.326 69.2841 80.298 69.2741 80.262 69.2741C80.224 69.3001 80.186 69.3381 80.144 69.3621C79.7454 69.6702 79.2527 69.8312 78.749 69.8181C78.3018 69.8373 77.8601 69.7131 77.4885 69.4635C77.1168 69.214 76.8346 68.8523 76.683 68.4311C76.313 68.8091 76.403 69.6441 77.077 69.5701C76.857 70.5531 78.32 70.7111 79.013 70.8051C79.7664 70.9187 80.5341 70.73 81.149 70.2801C81.924 71.0571 83.413 70.2061 83.725 69.4111C83.993 68.7321 84.071 67.0871 82.95 67.1651C83.0556 66.835 83.0301 66.477 82.8788 66.1653C82.7274 65.8536 82.4617 65.6121 82.137 65.4911C82.167 65.5311 82.187 65.5771 82.217 65.6271C82.4562 65.9725 82.5975 66.3762 82.6261 66.7954C82.6547 67.2146 82.5694 67.6337 82.3793 68.0084C82.1893 68.3831 81.9015 68.6995 81.5464 68.924C81.1912 69.1486 80.782 69.273 80.362 69.2841Z" fill="#528402"/>
<path opacity="0.46" d="M11.2881 66.2441C11.6401 66.3501 12.0881 66.4081 12.4511 66.5441C12.7171 65.2891 14.4511 64.9692 15.0011 63.8642C14.4893 63.8551 13.9788 63.917 13.4841 64.0481L13.3421 64.0602C12.446 64.5557 11.7277 65.3194 11.2881 66.2441Z" fill="#662F0A"/>
<path d="M4.89507 58.9141L4.91505 58.9341C4.89791 58.8543 4.88589 58.7735 4.87906 58.6921L4.73706 59.0361C4.84106 58.9681 4.77907 58.9301 4.89507 58.9141Z" fill="#703F1E"/>
<path d="M4.91504 58.9341C5.30504 61.6231 9.62504 61.1941 11.615 61.8011C12.09 61.9707 12.5057 62.2741 12.812 62.6748C13.1183 63.0755 13.302 63.5563 13.341 64.0591C13.6149 64.1523 13.9061 64.1827 14.1933 64.148C14.4805 64.1134 14.7562 64.0147 15 63.8591C14.658 63.206 14.1832 62.6317 13.6061 62.1729C13.029 61.7141 12.3624 61.3811 11.649 61.1951C10.4698 61.0305 9.30807 60.759 8.17804 60.3841C7.03104 59.8271 7.25303 58.7351 6.55403 57.9181C6.31403 58.7631 7.20304 59.5901 7.33304 60.3841C6.18404 60.4231 5.65204 59.6471 4.91504 58.9341Z" fill="#703F1E"/>
<path d="M5.43593 54.9601L5.35392 54.9701C4.93592 54.4571 3.28393 54.7221 2.64293 55.0521C2.16217 55.2899 1.75113 55.6481 1.44973 56.0917C1.14834 56.5354 0.966859 57.0495 0.922925 57.5841C0.910925 59.5541 2.37194 59.8841 4.12294 59.9761C5.62294 60.0601 6.82793 59.8761 6.72293 58.1941C9.61193 58.0691 8.00893 54.0931 5.43593 54.9601Z" fill="#9BC90E"/>
<path d="M4.75198 57.4461C4.34809 57.5839 3.93181 57.6824 3.50897 57.7401C3.10306 57.7824 2.6928 57.7403 2.30391 57.6166C1.91501 57.4929 1.55586 57.2901 1.24897 57.0211C1.18097 56.9591 1.12297 56.8871 1.06097 56.8211C0.971978 57.0644 0.924649 57.321 0.920972 57.5801C0.908972 59.5501 2.36998 59.8801 4.12098 59.9721C5.62098 60.0561 6.82597 59.8721 6.72097 58.1901C8.66097 58.1081 8.57697 56.3061 7.54397 55.3811C7.12604 55.841 6.62403 56.2168 6.06498 56.4881C5.70702 56.9044 5.25765 57.2323 4.75198 57.4461Z" fill="#80B708"/>
<path d="M6.601 57.284C6.483 57.292 6.36499 57.292 6.24699 57.292C5.96225 57.7439 5.56303 58.1125 5.08984 58.3603C4.61665 58.6081 4.08633 58.7263 3.5527 58.703C3.01907 58.6796 2.50112 58.5155 2.05139 58.2273C1.60166 57.9391 1.23616 57.5371 0.991986 57.062C0.947422 57.2326 0.923262 57.4078 0.919995 57.584C0.907995 59.554 2.36899 59.884 4.11999 59.976C5.61999 60.06 6.825 59.876 6.72 58.194C7.937 58.142 8.351 57.415 8.239 56.645C8.206 56.6783 8.17056 56.709 8.13299 56.737C7.68055 57.0533 7.15144 57.2422 6.601 57.284Z" fill="#528402"/>
<path d="M42.0911 61.5641C45.9211 62.3641 47.586 66.5641 51.111 66.6351C54.636 66.7061 55.7551 65.4521 58.7241 65.0461C61.6611 64.6461 66.4131 64.6461 67.6821 62.8801C68.9511 61.1141 56.856 61.0461 54.045 61.1801C51.7897 61.4259 49.5144 61.4259 47.2591 61.1801C45.2591 60.8581 45.577 59.6971 43.495 59.7031L43.749 59.4271C42.527 59.9761 40.1931 61.1681 42.0911 61.5641Z" fill="#748E09"/>
<path d="M59.2111 51.7951C58.6541 50.6681 57.0851 50.6081 55.8841 50.8901C55.203 51.047 54.5923 51.4233 54.1461 51.9611V52.1211C53.0548 51.6337 51.8622 51.4159 50.6691 51.4861C49.2281 51.7301 48.8611 53.1641 47.5081 53.5441C46.1311 53.9261 44.9081 53.4201 43.5901 54.1441C43.0246 54.4527 42.5333 54.881 42.1506 55.3992C41.7678 55.9174 41.5028 56.5129 41.3741 57.1441C41.0621 58.3441 41.0221 59.8441 42.1271 60.6551C43.1321 61.3901 44.5731 60.8631 45.5721 61.4841C46.8151 62.2571 46.8511 63.8641 47.9821 64.7691C49.2974 65.6035 50.8469 65.991 52.4001 65.8741C54.4242 65.8623 56.4023 65.2702 58.1001 64.1681C59.6661 63.2411 60.4261 63.4071 62.2181 63.5031C65.3181 63.6591 68.7561 62.6301 67.3181 58.8811C66.8722 57.6471 66.0221 56.6001 64.9061 55.9101C64.4701 55.6101 64.0851 55.4301 63.6811 55.1231C63.0978 54.5285 62.3354 54.1421 61.5111 54.0231C61.0311 53.9291 59.8311 53.9691 59.4851 53.5891C58.9561 53.0141 59.5111 52.3941 59.2111 51.7951Z" fill="#9BC90E"/>
<path d="M55.0901 61.6821C54.5075 61.6945 53.9352 61.5261 53.4521 61.2001C53.2928 61.3515 53.1178 61.4856 52.9301 61.6001C52.6668 61.7526 52.3819 61.8646 52.0851 61.9321C51.7377 62.0821 51.3636 62.1603 50.9851 62.1621C50.2601 62.1534 49.5636 61.8781 49.0287 61.3885C48.4937 60.899 48.1578 60.2296 48.0851 59.5081C47.9419 59.194 47.821 58.8702 47.7231 58.5391H47.7151C47.2434 58.8089 46.7096 58.9515 46.1662 58.9529C45.6227 58.9543 45.0883 58.8145 44.6151 58.5471C44.3571 58.5771 44.1001 58.6131 43.8421 58.6471C43.0678 58.6458 42.3256 58.3376 41.7781 57.7901C41.6114 57.6209 41.4675 57.4306 41.3501 57.2241C41.0561 58.4111 41.0422 59.8661 42.1212 60.6531C43.1262 61.3881 44.5671 60.8611 45.5661 61.4821C46.8091 62.2551 46.8451 63.8621 47.9761 64.7671C49.2921 65.5996 50.8415 65.9854 52.3941 65.8671C54.4182 65.8554 56.3965 65.2633 58.0941 64.1611C59.6611 63.2341 60.4201 63.4001 62.2121 63.4961C65.3121 63.6521 68.7501 62.6231 67.3121 58.8741C66.8662 57.6401 66.0162 56.593 64.9001 55.9031C64.6241 55.7111 64.3691 55.5671 64.1151 55.4131V55.4191C63.896 56.2231 63.4132 56.9303 62.7441 57.4271C62.7552 57.82 62.6865 58.2112 62.5423 58.5769C62.3981 58.9426 62.1814 59.2754 61.9051 59.5551C61.3603 60.089 60.6298 60.3908 59.867 60.3971C59.1042 60.4035 58.3688 60.1138 57.8152 59.5891C57.6785 60.2021 57.3307 60.7476 56.8325 61.1302C56.3344 61.5128 55.7177 61.7082 55.0901 61.6821Z" fill="#80B708"/>
<path d="M56.2131 63.201C56.1631 63.251 56.1071 63.3011 56.0531 63.3571C55.5277 63.87 54.8295 64.1679 54.0957 64.1924C53.3619 64.2168 52.6454 63.9659 52.0871 63.4891C51.5881 63.8669 50.9758 64.0646 50.3501 64.05H50.1741C49.7788 64.0582 49.3864 63.982 49.0229 63.8264C48.6594 63.6709 48.3333 63.4396 48.0663 63.148C47.7993 62.8564 47.5976 62.5112 47.4746 62.1355C47.3516 61.7597 47.3102 61.3621 47.3531 60.9691C47.1453 61.0207 46.9322 61.0482 46.7181 61.0511H46.5601C44.7565 59.9231 43.0044 58.7149 41.3091 57.4301C41.1166 57.9888 41.0914 58.5916 41.2365 59.1644C41.3817 59.7373 41.6908 60.2553 42.1261 60.655C43.1261 61.39 44.5721 60.8631 45.5711 61.4841C46.8141 62.2571 46.8501 63.8641 47.9811 64.7691C49.297 65.6017 50.8464 65.9874 52.3991 65.869C54.4232 65.8573 56.4014 65.2653 58.0991 64.1631C59.6661 63.2361 60.4251 63.402 62.2171 63.498C65.0171 63.638 68.0831 62.798 67.5841 59.869C67.3404 60.3229 66.976 60.7005 66.5311 60.9601C65.937 61.2953 65.2452 61.4148 64.5731 61.298C64.0303 61.8416 63.2953 62.1495 62.5271 62.155H62.2111C61.4837 62.1469 60.7855 61.8677 60.2531 61.3721C59.997 61.8015 59.6347 62.1579 59.2011 62.407C58.7675 62.656 58.2771 62.7893 57.7771 62.7941C57.3967 62.7919 57.0204 62.7145 56.6701 62.5661C56.5473 62.7975 56.3935 63.0111 56.2131 63.201Z" fill="#528402"/>
<path d="M59.208 51.7951C59.2 51.7711 59.176 51.7551 59.164 51.7291C58.8144 52.6118 58.1759 53.3499 57.3529 53.8232C56.5299 54.2965 55.5708 54.4769 54.632 54.3351C53.2862 55.6387 51.4867 56.3687 49.613 56.3711C50.1675 56.9063 50.8103 57.3417 51.513 57.6581C52.1758 57.9442 52.8912 58.088 53.613 58.0801C54.65 58.0581 54.244 58.2621 54.326 57.8281C54.656 56.1221 56.448 55.5661 57.926 55.7801C59.237 55.9721 59.926 55.1571 59.547 54.0041C59.4947 53.8446 59.454 53.6815 59.425 53.5161C59.012 52.9641 59.494 52.3681 59.208 51.7951Z" fill="#80B708"/>
<path d="M83.1661 50.5691C83.3448 50.685 83.5531 50.7468 83.7661 50.7471C84.2498 50.7811 84.7354 50.7811 85.2191 50.7471C85.4431 50.7291 85.6551 50.7471 85.8661 50.7471C86.1083 50.7212 86.3447 50.6564 86.5661 50.5551C86.9661 50.4331 87.4711 50.5551 87.8151 50.3371C87.9991 50.2211 88.0951 50.0551 87.9231 49.8551C87.6391 49.5411 86.8861 49.6551 86.5121 49.6291C85.2951 49.5511 84.0741 49.6231 82.8631 49.4471C82.7517 49.4191 82.6378 49.4017 82.5231 49.3951L82.2111 49.3671C82.0111 49.3951 81.2301 49.5291 81.2241 49.8331C81.2241 50.0071 82.2771 50.2771 82.4931 50.3201C82.7334 50.351 82.9635 50.4362 83.1661 50.5691Z" fill="#748E09"/>
<path d="M81.7211 49.1201C81.5011 50.1031 82.9621 50.2631 83.6531 50.3571C84.4072 50.4703 85.1756 50.2813 85.7911 49.8311C86.5661 50.6121 88.0551 49.7531 88.3691 48.9541C88.6351 48.2771 88.7151 46.6321 87.5921 46.7101C87.8301 45.8971 87.4201 45.3101 86.5791 44.9401C85.7381 44.5701 85.2461 45.0321 84.5211 45.2801C83.9211 45.4801 83.1801 45.1581 82.5151 45.5921C81.9871 45.9361 81.4561 47.0231 81.7281 47.5721L81.6521 47.8021C80.9361 47.9091 80.8921 49.2121 81.7211 49.1201Z" fill="#9BC90E"/>
<path d="M84.7561 48.021L84.7441 48.029C84.3526 48.3128 83.8785 48.4597 83.3951 48.447C83.073 48.4589 82.7524 48.3971 82.4577 48.2663C82.1631 48.1354 81.9023 47.939 81.6951 47.692L81.6551 47.802C80.9401 47.91 80.8961 49.213 81.7251 49.121C81.5051 50.104 82.9661 50.264 83.6571 50.358C84.4113 50.4712 85.1796 50.2822 85.7951 49.832C86.5701 50.613 88.0591 49.754 88.3731 48.955C88.6391 48.278 88.7191 46.633 87.5961 46.711C87.8341 45.898 87.4241 45.311 86.5831 44.941H86.5651C86.6538 45.1775 86.7005 45.4275 86.7031 45.68V45.758C86.6968 46.3041 86.4981 46.8304 86.142 47.2443C85.7858 47.6582 85.2951 47.9333 84.7561 48.021Z" fill="#80B708"/>
<path d="M85.0061 48.8321C84.9726 48.8315 84.9392 48.8288 84.9061 48.8241C84.8693 48.8562 84.8298 48.885 84.7881 48.9101C84.3903 49.2202 83.8973 49.3828 83.3931 49.3701C82.9456 49.3892 82.5038 49.2647 82.1321 49.0148C81.7604 48.7649 81.4783 48.4027 81.3271 47.9811C80.9591 48.3591 81.0471 49.1961 81.7271 49.1201C81.5071 50.1031 82.9681 50.2631 83.6591 50.3571C84.4132 50.4697 85.1813 50.2807 85.7971 49.8311C86.5721 50.6121 88.0611 49.7531 88.3751 48.9541C88.6411 48.2771 88.7211 46.6321 87.5981 46.7101C87.7024 46.3801 87.6763 46.0226 87.5251 45.7112C87.3738 45.3998 87.109 45.1582 86.7851 45.0361C86.8151 45.0841 86.8351 45.1281 86.8631 45.1741C87.1033 45.5196 87.2454 45.9236 87.2744 46.3434C87.3034 46.7631 87.2181 47.1829 87.0277 47.558C86.8372 47.9332 86.5487 48.2498 86.1927 48.4741C85.8368 48.6985 85.4267 48.8222 85.0061 48.8321Z" fill="#528402"/>
<path d="M54.6859 21.9221L54.7058 21.9501C54.693 21.8507 54.6863 21.7505 54.6859 21.6501L54.4858 22.0582C54.6158 21.9832 54.5419 21.9351 54.6859 21.9221Z" fill="#703F1E"/>
<path d="M62.7478 25.4321C61.4308 24.9661 59.7588 24.7791 58.5718 24.0811C57.2148 23.2811 57.6028 21.9611 56.8298 20.8811C56.4428 21.9001 57.4498 23.0051 57.5298 23.9881C56.1168 23.9121 55.5418 22.9091 54.7068 21.9541C54.9128 25.3011 60.2578 25.2191 62.6478 26.1701C63.3478 26.4743 63.9116 27.0251 64.232 27.7178C64.5525 28.4104 64.6072 29.1967 64.3858 29.9271C64.1658 30.4861 62.8038 31.2341 61.9438 31.9271C64.002 31.1176 66.2384 30.8701 68.4238 31.2101C68.1318 30.7261 67.2128 30.3491 66.9068 29.7431C66.5972 29.0935 66.3992 28.3965 66.3208 27.6811C66.1568 26.1811 66.2148 24.4281 67.3208 23.3711C68.3518 22.3711 69.9408 21.8541 70.9438 20.7711C71.2953 20.3495 71.4993 19.8245 71.5248 19.2761C72.4478 18.3651 74.3058 16.7041 73.2908 15.5511C73.156 16.1789 72.9837 16.798 72.7748 17.4051C72.4968 17.9051 71.9298 18.2221 71.5578 18.6701C71.5758 17.4701 71.3798 16.1441 71.9298 15.3031C71.0028 15.1771 71.2298 18.8031 70.7908 19.5971C70.1908 20.6881 68.1478 21.2331 67.0618 21.7971C63.7248 23.5051 62.1408 20.3781 61.3188 17.4791C61.2752 17.1867 61.2704 16.8898 61.3048 16.5961C60.0048 17.2651 61.4988 19.8311 62.0378 20.6401C62.7608 21.7291 64.2378 22.5721 64.8188 23.6811C65.0608 24.1371 65.1568 25.3551 64.6928 25.7471C64.1588 26.1931 63.3578 25.6481 62.7478 25.4321Z" fill="#703F1E"/>
<path d="M70.8729 1.19607C68.3599 0.0960669 66.9069 1.47808 64.7529 2.22108C62.9749 2.82808 60.7769 1.84707 58.8049 3.13407C57.2259 4.16107 55.6499 7.37806 56.4669 9.02106L56.2408 9.70608C54.1068 10.0261 53.9709 13.8961 56.4329 13.6261C55.7829 16.5311 60.1269 17.0091 62.1829 17.3011C64.4224 17.6354 66.7034 17.0731 68.5308 15.7361C70.8308 18.0461 75.2549 15.5081 76.1879 13.1361C76.9769 11.1221 77.2109 6.23607 73.8779 6.47207C74.5879 4.04307 73.3689 2.28707 70.8729 1.19607Z" fill="#9BC90E"/>
<path d="M65.4398 10.3611C65.4273 10.3671 65.4137 10.3705 65.3999 10.371C64.2395 11.2142 62.8338 11.6517 61.3999 11.616C60.4425 11.6502 59.4899 11.4658 58.6144 11.077C57.7389 10.6882 56.9635 10.1052 56.3469 9.37204L56.2408 9.70204C54.1068 10.022 53.9709 13.892 56.4329 13.622C55.7829 16.527 60.1269 17.005 62.1829 17.297C64.4224 17.6314 66.7034 17.0691 68.5308 15.732C70.8308 18.042 75.2549 15.504 76.1879 13.132C76.9769 11.118 77.2109 6.23205 73.8779 6.46805C74.5869 4.04405 73.3679 2.28805 70.8729 1.19305C70.8568 1.18233 70.8381 1.17611 70.8188 1.17505C71.0815 1.88405 71.2202 2.63299 71.2288 3.38905V3.61505C71.2098 5.24032 70.6193 6.80703 69.5608 8.04051C68.5023 9.27399 67.0434 10.0955 65.4398 10.3611Z" fill="#80B708"/>
<path d="M66.199 12.7611C66.099 12.7611 65.999 12.7491 65.899 12.7431C65.775 12.8211 65.677 12.9231 65.549 13.0011C64.3625 13.918 62.8959 14.3973 61.397 14.3581C60.0689 14.4135 58.7578 14.0437 57.6545 13.3023C56.5512 12.5609 55.7134 11.4867 55.263 10.2361C54.163 11.3611 54.435 13.8361 56.43 13.6231C55.78 16.5281 60.124 17.0061 62.18 17.2971C64.4193 17.6318 66.7004 17.0698 68.528 15.7331C70.828 18.0431 75.252 15.5051 76.185 13.1331C76.974 11.1191 77.208 6.2331 73.875 6.4691C74.528 4.2511 73.545 2.59911 71.459 1.49011C71.545 1.62011 71.615 1.7641 71.691 1.9021C74.276 5.9121 72.45 12.7611 66.199 12.7611Z" fill="#528402"/>
<path d="M55.6589 17.1271C55.1909 16.4501 53.1429 16.6061 52.3139 16.9451C51.6993 17.1892 51.158 17.5878 50.7425 18.1023C50.327 18.6168 50.0512 19.2298 49.9419 19.8821C49.7219 22.2981 51.4889 22.8511 53.6209 23.1471C55.4569 23.4011 56.9559 23.3051 56.9979 21.2271C60.5709 21.3771 59.0099 16.3191 55.7609 17.1271H55.6589Z" fill="#9BC90E"/>
<path d="M53.1029 20.343C52.6001 20.3552 52.1002 20.2623 51.6353 20.0703C51.1704 19.8783 50.7507 19.5915 50.4029 19.228C50.3209 19.142 50.2609 19.054 50.1909 18.97C50.0574 19.2597 49.9729 19.5696 49.9409 19.887C49.7209 22.303 51.4879 22.856 53.6199 23.152C55.4559 23.406 56.9549 23.31 56.9969 21.232C59.3849 21.332 59.4709 19.108 58.2969 17.863C57.7375 18.3871 57.0831 18.7994 56.3689 19.078C55.8871 19.5508 55.3016 19.9045 54.6589 20.111C54.149 20.2385 53.6279 20.3162 53.1029 20.343Z" fill="#80B708"/>
<path d="M53.5129 21.5671C52.7698 21.5988 52.0361 21.3913 51.4197 20.9751C50.8032 20.559 50.3364 19.9561 50.0879 19.2551C50.0119 19.4582 49.9628 19.6703 49.9419 19.8861C49.7219 22.3021 51.4889 22.8551 53.6209 23.1511C55.4569 23.4051 56.9559 23.3091 56.9979 21.2311C58.4979 21.2931 59.0859 20.4381 59.0279 19.4851C58.9799 19.5151 58.9359 19.5531 58.8859 19.5851C58.3004 19.9297 57.6332 20.111 56.9539 20.1101C56.8099 20.1101 56.6619 20.0981 56.5139 20.0841C56.1784 20.5634 55.7277 20.9505 55.2032 21.2097C54.6787 21.4688 54.0974 21.5918 53.5129 21.5671Z" fill="#528402"/>
<path d="M60.928 11.4351C61.0185 11.4271 61.1096 11.4271 61.2 11.4351C61.364 9.71707 62.789 8.67307 62.631 6.77307C62.587 6.77307 62.399 6.77307 62.357 6.77307C62.273 7.34307 62.157 8.80708 61.604 9.18108C60.939 9.63308 59.916 8.83507 59.29 8.71107C59.414 9.50007 61.014 9.31107 61.19 10.0861C61.204 10.0621 61.208 10.0461 61.222 10.0221V10.2221C61.2163 10.1744 61.2056 10.1275 61.19 10.0821C60.9496 10.4895 60.857 10.9674 60.928 11.4351Z" fill="#703F1E"/>
<path d="M55.703 2.1141C51.385 2.6141 51.783 9.4771 56.057 7.6651C57.057 10.1791 58.92 9.6171 61.038 8.4761C63.504 7.1471 65.398 5.6761 64.038 2.8311C63.6086 2.08694 62.9948 1.46598 62.2556 1.02809C61.5165 0.590196 60.6769 0.350144 59.818 0.331099C58.657 0.295099 56.09 1.03111 55.834 2.06711L55.703 2.1141Z" fill="#9BC90E"/>
<path d="M56.0569 7.66408C57.0569 10.1781 58.9199 9.61607 61.0379 8.47507C63.5039 7.14607 65.3979 5.67508 64.0379 2.83008C63.8543 2.45883 63.6099 2.12085 63.3149 1.83008C63.2669 1.96208 63.2369 2.10408 63.1769 2.23708C62.9169 2.83668 62.5356 3.37596 62.057 3.82101C61.5784 4.26606 61.0128 4.60724 60.3959 4.82307C59.7451 5.03065 59.0751 5.17203 58.3959 5.24507C57.52 5.28152 56.6475 5.11592 55.8459 4.76108C54.8495 4.75106 53.8645 4.54727 52.9459 4.16107C52.0849 6.20607 53.1979 8.87108 56.0569 7.66408Z" fill="#80B708"/>
<path d="M53.013 6.51616C52.939 6.50416 52.869 6.48015 52.791 6.46815C53.155 7.64915 54.256 8.42615 56.054 7.66815C57.054 10.1822 58.918 9.62016 61.036 8.47916C63.502 7.15016 65.396 5.67915 64.036 2.83415C63.9107 2.58135 63.7552 2.34463 63.573 2.12915C63.5462 2.98444 63.2931 3.81732 62.8394 4.54285C62.3857 5.26837 61.7477 5.86058 60.9904 6.25908C60.2332 6.65758 59.3838 6.84811 58.5289 6.81123C57.674 6.77435 56.8441 6.51138 56.124 6.04915C55.956 6.13806 55.7819 6.21492 55.603 6.27914C54.7764 6.58812 53.882 6.66997 53.013 6.51616Z" fill="#528402"/>
<path d="M76.0609 14.5951C77.0609 17.1051 78.9239 16.5431 81.0399 15.3951C83.5079 14.0681 85.3979 12.5951 84.0399 9.75407C83.6114 9.00824 82.9972 8.38601 82.257 7.94792C81.5168 7.50983 80.6758 7.27079 79.8159 7.25407C78.6569 7.21807 76.0879 7.95408 75.8339 8.98808L75.7059 9.03407C71.3909 9.54007 71.7859 16.4011 76.0609 14.5951Z" fill="#9BC90E"/>
<path d="M76.06 14.595C77.055 17.105 78.923 16.543 81.039 15.395C83.507 14.068 85.397 12.595 84.039 9.75403C83.8543 9.38337 83.6101 9.04554 83.316 8.75403C83.268 8.89003 83.238 9.02604 83.178 9.15404C82.9179 9.75418 82.5364 10.294 82.0574 10.7394C81.5784 11.1848 81.0124 11.5262 80.395 11.742C79.7441 11.9493 79.0741 12.0907 78.395 12.164C77.5195 12.2028 76.6469 12.0393 75.845 11.686C74.8487 11.6698 73.8646 11.4645 72.945 11.081C72.083 13.132 73.202 15.801 76.06 14.595Z" fill="#80B708"/>
<path d="M76.0599 14.5951C77.0549 17.1051 78.9229 16.5431 81.0389 15.3951C83.5069 14.0681 85.3969 12.5951 84.0389 9.75407C83.9124 9.50125 83.7559 9.26455 83.5729 9.04907C83.5458 9.90419 83.2923 10.7368 82.8385 11.4621C82.3847 12.1873 81.7466 12.7792 80.9894 13.1775C80.2322 13.5758 79.383 13.7661 78.5283 13.7292C77.6735 13.6922 76.8438 13.4292 76.1239 12.9671C75.9519 13.0531 75.7759 13.1311 75.6039 13.2031C74.778 13.5106 73.885 13.5928 73.0169 13.4411C72.9409 13.4291 72.8729 13.4051 72.7969 13.3891C73.1629 14.5771 74.2659 15.3561 76.0599 14.5951Z" fill="#528402"/>
<path d="M78.1679 18.4091C81.2229 18.5371 79.8879 14.2091 77.1089 14.8981H77.0229C76.6229 14.3191 74.8689 14.4551 74.1619 14.7461C73.6357 14.9549 73.1723 15.296 72.8167 15.7365C72.461 16.1769 72.2252 16.7017 72.1319 17.2601C71.9479 19.3221 73.4549 19.7981 75.2809 20.0491C76.8559 20.2651 78.1389 20.1831 78.1679 18.4091Z" fill="#9BC90E"/>
<path d="M78.168 18.4082C80.21 18.4942 80.282 16.5902 79.279 15.5292C78.7989 15.9753 78.2387 16.3265 77.628 16.5642C77.2146 16.9674 76.714 17.2702 76.165 17.4492C75.7298 17.5589 75.2844 17.6239 74.836 17.6432C74.4051 17.6531 73.977 17.5734 73.5786 17.409C73.1802 17.2445 72.8204 16.9991 72.522 16.6882C72.46 16.6242 72.404 16.5422 72.344 16.4702C72.2286 16.7192 72.1562 16.986 72.13 17.2592C71.946 19.3212 73.453 19.7972 75.279 20.0482C76.856 20.2632 78.139 20.1832 78.168 18.4082Z" fill="#80B708"/>
<path d="M78.168 18.4081C79.451 18.4641 79.95 17.7271 79.902 16.9151C79.86 16.9411 79.824 16.9711 79.778 16.9971C79.2773 17.2875 78.7088 17.4407 78.13 17.4411C78.006 17.4411 77.878 17.4271 77.752 17.4211C77.4138 17.8707 76.9627 18.2229 76.4444 18.4418C75.9262 18.6608 75.3592 18.7386 74.8011 18.6675C74.243 18.5964 73.7136 18.3789 73.2668 18.037C72.82 17.6952 72.4716 17.2412 72.257 16.7211C72.1927 16.8955 72.1504 17.0772 72.131 17.2621C71.947 19.3241 73.454 19.8001 75.28 20.0511C76.856 20.2651 78.139 20.1831 78.168 18.4081Z" fill="#528402"/>
<path d="M24.61 50.8091C23.029 50.7091 21.445 50.7991 19.88 50.5731C19.7323 50.5411 19.5826 50.5191 19.432 50.5071L19.032 50.4731C18.766 50.5071 17.761 50.6811 17.753 51.0731C17.745 51.2911 19.116 51.6481 19.399 51.7061C19.7089 51.7414 20.006 51.8498 20.266 52.0221C20.4984 52.1716 20.7687 52.2514 21.045 52.2521C21.6714 52.2991 22.3005 52.2991 22.927 52.2521C23.215 52.2361 23.491 52.2521 23.768 52.2521C24.0813 52.2195 24.3875 52.1371 24.675 52.0081C25.189 51.8481 25.848 52.0081 26.295 51.7221C26.529 51.5721 26.653 51.3561 26.431 51.1051C26.07 50.6971 25.095 50.8431 24.61 50.8091Z" fill="#748E09"/>
<path d="M20.9019 51.7451C21.8786 51.8922 22.874 51.649 23.6729 51.0681C24.6729 52.0731 26.6039 50.9681 27.0119 49.9331C27.3579 49.0561 27.4579 46.9261 26.0029 47.0261C26.3149 45.9671 25.7789 45.2021 24.6919 44.7261C23.6049 44.2501 22.9619 44.8521 22.0249 45.1741C21.2479 45.4441 20.2889 45.0121 19.4249 45.5741C18.7379 46.0261 18.0499 47.4281 18.4079 48.1461L18.3079 48.4461C17.3769 48.5861 17.3209 50.2721 18.3939 50.1561C18.1099 51.4161 20.0059 51.6211 20.9019 51.7451Z" fill="#9BC90E"/>
<path d="M20.9018 51.7441C21.8785 51.8913 22.8739 51.6481 23.6728 51.0671C24.6728 52.0721 26.6038 50.9671 27.0118 49.9321C27.3578 49.0551 27.4578 46.9251 26.0028 47.0251C26.3148 45.9661 25.7788 45.2011 24.6918 44.7251H24.6698C24.7828 45.0345 24.843 45.3607 24.8478 45.6901V45.7901C24.8413 46.5 24.5841 47.1849 24.1214 47.7234C23.6588 48.262 23.0206 48.6196 22.3198 48.7331H22.3058C21.7997 49.1014 21.1865 49.2929 20.5608 49.2781C20.1439 49.2923 19.7292 49.2116 19.348 49.042C18.9669 48.8724 18.6293 48.6183 18.3608 48.2991L18.3128 48.4411C17.3818 48.5811 17.3258 50.2671 18.3988 50.1511C18.1098 51.4161 20.0058 51.6211 20.9018 51.7441Z" fill="#80B708"/>
<path d="M20.9008 51.7461C21.8775 51.8932 22.8729 51.65 23.6718 51.0691C24.6718 52.0741 26.6028 50.9691 27.0108 49.9341C27.3568 49.0571 27.4568 46.9271 26.0018 47.0271C26.1387 46.5994 26.1054 46.1354 25.9089 45.7316C25.7124 45.3278 25.3678 45.0153 24.9468 44.8591C24.9852 44.9141 25.0186 44.9723 25.0468 45.0331C26.1778 46.7851 25.3788 49.7711 22.6468 49.7711H22.5168C22.4628 49.8011 22.4168 49.8491 22.3608 49.8771C21.845 50.2766 21.207 50.4854 20.5548 50.4681C19.976 50.4928 19.4045 50.3321 18.9233 50.0094C18.4422 49.6868 18.0766 49.219 17.8798 48.6741C17.4018 49.1621 17.5178 50.2471 18.3898 50.1511C18.1098 51.4141 20.0058 51.6221 20.9008 51.7461Z" fill="#528402"/>
<path opacity="0.28" d="M23.336 43.0691C23.736 43.4051 24.436 43.1511 24.878 43.1311C26.1538 43.0139 27.4348 42.9612 28.716 42.9731C30.878 43.0811 32.904 44.0201 35.032 43.4661C35.985 43.2181 40.447 41.6961 39.56 40.6171C39.188 40.1751 37.31 40.2451 36.777 40.1631C35.306 39.9491 35.6659 39.7451 34.8009 38.8981C33.4639 37.5911 31.901 38.0791 30.173 38.0791C28.626 38.0791 27.21 37.5921 25.713 37.9791C24.313 38.3491 22.75 38.4721 21.323 38.8721L22.114 38.6081C21.021 38.9341 16.597 39.5711 17.474 41.3531C17.1367 41.5096 16.8343 41.7323 16.585 42.0081C18.153 42.9551 21.785 40.6081 23.185 41.9081C23.258 41.9701 22.856 42.6731 23.336 43.0691Z" fill="#476362"/>
<path d="M11.988 30.7391L12.008 30.7651C11.9958 30.6703 11.9898 30.5747 11.99 30.4791L11.79 30.8671C11.924 30.7931 11.854 30.7431 11.988 30.7391Z" fill="#703F1E"/>
<path d="M27.4639 29.6341C27.7996 29.2323 27.9951 28.732 28.021 28.2091C28.894 27.3461 30.6689 25.7671 29.6989 24.6661C29.5726 25.2638 29.4086 25.853 29.2079 26.4301C28.9459 26.9061 28.4029 27.2111 28.0509 27.6301C28.0689 26.4811 27.8829 25.2301 28.4029 24.4301C27.5239 24.3121 27.7359 27.7711 27.3219 28.5181C26.7459 29.5551 24.7999 30.0771 23.7689 30.6061C20.5939 32.2381 19.0829 29.2571 18.2999 26.5061C18.2627 26.2245 18.2594 25.9395 18.2899 25.6571C17.0469 26.2941 18.4739 28.7421 18.9899 29.5151C19.6809 30.5481 21.0819 31.3491 21.6439 32.4041C21.8739 32.8421 21.9579 33.9991 21.5199 34.3721C21.0199 34.8041 20.2509 34.2841 19.6719 34.0801C18.3099 33.7691 16.9785 33.3364 15.6939 32.7871C14.4029 32.0281 14.7749 30.7711 14.0349 29.7441C13.6709 30.7171 14.6289 31.7661 14.6999 32.7051C13.3569 32.6331 12.8119 31.6761 12.0129 30.7671C12.2129 33.9541 17.2979 33.8781 19.5739 34.7831C20.2405 35.0715 20.7776 35.595 21.083 36.2539C21.3884 36.9128 21.4407 37.6611 21.2299 38.3561C21.0199 38.8871 19.7299 39.6091 18.9039 40.2561C20.8624 39.4828 22.992 39.2477 25.0719 39.5751C24.7979 39.1131 23.9209 38.7581 23.6289 38.1821C23.3325 37.5625 23.1438 36.897 23.0709 36.2141C22.9169 34.7871 22.9709 33.1141 24.0199 32.1061C24.9959 31.1641 26.5119 30.6631 27.4639 29.6341Z" fill="#703F1E"/>
<path d="M19.1289 26.3291C21.2611 26.6474 23.4327 26.1124 25.173 24.8401C27.361 27.0401 31.573 24.6241 32.464 22.3601C33.215 20.4501 33.4349 15.7961 30.2639 16.0141C30.9409 13.7141 29.7829 12.0381 27.4009 10.9951C25.0189 9.95206 23.6269 11.2611 21.5769 11.9701C19.8769 12.5511 17.7859 11.6161 15.9159 12.8411C14.4159 13.8181 12.909 16.8831 13.688 18.4411L13.4699 19.0921C11.4399 19.3921 11.3099 23.0821 13.6539 22.8201C13.0349 25.6031 17.1729 26.0511 19.1289 26.3291Z" fill="#9BC90E"/>
<path d="M19.1288 26.3291C21.261 26.6475 23.4327 26.1125 25.1729 24.8401C27.3609 27.0401 31.5729 24.624 32.4639 22.36C33.2149 20.45 33.4348 15.7961 30.2638 16.0141C30.9408 13.7141 29.7828 12.0381 27.4008 10.9951C27.3828 10.9871 27.3709 10.9851 27.3529 10.9771C27.6021 11.6516 27.734 12.3639 27.7428 13.0831V13.3031C27.7263 14.8516 27.1643 16.3447 26.1555 17.5197C25.1468 18.6947 23.756 19.4763 22.2278 19.7271L22.1978 19.739C21.0889 20.5371 19.7497 20.9511 18.3839 20.918C17.4731 20.9519 16.5667 20.7779 15.7332 20.4092C14.8998 20.0405 14.1613 19.4868 13.5739 18.7901L13.4738 19.0981C11.4438 19.3981 11.3139 23.0881 13.6579 22.8271C13.0349 25.6011 17.1728 26.0511 19.1288 26.3291Z" fill="#80B708"/>
<path d="M19.129 26.3291C21.2611 26.6475 23.4328 26.1125 25.173 24.8401C27.361 27.0401 31.573 24.6241 32.464 22.3601C33.215 20.4501 33.435 15.7961 30.264 16.0141C30.885 13.9061 29.948 12.3271 27.964 11.2761C28.05 11.4001 28.112 11.5341 28.188 11.6701C30.644 15.4891 28.905 22.0081 22.951 22.0081C22.857 22.0081 22.767 21.9941 22.667 21.9941C22.555 22.0741 22.459 22.1681 22.335 22.2401C21.2063 23.1144 19.8102 23.5718 18.383 23.5351C17.1181 23.5874 15.8695 23.2346 14.819 22.5281C13.7684 21.8216 12.9707 20.7983 12.542 19.6071C11.497 20.6781 11.753 23.0401 13.653 22.8261C13.035 25.6021 17.173 26.0511 19.129 26.3291Z" fill="#528402"/>
<path d="M13.0111 26.171H12.9111C12.4691 25.526 10.5171 25.68 9.72806 26.003C9.14327 26.2351 8.62822 26.6141 8.23268 27.1033C7.83714 27.5926 7.57447 28.1756 7.47006 28.796C7.26406 31.096 8.93906 31.623 10.9701 31.907C12.7181 32.147 14.1491 32.051 14.1871 30.073C17.5891 30.218 16.1071 25.408 13.0111 26.171Z" fill="#9BC90E"/>
<path d="M11.9651 29.007C11.4802 29.1314 10.984 29.2064 10.4841 29.231C10.0045 29.2416 9.52789 29.1522 9.08473 28.9685C8.64157 28.7848 8.24152 28.5108 7.91006 28.164C7.83806 28.09 7.78007 28.004 7.71007 27.924C7.58113 28.1993 7.49997 28.4945 7.47006 28.797C7.26406 31.097 8.93906 31.624 10.9701 31.908C12.7181 32.148 14.1491 32.052 14.1871 30.074C16.4611 30.174 16.5451 28.056 15.4241 26.874C14.8912 27.3719 14.268 27.7633 13.5881 28.027C13.1311 28.476 12.5752 28.8116 11.9651 29.007Z" fill="#80B708"/>
<path d="M13.733 28.976C13.3563 29.4776 12.8534 29.8705 12.2755 30.1146C11.6977 30.3587 11.0655 30.4454 10.4432 30.3659C9.82097 30.2863 9.23092 30.0433 8.73308 29.6617C8.23523 29.28 7.84738 28.7732 7.60899 28.193C7.54176 28.3874 7.49615 28.5886 7.47299 28.793C7.26699 31.093 8.94199 31.62 10.973 31.904C12.721 32.144 14.152 32.048 14.19 30.07C15.617 30.136 16.176 29.317 16.122 28.412C16.078 28.442 16.032 28.474 15.986 28.504C15.4291 28.8322 14.7944 29.0049 14.148 29.004C14.0092 29.0037 13.8706 28.9943 13.733 28.976Z" fill="#528402"/>
<path d="M18.2062 19.4041C18.1955 19.4245 18.1867 19.4459 18.1802 19.4681C18.1862 19.5121 18.2122 19.5421 18.2062 19.5961V19.4041Z" fill="#703F1E"/>
<path d="M17.933 20.7531C18.0201 20.745 18.1079 20.745 18.195 20.7531C18.349 19.1161 19.706 18.1251 19.558 16.3131C19.512 16.3131 19.338 16.3131 19.292 16.3131C19.214 16.8601 19.1 18.2511 18.575 18.6131C17.942 19.0411 16.969 18.2791 16.375 18.1631C16.493 18.9161 18.011 18.7381 18.181 19.4761C18.1875 19.454 18.1962 19.4325 18.207 19.4121V19.6041C18.213 19.5501 18.187 19.5201 18.181 19.4761C17.9527 19.8601 17.865 20.3116 17.933 20.7531Z" fill="#703F1E"/>
<path d="M16.8762 10.1791C15.7692 10.1431 13.3232 10.8461 13.0762 11.8331L12.9582 11.8751C8.84418 12.3481 9.22118 18.8801 13.2902 17.1561C14.2412 19.5501 16.0192 19.0161 18.0382 17.9291C20.3842 16.6621 22.1882 15.2631 20.8892 12.5561C20.4799 11.8493 19.8959 11.2596 19.1932 10.8434C18.4905 10.4271 17.6927 10.1984 16.8762 10.1791Z" fill="#9BC90E"/>
<path d="M20.0731 11.9851C19.8253 12.5571 19.462 13.0717 19.006 13.4968C18.55 13.9218 18.0111 14.2481 17.4231 14.4551C16.8041 14.6491 16.1678 14.7831 15.5231 14.8551C14.6876 14.8942 13.8546 14.7366 13.0911 14.3951C12.1431 14.3857 11.206 14.1918 10.3321 13.8241C9.50909 15.7721 10.5721 18.3181 13.2911 17.1611C14.2421 19.5551 16.0201 19.0211 18.0381 17.9341C20.3841 16.6671 22.1881 15.2681 20.8891 12.5611C20.7158 12.2061 20.4835 11.8832 20.2021 11.6061C20.1591 11.7251 20.1331 11.8611 20.0731 11.9851Z" fill="#80B708"/>
<path d="M17.4771 16.0491C16.8096 16.3275 16.0828 16.4336 15.3636 16.3578C14.6444 16.2819 13.9558 16.0266 13.3611 15.6151C13.1951 15.6931 13.0331 15.7771 12.8611 15.8391C12.0734 16.1309 11.2226 16.2089 10.3951 16.0651C10.3251 16.0531 10.2551 16.0331 10.1851 16.0151C10.5351 17.1421 11.5851 17.8851 13.2901 17.1561C14.2411 19.5501 16.0191 19.0161 18.0381 17.9291C20.3841 16.6621 22.1881 15.2631 20.8891 12.5561C20.7705 12.3158 20.6227 12.0911 20.4491 11.8871C20.4624 12.8071 20.1812 13.7073 19.6465 14.4561C19.1118 15.2049 18.3516 15.7631 17.4771 16.0491Z" fill="#528402"/>
<path opacity="0.42" d="M46.281 46.3181L45.354 46.9791C44.519 46.5351 43.4919 47.6101 43.5249 48.4141C45.0939 48.4941 47.4789 49.3191 48.8959 48.9601C49.8959 48.7121 49.8869 48.2291 51.0359 48.1751C51.9575 48.287 52.8893 48.287 53.811 48.1751C56.46 47.2621 52.2439 46.6281 51.3009 46.5861C49.4189 46.4961 48.006 47.5791 46.281 46.3181Z" fill="#728407"/>
<path d="M50.346 37.522C50.446 37.466 50.418 37.5341 50.546 37.5381L50.24 37.326C50.2779 37.3972 50.3113 37.4707 50.34 37.5461L50.346 37.522Z" fill="#703F1E"/>
<path d="M50.3399 37.546C50.1199 38.555 50.1059 39.494 49.1289 40.098C48.8029 39.369 49.0869 38.188 48.4139 37.618C48.2859 38.683 49.0779 39.466 48.4259 40.567C47.6921 41.505 46.8755 42.3752 45.9859 43.167C45.495 43.7167 45.1242 44.3628 44.8971 45.0639C44.67 45.7651 44.5916 46.5059 44.6669 47.239C44.9568 47.2343 45.242 47.1647 45.5016 47.0354C45.7611 46.9062 45.9884 46.7205 46.1669 46.492C45.9179 46.0526 45.8026 45.5501 45.8353 45.0461C45.868 44.542 46.0472 44.0586 46.3509 43.655C47.6749 42.038 51.5069 40.006 50.3399 37.546Z" fill="#703F1E"/>
<path d="M50.0858 33.0591C49.3648 33.1411 47.8458 33.8301 47.7778 34.4941L47.7058 34.5341C45.0838 35.2341 45.9518 39.4341 48.4268 37.9291C49.2718 39.3901 50.3748 38.8741 51.5838 37.9771C52.9838 36.9321 54.0178 35.8511 52.9168 34.2171C52.5842 33.7971 52.1489 33.47 51.6531 33.2671C51.1572 33.0643 50.6174 32.9927 50.0858 33.0591Z" fill="#9BC90E"/>
<path d="M52.3768 33.6602C52.3674 33.7499 52.3513 33.8388 52.3288 33.9261C52.223 34.3206 52.0366 34.6888 51.7814 35.0076C51.5261 35.3263 51.2075 35.5887 50.8458 35.7782C50.4614 35.9649 50.0595 36.113 49.6458 36.2202C49.1088 36.3224 48.5556 36.2998 48.0288 36.1541C47.4114 36.2377 46.7836 36.1996 46.1807 36.0421C45.8367 37.3891 46.7658 38.9351 48.4208 37.9281C49.2658 39.3891 50.3688 38.8732 51.5778 37.9762C52.9778 36.9312 54.0118 35.8502 52.9108 34.2162C52.7661 34.0014 52.5855 33.8133 52.3768 33.6602Z" fill="#80B708"/>
<path d="M51.0398 36.8071C50.6332 37.053 50.1713 37.1924 49.6967 37.2127C49.222 37.233 48.7498 37.1334 48.3238 36.9231C48.2238 36.9891 48.1238 37.0551 48.0238 37.1151C47.543 37.3798 47.0004 37.5116 46.4518 37.4971C46.4043 37.4961 46.3568 37.4921 46.3098 37.4851C46.6418 38.1851 47.3928 38.5621 48.4318 37.9291C49.2768 39.3901 50.3798 38.8741 51.5888 37.9771C52.9888 36.9321 54.0228 35.8511 52.9218 34.2171C52.8229 34.0716 52.706 33.9392 52.5738 33.8231C52.6711 34.4192 52.5746 35.0307 52.2984 35.5678C52.0223 36.105 51.5811 36.5393 51.0398 36.8071Z" fill="#528402"/>
<path d="M54.1769 48.7661C53.9649 48.7941 53.1459 48.9361 53.1399 49.2601C53.1399 49.4361 54.2489 49.7241 54.4809 49.7691C54.7307 49.7998 54.9702 49.8874 55.1809 50.0251C55.3706 50.1496 55.593 50.215 55.8199 50.2131C56.3274 50.2531 56.8374 50.2531 57.3449 50.2131C57.5829 50.2031 57.8019 50.2131 58.0279 50.2131C58.283 50.1879 58.532 50.1203 58.7649 50.0131C59.1829 49.8791 59.7179 50.0131 60.0799 49.7791C60.2739 49.6611 60.3739 49.4851 60.1919 49.2791C59.8919 48.9411 59.1049 49.0571 58.7109 49.0311C57.4279 48.9531 56.1389 49.0231 54.8669 48.8471C54.7501 48.8142 54.63 48.7941 54.5089 48.7871L54.1769 48.7661Z" fill="#748E09"/>
<path d="M58.779 44.0961C57.886 43.7041 57.372 44.1961 56.609 44.4581C55.975 44.6741 55.2 44.3261 54.499 44.7801C53.94 45.1481 53.382 46.2881 53.672 46.8681L53.592 47.1101C52.833 47.2241 52.785 48.6011 53.658 48.4991C53.43 49.5341 54.973 49.6991 55.696 49.7991C56.089 49.8591 56.49 49.8411 56.8761 49.746C57.2622 49.6509 57.6257 49.4807 57.946 49.2451C58.761 50.0621 60.328 49.1671 60.66 48.3241C60.942 47.6071 61.024 45.8781 59.843 45.9621C60.095 45.1091 59.662 44.4841 58.779 44.0961Z" fill="#9BC90E"/>
<path d="M56.852 47.3471H56.838C56.4249 47.6446 55.9259 47.7991 55.417 47.7871C55.0783 47.7995 54.7412 47.7345 54.4314 47.5971C54.1216 47.4597 53.8472 47.2535 53.629 46.9941L53.591 47.1061C52.832 47.2201 52.784 48.5971 53.657 48.4951C53.429 49.5301 54.972 49.6951 55.695 49.7951C56.0879 49.8553 56.4889 49.8375 56.875 49.7426C57.2611 49.6477 57.6247 49.4776 57.945 49.2421C58.76 50.0591 60.327 49.1641 60.659 48.3211C60.941 47.6041 61.023 45.8751 59.842 45.9591C60.096 45.1021 59.662 44.4761 58.779 44.0891H58.759C58.8505 44.3401 58.8986 44.6049 58.901 44.8721V44.9501C58.8973 45.5272 58.6895 46.0844 58.3145 46.5231C57.9395 46.9618 57.4215 47.2537 56.852 47.3471Z" fill="#80B708"/>
<path d="M57.126 48.192C57.086 48.192 57.0521 48.192 57.0261 48.192C56.9801 48.222 56.9421 48.2561 56.8961 48.2841C56.4761 48.6099 55.9564 48.7802 55.4251 48.7661C54.9541 48.7852 54.4894 48.6534 54.0987 48.3899C53.708 48.1263 53.4117 47.7449 53.2531 47.3011C52.8671 47.7011 52.961 48.5841 53.665 48.5011C53.437 49.5361 54.9801 49.7011 55.7031 49.8011C56.0961 49.8613 56.497 49.8434 56.8831 49.7485C57.2692 49.6536 57.6328 49.4836 57.9531 49.248C58.7681 50.065 60.3351 49.1701 60.6671 48.3271C60.9491 47.6101 61.031 45.8811 59.85 45.9651C59.9618 45.6175 59.9354 45.2402 59.7761 44.9117C59.6169 44.5831 59.3371 44.3286 58.9951 44.201C59.0251 44.247 59.049 44.295 59.079 44.347C59.332 44.7101 59.4817 45.135 59.5123 45.5764C59.5429 46.0179 59.4532 46.4593 59.2528 46.8538C59.0525 47.2483 58.7488 47.5811 58.3743 47.8168C57.9998 48.0524 57.5684 48.1821 57.126 48.192Z" fill="#528402"/>
<path d="M43.3859 48.4462C43.306 48.4294 43.2252 48.4174 43.1439 48.4102L42.9219 48.3882C42.7759 48.4102 42.2219 48.5042 42.2219 48.7202C42.2219 48.8402 42.9669 49.0382 43.1219 49.0722C43.2921 49.0892 43.4555 49.1476 43.5979 49.2422C43.7262 49.3247 43.8754 49.3691 44.0279 49.3702C44.3705 49.3931 44.7143 49.3931 45.0569 49.3702C45.2169 49.3582 45.3649 49.3702 45.5189 49.3702C45.692 49.3516 45.8608 49.305 46.0189 49.2322C46.3029 49.1462 46.6579 49.2322 46.9039 49.0762C47.0359 48.9942 47.1039 48.8762 46.9799 48.7402C46.7799 48.5142 46.2479 48.5922 45.9799 48.5762C45.1099 48.5222 44.2409 48.5662 43.3859 48.4462Z" fill="#748E09"/>
<path d="M43.9429 49.0891C44.4781 49.1692 45.0233 49.0348 45.46 48.7152C46.007 49.2642 47.06 48.6612 47.286 48.0962C47.476 47.6142 47.532 46.4491 46.735 46.5031C46.905 45.9251 46.615 45.5031 46.016 45.2421C45.417 44.9811 45.073 45.3121 44.557 45.4901C44.132 45.6361 43.608 45.4002 43.138 45.7042C42.758 45.9542 42.385 46.7212 42.581 47.1112L42.527 47.2732C42.018 47.3512 41.982 48.2731 42.573 48.2121C42.417 48.9061 43.4539 49.0171 43.9429 49.0891Z" fill="#9BC90E"/>
<path d="M43.9429 49.0892C44.4781 49.1693 45.0233 49.0349 45.4599 48.7152C46.0069 49.2652 47.0599 48.6612 47.2859 48.0962C47.4759 47.6152 47.5319 46.4502 46.7349 46.5042C46.9049 45.9272 46.6149 45.5042 46.0159 45.2432H46.0059C46.0684 45.4127 46.1022 45.5915 46.1059 45.7722V45.8242C46.103 46.2133 45.9626 46.5888 45.7095 46.8843C45.4564 47.1799 45.1069 47.3764 44.7229 47.4392H44.7129C44.4363 47.6394 44.1013 47.7428 43.7599 47.7332C43.5315 47.7412 43.3043 47.6975 43.0952 47.6052C42.8862 47.5129 42.7008 47.3744 42.5529 47.2002L42.5289 47.2742C42.0199 47.3522 41.9839 48.2742 42.5749 48.2132C42.4169 48.9042 43.4539 49.0172 43.9429 49.0892Z" fill="#80B708"/>
<path d="M43.9439 49.0891C44.4791 49.1692 45.0242 49.0348 45.4609 48.7151C46.0079 49.2641 47.0609 48.6611 47.2869 48.0961C47.4769 47.6141 47.5329 46.4501 46.7359 46.5041C46.8124 46.2705 46.7954 46.0162 46.6883 45.7948C46.5813 45.5735 46.3926 45.4022 46.1619 45.3171C46.1799 45.3471 46.1959 45.3791 46.2159 45.4171C46.3865 45.6623 46.4877 45.9491 46.5085 46.247C46.5294 46.545 46.4693 46.8431 46.3344 47.1096C46.1996 47.3762 45.9952 47.6013 45.7428 47.7611C45.4904 47.9208 45.1995 48.0093 44.9009 48.0171C44.8769 48.0171 44.8569 48.0111 44.8309 48.0111C44.8029 48.0271 44.7768 48.0531 44.7508 48.0691C44.4682 48.2906 44.1168 48.406 43.7579 48.3951C43.4408 48.4075 43.128 48.319 42.8644 48.1424C42.6008 47.9657 42.4 47.7101 42.2909 47.4121C42.0309 47.6821 42.0909 48.2731 42.5729 48.2191C42.4169 48.9061 43.4539 49.0181 43.9439 49.0891Z" fill="#528402"/>
<path d="M24.5589 85.4341C24.5749 83.2901 24.4329 81.8551 24.5529 79.5421C24.6649 77.3181 23.97 75.466 23.653 73.274C23.341 71.13 22.622 68.6561 22.224 66.5441C21.9422 64.2352 21.9187 61.9021 22.1539 59.5881C20.9109 58.6791 19.954 58.2931 19.054 56.6691C19.054 61.1131 20.944 65.2211 21.364 69.5571C21.574 71.7451 21.818 74.0931 21.918 76.2431C22.008 78.1271 21.8739 82.455 21.8739 82.455C22.9069 83.594 23.6929 84.5551 24.5589 85.4341Z" fill="#30B9D8"/>
<path d="M21.1349 61.4991C21.1929 61.6871 21.9439 63.1911 21.9939 63.3871C22.0079 62.0961 22.1079 60.8151 22.1559 59.5871C20.9129 58.6781 19.9559 58.2921 19.0559 56.6681C19.0644 57.5895 19.1413 58.5091 19.2859 59.4191C19.7859 59.1771 19.5859 58.5481 19.7859 59.1771C20.0139 59.8821 21.0449 65.6071 21.1329 66.3241C21.4909 66.3501 21.0149 61.0591 21.1349 61.4991Z" fill="#18A1B7"/>
<path d="M35.595 72.1501C35.255 73.1291 37.481 73.1291 38.495 74.1701C39.524 75.2331 42.651 94.9211 43.958 96.9071L44.134 96.7071C42.328 90.4611 41.195 74.7811 41.059 73.5291C40.939 72.4361 41.059 71.8431 40.374 71.1691C40.752 70.1691 41.307 68.6971 40.764 67.8691C39.9652 67.0517 39.0189 66.3928 37.975 65.9271C38.3729 67.3669 38.536 68.8614 38.458 70.3531C38.399 70.6781 36.053 70.8091 35.595 72.1501Z" fill="#30B9D8"/>
<path d="M40.2319 71.3271C39.4601 72.1507 38.6428 72.9306 37.7839 73.6631C38.0465 73.7924 38.2861 73.964 38.4929 74.1711C38.6579 74.4204 38.779 74.696 38.8509 74.9861C39.5099 73.9861 40.1939 73.0121 40.8869 72.0391C40.802 71.7043 40.6221 71.4011 40.3689 71.1661L40.3829 71.1361C40.3392 71.2047 40.2886 71.2687 40.2319 71.3271Z" fill="#43D7EF"/>
<path d="M40.7609 67.862C39.9621 67.0446 39.0158 66.3857 37.9719 65.92C38.37 67.3598 38.5335 68.8543 38.4559 70.3461C38.4439 70.4181 38.3179 70.484 38.1299 70.554C38.9434 70.6174 39.7335 70.8562 40.4459 71.254C40.4199 71.228 40.3999 71.202 40.3719 71.17C40.7489 70.166 41.3089 68.693 40.7609 67.862Z" fill="#18A1B7"/>
<path d="M41.094 78.822C41.074 78.498 40.76 73.8771 40.754 73.5551C40.7486 73.4367 40.7681 73.3185 40.8112 73.2081C40.8542 73.0977 40.9199 72.9975 41.004 72.914C41.0142 72.4371 40.9012 71.9656 40.676 71.545C40.1111 72.5107 39.3517 73.3484 38.446 74.0051C38.4199 74.0236 38.3925 74.0403 38.364 74.0551C38.406 74.0931 38.452 74.1291 38.492 74.1711C38.8847 74.9548 39.1587 75.7927 39.305 76.6571C39.587 76.6571 40.822 82.206 41.005 82.457C40.921 81.932 39.705 75.951 39.818 75.425C40.125 74.045 41.094 78.822 41.094 78.822Z" fill="#18A1B7"/>
<path d="M68.9031 64.2851C69.5916 65.669 70.1727 67.1039 70.6411 68.5771C71.8561 72.5491 69.5221 71.7921 69.6281 74.0421C69.7381 76.2421 70.2041 88.976 70.4991 93.41C71.6741 92.375 72.9601 91.2561 72.9601 91.2561C72.7741 89.4221 72.1511 76.1641 72.9161 74.3141C73.3981 73.1391 73.8571 73.3571 74.0591 72.5441C74.1469 71.869 74.1006 71.1832 73.9231 70.526C73.5311 67.8203 73.5089 65.0738 73.8571 62.3621C72.1403 62.8197 70.479 63.4645 68.9031 64.2851Z" fill="#30B9D8"/>
<path d="M72.062 73.6091C72.1794 73.5978 72.2977 73.6164 72.406 73.663L72.876 73.847C72.9468 73.8835 73.0139 73.9271 73.076 73.9771C73.392 73.3861 73.688 73.277 73.887 72.97C72.77 72.7034 71.7166 72.2192 70.787 71.545C70.6606 71.8053 70.5013 72.0483 70.313 72.2681C70.361 72.3481 70.407 72.426 70.455 72.504C70.537 72.596 70.619 72.69 70.705 72.776C71.1029 73.1339 71.5628 73.4162 72.062 73.6091Z" fill="#43D7EF"/>
<path d="M73.2751 73.6551C72.2478 73.3107 71.2933 72.7787 70.4601 72.0861C69.6291 74.0421 70.3001 75.2611 70.3861 76.9971C70.8981 76.6451 70.0601 73.8061 70.7961 73.8561C71.8131 73.9341 71.2641 82.8841 71.3841 83.8951C71.6141 83.8251 71.6761 76.0381 72.5531 80.3261C72.4374 78.3139 72.561 76.2951 72.9211 74.3121C73.0117 74.0794 73.1306 73.8587 73.2751 73.6551Z" fill="#18A1B7"/>
<path d="M73.7061 63.6561C73.7461 63.1851 73.7961 62.7391 73.8601 62.3561C72.1421 62.8144 70.4798 63.4603 68.9031 64.2821C68.9031 64.2821 69.1511 64.7621 69.4791 65.5071C69.6157 65.5523 69.7404 65.6275 69.8442 65.7272C69.948 65.8268 70.0283 65.9484 70.0791 66.0831C70.7392 67.6866 71.2865 69.3343 71.7171 71.0141C71.7999 71.0297 71.8796 71.0588 71.9531 71.1001C71.7431 69.7691 70.3191 65.0101 71.3531 64.8641C72.5761 64.6841 72.7061 69.1701 73.0801 70.3431C73.1681 70.6291 72.9001 65.8751 72.9861 66.1571C72.8789 65.7232 72.8858 65.269 73.0062 64.8386C73.1266 64.4082 73.3563 64.0163 73.6731 63.7011C73.6801 63.6861 73.6961 63.6761 73.7061 63.6561Z" fill="#18A1B7"/>
<path d="M42.617 36.0881C43.524 41.5311 37.979 47.2361 31.451 47.4351C35.869 48.2021 36.1109 49.8351 31.6909 52.2861C27.9759 54.3501 29.981 55.4131 23.377 57.1141C26.12 56.3971 29.767 57.7191 31.248 53.5551C31.736 52.1841 34.1329 52.2981 35.2919 51.4811C37.5979 49.8371 36.9179 48.7661 36.1109 47.6871C39.3719 45.5831 46.317 39.9741 42.617 36.0881Z" fill="#6BEEFC"/>
<path d="M89.4119 40.6591C89.0999 40.9111 87.5519 40.0761 84.8239 39.9741C83.0979 39.9021 80.4879 39.7001 78.7859 39.8241C62.7269 41.0351 61.7219 39.1371 58.2569 37.8241C56.6633 37.2237 55.2144 36.2938 54.0049 35.0951C53.0619 34.0781 52.9679 31.3051 54.1049 30.3431V30.2371C52.7973 30.949 51.8234 32.1482 51.3949 33.5741C51.1689 35.2151 52.6299 36.2891 53.8949 37.0371C55.4059 37.8922 56.9629 38.6634 58.5589 39.3471C59.977 39.8359 61.3683 40.3994 62.7269 41.0351C63.3409 41.4031 63.6839 42.0101 64.4179 42.1761C65.2134 42.2612 66.0163 42.1117 66.7279 41.7461C68.0925 41.2011 69.5325 40.8683 70.9979 40.7591C72.7719 40.5711 74.5669 40.5351 76.3589 40.4511C79.4404 40.1764 82.5403 40.1764 85.6219 40.4511C86.7289 40.6151 89.0529 42.2711 90.1219 41.8741C92.3219 41.0551 90.1279 39.0891 89.0029 39.1371C88.6529 39.1591 90.4109 39.8501 89.4119 40.6591Z" fill="#6BEEFC"/>
<path d="M61.2959 51.26C63.0059 51.316 64.7529 50.673 66.5449 50.669C68.129 50.6108 69.7098 50.8513 71.2049 51.378C71.793 51.6494 72.3967 51.8855 73.0129 52.085C73.7491 52.1508 74.4887 52.0029 75.1429 51.659C76.8519 51.137 78.6959 51.593 80.3959 51.253C79.4029 50.304 77.2109 50.668 75.8499 50.668C74.1159 50.668 72.4089 51.042 70.6849 50.868C70.1239 50.816 66.4009 50.063 66.3349 49.451C66.2689 48.839 67.7179 48.724 67.9439 48.218C68.2819 47.447 67.5139 46.897 66.9439 46.623L66.8439 46.717C68.2239 48.005 61.9489 50.53 61.2959 51.26Z" fill="#6BEEFC"/>
<path d="M55.913 32.9192C55.649 32.9472 54.6401 33.1192 54.6341 33.5192C54.6281 33.7372 55.997 34.0952 56.282 34.1522C56.5906 34.1907 56.8864 34.2987 57.1471 34.4682C57.3801 34.6191 57.6524 34.6984 57.93 34.6962C58.5545 34.7431 59.1816 34.7431 59.806 34.6962C60.1 34.6782 60.3711 34.6962 60.6471 34.6962C60.9622 34.6648 61.2699 34.5817 61.558 34.4502C62.072 34.2922 62.729 34.4502 63.174 34.1642C63.408 34.0182 63.534 33.8042 63.31 33.5532C62.943 33.1392 61.969 33.2852 61.488 33.2532C59.91 33.1532 58.321 33.2452 56.757 33.0172C56.6114 32.9843 56.4637 32.961 56.3151 32.9472L55.913 32.9192Z" fill="#748E09"/>
<path d="M61.5721 27.1671C60.4721 26.6901 59.8421 27.2931 58.9001 27.6151C58.1271 27.8791 57.1661 27.4551 56.3061 28.0151C55.6171 28.4671 54.9291 29.8731 55.2871 30.5871L55.187 30.8871C54.258 31.0291 54.198 32.7151 55.273 32.5991C54.987 33.8681 56.8871 34.0741 57.7791 34.1991C58.7552 34.3466 59.7501 34.1034 60.548 33.5221C61.555 34.5271 63.479 33.4221 63.889 32.3851C64.237 31.5101 64.337 29.3851 62.88 29.4801C63.19 28.4111 62.6541 27.6421 61.5721 27.1671Z" fill="#9BC90E"/>
<path d="M59.2001 31.1681H59.1821C58.6762 31.5341 58.0643 31.7245 57.4401 31.7101C57.0224 31.726 56.6067 31.6465 56.2244 31.4775C55.8421 31.3086 55.5034 31.0547 55.2341 30.7351L55.1861 30.8751C54.2571 31.0171 54.1971 32.7031 55.2721 32.5871C54.9861 33.8561 56.8861 34.0621 57.7781 34.1871C58.7542 34.3347 59.7492 34.0914 60.5471 33.5101C61.5541 34.5151 63.4781 33.4101 63.8881 32.3731C64.2361 31.4981 64.3361 29.3731 62.8791 29.4681C63.1911 28.4091 62.6571 27.6401 61.5721 27.1681H61.5481C61.6632 27.477 61.7241 27.8035 61.7281 28.1331V28.2331C61.718 28.9412 61.4592 29.6231 60.9971 30.1597C60.5349 30.6962 59.8988 31.0532 59.2001 31.1681Z" fill="#80B708"/>
<path d="M59.5332 32.2092C59.4872 32.2092 59.4432 32.2092 59.4012 32.2092C59.3472 32.2452 59.3012 32.2912 59.2492 32.3252C58.7298 32.7202 58.0914 32.9265 57.4392 32.9102C56.8601 32.9357 56.288 32.7754 55.8066 32.4526C55.3251 32.1298 54.9595 31.6616 54.7632 31.1162C54.2832 31.6062 54.3992 32.6922 55.2712 32.5932C54.9852 33.8622 56.8862 34.0682 57.7772 34.1932C58.7533 34.3408 59.7483 34.0975 60.5462 33.5162C61.5532 34.5212 63.4772 33.4162 63.8872 32.3792C64.2352 31.5042 64.3352 29.3792 62.8782 29.4742C63.0151 29.0467 62.9824 28.583 62.7867 28.179C62.591 27.775 62.2475 27.4618 61.8272 27.3042C61.8632 27.3622 61.8952 27.4182 61.9272 27.4802C63.0572 29.2302 62.2572 32.2092 59.5332 32.2092Z" fill="#528402"/>
<path d="M63.3049 38.2002C63.6221 38.4016 63.9901 38.5085 64.3659 38.5082C65.2153 38.573 66.0684 38.573 66.9179 38.5082C67.3099 38.4842 67.6789 38.5082 68.0609 38.5082C68.4854 38.4625 68.9001 38.3504 69.2899 38.1762C69.9899 37.9522 70.8799 38.1762 71.4899 37.7902C71.8059 37.5842 71.9789 37.2962 71.6739 36.9532C71.1739 36.3912 69.8579 36.5872 69.1999 36.5452C67.0599 36.4152 64.9059 36.5332 62.7839 36.2272C62.5856 36.177 62.3831 36.1455 62.1789 36.1332L61.6339 36.0872C61.2759 36.1332 59.9119 36.3712 59.8999 36.9102C59.8999 37.2022 61.7519 37.6872 62.1319 37.7712C62.5518 37.8174 62.9543 37.9646 63.3049 38.2002Z" fill="#748E09"/>
<path d="M60.7609 35.6511C60.3729 37.3691 62.9489 37.6511 64.1609 37.8211C65.486 38.0224 66.8369 37.6905 67.9179 36.8981C69.2789 38.2671 71.8959 36.7621 72.4499 35.3571C72.9179 34.1661 73.0549 31.2791 71.0789 31.4131C71.5009 29.9781 70.7789 28.9391 69.3049 28.2921C67.8309 27.6451 66.9569 28.4621 65.6829 28.8921C64.6279 29.2521 63.3269 28.6781 62.1639 29.4391C61.2289 30.0441 60.2959 31.9531 60.7769 32.9181L60.6449 33.3282C59.3839 33.5182 59.3039 35.8111 60.7609 35.6511Z" fill="#9BC90E"/>
<path d="M66.0879 33.7182L66.0679 33.7282C65.3788 34.2223 64.5476 34.4789 63.6999 34.4592C63.1333 34.48 62.5694 34.3712 62.0511 34.1413C61.5328 33.9113 61.0737 33.5662 60.7089 33.1322L60.6469 33.3322C59.3839 33.5182 59.3039 35.8122 60.7609 35.6522C60.3729 37.3712 62.9489 37.6522 64.1609 37.8222C65.486 38.0236 66.8369 37.6917 67.9179 36.8992C69.2789 38.2682 71.8959 36.7632 72.4499 35.3582C72.9179 34.1672 73.0549 31.2802 71.0789 31.4142C71.5009 29.9792 70.7789 28.9402 69.3049 28.2932L69.2709 28.2832C69.4271 28.7035 69.509 29.1478 69.5129 29.5962V29.7282C69.5016 30.6896 69.1521 31.6164 68.5259 32.346C67.8996 33.0755 67.0365 33.5613 66.0879 33.7182Z" fill="#80B708"/>
<path d="M66.5388 35.1371C66.4788 35.1371 66.4228 35.1271 66.3608 35.1271C66.2888 35.1751 66.2328 35.2351 66.1548 35.2831C65.452 35.8233 64.585 36.1057 63.6988 36.0831C62.913 36.1166 62.1372 35.8978 61.4846 35.4588C60.832 35.0198 60.337 34.3836 60.0718 33.6431C59.4188 34.3081 59.5788 35.7771 60.7588 35.6491C60.3708 37.3671 62.9468 37.6491 64.1588 37.8191C65.4836 38.0202 66.8341 37.6883 67.9148 36.8961C69.2758 38.2651 71.8938 36.7601 72.4468 35.3551C72.9148 34.1641 73.0518 31.2771 71.0758 31.4111C71.2629 30.8326 71.22 30.2043 70.9562 29.6565C70.6924 29.1087 70.2278 28.6835 69.6588 28.4691C69.7108 28.5431 69.7488 28.6271 69.7968 28.7111C71.3188 31.0901 70.2378 35.1371 66.5388 35.1371Z" fill="#528402"/>
</svg>
