<svg width="15" height="19" viewBox="0 0 15 19" fill="none" xmlns="http://www.w3.org/2000/svg">
<path d="M10.5119 6.78601C11.0589 7.02262 11.5615 7.35102 11.9979 7.75701C12.4054 8.13723 12.7547 8.57524 13.0349 9.05701C13.3078 9.5335 13.5137 10.0453 13.6469 10.578C13.7795 11.1153 13.8466 11.6666 13.8469 12.22C13.8506 13.0055 13.7102 13.7851 13.4329 14.52C13.1706 15.2305 12.7617 15.8778 12.2329 16.42C11.6782 16.9796 11.0136 17.4182 10.2809 17.708C9.43209 18.0446 8.52484 18.2092 7.61189 18.192C6.8238 18.188 6.04136 18.0588 5.29389 17.809C4.53061 17.5638 3.81323 17.1937 3.17089 16.714C2.54452 16.2553 2.01475 15.6777 1.61189 15.014C1.20043 14.351 0.986729 13.5843 0.995888 12.804C1.00159 12.3351 1.07433 11.8694 1.21189 11.421C1.22653 11.3233 1.26723 11.2313 1.3297 11.1548C1.39217 11.0783 1.4741 11.02 1.56689 10.986C1.76143 10.9276 1.96377 10.8992 2.16689 10.902C2.37589 10.902 2.58789 10.902 2.79689 10.919C3.00589 10.936 3.20389 10.936 3.39689 10.936C3.67564 10.9321 3.95372 10.9077 4.22889 10.863C4.53629 10.8155 4.84683 10.7911 5.15789 10.79C5.36305 10.7862 5.56695 10.8229 5.75789 10.898C5.84384 10.9392 5.91888 11 5.97691 11.0756C6.03495 11.1512 6.07434 11.2394 6.09189 11.333C6.02114 11.5136 5.96626 11.6999 5.92789 11.89C5.90223 12.0582 5.88819 12.2279 5.88589 12.398C5.87144 12.6151 5.90439 12.8327 5.98244 13.0358C6.06049 13.2388 6.18177 13.4225 6.33789 13.574C6.61033 13.8354 6.97334 13.9812 7.35089 13.981C7.57966 13.9788 7.80509 13.9258 8.01088 13.8258C8.21668 13.7259 8.3977 13.5815 8.54089 13.403C8.92169 12.8881 9.10225 12.2522 9.04889 11.614C9.05682 11.3072 8.98112 11.0041 8.82989 10.737C8.69054 10.4963 8.49754 10.291 8.26589 10.137C8.02268 9.97253 7.75161 9.8536 7.46589 9.78601C7.16302 9.71032 6.85207 9.6717 6.53989 9.67101C6.06599 9.66332 5.59558 9.75318 5.15789 9.93501C4.99789 9.91101 4.86589 9.77801 4.73689 9.53501C4.59167 9.25532 4.47185 8.96314 4.37889 8.66201C4.27089 8.32401 4.16289 7.97601 4.05889 7.61801C3.95489 7.26001 3.87489 6.94601 3.78089 6.69201C3.87523 6.58052 3.98422 6.4823 4.10489 6.40001C4.23251 6.31703 4.36622 6.24383 4.50489 6.18101C4.64089 6.11501 4.77989 6.04901 4.91889 5.98101C5.04931 5.91243 5.16782 5.82329 5.26989 5.71701C4.92618 5.66957 4.57983 5.64386 4.23289 5.64001C3.83289 5.63301 3.44689 5.62601 3.08489 5.61601C2.72289 5.60601 2.40589 5.58501 2.15189 5.55701C1.89789 5.52901 1.77289 5.46701 1.77289 5.36901C1.77289 5.18801 1.75889 5.00701 1.74489 4.82301C1.73089 4.63901 1.71689 4.46101 1.71689 4.27301C1.71234 3.54742 1.78678 2.8235 1.93889 2.11401C1.95289 1.93701 1.96289 1.77601 1.98089 1.63701C1.99889 1.49801 2.10589 1.40401 2.30489 1.35201C2.44389 1.33101 2.56889 1.31001 2.69089 1.28901C2.81202 1.27434 2.93387 1.26632 3.05589 1.26501C3.85332 1.40721 4.65891 1.49905 5.46789 1.54001C6.27489 1.57801 7.07889 1.59601 7.88989 1.59601C8.55489 1.59601 9.18489 1.61001 9.77989 1.62401C10.3749 1.63801 11.0119 1.64801 11.6799 1.64801C11.8978 1.64297 12.1145 1.68209 12.3169 1.76301C12.4939 1.84001 12.5779 1.93001 12.5779 2.03401C12.5779 2.69535 12.5639 3.36701 12.5359 4.04901C12.5079 4.72801 12.4839 5.39901 12.4589 6.05701C12.1179 6.16501 11.7839 6.26201 11.4529 6.35701C11.118 6.44805 10.8002 6.59294 10.5119 6.78601Z" fill="white"/>
<path d="M7.61095 18.509C5.94331 18.4954 4.32203 17.9585 2.97595 16.974C2.31728 16.4868 1.76046 15.8753 1.33695 15.174C0.892668 14.4615 0.661891 13.6366 0.671946 12.797C0.676647 12.299 0.752755 11.8043 0.897946 11.328C0.92574 11.1792 0.992627 11.0405 1.09174 10.9261C1.19086 10.8117 1.31863 10.7257 1.46195 10.677C1.90247 10.5697 2.35851 10.5413 2.80895 10.593C3.26305 10.6306 3.72004 10.6131 4.16995 10.541C4.73173 10.4104 5.31797 10.4297 5.86995 10.597C6.00313 10.6556 6.12031 10.7453 6.21166 10.8586C6.30301 10.9719 6.36586 11.1054 6.39495 11.248L6.42295 11.348L6.38095 11.448C6.31863 11.6104 6.2698 11.7776 6.23495 11.948C6.21251 12.0943 6.20081 12.242 6.19995 12.39C6.18609 12.5617 6.20977 12.7344 6.26935 12.896C6.32892 13.0576 6.42297 13.2044 6.54495 13.326C6.66391 13.4411 6.80609 13.5295 6.96197 13.5853C7.11785 13.6411 7.28384 13.6629 7.44884 13.6494C7.61385 13.6359 7.77406 13.5872 7.91876 13.5068C8.06347 13.4264 8.18934 13.316 8.28795 13.183C8.6137 12.7254 8.76547 12.1665 8.71595 11.607C8.72444 11.3592 8.66533 11.1137 8.54495 10.897C8.42821 10.6968 8.2675 10.5259 8.07495 10.397C7.86038 10.2579 7.62365 10.1564 7.37495 10.097C6.67628 9.92158 5.94024 9.96913 5.26995 10.233L5.18595 10.268L5.09895 10.254C4.95236 10.2172 4.81634 10.1468 4.70162 10.0484C4.58691 9.94999 4.49664 9.82626 4.43795 9.68699C4.28531 9.38822 4.15722 9.07752 4.05495 8.75799C3.94695 8.41999 3.83895 8.06899 3.73495 7.70699C3.63095 7.34499 3.55095 7.04899 3.45995 6.80699L3.39695 6.62999L3.51495 6.48699C3.6299 6.35428 3.76091 6.23638 3.90495 6.13599C4.00495 6.07299 4.10495 6.01799 4.20495 5.96499H3.95395C3.64395 5.95799 3.34895 5.95499 3.06295 5.94399C2.68695 5.92999 2.36295 5.91299 2.10595 5.88099C1.66095 5.82899 1.43795 5.65799 1.43795 5.37299C1.43795 5.20199 1.42395 5.02799 1.40995 4.85399C1.39595 4.67999 1.38195 4.47499 1.38195 4.27599C1.37905 3.52474 1.45954 2.77548 1.62195 2.04199C1.62195 1.90599 1.63895 1.74199 1.65695 1.59299C1.67917 1.4521 1.74591 1.32202 1.8474 1.22179C1.94888 1.12156 2.07979 1.05645 2.22095 1.03599L2.64195 0.965988C2.77825 0.948337 2.9155 0.938986 3.05295 0.937988C3.85602 1.0807 4.6673 1.17255 5.48195 1.21299C6.25495 1.25099 7.04395 1.27199 7.88195 1.27199C8.54695 1.27199 9.18195 1.28199 9.78195 1.29999C10.3819 1.31799 11.0069 1.32099 11.6679 1.32099C11.9313 1.31606 12.1929 1.36471 12.4369 1.46399C12.8089 1.62799 12.8889 1.86399 12.8889 2.03099C12.8889 2.69599 12.8749 3.37399 12.8469 4.05599L12.7599 6.28999L12.5439 6.35999C12.1989 6.47099 11.8619 6.56899 11.5279 6.65999C11.418 6.69255 11.3098 6.73094 11.2039 6.77499C11.567 6.98344 11.9054 7.232 12.2129 7.51599C12.6443 7.91968 13.0149 8.38385 13.3129 8.89399C13.6012 9.395 13.8189 9.93342 13.9599 10.494C14.0985 11.0565 14.1687 11.6337 14.1689 12.213C14.1724 13.038 14.0239 13.8567 13.7309 14.628C13.4523 15.3795 13.0182 16.0638 12.4569 16.636C11.8729 17.2272 11.1725 17.6907 10.3999 17.997C9.51278 18.3487 8.56517 18.5226 7.61095 18.509ZM2.16095 11.229C1.99212 11.2259 1.82372 11.2471 1.66095 11.292C1.62995 11.302 1.56695 11.327 1.52495 11.501C1.39173 11.9217 1.32131 12.3597 1.31595 12.801C1.30969 13.521 1.50768 14.228 1.88695 14.84C2.26837 15.4695 2.76948 16.0182 3.36195 16.455C4.32809 17.164 5.45506 17.6222 6.64184 17.7885C7.82862 17.9548 9.03812 17.8241 10.1619 17.408C10.8521 17.1305 11.4775 16.7135 11.9989 16.183C12.4992 15.6763 12.8858 15.0688 13.1329 14.401C13.3954 13.7011 13.5285 12.9594 13.5259 12.212C13.5256 11.6857 13.4625 11.1613 13.3379 10.65C13.2126 10.1461 13.017 9.66238 12.7569 9.21299C12.4935 8.75749 12.1639 8.34365 11.7789 7.98499C11.366 7.60655 10.8929 7.29966 10.3789 7.07699L9.84295 6.83699L10.3339 6.50999C10.648 6.29868 10.9932 6.13774 11.3569 6.03299C11.6149 5.96299 11.8719 5.88999 12.1329 5.80999L12.2029 4.02799C12.2309 3.37399 12.2449 2.72799 12.2449 2.08999L12.1819 2.05499C12.019 1.99101 11.8449 1.9604 11.6699 1.96499C11.0019 1.96499 10.3699 1.95799 9.76995 1.94099C9.16995 1.92399 8.54895 1.91299 7.88695 1.91299C7.03095 1.91299 6.23395 1.89599 5.44795 1.85699C4.6261 1.81604 3.80755 1.72453 2.99695 1.58299C2.94795 1.58299 2.83995 1.59699 2.73295 1.61099L2.35695 1.66999C2.33265 1.67449 2.30992 1.68516 2.29095 1.70099C2.29095 1.80899 2.27395 1.96199 2.26295 2.13299C2.10852 2.83716 2.03139 3.55608 2.03295 4.27699C2.03343 4.45235 2.04277 4.62757 2.06095 4.80199C2.07095 4.94099 2.08195 5.08399 2.08495 5.22699L2.18495 5.24099C2.42495 5.26499 2.72795 5.28299 3.08495 5.29699C3.36695 5.30699 3.66295 5.31099 3.96495 5.31799H4.22895C4.5899 5.32284 4.95022 5.34955 5.30795 5.39799L5.90795 5.48799L5.49395 5.93699C5.36955 6.07333 5.22107 6.18554 5.05595 6.26799L4.63495 6.47299C4.50658 6.5312 4.3823 6.59802 4.26295 6.67299C4.21795 6.70799 4.17595 6.73899 4.13395 6.77299C4.20695 6.99599 4.27995 7.25299 4.35695 7.53499C4.45695 7.88299 4.56195 8.23499 4.66995 8.56199C4.75873 8.84618 4.87181 9.1222 5.00795 9.38699C5.0443 9.46006 5.09113 9.52744 5.14695 9.58699C5.91234 9.31164 6.74261 9.27159 7.53095 9.47199C7.85172 9.54906 8.15638 9.6821 8.43095 9.86499C8.70228 10.0455 8.92955 10.2848 9.09595 10.565C9.27514 10.8818 9.36532 11.2411 9.35695 11.605C9.41342 12.3219 9.20254 13.0343 8.76495 13.605C8.52883 13.9097 8.20111 14.1306 7.83003 14.2352C7.45895 14.3397 7.06412 14.3223 6.70366 14.1856C6.3432 14.0488 6.03616 13.8 5.82774 13.4757C5.61933 13.1513 5.52055 12.7687 5.54595 12.384C5.54723 12.1998 5.56228 12.0159 5.59095 11.834C5.62604 11.6582 5.67247 11.4848 5.72995 11.315C5.68795 11.215 5.62995 11.186 5.61195 11.179C5.1695 11.0656 4.70603 11.0622 4.26195 11.169C3.77248 11.2478 3.27583 11.2727 2.78095 11.243C2.56895 11.229 2.36295 11.229 2.16095 11.229Z" fill="black"/>
</svg>
