<svg width="37" height="26" viewBox="0 0 37 26" fill="none" xmlns="http://www.w3.org/2000/svg">
<path d="M18.2391 17.122C17.9191 16.802 17.6091 16.478 17.3031 16.151C17.0057 15.8291 16.7323 15.4859 16.4851 15.124C16.7778 14.7089 17.106 14.3201 17.4661 13.962C17.8491 13.572 18.2211 13.196 18.5661 12.835C18.9111 12.474 19.2171 12.135 19.4661 11.819C19.6841 11.5945 19.8192 11.3025 19.8491 10.991C19.8586 10.9126 19.8452 10.8332 19.8106 10.7622C19.776 10.6913 19.7217 10.6318 19.6541 10.591C19.2519 10.208 18.8169 9.861 18.3541 9.554C17.8948 9.25133 17.4261 8.95333 16.9481 8.66C16.4711 8.368 16.0051 8.075 15.5421 7.776C15.0868 7.48542 14.6614 7.15045 14.2721 6.776C13.5508 7.30801 12.9017 7.93157 12.3411 8.631C11.7608 9.34482 11.2177 10.0881 10.7141 10.858C10.3353 10.631 10.0025 10.3349 9.73313 9.985C9.42013 9.602 9.12813 9.219 8.84613 8.837C8.56413 8.455 8.31013 8.12 8.07713 7.837C7.84413 7.554 7.64913 7.409 7.48913 7.409C6.99038 7.61512 6.51992 7.88395 6.08913 8.209C5.66395 8.52551 5.26285 8.87313 4.88913 9.249C4.51013 9.621 4.13713 10.008 3.78213 10.411C3.42713 10.814 3.05513 11.194 2.68213 11.566C3.06442 12.4949 3.59573 13.3552 4.25513 14.113C4.91449 14.8801 5.63666 15.5909 6.41413 16.238C6.12913 16.538 5.81413 16.864 5.46713 17.238C5.12013 17.612 4.78513 17.976 4.46713 18.352C4.18069 18.6981 3.91808 19.0633 3.68113 19.445C3.49733 19.7061 3.38558 20.011 3.35713 20.329C3.72913 20.712 4.13013 21.136 4.55713 21.589C4.98413 22.042 5.42713 22.469 5.86913 22.866C6.28496 23.2418 6.73604 23.5767 7.21613 23.866C7.60959 24.1148 8.0628 24.2529 8.52813 24.266C9.14707 23.7029 9.70148 23.0727 10.1811 22.387C10.6891 21.667 11.2011 21.002 11.7261 20.393C12.103 20.6929 12.4555 21.0223 12.7801 21.378C13.1591 21.785 13.5391 22.178 13.9111 22.554C14.2455 22.8981 14.5998 23.2224 14.9721 23.525C15.2143 23.7526 15.5253 23.8933 15.8561 23.925C16.2111 23.556 16.6251 23.125 17.1021 22.648C17.5791 22.171 18.0241 21.691 18.4381 21.239C18.8521 20.787 19.2041 20.362 19.4961 19.976C19.7131 19.7373 19.8632 19.4454 19.9311 19.13C19.7094 18.7572 19.4493 18.4087 19.1551 18.09C18.8681 17.763 18.5551 17.442 18.2391 17.122Z" fill="#1C3D01" fill-opacity="0.75"/>
<path d="M36.3361 15.472C36.1687 14.7871 35.904 14.1298 35.5501 13.52C35.1925 12.9027 34.7461 12.3414 34.2251 11.854C33.6653 11.3372 33.0232 10.9174 32.3251 10.612C32.6924 10.3627 33.0977 10.1746 33.5251 10.055C33.9431 9.93999 34.3741 9.81499 34.8091 9.67599C34.8371 8.83399 34.8705 7.97566 34.9091 7.10099C34.9441 6.22799 34.9651 5.36499 34.9651 4.51499C34.9651 4.38599 34.8501 4.27099 34.6271 4.17399C34.3673 4.0662 34.0874 4.01506 33.8061 4.02399C32.9568 4.02399 32.1485 4.01233 31.3811 3.98899C30.6151 3.96799 29.8051 3.95799 28.9591 3.95799C27.9185 3.95799 26.8805 3.93233 25.8451 3.881C24.8088 3.83098 23.7767 3.71474 22.7551 3.53299C22.6002 3.53141 22.4455 3.54177 22.2921 3.56399C22.1321 3.58799 21.9681 3.61299 21.7981 3.64099C21.5401 3.70399 21.4051 3.82899 21.3801 4.00999C21.3551 4.19099 21.3451 4.39299 21.3241 4.62599C21.1272 5.53503 21.0303 6.46288 21.0351 7.39299C21.0332 7.63004 21.0435 7.86702 21.0661 8.10299C21.0877 8.33568 21.097 8.56933 21.0941 8.80299C21.0941 8.92833 21.2578 9.00833 21.5851 9.04299C21.9121 9.07799 22.3121 9.10599 22.7851 9.11599C23.2581 9.12599 23.7451 9.14399 24.2641 9.15099C24.709 9.15278 25.1531 9.1862 25.5931 9.25099C25.4593 9.38756 25.3043 9.50169 25.1341 9.58899C24.9601 9.67599 24.7831 9.75999 24.6021 9.84299C24.4266 9.9264 24.2568 10.0216 24.0941 10.128C23.9343 10.2296 23.7921 10.3566 23.6731 10.504C23.7911 10.831 23.9101 11.224 24.0381 11.691C24.1661 12.158 24.2991 12.591 24.4381 13.031C24.5635 13.4141 24.7169 13.7875 24.8971 14.148C25.0641 14.458 25.2451 14.632 25.4401 14.66C26.0026 14.4277 26.6066 14.3127 27.2151 14.322C27.6154 14.3208 28.0142 14.3698 28.4021 14.468C28.7682 14.5561 29.1159 14.7081 29.4291 14.917C29.7257 15.116 29.974 15.3788 30.1561 15.686C30.3465 16.0294 30.4414 16.4175 30.4311 16.81C30.4988 17.6306 30.2664 18.4478 29.7771 19.11C29.5931 19.3373 29.361 19.521 29.0975 19.6479C28.834 19.7748 28.5456 19.8418 28.2531 19.844C27.7689 19.843 27.3036 19.6562 26.9531 19.322C26.7535 19.1269 26.5986 18.8909 26.4988 18.6303C26.399 18.3696 26.3568 18.0905 26.3751 17.812C26.3771 17.5952 26.3958 17.3789 26.4311 17.165C26.4733 16.9206 26.5421 16.6815 26.6361 16.452C26.6145 16.3313 26.5644 16.2176 26.49 16.1201C26.4155 16.0227 26.3189 15.9445 26.2081 15.892C25.9635 15.7956 25.702 15.7493 25.4391 15.756C25.0416 15.7556 24.6447 15.7871 24.2521 15.85C23.8973 15.9046 23.5391 15.9346 23.1801 15.94C22.9431 15.94 22.6861 15.933 22.4181 15.919C22.1501 15.905 21.8821 15.898 21.6111 15.898C21.3517 15.8937 21.0933 15.9302 20.8451 16.006C20.726 16.0485 20.6208 16.1229 20.5411 16.2211C20.4614 16.3194 20.4102 16.4376 20.3931 16.563C20.216 17.1357 20.1247 17.7315 20.1221 18.331C20.1112 19.3302 20.3826 20.3122 20.9051 21.164C21.4225 22.0153 22.102 22.7566 22.9051 23.346C23.7293 23.9587 24.6485 24.4317 25.6261 24.746C26.5856 25.0659 27.5898 25.2316 28.6011 25.237C29.7714 25.2576 30.9345 25.0497 32.0251 24.625C32.9639 24.2447 33.8148 23.676 34.5251 22.954C35.2037 22.2596 35.7299 21.4313 36.0701 20.522C36.423 19.5808 36.601 18.5831 36.5951 17.578C36.5944 16.8681 36.5075 16.1609 36.3361 15.472Z" fill="#1C3D01" fill-opacity="0.75"/>
<path d="M10.1161 17.556C9.59412 18.1647 9.07913 18.8294 8.57113 19.55C8.09271 20.2355 7.53965 20.8657 6.92212 21.429C6.45571 21.4169 6.00129 21.2787 5.60712 21.029C5.12704 20.7397 4.67595 20.4049 4.26012 20.029C3.81812 19.629 3.38312 19.208 2.94812 18.752L1.74812 17.492C1.77658 17.174 1.88833 16.8691 2.07212 16.608C2.30834 16.2271 2.57099 15.8632 2.85812 15.519C3.17146 15.1397 3.50479 14.7674 3.85812 14.402C4.20312 14.033 4.51912 13.702 4.80512 13.402C4.02878 12.7571 3.30914 12.0469 2.65413 11.279C1.99461 10.5219 1.46235 9.66272 1.07812 8.73503C1.45013 8.35903 1.81212 7.97603 2.17812 7.57603C2.54412 7.17603 2.90513 6.79003 3.28513 6.41403C3.65885 6.03816 4.05995 5.69054 4.48512 5.37403C4.91549 5.04833 5.38603 4.77945 5.88512 4.57403C6.04912 4.57403 6.24013 4.71703 6.47313 4.99903C6.70613 5.28103 6.96412 5.61503 7.24212 5.99903C7.52012 6.38303 7.82013 6.76503 8.13313 7.15103C8.40384 7.49971 8.73637 7.79564 9.11412 8.02403C9.61486 7.25087 10.1549 6.50389 10.7321 5.78603C11.2936 5.08744 11.9426 4.46399 12.6631 3.93103C13.0524 4.30548 13.4778 4.64045 13.9331 4.93103C14.3991 5.23103 14.8661 5.52303 15.3391 5.81503C15.8121 6.10703 16.2821 6.40703 16.7481 6.70903C17.2096 7.01781 17.6445 7.36469 18.0481 7.74603C18.1143 7.78801 18.1674 7.8478 18.2012 7.91855C18.235 7.9893 18.2481 8.06814 18.2391 8.14603C18.2111 8.4592 18.0758 8.75308 17.8561 8.97803C17.6051 9.28803 17.3061 9.62503 16.9561 9.99103C16.6061 10.357 16.2431 10.732 15.8561 11.118C15.4941 11.4744 15.1657 11.8633 14.8751 12.28C15.1198 12.6427 15.392 12.986 15.6891 13.307C15.9951 13.634 16.3051 13.958 16.6251 14.278C16.9451 14.598 17.2551 14.922 17.5511 15.249C17.8461 15.566 18.1063 15.9136 18.3271 16.286C18.2592 16.6014 18.1091 16.8933 17.8921 17.132C17.6001 17.518 17.2488 17.938 16.8381 18.392C16.4275 18.846 15.9808 19.317 15.4981 19.805C15.0251 20.285 14.6071 20.713 14.2521 21.082C13.9207 21.0493 13.6091 20.9088 13.3651 20.682C12.9959 20.3783 12.6441 20.0541 12.3111 19.711C11.9351 19.335 11.5561 18.938 11.1771 18.538C10.8508 18.1823 10.496 17.8539 10.1161 17.556Z" fill="white"/>
<path d="M7.04718 21.753H6.92218C6.39656 21.7408 5.88421 21.5855 5.44019 21.304C4.94355 21.0019 4.475 20.6558 4.04018 20.27C3.59818 19.87 3.15319 19.438 2.71119 18.97L1.42019 17.618V17.489C1.44716 17.1128 1.57497 16.7508 1.79018 16.441C2.03538 16.0481 2.30736 15.6725 2.60418 15.317C2.94518 14.903 3.27618 14.531 3.61718 14.176C3.86818 13.912 4.10419 13.661 4.32719 13.428C3.63663 12.8315 2.99213 12.1836 2.39919 11.49C1.71832 10.7062 1.16826 9.81783 0.770184 8.85899L0.690186 8.65899L0.840183 8.50599C1.21218 8.14099 1.56718 7.75399 1.92918 7.36099C2.29118 6.96799 2.66319 6.56799 3.04319 6.18499C3.43197 5.80275 3.8459 5.44696 4.28218 5.11999C4.73408 4.7772 5.22896 4.49513 5.75418 4.28099L5.87619 4.25299C6.14019 4.25299 6.40118 4.41999 6.71518 4.79899C6.95218 5.08399 7.20919 5.42499 7.49419 5.81199C7.77919 6.19899 8.06518 6.57099 8.37418 6.94999C8.55865 7.18641 8.77274 7.39814 9.01118 7.57999C9.46318 6.90099 9.95419 6.22999 10.4732 5.58999C11.0506 4.86853 11.7176 4.22366 12.4582 3.67099L12.6772 3.51099L12.8772 3.69899C13.2537 4.05809 13.6624 4.38179 14.0982 4.66599C14.5612 4.96599 15.0272 5.25099 15.4982 5.54299C15.9692 5.83499 16.4482 6.13499 16.9182 6.44299C17.3851 6.7577 17.8262 7.10915 18.2372 7.49399C18.3445 7.56577 18.4307 7.66486 18.4869 7.78104C18.5432 7.89723 18.5674 8.02631 18.5572 8.15499C18.5313 8.54261 18.3715 8.9092 18.1052 9.19199C17.8162 9.53999 17.5052 9.89199 17.1832 10.226C16.8352 10.588 16.4702 10.967 16.0832 11.353C15.7888 11.6467 15.5154 11.9608 15.2652 12.293C15.4652 12.575 15.6851 12.8423 15.9232 13.093C16.2232 13.424 16.5352 13.744 16.8492 14.057C17.1762 14.388 17.4892 14.715 17.7892 15.045C18.0963 15.3787 18.369 15.7426 18.6032 16.131L18.6482 16.208V16.298C18.5888 16.6858 18.4147 17.047 18.1482 17.335C17.8482 17.735 17.4872 18.167 17.0732 18.623C16.6592 19.079 16.2072 19.556 15.7262 20.043C15.2452 20.53 14.8322 20.955 14.4842 21.32L14.3842 21.42H14.2482C13.8432 21.3894 13.4605 21.2227 13.1622 20.947C12.7793 20.636 12.4156 20.3021 12.0732 19.947C11.6972 19.571 11.3182 19.174 10.9352 18.771C10.6899 18.5046 10.4309 18.2513 10.1592 18.012C9.71052 18.5513 9.26985 19.1277 8.83718 19.741C8.3444 20.4461 7.77418 21.0938 7.13718 21.672L7.04718 21.753ZM2.08118 17.375L3.18119 18.53C3.61319 18.979 4.04818 19.403 4.47618 19.786C4.87945 20.1448 5.31459 20.4661 5.77618 20.746C6.08595 20.9432 6.43775 21.0648 6.80318 21.101C7.36637 20.5758 7.87251 19.9925 8.31319 19.361C8.81319 18.644 9.34318 17.961 9.87218 17.346L10.0722 17.109L10.3162 17.3C10.7068 17.6117 11.0723 17.9538 11.4092 18.323C11.7852 18.723 12.1612 19.109 12.5332 19.485C12.8591 19.8205 13.2044 20.1367 13.5672 20.432C13.7312 20.5735 13.9215 20.6812 14.1272 20.749C14.4505 20.4117 14.8219 20.03 15.2412 19.604C15.7412 19.104 16.1812 18.63 16.5952 18.177C16.9596 17.7828 17.3037 17.3702 17.6262 16.941C17.771 16.7628 17.8914 16.5661 17.9842 16.356C17.7867 16.0426 17.5607 15.748 17.3092 15.476C17.0092 15.145 16.7092 14.829 16.3902 14.509C16.0712 14.189 15.7532 13.862 15.4472 13.531C15.1365 13.1997 14.8536 12.8435 14.6012 12.466L14.4762 12.282L14.6012 12.101C14.9038 11.6682 15.2452 11.2639 15.6212 10.893C16.0042 10.51 16.3692 10.134 16.7102 9.77199C17.0272 9.44799 17.3262 9.11399 17.6012 8.77199C17.7683 8.60199 17.8757 8.3823 17.9072 8.14599C17.91 8.11013 17.9041 8.07414 17.8902 8.04099L17.8132 7.98899C17.4242 7.61822 17.004 7.28164 16.5572 6.98299C16.0982 6.68299 15.6352 6.38299 15.1572 6.09599C14.6792 5.80899 14.2142 5.50799 13.7442 5.21199C13.3494 4.95725 12.9758 4.67098 12.6272 4.35599C12.0134 4.83745 11.4564 5.38733 10.9672 5.99499C10.396 6.7035 9.86196 7.44116 9.36718 8.20499L9.20018 8.45899L8.93618 8.30599C8.52094 8.06023 8.15614 7.73785 7.86118 7.35599C7.54818 6.96999 7.24919 6.57999 6.96119 6.19399C6.67319 5.80799 6.43618 5.49399 6.20618 5.21299C6.12021 5.09648 6.01544 4.9951 5.89618 4.91299C5.45711 5.1013 5.04243 5.34205 4.66119 5.62999C4.25071 5.9402 3.86181 6.27798 3.49718 6.64099C3.12518 7.00999 2.75918 7.39599 2.40818 7.78899C2.08818 8.13699 1.77518 8.47799 1.45118 8.80199C1.81519 9.62423 2.30023 10.3874 2.89019 11.066C3.53361 11.8208 4.24162 12.5181 5.00618 13.15L5.27419 13.373L5.03418 13.624C4.74518 13.924 4.43419 14.254 4.08419 14.624C3.75319 14.965 3.43318 15.324 3.10318 15.724C2.82569 16.056 2.57206 16.4072 2.34418 16.775C2.22156 16.9578 2.1325 17.1609 2.08118 17.375Z" fill="black"/>
<path d="M30.7062 7.77092C31.4053 8.0761 32.0477 8.49738 32.6062 9.01692C33.6493 9.98941 34.384 11.2467 34.7192 12.6329C34.8918 13.3212 34.9785 14.0283 34.9772 14.7379C34.983 15.743 34.8051 16.7408 34.4522 17.6819C34.1112 18.592 33.5851 19.4215 32.9072 20.1179C32.1917 20.8321 31.3393 21.3943 30.4012 21.7709C29.3107 22.1968 28.1477 22.406 26.9772 22.3869C24.9261 22.3693 22.9324 21.7082 21.2772 20.4969C20.4775 19.9053 19.7986 19.166 19.2772 18.3189C18.7552 17.4658 18.4838 16.483 18.4942 15.4829C18.4987 14.8836 18.59 14.2881 18.7652 13.7149C18.7821 13.5895 18.8332 13.4712 18.913 13.373C18.9927 13.2747 19.098 13.2003 19.2172 13.1579C19.4654 13.0824 19.7238 13.046 19.9832 13.0499C20.2542 13.0499 20.5222 13.0569 20.7942 13.0709C21.0662 13.0849 21.3162 13.0919 21.5562 13.0919C21.9138 13.0865 22.2707 13.0564 22.6242 13.0019C23.0167 12.9391 23.4136 12.9077 23.8112 12.9079C24.074 12.9012 24.3356 12.9475 24.5802 13.0439C24.6913 13.0959 24.7883 13.174 24.8628 13.2715C24.9373 13.369 24.9872 13.483 25.0082 13.6039C24.9168 13.8357 24.8481 14.0758 24.8032 14.3209C24.7677 14.5348 24.749 14.7511 24.7472 14.9679C24.7288 15.246 24.7709 15.5247 24.8707 15.7849C24.9705 16.0451 25.1256 16.2805 25.3252 16.4749C25.6753 16.8099 26.1406 16.9978 26.6252 16.9999C26.9179 16.997 27.2064 16.9293 27.4699 16.8017C27.7334 16.6741 27.9653 16.4898 28.1492 16.2619C28.6418 15.6012 28.8758 14.7832 28.8072 13.9619C28.8162 13.5692 28.7203 13.1812 28.5292 12.8379C28.3471 12.5307 28.0987 12.268 27.8022 12.0689C27.4902 11.8653 27.145 11.7178 26.7822 11.6329C26.3936 11.532 25.9937 11.4815 25.5922 11.4829C24.9837 11.4736 24.3797 11.5886 23.8172 11.8209C23.6222 11.7929 23.4412 11.6209 23.2782 11.3129C23.0947 10.9525 22.9412 10.5775 22.8192 10.1919C22.6762 9.75692 22.5442 9.30792 22.4192 8.85192C22.2942 8.39592 22.1722 7.99192 22.0542 7.66492C22.1732 7.51756 22.3154 7.39056 22.4752 7.28892C22.6396 7.18308 22.8106 7.08789 22.9872 7.00392C23.1642 6.91992 23.3422 6.83692 23.5162 6.74992C23.6876 6.66271 23.8439 6.5486 23.9792 6.41192C23.5366 6.34888 23.0902 6.31548 22.6432 6.31192C22.1282 6.30492 21.6372 6.29492 21.1642 6.27692C20.6912 6.25892 20.3012 6.23892 19.9742 6.20392C19.6472 6.16892 19.4832 6.08892 19.4832 5.96392C19.4836 5.73014 19.4719 5.4965 19.4482 5.26392C19.4272 5.03092 19.4202 4.79392 19.4202 4.55792C19.4144 3.62662 19.5124 2.69756 19.7122 1.78792C19.7292 1.55492 19.7432 1.34592 19.7682 1.16892C19.7932 0.991923 19.9282 0.868923 20.1792 0.803923L20.6792 0.726923C20.8313 0.706344 20.9847 0.695988 21.1382 0.695923C22.1599 0.876749 23.1919 0.993974 24.2282 1.04692C25.2648 1.09559 26.3018 1.11992 27.3392 1.11992C28.1918 1.11992 29.0005 1.13159 29.7652 1.15492C30.5298 1.17826 31.3382 1.18859 32.1902 1.18592C32.4727 1.17731 32.7538 1.22842 33.0152 1.33592C33.2342 1.43592 33.3492 1.54792 33.3492 1.67692C33.3492 2.52592 33.3282 3.38892 33.2932 4.26292C33.2582 5.13692 33.2232 5.99592 33.1932 6.83792C32.7582 6.97692 32.3262 7.10192 31.9092 7.21692C31.4807 7.33502 31.0744 7.52214 30.7062 7.77092Z" fill="white"/>
<path d="M26.9762 22.7129C24.8574 22.696 22.7975 22.0131 21.0882 20.7609C20.2565 20.143 19.5494 19.3731 19.0042 18.4919C18.4544 17.5859 18.1677 16.5447 18.1762 15.4849C18.18 14.8537 18.276 14.2264 18.4612 13.6229C18.4906 13.4455 18.5681 13.2796 18.6854 13.1433C18.8027 13.0069 18.9552 12.9055 19.1262 12.8499C19.679 12.7205 20.25 12.6867 20.8142 12.7499C21.4041 12.797 21.9975 12.7749 22.5822 12.6839C23.2862 12.5259 24.0187 12.5476 24.7122 12.7469C24.8701 12.8175 25.0086 12.9252 25.1159 13.0608C25.2231 13.1965 25.296 13.356 25.3282 13.5259L25.3522 13.6259L25.3172 13.7259C25.2313 13.9355 25.1682 14.1538 25.1292 14.3769C25.095 14.5751 25.0776 14.7758 25.0772 14.9769C25.0599 15.2089 25.0929 15.4419 25.174 15.6599C25.2551 15.8779 25.3824 16.0758 25.5472 16.2399C25.708 16.3966 25.9004 16.5171 26.1115 16.5933C26.3226 16.6696 26.5476 16.6998 26.7714 16.682C26.9951 16.6642 27.2125 16.5988 27.4089 16.4901C27.6053 16.3815 27.7762 16.2321 27.9102 16.0519C28.3468 15.4503 28.552 14.7115 28.4882 13.9709C28.4968 13.6364 28.415 13.3058 28.2512 13.0139C28.0954 12.748 27.8827 12.5199 27.6282 12.3459C27.3439 12.1621 27.031 12.0269 26.7022 11.9459C25.7866 11.7142 24.8215 11.7751 23.9422 12.1199L23.8582 12.1549L23.7682 12.1409C23.5932 12.0998 23.431 12.0164 23.2957 11.898C23.1604 11.7796 23.0562 11.6299 22.9922 11.4619C22.7991 11.0867 22.6385 10.6956 22.5122 10.2929C22.3662 9.85494 22.2372 9.40194 22.1052 8.93894C21.9732 8.47594 21.8582 8.09294 21.7472 7.77294L21.6862 7.60194L21.7972 7.46294C21.9353 7.28637 22.1023 7.13454 22.2912 7.01394C22.467 6.90129 22.6494 6.79911 22.8372 6.70794L22.9802 6.64194L22.6322 6.63194C22.1172 6.62494 21.6232 6.61494 21.1462 6.59694C20.7042 6.58694 20.2902 6.56194 19.9322 6.51994C19.4172 6.46394 19.1532 6.27594 19.1532 5.95994C19.155 5.73788 19.1447 5.51588 19.1222 5.29494C19.0982 5.04794 19.0912 4.80094 19.0912 4.55394C19.0845 3.59803 19.1851 2.64439 19.3912 1.71094C19.3982 1.51994 19.4152 1.31094 19.4402 1.11894C19.4652 0.926944 19.5762 0.627943 20.0872 0.485943L20.6262 0.401944C20.7919 0.378623 20.9589 0.366927 21.1262 0.366943C22.1513 0.548129 23.1866 0.665356 24.2262 0.717944C26.0182 0.804944 28.0362 0.773944 29.7592 0.828944C30.5245 0.846277 31.3295 0.85561 32.1742 0.856944C32.5012 0.847709 32.8263 0.908041 33.1282 1.03394C33.4792 1.18694 33.6532 1.40294 33.6532 1.67094C33.6532 2.53094 33.6362 3.40694 33.6012 4.27094C33.5632 5.14761 33.5299 6.00594 33.5012 6.84594L33.4942 7.07594L33.2752 7.14194C32.8372 7.28494 32.4022 7.40994 31.9752 7.52794C31.7692 7.58507 31.5685 7.65968 31.3752 7.75094C31.8962 8.03153 32.3791 8.37768 32.8122 8.78094C33.3572 9.29022 33.8248 9.87642 34.2002 10.5209C34.5701 11.1584 34.8443 11.8468 35.0142 12.5639C35.1927 13.2762 35.2827 14.0077 35.2822 14.7419C35.2848 15.7858 35.1009 16.8217 34.7392 17.8009C34.3786 18.7511 33.828 19.6177 33.1212 20.3479C32.3745 21.0916 31.4859 21.6775 30.5082 22.0709C29.3836 22.5117 28.184 22.7297 26.9762 22.7129ZM19.9882 13.3759C19.7624 13.3737 19.5374 13.404 19.3202 13.4659C19.2402 13.4939 19.1392 13.5529 19.0832 13.7899C18.916 14.3396 18.8281 14.9104 18.8222 15.4849C18.8133 16.4247 19.0676 17.3482 19.5562 18.1509C20.056 18.963 20.7067 19.6717 21.4732 20.2389C22.7232 21.1572 24.1815 21.7507 25.7175 21.9663C27.2534 22.1818 28.8188 22.0126 30.2732 21.4739C31.1712 21.1125 31.9874 20.5741 32.6732 19.8909C33.3193 19.2264 33.8223 18.4365 34.1512 17.5699C34.4868 16.6647 34.6562 15.7064 34.6512 14.7409C34.6516 14.0584 34.5687 13.3784 34.4042 12.7159C34.0872 11.3863 33.3836 10.1803 32.3822 9.24994C31.849 8.75754 31.2372 8.3577 30.5722 8.06694L30.0432 7.82994L30.5232 7.50294C30.9204 7.23567 31.3575 7.03315 31.8182 6.90294C32.1632 6.80894 32.5182 6.70794 32.8722 6.59694C32.9002 5.82794 32.9282 5.04094 32.9622 4.24494C32.9972 3.40294 33.0182 2.54494 33.0182 1.69794C32.9942 1.69794 32.9692 1.66994 32.8752 1.62794C32.6544 1.54267 32.4188 1.50255 32.1822 1.50994C31.3292 1.50994 30.5222 1.49994 29.7502 1.48194C28.0142 1.42594 25.9992 1.45794 24.2072 1.37094C23.1557 1.31752 22.1087 1.19795 21.0722 1.01294C20.9922 1.01994 20.8562 1.02994 20.7142 1.04794L20.2142 1.12494C20.1372 1.14894 20.0822 1.18794 20.0782 1.20894C20.0542 1.38294 20.0402 1.58494 20.0262 1.80894C19.8274 2.71299 19.7295 3.6363 19.7342 4.56194C19.7342 4.79194 19.7412 5.01394 19.7622 5.24094C19.783 5.44327 19.7934 5.64654 19.7932 5.84994C19.8607 5.86604 19.9292 5.87773 19.9982 5.88494C20.3422 5.92694 20.7362 5.94794 21.1642 5.95794C21.6372 5.97494 22.1242 5.98594 22.6392 5.99294C23.1002 5.99679 23.5605 6.03019 24.0172 6.09294L24.6402 6.19294L24.1982 6.64194C24.0395 6.80615 23.8533 6.9415 23.6482 7.04194C23.4742 7.12894 23.2932 7.21894 23.1092 7.30294C22.9472 7.38188 22.7894 7.46899 22.6362 7.56394C22.5569 7.61645 22.4823 7.67567 22.4132 7.74094C22.5132 8.04094 22.6132 8.37794 22.7232 8.76794C22.8482 9.21694 22.9772 9.66794 23.1232 10.0939C23.24 10.4612 23.3865 10.8184 23.5612 11.1619C23.6159 11.2857 23.6996 11.3944 23.8052 11.4789C24.7844 11.1196 25.8494 11.0648 26.8602 11.3219C27.2597 11.4195 27.6398 11.5842 27.9842 11.8089C28.3191 12.0372 28.5995 12.3367 28.8052 12.6859C29.0275 13.0783 29.1404 13.5231 29.1322 13.9739C29.2013 14.8729 28.9376 15.7658 28.3912 16.4829C28.1784 16.7462 27.9097 16.9589 27.6046 17.1057C27.2996 17.2526 26.9658 17.3298 26.6272 17.3319C26.0635 17.3289 25.522 17.1111 25.1132 16.7229C24.8807 16.4987 24.6993 16.2269 24.5816 15.926C24.4639 15.6252 24.4126 15.3025 24.4312 14.9799C24.4313 14.7455 24.45 14.5114 24.4872 14.2799C24.5277 14.0498 24.5893 13.8238 24.6712 13.6049C24.6572 13.5498 24.6308 13.4985 24.5941 13.4551C24.5574 13.4116 24.5112 13.377 24.4592 13.3539C23.8754 13.2048 23.2644 13.1976 22.6772 13.3329C22.0486 13.428 21.4113 13.4525 20.7772 13.4059C20.5172 13.3839 20.2512 13.3759 19.9882 13.3759Z" fill="black"/>
</svg>
