<svg width="49" height="47" viewBox="0 0 49 47" fill="none" xmlns="http://www.w3.org/2000/svg">
<path d="M48.363 22.761L48.401 22.677C48.522 22.4155 48.6175 22.1429 48.686 21.863L48.703 21.79C48.7775 21.471 48.8078 21.1433 48.793 20.816C48.7937 20.7939 48.796 20.7718 48.8 20.75H48.79C48.7726 20.3536 48.6877 19.963 48.539 19.595C47.69 17.552 46.629 17.333 44.189 16.995L34.769 15.624L34.72 15.524L30.563 7.08401C30.299 6.55501 30.069 6.09601 29.836 5.70601C29.7297 5.5422 29.6145 5.3843 29.491 5.23301C29.3707 5.0494 29.237 4.87493 29.091 4.71101C28.9634 4.60068 28.8246 4.50383 28.677 4.42201C28.5162 4.29218 28.3411 4.18113 28.155 4.09101C27.9654 4.0283 27.7711 3.98049 27.574 3.94801C27.3805 3.88507 27.1827 3.83627 26.982 3.80201V3.83401C26.882 3.82401 26.825 3.78901 26.718 3.78201C24.094 3.59101 22.744 6.29101 22.718 6.33601L18.135 15.627L8.64503 17.005C6.62303 17.37 5.55104 17.638 4.79604 18.884L4.78204 18.877C4.76804 18.901 4.75804 18.94 4.74004 18.964C4.5897 19.227 4.46062 19.5015 4.35403 19.785C4.24827 20.0646 4.18099 20.3573 4.15404 20.655L4.14404 20.7H4.15105C4.13033 21.3248 4.23464 21.9474 4.45789 22.5312C4.68113 23.1151 5.01879 23.6485 5.45103 24.1L12.995 31.45L11.256 41.639C11.166 43.4 11.242 44.416 12.119 45.339L12.105 45.356C12.3738 45.6323 12.6738 45.8763 12.999 46.083C13.3361 46.3084 13.7111 46.471 14.106 46.563C14.2646 46.5912 14.4251 46.6076 14.586 46.612C14.7611 46.641 14.9378 46.6597 15.115 46.668L15.122 46.654C15.7962 46.6206 16.4577 46.4587 17.071 46.177L17.638 45.877C17.6728 45.8584 17.7062 45.8373 17.738 45.814V45.824L26.291 41.324L26.456 41.234L35.156 45.817L35.187 45.841L35.9 46.213C36.1429 46.3169 36.3917 46.4064 36.645 46.481C36.745 46.509 36.868 46.519 36.983 46.547C37.1755 46.5936 37.371 46.627 37.568 46.647C37.7096 46.6557 37.8515 46.6557 37.993 46.647C38.1914 46.645 38.3893 46.6276 38.585 46.595C38.7475 46.5616 38.907 46.5151 39.062 46.456C39.1826 46.4312 39.3012 46.3978 39.417 46.356L39.396 46.314C39.5688 46.2557 39.7361 46.1824 39.896 46.095C41.681 44.915 41.754 43.857 41.64 41.55L39.907 31.465L40.095 31.284L47.58 23.984C47.671 23.876 47.78 23.723 47.904 23.552L47.981 23.434C48.1255 23.2198 48.2532 22.9948 48.363 22.761Z" fill="black" fill-opacity="0.6"/>
<path d="M44.8229 16.34C43.9739 14.297 42.9129 14.078 40.4729 13.74L31.0529 12.372L26.8459 3.82898C25.7529 1.61598 25.2069 0.68698 23.0039 0.52298C20.3799 0.33198 19.0299 3.03198 19.0039 3.08098L14.4209 12.372L4.93094 13.747C2.48794 14.189 1.43094 14.464 0.639941 16.527C0.4106 17.2791 0.391875 18.0797 0.585818 18.8417C0.779761 19.6038 1.17894 20.298 1.73993 20.849L9.28394 28.202L7.54094 38.384C7.42594 40.625 7.52694 41.666 9.28394 42.828C9.89674 43.193 10.5933 43.394 11.3063 43.4115C12.0194 43.429 12.725 43.2625 13.3549 42.928L13.9189 42.628C13.954 42.6115 13.9875 42.5917 14.0189 42.569V42.579L22.7329 37.989L31.4399 42.569L31.4709 42.593L32.1839 42.962C32.8061 43.2813 33.4992 43.437 34.1981 43.4144C34.897 43.3918 35.5787 43.1917 36.1789 42.833C37.9639 41.657 38.0369 40.599 37.9219 38.292L36.1969 28.2L43.8739 20.715C44.4111 20.1386 44.7828 19.4279 44.9498 18.6579C45.1168 17.8879 45.073 17.0871 44.8229 16.34Z" fill="#EB8225"/>
<g opacity="0.5">
<g style="mix-blend-mode:screen">
<path d="M23.2649 11.8369C23.2649 16.0929 23.0179 20.3589 23.1499 24.6119C25.2902 20.2103 27.9267 16.0677 31.0079 12.2649L26.8449 3.82692C25.7939 1.70792 25.2449 0.764922 23.2639 0.544922L23.2649 11.8369Z" fill="#EB8225"/>
</g>
<g style="mix-blend-mode:screen">
<path d="M29.9599 31.0739C28.3604 31.0689 26.7663 31.2593 25.2129 31.6409C24.4164 31.8329 23.6069 31.9666 22.7909 32.0409C22.7139 32.4999 22.6589 32.9629 22.6169 33.4259C22.5999 34.9749 22.5749 36.5259 22.5749 38.0749L22.7349 37.9849L31.4419 42.5649L31.4729 42.5889L32.1859 42.9579C32.729 43.228 33.3232 43.3794 33.9292 43.4021C34.5353 43.4249 35.1392 43.3185 35.7009 43.0899C34.9769 41.6559 34.1699 40.2399 33.4949 38.7819C32.3129 36.2109 31.1569 33.6319 29.9599 31.0739Z" fill="#EB8225"/>
</g>
<g style="mix-blend-mode:screen">
<path d="M18.2009 30.7399C14.5624 34.1947 11.2741 38.0005 8.38391 42.1019C8.65365 42.3761 8.95357 42.619 9.27792 42.8259C9.90168 43.2408 10.6416 43.4457 11.3899 43.4109C11.9469 42.1689 12.5069 40.9259 13.1609 39.7219C14.8079 36.7079 16.6389 33.7989 18.2009 30.7399Z" fill="#EB8225"/>
</g>
<g style="mix-blend-mode:screen">
<path d="M4.86293 18.7899C5.74293 19.1169 6.63392 19.3899 7.53192 19.6559C6.90892 19.2559 6.29693 18.8489 5.69093 18.4559C4.17693 17.4779 2.64293 16.5279 1.06993 15.6229C0.90243 15.9105 0.759256 16.2115 0.641922 16.5229C0.53341 16.8179 0.462201 17.1253 0.429932 17.4379C1.87393 18.0449 3.62093 18.3269 4.86293 18.7899Z" fill="#EB8225"/>
</g>
<g style="mix-blend-mode:screen">
<path d="M15.8669 9.44287L14.4229 12.3699C16.6306 13.8326 18.5362 15.7063 20.0359 17.8889C19.1519 15.4529 16.9979 11.9139 15.8669 9.44287Z" fill="#EB8225"/>
</g>
<g style="mix-blend-mode:screen">
<path d="M38.1629 19.6349C36.5029 20.2409 34.8429 20.8429 33.2149 21.5209C32.1329 21.9729 30.8349 22.3349 29.7319 22.8919C31.1099 22.5469 32.7629 21.7919 33.7059 22.7389C34.0399 23.0769 33.7959 23.5079 33.5059 23.7619C33.0609 24.1519 32.5869 24.5549 32.1419 24.9829C33.4996 26.0721 34.9168 27.085 36.3869 28.0169L43.8719 20.7169C44.6543 19.8271 45.0858 18.6828 45.0859 17.4979C42.7739 18.1909 40.4319 18.7959 38.1629 19.6349Z" fill="#EB8225"/>
</g>
</g>
<path d="M41.6129 16.475C40.8929 14.728 39.9839 14.54 37.8959 14.255L29.8509 13.082L26.2509 5.78802C25.3219 3.88802 24.8509 3.08802 22.9659 2.95902C20.7319 2.79502 19.5769 5.10602 19.5559 5.14402L15.6409 13.082L7.52894 14.262C5.43794 14.638 4.52893 14.871 3.85793 16.632C3.66178 17.2763 3.64638 17.9621 3.81338 18.6146C3.98038 19.2671 4.32337 19.8612 4.80494 20.332L11.2499 26.617L9.74993 35.324C9.64993 37.234 9.73593 38.124 11.2499 39.124C11.7745 39.4326 12.3694 39.6017 12.9779 39.6151C13.5864 39.6286 14.1882 39.486 14.7259 39.201L15.2059 38.947L15.2969 38.888V38.898L22.7399 34.98L30.1869 38.891H30.1799L30.2109 38.912L30.8229 39.232C31.353 39.5048 31.9435 39.6387 32.5393 39.6212C33.1352 39.6037 33.7168 39.4354 34.2299 39.132C35.7609 38.119 35.8199 37.218 35.7189 35.238L34.2439 26.625L40.8039 20.232C41.2657 19.7374 41.5848 19.1268 41.7273 18.4652C41.8697 17.8037 41.8302 17.1159 41.6129 16.475Z" fill="#F4C23C"/>
<g style="mix-blend-mode:screen" opacity="0.9">
<path d="M35.941 35.2V35.183L34.4 26.655L40.8 20.214L34.14 26.502L34.088 26.558L34.102 26.635L35.502 35.244C35.502 35.599 35.523 35.964 35.516 36.312C35.5135 36.6561 35.4692 36.9986 35.384 37.332C35.3417 37.4909 35.2823 37.6448 35.207 37.791C35.13 37.937 35.026 38.059 34.936 38.198L34.588 38.543L34.146 38.863C34.0087 38.9506 33.8669 39.0307 33.721 39.103C33.568 39.176 33.404 39.214 33.251 39.27C33.087 39.305 32.92 39.329 32.751 39.35C32.5842 39.357 32.4173 39.3536 32.251 39.34C31.9145 39.3002 31.5833 39.2244 31.263 39.114L31.012 39.014L30.946 38.99L30.927 38.983L30.906 38.969L30.781 38.903L30.339 38.67L29.859 38.416L22.878 34.716L22.739 34.646L22.6069 34.716L15.6069 38.429V38.342L15.151 38.662C15.04 38.735 14.851 38.826 14.699 38.906C14.5516 38.9849 14.3981 39.0518 14.24 39.106C13.9227 39.2254 13.5918 39.305 13.255 39.343C13.084 39.364 12.921 39.343 12.755 39.353C12.595 39.332 12.428 39.308 12.268 39.283C12.118 39.227 11.968 39.196 11.816 39.133C11.67 39.053 11.475 38.952 11.364 38.889L10.946 38.579C10.821 38.479 10.709 38.353 10.584 38.234C10.476 38.112 10.393 37.973 10.295 37.844C10.2244 37.6959 10.1629 37.5436 10.111 37.388C10.083 37.228 10.021 37.075 10.011 36.901C9.98866 36.7312 9.97696 36.5602 9.97595 36.389C9.96195 36.044 9.96896 35.689 9.98296 35.335L11.396 26.635L11.406 26.562L11.354 26.506L4.81195 20.326L11.093 26.659L9.52696 35.28V35.29V35.304C9.51296 35.669 9.49196 36.028 9.50296 36.404C9.4991 36.5926 9.5108 36.7813 9.53795 36.968C9.553 37.1611 9.58649 37.3523 9.63795 37.539C9.70006 37.7262 9.77558 37.9087 9.86395 38.085C9.96743 38.254 10.0824 38.4157 10.208 38.569C10.351 38.694 10.476 38.844 10.622 38.969L11.081 39.31C11.272 39.428 11.401 39.487 11.572 39.585C11.746 39.662 11.951 39.717 12.136 39.78C12.336 39.818 12.5259 39.846 12.7169 39.867C12.9119 39.86 13.103 39.877 13.305 39.853C13.6808 39.8163 14.0504 39.732 14.405 39.602C14.5871 39.5385 14.7648 39.463 14.937 39.376L14.979 39.359L15.132 39.275L15.177 39.251L15.414 39.126L22.7319 35.302L30.054 39.126L30.1199 39.157L30.172 39.185L30.294 39.251L30.36 39.289L30.499 39.359L30.534 39.376L30.659 39.439L30.683 39.456C30.742 39.48 30.718 39.466 30.739 39.48L30.798 39.504L31.056 39.604C31.4227 39.7369 31.8053 39.8213 32.194 39.855C32.3895 39.8719 32.5859 39.8766 32.782 39.869C32.973 39.848 33.172 39.813 33.363 39.775C33.5508 39.7214 33.7346 39.6545 33.9129 39.575C34.0899 39.475 34.261 39.401 34.435 39.275L34.8699 38.948L35.298 38.527C35.409 38.36 35.545 38.2 35.636 38.027C35.7223 37.8466 35.7932 37.6593 35.848 37.467C35.9385 37.0936 35.9805 36.7101 35.973 36.326C35.983 35.947 35.959 35.588 35.938 35.216L35.941 35.2Z" fill="#F4C23C"/>
</g>
<g style="mix-blend-mode:screen" opacity="0.7">
<path d="M22.9899 20.849C29.2609 20.672 36.1269 19.628 41.3709 15.977C40.6849 14.693 39.7629 14.505 37.8949 14.254L29.8499 13.081L26.2499 5.78704C25.3209 3.88704 24.8499 3.08704 22.9649 2.95804C20.7309 2.79404 19.5759 5.10504 19.5549 5.14304L15.6369 13.079L7.52493 14.259C5.57993 14.607 4.66494 14.837 3.99994 16.284C9.23694 20.279 16.5829 21.03 22.9899 20.849Z" fill="#F4C23C"/>
</g>
<g style="mix-blend-mode:screen" opacity="0.9">
<path d="M23.1149 6.22698C22.9439 5.22098 22.2869 4.38298 21.2599 4.99498C20.4225 5.68975 19.7798 6.59015 19.3949 7.60798C18.7199 8.89898 17.4219 11.07 17.7869 12.595C18.0449 13.656 19.0779 13.319 19.7869 12.873C20.9121 12.1895 21.8151 11.1948 22.3869 10.009C23.0122 8.85296 23.2663 7.53249 23.1149 6.22698Z" fill="#F4C23C"/>
</g>
<g style="mix-blend-mode:screen" opacity="0.9">
<path d="M16.9829 14.596C16.9995 14.5248 17.0007 14.4508 16.9863 14.3791C16.9719 14.3073 16.9422 14.2395 16.8994 14.1802C16.8566 14.1209 16.8015 14.0714 16.738 14.0352C16.6744 13.9989 16.6038 13.9767 16.531 13.97C15.894 13.845 15.264 14.53 15.017 15.017C14.943 15.1399 14.9069 15.2818 14.9134 15.425C14.9198 15.5683 14.9685 15.7064 15.0533 15.822C15.138 15.9377 15.2551 16.0257 15.3897 16.075C15.5244 16.1243 15.6706 16.1326 15.81 16.099C16.1134 16 16.3793 15.8106 16.572 15.556C16.8073 15.3151 16.9566 15.0034 16.997 14.669C16.997 14.649 16.9829 14.624 16.9829 14.596Z" fill="#F4C23C"/>
</g>
</svg>
