<svg width="46" height="46" viewBox="0 0 46 46" fill="none" xmlns="http://www.w3.org/2000/svg">
<path d="M45.593 19.6395C45.5966 19.6139 45.5966 19.588 45.593 19.5625H45.586C45.5704 19.1717 45.4868 18.7866 45.339 18.4245C44.504 16.4095 43.46 16.1905 41.055 15.8635V15.8615L31.781 14.5145L31.732 14.4145L27.637 6.10246C27.505 5.83446 27.383 5.58746 27.261 5.36146C27.226 5.28846 27.191 5.22946 27.161 5.16146C27.074 5.01546 26.994 4.86146 26.917 4.72946C26.861 4.62946 26.802 4.54846 26.743 4.46146C26.684 4.37446 26.625 4.28046 26.569 4.19746C26.513 4.11446 26.43 4.02646 26.36 3.94646C26.308 3.88346 26.252 3.81746 26.196 3.76246C26.119 3.68546 26.032 3.61946 25.952 3.55046C25.893 3.50546 25.841 3.45646 25.781 3.41446C25.691 3.35546 25.586 3.30346 25.492 3.25446C25.422 3.21946 25.356 3.18146 25.292 3.15446C25.192 3.11246 25.073 3.08146 24.954 3.04646C24.874 3.01846 24.7904 2.99413 24.703 2.97346C24.585 2.94946 24.449 2.92446 24.317 2.90746C24.247 2.89746 24.188 2.88346 24.117 2.87246V2.88246C24.03 2.86846 23.95 2.85446 23.856 2.84746C21.272 2.66146 19.937 5.31946 19.915 5.36146L15.402 14.5105L6.05805 15.8735C4.06405 16.2315 3.01005 16.4925 2.26505 17.7215H2.25805L2.22005 17.7915C2.06656 18.0538 1.93511 18.3284 1.82705 18.6125C1.72631 18.8858 1.66241 19.1713 1.63705 19.4615L1.62305 19.5065H1.63005C1.60941 20.1235 1.71287 20.7384 1.93428 21.3147C2.1557 21.891 2.49057 22.417 2.91905 22.8615L10.337 30.1035L8.62305 40.1395C8.53605 41.8795 8.58805 42.8855 9.46505 43.7935V43.8005C9.50705 43.8495 9.56505 43.8905 9.61505 43.9395C9.68505 44.0025 9.74705 44.0685 9.82705 44.1305C9.99437 44.2679 10.1686 44.3967 10.349 44.5165C10.5204 44.6284 10.7007 44.7261 10.888 44.8085C10.958 44.8365 11.027 44.8535 11.097 44.8785C11.2063 44.9207 11.3178 44.9568 11.431 44.9865C11.5205 45.0075 11.6109 45.0239 11.702 45.0355C11.792 45.0495 11.876 45.0665 11.97 45.0775C12.064 45.0885 12.161 45.0775 12.255 45.0775C12.3105 45.0831 12.3663 45.0855 12.422 45.0845V45.0775C13.0866 45.0456 13.7388 44.8861 14.343 44.6075L14.907 44.3075C14.9417 44.2886 14.9751 44.2675 15.007 44.2445V44.2545L23.592 39.7375L32.163 44.2475L32.205 44.2715L32.905 44.6365C33.1147 44.7285 33.3298 44.8076 33.549 44.8735L33.622 44.8975C33.871 44.9679 34.1246 45.0203 34.3811 45.0545L34.496 45.0615C34.7749 45.0939 35.0568 45.0915 35.335 45.0545C35.373 45.0545 35.405 45.0445 35.446 45.0405C35.7563 44.9938 36.059 44.9061 36.346 44.7795L36.363 44.7725C36.5257 44.6993 36.6828 44.6144 36.833 44.5185C38.594 43.3525 38.663 42.3125 38.545 40.0365L36.845 30.1045L37.029 29.9305L44.403 22.7305C44.49 22.6305 44.603 22.4765 44.72 22.3095L44.8 22.1915C44.9368 21.9839 45.06 21.7678 45.169 21.5445L45.207 21.4575C45.32 21.2044 45.412 20.9426 45.482 20.6745C45.489 20.6395 45.4991 20.6115 45.5061 20.5805C45.5757 20.2719 45.605 19.9556 45.593 19.6395Z" fill="#1C3D01"/>
<path d="M43.7251 15.5925C42.8901 13.5815 41.8461 13.3615 39.4411 13.0315L30.1671 11.6815L26.0191 3.26651C24.9441 1.08851 24.4081 0.166507 22.2331 0.00950715C19.6541 -0.178493 18.3221 2.48351 18.2971 2.52851L13.7841 11.6775L4.4411 13.0405C2.0331 13.4755 0.9851 13.7405 0.2091 15.7755C-0.0163983 16.5166 -0.0340967 17.3054 0.157934 18.0559C0.349965 18.8064 0.744353 19.4898 1.2981 20.0315L8.7241 27.2735L7.0051 37.3065C6.8971 39.5065 6.9881 40.5325 8.7241 41.6775C9.32756 42.0348 10.0125 42.2316 10.7136 42.2491C11.4147 42.2666 12.1086 42.1043 12.7291 41.7775L13.2891 41.4775L13.3891 41.4145V41.4245L21.9731 36.9065L30.5441 41.4195V41.4125L30.5821 41.4365L31.2821 41.8055C31.895 42.1179 32.5771 42.2699 33.2647 42.2474C33.9523 42.2248 34.623 42.0284 35.2141 41.6765C36.9711 40.5145 37.0411 39.4765 36.9261 37.1975L35.2261 27.2695L42.7841 19.8995C43.3135 19.3324 43.6802 18.6331 43.8458 17.8752C44.0114 17.1173 43.9697 16.3287 43.7251 15.5925Z" fill="#EB8225"/>
<g opacity="0.5">
<g style="mix-blend-mode:screen">
<path d="M22.4981 11.1585C22.4981 15.3445 22.2511 19.5485 22.3831 23.7385C24.4897 19.4038 27.0853 15.3243 30.1191 11.5795L26.0191 3.26449C24.9891 1.17649 24.4501 0.247494 22.4971 0.0314941L22.4981 11.1585Z" fill="#EB8225"/>
</g>
<g style="mix-blend-mode:screen">
<path d="M29.085 30.1035C27.5104 30.0974 25.941 30.2844 24.412 30.6605C23.6275 30.8513 22.8295 30.9817 22.025 31.0505C21.948 31.5025 21.896 31.9625 21.854 32.4185C21.84 33.9425 21.819 35.4705 21.812 36.9945L21.976 36.9075L30.547 41.4205V41.4135L30.585 41.4375L31.285 41.8065C31.8201 42.0698 32.4046 42.2176 33.0005 42.2404C33.5964 42.2631 34.1904 42.1603 34.744 41.9385C34.024 40.5225 33.244 39.1305 32.573 37.6895C31.406 35.1595 30.261 32.6225 29.085 30.1035Z" fill="#EB8225"/>
</g>
<g style="mix-blend-mode:screen">
<path d="M17.5071 29.7765C13.9246 33.1774 10.6866 36.9235 7.84009 40.9605C8.10661 41.2311 8.4032 41.4703 8.72409 41.6735C9.33937 42.0806 10.0681 42.2816 10.8051 42.2475C11.3511 41.0265 11.9051 39.8015 12.5521 38.6175C14.1661 35.6545 15.9691 32.7865 17.5071 29.7765Z" fill="#EB8225"/>
</g>
<g style="mix-blend-mode:screen">
<path d="M4.367 18.0034C5.233 18.3234 6.114 18.5954 6.998 18.8594C6.387 18.4664 5.787 18.0634 5.182 17.6734C3.696 16.7094 2.182 15.7734 0.634 14.8824C0.467158 15.1668 0.324972 15.4649 0.209 15.7734C0.101594 16.0634 0.0313682 16.3658 0 16.6734C1.427 17.2734 3.146 17.5464 4.367 18.0034Z" fill="#EB8225"/>
</g>
<g style="mix-blend-mode:screen">
<path d="M15.2099 8.79553L13.7839 11.6765C15.9582 13.1191 17.8355 14.9655 19.3139 17.1155C18.4439 14.7145 16.3169 11.2275 15.2099 8.79553Z" fill="#EB8225"/>
</g>
<g style="mix-blend-mode:screen">
<path d="M37.1649 18.8355C35.5329 19.4355 33.8969 20.0255 32.2929 20.6975C31.2279 21.1425 29.9479 21.4975 28.8579 22.0475C30.2149 21.7095 31.8439 20.9615 32.7759 21.8945C33.1069 22.2285 32.8629 22.6495 32.5759 22.9005C32.1379 23.2865 31.6759 23.6795 31.2289 24.1005C32.5649 25.1742 33.9601 26.1721 35.4079 27.0895L42.7819 19.8965C43.555 19.0199 43.9817 17.8913 43.9819 16.7225C41.7069 17.4155 39.3959 18.0105 37.1649 18.8355Z" fill="#EB8225"/>
</g>
</g>
<path d="M40.5651 15.7245C39.8521 14.0055 38.9571 13.8175 36.9041 13.5395V13.5325L28.9771 12.3805L25.4311 5.19047C24.5161 3.32847 24.0561 2.53847 22.2021 2.41047C19.9951 2.25247 18.8521 4.52247 18.8371 4.56047L14.9781 12.3795L6.99112 13.5455C4.93412 13.9105 4.04012 14.1455 3.37212 15.8805C3.1801 16.5141 3.16584 17.1883 3.3309 17.8296C3.49597 18.4708 3.834 19.0543 4.30812 19.5165L10.6521 25.7085L9.18012 34.2825C9.09012 36.1615 9.17312 37.0425 10.6521 38.0165C11.1675 38.3221 11.7527 38.4904 12.3517 38.5051C12.9507 38.5198 13.5434 38.3805 14.0731 38.1005L14.5531 37.8495L14.6431 37.7905V37.8045L21.9791 33.9415L29.3081 37.7975V37.7905L29.3391 37.8115L29.9391 38.1285C30.4629 38.3967 31.0463 38.5273 31.6345 38.5079C32.2226 38.4885 32.7962 38.3197 33.3011 38.0175C34.8011 37.0255 34.8671 36.1345 34.7661 34.1935L33.3021 25.7085L39.7611 19.4085C40.214 18.9234 40.5277 18.3253 40.6692 17.6769C40.8107 17.0286 40.7747 16.3541 40.5651 15.7245Z" fill="#F4C23C"/>
<g style="mix-blend-mode:screen" opacity="0.9">
<path d="M34.9801 34.1705V34.1565L33.4571 25.7575L39.7571 19.4065L33.1971 25.6065L33.1451 25.6585L33.1591 25.7355L34.5341 34.2155C34.5441 34.5705 34.5581 34.9215 34.5511 35.2665C34.5477 35.6057 34.5044 35.9434 34.4221 36.2725C34.3787 36.4274 34.3204 36.5778 34.2481 36.7215C34.1662 36.8604 34.0757 36.994 33.9771 37.1215L33.6361 37.4625L33.2011 37.7825C33.0791 37.8665 32.9161 37.9395 32.7761 38.0195C32.6266 38.0835 32.4733 38.1382 32.3171 38.1835C32.1531 38.2115 31.9931 38.2395 31.8261 38.2565C31.6614 38.2653 31.4963 38.262 31.3321 38.2465C30.9982 38.2124 30.6698 38.1375 30.3541 38.0235L30.1141 37.9235L30.0481 37.9025L30.0381 37.8955L30.0101 37.8785L29.8951 37.8155L29.4571 37.5815L28.9841 37.3345L22.1111 33.6945L21.9751 33.6245L21.8461 33.6945L14.9461 37.3485L14.9531 37.2615L14.5041 37.5745C14.3961 37.6475 14.2041 37.7385 14.0591 37.8185C13.9119 37.8956 13.7595 37.9624 13.6031 38.0185C13.1365 38.1984 12.6376 38.2791 12.1381 38.2555C11.9811 38.2415 11.8141 38.2175 11.6581 38.1895C11.5081 38.1375 11.3691 38.1055 11.2131 38.0435C11.0701 37.9635 10.8791 37.8665 10.7711 37.7995L10.3601 37.4995C10.2311 37.3915 10.1201 37.2695 9.99811 37.1585C9.89811 37.0365 9.81011 36.9005 9.71611 36.7685C9.64742 36.6247 9.58698 36.4772 9.53511 36.3265C9.49078 36.169 9.45736 36.0086 9.43511 35.8465C9.41341 35.678 9.40072 35.5084 9.39711 35.3385C9.38311 35.0005 9.39711 34.6495 9.40411 34.3045L10.8041 25.7305L10.8141 25.6575L10.7581 25.6055L4.30811 19.5175L10.4951 25.7565L8.95711 34.2445V34.2705C8.94011 34.6285 8.92211 34.9875 8.92911 35.3525C8.93037 35.5373 8.94206 35.722 8.96411 35.9055C8.98059 36.0948 9.01406 36.2822 9.06411 36.4655C9.12462 36.6506 9.19916 36.8308 9.28711 37.0045C9.38762 37.1712 9.50167 37.3294 9.62811 37.4775C9.76411 37.6095 9.89211 37.7525 10.0351 37.8775L10.4841 38.2115C10.6751 38.3265 10.8041 38.3885 10.9681 38.4795C11.1321 38.5705 11.3441 38.6115 11.5281 38.6745C11.7191 38.7095 11.9111 38.7375 12.0991 38.7585C12.2895 38.7656 12.4801 38.7622 12.6701 38.7485C13.0457 38.7105 13.4152 38.6261 13.7701 38.4975C13.9472 38.4345 14.1204 38.3614 14.2891 38.2785L14.3311 38.2575L14.4811 38.1805L14.5261 38.1525L14.7521 38.0345L21.9691 34.2655L29.1761 38.0275L29.2421 38.0625L29.2941 38.0905L29.4091 38.1535L29.4791 38.1885L29.6181 38.2585L29.6491 38.2795L29.7711 38.3425L29.8021 38.3565C29.818 38.3654 29.8343 38.3734 29.8511 38.3805L29.9141 38.4045L30.1681 38.5045C30.5277 38.6364 30.9034 38.7195 31.2851 38.7515C31.4773 38.7688 31.6705 38.7722 31.8631 38.7615C32.0541 38.7405 32.2461 38.7095 32.4371 38.6715C32.6221 38.6164 32.8035 38.5496 32.9801 38.4715C33.1563 38.3842 33.3273 38.2867 33.4921 38.1795L33.9231 37.8595L34.3441 37.4415C34.4646 37.2858 34.5739 37.1217 34.6711 36.9505C34.7606 36.775 34.8316 36.5907 34.8831 36.4005C34.9737 36.0339 35.0157 35.657 35.0081 35.2795C35.0151 34.9035 34.9941 34.5485 34.9731 34.1865L34.9801 34.1705Z" fill="#F4C23C"/>
</g>
<g style="mix-blend-mode:screen" opacity="0.7">
<path d="M22.2192 20.0355C28.3962 19.8545 35.1642 18.8275 40.3322 15.2355C39.6532 13.9685 38.7422 13.7845 36.9042 13.5355V13.5285L28.9772 12.3765L25.4312 5.19047C24.5162 3.32847 24.0562 2.53847 22.2022 2.41047C19.9942 2.25247 18.8502 4.52247 18.8362 4.56047L14.9772 12.3795L6.99424 13.5455C5.08024 13.8835 4.17524 14.1095 3.52124 15.5325C8.67924 19.4755 15.9132 20.2135 22.2192 20.0355Z" fill="#F4C23C"/>
</g>
<g style="mix-blend-mode:screen" opacity="0.9">
<path d="M22.3441 5.6295C22.1771 4.6445 21.5251 3.8165 20.5251 4.4215C19.6954 5.10259 19.0589 5.98945 18.6791 6.9935C18.0111 8.2675 16.7341 10.4035 17.0961 11.9005C17.3501 12.9475 18.3731 12.6175 19.0731 12.1825C20.1766 11.504 21.0623 10.5232 21.6251 9.3565C22.2448 8.21854 22.496 6.9163 22.3441 5.6295Z" fill="#F4C23C"/>
</g>
<g style="mix-blend-mode:screen" opacity="0.9">
<path d="M16.3072 13.8804C16.3242 13.8102 16.3258 13.7372 16.3119 13.6663C16.2979 13.5955 16.2688 13.5285 16.2265 13.4699C16.1843 13.4114 16.1298 13.3627 16.0669 13.3272C16.004 13.2918 15.9342 13.2703 15.8622 13.2644C15.2362 13.1424 14.6162 13.8144 14.3692 14.2984C14.2973 14.4196 14.2629 14.5593 14.2703 14.7C14.2776 14.8407 14.3265 14.9761 14.4106 15.0891C14.4947 15.2021 14.6104 15.2877 14.7431 15.3351C14.8758 15.3824 15.0195 15.3895 15.1562 15.3554C15.4556 15.2618 15.7175 15.0755 15.9042 14.8234C16.1321 14.5854 16.2773 14.2804 16.3182 13.9534C16.3172 13.9224 16.3072 13.9014 16.3072 13.8804Z" fill="#F4C23C"/>
</g>
</svg>
