<svg width="865" height="68" viewBox="0 0 865 68" fill="none" xmlns="http://www.w3.org/2000/svg">
<path d="M289.595 50.0941V18.1021H0V58.6191C0 58.6191 1.051 62.991 4.944 62.991C5.895 62.991 7.159 59.524 7.91 57.337C9.052 62.9 12.28 61.6721 14.479 61.6721C15.628 61.6721 15.995 59.8171 15.995 58.3571C15.995 56.7661 15.953 55.678 15.902 54.957C16.337 56.834 17.802 60.379 22.031 60.379C23.718 60.379 22.257 59.8341 23.331 57.1041C24.769 60.1661 26.873 63.6971 29.701 63.6971C32.589 63.6971 30.377 57.676 33.368 57.676C35.325 57.676 36.997 60.355 39.123 60.355C39.7469 60.3255 40.3481 60.112 40.851 59.7416C41.3538 59.3711 41.7359 58.8602 41.949 58.2731C41.949 56.4131 42.156 54.5571 42.165 52.7661C42.665 52.7661 43.165 52.7611 43.665 52.7551C44.686 55.2971 46.552 57.2311 48.432 57.2311C50.442 57.2311 52.225 55.2671 52.253 52.5311L52.781 52.506C53.575 53.336 55.202 55.569 57.148 55.569C58.348 55.569 59.979 54.1691 60.7 51.9891C61.329 51.9371 61.958 51.889 62.588 51.827C63.964 53.827 65.455 55.8431 67.45 55.8431C67.731 55.8725 68.015 55.8419 68.2832 55.7533C68.5515 55.6647 68.7978 55.5201 69.006 55.329C68.6201 56.3867 68.4014 57.498 68.358 58.623C68.3394 59.7071 68.7489 60.7549 69.4977 61.5391C70.2465 62.3232 71.2742 62.7807 72.358 62.8121C75.039 62.8121 76.885 59.6961 76.885 57.3911C76.885 56.4801 76.669 55.6331 76.669 54.5621C76.669 58.2271 81.645 61.8021 82.277 61.8021C85.017 61.8021 83.117 60.9661 84.259 55.1191C85.943 58.3471 88.459 58.4291 90.999 58.8911C91.0266 58.897 91.0548 58.9 91.083 58.9C91.956 58.9 92.883 58.0191 93.64 56.8121C93.899 59.5451 95.012 62.467 97.147 62.467C99.081 62.467 99.77 58.1091 99.77 55.6331C101.645 58.0331 102.816 62.8571 105.46 62.8571C107.06 62.8571 107.542 61.8711 107.542 59.8301C107.542 50.4971 107.197 61.4031 115.054 61.4031C117.237 61.4031 118.454 59.738 119.034 57.397C119.38 57.5327 119.746 57.6088 120.117 57.6221C121.617 57.6221 122.775 56.4431 123.492 54.7081C123.906 54.7261 124.318 54.745 124.733 54.762C125.697 57.324 127.619 58.295 128.894 58.295C130.317 58.295 131.286 56.954 131.783 54.941C132.107 54.941 132.429 54.9521 132.755 54.9561C134.064 59.1931 137.207 62.3051 137.779 62.3051C139.552 62.3051 139.379 61.343 140.595 55.105C142.277 55.966 143.735 58.983 145.723 58.983C147.756 58.983 147.917 57.225 148.543 54.762C148.588 54.762 148.634 54.762 148.679 54.762C149.85 57.597 151.997 59.462 154.56 59.462C157.214 59.462 158.06 57.2621 158.368 54.4971C159.36 55.8221 160.534 56.832 161.616 56.832C162.527 56.832 163.723 55.8801 164.483 53.8881C164.538 53.8881 164.594 53.8801 164.649 53.8781C165.841 59.2781 168.991 62.7781 171.149 62.7781C172.3 62.7781 172.667 60.923 172.667 59.462C172.667 57.873 172.623 56.7851 172.573 56.0621C173.008 57.9421 174.473 61.485 178.702 61.485C180.39 61.485 178.928 60.9421 180.002 58.2101C181.44 61.2721 183.544 64.8051 186.372 64.8051C189.259 64.8051 187.048 58.782 190.039 58.782C191.998 58.782 193.667 61.4631 195.792 61.4631C196.416 61.4337 197.018 61.2201 197.521 60.8492C198.024 60.4783 198.406 59.9667 198.619 59.379C198.619 58.594 198.659 57.8091 198.703 57.0311C198.911 57.4859 199.238 57.8762 199.649 58.1611C200.061 58.4459 200.541 58.6148 201.04 58.65C202.973 58.65 203.663 54.292 203.663 51.816C205.537 54.216 206.709 59.0421 209.353 59.0421C210.953 59.0421 211.436 58.0551 211.436 56.0131C211.436 47.3331 211.136 56.154 217.418 57.433C217.64 57.7907 217.946 58.0887 218.309 58.3008C218.673 58.513 219.083 58.6328 219.503 58.65C220.363 58.65 220.975 57.785 221.392 56.608C222.253 55.6517 222.818 54.4667 223.02 53.196C224.436 55.696 225.62 59.04 227.82 59.04C229.42 59.04 229.902 58.0531 229.902 56.0131C229.902 46.6801 229.556 57.5861 237.413 57.5861C237.968 57.5931 238.516 57.4676 239.013 57.22C239.949 60.106 241.986 62.41 244.038 62.41C246.062 62.41 247.861 60.418 247.861 57.644C247.861 56.224 249.991 60.7441 252.755 60.7441C254.336 60.7441 256.679 58.304 256.679 54.861C258.526 57.222 260.316 61.019 263.057 61.019C263.338 61.0487 263.622 61.0184 263.89 60.9299C264.158 60.8415 264.405 60.697 264.613 60.506C264.227 61.563 264.009 62.6737 263.965 63.798C263.946 64.8823 264.355 65.9303 265.104 66.7147C265.853 67.4991 266.881 67.9566 267.965 67.988C270.644 67.988 272.492 64.8721 272.492 62.5671C272.492 61.6561 272.276 60.8091 272.276 59.7371C272.276 63.4031 277.251 66.9771 277.884 66.9771C280.624 66.9771 278.723 66.141 279.866 60.295C281.55 63.521 284.066 63.6061 286.604 64.0681C286.632 64.0723 286.66 64.0747 286.688 64.0751C288.678 64.0751 288.881 59.2621 288.881 56.7131C288.996 54.4952 289.234 52.2854 289.595 50.0941Z" fill="#4C8E39"/>
<path d="M251.546 18.102C252.366 13.825 253.889 9.37002 256.355 7.02502C254.662 7.57975 253.121 8.52194 251.856 9.77673C250.591 11.0315 249.636 12.5643 249.067 14.253C247.876 12.002 248.93 9.31403 248.751 6.80603C247.19 9.62203 247.187 12.982 245.851 15.875C244.985 10.988 243.371 7.36703 239.996 5.26703C242.733 8.66703 242.841 12.067 242.996 15.794C241.935 14.048 240.42 12.752 239.015 13.176C239.961 14.6419 240.445 16.3579 240.405 18.102H194.7C195.007 14.159 197.28 11.002 199.288 7.94403C197.801 8.564 196.452 9.47449 195.32 10.6222C194.189 11.7699 193.298 13.1317 192.7 14.628C191.855 10.382 193.018 6.394 193.5 2C191 3.757 190.063 8.74902 189.042 11.822C188.175 10.183 187.197 8.04202 186.296 6.63202C187.154 8.2232 187.465 10.0527 187.18 11.838C184.303 8.74901 182.067 5.10801 178.159 3.90601C180.714 6.67501 184.273 10.167 185.118 14.415C183.534 12.597 182.13 10.826 179.842 11.209C181.968 13.0102 183.497 15.4136 184.229 18.102H148.3C149.119 13.825 150.643 9.37002 153.109 7.02502C151.416 7.57976 149.875 8.52195 148.609 9.77673C147.344 11.0315 146.389 12.5642 145.82 14.253C144.629 12.002 145.684 9.31403 145.504 6.80603C143.944 9.62203 143.942 12.982 142.604 15.875C141.74 10.988 140.124 7.36703 136.749 5.26703C139.487 8.66703 139.594 12.067 139.749 15.794C138.688 14.048 137.173 12.752 135.768 13.176C136.714 14.6421 137.198 16.3579 137.159 18.102H73.25C74.026 13.584 75.584 8.69403 78.21 6.20203C76.5163 6.75632 74.9754 7.69825 73.7098 8.95288C72.4442 10.2075 71.489 11.7402 70.92 13.429C69.729 11.178 70.784 8.49103 70.606 5.98303C69.044 8.79803 69.04 12.161 67.706 15.053C66.84 10.166 65.226 6.54403 61.85 4.44403C64.587 7.84403 64.697 11.244 64.85 14.97C63.789 13.225 62.274 11.931 60.867 12.355C61.9653 14.0592 62.4372 16.0922 62.202 18.106H29.3C29.607 14.163 31.88 11.006 33.888 7.948C32.4006 8.56819 31.0519 9.47889 29.9209 10.6268C28.7898 11.7746 27.8992 13.1366 27.301 14.633C26.456 10.387 27.618 6.399 28.101 2.005C25.601 3.762 24.663 8.75403 23.641 11.827C22.774 10.188 21.798 8.04702 20.896 6.63702C21.7547 8.22807 22.0651 10.0578 21.779 11.843C18.902 8.75402 16.666 5.11301 12.76 3.91101C15.314 6.68001 18.874 10.172 19.716 14.42C18.132 12.602 16.728 10.831 14.44 11.214C16.5656 13.0153 18.0952 15.4186 18.827 18.107H0V44.157C0 44.157 1.057 48.704 4.944 48.463C7.033 48.332 7.739 45.811 7.91 41.193C9.052 46.754 12.28 46.334 14.479 46.334C15.628 46.334 15.995 44.479 15.995 43.019C15.995 41.428 15.953 40.34 15.902 39.619C16.337 41.499 17.802 45.042 22.031 45.042C23.718 45.042 22.257 44.499 23.331 41.767C24.769 44.83 26.873 48.362 29.701 48.362C32.589 48.362 30.377 42.341 33.368 42.341C35.325 42.341 36.997 45.02 39.123 45.02C39.7469 44.9904 40.3481 44.777 40.851 44.4065C41.3538 44.036 41.7359 43.5251 41.949 42.938C41.949 41.078 42.156 39.222 42.165 37.432C42.665 37.432 43.165 37.427 43.665 37.421C44.686 39.963 46.552 41.897 48.432 41.897C50.442 41.897 52.225 39.932 52.253 37.19L52.781 37.167C53.575 37.999 55.202 40.23 57.148 40.23C58.348 40.23 59.979 38.83 60.7 36.65C61.329 36.596 61.958 36.55 62.588 36.488C63.964 38.488 65.455 40.505 67.45 40.505C67.731 40.5344 68.015 40.5038 68.2832 40.4152C68.5515 40.3266 68.7978 40.182 69.006 39.991C68.6201 41.048 68.4015 42.1587 68.358 43.283C68.3389 44.3675 68.7481 45.4157 69.4969 46.2003C70.2458 46.9849 71.2738 47.4426 72.358 47.474C75.039 47.474 76.885 44.358 76.885 42.053C76.885 41.141 76.669 40.295 76.669 39.223C76.669 42.888 81.645 46.463 82.277 46.463C85.017 46.463 83.117 45.625 84.259 39.78C85.943 43.007 88.459 43.09 90.999 43.552C91.0267 43.5572 91.0548 43.5596 91.083 43.559C91.956 43.559 92.883 42.678 93.64 41.473C93.899 44.206 95.012 47.128 97.147 47.128C99.081 47.128 99.77 42.769 99.77 40.292C101.645 42.692 102.816 47.518 105.46 47.518C107.06 47.518 107.542 46.532 107.542 44.491C107.542 35.156 107.197 46.063 115.054 46.063C117.237 46.063 118.454 44.399 119.034 42.063C119.38 42.1981 119.746 42.2736 120.117 42.286C121.617 42.286 122.775 41.109 123.492 39.374C123.906 39.392 124.318 39.412 124.733 39.428C125.697 41.99 127.619 42.961 128.894 42.961C130.317 42.961 131.286 41.62 131.783 39.606C132.107 39.611 132.429 39.619 132.755 39.622C134.064 43.859 137.207 46.971 137.779 46.971C139.552 46.971 139.379 46.009 140.595 39.771C142.277 40.63 143.735 43.648 145.723 43.648C147.756 43.648 147.917 41.888 148.543 39.427C148.588 39.427 148.634 39.427 148.679 39.427C149.85 42.262 151.997 44.127 154.56 44.127C157.214 44.127 158.06 41.927 158.368 39.162C159.36 40.487 160.534 41.497 161.616 41.497C162.527 41.497 163.723 40.545 164.483 38.553C164.538 38.553 164.594 38.545 164.649 38.543C165.841 43.943 168.991 47.443 171.149 47.443C172.3 47.443 172.667 45.588 172.667 44.127C172.667 42.537 172.623 41.45 172.573 40.727C173.008 42.603 174.473 46.149 178.702 46.149C180.39 46.149 178.928 45.606 180.002 42.873C181.44 45.935 183.544 49.466 186.372 49.466C189.259 49.466 187.048 43.445 190.039 43.445C191.998 43.445 193.667 46.124 195.792 46.124C196.416 46.095 197.018 45.8818 197.521 45.5112C198.024 45.1407 198.406 44.6295 198.619 44.042C198.619 43.257 198.659 42.472 198.703 41.692C198.911 42.1467 199.238 42.5369 199.65 42.8216C200.061 43.1063 200.541 43.275 201.04 43.31C202.973 43.31 203.663 38.952 203.663 36.475C205.537 38.875 206.709 43.7 209.353 43.7C210.953 43.7 211.436 42.715 211.436 40.672C211.436 31.992 211.136 40.814 217.418 42.092C217.64 42.4497 217.946 42.7476 218.309 42.9598C218.673 43.1719 219.083 43.2918 219.503 43.309C220.363 43.309 220.975 42.444 221.392 41.267C222.252 40.311 222.817 39.1268 223.02 37.857C224.436 40.357 225.62 43.701 227.82 43.701C229.42 43.701 229.902 42.714 229.902 40.673C229.902 31.339 229.556 42.246 237.413 42.246C237.968 42.2533 238.517 42.1275 239.013 41.879C239.949 44.764 241.986 47.069 244.038 47.069C246.062 47.069 247.861 45.077 247.861 42.303C247.861 40.883 249.991 45.403 252.755 45.403C254.336 45.403 256.679 42.963 256.679 39.52C258.526 41.881 260.316 45.678 263.057 45.678C263.338 45.7078 263.622 45.6773 263.891 45.5885C264.159 45.4997 264.405 45.3546 264.613 45.163C264.227 46.2207 264.009 47.332 263.965 48.457C263.946 49.5413 264.355 50.5893 265.104 51.3737C265.853 52.158 266.881 52.6156 267.965 52.647C270.644 52.647 272.492 49.531 272.492 47.226C272.492 46.315 272.276 45.468 272.276 44.397C272.276 48.062 277.251 51.637 277.884 51.637C280.624 51.637 278.723 50.801 279.866 44.954C281.55 48.181 284.066 48.264 286.604 48.726C286.632 48.7318 286.66 48.7348 286.688 48.735C287.923 48.735 289.906 46.883 290.143 44.868V18.102H251.546Z" fill="#559B43"/>
<path d="M26.736 30.1941C27.388 30.1291 28.767 29.9571 28.767 29.1151C28.7013 28.6687 28.4742 28.2619 28.1286 27.9718C27.783 27.6817 27.3431 27.5284 26.892 27.541C24.792 27.541 25.139 29.3851 25.139 27.8571C25.0631 27.5196 24.8682 27.2208 24.59 27.0153C24.3118 26.8098 23.9689 26.7114 23.624 26.7381C22.881 26.7381 21.275 27.1111 21.275 28.1221C21.2636 28.324 21.2932 28.5262 21.3619 28.7165C21.4306 28.9067 21.5371 29.0811 21.675 29.2291C21.447 29.2171 21.188 29.21 20.885 29.21C20.132 29.21 19.52 29.5211 19.52 30.4901C19.52 31.6901 20.495 32.072 21.557 32.072C22.0433 32.0676 22.527 32.0004 22.996 31.8721C22.7844 32.2223 22.6781 32.626 22.69 33.0351C22.69 33.9501 23.174 34.2811 24.369 34.2811C24.8462 34.3278 25.3242 34.201 25.7155 33.9238C26.1067 33.6466 26.3849 33.2377 26.499 32.7721C26.7261 33.1338 27.0339 33.4379 27.3982 33.6607C27.7626 33.8835 28.1736 34.0188 28.599 34.0561C29.164 34.0561 30.11 33.7031 30.11 32.9451C30.112 32.2201 29.279 30.3671 26.736 30.1941Z" fill="#F7E68D"/>
<path d="M39.3091 26.395C39.6971 26.295 40.2811 26.104 40.2811 25.754C40.1411 25.4225 39.8995 25.144 39.5912 24.9586C39.2828 24.7731 38.9235 24.6903 38.5651 24.722C38.322 24.7105 38.079 24.7475 37.8504 24.8307C37.6217 24.914 37.4119 25.0419 37.2331 25.207C37.2331 25.655 36.1751 24.5441 35.4601 24.5441C35.2882 24.5533 35.125 24.6226 34.9991 24.74C34.8731 24.8573 34.7924 25.0152 34.7711 25.186C34.7711 25.833 36.1641 25.894 35.4021 25.894C34.6971 25.894 33.6891 26.094 33.6891 26.756C33.6891 27.132 33.9301 27.584 34.6641 27.584C34.9153 27.5791 35.1649 27.5428 35.4071 27.4761C35.3417 27.573 35.3069 27.6871 35.3071 27.804C35.3071 28.492 36.6401 28.934 37.4311 28.934C37.9021 28.934 39.0081 28.875 39.0081 28.274C39.0081 27.409 37.5571 27.7261 39.9081 27.7261C40.3861 27.7261 40.7761 27.591 40.7761 27.085C40.7761 26.167 39.9431 26.616 39.3091 26.395Z" fill="#E6AAE8"/>
<path d="M13.384 28.59C13.771 28.49 14.356 28.3011 14.356 27.9481C14.2162 27.6167 13.9745 27.3385 13.666 27.1537C13.3575 26.9689 12.9982 26.8871 12.64 26.92C12.3969 26.9083 12.1539 26.9452 11.9252 27.0284C11.6965 27.1117 11.4867 27.2397 11.308 27.405C11.308 27.852 10.249 26.744 9.53304 26.744C9.36139 26.7529 9.19838 26.8221 9.07271 26.9393C8.94704 27.0566 8.86676 27.2144 8.84604 27.3851C8.84604 28.0321 10.238 28.093 9.47604 28.093C8.77104 28.093 7.76404 28.293 7.76404 28.955C7.76404 29.329 8.00504 29.782 8.73904 29.782C8.99003 29.7763 9.23945 29.7407 9.48204 29.676C9.41688 29.7726 9.38206 29.8865 9.38203 30.0031C9.38203 30.6921 10.713 31.134 11.507 31.134C11.974 31.134 13.082 31.0761 13.082 30.4741C13.082 29.6101 11.63 29.925 13.982 29.925C14.459 29.925 14.848 29.791 14.848 29.285C14.848 28.362 14.018 28.811 13.384 28.59Z" fill="#E6AAE8"/>
<path d="M71.7 26.513C72.353 26.448 73.733 26.276 73.733 25.434C73.6671 24.9872 73.4394 24.5801 73.0933 24.2899C72.7471 23.9998 72.3065 23.8468 71.855 23.8599C69.755 23.8599 70.105 25.704 70.105 24.175C70.029 23.8379 69.8341 23.5394 69.5561 23.3341C69.2782 23.1289 68.9356 23.0305 68.591 23.057C67.846 23.057 66.242 23.43 66.242 24.442C66.2309 24.6439 66.2606 24.846 66.3293 25.0362C66.3981 25.2264 66.5044 25.4008 66.642 25.549C66.417 25.537 66.156 25.53 65.853 25.53C65.101 25.53 64.488 25.839 64.488 26.811C64.488 28.011 65.463 28.392 66.525 28.392C67.011 28.3877 67.4944 28.3205 67.963 28.192C67.7543 28.5432 67.6503 28.9467 67.663 29.355C67.663 30.27 68.146 30.601 69.342 30.601C69.819 30.6462 70.2963 30.5188 70.6872 30.2419C71.0781 29.965 71.3566 29.5569 71.472 29.092C71.6991 29.4537 72.0069 29.7578 72.3712 29.9806C72.7356 30.2034 73.1466 30.3388 73.572 30.376C74.134 30.376 75.083 30.022 75.083 29.263C75.077 28.539 74.243 26.686 71.7 26.513Z" fill="#F7E68D"/>
<path d="M63.701 32.325C64.226 32.192 65.018 31.931 65.018 31.455C64.829 31.0048 64.5016 30.6266 64.0832 30.3749C63.6649 30.1232 63.1773 30.0112 62.691 30.055C62.3624 30.0399 62.034 30.0903 61.725 30.2033C61.416 30.3163 61.1325 30.4895 60.891 30.713C60.891 31.32 59.456 29.813 58.486 29.813C58.2532 29.8252 58.032 29.9191 57.8616 30.0782C57.6911 30.2373 57.5822 30.4515 57.554 30.683C57.554 31.559 59.441 31.6429 58.408 31.6429C57.45 31.6429 56.087 31.905 56.087 32.808C56.087 33.317 56.414 33.93 57.407 33.93C57.7477 33.9227 58.0862 33.874 58.415 33.785C58.3273 33.9168 58.2807 34.0717 58.281 34.23C58.281 35.161 60.081 35.7629 61.161 35.7629C61.795 35.7629 63.296 35.682 63.296 34.869C63.296 33.696 61.329 34.1249 64.515 34.1249C65.164 34.1249 65.689 33.941 65.689 33.256C65.691 32.016 64.564 32.625 63.701 32.325Z" fill="#E6AAE8"/>
<path d="M86.0171 32.325C86.5401 32.192 87.3331 31.931 87.3331 31.455C87.1441 31.005 86.8168 30.6269 86.3987 30.3752C85.9805 30.1235 85.4932 30.0114 85.0071 30.055C84.6784 30.0401 84.3501 30.0905 84.0411 30.2035C83.7321 30.3164 83.4486 30.4896 83.2071 30.713C83.2071 31.32 81.7721 29.813 80.8011 29.813C80.5682 29.8252 80.3471 29.9191 80.1766 30.0782C80.0061 30.2373 79.8972 30.4515 79.8691 30.683C79.8691 31.559 81.7561 31.6429 80.7241 31.6429C79.7671 31.6429 78.4031 31.905 78.4031 32.808C78.4031 33.317 78.7311 33.93 79.7221 33.93C80.063 33.9228 80.4019 33.8741 80.7311 33.785C80.643 33.9167 80.596 34.0716 80.5961 34.23C80.5961 35.161 82.4031 35.7629 83.4761 35.7629C84.1121 35.7629 85.6121 35.682 85.6121 34.869C85.6121 33.696 83.6451 34.1249 86.8321 34.1249C87.4781 34.1249 88.0061 33.941 88.0061 33.256C88.0021 32.016 86.8741 32.625 86.0171 32.325Z" fill="#E6AAE8"/>
<path d="M167.249 26.513C167.903 26.448 169.282 26.276 169.282 25.434C169.216 24.9875 168.988 24.5807 168.642 24.2906C168.296 24.0005 167.856 23.8473 167.405 23.86C165.305 23.86 165.652 25.704 165.652 24.175C165.576 23.8379 165.382 23.5394 165.104 23.3341C164.826 23.1287 164.483 23.0304 164.139 23.057C163.395 23.057 161.79 23.43 161.79 24.442C161.779 24.6439 161.809 24.846 161.878 25.0361C161.946 25.2263 162.053 25.4007 162.19 25.549C161.965 25.537 161.704 25.53 161.403 25.53C160.65 25.53 160.037 25.839 160.037 26.811C160.037 28.011 161.012 28.392 162.075 28.392C162.561 28.3876 163.044 28.3203 163.513 28.192C163.302 28.5425 163.196 28.9461 163.207 29.3551C163.207 30.2701 163.693 30.601 164.888 30.601C165.365 30.6463 165.842 30.5189 166.233 30.242C166.624 29.965 166.903 29.557 167.018 29.0921C167.245 29.454 167.553 29.7583 167.917 29.9811C168.281 30.2039 168.692 30.3391 169.118 30.3761C169.681 30.3761 170.628 30.022 170.628 29.263C170.625 28.539 169.792 26.686 167.249 26.513Z" fill="#F7E68D"/>
<path d="M159.256 32.325C159.779 32.192 160.572 31.931 160.572 31.455C160.383 31.005 160.056 30.6269 159.638 30.3752C159.219 30.1235 158.732 30.0114 158.246 30.055C157.917 30.0401 157.589 30.0905 157.28 30.2035C156.971 30.3164 156.688 30.4896 156.446 30.713C156.446 31.32 155.011 29.813 154.04 29.813C153.807 29.8252 153.586 29.9191 153.416 30.0782C153.245 30.2373 153.136 30.4515 153.108 30.683C153.108 31.559 154.995 31.6429 153.963 31.6429C153.006 31.6429 151.641 31.905 151.641 32.808C151.641 33.317 151.968 33.93 152.963 33.93C153.304 33.9227 153.642 33.874 153.971 33.785C153.883 33.9167 153.836 34.0716 153.836 34.23C153.836 35.161 155.643 35.7629 156.716 35.7629C157.351 35.7629 158.851 35.682 158.851 34.869C158.851 33.696 156.886 34.1249 160.072 34.1249C160.72 34.1249 161.246 33.941 161.246 33.256C161.241 32.016 160.115 32.625 159.256 32.325Z" fill="#E6AAE8"/>
<path d="M181.566 32.325C182.091 32.192 182.883 31.931 182.883 31.455C182.694 31.005 182.367 30.6269 181.949 30.3752C181.53 30.1235 181.043 30.0114 180.557 30.055C180.228 30.0398 179.9 30.0902 179.591 30.2031C179.282 30.3161 178.998 30.4894 178.757 30.713C178.757 31.32 177.322 29.813 176.351 29.813C176.118 29.8252 175.897 29.9191 175.727 30.0782C175.556 30.2373 175.447 30.4515 175.419 30.683C175.419 31.559 177.304 31.6429 176.273 31.6429C175.316 31.6429 173.952 31.905 173.952 32.808C173.952 33.317 174.279 33.93 175.272 33.93C175.613 33.9227 175.951 33.874 176.28 33.785C176.192 33.9168 176.146 34.0717 176.146 34.23C176.146 35.161 177.951 35.7629 179.026 35.7629C179.662 35.7629 181.161 35.682 181.161 34.869C181.161 33.696 179.194 34.1249 182.38 34.1249C183.028 34.1249 183.556 33.941 183.556 33.256C183.553 32.016 182.425 32.625 181.566 32.325Z" fill="#E6AAE8"/>
<path d="M217.833 30.194C218.487 30.129 219.866 29.957 219.866 29.115C219.8 28.6683 219.573 28.2612 219.227 27.971C218.881 27.6809 218.44 27.5279 217.989 27.541C215.889 27.541 216.239 29.385 216.239 27.857C216.163 27.5194 215.968 27.2204 215.69 27.0149C215.411 26.8094 215.068 26.7111 214.723 26.738C213.98 26.738 212.373 27.111 212.373 28.122C212.362 28.324 212.392 28.526 212.46 28.7162C212.529 28.9063 212.635 29.0808 212.773 29.229C212.547 29.217 212.287 29.21 211.984 29.21C211.232 29.21 210.619 29.521 210.619 30.49C210.619 31.69 211.593 32.072 212.657 32.072C213.143 32.0676 213.626 32.0004 214.094 31.872C213.885 32.2232 213.781 32.6267 213.794 33.035C213.794 33.95 214.277 34.281 215.473 34.281C215.95 34.3275 216.428 34.2006 216.819 33.9234C217.21 33.6463 217.488 33.2375 217.602 32.772C217.829 33.1337 218.137 33.4379 218.501 33.6607C218.866 33.8835 219.277 34.0188 219.702 34.056C220.264 34.056 221.213 33.703 221.213 32.945C221.212 32.22 220.378 30.367 217.833 30.194Z" fill="#F7E68D"/>
<path d="M230.408 26.395C230.795 26.295 231.381 26.104 231.381 25.754C231.241 25.4225 231 25.144 230.691 24.9586C230.383 24.7731 230.023 24.6903 229.665 24.722C229.422 24.7102 229.179 24.747 228.95 24.8303C228.721 24.9135 228.512 25.0416 228.333 25.207C228.333 25.655 227.275 24.5441 226.558 24.5441C226.386 24.5534 226.224 24.6228 226.098 24.7402C225.973 24.8576 225.893 25.0155 225.872 25.186C225.872 25.833 227.262 25.894 226.502 25.894C225.796 25.894 224.789 26.094 224.789 26.756C224.789 27.132 225.03 27.584 225.762 27.584C226.014 27.5794 226.264 27.5431 226.506 27.4761C226.442 27.5734 226.407 27.6873 226.406 27.804C226.406 28.492 227.737 28.934 228.53 28.934C228.998 28.934 230.105 28.875 230.105 28.274C230.105 27.409 228.655 27.7261 231.005 27.7261C231.482 27.7261 231.871 27.591 231.871 27.085C231.872 26.167 231.042 26.616 230.408 26.395Z" fill="#E6AAE8"/>
<path d="M204.483 28.59C204.871 28.49 205.456 28.3011 205.456 27.9481C205.315 27.617 205.073 27.339 204.764 27.1543C204.456 26.9696 204.096 26.8876 203.738 26.92C203.495 26.9082 203.252 26.945 203.024 27.0283C202.796 27.1116 202.586 27.2397 202.408 27.405C202.408 27.852 201.349 26.744 200.632 26.744C200.46 26.7531 200.298 26.8224 200.172 26.9396C200.046 27.0568 199.966 27.2145 199.945 27.3851C199.945 28.0321 201.338 28.093 200.576 28.093C199.871 28.093 198.863 28.293 198.863 28.955C198.863 29.329 199.104 29.782 199.837 29.782C200.088 29.7764 200.337 29.7408 200.58 29.676C200.516 29.773 200.481 29.8867 200.48 30.0031C200.48 30.6921 201.812 31.134 202.604 31.134C203.073 31.134 204.18 31.0761 204.18 30.4741C204.18 29.6101 202.729 29.925 205.08 29.925C205.558 29.925 205.947 29.791 205.947 29.285C205.948 28.362 205.116 28.811 204.483 28.59Z" fill="#E6AAE8"/>
<path d="M577.637 50.0941V18.1021H288.042V58.6191C288.042 58.6191 289.092 62.991 292.985 62.991C293.937 62.991 295.2 59.524 295.951 57.337C297.093 62.9 300.321 61.6721 302.521 61.6721C303.67 61.6721 304.036 59.8171 304.036 58.3571C304.036 56.7661 303.994 55.678 303.943 54.957C304.378 56.834 305.843 60.379 310.072 60.379C311.759 60.379 310.298 59.8341 311.372 57.1041C312.81 60.1661 314.914 63.6971 317.742 63.6971C320.631 63.6971 318.419 57.676 321.41 57.676C323.367 57.676 325.039 60.355 327.164 60.355C327.788 60.3254 328.389 60.112 328.892 59.7415C329.395 59.3711 329.778 58.8602 329.991 58.2731C329.991 56.4131 330.197 54.5571 330.207 52.7661C330.707 52.7661 331.207 52.7611 331.707 52.7551C332.728 55.2971 334.594 57.2311 336.474 57.2311C338.484 57.2311 340.268 55.2671 340.296 52.5311L340.823 52.506C341.617 53.336 343.244 55.569 345.19 55.569C346.39 55.569 348.021 54.1691 348.742 51.9891C349.371 51.9371 350 51.889 350.63 51.827C352.006 53.827 353.497 55.8431 355.493 55.8431C355.774 55.8725 356.058 55.8419 356.326 55.7533C356.594 55.6647 356.841 55.5201 357.049 55.329C356.662 56.3865 356.443 57.498 356.4 58.623C356.381 59.7071 356.791 60.7549 357.54 61.5391C358.288 62.3232 359.316 62.7807 360.4 62.8121C363.081 62.8121 364.927 59.6961 364.927 57.3911C364.927 56.4801 364.711 55.6331 364.711 54.5621C364.711 58.2271 369.687 61.8021 370.319 61.8021C373.058 61.8021 371.159 60.9661 372.301 55.1191C373.985 58.3471 376.501 58.4291 379.041 58.8911C379.069 58.897 379.097 58.9 379.125 58.9C379.998 58.9 380.925 58.0191 381.683 56.8121C381.941 59.5451 383.055 62.467 385.19 62.467C387.123 62.467 387.813 58.1091 387.813 55.6331C389.687 58.0331 390.858 62.8571 393.503 62.8571C395.103 62.8571 395.585 61.8711 395.585 59.8301C395.585 50.4971 395.24 61.4031 403.097 61.4031C405.28 61.4031 406.497 59.738 407.077 57.397C407.423 57.5327 407.789 57.6088 408.16 57.6221C409.66 57.6221 410.818 56.4431 411.535 54.7081C411.95 54.7261 412.362 54.745 412.777 54.762C413.741 57.324 415.662 58.295 416.938 58.295C418.36 58.295 419.33 56.954 419.826 54.941C420.15 54.941 420.473 54.9521 420.799 54.9561C422.108 59.1931 425.25 62.3051 425.823 62.3051C427.596 62.3051 427.423 61.343 428.639 55.105C430.321 55.966 431.779 58.983 433.767 58.983C435.8 58.983 435.961 57.225 436.586 54.762C436.631 54.762 436.677 54.762 436.722 54.762C437.893 57.597 440.04 59.462 442.603 59.462C445.258 59.462 446.103 57.2621 446.412 54.4971C447.404 55.8221 448.578 56.832 449.66 56.832C450.57 56.832 451.767 55.8801 452.527 53.8881C452.582 53.8881 452.638 53.8801 452.692 53.8781C453.884 59.2781 457.034 62.7781 459.192 62.7781C460.342 62.7781 460.71 60.923 460.71 59.462C460.71 57.873 460.667 56.7851 460.616 56.0621C461.051 57.9421 462.516 61.485 466.746 61.485C468.433 61.485 466.972 60.9421 468.04 58.2101C469.478 61.2721 471.583 64.8051 474.41 64.8051C477.297 64.8051 475.087 58.782 478.077 58.782C480.035 58.782 481.705 61.4631 483.83 61.4631C484.454 61.4336 485.056 61.2199 485.559 60.8491C486.062 60.4782 486.443 59.9666 486.656 59.379C486.656 58.594 486.697 57.8091 486.74 57.0311C486.95 57.4848 487.279 57.8736 487.691 58.1567C488.103 58.4398 488.584 58.6068 489.083 58.6401C491.017 58.6401 491.706 54.282 491.706 51.806C493.581 54.206 494.752 59.032 497.396 59.032C498.996 59.032 499.48 58.0451 499.48 56.0031C499.48 47.3231 499.18 56.144 505.462 57.423C505.684 57.7806 505.989 58.0784 506.353 58.2906C506.716 58.5027 507.126 58.6227 507.546 58.6401C508.406 58.6401 509.019 57.7751 509.436 56.5981C510.296 55.6416 510.862 54.4566 511.064 53.186C512.479 55.686 513.664 59.03 515.864 59.03C517.464 59.03 517.946 58.0431 517.946 56.0031C517.946 46.6701 517.599 57.576 525.457 57.576C526.012 57.5833 526.56 57.4579 527.057 57.2101C527.993 60.0961 530.03 62.4 532.082 62.4C534.107 62.4 535.905 60.408 535.905 57.634C535.905 56.214 538.035 60.7341 540.798 60.7341C542.379 60.7341 544.722 58.2941 544.722 54.8511C546.569 57.2121 548.36 61.009 551.101 61.009C551.382 61.0387 551.666 61.0084 551.934 60.9199C552.202 60.8315 552.449 60.687 552.657 60.496C552.271 61.5529 552.052 62.6636 552.009 63.788C551.99 64.8723 552.399 65.9203 553.148 66.7047C553.897 67.4891 554.925 67.9466 556.009 67.978C558.689 67.978 560.536 64.8621 560.536 62.5571C560.536 61.6461 560.32 60.7991 560.32 59.7271C560.32 63.3931 565.295 66.967 565.928 66.967C568.668 66.967 566.767 66.131 567.91 60.285C569.594 63.511 572.11 63.596 574.648 64.058C574.676 64.0623 574.704 64.0647 574.732 64.0651C576.723 64.0651 576.925 59.2521 576.925 56.7031C577.039 54.4885 577.277 52.2821 577.637 50.0941Z" fill="#4C8E39"/>
<path d="M539.589 18.102C540.408 13.825 541.931 9.37002 544.398 7.02502C542.705 7.57982 541.164 8.52207 539.899 9.77686C538.634 11.0316 537.679 12.5643 537.11 14.253C535.919 12.002 536.974 9.31403 536.795 6.80603C535.233 9.62203 535.231 12.982 533.895 15.875C533.029 10.988 531.415 7.36703 528.039 5.26703C530.776 8.66703 530.884 12.067 531.039 15.794C529.979 14.048 528.463 12.752 527.058 13.176C528.004 14.6418 528.489 16.3578 528.449 18.102H482.743C483.05 14.159 485.323 11.002 487.331 7.94403C485.844 8.56407 484.495 9.47472 483.364 10.6226C482.233 11.7705 481.342 13.1326 480.744 14.629C479.899 10.383 481.061 6.39498 481.539 2.00098C479.039 3.75798 478.102 8.75 477.081 11.823C476.214 10.184 475.236 8.043 474.336 6.633C475.194 8.22429 475.504 10.0538 475.219 11.839C472.342 8.74999 470.106 5.10898 466.199 3.90698C468.753 6.67598 472.312 10.168 473.157 14.416C471.573 12.598 470.169 10.827 467.881 11.21C470.007 13.0113 471.536 15.4146 472.268 18.103H436.34C437.16 13.826 438.683 9.371 441.15 7.026C439.456 7.58067 437.916 8.52287 436.65 9.77765C435.384 11.0324 434.429 12.5652 433.86 14.254C432.669 12.003 433.724 9.31501 433.545 6.80701C431.985 9.62301 431.982 12.983 430.645 15.876C429.781 10.989 428.165 7.36801 424.789 5.26801C427.528 8.66801 427.634 12.068 427.789 15.795C426.728 14.049 425.213 12.753 423.808 13.177C424.754 14.6429 425.239 16.3588 425.2 18.103H361.293C362.069 13.585 363.626 8.695 366.252 6.203C364.558 6.75736 363.018 7.69934 361.752 8.95398C360.487 10.2086 359.532 11.7413 358.963 13.43C357.772 11.179 358.827 8.49201 358.648 5.98401C357.087 8.79901 357.083 12.162 355.748 15.054C354.882 10.167 353.268 6.54501 349.893 4.44501C352.63 7.84501 352.739 11.245 352.893 14.971C351.832 13.226 350.317 11.932 348.91 12.356C350.008 14.0604 350.48 16.0932 350.245 18.107H317.338C317.645 14.164 319.917 11.007 321.925 7.94904C320.438 8.56918 319.089 9.4798 317.958 10.6277C316.827 11.7756 315.936 13.1376 315.338 14.634C314.494 10.388 315.655 6.39998 316.138 2.00598C313.638 3.76298 312.7 8.755 311.678 11.828C310.811 10.189 309.834 8.048 308.933 6.638C309.792 8.22905 310.102 10.0588 309.816 11.844C306.939 8.75499 304.703 5.11399 300.797 3.91199C303.35 6.68099 306.911 10.173 307.754 14.421C306.17 12.603 304.766 10.832 302.478 11.215C304.604 13.0163 306.133 15.4197 306.865 18.108H288.042V46.925C288.042 46.925 289.098 51.473 292.985 51.231C295.074 51.099 295.78 45.816 295.951 41.197C297.093 46.758 300.321 46.338 302.521 46.338C303.67 46.338 304.036 44.483 304.036 43.023C304.036 41.432 303.994 40.344 303.943 39.623C304.378 41.503 305.843 45.046 310.072 45.046C311.759 45.046 310.298 44.503 311.372 41.771C312.81 44.834 314.914 48.366 317.742 48.366C320.631 48.366 318.419 42.345 321.41 42.345C323.367 42.345 325.039 45.024 327.164 45.024C327.788 44.9943 328.389 44.7809 328.892 44.4105C329.395 44.04 329.778 43.5291 329.991 42.942C329.991 41.082 330.197 39.226 330.207 37.436C330.707 37.436 331.207 37.431 331.707 37.425C332.728 39.967 334.594 41.901 336.474 41.901C338.484 41.901 340.268 39.936 340.296 37.194L340.823 37.171C341.617 38.003 343.244 40.234 345.19 40.234C346.39 40.234 348.021 38.834 348.742 36.654C349.371 36.6 350 36.554 350.63 36.492C352.006 38.492 353.497 40.509 355.493 40.509C355.774 40.5381 356.058 40.5073 356.326 40.4187C356.594 40.3301 356.841 40.1857 357.049 39.995C356.662 41.0518 356.444 42.1625 356.4 43.287C356.381 44.3714 356.79 45.4197 357.539 46.2043C358.288 46.9889 359.316 47.4466 360.4 47.478C363.081 47.478 364.927 44.362 364.927 42.057C364.927 41.145 364.711 40.299 364.711 39.227C364.711 42.892 369.687 46.467 370.319 46.467C373.058 46.467 371.159 45.629 372.301 39.784C373.985 43.011 376.501 43.094 379.041 43.556C379.069 43.5613 379.097 43.5636 379.125 43.563C379.998 43.563 380.925 42.682 381.683 41.477C381.941 44.21 383.055 47.132 385.19 47.132C387.123 47.132 387.813 42.773 387.813 40.296C389.687 42.696 390.858 47.522 393.503 47.522C395.103 47.522 395.585 46.536 395.585 44.495C395.585 35.16 395.24 46.067 403.097 46.067C405.28 46.067 406.497 44.403 407.077 42.067C407.423 42.2022 407.789 42.2775 408.16 42.29C409.66 42.29 410.818 41.113 411.535 39.378C411.95 39.396 412.362 39.416 412.777 39.432C413.741 41.994 415.662 42.965 416.938 42.965C418.36 42.965 419.33 41.624 419.826 39.61C420.15 39.615 420.473 39.623 420.799 39.626C422.108 43.863 425.25 46.975 425.823 46.975C427.596 46.975 427.423 46.013 428.639 39.775C430.321 40.634 431.779 43.652 433.767 43.652C435.8 43.652 435.961 41.892 436.586 39.431C436.631 39.431 436.677 39.431 436.722 39.431C437.893 42.266 440.04 44.131 442.603 44.131C445.258 44.131 446.103 41.931 446.412 39.166C447.404 40.491 448.578 41.501 449.66 41.501C450.57 41.501 451.767 40.549 452.527 38.557C452.582 38.557 452.638 38.549 452.692 38.547C453.884 43.947 457.034 47.447 459.192 47.447C460.342 47.447 460.71 45.592 460.71 44.131C460.71 42.541 460.667 41.454 460.616 40.731C461.051 42.607 462.516 46.153 466.746 46.153C468.433 46.153 466.972 45.61 468.04 42.877C469.478 45.939 471.583 49.47 474.41 49.47C477.297 49.47 475.087 43.449 478.077 43.449C480.035 43.449 481.705 46.128 483.83 46.128C484.454 46.0988 485.055 45.8855 485.558 45.515C486.061 45.1445 486.443 44.6333 486.656 44.046C486.656 43.261 486.697 42.476 486.74 41.696C486.95 42.1502 487.278 42.5395 487.69 42.8229C488.103 43.1064 488.584 43.2736 489.083 43.307C491.017 43.307 491.706 38.949 491.706 36.472C493.581 38.872 494.752 43.697 497.396 43.697C498.996 43.697 499.48 42.712 499.48 40.669C499.48 31.989 499.18 40.811 505.462 42.089C505.684 42.4465 505.989 42.7444 506.353 42.9565C506.716 43.1687 507.126 43.2887 507.546 43.306C508.406 43.306 509.019 42.441 509.436 41.264C510.296 40.3072 510.861 39.1224 511.064 37.852C512.479 40.352 513.664 43.696 515.864 43.696C517.464 43.696 517.946 42.709 517.946 40.668C517.946 31.334 517.599 42.241 525.457 42.241C526.012 42.2485 526.561 42.1227 527.057 41.874C527.993 44.759 530.03 47.064 532.082 47.064C534.107 47.064 535.905 45.072 535.905 42.298C535.905 40.878 538.035 45.398 540.798 45.398C542.379 45.398 544.722 42.958 544.722 39.515C546.569 41.876 548.36 45.673 551.101 45.673C551.382 45.7028 551.666 45.6722 551.935 45.5834C552.203 45.4946 552.449 45.3496 552.657 45.158C552.271 46.2156 552.052 47.327 552.009 48.452C551.99 49.5364 552.399 50.5845 553.148 51.369C553.897 52.1534 554.925 52.6109 556.009 52.642C558.689 52.642 560.536 49.526 560.536 47.221C560.536 46.31 560.32 45.463 560.32 44.392C560.32 48.057 565.295 51.632 565.928 51.632C568.668 51.632 566.767 50.796 567.91 44.949C569.594 48.176 572.11 48.259 574.648 48.721C574.676 48.7268 574.704 48.7298 574.732 48.73C575.967 48.73 577.951 46.878 578.188 44.863V18.102H539.589Z" fill="#559B43"/>
<path d="M314.779 30.1941C315.431 30.1291 316.81 29.9571 316.81 29.1151C316.744 28.6686 316.517 28.2617 316.172 27.9715C315.826 27.6814 315.386 27.5282 314.935 27.541C312.835 27.541 313.183 29.3851 313.183 27.8571C313.107 27.5196 312.912 27.2207 312.633 27.0152C312.355 26.8097 312.012 26.7113 311.667 26.7381C310.925 26.7381 309.319 27.1111 309.319 28.1221C309.308 28.3241 309.337 28.5262 309.406 28.7165C309.475 28.9067 309.581 29.0811 309.719 29.2291C309.492 29.2171 309.233 29.2101 308.93 29.2101C308.176 29.2101 307.564 29.5211 307.564 30.4901C307.564 31.6901 308.539 32.0721 309.601 32.0721C310.087 32.0677 310.571 32.0005 311.04 31.8721C310.829 32.2224 310.722 32.6261 310.734 33.0351C310.734 33.9501 311.218 34.2811 312.413 34.2811C312.89 34.3278 313.368 34.201 313.759 33.9238C314.151 33.6466 314.429 33.2377 314.543 32.7721C314.77 33.1337 315.078 33.4378 315.442 33.6606C315.807 33.8834 316.218 34.0187 316.643 34.0561C317.207 34.0561 318.154 33.7031 318.154 32.9451C318.155 32.2201 317.322 30.3671 314.779 30.1941Z" fill="#F7E68D"/>
<path d="M327.353 26.395C327.74 26.295 328.326 26.104 328.326 25.754C328.186 25.4225 327.944 25.144 327.636 24.9586C327.328 24.7731 326.968 24.6903 326.61 24.722C326.367 24.7104 326.124 24.7472 325.895 24.8305C325.666 24.9138 325.456 25.0418 325.277 25.207C325.277 25.655 324.22 24.5441 323.504 24.5441C323.332 24.5533 323.169 24.6226 323.043 24.74C322.917 24.8573 322.836 25.0152 322.815 25.186C322.815 25.833 324.208 25.894 323.446 25.894C322.74 25.894 321.733 26.094 321.733 26.756C321.733 27.132 321.974 27.584 322.708 27.584C322.959 27.5791 323.209 27.5429 323.451 27.4761C323.386 27.5731 323.351 27.6872 323.351 27.804C323.351 28.492 324.683 28.934 325.475 28.934C325.945 28.934 327.052 28.875 327.052 28.274C327.052 27.409 325.602 27.7261 327.952 27.7261C328.43 27.7261 328.819 27.591 328.819 27.085C328.819 26.167 327.987 26.616 327.353 26.395Z" fill="#E6AAE8"/>
<path d="M301.427 28.59C301.814 28.49 302.4 28.3011 302.4 27.9481C302.259 27.6164 302.016 27.3382 301.707 27.1534C301.398 26.9686 301.038 26.8869 300.679 26.92C300.436 26.9083 300.193 26.9451 299.965 27.0284C299.736 27.1117 299.526 27.2397 299.348 27.405C299.348 27.852 298.288 26.744 297.573 26.744C297.401 26.7529 297.238 26.8221 297.113 26.9393C296.987 27.0566 296.907 27.2144 296.886 27.3851C296.886 28.0321 298.277 28.093 297.516 28.093C296.81 28.093 295.803 28.293 295.803 28.955C295.803 29.329 296.044 29.782 296.778 29.782C297.029 29.7763 297.279 29.7407 297.522 29.676C297.457 29.7727 297.422 29.8865 297.422 30.0031C297.422 30.6921 298.753 31.134 299.547 31.134C300.014 31.134 301.122 31.0761 301.122 30.4741C301.122 29.6101 299.67 29.925 302.022 29.925C302.499 29.925 302.887 29.791 302.887 29.285C302.891 28.362 302.061 28.811 301.427 28.59Z" fill="#E6AAE8"/>
<path d="M359.742 26.513C360.394 26.448 361.775 26.276 361.775 25.434C361.709 24.9872 361.481 24.5803 361.135 24.2902C360.789 24.0001 360.348 23.847 359.897 23.8599C357.797 23.8599 358.146 25.7039 358.146 24.1749C358.07 23.8379 357.875 23.5395 357.598 23.3342C357.32 23.1289 356.977 23.0305 356.633 23.057C355.888 23.057 354.283 23.43 354.283 24.442C354.272 24.6439 354.302 24.8459 354.37 25.0361C354.439 25.2263 354.545 25.4007 354.683 25.549C354.458 25.537 354.197 25.53 353.894 25.53C353.142 25.53 352.529 25.839 352.529 26.811C352.529 28.011 353.504 28.392 354.566 28.392C355.052 28.3876 355.535 28.3204 356.004 28.192C355.795 28.543 355.691 28.9466 355.704 29.355C355.704 30.27 356.188 30.601 357.383 30.601C357.86 30.6462 358.337 30.5188 358.728 30.2419C359.119 29.965 359.397 29.5569 359.513 29.092C359.74 29.4538 360.048 29.7581 360.412 29.9808C360.776 30.2036 361.187 30.3389 361.613 30.376C362.176 30.376 363.124 30.022 363.124 29.263C363.118 28.539 362.285 26.686 359.742 26.513Z" fill="#F7E68D"/>
<path d="M351.748 32.325C352.272 32.192 353.065 31.931 353.065 31.455C352.875 31.0053 352.548 30.6275 352.129 30.3759C351.711 30.1243 351.224 30.012 350.738 30.055C350.409 30.0399 350.081 30.0903 349.772 30.2033C349.463 30.3163 349.179 30.4895 348.938 30.713C348.938 31.32 347.503 29.813 346.532 29.813C346.299 29.8252 346.078 29.9191 345.907 30.0782C345.737 30.2373 345.628 30.4515 345.6 30.683C345.6 31.559 347.487 31.6429 346.455 31.6429C345.497 31.6429 344.133 31.905 344.133 32.808C344.133 33.317 344.46 33.93 345.453 33.93C345.794 33.9228 346.133 33.874 346.462 33.785C346.374 33.9167 346.327 34.0716 346.327 34.23C346.327 35.161 348.133 35.7629 349.207 35.7629C349.841 35.7629 351.342 35.682 351.342 34.869C351.342 33.696 349.375 34.1249 352.561 34.1249C353.209 34.1249 353.735 33.941 353.735 33.256C353.733 32.016 352.606 32.625 351.748 32.325Z" fill="#E6AAE8"/>
<path d="M374.059 32.325C374.582 32.192 375.375 31.931 375.375 31.455C375.186 31.005 374.859 30.6269 374.441 30.3752C374.022 30.1235 373.535 30.0114 373.049 30.055C372.72 30.0401 372.392 30.0905 372.083 30.2035C371.774 30.3164 371.49 30.4896 371.249 30.713C371.249 31.32 369.814 29.813 368.843 29.813C368.61 29.8254 368.389 29.9194 368.219 30.0785C368.049 30.2376 367.94 30.4516 367.912 30.683C367.912 31.559 369.799 31.6429 368.766 31.6429C367.809 31.6429 366.445 31.905 366.445 32.808C366.445 33.317 366.773 33.93 367.765 33.93C368.106 33.9228 368.444 33.8741 368.773 33.785C368.685 33.9168 368.639 34.0717 368.639 34.23C368.639 35.161 370.445 35.7629 371.519 35.7629C372.155 35.7629 373.656 35.682 373.656 34.869C373.656 33.696 371.689 34.1249 374.875 34.1249C375.522 34.1249 376.049 33.941 376.049 33.256C376.044 32.016 374.916 32.625 374.059 32.325Z" fill="#E6AAE8"/>
<path d="M455.292 26.513C455.945 26.448 457.325 26.276 457.325 25.434C457.259 24.9874 457.032 24.5804 456.686 24.2903C456.34 24.0002 455.899 23.8471 455.448 23.86C453.348 23.86 453.696 25.704 453.696 24.175C453.62 23.8378 453.425 23.5393 453.147 23.3339C452.869 23.1286 452.527 23.0303 452.182 23.057C451.438 23.057 449.834 23.43 449.834 24.442C449.823 24.644 449.853 24.846 449.921 25.0362C449.99 25.2263 450.096 25.4008 450.234 25.549C450.01 25.537 449.749 25.5301 449.447 25.5301C448.694 25.5301 448.08 25.8391 448.08 26.8111C448.08 28.0111 449.055 28.3921 450.118 28.3921C450.604 28.3877 451.087 28.3204 451.556 28.192C451.345 28.5427 451.239 28.9462 451.25 29.3551C451.25 30.2701 451.736 30.601 452.931 30.601C453.408 30.6476 453.886 30.5206 454.277 30.2435C454.668 29.9664 454.947 29.5576 455.061 29.0921C455.288 29.4539 455.596 29.7581 455.96 29.9809C456.324 30.2037 456.735 30.339 457.161 30.3761C457.723 30.3761 458.67 30.022 458.67 29.263C458.668 28.539 457.835 26.686 455.292 26.513Z" fill="#F7E68D"/>
<path d="M447.299 32.325C447.823 32.192 448.615 31.931 448.615 31.455C448.426 31.005 448.099 30.6269 447.681 30.3752C447.262 30.1235 446.775 30.0114 446.289 30.055C445.96 30.0401 445.632 30.0905 445.323 30.2035C445.014 30.3164 444.73 30.4896 444.489 30.713C444.489 31.32 443.054 29.813 442.083 29.813C441.85 29.825 441.629 29.9188 441.458 30.0779C441.288 30.2371 441.179 30.4514 441.151 30.683C441.151 31.559 443.038 31.6429 442.005 31.6429C441.048 31.6429 439.684 31.905 439.684 32.808C439.684 33.317 440.011 33.93 441.006 33.93C441.346 33.9227 441.684 33.874 442.013 33.785C441.925 33.9167 441.878 34.0716 441.878 34.23C441.878 35.161 443.685 35.7629 444.758 35.7629C445.394 35.7629 446.893 35.682 446.893 34.869C446.893 33.696 444.928 34.1249 448.113 34.1249C448.761 34.1249 449.287 33.941 449.287 33.256C449.284 32.016 448.158 32.625 447.299 32.325Z" fill="#E6AAE8"/>
<path d="M469.609 32.325C470.133 32.192 470.926 31.931 470.926 31.455C470.737 31.005 470.41 30.6269 469.992 30.3752C469.573 30.1235 469.086 30.0114 468.6 30.055C468.271 30.0398 467.943 30.0901 467.634 30.2031C467.325 30.316 467.041 30.4894 466.8 30.713C466.8 31.32 465.365 29.813 464.394 29.813C464.161 29.8252 463.94 29.9191 463.77 30.0782C463.599 30.2373 463.49 30.4515 463.462 30.683C463.462 31.559 465.347 31.6429 464.317 31.6429C463.36 31.6429 461.995 31.905 461.995 32.808C461.995 33.317 462.322 33.93 463.315 33.93C463.656 33.9228 463.994 33.8741 464.323 33.785C464.235 33.9168 464.189 34.0717 464.189 34.23C464.189 35.161 465.995 35.7629 467.069 35.7629C467.705 35.7629 469.204 35.682 469.204 34.869C469.204 33.696 467.237 34.1249 470.423 34.1249C471.071 34.1249 471.598 33.941 471.598 33.256C471.598 32.016 470.467 32.625 469.609 32.325Z" fill="#E6AAE8"/>
<path d="M505.876 30.1941C506.529 30.1291 507.909 29.9571 507.909 29.1151C507.843 28.6683 507.616 28.2612 507.27 27.9711C506.924 27.6809 506.483 27.5279 506.032 27.541C503.932 27.541 504.281 29.3851 504.281 27.8571C504.205 27.5196 504.01 27.2208 503.732 27.0153C503.454 26.8098 503.111 26.7114 502.766 26.7381C502.023 26.7381 500.416 27.1111 500.416 28.1221C500.405 28.324 500.435 28.526 500.504 28.7161C500.572 28.9063 500.679 29.0807 500.816 29.2291C500.59 29.2171 500.331 29.21 500.027 29.21C499.276 29.21 498.662 29.5211 498.662 30.4901C498.662 31.6901 499.636 32.072 500.699 32.072C501.185 32.0677 501.668 32.0005 502.137 31.8721C501.928 32.2231 501.824 32.6267 501.837 33.0351C501.837 33.9501 502.321 34.2811 503.516 34.2811C503.993 34.3276 504.471 34.2007 504.862 33.9235C505.253 33.6464 505.532 33.2376 505.646 32.7721C505.873 33.1338 506.181 33.4381 506.545 33.6608C506.909 33.8836 507.321 34.0189 507.746 34.0561C508.309 34.0561 509.257 33.7031 509.257 32.9451C509.254 32.2201 508.421 30.3671 505.876 30.1941Z" fill="#F7E68D"/>
<path d="M518.452 26.395C518.839 26.295 519.424 26.104 519.424 25.754C519.284 25.4227 519.043 25.1444 518.734 24.9589C518.426 24.7735 518.067 24.6905 517.709 24.722C517.466 24.7102 517.223 24.747 516.994 24.8303C516.765 24.9136 516.555 25.0416 516.376 25.207C516.376 25.655 515.318 24.5441 514.601 24.5441C514.429 24.5534 514.267 24.6228 514.141 24.7402C514.016 24.8576 513.936 25.0155 513.915 25.186C513.915 25.833 515.306 25.894 514.545 25.894C513.84 25.894 512.833 26.094 512.833 26.756C512.833 27.132 513.074 27.584 513.806 27.584C514.057 27.5793 514.307 27.543 514.549 27.4761C514.484 27.5734 514.45 27.6873 514.449 27.804C514.449 28.492 515.781 28.934 516.573 28.934C517.042 28.934 518.149 28.875 518.149 28.274C518.149 27.409 516.698 27.7261 519.049 27.7261C519.526 27.7261 519.914 27.591 519.914 27.085C519.916 26.167 519.086 26.616 518.452 26.395Z" fill="#E6AAE8"/>
<path d="M492.525 28.59C492.912 28.49 493.498 28.3011 493.498 27.9481C493.357 27.6171 493.115 27.3393 492.807 27.1546C492.498 26.9699 492.139 26.8878 491.781 26.92C491.538 26.9083 491.295 26.9451 491.067 27.0284C490.839 27.1117 490.629 27.2397 490.451 27.405C490.451 27.852 489.392 26.744 488.675 26.744C488.503 26.7531 488.341 26.8224 488.215 26.9396C488.089 27.0568 488.009 27.2145 487.988 27.3851C487.988 28.0321 489.381 28.093 488.619 28.093C487.913 28.093 486.906 28.293 486.906 28.955C486.906 29.329 487.147 29.782 487.879 29.782C488.13 29.7765 488.379 29.7409 488.622 29.676C488.558 29.773 488.523 29.8867 488.522 30.0031C488.522 30.6921 489.853 31.134 490.646 31.134C491.114 31.134 492.221 31.0761 492.221 30.4741C492.221 29.6101 490.771 29.925 493.121 29.925C493.599 29.925 493.988 29.791 493.988 29.285C493.99 28.362 493.159 28.811 492.525 28.59Z" fill="#E6AAE8"/>
<path d="M864.96 50.0941V18.1021H575.36V58.6191C575.36 58.6191 576.411 62.991 580.304 62.991C581.255 62.991 582.519 59.524 583.27 57.337C584.412 62.9 587.64 61.6721 589.839 61.6721C590.988 61.6721 591.354 59.8171 591.354 58.3571C591.354 56.7661 591.312 55.678 591.261 54.957C591.696 56.834 593.161 60.379 597.39 60.379C599.077 60.379 597.616 59.8341 598.69 57.1041C600.128 60.1661 602.232 63.6971 605.06 63.6971C607.948 63.6971 605.736 57.676 608.727 57.676C610.684 57.676 612.356 60.355 614.482 60.355C615.106 60.3254 615.707 60.112 616.21 59.7415C616.713 59.3711 617.096 58.8602 617.309 58.2731C617.309 56.4131 617.515 54.5571 617.525 52.7661C618.025 52.7661 618.525 52.7611 619.025 52.7551C620.046 55.2971 621.912 57.2311 623.792 57.2311C625.803 57.2311 627.585 55.2671 627.613 52.5311L628.141 52.506C628.935 53.336 630.562 55.569 632.508 55.569C633.708 55.569 635.339 54.1691 636.06 51.9891C636.688 51.9371 637.319 51.889 637.948 51.827C639.324 53.827 640.815 55.8431 642.81 55.8431C643.091 55.8726 643.375 55.842 643.643 55.7534C643.912 55.6647 644.158 55.5201 644.366 55.329C643.98 56.3867 643.761 57.498 643.718 58.623C643.699 59.7071 644.109 60.7549 644.858 61.5391C645.606 62.3232 646.634 62.7807 647.718 62.8121C650.398 62.8121 652.245 59.6961 652.245 57.3911C652.245 56.4801 652.03 55.6331 652.03 54.5621C652.03 58.2271 657.005 61.8021 657.637 61.8021C660.377 61.8021 658.477 60.9661 659.619 55.1191C661.303 58.3471 663.819 58.4291 666.359 58.8911C666.387 58.897 666.415 58.8999 666.443 58.9C667.316 58.9 668.243 58.0191 669 56.8121C669.259 59.5451 670.373 62.467 672.507 62.467C674.441 62.467 675.131 58.1091 675.131 55.6331C677.005 58.0331 678.176 62.8571 680.821 62.8571C682.421 62.8571 682.902 61.8711 682.902 59.8301C682.902 50.4971 682.557 61.4031 690.415 61.4031C692.598 61.4031 693.815 59.738 694.395 57.397C694.741 57.5327 695.107 57.6088 695.478 57.6221C696.978 57.6221 698.136 56.4431 698.853 54.7081C699.267 54.7261 699.679 54.745 700.094 54.762C701.058 57.324 702.98 58.295 704.255 58.295C705.678 58.295 706.647 56.954 707.144 54.941C707.468 54.941 707.791 54.9521 708.116 54.9561C709.425 59.1931 712.568 62.3051 713.141 62.3051C714.913 62.3051 714.735 61.343 715.957 55.105C717.638 55.966 719.097 58.983 721.084 58.983C723.117 58.983 723.278 57.225 723.904 54.762C723.949 54.762 723.995 54.762 724.04 54.762C725.211 57.597 727.358 59.462 729.921 59.462C732.575 59.462 733.421 57.2621 733.73 54.4971C734.722 55.8221 735.896 56.832 736.977 56.832C737.888 56.832 739.084 55.8801 739.844 53.8881C739.899 53.8881 739.955 53.8801 740.01 53.8781C741.202 59.2781 744.352 62.7781 746.51 62.7781C747.66 62.7781 748.028 60.923 748.028 59.462C748.028 57.873 747.984 56.7851 747.934 56.0621C748.369 57.9421 749.834 61.485 754.063 61.485C755.751 61.485 754.289 60.9421 755.363 58.2101C756.801 61.2721 758.905 64.8051 761.733 64.8051C764.621 64.8051 762.409 58.782 765.401 58.782C767.359 58.782 769.028 61.4631 771.154 61.4631C771.778 61.4337 772.38 61.2201 772.883 60.8492C773.386 60.4783 773.768 59.9667 773.981 59.379C773.981 58.594 774.021 57.8091 774.065 57.0311C774.275 57.4849 774.604 57.8737 775.016 58.1568C775.428 58.4399 775.909 58.6069 776.408 58.6401C778.341 58.6401 779.031 54.282 779.031 51.806C780.905 54.206 782.077 59.032 784.722 59.032C786.322 59.032 786.805 58.0451 786.805 56.0031C786.805 47.3231 786.505 56.144 792.787 57.423C793.009 57.7807 793.315 58.0787 793.678 58.2908C794.042 58.503 794.452 58.6229 794.872 58.6401C795.732 58.6401 796.345 57.7751 796.762 56.5981C797.622 55.6415 798.187 54.4565 798.389 53.186C799.805 55.686 800.989 59.03 803.189 59.03C804.789 59.03 805.271 58.0431 805.271 56.0031C805.271 46.6701 804.925 57.576 812.782 57.576C813.337 57.5831 813.885 57.4577 814.382 57.2101C815.318 60.0961 817.355 62.4 819.407 62.4C821.431 62.4 823.23 60.408 823.23 57.634C823.23 56.214 825.36 60.7341 828.124 60.7341C829.705 60.7341 832.048 58.2941 832.048 54.8511C833.895 57.2121 835.685 61.009 838.427 61.009C838.708 61.0387 838.992 61.0084 839.26 60.9199C839.528 60.8315 839.775 60.687 839.983 60.496C839.595 61.5555 839.375 62.6694 839.331 63.7971C839.312 64.8813 839.721 65.9293 840.47 66.7137C841.219 67.4981 842.247 67.9556 843.331 67.9871C846.01 67.9871 847.857 64.871 847.857 62.566C847.857 61.655 847.642 60.808 847.642 59.736C847.642 63.402 852.616 66.9761 853.249 66.9761C855.99 66.9761 854.088 66.1401 855.232 60.2941C856.916 63.5201 859.432 63.6051 861.97 64.0671C861.998 64.0714 862.026 64.0737 862.054 64.074C864.045 64.074 864.247 59.261 864.247 56.712C864.361 54.4945 864.599 52.2851 864.96 50.0941Z" fill="#4C8E39"/>
<path d="M820.547 16.097C821.367 11.82 822.89 7.36502 825.356 5.02002C823.662 5.57515 822.121 6.51799 820.856 7.7735C819.59 9.029 818.635 10.5625 818.067 12.252C816.876 10.001 817.931 7.31299 817.752 4.80499C816.19 7.62099 816.188 10.981 814.852 13.874C813.986 8.98702 812.372 5.36599 808.997 3.26599C811.734 6.66599 811.842 10.066 811.997 13.793C810.936 12.047 809.421 10.751 808.015 11.175C808.962 12.6406 809.446 14.3568 809.405 16.101H763.701C764.008 12.158 766.28 9.00099 768.288 5.94299C766.801 6.56313 765.452 7.47382 764.321 8.6217C763.19 9.76959 762.299 11.1316 761.701 12.628C760.857 8.38199 762.019 4.394 762.501 0C760.001 1.757 759.064 6.74902 758.043 9.82202C757.176 8.18302 756.198 6.04202 755.297 4.63202C756.156 6.22305 756.467 8.05269 756.181 9.83801C753.304 6.74901 751.068 3.10801 747.16 1.90601C749.715 4.67501 753.274 8.16698 754.119 12.415C752.535 10.597 751.131 8.82598 748.843 9.20898C750.969 11.0102 752.498 13.4136 753.23 16.102H717.299C718.119 11.825 719.642 7.37002 722.108 5.02502C720.415 5.57976 718.874 6.52195 717.609 7.77673C716.343 9.03151 715.388 10.5642 714.819 12.253C713.628 10.002 714.682 7.31403 714.503 4.80603C712.944 7.62203 712.941 10.982 711.603 13.875C710.739 8.988 709.123 5.36703 705.748 3.26703C708.487 6.66703 708.593 10.067 708.748 13.794C707.687 12.048 706.172 10.752 704.766 11.176C705.712 12.6419 706.197 14.3578 706.157 16.102H642.252C643.028 11.584 644.585 6.69403 647.211 4.20203C645.517 4.75632 643.977 5.69825 642.711 6.95288C641.445 8.20752 640.49 9.74021 639.921 11.429C638.73 9.17802 639.785 6.49103 639.607 3.98303C638.046 6.79803 638.041 10.161 636.707 13.053C635.841 8.16598 634.227 4.54403 630.851 2.44403C633.588 5.84403 633.697 9.24403 633.851 12.97C632.791 11.225 631.275 9.93098 629.868 10.355C630.966 12.0592 631.439 14.0921 631.204 16.106H598.296C598.603 12.163 600.876 9.006 602.884 5.948C601.397 6.56819 600.048 7.47889 598.917 8.62677C597.786 9.77465 596.895 11.1366 596.297 12.633C595.452 8.387 596.614 4.399 597.097 0.00500488C594.597 1.762 593.659 6.75403 592.637 9.82703C591.77 8.18803 590.794 6.04702 589.892 4.63702C590.751 6.2281 591.061 8.05769 590.776 9.84302C587.899 6.75402 585.663 3.11301 581.757 1.91101C584.31 4.68001 587.871 8.17198 588.714 12.42C587.129 10.602 585.725 8.83099 583.438 9.21399C585.563 11.0153 587.093 13.4187 587.824 16.107H569V44.924C569 44.924 570.057 49.472 573.944 49.23C576.033 49.098 576.739 43.815 576.91 39.196C578.052 44.757 581.28 44.337 583.479 44.337C584.628 44.337 584.994 42.482 584.994 41.022C584.994 39.431 584.952 38.343 584.901 37.622C585.336 39.502 586.801 43.045 591.03 43.045C592.717 43.045 591.256 42.502 592.33 39.77C593.768 42.833 595.872 46.365 598.7 46.365C601.588 46.365 599.376 40.344 602.367 40.344C604.324 40.344 605.996 43.023 608.122 43.023C608.746 42.9934 609.347 42.7799 609.85 42.4094C610.353 42.039 610.736 41.5281 610.949 40.941C610.949 39.081 611.155 37.225 611.165 35.435C611.665 35.435 612.165 35.43 612.665 35.424C613.686 37.966 615.552 39.9 617.432 39.9C619.443 39.9 621.225 37.935 621.253 35.193L621.781 35.17C622.575 36.002 624.202 38.233 626.148 38.233C627.348 38.233 628.979 36.833 629.7 34.653C630.328 34.599 630.959 34.553 631.588 34.491C632.964 36.491 634.455 38.508 636.45 38.508C636.731 38.5374 637.015 38.5068 637.283 38.4182C637.552 38.3296 637.798 38.185 638.006 37.994C637.62 39.051 637.402 40.1617 637.358 41.286C637.339 42.3705 637.748 43.4187 638.497 44.2033C639.246 44.9879 640.274 45.4456 641.358 45.477C644.038 45.477 645.885 42.361 645.885 40.056C645.885 39.144 645.67 38.298 645.67 37.226C645.67 40.891 650.645 44.466 651.277 44.466C654.017 44.466 652.117 43.628 653.259 37.783C654.943 41.01 657.459 41.093 659.999 41.555C660.027 41.5602 660.055 41.5626 660.083 41.562C660.956 41.562 661.883 40.681 662.64 39.476C662.899 42.209 664.013 45.131 666.147 45.131C668.081 45.131 668.771 40.772 668.771 38.295C670.645 40.695 671.816 45.521 674.461 45.521C676.061 45.521 676.542 44.535 676.542 42.494C676.542 33.159 676.197 44.066 684.055 44.066C686.238 44.066 687.455 42.402 688.035 40.066C688.381 40.2011 688.747 40.2766 689.118 40.289C690.618 40.289 691.776 39.112 692.493 37.377C692.907 37.395 693.319 37.415 693.734 37.431C694.698 39.993 696.62 40.964 697.895 40.964C699.318 40.964 700.287 39.623 700.784 37.609C701.108 37.614 701.431 37.622 701.756 37.625C703.065 41.862 706.208 44.974 706.781 44.974C708.553 44.974 708.375 44.012 709.597 37.774C711.278 38.633 712.737 41.651 714.724 41.651C716.757 41.651 716.918 39.891 717.544 37.43C717.589 37.43 717.635 37.43 717.68 37.43C718.851 40.265 720.998 42.13 723.561 42.13C726.215 42.13 727.061 39.93 727.37 37.165C728.362 38.49 729.536 39.5 730.617 39.5C731.528 39.5 732.724 38.548 733.484 36.556C733.539 36.556 733.595 36.548 733.65 36.546C734.842 41.946 737.992 45.446 740.15 45.446C741.3 45.446 741.668 43.591 741.668 42.13C741.668 40.54 741.624 39.453 741.574 38.73C742.009 40.606 743.474 44.152 747.703 44.152C749.391 44.152 747.929 43.609 749.003 40.876C750.441 43.938 752.545 47.469 755.373 47.469C758.261 47.469 756.049 41.448 759.041 41.448C760.999 41.448 762.668 44.127 764.794 44.127C765.418 44.098 766.02 43.8848 766.523 43.5143C767.026 43.1437 767.408 42.6324 767.621 42.045C767.621 41.26 767.661 40.475 767.705 39.695C767.915 40.1493 768.243 40.5387 768.655 40.8222C769.068 41.1057 769.549 41.2728 770.048 41.306C771.981 41.306 772.671 36.948 772.671 34.471C774.545 36.871 775.717 41.696 778.362 41.696C779.962 41.696 780.445 40.711 780.445 38.668C780.445 29.988 780.145 38.81 786.427 40.088C786.649 40.4457 786.955 40.7436 787.318 40.9557C787.682 41.1679 788.092 41.2878 788.512 41.305C789.372 41.305 789.985 40.44 790.402 39.263C791.262 38.3061 791.827 37.1213 792.029 35.851C793.445 38.351 794.629 41.695 796.829 41.695C798.429 41.695 798.911 40.708 798.911 38.667C798.911 29.333 798.565 40.24 806.422 40.24C806.977 40.2472 807.526 40.1214 808.022 39.873C808.958 42.758 810.995 45.063 813.047 45.063C815.071 45.063 816.87 43.071 816.87 40.297C816.87 38.877 819 43.397 821.764 43.397C823.345 43.397 825.688 40.957 825.688 37.514C827.535 39.875 829.325 43.672 832.067 43.672C832.348 43.7018 832.632 43.6713 832.901 43.5825C833.169 43.4937 833.415 43.3486 833.623 43.157C833.234 44.2145 833.013 45.3262 832.967 46.452C832.948 47.5363 833.358 48.5843 834.106 49.3687C834.855 50.153 835.883 50.6106 836.967 50.642C839.646 50.642 841.493 47.526 841.493 45.221C841.493 44.31 841.278 43.463 841.278 42.392C841.278 46.057 846.252 49.632 846.885 49.632C849.626 49.632 847.724 48.796 848.868 42.949C850.552 46.176 853.068 46.259 855.606 46.721C855.634 46.7268 855.662 46.7298 855.69 46.73C856.925 46.73 858.909 44.878 859.145 42.863V16.097H820.547Z" fill="#559B43"/>
<path d="M602.1 30.1941C602.752 30.1291 604.131 29.9571 604.131 29.1151C604.065 28.6687 603.838 28.2619 603.493 27.9718C603.147 27.6817 602.707 27.5284 602.256 27.541C600.156 27.541 600.504 29.3851 600.504 27.8571C600.428 27.5196 600.233 27.2208 599.955 27.0153C599.677 26.8098 599.334 26.7114 598.989 26.7381C598.247 26.7381 596.64 27.1111 596.64 28.1221C596.629 28.324 596.658 28.5262 596.727 28.7165C596.796 28.9067 596.902 29.0811 597.04 29.2291C596.813 29.2171 596.553 29.21 596.25 29.21C595.497 29.21 594.885 29.5211 594.885 30.4901C594.885 31.6901 595.86 32.072 596.922 32.072C597.409 32.0677 597.893 32.0005 598.362 31.8721C598.15 32.2223 598.044 32.626 598.056 33.0351C598.056 33.9501 598.54 34.2811 599.735 34.2811C600.212 34.3278 600.69 34.201 601.081 33.9238C601.473 33.6466 601.751 33.2377 601.865 32.7721C602.092 33.1338 602.4 33.4379 602.764 33.6607C603.129 33.8835 603.54 34.0188 603.965 34.0561C604.53 34.0561 605.476 33.7031 605.476 32.9451C605.475 32.2201 604.644 30.3671 602.1 30.1941Z" fill="#F7E68D"/>
<path d="M614.674 26.395C615.061 26.295 615.646 26.104 615.646 25.754C615.506 25.4227 615.265 25.1444 614.957 24.9589C614.648 24.7735 614.289 24.6905 613.931 24.722C613.688 24.7104 613.445 24.7472 613.216 24.8305C612.987 24.9138 612.777 25.0418 612.598 25.207C612.598 25.655 611.54 24.5441 610.825 24.5441C610.653 24.5533 610.49 24.6226 610.364 24.74C610.238 24.8573 610.157 25.0152 610.136 25.186C610.136 25.833 611.53 25.894 610.767 25.894C610.067 25.894 609.054 26.094 609.054 26.756C609.054 27.132 609.295 27.584 610.029 27.584C610.281 27.5791 610.531 27.5429 610.773 27.4761C610.708 27.5729 610.673 27.6871 610.673 27.804C610.673 28.492 612.006 28.934 612.797 28.934C613.267 28.934 614.374 28.875 614.374 28.274C614.374 27.409 612.923 27.7261 615.274 27.7261C615.752 27.7261 616.141 27.591 616.141 27.085C616.14 26.167 615.308 26.616 614.674 26.395Z" fill="#E6AAE8"/>
<path d="M588.749 28.59C589.136 28.49 589.721 28.3011 589.721 27.9481C589.581 27.6167 589.339 27.3385 589.031 27.1537C588.722 26.9689 588.363 26.8871 588.005 26.92C587.762 26.9083 587.519 26.9452 587.29 27.0284C587.062 27.1117 586.852 27.2397 586.673 27.405C586.673 27.852 585.614 26.744 584.899 26.744C584.727 26.7527 584.564 26.8218 584.438 26.9391C584.313 27.0564 584.233 27.2144 584.212 27.3851C584.212 28.0321 585.603 28.093 584.841 28.093C584.136 28.093 583.129 28.293 583.129 28.955C583.129 29.329 583.371 29.782 584.104 29.782C584.355 29.7763 584.604 29.7407 584.847 29.676C584.782 29.7726 584.747 29.8865 584.747 30.0031C584.747 30.6921 586.078 31.134 586.872 31.134C587.339 31.134 588.447 31.0761 588.447 30.4741C588.447 29.6101 586.995 29.925 589.347 29.925C589.824 29.925 590.212 29.791 590.212 29.285C590.213 28.362 589.385 28.811 588.749 28.59Z" fill="#E6AAE8"/>
<path d="M647.064 26.5131C647.717 26.4481 649.097 26.2761 649.097 25.4341C649.031 24.9873 648.804 24.5802 648.457 24.2901C648.111 23.9999 647.671 23.8469 647.219 23.8601C645.119 23.8601 645.469 25.7041 645.469 24.1751C645.393 23.838 645.198 23.5395 644.92 23.3343C644.642 23.129 644.3 23.0306 643.955 23.0571C643.21 23.0571 641.606 23.4301 641.606 24.4421C641.595 24.644 641.625 24.8461 641.693 25.0363C641.762 25.2265 641.868 25.4009 642.006 25.5491C641.781 25.5371 641.52 25.5301 641.217 25.5301C640.465 25.5301 639.852 25.8391 639.852 26.8111C639.852 28.0111 640.827 28.3921 641.888 28.3921C642.374 28.3878 642.857 28.3206 643.326 28.1921C643.117 28.5432 643.013 28.9468 643.026 29.3551C643.026 30.2701 643.509 30.6011 644.705 30.6011C645.182 30.6464 645.659 30.519 646.05 30.242C646.441 29.9651 646.72 29.5571 646.835 29.0921C647.062 29.4538 647.37 29.7579 647.734 29.9807C648.099 30.2034 648.51 30.3388 648.935 30.3761C649.498 30.3761 650.446 30.0221 650.446 29.2631C650.439 28.5391 649.607 26.6861 647.064 26.5131Z" fill="#F7E68D"/>
<path d="M639.071 32.3251C639.596 32.1921 640.388 31.9311 640.388 31.4551C640.199 31.005 639.872 30.6267 639.453 30.375C639.035 30.1233 638.547 30.0113 638.061 30.0551C637.732 30.0401 637.404 30.0905 637.095 30.2035C636.786 30.3164 636.503 30.4897 636.261 30.7131C636.261 31.3201 634.826 29.8131 633.856 29.8131C633.623 29.8253 633.402 29.9192 633.232 30.0783C633.061 30.2374 632.952 30.4516 632.924 30.6831C632.924 31.5591 634.811 31.6431 633.778 31.6431C632.82 31.6431 631.457 31.9051 631.457 32.8081C631.457 33.3171 631.784 33.9301 632.777 33.9301C633.118 33.9228 633.456 33.8741 633.785 33.7851C633.697 33.9169 633.651 34.0718 633.651 34.2301C633.651 35.1611 635.451 35.7631 636.531 35.7631C637.165 35.7631 638.666 35.6821 638.666 34.8691C638.666 33.6961 636.699 34.1251 639.885 34.1251C640.534 34.1251 641.059 33.9411 641.059 33.2561C641.055 32.0161 639.932 32.6251 639.071 32.3251Z" fill="#E6AAE8"/>
<path d="M661.382 32.3251C661.906 32.1921 662.698 31.9311 662.698 31.4551C662.509 31.0051 662.182 30.627 661.764 30.3753C661.346 30.1236 660.858 30.0115 660.372 30.0551C660.043 30.0402 659.715 30.0907 659.406 30.2036C659.097 30.3166 658.814 30.4897 658.572 30.7131C658.572 31.3201 657.137 29.8131 656.166 29.8131C655.933 29.8253 655.712 29.9192 655.542 30.0784C655.372 30.2375 655.263 30.4517 655.235 30.6831C655.235 31.5591 657.122 31.6431 656.089 31.6431C655.132 31.6431 653.767 31.9051 653.767 32.8081C653.767 33.3171 654.095 33.9301 655.087 33.9301C655.428 33.923 655.767 33.8743 656.096 33.7851C656.008 33.9168 655.961 34.0717 655.961 34.2301C655.961 35.1611 657.768 35.7631 658.841 35.7631C659.477 35.7631 660.978 35.6821 660.978 34.8691C660.978 33.6961 659.011 34.1251 662.197 34.1251C662.843 34.1251 663.371 33.9411 663.371 33.2561C663.368 32.0161 662.24 32.6251 661.382 32.3251Z" fill="#E6AAE8"/>
<path d="M742.614 26.513C743.267 26.448 744.647 26.276 744.647 25.434C744.581 24.9875 744.353 24.5807 744.007 24.2906C743.661 24.0005 743.221 23.8473 742.77 23.86C740.67 23.86 741.018 25.704 741.018 24.175C740.942 23.8379 740.748 23.5394 740.47 23.3341C740.192 23.1287 739.849 23.0304 739.505 23.057C738.762 23.057 737.156 23.43 737.156 24.442C737.145 24.6439 737.175 24.846 737.244 25.0361C737.312 25.2263 737.418 25.4007 737.556 25.549C737.332 25.537 737.071 25.53 736.769 25.53C736.016 25.53 735.403 25.839 735.403 26.811C735.403 28.011 736.378 28.392 737.441 28.392C737.927 28.3875 738.41 28.3203 738.879 28.192C738.668 28.5425 738.562 28.9461 738.573 29.3551C738.573 30.2701 739.059 30.601 740.254 30.601C740.731 30.6463 741.208 30.5189 741.599 30.242C741.99 29.965 742.269 29.557 742.384 29.0921C742.611 29.454 742.918 29.7583 743.283 29.9811C743.647 30.2039 744.058 30.3391 744.484 30.3761C745.047 30.3761 745.994 30.022 745.994 29.263C745.99 28.539 745.157 26.686 742.614 26.513Z" fill="#F7E68D"/>
<path d="M734.622 32.325C735.145 32.192 735.938 31.931 735.938 31.455C735.749 31.005 735.422 30.6269 735.004 30.3752C734.585 30.1235 734.098 30.0114 733.612 30.055C733.283 30.0399 732.955 30.0903 732.646 30.2033C732.337 30.3163 732.053 30.4895 731.812 30.713C731.812 31.32 730.377 29.813 729.406 29.813C729.173 29.8252 728.952 29.9191 728.782 30.0782C728.611 30.2373 728.502 30.4515 728.474 30.683C728.474 31.559 730.361 31.6429 729.329 31.6429C728.372 31.6429 727.007 31.905 727.007 32.808C727.007 33.317 727.335 33.93 728.329 33.93C728.67 33.9228 729.008 33.8741 729.337 33.785C729.249 33.9167 729.202 34.0716 729.202 34.23C729.202 35.161 731.01 35.7629 732.083 35.7629C732.718 35.7629 734.218 35.682 734.218 34.869C734.218 33.696 732.252 34.1249 735.438 34.1249C736.085 34.1249 736.612 33.941 736.612 33.256C736.607 32.016 735.48 32.625 734.622 32.325Z" fill="#E6AAE8"/>
<path d="M756.931 32.325C757.456 32.192 758.248 31.931 758.248 31.455C758.059 31.005 757.732 30.6269 757.314 30.3752C756.896 30.1235 756.408 30.0114 755.922 30.055C755.593 30.0398 755.265 30.0902 754.956 30.2031C754.647 30.3161 754.363 30.4894 754.122 30.713C754.122 31.32 752.687 29.813 751.717 29.813C751.484 29.8252 751.263 29.9191 751.093 30.0782C750.922 30.2373 750.813 30.4515 750.785 30.683C750.785 31.559 752.67 31.6429 751.639 31.6429C750.682 31.6429 749.317 31.905 749.317 32.808C749.317 33.317 749.644 33.93 750.637 33.93C750.978 33.9228 751.317 33.8741 751.646 33.785C751.558 33.9167 751.511 34.0716 751.511 34.23C751.511 35.161 753.311 35.7629 754.391 35.7629C755.026 35.7629 756.526 35.682 756.526 34.869C756.526 33.696 754.559 34.1249 757.745 34.1249C758.394 34.1249 758.921 33.941 758.921 33.256C758.918 32.016 757.79 32.625 756.931 32.325Z" fill="#E6AAE8"/>
<path d="M793.199 30.1941C793.853 30.1291 795.231 29.9571 795.231 29.1151C795.165 28.6683 794.938 28.2612 794.592 27.9711C794.246 27.6809 793.805 27.5279 793.354 27.541C791.254 27.541 791.604 29.3851 791.604 27.8571C791.528 27.5196 791.333 27.2208 791.055 27.0153C790.777 26.8098 790.434 26.7114 790.089 26.7381C789.345 26.7381 787.739 27.1111 787.739 28.1221C787.728 28.324 787.758 28.5261 787.826 28.7163C787.895 28.9065 788.001 29.0809 788.139 29.2291C787.913 29.2171 787.653 29.21 787.35 29.21C786.598 29.21 785.985 29.5211 785.985 30.4901C785.985 31.6901 786.958 32.072 788.022 32.072C788.508 32.0676 788.991 32.0005 789.46 31.8721C789.251 32.2231 789.147 32.6267 789.16 33.0351C789.16 33.9501 789.644 34.2811 790.839 34.2811C791.316 34.3276 791.794 34.2006 792.185 33.9235C792.576 33.6463 792.854 33.2375 792.968 32.7721C793.195 33.1338 793.503 33.4381 793.867 33.6608C794.232 33.8836 794.643 34.0189 795.068 34.0561C795.63 34.0561 796.579 33.7031 796.579 32.9451C796.577 32.2201 795.744 30.3671 793.199 30.1941Z" fill="#F7E68D"/>
<path d="M805.774 26.395C806.161 26.295 806.746 26.104 806.746 25.754C806.606 25.4225 806.364 25.144 806.056 24.9586C805.748 24.7731 805.388 24.6903 805.03 24.722C804.787 24.7103 804.544 24.7472 804.315 24.8304C804.086 24.9137 803.877 25.0417 803.698 25.207C803.698 25.655 802.64 24.5441 801.923 24.5441C801.751 24.5534 801.589 24.6228 801.463 24.7402C801.338 24.8576 801.258 25.0155 801.237 25.186C801.237 25.833 802.628 25.894 801.867 25.894C801.162 25.894 800.154 26.094 800.154 26.756C800.154 27.132 800.395 27.584 801.128 27.584C801.379 27.5792 801.629 27.543 801.871 27.4761C801.806 27.5732 801.771 27.6872 801.771 27.804C801.771 28.492 803.103 28.934 803.895 28.934C804.363 28.934 805.47 28.875 805.47 28.274C805.47 27.409 804.02 27.7261 806.37 27.7261C806.847 27.7261 807.235 27.591 807.235 27.085C807.238 26.167 806.408 26.616 805.774 26.395Z" fill="#E6AAE8"/>
<path d="M779.848 28.59C780.235 28.49 780.82 28.3011 780.82 27.9481C780.679 27.6173 780.438 27.3396 780.129 27.1549C779.821 26.9702 779.462 26.888 779.104 26.92C778.861 26.9082 778.618 26.945 778.39 27.0283C778.161 27.1116 777.951 27.2396 777.773 27.405C777.773 27.852 776.714 26.744 775.997 26.744C775.825 26.7531 775.663 26.8224 775.537 26.9396C775.411 27.0568 775.331 27.2145 775.31 27.3851C775.31 28.0321 776.703 28.093 775.941 28.093C775.236 28.093 774.228 28.293 774.228 28.955C774.228 29.329 774.469 29.782 775.202 29.782C775.453 29.7764 775.702 29.7408 775.945 29.676C775.881 29.773 775.846 29.8867 775.845 30.0031C775.845 30.6921 777.177 31.134 777.969 31.134C778.438 31.134 779.545 31.0761 779.545 30.4741C779.545 29.6101 778.094 29.925 780.445 29.925C780.924 29.925 781.312 29.791 781.312 29.285C781.313 28.362 780.481 28.811 779.848 28.59Z" fill="#E6AAE8"/>
</svg>
