<?xml version="1.0" standalone="no"?>
<!DOCTYPE svg PUBLIC "-//W3C//DTD SVG 1.1//EN" "http://www.w3.org/Graphics/SVG/1.1/DTD/svg11.dtd" >
<svg>
<metadata>
Created by FontForge 20090914 at Fri Jul 19 10:55:58 2019
 By www-data
Samsung Sharp Sans is a customized version of Sharp Sans, which is copyright (c) 2015 by Lucas Sharp. All rights reserved.
</metadata>
<defs>
<font id="iCielSamsungSharpSans-Medium" horiz-adv-x="489" >
  <font-face 
    font-family="iCiel Samsung Sharp Sans Medium"
    font-weight="700"
    font-stretch="normal"
    units-per-em="1000"
    panose-1="0 0 0 0 0 0 0 0 0 0"
    ascent="800"
    descent="-200"
    x-height="585"
    cap-height="730"
    bbox="-371 -284.999 1376 1133"
    underline-thickness="50"
    underline-position="-50"
    unicode-range="U+0020-U+FB79"
  />
<missing-glyph horiz-adv-x="926" 
d="M100 730h726v-730h-726v730zM236 130h454v470h-454v-470zM260 240l123 127l-124 129l80 78l122 -126l124 127l80 -78l-126 -130l125 -128l-80 -78l-123 126l-121 -125z" />
    <glyph glyph-name="uni203D" unicode="&#x21;&#x3f;" horiz-adv-x="533" 
d="M223 189c-0.666992 26.667 -1.50195 57.499 -2.50195 92.499s-1.83301 71.5 -2.5 109.5s-1.16699 76.167 -1.5 114.5s-0.5 74.166 -0.5 107.499v39c-24 -6 -43.5 -16.667 -58.5 -32s-27.167 -33.666 -36.5 -54.999l-88 34c15.333 40.667 42.333 74.334 81 101.001
s87 40 145 40c33.333 0 63.833 -4.66699 91.5 -14s51.5 -22.333 71.5 -39s35.667 -36.834 47 -60.501s17 -50.167 17 -79.5c0 -31.333 -4.66699 -56.833 -14 -76.5s-21.166 -36.5 -35.499 -50.5s-29.833 -26.833 -46.5 -38.5s-32.167 -25 -46.5 -40
s-26.166 -33.667 -35.499 -56s-14 -51.166 -14 -86.499v-10h-71zM178.998 62.999c0 21.333 6.66895 38.666 20.002 51.999s30.666 20 51.999 20c23.333 0 41.5 -6.66699 54.5 -20s19.5 -30.666 19.5 -51.999s-6.5 -38.666 -19.5 -51.999s-31.167 -20 -54.5 -20
c-22.667 0 -40.334 6.66699 -53.001 20s-19 30.666 -19 51.999zM389 547.999c0 25.333 -7.66699 46.999 -23 64.999s-36.333 30.667 -63 38v-38c0 -34 -0.666992 -69.5 -2 -106.5s-3 -73.833 -5 -110.5c10.667 12.667 21.5 24 32.5 34s21 20.333 30 31
s16.333 22.834 22 36.501s8.5 30.5 8.5 50.5z" />
    <glyph glyph-name="interrobangdown" unicode="&#xa1;&#xbf;" horiz-adv-x="533" 
d="M275 -240c-32.667 0 -62.999 4.66895 -90.999 14.002s-52 22.333 -72 39s-35.667 36.834 -47 60.501s-17 50.167 -17 79.5c0 31.333 4.66699 56.833 14 76.5s21.166 36.5 35.499 50.5s29.833 26.833 46.5 38.5s32.167 25.167 46.5 40.5s26.166 34 35.499 56
s14 50.667 14 86v10h72c0.666992 -26.667 1.33398 -57.334 2.00098 -92.001l2 -109c0.666992 -38 1.16699 -76.333 1.5 -115s0.5 -74.667 0.5 -108v-39c23.333 6 42.833 16.667 58.5 32s28.167 33.666 37.5 54.999l88 -34c-15.333 -40.667 -42.5 -74.334 -81.5 -101.001
s-87.5 -40 -145.5 -40zM206.001 431.002c0 21.333 6.66895 38.666 20.002 51.999s30.666 20 51.999 20c23.333 0 41.5 -6.66699 54.5 -20s19.5 -30.666 19.5 -51.999s-6.5 -38.666 -19.5 -51.999s-31.167 -20 -54.5 -20c-22.667 0 -40.334 6.66699 -53.001 20
s-19 30.666 -19 51.999zM146.003 -47.998c0 -25.333 7.50098 -47 22.501 -65s35.833 -30.667 62.5 -38v38c0 33.333 0.666992 68.5 2 105.5s3 73.833 5 110.5c-10.667 -12.667 -21.334 -24 -32.001 -34s-20.5 -20.333 -29.5 -31s-16.333 -22.667 -22 -36s-8.5 -30 -8.5 -50z
" />
    <glyph glyph-name="uniFB76" unicode="&#x683;" horiz-adv-x="512" arabic-form="isolated" 
d="M57 596l205.001 0.000976562c32 0 61.167 -5.16699 87.5 -15.5s48.666 -24.333 66.999 -42s32.5 -38.334 42.5 -62.001s15 -49.167 15 -76.5c0 -38 -9.66699 -72.5 -29 -103.5s-47 -54.833 -83 -71.5l123 -225h-108l-104 199h-120v-199h-96v596zM153.001 508.001
l0.00195312 -219.999h100c20 0 37.667 3 53 9s28.166 14.167 38.499 24.5s18.166 22.166 23.499 35.499s8 27.333 8 42c0 32.667 -10 59 -30 79s-50 30 -90 30h-103z" />
    <glyph glyph-name="uniFB77" unicode="&#x683;" horiz-adv-x="512" arabic-form="final" 
d="M57 596l205.001 0.000976562c32 0 61.167 -5.16699 87.5 -15.5s48.666 -24.333 66.999 -42s32.5 -38.334 42.5 -62.001s15 -49.167 15 -76.5c0 -38 -9.66699 -72.5 -29 -103.5s-47 -54.833 -83 -71.5l123 -225h-108l-104 199h-120v-199h-96v596zM153.001 508.001
l0.00195312 -219.999h100c20 0 37.667 3 53 9s28.166 14.167 38.499 24.5s18.166 22.166 23.499 35.499s8 27.333 8 42c0 32.667 -10 59 -30 79s-50 30 -90 30h-103zM309.003 816.002h105l-146 -163h-75z" />
    <glyph glyph-name="uniFB78" unicode="&#x683;" horiz-adv-x="512" arabic-form="initial" 
d="M57 596l205.001 0.000976562c32 0 61.167 -5.16699 87.5 -15.5s48.666 -24.333 66.999 -42s32.5 -38.334 42.5 -62.001s15 -49.167 15 -76.5c0 -38 -9.66699 -72.5 -29 -103.5s-47 -54.833 -83 -71.5l123 -225h-108l-104 199h-120v-199h-96v596zM153.001 508.001
l0.00195312 -219.999h100c20 0 37.667 3 53 9s28.166 14.167 38.499 24.5s18.166 22.166 23.499 35.499s8 27.333 8 42c0 32.667 -10 59 -30 79s-50 30 -90 30h-103zM100.003 816.002h85l68 -98l70 98h84l-119 -163h-69z" />
    <glyph glyph-name="uniFB79" unicode="&#x683;" horiz-adv-x="512" arabic-form="medial" 
d="M57 596l205.001 0.000976562c32 0 61.167 -5.16699 87.5 -15.5s48.666 -24.333 66.999 -42s32.5 -38.334 42.5 -62.001s15 -49.167 15 -76.5c0 -38 -9.66699 -72.5 -29 -103.5s-47 -54.833 -83 -71.5l123 -225h-108l-104 199h-120v-199h-96v596zM153.001 508.001
l0.00195312 -219.999h100c20 0 37.667 3 53 9s28.166 14.167 38.499 24.5s18.166 22.166 23.499 35.499s8 27.333 8 42c0 32.667 -10 59 -30 79s-50 30 -90 30h-103zM174.003 -254.998l40 204h86l-63 -204h-63z" />
    <glyph glyph-name=".notdef" horiz-adv-x="926" 
d="M100 730h726v-730h-726v730zM236 130h454v470h-454v-470zM260 240l123 127l-124 129l80 78l122 -126l124 127l80 -78l-126 -130l125 -128l-80 -78l-123 126l-121 -125z" />
    <glyph glyph-name=".null" horiz-adv-x="0" 
 />
    <glyph glyph-name=".null" horiz-adv-x="0" 
 />
    <glyph glyph-name="space" unicode=" " horiz-adv-x="249" 
 />
    <glyph glyph-name="exclam" unicode="!" horiz-adv-x="228" 
d="M88 195c-2.66699 26 -5.33301 56 -8 90s-5 69.833 -7 107.5s-3.5 75.5 -4.5 113.5s-1.5 73.667 -1.5 107v117h96v-117c0 -33.333 -0.5 -69 -1.5 -107s-2.5 -75.833 -4.5 -113.5s-4.33301 -73.5 -7 -107.5s-5.66699 -64 -9 -90h-53zM42.001 63
c0 21.333 6.66895 38.666 20.002 51.999s30.666 20 51.999 20c23.333 0 41.5 -6.66699 54.5 -20s19.5 -30.666 19.5 -51.999s-6.5 -38.666 -19.5 -51.999s-31.167 -20 -54.5 -20c-22.667 0 -40.334 6.66699 -53.001 20s-19 30.666 -19 51.999z" />
    <glyph glyph-name="quotedbl" unicode="&#x22;" horiz-adv-x="307" 
d="M76 500c-2 6 -4.33105 15.167 -6.99805 27.5s-5.33398 25.666 -8.00098 39.999s-5 28.5 -7 42.5s-3 26 -3 36v84h79v-84c0 -10 -1 -22 -3 -36s-4.33301 -28.167 -7 -42.5s-5.33398 -27.666 -8.00098 -39.999s-5 -21.5 -7 -27.5h-29zM202.002 500
c-2 6 -4.33203 15.168 -6.99902 27.501s-5.33398 25.666 -8.00098 39.999s-5 28.5 -7 42.5s-3 26 -3 36v84h80v-84c0 -10 -1 -22 -3 -36s-4.5 -28.167 -7.5 -42.5l-8.5 -40c-2.66699 -12.333 -5 -21.5 -7 -27.5h-29z" />
    <glyph glyph-name="numbersign" unicode="#" horiz-adv-x="821" 
d="M506 179h-195v-179h-96v179h-177v92h177v196h-177v93h177v170h96v-170h195v170h98v-170h179v-93h-179v-196h179v-92h-179v-179h-98v179zM311 271h195v196h-195v-196z" />
    <glyph glyph-name="dollar" unicode="$" horiz-adv-x="588" 
d="M552 206c0 -25.333 -4.66895 -49.833 -14.002 -73.5s-22.833 -45 -40.5 -64s-39 -35.167 -64 -48.5s-53.5 -22.333 -85.5 -27v-113h-97v113c-50 6 -93 19.667 -129 41s-67.333 47.666 -94 78.999l81 70c17.333 -26 37.833 -47.333 61.5 -64s51.167 -28 82.5 -34v263
c-23.333 7.33301 -46.833 16 -70.5 26s-45 22.5 -64 37.5s-34.333 33.333 -46 55s-17.5 47.5 -17.5 77.5c0 25.333 4.66699 49 14 71s22.5 41.5 39.5 58.5s37.5 31 61.5 42s51 18.167 81 21.5v103h97v-104c43.333 -6 79.833 -18.167 109.5 -36.5
s55.834 -41.166 78.501 -68.499l-79 -59c-13.333 19.333 -29 35.5 -47 48.5s-39.333 22.5 -64 28.5v-233c24 -8 48.333 -17.167 73 -27.5s46.834 -23.5 66.501 -39.5s35.667 -35.5 48 -58.5s18.5 -51.167 18.5 -84.5zM453.998 206c0 30.667 -10.668 54.332 -32.001 70.999
s-46.666 30.334 -75.999 41.001v-233c34 7.33301 60.5 21.833 79.5 43.5s28.5 47.5 28.5 77.5zM151.997 546.998c0 -27.333 9.66699 -48.499 29 -63.499s43.333 -27.5 72 -37.5v205c-31.333 -5.33301 -56 -17.333 -74 -36s-27 -41.334 -27 -68.001z" />
    <glyph glyph-name="percent" unicode="%" horiz-adv-x="844" 
d="M133 568c0 -25.333 8.83301 -47 26.5 -65s38.834 -27 63.501 -27s45.667 9 63 27s26 39.667 26 65s-8.66699 46.833 -26 64.5s-38.333 26.5 -63 26.5s-45.834 -8.83301 -63.501 -26.5s-26.5 -39.167 -26.5 -64.5zM458 162c0 24 4.5 46.333 13.5 67
s21.167 38.834 36.5 54.501s33.5 28 54.5 37s43.5 13.5 67.5 13.5s46.333 -4.5 67 -13.5s38.834 -21.333 54.501 -37s28 -33.834 37 -54.501s13.5 -43 13.5 -67s-4.5 -46.5 -13.5 -67.5s-21.333 -39.333 -37 -55s-33.834 -28 -54.501 -37s-43 -13.5 -67 -13.5
s-46.5 4.5 -67.5 13.5s-39.167 21.333 -54.5 37s-27.5 34 -36.5 55s-13.5 43.5 -13.5 67.5zM679 730h122l-627 -730h-122zM540 162c0 -25.333 8.66699 -47 26 -65s38.666 -27 63.999 -27c24.667 0 45.667 9 63 27s26 39.667 26 65s-8.66699 46.833 -26 64.5
s-38.333 26.5 -63 26.5c-25.333 0 -46.666 -8.83301 -63.999 -26.5s-26 -39.167 -26 -64.5zM51 568c0 24 4.5 46.5 13.5 67.5s21.333 39.167 37 54.5s33.834 27.5 54.501 36.5s43 13.5 67 13.5s46.333 -4.5 67 -13.5s38.834 -21.167 54.501 -36.5s28 -33.5 37 -54.5
s13.5 -43.5 13.5 -67.5s-4.5 -46.5 -13.5 -67.5s-21.333 -39.333 -37 -55s-33.834 -28 -54.501 -37s-43 -13.5 -67 -13.5s-46.333 4.5 -67 13.5s-38.834 21.333 -54.501 37s-28 34 -37 55s-13.5 43.5 -13.5 67.5z" />
    <glyph glyph-name="ampersand" unicode="&#x26;" horiz-adv-x="756" 
d="M532 66c-30 -23.333 -62.5 -41.999 -97.5 -55.999s-72.5 -21 -112.5 -21c-52 0 -96 7.16699 -132 21.5s-65.333 33 -88 56s-39.167 48.5 -49.5 76.5s-15.5 56 -15.5 84c0 48 12.333 90.167 37 126.5s56.334 65.5 95.001 87.5
c-12.667 18.667 -22.334 37.834 -29.001 57.501s-10 41.5 -10 65.5s4.5 46.667 13.5 68s22 40 39 56s37.5 28.667 61.5 38s51 14 81 14c50 0 90.5 -11 121.5 -33s54.167 -47.667 69.5 -77l-88 -41c-9.33301 17.333 -22.166 32.666 -38.499 45.999s-37.5 20 -63.5 20
c-29.333 0 -52.666 -8.83301 -69.999 -26.5s-26 -39.167 -26 -64.5c0 -14.667 2.16699 -28.167 6.5 -40.5s11.166 -25.333 20.499 -39s21.666 -28.667 36.999 -45l57 -58.5l188 -188c20.667 26 37.5 54.167 50.5 84.5s22.167 60.5 27.5 90.5h-127v91h222v-42
c0 -46 -9.83301 -94.333 -29.5 -145s-47.167 -97.334 -82.5 -140.001l131 -132h-132zM321 75.001c28 0 54.667 4.66602 80 13.999s48.666 21.666 69.999 36.999l-199 200l-24.5 24.5l-22.5 23.5c-30 -17.333 -52.833 -37.666 -68.5 -60.999s-23.5 -51.666 -23.5 -84.999
c0 -18.667 3.83301 -37 11.5 -55s19.334 -34.333 35.001 -49s35.167 -26.5 58.5 -35.5s51 -13.5 83 -13.5z" />
    <glyph glyph-name="quotesingle" unicode="'" horiz-adv-x="181" 
d="M76 500c-2 6 -4.33105 15.167 -6.99805 27.5s-5.33398 25.666 -8.00098 39.999s-5 28.5 -7 42.5s-3 26 -3 36v84h79v-84c0 -10 -1 -22 -3 -36s-4.33301 -28.167 -7 -42.5s-5.33398 -27.666 -8.00098 -39.999s-5 -21.5 -7 -27.5h-29z" />
    <glyph glyph-name="parenleft" unicode="(" horiz-adv-x="411" 
d="M316 -250c-39.333 26.667 -75.833 56.835 -109.5 90.502s-63 71 -88 112s-44.5 86.167 -58.5 135.5s-21 103.333 -21 162s6.83301 112.167 20.5 160.5s32.667 92.666 57 132.999s53 77.166 86 110.499s68.833 64 107.5 92l66 -72c-34 -23.333 -65.333 -49.333 -94 -78
s-53.5 -60.334 -74.5 -95.001s-37.333 -72.667 -49 -114s-17.5 -86.666 -17.5 -135.999c0 -48.667 5.66699 -93.667 17 -135s27.333 -79.5 48 -114.5s45.667 -66.833 75 -95.5s62 -54.667 98 -78z" />
    <glyph glyph-name="parenright" unicode=")" horiz-adv-x="411" 
d="M270 249c0 49.333 -5.8291 94.833 -17.4961 136.5s-27.834 80 -48.501 115s-45.334 66.667 -74.001 95s-60 54.166 -94 77.499l65 72c38.667 -28 74.5 -58.667 107.5 -92s61.667 -70.166 86 -110.499s43.333 -84.666 57 -132.999s20.5 -101.833 20.5 -160.5
s-7 -112.667 -21 -162s-33.5 -94.5 -58.5 -135.5s-54.333 -78.333 -88 -112s-70.167 -63.834 -109.5 -90.501l-62 77c36 24 68.667 50.5 98 79.5s54.166 60.833 74.499 95.5s36.166 72.5 47.499 113.5s17 85.833 17 134.5z" />
    <glyph glyph-name="asterisk" unicode="*" horiz-adv-x="424" 
d="M234 515l20 -138h-84l19 138l-110 -86l-42 74l129 51l-129 53l43 73l110 -88l-20 139h84l-20 -138l110 86l42 -74l-131 -51l131 -52l-44 -73z" />
    <glyph glyph-name="plus" unicode="+" horiz-adv-x="461" 
d="M46 406h145v143h80v-143h145v-82h-145v-145h-80v145h-145v82z" />
    <glyph glyph-name="comma" unicode="," horiz-adv-x="202" 
d="M68 87h106l-86 -204h-67z" />
    <glyph glyph-name="hyphen" unicode="-" horiz-adv-x="461" 
d="M46 294h370v-83h-370v83z" />
    <glyph glyph-name="period" unicode="." horiz-adv-x="230" 
d="M42 63c0 21.333 6.66895 38.666 20.002 51.999s30.666 20 51.999 20c23.333 0 41.5 -6.66699 54.5 -20s19.5 -30.666 19.5 -51.999s-6.5 -38.666 -19.5 -51.999s-31.167 -20 -54.5 -20c-22.667 0 -40.334 6.66699 -53.001 20s-19 30.666 -19 51.999z" />
    <glyph glyph-name="slash" unicode="/" 
d="M367 730h103l-346 -730h-103z" />
    <glyph glyph-name="zero" unicode="0" horiz-adv-x="588" 
d="M293 83c46 0 81.167 13.166 105.5 39.499s36.5 60.833 36.5 103.5v272c0 46.667 -12 83.334 -36 110.001s-58.667 40 -104 40c-46 0 -81.167 -14 -105.5 -42s-36.5 -64 -36.5 -108v-270c0 -44 11.833 -79.167 35.5 -105.5s58.5 -39.5 104.5 -39.5zM294 -10.001
c-38 0 -71.833 5.66895 -101.5 17.002s-54.5 27.166 -74.5 47.499s-35.167 45 -45.5 74s-15.5 61.167 -15.5 96.5v274c0 34.667 5.66699 66.667 17 96s27.5 54.833 48.5 76.5s46 38.5 75 50.5s61.167 18 96.5 18c36 0 68.667 -6.16699 98 -18.5s54.333 -29.333 75 -51
s36.667 -47 48 -76s17 -60.5 17 -94.5v-276c0 -72.667 -21 -129.834 -63 -171.501s-100.333 -62.5 -175 -62.5z" />
    <glyph glyph-name="one" unicode="1" horiz-adv-x="323" 
d="M148 0v639h-119v91h215v-730h-96z" />
    <glyph glyph-name="two" unicode="2" horiz-adv-x="565" 
d="M52 94c0 29.333 5.83105 56.334 17.498 81.001s26.834 47.5 45.501 68.5s39.834 40.5 63.501 58.5l71.5 52l61 44c19.333 14 36.666 28.5 51.999 43.5s27.5 30.333 36.5 46s13.5 32.5 13.5 50.5c0 34 -11.833 62 -35.5 84s-56.5 33 -98.5 33c-36 0 -66.333 -10 -91 -30
s-44.667 -46 -60 -78l-84 44c21.333 44 52 79.833 92 107.5s87.667 41.5 143 41.5c36 0 68.333 -5.33301 97 -16s53 -25.167 73 -43.5s35.5 -39.833 46.5 -64.5s16.5 -51 16.5 -79c0 -28.667 -5.66699 -54.667 -17 -78s-26.166 -44.833 -44.499 -64.5s-39 -38.167 -62 -55.5
l-69.5 -50l-62.5 -44c-20.333 -14.667 -38.333 -29.834 -54 -45.501s-28.167 -32.167 -37.5 -49.5s-14 -36 -14 -56v-1h367v-93h-466v94z" />
    <glyph glyph-name="three" unicode="3" horiz-adv-x="543" 
d="M260 -10c-46.667 0 -90 8.33008 -130 24.9971s-74.667 42.667 -104 78l82 63c18.667 -25.333 40.667 -44.666 66 -57.999s54 -20 86 -20c44 0 79.167 11.833 105.5 35.5s39.5 54.167 39.5 91.5c0 19.333 -4 36.833 -12 52.5s-19.167 29 -33.5 40
s-31.166 19.5 -50.499 25.5s-40.333 9 -63 9h-72v90h72c45.333 0 80.666 11 105.999 33s38 50.333 38 85c0 35.333 -12.5 63.333 -37.5 84s-58.5 31 -100.5 31c-31.333 0 -58.5 -7.16699 -81.5 -21.5s-41.833 -32.833 -56.5 -55.5l-81 49c22 33.333 51.833 60.5 89.5 81.5
s81.167 31.5 130.5 31.5c36 0 68.333 -4.83301 97 -14.5s53 -23.167 73 -40.5s35.333 -38.333 46 -63s16 -51.667 16 -81c0 -36 -8.5 -67.667 -25.5 -95s-40.5 -49.333 -70.5 -66c34.667 -16.667 62.167 -39.667 82.5 -69s30.5 -64.666 30.5 -105.999
c0 -30.667 -5.5 -59.167 -16.5 -85.5s-26.833 -49.166 -47.5 -68.499s-46 -34.333 -76 -45s-64 -16 -102 -16z" />
    <glyph glyph-name="four" unicode="4" horiz-adv-x="617" 
d="M374 168h-333v89l330 473h99v-474h107v-88h-107v-168h-96v168zM374 256v325l-228 -325h228z" />
    <glyph glyph-name="five" unicode="5" horiz-adv-x="579" 
d="M291 -10c-59.333 0 -110.166 12.833 -152.499 38.5s-73.833 58.167 -94.5 97.5l90 54c14 -28 33.833 -51.667 59.5 -71s58.167 -29 97.5 -29c21.333 0 41.166 3.66699 59.499 11s34.333 17.666 48 30.999s24.5 29.333 32.5 48s12 39.334 12 62.001
c0 24 -4.16699 45.667 -12.5 65s-19.5 35.833 -33.5 49.5s-30.333 24 -49 31s-38 10.5 -58 10.5c-38 0 -69.333 -8.66699 -94 -26s-44.334 -40.333 -59.001 -69l-89 39l56 398h394v-91h-314l-31 -214c17.333 14.667 37.833 26.834 61.5 36.501s50.834 14.5 81.501 14.5
c32 0 62.833 -5 92.5 -15s55.667 -25.167 78 -45.5s40.333 -45.833 54 -76.5s20.5 -66.334 20.5 -107.001c0 -36 -6.33301 -68.833 -19 -98.5s-30 -55.167 -52 -76.5s-48.333 -37.833 -79 -49.5s-64 -17.5 -100 -17.5z" />
    <glyph glyph-name="six" unicode="6" horiz-adv-x="594" 
d="M297 -10c-37.333 0 -71.832 6.5 -103.499 19.5s-59 30.833 -82 53.5s-41 49.334 -54 80.001s-19.5 63.334 -19.5 98.001c0 34 5 66.667 15 98s23.667 59 41 83l205 308h115l-166 -245c10.667 3.33301 21.5 5.83301 32.5 7.5s22.5 2.5 34.5 2.5
c33.333 0 64.666 -6.33301 93.999 -19s54.833 -30.167 76.5 -52.5s38.834 -49 51.501 -80s19 -64.833 19 -101.5c0 -36 -6.66699 -69.333 -20 -100s-31.5 -57.334 -54.5 -80.001s-50.333 -40.334 -82 -53.001s-65.834 -19 -102.501 -19zM296.001 78
c22.667 0 43.834 4.33301 63.501 13s37 20.5 52 35.5s26.833 32.667 35.5 53s13 41.833 13 64.5s-4.33301 43.834 -13 63.501s-20.5 37 -35.5 52s-32.333 26.833 -52 35.5s-40.834 13 -63.501 13s-44 -4.33301 -64 -13s-37.333 -20.334 -52 -35.001s-26.167 -32 -34.5 -52
s-12.5 -41.333 -12.5 -64s4.16699 -44.167 12.5 -64.5s19.833 -38 34.5 -53s32 -26.833 52 -35.5s41.333 -13 64 -13z" />
    <glyph glyph-name="seven" unicode="7" horiz-adv-x="530" 
d="M390 637h-352v93h452v-84l-290 -646h-103z" />
    <glyph glyph-name="eight" unicode="8" horiz-adv-x="549" 
d="M275 -10c-36 0 -68.334 5.5 -97.001 16.5s-53.167 26.333 -73.5 46s-36 42.834 -47 69.501s-16.5 56 -16.5 88c0 38.667 9.33301 73.5 28 104.5s43 55.833 73 74.5c-23.333 17.333 -42 39 -56 65s-21 55.333 -21 88c0 29.333 5.33301 56 16 80s25.334 44.833 44.001 62.5
s41 31.334 67 41.001s54.333 14.5 85 14.5c30 0 57.833 -4.83301 83.5 -14.5s48 -23.334 67 -41.001s33.833 -38.5 44.5 -62.5s16 -50.667 16 -80c0 -33.333 -7.33301 -62.833 -22 -88.5s-33.667 -47.167 -57 -64.5c30 -18.667 54.167 -43.5 72.5 -74.5
s27.5 -65.833 27.5 -104.5c0 -32 -5.5 -61.333 -16.5 -88s-26.667 -49.834 -47 -69.501s-45 -35 -74 -46s-61.167 -16.5 -96.5 -16.5zM273.999 78c21.333 0 40.5 3.5 57.5 10.5s31.833 16.5 44.5 28.5s22.334 26 29.001 42s10 33 10 51s-3.33301 35.167 -10 51.5
s-16 30.5 -28 42.5s-26.5 21.5 -43.5 28.5s-36.167 10.5 -57.5 10.5c-20.667 0 -39.667 -3.5 -57 -10.5s-32.333 -16.5 -45 -28.5s-22.334 -26.167 -29.001 -42.5s-10 -33.5 -10 -51.5s3.33301 -35 10 -51s16.167 -30 28.5 -42s27 -21.5 44 -28.5s35.833 -10.5 56.5 -10.5z
M274.999 427c36 0 65.333 11.167 88 33.5s34 49.5 34 81.5s-11 59.167 -33 81.5s-51 33.5 -87 33.5s-65.333 -11.167 -88 -33.5s-34 -49.5 -34 -81.5c0 -32.667 11 -60 33 -82s51 -33 87 -33z" />
    <glyph glyph-name="nine" unicode="9" horiz-adv-x="591" 
d="M345 248c-10.667 -3.33301 -21.667 -5.83398 -33 -7.50098s-22.666 -2.5 -33.999 -2.5c-33.333 0 -64.666 6.33301 -93.999 19s-54.833 30.167 -76.5 52.5s-38.834 48.666 -51.501 78.999s-19 63.5 -19 99.5c0 36.667 6.66699 70.334 20 101.001s31.5 57.167 54.5 79.5
s50.333 39.833 82 52.5s65.5 19 101.5 19c37.333 0 71.666 -6.5 102.999 -19.5s58.5 -30.833 81.5 -53.5s41 -49.167 54 -79.5s19.5 -63.166 19.5 -98.499c0 -32 -4.83301 -63.5 -14.5 -94.5s-23.167 -58.5 -40.5 -82.5l-205 -312h-115zM296 324.999
c22.667 0 43.834 4.33008 63.501 12.9971s36.834 20.334 51.501 35.001s26.167 31.834 34.5 51.501s12.5 40.834 12.5 63.501s-4.16699 44 -12.5 64s-19.833 37.5 -34.5 52.5s-31.834 26.833 -51.501 35.5s-40.834 13 -63.501 13c-22 0 -43 -4.33301 -63 -13
s-37.333 -20.5 -52 -35.5s-26.334 -32.5 -35.001 -52.5s-13 -41.333 -13 -64s4.33301 -44 13 -64s20.334 -37.333 35.001 -52s32 -26.167 52 -34.5s41 -12.5 63 -12.5z" />
    <glyph glyph-name="colon" unicode=":" horiz-adv-x="230" 
d="M42 63c0 21.333 6.66895 38.666 20.002 51.999s30.666 20 51.999 20c23.333 0 41.5 -6.66699 54.5 -20s19.5 -30.666 19.5 -51.999s-6.5 -38.666 -19.5 -51.999s-31.167 -20 -54.5 -20c-22.667 0 -40.334 6.66699 -53.001 20s-19 30.666 -19 51.999zM42.002 426
c0 21.333 6.66895 38.666 20.002 51.999s30.666 20 51.999 20c23.333 0 41.5 -6.66699 54.5 -20s19.5 -30.666 19.5 -51.999s-6.5 -38.666 -19.5 -51.999s-31.167 -20 -54.5 -20c-22.667 0 -40.334 6.66699 -53.001 20s-19 30.666 -19 51.999z" />
    <glyph glyph-name="semicolon" unicode=";" horiz-adv-x="230" 
d="M42 426c0 21.333 6.66895 38.666 20.002 51.999s30.666 20 51.999 20c23.333 0 41.5 -6.66699 54.5 -20s19.5 -30.666 19.5 -51.999s-6.5 -38.666 -19.5 -51.999s-31.167 -20 -54.5 -20c-22.667 0 -40.334 6.66699 -53.001 20s-19 30.666 -19 51.999zM68.002 87h106
l-86 -204h-67z" />
    <glyph glyph-name="less" unicode="&#x3c;" horiz-adv-x="461" 
d="M46 324v82l370 138v-85l-270 -94l270 -95v-86z" />
    <glyph glyph-name="equal" unicode="=" horiz-adv-x="461" 
d="M46 487h370v-83h-370v83zM46 322h370v-82h-370v82z" />
    <glyph glyph-name="greater" unicode="&#x3e;" horiz-adv-x="461" 
d="M46 270l270 95l-270 94v85l370 -138v-82l-370 -140v86z" />
    <glyph glyph-name="question" unicode="?" horiz-adv-x="533" 
d="M207 199c0 41.333 4.49902 75.501 13.499 102.501s20.167 49.667 33.5 68s27.833 33.666 43.5 45.999s30.167 24.5 43.5 36.5s24.5 25.5 33.5 40.5s13.5 33.833 13.5 56.5c0 31.333 -11.667 57 -35 77s-53 30 -89 30c-35.333 0 -63.5 -8.5 -84.5 -25.5
s-37.167 -38.833 -48.5 -65.5l-88 34c15.333 40.667 41.666 74.334 78.999 101.001s85 40 143 40c32 0 61.5 -4.66699 88.5 -14s50.333 -22.333 70 -39s35 -36.834 46 -60.501s16.5 -49.834 16.5 -78.501c0 -31.333 -4.66699 -57.166 -14 -77.499
s-21.166 -37.666 -35.499 -51.999s-29.833 -27.333 -46.5 -39s-32.167 -25.167 -46.5 -40.5s-26.166 -33.833 -35.499 -55.5s-14 -49.834 -14 -84.501v-10h-87v10zM178.999 63.001c0 21.333 6.66895 38.666 20.002 51.999s30.666 20 51.999 20
c23.333 0 41.5 -6.66699 54.5 -20s19.5 -30.666 19.5 -51.999s-6.5 -38.666 -19.5 -51.999s-31.167 -20 -54.5 -20c-22.667 0 -40.334 6.66699 -53.001 20s-19 30.666 -19 51.999z" />
    <glyph glyph-name="at" unicode="@" horiz-adv-x="825" 
d="M412 -125c-52 0 -100.664 9.83203 -145.997 29.499s-84.833 46.334 -118.5 80.001s-60.167 73.334 -79.5 119.001s-29 94.5 -29 146.5s10 100.667 30 146s47.167 85 81.5 119s74.333 60.833 120 80.5s94.5 29.5 146.5 29.5c55.333 0 105.666 -9.5 150.999 -28.5
s84.166 -44.167 116.499 -75.5s57.333 -67.166 75 -107.499s26.5 -82.166 26.5 -125.499c0 -28 -3.5 -54.667 -10.5 -80s-17.5 -47.5 -31.5 -66.5s-31 -34.167 -51 -45.5s-43 -17 -69 -17c-30 0 -54.333 5.66699 -73 17s-33 25 -43 41
c-12.667 -17.333 -29.834 -31.5 -51.501 -42.5s-47.5 -16.5 -77.5 -16.5c-20.667 0 -40.834 4 -60.501 12s-37 19.667 -52 35s-26.5 34.166 -34.5 56.499s-10.667 48.166 -8 77.499c3.33301 30 11 56.333 23 79s26.5 41.334 43.5 56.001s35.333 25.667 55 33
s39.167 11 58.5 11c24 0 45 -4.33301 63 -13s32.333 -20 43 -34c1.33301 9.33301 2.16602 16.666 2.49902 21.999s0.833008 9.33301 1.5 12v7h84l-20 -181c-3.33301 -32 -0.666016 -55 8.00098 -69s23.334 -21 44.001 -21c23.333 0 41.5 11.667 54.5 35
s19.5 53.666 19.5 90.999c0 32.667 -6.83301 64.5 -20.5 95.5s-33 58.5 -58 82.5s-55.167 43.333 -90.5 58s-75 22 -119 22c-40.667 0 -78.667 -7.66699 -114 -23s-66.333 -36.333 -93 -63s-47.667 -58 -63 -94s-23 -74.333 -23 -115s7.5 -79 22.5 -115
s35.5 -67.333 61.5 -94s56.5 -47.667 91.5 -63s72.833 -23 113.5 -23c43.333 0 82.833 8 118.5 24s67.167 38.333 94.5 67l62 -52c-32 -34.667 -71.833 -63.167 -119.5 -85.5s-99.5 -33.5 -155.5 -33.5zM397.003 155.999c28.667 0 51.832 10.333 69.499 31
s27.834 45 30.501 73c3.33301 27.333 -2.16699 51.166 -16.5 71.499s-35.5 30.5 -63.5 30.5c-26.667 0 -50.5 -9.16699 -71.5 -27.5s-32.5 -43.166 -34.5 -74.499c-4 -29.333 2.33301 -54 19 -74s39 -30 67 -30z" />
    <glyph glyph-name="A" unicode="A" horiz-adv-x="696" 
d="M298 730h101l270 -730h-101l-62 167h-316l-61 -167h-102zM224 260h248l-124 337z" />
    <glyph glyph-name="B" unicode="B" horiz-adv-x="610" 
d="M60 730l255 -0.00292969c35.333 0 67.333 -4.5 96 -13.5s53.167 -22 73.5 -39s36 -37.667 47 -62s16.5 -51.833 16.5 -82.5c0 -33.333 -7.33301 -63.166 -22 -89.499s-37 -47.166 -67 -62.499c36 -14.667 63.5 -36.667 82.5 -66s28.5 -64.666 28.5 -105.999
c0 -32.667 -5.66699 -62 -17 -88s-27.5 -48 -48.5 -66s-46.167 -31.667 -75.5 -41s-62 -14 -98 -14h-271v730zM156 330.997v-242h175c44 0 78.667 11.167 104 33.5s38 51.5 38 87.5c0 36.667 -11.833 66 -35.5 88s-60.5 33 -110.5 33h-171zM156 641.997v-221h164
c44 0 76.833 10.5 98.5 31.5s32.5 47.833 32.5 80.5c0 34 -11.833 60.667 -35.5 80s-57.5 29 -101.5 29h-158z" />
    <glyph glyph-name="C" unicode="C" horiz-adv-x="769" 
d="M414 -10c-53.333 0 -102.841 9.83496 -148.508 29.502s-85.334 46.5 -119.001 80.5s-60 73.667 -79 119s-28.5 94 -28.5 146c0 53.333 9.83301 102.833 29.5 148.5s46.334 85.167 80.001 118.5s73.334 59.666 119.001 78.999s94.5 29 146.5 29
c34.667 0 67.834 -4.5 99.501 -13.5s61.334 -21.5 89.001 -37.5s53 -35.333 76 -58s42.5 -47.667 58.5 -75l-85 -52c-23.333 43.333 -55.333 78 -96 104s-88 39 -142 39c-39.333 0 -76 -7.33301 -110 -22s-63.333 -34.834 -88 -60.501s-44 -55.5 -58 -89.5
s-21 -70.667 -21 -110c0 -38.667 7 -75 21 -109s33.333 -63.667 58 -89s53.834 -45.333 87.501 -60s70.167 -22 109.5 -22c58.667 0 108.834 14.167 150.501 42.5s73.834 65.5 96.501 111.5l87 -46c-16 -30 -35.333 -57.5 -58 -82.5s-48.167 -46.5 -76.5 -64.5
s-59.166 -31.833 -92.499 -41.5s-68.666 -14.5 -105.999 -14.5z" />
    <glyph glyph-name="D" unicode="D" horiz-adv-x="684" 
d="M60 730l203 0.000976562c58 0 110.667 -9.33301 158 -28s87.5 -44.334 120.5 -77.001s58.5 -71.167 76.5 -115.5s27 -92.5 27 -144.5s-9.5 -100.333 -28.5 -145s-45.333 -83.167 -79 -115.5s-73.667 -57.833 -120 -76.5s-96.5 -28 -150.5 -28h-207v730zM156 641.001
l0.000976562 -551.003h101c43.333 0 82.666 7 117.999 21s65.833 33.333 91.5 58s45.5 53.834 59.5 87.501s21 69.834 21 108.501c0 39.333 -6.66699 75.833 -20 109.5s-32.5 62.834 -57.5 87.501s-55.667 44 -92 58s-77.5 21 -123.5 21h-98z" />
    <glyph glyph-name="E" unicode="E" horiz-adv-x="550" 
d="M60 730h440v-92h-344v-226h344v-92h-344v-227h344v-93h-440v730z" />
    <glyph glyph-name="F" unicode="F" horiz-adv-x="524" 
d="M60 730h413v-92h-317v-226h317v-92h-317v-320h-96v730z" />
    <glyph glyph-name="G" unicode="G" horiz-adv-x="820" 
d="M418 -10c-54.667 0 -105.172 10 -151.505 30s-86.333 47 -120 81s-60 73.667 -79 119s-28.5 93.666 -28.5 144.999c0 52 9.5 100.833 28.5 146.5s45.333 85.334 79 119.001s73.667 60.334 120 80.001s96.833 29.5 151.5 29.5c36 0 70.333 -4.5 103 -13.5
s62.834 -21.667 90.501 -38s52.667 -36 75 -59s41.5 -48.5 57.5 -76.5l-84 -51c-24.667 45.333 -57.667 80.833 -99 106.5s-89 38.5 -143 38.5c-41.333 0 -79.166 -7.5 -113.499 -22.5s-64 -35.333 -89 -61s-44.333 -55.5 -58 -89.5s-20.5 -70.333 -20.5 -109s7 -75 21 -109
s33.333 -63.833 58 -89.5s54.334 -45.834 89.001 -60.501s72.334 -22 113.001 -22c37.333 0 71 5.5 101 16.5s56 26.167 78 45.5s40 42.5 54 69.5s23.667 56.5 29 88.5h-274v92h375v-34c0 -50 -8.16699 -97.5 -24.5 -142.5s-40.166 -84.5 -71.499 -118.5
s-69.333 -61 -114 -81s-95.667 -30 -153 -30z" />
    <glyph glyph-name="H" unicode="H" horiz-adv-x="665" 
d="M508 320h-352v-320h-96v730h96v-317h352v317h97v-730h-97v320z" />
    <glyph glyph-name="I" unicode="I" horiz-adv-x="233" 
d="M68 730h97v-730h-97v730z" />
    <glyph glyph-name="J" unicode="J" horiz-adv-x="484" 
d="M230 -10c-50 0 -92.5 11.832 -127.5 35.499s-59.5 54.5 -73.5 92.5l92 43c8 -23.333 21.167 -42.666 39.5 -57.999s40.833 -23 67.5 -23c32.667 0 57.667 10.667 75 32s26 50 26 86v532h97v-526c0 -67.333 -17.333 -119.833 -52 -157.5s-82.667 -56.5 -144 -56.5z" />
    <glyph glyph-name="K" unicode="K" horiz-adv-x="634" 
d="M276 375l-120 -142v-233h-96v730h96v-370l312 370h119l-243 -289l272 -441h-112z" />
    <glyph glyph-name="L" unicode="L" horiz-adv-x="512" 
d="M60 730h96v-637h309v-93h-405v730z" />
    <glyph glyph-name="M" unicode="M" horiz-adv-x="836" 
d="M60 730h97l259 -359l263 353v6h96v-730h-96v575l-265 -358l-258 353v-570h-96v730z" />
    <glyph glyph-name="N" unicode="N" horiz-adv-x="720" 
d="M60 730h110l393 -574v574h96v-730h-103l-400 582v-582h-96v730z" />
    <glyph glyph-name="O" unicode="O" horiz-adv-x="827" 
d="M413 -10c-52 0 -100.667 9.83301 -146 29.5s-84.833 46.5 -118.5 80.5s-60.334 73.667 -80.001 119s-29.5 94 -29.5 146s9.83301 100.667 29.5 146s46.334 85 80.001 119s73.167 60.833 118.5 80.5s94 29.5 146 29.5s100.833 -9.83301 146.5 -29.5
s85.334 -46.5 119.001 -80.5s60.334 -73.667 80.001 -119s29.5 -94 29.5 -146s-9.83301 -100.667 -29.5 -146s-46.334 -85 -80.001 -119s-73.334 -60.833 -119.001 -80.5s-94.5 -29.5 -146.5 -29.5zM413 84c39.333 0 75.833 7.5 109.5 22.5s63 35.167 88 60.5
s44.667 55 59 89s21.5 70.333 21.5 109s-7.16699 75 -21.5 109s-34 63.833 -59 89.5s-54.333 45.834 -88 60.501s-70.167 22 -109.5 22c-38.667 0 -74.834 -7.33301 -108.501 -22s-62.834 -34.834 -87.501 -60.501s-44.167 -55.5 -58.5 -89.5s-21.5 -70.333 -21.5 -109
s7.16699 -75 21.5 -109s33.833 -63.667 58.5 -89s53.834 -45.5 87.501 -60.5s69.834 -22.5 108.501 -22.5z" />
    <glyph glyph-name="P" unicode="P" horiz-adv-x="603" 
d="M60 730h236.002c39.333 0 75.166 -6.5 107.499 -19.5s60.166 -31 83.499 -54s41.5 -49.833 54.5 -80.5s19.5 -64 19.5 -100s-6.5 -69.5 -19.5 -100.5s-31.167 -58 -54.5 -81s-51.333 -41 -84 -54s-68.667 -19.5 -108 -19.5h-139v-221h-96v730zM156.002 641v-329h133
c26.667 0 50.834 4.16699 72.501 12.5s40 20 55 35s26.5 32.5 34.5 52.5s12 41.333 12 64c0 23.333 -4 45 -12 65s-19.5 37.5 -34.5 52.5s-33.333 26.667 -55 35s-45.834 12.5 -72.501 12.5h-133z" />
    <glyph glyph-name="Q" unicode="Q" horiz-adv-x="827" 
d="M398 330l116.996 0.000976562l113 -139c19.333 23.333 34.666 49.666 45.999 78.999s17 61 17 95c0 38.667 -7.16699 75 -21.5 109s-34 63.833 -59 89.5s-54.333 45.834 -88 60.501s-70.167 22 -109.5 22c-38.667 0 -74.834 -7.33301 -108.501 -22
s-62.834 -34.834 -87.501 -60.501s-44.167 -55.5 -58.5 -89.5s-21.5 -70.333 -21.5 -109s7.16699 -75 21.5 -109s33.833 -63.667 58.5 -89s53.834 -45.5 87.501 -60.5s69.834 -22.5 108.501 -22.5c20.667 0 39.834 2.16699 57.501 6.5s34.834 10.166 51.501 17.499l60 -76
c-25.333 -13.333 -52.166 -23.666 -80.499 -30.999s-57.833 -11 -88.5 -11c-52 0 -100.667 9.83301 -146 29.5s-84.833 46.5 -118.5 80.5s-60.334 73.667 -80.001 119s-29.5 94 -29.5 146s9.83301 100.667 29.5 146s46.334 85 80.001 119s73.167 60.833 118.5 80.5
s94 29.5 146 29.5s100.833 -9.83301 146.5 -29.5s85.334 -46.5 119.001 -80.5s60.334 -73.667 80.001 -119s29.5 -94 29.5 -146c0 -48.667 -8.83301 -94.167 -26.5 -136.5s-41.5 -80.5 -71.5 -114.5l93 -114h-121z" />
    <glyph glyph-name="R" unicode="R" horiz-adv-x="593" 
d="M60 730h234.001c38 0 72.5 -6.16699 103.5 -18.5s57.667 -29 80 -50s39.666 -45.833 51.999 -74.5s18.5 -59.667 18.5 -93c0 -24 -3.66699 -47.167 -11 -69.5s-17.5 -43 -30.5 -62s-28.667 -35.833 -47 -50.5s-38.5 -26.667 -60.5 -36l160 -276h-109l-144 254h-151v-254
h-95v730zM155.001 640v-297h128c27.333 0 51.5 4.5 72.5 13.5s38.5 20.667 52.5 35s24.5 30.5 31.5 48.5s10.5 36 10.5 54c0 43.333 -14.167 78.5 -42.5 105.5s-69.5 40.5 -123.5 40.5h-129z" />
    <glyph glyph-name="S" unicode="S" horiz-adv-x="562" 
d="M282 -10c-60.667 0 -112.495 11.8301 -155.495 35.4971s-79.5 55.167 -109.5 94.5l85 66c22 -34 47.833 -60 77.5 -78s63.5 -27 101.5 -27c42.667 0 77 11.833 103 35.5s39 53.5 39 89.5c0 20 -4.66699 37 -14 51s-21.833 26 -37.5 36s-33.667 18.667 -54 26
s-41.5 14.333 -63.5 21c-24.667 8 -49.167 17 -73.5 27s-46.333 22.5 -66 37.5s-35.5 33.833 -47.5 56.5s-18 50.334 -18 83.001c0 27.333 5.83301 53 17.5 77s27.667 44.833 48 62.5s44.666 31.5 72.999 41.5s58.833 15 91.5 15c54 0 99.167 -9.66699 135.5 -29
s68.166 -45 95.499 -77l-79 -59c-34.667 52.667 -85.334 79 -152.001 79c-39.333 0 -71 -10.167 -95 -30.5s-36 -46.166 -36 -77.499c0 -18.667 4.66699 -34.667 14 -48s21.666 -24.666 36.999 -33.999s33 -17.5 53 -24.5l62 -21.5c25.333 -8.66699 50.5 -18.167 75.5 -28.5
s47.333 -23.5 67 -39.5s35.667 -35.5 48 -58.5s18.5 -51.5 18.5 -85.5c0 -28 -5.66699 -55 -17 -81s-27.333 -49 -48 -69s-45.834 -36 -75.501 -48s-63.167 -18 -100.5 -18z" />
    <glyph glyph-name="T" unicode="T" horiz-adv-x="597" 
d="M251 639h-212v91h520v-91h-212v-639h-96v639z" />
    <glyph glyph-name="U" unicode="U" horiz-adv-x="625" 
d="M312 -10c-36.667 0 -70.4961 6 -101.496 18s-57.833 29.167 -80.5 51.5s-40.334 49.166 -53.001 80.499s-19 66 -19 104v486h96v-492c0 -21.333 4 -41.5 12 -60.5s19.167 -35.667 33.5 -50s31.166 -25.666 50.499 -33.999s40 -12.5 62 -12.5s42.667 4.16699 62 12.5
s36.166 19.666 50.499 33.999s25.666 31 33.999 50s12.5 39.167 12.5 60.5v492h96v-486c0 -38 -6.5 -72.667 -19.5 -104s-30.833 -58.166 -53.5 -80.499s-49.5 -39.5 -80.5 -51.5s-64.833 -18 -101.5 -18z" />
    <glyph glyph-name="V" unicode="V" horiz-adv-x="671" 
d="M27 730h101l208 -589l207 589h101l-260 -730h-98z" />
    <glyph glyph-name="W" unicode="W" horiz-adv-x="1051" 
d="M29 730h102l162 -578l185 578h95l184 -579l167 579h99l-217 -730h-97l-184 579l-186 -579h-99z" />
    <glyph glyph-name="X" unicode="X" horiz-adv-x="644" 
d="M322 292l-188 -292h-109l241 373l-229 357h109l177 -274l176 274h109l-228 -355l240 -375h-109z" />
    <glyph glyph-name="Y" unicode="Y" horiz-adv-x="621" 
d="M263 346l-239 384h107l180 -291l180 291h107l-239 -384v-346h-96v346z" />
    <glyph glyph-name="Z" unicode="Z" horiz-adv-x="583" 
d="M50 89l369 549h-357v92h471v-88l-369 -549h370v-93h-484v89z" />
    <glyph glyph-name="bracketleft" unicode="[" horiz-adv-x="364" 
d="M46 730h273v-92h-176v-776h176v-92h-273v960z" />
    <glyph glyph-name="backslash" unicode="\" 
d="M21 730h103l346 -730h-103z" />
    <glyph glyph-name="bracketright" unicode="]" horiz-adv-x="364" 
d="M46 -138h176v776h-176v92h273v-960h-273v92z" />
    <glyph glyph-name="asciicircum" unicode="^" 
d="M210 704h67l123 -169h-84l-72 101l-70 -101h-84z" />
    <glyph glyph-name="underscore" unicode="_" horiz-adv-x="515" 
d="M46 -10h424v-82h-424v82z" />
    <glyph glyph-name="grave" unicode="`" 
d="M125 720h104l117 -163h-75z" />
    <glyph glyph-name="a" unicode="a" horiz-adv-x="712" 
d="M339 -12c-40.667 0 -79.1631 7.66797 -115.496 23.001s-68 36.5 -95 63.5s-48.333 59.167 -64 96.5s-23.5 77.666 -23.5 120.999c0 44 7.66699 84.5 23 121.5s36.5 69.167 63.5 96.5s58.667 48.666 95 63.999s75.166 23 116.499 23s81.666 -9.5 120.999 -28.5
s70.666 -45.833 93.999 -80.5v97h94v-585h-94v99c-23.333 -35.333 -54.833 -62.666 -94.5 -81.999s-79.834 -29 -120.501 -29zM348.004 76.001c30 0 58 5.66699 84 17s48.5 26.666 67.5 45.999s34 42.333 45 69s16.5 55 16.5 85s-5.5 58.167 -16.5 84.5s-26 49.333 -45 69
s-41.5 35.167 -67.5 46.5s-54 17 -84 17c-29.333 0 -56.833 -5.66699 -82.5 -17s-48 -26.833 -67 -46.5s-34 -42.667 -45 -69s-16.5 -54.5 -16.5 -84.5s5.5 -58.333 16.5 -85s26 -49.667 45 -69s41.333 -34.666 67 -45.999s53.167 -17 82.5 -17z" />
    <glyph glyph-name="b" unicode="b" horiz-adv-x="710" 
d="M373 -12c-41.333 0 -81.833 9.49805 -121.5 28.498s-71.167 46.167 -94.5 81.5v-98h-92v740h93v-252c23.333 34.667 54.5 61.5 93.5 80.5s79.167 28.5 120.5 28.5c42 0 81 -7.66699 117 -23s67.5 -36.666 94.5 -63.999s48.167 -59.5 63.5 -96.5s23 -77.5 23 -121.5
c0 -43.333 -7.83301 -83.666 -23.5 -120.999s-37 -69.5 -64 -96.5s-58.5 -48.167 -94.5 -63.5s-74.333 -23 -115 -23zM364 75.998c29.333 0 56.833 5.66699 82.5 17s48 26.666 67 45.999s33.833 42.333 44.5 69s16 55 16 85s-5.33301 58.167 -16 84.5s-25.5 49.333 -44.5 69
s-41.333 35.167 -67 46.5s-53.167 17 -82.5 17c-30.667 0 -59 -5.66699 -85 -17s-48.5 -26.833 -67.5 -46.5s-33.833 -42.667 -44.5 -69s-16 -54.5 -16 -84.5s5.33301 -58.333 16 -85s25.5 -49.667 44.5 -69s41.5 -34.666 67.5 -45.999s54.333 -17 85 -17z" />
    <glyph glyph-name="c" unicode="c" horiz-adv-x="659" 
d="M348 -12c-44 0 -84.665 8.00293 -121.998 24.0029s-69.833 37.667 -97.5 65s-49.167 59.5 -64.5 96.5s-23 76.5 -23 118.5c0 43.333 8 83.666 24 120.999s37.667 69.666 65 96.999s59.833 48.666 97.5 63.999s77.834 23 120.501 23c32 0 62.333 -4.33301 91 -13
s54.667 -20.834 78 -36.501s44 -34.5 62 -56.5s32.333 -46 43 -72l-85 -36c-17.333 39.333 -42.333 70.166 -75 92.499s-71 33.5 -115 33.5c-30 0 -57.833 -5.66699 -83.5 -17s-47.834 -26.666 -66.501 -45.999s-33.334 -42.333 -44.001 -69s-16 -55 -16 -85
s5.33301 -58 16 -84s25.5 -48.833 44.5 -68.5s41.5 -35.167 67.5 -46.5s54.333 -17 85 -17c46.667 0 86 12.667 118 38s56 57 72 95l87 -38c-11.333 -26.667 -25.833 -51.167 -43.5 -73.5s-38.334 -41.666 -62.001 -57.999s-50 -29 -79 -38s-60.5 -13.5 -94.5 -13.5z" />
    <glyph glyph-name="d" unicode="d" horiz-adv-x="711" 
d="M339 -12c-40.667 0 -79.1641 7.66895 -115.497 23.002s-68 36.5 -95 63.5s-48.333 59.167 -64 96.5s-23.5 77.666 -23.5 120.999c0 44 7.66699 84.5 23 121.5s36.5 69.167 63.5 96.5s58.667 48.666 95 63.999s75.166 23 116.499 23c40.667 0 80.667 -9.33301 120 -28
s70.666 -45.334 93.999 -80.001v251h94v-740h-93v99c-23.333 -35.333 -54.833 -62.666 -94.5 -81.999s-79.834 -29 -120.501 -29zM348.003 76.002c30 0 58 5.66699 84 17s48.5 26.666 67.5 45.999s34 42.333 45 69s16.5 55 16.5 85s-5.5 58.167 -16.5 84.5
s-26 49.333 -45 69s-41.5 35.167 -67.5 46.5s-54 17 -84 17c-29.333 0 -56.833 -5.66699 -82.5 -17s-48 -26.833 -67 -46.5s-34 -42.667 -45 -69s-16.5 -54.5 -16.5 -84.5s5.5 -58.333 16.5 -85s26 -49.667 45 -69s41.333 -34.666 67 -45.999s53.167 -17 82.5 -17z" />
    <glyph glyph-name="e" unicode="e" horiz-adv-x="688" 
d="M350 -12c-46.667 0 -89.001 7.66309 -127.001 22.9961s-70.5 36.5 -97.5 63.5s-47.833 58.833 -62.5 95.5s-22 76.334 -22 119.001c0 43.333 7.66699 83.833 23 121.5s36.5 70.334 63.5 98.001s59.167 49.334 96.5 65.001s77.666 23.5 120.999 23.5
c42.667 0 82.334 -7.16699 119.001 -21.5s68.334 -34.666 95.001 -60.999s47.667 -57.666 63 -93.999s23 -76.5 23 -120.5v-40h-511c3.33301 -28 10.833 -53.333 22.5 -76s27 -42.334 46 -59.001s41 -29.5 66 -38.5s52.167 -13.5 81.5 -13.5
c46.667 0 86.5 11.167 119.5 33.5s58.167 52.5 75.5 90.5l81 -43c-26.667 -52 -62.667 -92.667 -108 -122s-101.333 -44 -168 -44zM344.999 511.996c-26 0 -50.334 -4.16602 -73.001 -12.499s-43 -19.833 -61 -34.5s-33.167 -32.334 -45.5 -53.001s-21.166 -43 -26.499 -67
h409c-8.66699 52 -30.667 92.833 -66 122.5s-81 44.5 -137 44.5z" />
    <glyph glyph-name="f" unicode="f" horiz-adv-x="393" 
d="M27 585h101.999v9c0 44 3.5 80.5 10.5 109.5s19 52.167 36 69.5s39.833 29.5 68.5 36.5s64.667 10.5 108 10.5h9v-89c-30 0 -54.167 -1.66699 -72.5 -5s-32.166 -10 -41.499 -20s-15.5 -24 -18.5 -42s-4.5 -41.667 -4.5 -71v-8h137v-86h-137v-499h-95v499h-102v86z" />
    <glyph glyph-name="g" unicode="g" horiz-adv-x="714" 
d="M339 -12c-40.667 0 -79.1621 7.66797 -115.495 23.001s-68 36.5 -95 63.5s-48.333 59.167 -64 96.5s-23.5 77.666 -23.5 120.999c0 44 7.66699 84.5 23 121.5s36.5 69.167 63.5 96.5s58.667 48.666 95 63.999s75.166 23 116.499 23s81.666 -9.66699 120.999 -29
s70.666 -46.666 93.999 -81.999v99h95v-574c0 -45.333 -7.33301 -86.166 -22 -122.499s-35.167 -67.333 -61.5 -93s-57.833 -45.5 -94.5 -59.5s-77.334 -21 -122.001 -21c-71.333 0 -129.666 13.833 -174.999 41.5s-81.666 65.5 -108.999 113.5l84 50
c10.667 -18 22 -34.167 34 -48.5s25.833 -26.833 41.5 -37.5s33.667 -18.834 54 -24.501s44.166 -8.5 71.499 -8.5c31.333 0 59.666 5 84.999 15s46.833 24.167 64.5 42.5s31.167 40.166 40.5 65.499s14 53.333 14 84v91c-23.333 -35.333 -54.833 -62.666 -94.5 -81.999
s-79.834 -29 -120.501 -29zM348.005 76.001c30 0 58 5.66699 84 17s48.5 26.666 67.5 45.999s34 42.333 45 69s16.5 55 16.5 85s-5.5 58.167 -16.5 84.5s-26 49.333 -45 69s-41.5 35.167 -67.5 46.5s-54 17 -84 17c-29.333 0 -56.833 -5.66699 -82.5 -17
s-48 -26.833 -67 -46.5s-34 -42.667 -45 -69s-16.5 -54.5 -16.5 -84.5s5.5 -58.333 16.5 -85s26 -49.667 45 -69s41.333 -34.666 67 -45.999s53.167 -17 82.5 -17z" />
    <glyph glyph-name="h" unicode="h" horiz-adv-x="669" 
d="M65 740h93.999v-243c20.667 30 47.834 54.167 81.501 72.5s72.5 27.5 116.5 27.5c38 0 72.5 -6 103.5 -18s57.333 -29.5 79 -52.5s38.334 -50.833 50.001 -83.5s17.5 -69.667 17.5 -111v-332h-97v327c0 56.667 -14.333 101.667 -43 135s-71.334 50 -128.001 50
c-25.333 0 -48.833 -4.66699 -70.5 -14s-40.5 -22.333 -56.5 -39s-28.5 -36.5 -37.5 -59.5s-13.5 -48.167 -13.5 -75.5v-324h-96v740z" />
    <glyph glyph-name="i" unicode="i" horiz-adv-x="224" 
d="M64 585h96v-585h-96v585zM44 728c0 20 6.16699 36.167 18.5 48.5s28.833 18.5 49.5 18.5c22 0 39 -6.16699 51 -18.5s18 -28.5 18 -48.5c0 -20.667 -6 -37.167 -18 -49.5s-29 -18.5 -51 -18.5c-21.333 0 -38 6.16699 -50 18.5s-18 28.833 -18 49.5z" />
    <glyph glyph-name="j" unicode="j" horiz-adv-x="224" 
d="M-75 -177c28.667 0 52.167 1.49805 70.5 4.49805s32.5 9.33301 42.5 19s16.833 23.334 20.5 41.001s5.5 41.5 5.5 71.5v626h96v-627c0 -43.333 -3.66699 -79.5 -11 -108.5s-19.5 -52.167 -36.5 -69.5s-39.5 -29.666 -67.5 -36.999s-63 -11 -105 -11h-15v91zM44 727.998
c0 20 6.16699 36.167 18.5 48.5s28.833 18.5 49.5 18.5c22 0 39 -6.16699 51 -18.5s18 -28.5 18 -48.5c0 -20.667 -6 -37.167 -18 -49.5s-29 -18.5 -51 -18.5c-21.333 0 -38 6.16699 -50 18.5s-18 28.833 -18 49.5z" />
    <glyph glyph-name="k" unicode="k" horiz-adv-x="606" 
d="M65 740h94v-472l301 317h118l-236 -248l242 -337h-109l-201 280l-115 -120v-160h-94v740z" />
    <glyph glyph-name="l" unicode="l" horiz-adv-x="226" 
d="M65 740h96v-740h-96v740z" />
    <glyph glyph-name="m" unicode="m" horiz-adv-x="1080" 
d="M64 585l93.999 0.000976562v-82c19.333 29.333 44.833 52.333 76.5 69s68.5 25 110.5 25c52 0 95.333 -10.833 130 -32.5s60.334 -50.5 77.001 -86.5c19.333 36 47.333 64.833 84 86.5s79 32.5 127 32.5c41.333 0 77.833 -6 109.5 -18s58.167 -29 79.5 -51
s37.5 -48.5 48.5 -79.5s16.5 -65.5 16.5 -103.5v-345h-96v346c0 49.333 -14.667 89.5 -44 120.5s-70 46.5 -122 46.5c-23.333 0 -45.333 -4 -66 -12s-38.5 -19.5 -53.5 -34.5s-26.833 -33.333 -35.5 -55s-13 -46.5 -13 -74.5v-337h-96v355c0 48 -14.167 86.333 -42.5 115
s-67.5 43 -117.5 43c-24.667 0 -47.5 -4.16699 -68.5 -12.5s-39.167 -20.333 -54.5 -36s-27.333 -34.834 -36 -57.501s-13 -48.667 -13 -78v-329h-95v585z" />
    <glyph glyph-name="n" unicode="n" horiz-adv-x="667" 
d="M64 585l94.001 -0.000976562v-90c20 30.667 47 55.334 81 74.001s73 28 117 28c38 0 72.5 -6 103.5 -18s57.167 -29.5 78.5 -52.5s37.833 -50.833 49.5 -83.5s17.5 -69.667 17.5 -111v-332h-96v328c0 56 -14.333 100.667 -43 134s-71.334 50 -128.001 50
c-25.333 0 -49 -4.66699 -71 -14s-41 -22.333 -57 -39s-28.5 -36.5 -37.5 -59.5s-13.5 -48.167 -13.5 -75.5v-324h-95v585z" />
    <glyph glyph-name="o" unicode="o" horiz-adv-x="691" 
d="M344 -12c-42 0 -81.333 7.83301 -118 23.5s-68.834 37.167 -96.501 64.5s-49.334 59.5 -65.001 96.5s-23.5 76.833 -23.5 119.5c0 43.333 7.83301 83.5 23.5 120.5s37.334 69.167 65.001 96.5s59.834 48.833 96.501 64.5s76 23.5 118 23.5s81.5 -7.83301 118.5 -23.5
s69.333 -37.167 97 -64.5s49.334 -59.5 65.001 -96.5s23.5 -77.167 23.5 -120.5c0 -42.667 -7.83301 -82.5 -23.5 -119.5s-37.334 -69.167 -65.001 -96.5s-60 -48.833 -97 -64.5s-76.5 -23.5 -118.5 -23.5zM344 76c29.333 0 56.666 5.66699 81.999 17s47.5 26.833 66.5 46.5
s33.833 42.5 44.5 68.5s16 54 16 84s-5.33301 58.167 -16 84.5s-25.5 49.333 -44.5 69s-41.167 35.167 -66.5 46.5s-52.666 17 -81.999 17c-28.667 0 -55.667 -5.66699 -81 -17s-47.333 -26.833 -66 -46.5s-33.334 -42.667 -44.001 -69s-16 -54.5 -16 -84.5
s5.33301 -58 16 -84s25.334 -48.833 44.001 -68.5s40.667 -35.167 66 -46.5s52.333 -17 81 -17z" />
    <glyph glyph-name="p" unicode="p" horiz-adv-x="710" 
d="M372 -12c-43.333 0 -84.3291 8.83203 -122.996 26.499s-69.334 43.5 -92.001 77.5v-361h-93v854h93v-99c23.333 35.333 54.666 62.666 93.999 81.999s79.666 29 120.999 29s80 -7.66699 116 -23s67.333 -36.666 94 -63.999s47.667 -59.5 63 -96.5s23 -77.5 23 -121.5
c0 -43.333 -7.83301 -83.666 -23.5 -120.999s-36.834 -69.5 -63.501 -96.5s-58 -48.167 -94 -63.5s-74.333 -23 -115 -23zM363.004 75.999c29.333 0 56.666 5.66699 81.999 17s47.5 26.666 66.5 45.999s34 42.333 45 69s16.5 55 16.5 85s-5.5 58.167 -16.5 84.5
s-26 49.333 -45 69s-41.167 35.167 -66.5 46.5s-52.666 17 -81.999 17c-30.667 0 -59.167 -5.66699 -85.5 -17s-49 -26.833 -68 -46.5s-33.833 -42.667 -44.5 -69s-16 -54.5 -16 -84.5s5.33301 -58.333 16 -85s25.5 -49.667 44.5 -69s41.667 -34.666 68 -45.999
s54.833 -17 85.5 -17z" />
    <glyph glyph-name="q" unicode="q" horiz-adv-x="711" 
d="M339 -12c-40.667 0 -79.1641 7.66797 -115.497 23.001s-68 36.5 -95 63.5s-48.333 59.167 -64 96.5s-23.5 77.666 -23.5 120.999c0 44 7.66699 84.5 23 121.5s36.5 69.167 63.5 96.5s58.667 48.666 95 63.999s75.166 23 116.499 23s81.666 -9.66699 120.999 -29
s70.666 -46.666 93.999 -81.999v99h93v-854h-94v361c-23.333 -34 -54.333 -59.833 -93 -77.5s-79 -26.5 -121 -26.5zM348.003 76.001c30 0 58 5.66699 84 17s48.5 26.666 67.5 45.999s34 42.333 45 69s16.5 55 16.5 85s-5.5 58.167 -16.5 84.5s-26 49.333 -45 69
s-41.5 35.167 -67.5 46.5s-54 17 -84 17c-29.333 0 -56.833 -5.66699 -82.5 -17s-48 -26.833 -67 -46.5s-34 -42.667 -45 -69s-16.5 -54.5 -16.5 -84.5s5.5 -58.333 16.5 -85s26 -49.667 45 -69s41.333 -34.666 67 -45.999s53.167 -17 82.5 -17z" />
    <glyph glyph-name="r" unicode="r" horiz-adv-x="436" 
d="M64 585h93.999v-84c28.667 56.667 78 85 148 85c25.333 0 47 -3 65 -9s34.333 -13 49 -21l-40 -89c-11.333 7.33301 -23 13.5 -35 18.5s-30 7.5 -54 7.5c-39.333 0 -71.166 -13 -95.499 -39s-36.5 -67.333 -36.5 -124v-17.5v-39v-53c0 -19.667 0.333008 -39.5 1 -59.5
v-161h-96v585z" />
    <glyph glyph-name="s" unicode="s" horiz-adv-x="533" 
d="M264 -12c-54.667 0 -102.671 10.6631 -144.004 31.9961s-75.333 51 -102 89l81 53c18.667 -27.333 42.334 -49.166 71.001 -65.499s61 -24.5 97 -24.5c43.333 0 75.833 9.66699 97.5 29s32.5 42 32.5 68c0 15.333 -4.33301 27.666 -13 36.999
s-20.334 17.166 -35.001 23.499s-31.167 11.666 -49.5 15.999l-57.5 13.5c-24 6 -47.833 12.667 -71.5 20s-44.667 17.333 -63 30s-33.333 28.5 -45 47.5s-17.5 42.833 -17.5 71.5c0 22 5 43.333 15 64s24.333 38.834 43 54.501s41.334 28.167 68.001 37.5
s56.334 14 89.001 14c47.333 0 90.5 -8.5 129.5 -25.5s70.167 -40.833 93.5 -71.5l-75 -52c-18 21.333 -39.167 38 -63.5 50s-52.5 18 -84.5 18c-39.333 0 -69.166 -8.5 -89.499 -25.5s-30.5 -37.5 -30.5 -61.5c0 -14 4 -25.667 12 -35s18.667 -17.333 32 -24
s29.333 -12.167 48 -16.5s38.334 -9.16602 59.001 -14.499c23.333 -6 47 -12.667 71 -20s45.5 -17.166 64.5 -29.499s34.5 -28.166 46.5 -47.499s18 -43.666 18 -72.999c0 -19.333 -4.33301 -39.666 -13 -60.999s-22.167 -41 -40.5 -59s-41.833 -32.833 -70.5 -44.5
s-63 -17.5 -103 -17.5z" />
    <glyph glyph-name="t" unicode="t" horiz-adv-x="403" 
d="M28 585h102v111l94 65v-176h137v-86h-137v-272c0 -29.333 1.66699 -53 5 -71s10 -31.833 20 -41.5s24 -16.167 42 -19.5s41.333 -5 70 -5v-90h-14c-42.667 0 -78 3.5 -106 10.5s-50.167 19.167 -66.5 36.5s-27.833 40.5 -34.5 69.5s-10 65.5 -10 109.5v273h-102v86z" />
    <glyph glyph-name="u" unicode="u" horiz-adv-x="636" 
d="M302 -12c-76.667 0 -135.834 23.333 -177.501 70s-62.5 111.667 -62.5 195v332h96v-328c0 -56 12.833 -100.667 38.5 -134s66.167 -50 121.5 -50c50 0 89 17.333 117 52s42 79.667 42 135v325h95v-585h-93v82c-17.333 -28.667 -40.666 -51.5 -69.999 -68.5
s-65 -25.5 -107 -25.5z" />
    <glyph glyph-name="v" unicode="v" horiz-adv-x="597" 
d="M22 585h103l175 -461l173 461h101l-228 -585h-95z" />
    <glyph glyph-name="w" unicode="w" horiz-adv-x="990" 
d="M32 585h99l144 -453l174 453h88l174 -455l149 455h99l-199 -585h-92l-176 455l-176 -455h-94z" />
    <glyph glyph-name="x" unicode="x" horiz-adv-x="610" 
d="M248 298l-221 287h116l164 -217l164 217h114l-222 -287l233 -298h-117l-174 228l-171 -228h-117z" />
    <glyph glyph-name="y" unicode="y" horiz-adv-x="635" 
d="M276 31l-252 554h104l197 -443l183 443h102l-366 -855h-100z" />
    <glyph glyph-name="z" unicode="z" horiz-adv-x="603" 
d="M45 89l391 411h-381v85h499v-89l-391 -410h395v-86h-513v89z" />
    <glyph glyph-name="braceleft" unicode="{" horiz-adv-x="391" 
d="M345 -230c-42 0 -77 3.66895 -105 11.002s-50.5 19.5 -67.5 36.5s-29.167 39.333 -36.5 67s-11 61.834 -11 102.501v113c0 19.333 -1 35.666 -3 48.999s-6.16699 24 -12.5 32s-15.666 13.667 -27.999 17s-29.166 5 -50.499 5v90c21.333 0 38.166 1.83301 50.499 5.5
s21.666 9.5 27.999 17.5s10.5 18.667 12.5 32s3 29.666 3 48.999v116c0 40.667 3.66699 74.834 11 102.501s19.5 50 36.5 67s39.5 29.167 67.5 36.5s63 11 105 11h11v-88c-28.667 0 -51.834 -1.83301 -69.501 -5.5s-31.334 -10.334 -41.001 -20.001s-16.167 -23 -19.5 -40
s-5 -38.5 -5 -64.5v-116c0 -39.333 -5.33301 -71 -16 -95s-29 -41.667 -55 -53c26.667 -11.333 45.167 -28.833 55.5 -52.5s15.5 -55.167 15.5 -94.5v-113c0 -26 1.66699 -47.5 5 -64.5s9.83301 -30.333 19.5 -40s23.334 -16.334 41.001 -20.001s40.834 -5.5 69.501 -5.5
v-88h-11z" />
    <glyph glyph-name="bar" unicode="|" horiz-adv-x="202" 
d="M53 730h96v-960h-96v960z" />
    <glyph glyph-name="braceright" unicode="}" horiz-adv-x="391" 
d="M36 -141c28.667 0 51.834 1.83301 69.501 5.5s31.334 10.167 41.001 19.5s16.167 22.5 19.5 39.5s5 38.5 5 64.5v113c0 38.667 5 70 15 94s28.333 41.667 55 53c-26 11.333 -44.167 29 -54.5 53s-15.5 55.667 -15.5 95v116c0 26 -1.66699 47.5 -5 64.5
s-9.83301 30.167 -19.5 39.5s-23.334 15.833 -41.001 19.5s-40.834 5.5 -69.501 5.5v89h11c42 0 77 -3.66699 105 -11s50.5 -19.5 67.5 -36.5s29.167 -39.333 36.5 -67s11 -61.834 11 -102.501v-116c0 -19.333 1 -35.666 3 -48.999s6.16699 -24 12.5 -32
s15.833 -13.833 28.5 -17.5s29.334 -5.5 50.001 -5.5v-90c-20.667 0 -37.334 -1.66699 -50.001 -5s-22.167 -9 -28.5 -17s-10.5 -18.667 -12.5 -32s-3 -29.666 -3 -48.999v-113c0 -40.667 -3.66699 -74.834 -11 -102.501s-19.5 -50 -36.5 -67s-39.5 -29.167 -67.5 -36.5
s-63 -11 -105 -11h-11v89z" />
    <glyph glyph-name="asciitilde" unicode="~" horiz-adv-x="468" 
d="M66 566c1.33301 36 10.6689 65.001 28.002 87.001s41 33 71 33c16.667 0 31 -2.66699 43 -8s23.333 -11 34 -17l28.5 -17.5c9 -5.66699 18.5 -8.5 28.5 -8.5c22 0 34 15.333 36 46h64c-0.666992 -36.667 -9.33398 -65.834 -26.001 -87.501s-41 -32.5 -73 -32.5
c-19.333 0 -35.833 3.5 -49.5 10.5s-26.167 13.833 -37.5 20.5c-8 5.33301 -15.833 9.83301 -23.5 13.5s-15.834 5.5 -24.501 5.5c-20 0 -31 -15 -33 -45h-66z" />
    <glyph glyph-name="exclamdown" unicode="&#xa1;" horiz-adv-x="228" 
d="M67 -113c0 33.333 0.499023 69.166 1.49902 107.499s2.5 76.166 4.5 113.499s4.33301 73.166 7 107.499s5.33398 64.5 8.00098 90.5h53c3.33301 -26 6.33301 -56.167 9 -90.5s5 -70.166 7 -107.499s3.5 -75.166 4.5 -113.499s1.5 -74.166 1.5 -107.499v-117h-96v117z
M41.999 430c0 21.333 6.66895 38.666 20.002 51.999s30.666 20 51.999 20c23.333 0 41.5 -6.66699 54.5 -20s19.5 -30.666 19.5 -51.999s-6.5 -38.666 -19.5 -51.999s-31.167 -20 -54.5 -20c-22.667 0 -40.334 6.66699 -53.001 20s-19 30.666 -19 51.999z" />
    <glyph glyph-name="cent" unicode="&#xa2;" horiz-adv-x="588" 
d="M258 -5c-31.333 6 -60.167 16.6699 -86.5 32.0029s-49.166 34.5 -68.499 57.5s-34.333 49.167 -45 78.5s-16 60.666 -16 93.999c0 34 5.5 65.667 16.5 95s26.167 55.333 45.5 78s42.166 41.667 68.499 57s54.833 25.666 85.5 30.999v126h97v-125
c46.667 -7.33301 87.334 -24.5 122.001 -51.5s60.334 -60.833 77.001 -101.5l-86 -38c-14 34 -34.833 60.167 -62.5 78.5s-59.834 27.5 -96.501 27.5c-24 0 -46.5 -4.5 -67.5 -13.5s-39.167 -21.333 -54.5 -37s-27.5 -34.334 -36.5 -56.001s-13.5 -45.167 -13.5 -70.5
s4.5 -48.833 13.5 -70.5s21.333 -40.5 37 -56.5s34 -28.5 55 -37.5s43.833 -13.5 68.5 -13.5c38 0 70.667 10.167 98 30.5s47.666 46.5 60.999 78.5l87 -37c-17.333 -42 -43.333 -76.833 -78 -104.5s-76 -45.167 -124 -52.5v-124h-97v125z" />
    <glyph glyph-name="sterling" unicode="&#xa3;" horiz-adv-x="588" 
d="M61 413l78 -0.000976562c-9.33301 18.667 -17.166 38.5 -23.499 59.5s-9.5 44.167 -9.5 69.5c0 29.333 5.16699 56.166 15.5 80.499s24.666 45.166 42.999 62.499s40 30.833 65 40.5s52.167 14.5 81.5 14.5c54 0 98 -11.5 132 -34.5s60 -52.833 78 -89.5l-89 -42
c-12.667 26 -28.5 45.833 -47.5 59.5s-43.5 20.5 -73.5 20.5c-31.333 0 -57 -10.167 -77 -30.5s-30 -47.166 -30 -80.499c0 -24 4 -46.5 12 -67.5s17.667 -41.833 29 -62.5h210v-78h-166c12 -23.333 22.333 -48.166 31 -74.499s13 -55.833 13 -88.5c0 -20 -3 -39.667 -9 -59
c12.667 -11.333 24.667 -21 36 -29s23 -12 35 -12c15.333 0 25.5 4.33301 30.5 13s7.5 22.667 7.5 42v81h99v-79c0 -51.333 -10.333 -87.333 -31 -108s-52 -31 -94 -31c-22.667 0 -43.667 5.5 -63 16.5s-37.666 24.167 -54.999 39.5
c-13.333 -17.333 -29.833 -31.166 -49.5 -41.499s-41.834 -15.5 -66.501 -15.5c-44 0 -77.167 10 -99.5 30s-33.5 46 -33.5 78c0 30.667 10.167 56.167 30.5 76.5s48.166 30.5 83.499 30.5c20.667 0 39.5 -3.5 56.5 -10.5s32.833 -15.5 47.5 -25.5v4
c0 32 -7.16699 60.833 -21.5 86.5s-30.166 51.167 -47.499 76.5h-128v78zM169 59.999c28.667 0 50.999 11 66.999 33c-12.667 10.667 -25.167 19.5 -37.5 26.5s-25.166 10.5 -38.499 10.5c-11.333 0 -20.333 -3.33301 -27 -10s-10 -15 -10 -25c0 -11.333 4.33301 -20 13 -26
s19.667 -9 33 -9z" />
    <glyph glyph-name="currency" unicode="&#xa4;" horiz-adv-x="773" 
d="M391 102c-28 0 -54.333 4.00195 -79 12.002s-47.667 19.333 -69 34l-107 -110l-64 64l107 110c-15.333 21.333 -27 44.666 -35 69.999s-12 52 -12 80c0 28.667 4 55.667 12 81s19.667 48.666 35 69.999l-109 114l65 63l109 -113c20.667 14 43.334 25 68.001 33
s51 12 79 12c27.333 0 53.166 -4 77.499 -12s46.833 -19 67.5 -33l103 106l64 -63l-102 -105c15.333 -21.333 27.333 -44.833 36 -70.5s13 -53.167 13 -82.5c0 -30 -4.5 -58 -13.5 -84s-21.167 -49.667 -36.5 -71l102 -105l-65 -63l-103 106
c-20.667 -13.333 -43 -23.833 -67 -31.5s-49.333 -11.5 -76 -11.5zM391 191.002c23.333 0 45 4.5 65 13.5s37.333 21.333 52 37s26.334 33.834 35.001 54.501s13 42.667 13 66s-4.33301 45.5 -13 66.5s-20.334 39.167 -35.001 54.5s-32 27.5 -52 36.5s-41.667 13.5 -65 13.5
s-45 -4.5 -65 -13.5s-37.333 -21.167 -52 -36.5s-26.167 -33.5 -34.5 -54.5s-12.5 -43.167 -12.5 -66.5s4.16699 -45.333 12.5 -66s19.833 -38.834 34.5 -54.501s32 -28 52 -37s41.667 -13.5 65 -13.5z" />
    <glyph glyph-name="yen" unicode="&#xa5;" horiz-adv-x="588" 
d="M87 384h159v16l-211 330h109l151 -245l151 245h108l-210 -329v-17h158v-79h-158v-99h158v-79h-158v-127h-98v127h-159v79h159v99h-159v79z" />
    <glyph glyph-name="brokenbar" unicode="&#xa6;" horiz-adv-x="224" 
d="M53 730h96v-420h-96v420zM53 190h96v-420h-96v420z" />
    <glyph glyph-name="section" unicode="&#xa7;" horiz-adv-x="593" 
d="M294 -10c-34.667 0 -65.6689 4.49707 -93.002 13.4971s-51 20.667 -71 35s-36 30.833 -48 49.5s-20 37.667 -24 57l97 24c4 -28 18.167 -51.667 42.5 -71s58.5 -29 102.5 -29c15.333 0 30 1.5 44 4.5s26.333 7.5 37 13.5s19.167 13.5 25.5 22.5s9.5 19.833 9.5 32.5
s-4 23 -12 31s-19.167 14.833 -33.5 20.5s-31.5 10.834 -51.5 15.501l-66 15c-32.667 7.33301 -62.167 15.333 -88.5 24s-48.666 18.834 -66.999 30.501s-32.333 25.334 -42 41.001s-14.5 34.167 -14.5 55.5c0 27.333 8.33301 51.666 25 72.999s38.667 36.666 66 45.999
c-30.667 24.667 -46 56.334 -46 95.001c0 22.667 4.83301 43.334 14.5 62.001s23.167 34.667 40.5 48s38.666 23.666 63.999 30.999s53.333 10.666 84 9.99902c33.333 0 62.833 -4 88.5 -12s47.834 -18.667 66.501 -32s33.5 -28.666 44.5 -45.999s18.167 -35.333 21.5 -54
l-92 -23c-4 26.667 -16.333 48.667 -37 66s-51.667 26 -93 26c-31.333 0 -57.666 -5.83301 -78.999 -17.5s-32 -29.834 -32 -54.501c0 -12 3.83301 -22.333 11.5 -31s18.5 -16.167 32.5 -22.5s30.833 -12.166 50.5 -17.499s41.5 -10.666 65.5 -15.999
c32.667 -7.33301 62.167 -15.333 88.5 -24s48.666 -18.834 66.999 -30.501s32.333 -25.167 42 -40.5s14.5 -33.666 14.5 -54.999c0 -26 -8.16699 -49.5 -24.5 -70.5s-37.166 -36.5 -62.499 -46.5c32 -22.667 48 -53.667 48 -93c0 -22.667 -5.33301 -43.667 -16 -63
s-25.5 -36 -44.5 -50s-41.833 -24.833 -68.5 -32.5s-55.667 -11.167 -87 -10.5zM305.998 296.997c14.667 -3.33301 28.5 -6.83398 41.5 -10.501s25.5 -7.5 37.5 -11.5c23.333 6.66699 40.666 16.334 51.999 29.001s17 26.334 17 41.001c0 22.667 -15.5 40.167 -46.5 52.5
s-71.833 24.166 -122.5 35.499c-14.667 3.33301 -28.667 6.83301 -42 10.5s-25.666 7.5 -36.999 11.5c-22 -3.33301 -39.167 -11.5 -51.5 -24.5s-18.5 -27.5 -18.5 -43.5c0 -12 4.16699 -22.5 12.5 -31.5s20 -16.833 35 -23.5s32.833 -12.667 53.5 -18z" />
    <glyph glyph-name="dieresis" unicode="&#xa8;" horiz-adv-x="492" 
d="M82 631c0 18.667 5.66797 33.667 17.001 45s26.666 17 45.999 17c20.667 0 36.5 -5.66699 47.5 -17s16.5 -26.333 16.5 -45c0 -19.333 -5.5 -34.666 -16.5 -45.999s-26.833 -17 -47.5 -17c-20 0 -35.5 5.66699 -46.5 17s-16.5 26.666 -16.5 45.999zM277.001 631
c0 18.667 5.66797 33.667 17.001 45s26.666 17 45.999 17c20.667 0 36.5 -5.66699 47.5 -17s16.5 -26.333 16.5 -45c0 -19.333 -5.5 -34.666 -16.5 -45.999s-26.833 -17 -47.5 -17c-20 0 -35.5 5.66699 -46.5 17s-16.5 26.666 -16.5 45.999z" />
    <glyph glyph-name="copyright" unicode="&#xa9;" horiz-adv-x="826" 
d="M414 -10c-52 0 -100.667 9.83301 -146 29.5s-85 46.5 -119 80.5s-60.833 73.667 -80.5 119s-29.5 94 -29.5 146s9.83301 100.667 29.5 146s46.5 85 80.5 119s73.667 60.833 119 80.5s94 29.5 146 29.5s100.667 -9.83301 146 -29.5s84.833 -46.5 118.5 -80.5
s60.334 -73.667 80.001 -119s29.5 -94 29.5 -146s-9.83301 -100.667 -29.5 -146s-46.334 -85 -80.001 -119s-73.167 -60.833 -118.5 -80.5s-94 -29.5 -146 -29.5zM414 70c40.667 0 78.667 7.66699 114 23s66.166 36.333 92.499 63s47 58 62 94s22.5 74.333 22.5 115
s-7.5 79 -22.5 115s-35.667 67.333 -62 94s-57.166 47.834 -92.499 63.501s-73.333 23.5 -114 23.5c-41.333 0 -79.833 -7.83301 -115.5 -23.5s-66.5 -36.834 -92.5 -63.501s-46.333 -58 -61 -94s-22 -74.333 -22 -115s7.33301 -79 22 -115s35 -67.333 61 -94
s56.833 -47.667 92.5 -63s74.167 -23 115.5 -23zM418 165c-28.667 0 -55.335 5.16699 -80.002 15.5s-46 24.5 -64 42.5s-32 39.167 -42 63.5s-15 50.5 -15 78.5s5 54.167 15 78.5s24 45.5 42 63.5s39.333 32.167 64 42.5s51.334 15.5 80.001 15.5
c39.333 0 74.5 -9.66699 105.5 -29s54.167 -44 69.5 -74l-29 -14l-25 -13l-23 -14c-7.33301 17.333 -19.666 32 -36.999 44s-38 18 -62 18c-16 0 -31 -3.16699 -45 -9.5s-26.333 -14.833 -37 -25.5s-19 -23.167 -25 -37.5s-9 -29.5 -9 -45.5c0 -16.667 3 -32.167 9 -46.5
s14.333 -26.833 25 -37.5s23 -19 37 -25s29 -9 45 -9c24.667 0 45.834 6.33301 63.501 19s30.167 28 37.5 46l79 -35c-15.333 -32 -38.833 -58.667 -70.5 -80s-67.834 -32 -108.501 -32z" />
    <glyph glyph-name="ordfeminine" unicode="&#xaa;" horiz-adv-x="393" 
d="M180 435c-16 0 -32.1699 3.16699 -48.5029 9.5s-31.333 15.833 -45 28.5s-24.667 28.334 -33 47.001s-12.5 40.334 -12.5 65.001c0 25.333 4.33301 47.5 13 66.5s19.834 34.667 33.501 47s28.667 21.666 45 27.999s32.5 9.5 48.5 9.5
c20.667 0 38.834 -3.83301 54.501 -11.5s28.834 -17.167 39.501 -28.5v34h71v-289h-71v36c-11.333 -12.667 -25 -22.834 -41 -30.501s-34 -11.5 -54 -11.5zM195.997 501c23.333 0 42.666 8.33496 57.999 25.002s23 36.667 23 60s-7.66699 43.166 -23 59.499
s-34.666 24.5 -57.999 24.5c-24 0 -44 -7.83301 -60 -23.5s-24 -35.834 -24 -60.501c0 -24 8 -44.167 24 -60.5s36 -24.5 60 -24.5z" />
    <glyph glyph-name="guillemotleft" unicode="&#xab;" horiz-adv-x="466" 
d="M58 224v56l169 115v-68l-111 -75l111 -75v-67zM240 224v56l168 115v-68l-110 -75l110 -75v-67z" />
    <glyph glyph-name="logicalnot" unicode="&#xac;" horiz-adv-x="603" 
d="M470 427h-441v92h538v-336h-97v244z" />
    <glyph glyph-name="uni00AD" unicode="&#xad;" horiz-adv-x="461" 
d="M46 294h370v-83h-370v83z" />
    <glyph glyph-name="registered" unicode="&#xae;" horiz-adv-x="826" 
d="M414 -125c-52 0 -100.667 9.83301 -146 29.5s-85 46.5 -119 80.5s-60.833 73.667 -80.5 119s-29.5 94 -29.5 146s9.83301 100.667 29.5 146s46.5 85 80.5 119s73.667 60.833 119 80.5s94 29.5 146 29.5s100.667 -9.83301 146 -29.5s84.833 -46.5 118.5 -80.5
s60.334 -73.667 80.001 -119s29.5 -94 29.5 -146s-9.83301 -100.667 -29.5 -146s-46.334 -85 -80.001 -119s-73.167 -60.833 -118.5 -80.5s-94 -29.5 -146 -29.5zM414 -46c40.667 0 78.667 7.83301 114 23.5s66.166 36.834 92.499 63.501s47 58 62 94s22.5 74.333 22.5 115
s-7.5 79 -22.5 115s-35.667 67.333 -62 94s-57.166 47.834 -92.499 63.501s-73.333 23.5 -114 23.5c-41.333 0 -79.833 -7.83301 -115.5 -23.5s-66.5 -36.834 -92.5 -63.501s-46.333 -58 -61 -94s-22 -74.333 -22 -115s7.33301 -79 22 -115s35 -67.333 61 -94
s56.833 -47.834 92.5 -63.501s74.167 -23.5 115.5 -23.5zM270 442l158 0.000976562c24 0 45.5 -3.5 64.5 -10.5s35.167 -16.167 48.5 -27.5s23.5 -24.666 30.5 -39.999s10.5 -31.333 10.5 -48c0 -28 -6.83301 -52.833 -20.5 -74.5s-34.167 -36.834 -61.5 -45.501l80 -128
h-96l-103 178h39c21.333 0 39 5.66699 53 17s21 27.666 21 48.999s-7.33301 36.5 -22 45.5s-32 13.5 -52 13.5h-65v-303h-85v374z" />
    <glyph glyph-name="macron" unicode="&#xaf;" 
d="M113 627h264v-70h-264v70z" />
    <glyph glyph-name="degree" unicode="&#xb0;" horiz-adv-x="419" 
d="M210 452c-20 0 -38.667 3.83301 -56 11.5s-32.5 18 -45.5 31s-23.333 28.333 -31 46s-11.5 36.5 -11.5 56.5s3.83301 38.667 11.5 56s18 32.5 31 45.5s28.167 23.167 45.5 30.5s36 11 56 11s38.667 -3.66699 56 -11s32.5 -17.5 45.5 -30.5s23.167 -28.167 30.5 -45.5
s11 -36 11 -56s-3.66699 -38.833 -11 -56.5s-17.5 -33 -30.5 -46s-28.167 -23.333 -45.5 -31s-36 -11.5 -56 -11.5zM210 533c17.333 0 32.166 6.16699 44.499 18.5s18.5 27.166 18.5 44.499s-6.16699 32.166 -18.5 44.499s-27.166 18.5 -44.499 18.5
s-32.166 -6.16699 -44.499 -18.5s-18.5 -27.166 -18.5 -44.499s6.16699 -32.166 18.5 -44.499s27.166 -18.5 44.499 -18.5z" />
    <glyph glyph-name="plusminus" unicode="&#xb1;" horiz-adv-x="461" 
d="M46 509h145v144h80v-144h145v-82h-145v-144h-80v144h-145v82zM46 206h370v-82h-370v82z" />
    <glyph glyph-name="uni00B2" unicode="&#xb2;" horiz-adv-x="336" 
d="M27 377c0 19.333 3.49902 36.499 10.499 51.499s16 28.5 27 40.5s23.333 23 37 33s27.167 19.333 40.5 28c22 13.333 41.333 26.5 58 39.5s25 28.167 25 45.5c0 13.333 -5 24.833 -15 34.5s-24.333 14.5 -43 14.5s-34.167 -5.66699 -46.5 -17
s-22.166 -25.333 -29.499 -42l-71 37c13.333 28.667 32.333 51.5 57 68.5s54.667 25.5 90 25.5c44 0 79 -11.667 105 -35s39 -52 39 -86c0 -18 -3.33301 -34.167 -10 -48.5s-15.5 -27.166 -26.5 -38.499s-23.167 -21.666 -36.5 -30.999l-40 -27
c-21.333 -13.333 -40.5 -26.333 -57.5 -39s-25.833 -27.334 -26.5 -44.001h196v-79h-283v69z" />
    <glyph glyph-name="uni00B3" unicode="&#xb3;" horiz-adv-x="324" 
d="M156 302c-28 0 -54.3301 4.50293 -78.9971 13.5029s-45.667 23.5 -63 43.5l67 55c19.333 -24 43.333 -36 72 -36c18.667 0 34 5 46 15s18 23.333 18 40c0 17.333 -7 30.666 -21 39.999s-31.667 14 -53 14h-43v75h42c21.333 0 37.833 4.83301 49.5 14.5
s17.5 22.167 17.5 37.5s-5.33301 27.5 -16 36.5s-25.334 13.5 -44.001 13.5c-15.333 0 -28.333 -3.33301 -39 -10s-19.667 -15.667 -27 -27l-64 46c14 19.333 32.667 34.666 56 45.999s48.666 17 75.999 17c43.333 0 77.833 -10.833 103.5 -32.5s38.5 -50.5 38.5 -86.5
c0 -18.667 -4.16699 -35.5 -12.5 -50.5s-19.833 -27.833 -34.5 -38.5c17.333 -10 31.166 -23.167 41.499 -39.5s15.5 -35.5 15.5 -57.5c0 -36.667 -13 -67.334 -39 -92.001s-62 -37 -108 -37z" />
    <glyph glyph-name="acute" unicode="&#xb4;" 
d="M241 720h105l-146 -163h-75z" />
    <glyph glyph-name="mu" unicode="&#xb5;" horiz-adv-x="571" 
d="M54 500h97.001v-268c0 -49.333 12 -88 36 -116s56 -42 96 -42c20 0 38.333 3.66699 55 11s31.167 17.5 43.5 30.5s22 28.667 29 47s10.5 38.833 10.5 61.5v276h96v-500h-95v67c-16.667 -23.333 -37.834 -42 -63.501 -56s-55.5 -21 -89.5 -21c-24 0 -46 3.83301 -66 11.5
s-37.667 18.167 -53 31.5v-263h-96v730z" />
    <glyph glyph-name="mu" unicode="&#x3bc;" horiz-adv-x="571" 
d="M54 500h97.001v-268c0 -49.333 12 -88 36 -116s56 -42 96 -42c20 0 38.333 3.66699 55 11s31.167 17.5 43.5 30.5s22 28.667 29 47s10.5 38.833 10.5 61.5v276h96v-500h-95v67c-16.667 -23.333 -37.834 -42 -63.501 -56s-55.5 -21 -89.5 -21c-24 0 -46 3.83301 -66 11.5
s-37.667 18.167 -53 31.5v-263h-96v730z" />
    <glyph glyph-name="paragraph" unicode="&#xb6;" horiz-adv-x="619" 
d="M339 302h-90.998c-30.667 0 -59.334 5.5 -86.001 16.5s-49.667 26.167 -69 45.5s-34.5 42 -45.5 68s-16.5 54 -16.5 84s5.5 58 16.5 84s26.167 48.667 45.5 68s42.166 34.5 68.499 45.5s54.833 16.5 85.5 16.5h320v-730h-85v641h-60v-641h-83v302z" />
    <glyph glyph-name="periodcentered" unicode="&#xb7;" horiz-adv-x="202" 
d="M53 320h96v-137h-96v137z" />
    <glyph glyph-name="cedilla" unicode="&#xb8;" 
d="M231 -235c-29.333 0 -55.999 5.16504 -79.999 15.498s-45 23.833 -63 40.5l64 39c12 -10 24.167 -18.333 36.5 -25s28.166 -10 47.499 -10c18 0 33.333 3.66699 46 11s19 16.666 19 27.999c0 22.667 -22.667 34 -68 34h-43v102h69v-53
c36 0.666992 64.667 -6.66602 86 -21.999s32 -34.666 32 -57.999c0 -15.333 -3.83301 -29.166 -11.5 -41.499s-18.167 -23 -31.5 -32s-28.833 -16 -46.5 -21s-36.5 -7.5 -56.5 -7.5z" />
    <glyph glyph-name="uni00B9" unicode="&#xb9;" horiz-adv-x="294" 
d="M26 386l83.001 0.000976562v222c-6.66699 -9.33301 -16.167 -16.833 -28.5 -22.5s-25.166 -8.5 -38.499 -8.5h-6v83h3c14 0 25.667 2.16699 35 6.5s16.666 10 21.999 17s9.16602 14.667 11.499 23s3.5 16.166 3.5 23.499h81v-344h80v-78h-246v78z" />
    <glyph glyph-name="ordmasculine" unicode="&#xba;" horiz-adv-x="382" 
d="M191 435c-20.667 0 -40.167 4 -58.5 12s-34.166 18.667 -47.499 32s-24 29.166 -32 47.499s-12 37.833 -12 58.5c0 21.333 4 41.166 12 59.499s18.667 34.166 32 47.499s29.166 24 47.499 32s37.833 12 58.5 12c21.333 0 41 -4 59 -12s33.833 -18.667 47.5 -32
s24.334 -29.166 32.001 -47.499s11.5 -38.166 11.5 -59.499c0 -20.667 -3.83301 -40.167 -11.5 -58.5s-18.334 -34.166 -32.001 -47.499s-29.5 -24 -47.5 -32s-37.667 -12 -59 -12zM191 503c23.333 0 42.5 8.16699 57.5 24.5s22.5 35.5 22.5 57.5c0 23.333 -7.5 43 -22.5 59
s-34.167 24 -57.5 24c-22 0 -40.833 -8 -56.5 -24s-23.5 -35.667 -23.5 -59c0 -22 7.83301 -41.167 23.5 -57.5s34.5 -24.5 56.5 -24.5z" />
    <glyph glyph-name="guillemotright" unicode="&#xbb;" horiz-adv-x="466" 
d="M58 178l111 74l-111 76v68l169 -116v-55l-169 -115v68zM240 178l111 74l-111 76v68l168 -116v-55l-168 -115v68z" />
    <glyph glyph-name="onequarter" unicode="&#xbc;" horiz-adv-x="820" 
d="M626 730h112l-527 -730h-112zM653 92h-180v75l178 255h82v-257h61v-73h-61v-92h-80v92zM26 386l83.001 0.000976562v222c-6.66699 -9.33301 -16.167 -16.833 -28.5 -22.5s-25.166 -8.5 -38.499 -8.5h-6v83h3c14 0 25.667 2.16699 35 6.5s16.666 10 21.999 17
s9.16602 14.667 11.499 23s3.5 16.166 3.5 23.499h81v-344h80v-78h-246v78zM653.001 165.001v133l-93 -133h93z" />
    <glyph glyph-name="onehalf" unicode="&#xbd;" horiz-adv-x="853" 
d="M626 730h112l-527 -730h-112zM540 69c0 19.333 3.49902 36.499 10.499 51.499s16 28.5 27 40.5s23.333 23 37 33s27.167 19.333 40.5 28c22 13.333 41.333 26.5 58 39.5s25 28.167 25 45.5c0 13.333 -5 24.833 -15 34.5s-24.333 14.5 -43 14.5
s-34.167 -5.66699 -46.5 -17s-22.166 -25.333 -29.499 -42l-71 37c13.333 28.667 32.333 51.5 57 68.5s54.667 25.5 90 25.5c44 0 79 -11.667 105 -35s39 -52 39 -86c0 -18 -3.33301 -34.167 -10 -48.5s-15.5 -27.166 -26.5 -38.499s-23.167 -21.666 -36.5 -30.999l-40 -27
c-21.333 -13.333 -40.5 -26.333 -57.5 -39s-25.833 -27.334 -26.5 -44.001h196v-79h-283v69zM25.999 385.999l83.001 0.000976562v222c-6.66699 -9.33301 -16.167 -16.833 -28.5 -22.5s-25.166 -8.5 -38.499 -8.5h-6v83h3c14 0 25.667 2.16699 35 6.5s16.666 10 21.999 17
s9.16602 14.667 11.499 23s3.5 16.166 3.5 23.499h81v-344h80v-78h-246v78z" />
    <glyph glyph-name="threequarters" unicode="&#xbe;" horiz-adv-x="830" 
d="M635 730h112l-527 -730h-112zM662 92h-180v75l178 255h82v-257h61v-73h-61v-92h-80v92zM156 302c-28 0 -54.3301 4.50293 -78.9971 13.5029s-45.667 23.5 -63 43.5l67 55c19.333 -24 43.333 -36 72 -36c18.667 0 34 5 46 15s18 23.333 18 40
c0 17.333 -7 30.666 -21 39.999s-31.667 14 -53 14h-43v75h42c21.333 0 37.833 4.83301 49.5 14.5s17.5 22.167 17.5 37.5s-5.33301 27.5 -16 36.5s-25.334 13.5 -44.001 13.5c-15.333 0 -28.333 -3.33301 -39 -10s-19.667 -15.667 -27 -27l-64 46
c14 19.333 32.667 34.666 56 45.999s48.666 17 75.999 17c43.333 0 77.833 -10.833 103.5 -32.5s38.5 -50.5 38.5 -86.5c0 -18.667 -4.16699 -35.5 -12.5 -50.5s-19.833 -27.833 -34.5 -38.5c17.333 -10 31.166 -23.167 41.499 -39.5s15.5 -35.5 15.5 -57.5
c0 -36.667 -13 -67.334 -39 -92.001s-62 -37 -108 -37zM662.003 165.003v133l-93 -133h93z" />
    <glyph glyph-name="questiondown" unicode="&#xbf;" horiz-adv-x="533" 
d="M267 -240c-32 0 -61.499 4.66699 -88.499 14s-50.333 22.333 -70 39s-35 36.834 -46 60.501s-16.5 49.834 -16.5 78.501c0 31.333 4.66699 57.166 14 77.499s21.166 37.666 35.499 51.999s29.833 27.333 46.5 39s32.167 25.167 46.5 40.5s26.166 34 35.499 56
s14 50 14 84v10h87v-10c0 -41.333 -4.5 -75.5 -13.5 -102.5s-20.167 -49.667 -33.5 -68s-27.833 -33.666 -43.5 -45.999s-30.167 -24.5 -43.5 -36.5s-24.5 -25.5 -33.5 -40.5s-13.5 -33.833 -13.5 -56.5c0 -31.333 11.667 -57 35 -77s53.333 -30 90 -30
c34.667 0 62.5 8.5 83.5 25.5s37.167 38.833 48.5 65.5l88 -34c-15.333 -40.667 -41.666 -74.334 -78.999 -101.001s-85 -40 -143 -40zM209.001 431c0 21.333 6.66895 38.666 20.002 51.999s30.666 20 51.999 20c23.333 0 41.5 -6.66699 54.5 -20s19.5 -30.666 19.5 -51.999
s-6.5 -38.666 -19.5 -51.999s-31.167 -20 -54.5 -20c-22.667 0 -40.334 6.66699 -53.001 20s-19 30.666 -19 51.999z" />
    <glyph glyph-name="Agrave" unicode="&#xc0;" horiz-adv-x="696" 
d="M298 730h101l270 -730h-101l-62 167h-316l-61 -167h-102zM224 260h248l-124 337zM163 950h104l117 -163h-75z" />
    <glyph glyph-name="Aacute" unicode="&#xc1;" horiz-adv-x="696" 
d="M298 730h101l270 -730h-101l-62 167h-316l-61 -167h-102zM224 260h248l-124 337zM421 950h105l-146 -163h-75z" />
    <glyph glyph-name="Acircumflex" unicode="&#xc2;" horiz-adv-x="696" 
d="M298 730h101l270 -730h-101l-62 167h-316l-61 -167h-102zM224 260h248l-124 337zM309 950h69l119 -163h-84l-70 98l-68 -98h-85z" />
    <glyph glyph-name="Atilde" unicode="&#xc3;" horiz-adv-x="696" 
d="M298 730h101l270 -730h-101l-62 167h-316l-61 -167h-102zM224 260h248l-124 337zM173 787c0 37.333 8.99707 67.166 26.9971 89.499s42.333 33.5 73 33.5c16.667 0 31.334 -2.66699 44.001 -8s24.667 -11.666 36 -18.999l30.5 -18.5
c9.66699 -5.66699 19.834 -8.5 30.501 -8.5c24 0 36 16.667 36 50h66c0 -38 -8.5 -68 -25.5 -90s-42.167 -33 -75.5 -33c-19.333 0 -36.166 3.5 -50.499 10.5s-27.833 14.167 -40.5 21.5l-25.5 14.5c-7.66699 4.33301 -16.167 6.5 -25.5 6.5c-23.333 0 -35 -16.333 -35 -49
h-65z" />
    <glyph glyph-name="Adieresis" unicode="&#xc4;" horiz-adv-x="696" 
d="M298 730h101l270 -730h-101l-62 167h-316l-61 -167h-102zM224 260h248l-124 337zM185 861c0 18.667 5.66797 33.667 17.001 45s26.666 17 45.999 17c20.667 0 36.5 -5.66699 47.5 -17s16.5 -26.333 16.5 -45c0 -19.333 -5.5 -34.666 -16.5 -45.999s-26.833 -17 -47.5 -17
c-20 0 -35.5 5.66699 -46.5 17s-16.5 26.666 -16.5 45.999zM380.001 861c0 18.667 5.66797 33.667 17.001 45s26.666 17 45.999 17c20.667 0 36.5 -5.66699 47.5 -17s16.5 -26.333 16.5 -45c0 -19.333 -5.5 -34.666 -16.5 -45.999s-26.833 -17 -47.5 -17
c-20 0 -35.5 5.66699 -46.5 17s-16.5 26.666 -16.5 45.999z" />
    <glyph glyph-name="Aring" unicode="&#xc5;" horiz-adv-x="696" 
d="M283 690c-14.667 9.33301 -26.168 21.833 -34.501 37.5s-12.5 33.167 -12.5 52.5c0 15.333 2.83301 29.666 8.5 42.999s13.334 25 23.001 35s21.167 17.833 34.5 23.5s27.333 8.5 42 8.5c15.333 0 29.833 -2.83301 43.5 -8.5s25.5 -13.5 35.5 -23.5
s17.833 -21.667 23.5 -35s8.5 -27.666 8.5 -42.999c0 -18 -3.83301 -34.333 -11.5 -49s-18.167 -27 -31.5 -37l257 -694h-101l-62 167h-316l-61 -167h-102zM223.999 260h248l-124 337zM343.999 734c13.333 0 24.5 4.33301 33.5 13s13.5 19.667 13.5 33
c0 12.667 -4.5 23.667 -13.5 33s-20.167 14 -33.5 14c-12.667 0 -23.5 -4.66699 -32.5 -14s-13.5 -20.333 -13.5 -33c0 -13.333 4.5 -24.333 13.5 -33s19.833 -13 32.5 -13z" />
    <glyph glyph-name="AE" unicode="&#xc6;" horiz-adv-x="993" 
d="M369 730h565v-92h-441l54 -226h387v-92h-365l54 -227h311v-93h-390l-39 164h-300l-77 -164h-105zM247 254h237l-79 335z" />
    <glyph glyph-name="Ccedilla" unicode="&#xc7;" horiz-adv-x="769" 
d="M411 -235c-29.333 0 -56.0059 5.16699 -80.0059 15.5s-45 23.833 -63 40.5l64 39c12 -10 24.167 -18.333 36.5 -25s28.166 -10 47.499 -10c18 0 33.333 3.66699 46 11s19 16.666 19 27.999c0 22.667 -22.667 34 -68 34h-43v95c-48 5.33301 -92.167 18.666 -132.5 39.999
s-75.333 48.5 -105 81.5s-52.667 71 -69 114s-24.5 88.5 -24.5 136.5c0 53.333 9.83301 102.833 29.5 148.5s46.334 85.167 80.001 118.5s73.334 59.666 119.001 78.999s94.5 29 146.5 29c34.667 0 67.834 -4.5 99.501 -13.5s61.334 -21.5 89.001 -37.5s53 -35.333 76 -58
s42.5 -47.667 58.5 -75l-85 -52c-23.333 43.333 -55.333 78 -96 104s-88 39 -142 39c-39.333 0 -76 -7.33301 -110 -22s-63.333 -34.834 -88 -60.501s-44 -55.5 -58 -89.5s-21 -70.667 -21 -110c0 -38.667 7 -75 21 -109s33.333 -63.667 58 -89s53.834 -45.333 87.501 -60
s70.167 -22 109.5 -22c58.667 0 108.834 14.167 150.501 42.5s73.834 65.5 96.501 111.5l87 -46c-30 -57.333 -71.667 -104.166 -125 -140.499s-114.333 -56.833 -183 -61.5v-44c36 0.666992 64.667 -6.66602 86 -21.999s32 -34.666 32 -57.999
c0 -15.333 -3.83301 -29.166 -11.5 -41.499s-18.167 -23 -31.5 -32s-28.833 -16 -46.5 -21s-36.5 -7.5 -56.5 -7.5z" />
    <glyph glyph-name="Egrave" unicode="&#xc8;" horiz-adv-x="551" 
d="M60 730h440v-92h-344v-226h344v-92h-344v-227h344v-93h-440v730zM105 950h104l117 -163h-75z" />
    <glyph glyph-name="Eacute" unicode="&#xc9;" horiz-adv-x="551" 
d="M60 730h440v-92h-344v-226h344v-92h-344v-227h344v-93h-440v730zM342 950h105l-146 -163h-75z" />
    <glyph glyph-name="Ecircumflex" unicode="&#xca;" horiz-adv-x="551" 
d="M60 730h440v-92h-344v-226h344v-92h-344v-227h344v-93h-440v730zM242 950h69l119 -163h-84l-70 98l-68 -98h-85z" />
    <glyph glyph-name="Edieresis" unicode="&#xcb;" horiz-adv-x="551" 
d="M60 730h440v-92h-344v-226h344v-92h-344v-227h344v-93h-440v730zM316 861c0 18.667 5.66797 33.667 17.001 45s26.666 17 45.999 17c20.667 0 36.5 -5.66699 47.5 -17s16.5 -26.333 16.5 -45c0 -19.333 -5.5 -34.666 -16.5 -45.999s-26.833 -17 -47.5 -17
c-20 0 -35.5 5.66699 -46.5 17s-16.5 26.666 -16.5 45.999zM121.001 861c0 18.667 5.66797 33.667 17.001 45s26.666 17 45.999 17c20.667 0 36.5 -5.66699 47.5 -17s16.5 -26.333 16.5 -45c0 -19.333 -5.5 -34.666 -16.5 -45.999s-26.833 -17 -47.5 -17
c-20 0 -35.5 5.66699 -46.5 17s-16.5 26.666 -16.5 45.999z" />
    <glyph glyph-name="Igrave" unicode="&#xcc;" horiz-adv-x="233" 
d="M68 730h97v-730h-97v730zM-67 950h104l117 -163h-75z" />
    <glyph glyph-name="Iacute" unicode="&#xcd;" horiz-adv-x="233" 
d="M68 730h97v-730h-97v730zM192 950h105l-146 -163h-75z" />
    <glyph glyph-name="Icircumflex" unicode="&#xce;" horiz-adv-x="233" 
d="M68 730h97v-730h-97v730zM81 950h69l119 -163h-84l-70 98l-68 -98h-85z" />
    <glyph glyph-name="Idieresis" unicode="&#xcf;" horiz-adv-x="233" 
d="M170 929h96v-138h-96v138zM-33 929h96v-138h-96v138zM68 730h97v-730h-97v730z" />
    <glyph glyph-name="Eth" unicode="&#xd0;" horiz-adv-x="717" 
d="M22 411l73 0.000976562v319h201c58 0 110.667 -9.33301 158 -28s87.5 -44.334 120.5 -77.001s58.5 -71.167 76.5 -115.5s27 -92.5 27 -144.5s-9.5 -100.333 -28.5 -145s-45.333 -83.167 -79 -115.5s-73.667 -57.833 -120 -76.5s-96.5 -28 -150.5 -28h-205v323h-73v88z
M192 641.001l-0.00195312 -230.003h198v-88h-198v-233h97c43.333 0 82.833 7 118.5 21s66.334 33.333 92.001 58s45.667 53.834 60 87.501s21.5 69.834 21.5 108.501c0 39.333 -6.66699 75.833 -20 109.5s-32.666 62.834 -57.999 87.501s-56.333 44 -93 58s-78 21 -124 21
h-94z" />
    <glyph glyph-name="Ntilde" unicode="&#xd1;" horiz-adv-x="720" 
d="M60 730h110l393 -574v574h96v-730h-103l-400 582v-582h-96v730zM187 787c0 37.333 8.99707 67.166 26.9971 89.499s42.333 33.5 73 33.5c16.667 0 31.334 -2.66699 44.001 -8s24.667 -11.666 36 -18.999l30.5 -18.5c9.66699 -5.66699 19.834 -8.5 30.501 -8.5
c24 0 36 16.667 36 50h66c0 -38 -8.5 -68 -25.5 -90s-42.167 -33 -75.5 -33c-19.333 0 -36.166 3.5 -50.499 10.5s-27.833 14.167 -40.5 21.5l-25.5 14.5c-7.66699 4.33301 -16.167 6.5 -25.5 6.5c-23.333 0 -35 -16.333 -35 -49h-65z" />
    <glyph glyph-name="Ograve" unicode="&#xd2;" horiz-adv-x="827" 
d="M413 -10c-52 0 -100.667 9.83301 -146 29.5s-84.833 46.5 -118.5 80.5s-60.334 73.667 -80.001 119s-29.5 94 -29.5 146s9.83301 100.667 29.5 146s46.334 85 80.001 119s73.167 60.833 118.5 80.5s94 29.5 146 29.5s100.833 -9.83301 146.5 -29.5
s85.334 -46.5 119.001 -80.5s60.334 -73.667 80.001 -119s29.5 -94 29.5 -146s-9.83301 -100.667 -29.5 -146s-46.334 -85 -80.001 -119s-73.334 -60.833 -119.001 -80.5s-94.5 -29.5 -146.5 -29.5zM413 84c39.333 0 75.833 7.5 109.5 22.5s63 35.167 88 60.5
s44.667 55 59 89s21.5 70.333 21.5 109s-7.16699 75 -21.5 109s-34 63.833 -59 89.5s-54.333 45.834 -88 60.501s-70.167 22 -109.5 22c-38.667 0 -74.834 -7.33301 -108.501 -22s-62.834 -34.834 -87.501 -60.501s-44.167 -55.5 -58.5 -89.5s-21.5 -70.333 -21.5 -109
s7.16699 -75 21.5 -109s33.833 -63.667 58.5 -89s53.834 -45.5 87.501 -60.5s69.834 -22.5 108.501 -22.5zM228 950h104l117 -163h-75z" />
    <glyph glyph-name="Oacute" unicode="&#xd3;" horiz-adv-x="827" 
d="M484 950h105l-146 -163h-75zM413 -10c-52 0 -100.667 9.83301 -146 29.5s-84.833 46.5 -118.5 80.5s-60.334 73.667 -80.001 119s-29.5 94 -29.5 146s9.83301 100.667 29.5 146s46.334 85 80.001 119s73.167 60.833 118.5 80.5s94 29.5 146 29.5
s100.833 -9.83301 146.5 -29.5s85.334 -46.5 119.001 -80.5s60.334 -73.667 80.001 -119s29.5 -94 29.5 -146s-9.83301 -100.667 -29.5 -146s-46.334 -85 -80.001 -119s-73.334 -60.833 -119.001 -80.5s-94.5 -29.5 -146.5 -29.5zM413 84c39.333 0 75.833 7.5 109.5 22.5
s63 35.167 88 60.5s44.667 55 59 89s21.5 70.333 21.5 109s-7.16699 75 -21.5 109s-34 63.833 -59 89.5s-54.333 45.834 -88 60.501s-70.167 22 -109.5 22c-38.667 0 -74.834 -7.33301 -108.501 -22s-62.834 -34.834 -87.501 -60.501s-44.167 -55.5 -58.5 -89.5
s-21.5 -70.333 -21.5 -109s7.16699 -75 21.5 -109s33.833 -63.667 58.5 -89s53.834 -45.5 87.501 -60.5s69.834 -22.5 108.501 -22.5z" />
    <glyph glyph-name="Ocircumflex" unicode="&#xd4;" horiz-adv-x="827" 
d="M413 -10c-52 0 -100.667 9.83301 -146 29.5s-84.833 46.5 -118.5 80.5s-60.334 73.667 -80.001 119s-29.5 94 -29.5 146s9.83301 100.667 29.5 146s46.334 85 80.001 119s73.167 60.833 118.5 80.5s94 29.5 146 29.5s100.833 -9.83301 146.5 -29.5
s85.334 -46.5 119.001 -80.5s60.334 -73.667 80.001 -119s29.5 -94 29.5 -146s-9.83301 -100.667 -29.5 -146s-46.334 -85 -80.001 -119s-73.334 -60.833 -119.001 -80.5s-94.5 -29.5 -146.5 -29.5zM413 84c39.333 0 75.833 7.5 109.5 22.5s63 35.167 88 60.5
s44.667 55 59 89s21.5 70.333 21.5 109s-7.16699 75 -21.5 109s-34 63.833 -59 89.5s-54.333 45.834 -88 60.501s-70.167 22 -109.5 22c-38.667 0 -74.834 -7.33301 -108.501 -22s-62.834 -34.834 -87.501 -60.501s-44.167 -55.5 -58.5 -89.5s-21.5 -70.333 -21.5 -109
s7.16699 -75 21.5 -109s33.833 -63.667 58.5 -89s53.834 -45.5 87.501 -60.5s69.834 -22.5 108.501 -22.5zM375 950h69l119 -163h-84l-70 98l-68 -98h-85z" />
    <glyph glyph-name="Otilde" unicode="&#xd5;" horiz-adv-x="827" 
d="M413 -10c-52 0 -100.667 9.83301 -146 29.5s-84.833 46.5 -118.5 80.5s-60.334 73.667 -80.001 119s-29.5 94 -29.5 146s9.83301 100.667 29.5 146s46.334 85 80.001 119s73.167 60.833 118.5 80.5s94 29.5 146 29.5s100.833 -9.83301 146.5 -29.5
s85.334 -46.5 119.001 -80.5s60.334 -73.667 80.001 -119s29.5 -94 29.5 -146s-9.83301 -100.667 -29.5 -146s-46.334 -85 -80.001 -119s-73.334 -60.833 -119.001 -80.5s-94.5 -29.5 -146.5 -29.5zM413 84c39.333 0 75.833 7.5 109.5 22.5s63 35.167 88 60.5
s44.667 55 59 89s21.5 70.333 21.5 109s-7.16699 75 -21.5 109s-34 63.833 -59 89.5s-54.333 45.834 -88 60.501s-70.167 22 -109.5 22c-38.667 0 -74.834 -7.33301 -108.501 -22s-62.834 -34.834 -87.501 -60.501s-44.167 -55.5 -58.5 -89.5s-21.5 -70.333 -21.5 -109
s7.16699 -75 21.5 -109s33.833 -63.667 58.5 -89s53.834 -45.5 87.501 -60.5s69.834 -22.5 108.501 -22.5zM236 787c0 37.333 8.99707 67.166 26.9971 89.499s42.333 33.5 73 33.5c16.667 0 31.334 -2.66699 44.001 -8s24.667 -11.666 36 -18.999l30.5 -18.5
c9.66699 -5.66699 19.834 -8.5 30.501 -8.5c24 0 36 16.667 36 50h66c0 -38 -8.5 -68 -25.5 -90s-42.167 -33 -75.5 -33c-19.333 0 -36.166 3.5 -50.499 10.5s-27.833 14.167 -40.5 21.5l-25.5 14.5c-7.66699 4.33301 -16.167 6.5 -25.5 6.5c-23.333 0 -35 -16.333 -35 -49
h-65z" />
    <glyph glyph-name="Odieresis" unicode="&#xd6;" horiz-adv-x="827" 
d="M249 861c0 18.667 5.66797 33.667 17.001 45s26.666 17 45.999 17c20.667 0 36.5 -5.66699 47.5 -17s16.5 -26.333 16.5 -45c0 -19.333 -5.5 -34.666 -16.5 -45.999s-26.833 -17 -47.5 -17c-20 0 -35.5 5.66699 -46.5 17s-16.5 26.666 -16.5 45.999zM444.001 861
c0 18.667 5.66797 33.667 17.001 45s26.666 17 45.999 17c20.667 0 36.5 -5.66699 47.5 -17s16.5 -26.333 16.5 -45c0 -19.333 -5.5 -34.666 -16.5 -45.999s-26.833 -17 -47.5 -17c-20 0 -35.5 5.66699 -46.5 17s-16.5 26.666 -16.5 45.999zM413.002 -10
c-52 0 -100.667 9.83301 -146 29.5s-84.833 46.5 -118.5 80.5s-60.334 73.667 -80.001 119s-29.5 94 -29.5 146s9.83301 100.667 29.5 146s46.334 85 80.001 119s73.167 60.833 118.5 80.5s94 29.5 146 29.5s100.833 -9.83301 146.5 -29.5s85.334 -46.5 119.001 -80.5
s60.334 -73.667 80.001 -119s29.5 -94 29.5 -146s-9.83301 -100.667 -29.5 -146s-46.334 -85 -80.001 -119s-73.334 -60.833 -119.001 -80.5s-94.5 -29.5 -146.5 -29.5zM413.002 84c39.333 0 75.833 7.5 109.5 22.5s63 35.167 88 60.5s44.667 55 59 89s21.5 70.333 21.5 109
s-7.16699 75 -21.5 109s-34 63.833 -59 89.5s-54.333 45.834 -88 60.501s-70.167 22 -109.5 22c-38.667 0 -74.834 -7.33301 -108.501 -22s-62.834 -34.834 -87.501 -60.501s-44.167 -55.5 -58.5 -89.5s-21.5 -70.333 -21.5 -109s7.16699 -75 21.5 -109
s33.833 -63.667 58.5 -89s53.834 -45.5 87.501 -60.5s69.834 -22.5 108.501 -22.5z" />
    <glyph glyph-name="multiply" unicode="&#xd7;" horiz-adv-x="461" 
d="M57 248l116 116l-116 117l57 57l116 -117l117 117l58 -58l-117 -117l116 -115l-57 -57l-116 115l-116 -116z" />
    <glyph glyph-name="Oslash" unicode="&#xd8;" horiz-adv-x="827" 
d="M150 98c-34.667 34 -61.832 73.832 -81.499 119.499s-29.5 94.834 -29.5 147.501c0 52 9.83301 100.667 29.5 146s46.334 85 80.001 119s73.167 60.833 118.5 80.5s94 29.5 146 29.5c36 0 70.5 -4.83301 103.5 -14.5s63.833 -23.167 92.5 -40.5l35 45h112l-78 -100
c34 -34 60.833 -73.667 80.5 -119s29.5 -94 29.5 -146s-9.83301 -100.667 -29.5 -146s-46.334 -85 -80.001 -119s-73.334 -60.833 -119.001 -80.5s-94.5 -29.5 -146.5 -29.5c-36 0 -70.167 4.5 -102.5 13.5s-62.5 22.167 -90.5 39.5l-34 -43h-112zM137.002 364.999
c0 -37.333 6.33496 -72.166 19.002 -104.499s30.667 -61.166 54 -86.499l340 436c-20 11.333 -41.5 20.166 -64.5 26.499s-47.167 9.5 -72.5 9.5c-38.667 0 -74.834 -7.33301 -108.501 -22s-62.834 -34.834 -87.501 -60.501s-44.167 -55.5 -58.5 -89.5
s-21.5 -70.333 -21.5 -109zM413.004 83.999c39.333 0 75.833 7.50098 109.5 22.501s63 35.167 88 60.5s44.667 55 59 89s21.5 70.333 21.5 109c0 36 -6.33301 70.167 -19 102.5s-30.334 61.166 -53.001 86.499l-340 -435c19.333 -11.333 40.333 -20 63 -26
s46.334 -9 71.001 -9z" />
    <glyph glyph-name="Ugrave" unicode="&#xd9;" horiz-adv-x="625" 
d="M312 -10c-36.667 0 -70.4961 6 -101.496 18s-57.833 29.167 -80.5 51.5s-40.334 49.166 -53.001 80.499s-19 66 -19 104v486h96v-492c0 -21.333 4 -41.5 12 -60.5s19.167 -35.667 33.5 -50s31.166 -25.666 50.499 -33.999s40 -12.5 62 -12.5s42.667 4.16699 62 12.5
s36.166 19.666 50.499 33.999s25.666 31 33.999 50s12.5 39.167 12.5 60.5v492h96v-486c0 -38 -6.5 -72.667 -19.5 -104s-30.833 -58.166 -53.5 -80.499s-49.5 -39.5 -80.5 -51.5s-64.833 -18 -101.5 -18zM134.004 950h104l117 -163h-75z" />
    <glyph glyph-name="Uacute" unicode="&#xda;" horiz-adv-x="625" 
d="M379 950h105l-146 -163h-75zM312 -10c-36.667 0 -70.4961 6 -101.496 18s-57.833 29.167 -80.5 51.5s-40.334 49.166 -53.001 80.499s-19 66 -19 104v486h96v-492c0 -21.333 4 -41.5 12 -60.5s19.167 -35.667 33.5 -50s31.166 -25.666 50.499 -33.999s40 -12.5 62 -12.5
s42.667 4.16699 62 12.5s36.166 19.666 50.499 33.999s25.666 31 33.999 50s12.5 39.167 12.5 60.5v492h96v-486c0 -38 -6.5 -72.667 -19.5 -104s-30.833 -58.166 -53.5 -80.499s-49.5 -39.5 -80.5 -51.5s-64.833 -18 -101.5 -18z" />
    <glyph glyph-name="Ucircumflex" unicode="&#xdb;" horiz-adv-x="625" 
d="M312 -10c-36.667 0 -70.4961 6 -101.496 18s-57.833 29.167 -80.5 51.5s-40.334 49.166 -53.001 80.499s-19 66 -19 104v486h96v-492c0 -21.333 4 -41.5 12 -60.5s19.167 -35.667 33.5 -50s31.166 -25.666 50.499 -33.999s40 -12.5 62 -12.5s42.667 4.16699 62 12.5
s36.166 19.666 50.499 33.999s25.666 31 33.999 50s12.5 39.167 12.5 60.5v492h96v-486c0 -38 -6.5 -72.667 -19.5 -104s-30.833 -58.166 -53.5 -80.499s-49.5 -39.5 -80.5 -51.5s-64.833 -18 -101.5 -18zM275.004 950h69l119 -163h-84l-70 98l-68 -98h-85z" />
    <glyph glyph-name="Udieresis" unicode="&#xdc;" horiz-adv-x="625" 
d="M153 861c0 18.667 5.66797 33.667 17.001 45s26.666 17 45.999 17c20.667 0 36.5 -5.66699 47.5 -17s16.5 -26.333 16.5 -45c0 -19.333 -5.5 -34.666 -16.5 -45.999s-26.833 -17 -47.5 -17c-20 0 -35.5 5.66699 -46.5 17s-16.5 26.666 -16.5 45.999zM348.001 861
c0 18.667 5.66797 33.667 17.001 45s26.666 17 45.999 17c20.667 0 36.5 -5.66699 47.5 -17s16.5 -26.333 16.5 -45c0 -19.333 -5.5 -34.666 -16.5 -45.999s-26.833 -17 -47.5 -17c-20 0 -35.5 5.66699 -46.5 17s-16.5 26.666 -16.5 45.999zM312.002 -10
c-36.667 0 -70.4961 6 -101.496 18s-57.833 29.167 -80.5 51.5s-40.334 49.166 -53.001 80.499s-19 66 -19 104v486h96v-492c0 -21.333 4 -41.5 12 -60.5s19.167 -35.667 33.5 -50s31.166 -25.666 50.499 -33.999s40 -12.5 62 -12.5s42.667 4.16699 62 12.5
s36.166 19.666 50.499 33.999s25.666 31 33.999 50s12.5 39.167 12.5 60.5v492h96v-486c0 -38 -6.5 -72.667 -19.5 -104s-30.833 -58.166 -53.5 -80.499s-49.5 -39.5 -80.5 -51.5s-64.833 -18 -101.5 -18z" />
    <glyph glyph-name="Yacute" unicode="&#xdd;" horiz-adv-x="621" 
d="M263 346l-239 384h107l180 -291l180 291h107l-239 -384v-346h-96v346zM382 950h105l-146 -163h-75z" />
    <glyph glyph-name="Thorn" unicode="&#xde;" horiz-adv-x="565" 
d="M60 730h97v-142h139c33.333 0 64 -5.5 92 -16.5s52 -26 72 -45s35.5 -41.667 46.5 -68s16.5 -54.833 16.5 -85.5s-5.5 -59.167 -16.5 -85.5s-26.5 -49 -46.5 -68s-43.833 -34 -71.5 -45s-58.5 -16.5 -92.5 -16.5h-139v-158h-97v730zM157 498v-251.001h132
c42 0 75.333 11.833 100 35.5s37 53.834 37 90.501c0 36 -12.333 65.833 -37 89.5s-58 35.5 -100 35.5h-132z" />
    <glyph glyph-name="germandbls" unicode="&#xdf;" horiz-adv-x="620" 
d="M-68 -179c26.667 0 48.501 2.5 65.501 7.5s30.5 13.167 40.5 24.5s16.833 25.833 20.5 43.5s5.5 39.167 5.5 64.5v658c-0.666992 35.333 4.5 67.5 15.5 96.5s26.667 54.167 47 75.5s45.5 37.833 75.5 49.5s63.667 17.5 101 17.5c34.667 0 66.5 -5.66699 95.5 -17
s54 -27.166 75 -47.499s37.333 -44.333 49 -72s17.5 -57.834 17.5 -90.501c0 -41.333 -10.167 -77.666 -30.5 -108.999s-48.5 -55.333 -84.5 -72c45.333 -16 82.166 -42.167 110.499 -78.5s42.5 -80.5 42.5 -132.5c0 -36 -5.83301 -69.167 -17.5 -99.5
s-28.5 -56.5 -50.5 -78.5s-48.333 -39.333 -79 -52s-65 -19 -103 -19c-21.333 0 -41 1.83301 -59 5.5s-33.667 9.16699 -47 16.5l1 89c12.667 -7.33301 28.167 -13 46.5 -17s37.833 -6 58.5 -6c21.333 0 41.166 4.16699 59.499 12.5s34.5 19.666 48.5 33.999
s25 31.333 33 51s12 40.834 12 63.501c0 22 -4.33301 42.667 -13 62s-20.834 36.166 -36.501 50.499s-34.667 25.833 -57 34.5s-47.166 13 -74.499 13h-23v88h23c20 0 38.833 3.66699 56.5 11s33 17.5 46 30.5s23.333 28.333 31 46s11.5 37.167 11.5 58.5
c0 19.333 -3.5 37.833 -10.5 55.5s-16.667 33 -29 46s-27.333 23.333 -45 31s-37.167 11.5 -58.5 11.5c-20.667 0 -40 -3.33301 -58 -10s-33.5 -16.334 -46.5 -29.001s-23.333 -28.167 -31 -46.5s-11.5 -39.166 -11.5 -62.499v-667c0 -41.333 -3.5 -76.5 -10.5 -105.5
s-18.667 -52.667 -35 -71s-37.666 -31.833 -63.999 -40.5s-58.833 -13 -97.5 -13h-16v89z" />
    <glyph glyph-name="agrave" unicode="&#xe0;" horiz-adv-x="712" 
d="M339 -12c-40.667 0 -79.1631 7.66797 -115.496 23.001s-68 36.5 -95 63.5s-48.333 59.167 -64 96.5s-23.5 77.666 -23.5 120.999c0 44 7.66699 84.5 23 121.5s36.5 69.167 63.5 96.5s58.667 48.666 95 63.999s75.166 23 116.499 23s81.666 -9.5 120.999 -28.5
s70.666 -45.833 93.999 -80.5v97h94v-585h-94v99c-23.333 -35.333 -54.833 -62.666 -94.5 -81.999s-79.834 -29 -120.501 -29zM348.004 76.001c30 0 58 5.66699 84 17s48.5 26.666 67.5 45.999s34 42.333 45 69s16.5 55 16.5 85s-5.5 58.167 -16.5 84.5s-26 49.333 -45 69
s-41.5 35.167 -67.5 46.5s-54 17 -84 17c-29.333 0 -56.833 -5.66699 -82.5 -17s-48 -26.833 -67 -46.5s-34 -42.667 -45 -69s-16.5 -54.5 -16.5 -84.5s5.5 -58.333 16.5 -85s26 -49.667 45 -69s41.333 -34.666 67 -45.999s53.167 -17 82.5 -17zM167.004 815.001h104
l117 -163h-75z" />
    <glyph glyph-name="aacute" unicode="&#xe1;" horiz-adv-x="712" 
d="M339 -12c-40.667 0 -79.1631 7.66797 -115.496 23.001s-68 36.5 -95 63.5s-48.333 59.167 -64 96.5s-23.5 77.666 -23.5 120.999c0 44 7.66699 84.5 23 121.5s36.5 69.167 63.5 96.5s58.667 48.666 95 63.999s75.166 23 116.499 23s81.666 -9.5 120.999 -28.5
s70.666 -45.833 93.999 -80.5v97h94v-585h-94v99c-23.333 -35.333 -54.833 -62.666 -94.5 -81.999s-79.834 -29 -120.501 -29zM348.004 76.001c30 0 58 5.66699 84 17s48.5 26.666 67.5 45.999s34 42.333 45 69s16.5 55 16.5 85s-5.5 58.167 -16.5 84.5s-26 49.333 -45 69
s-41.5 35.167 -67.5 46.5s-54 17 -84 17c-29.333 0 -56.833 -5.66699 -82.5 -17s-48 -26.833 -67 -46.5s-34 -42.667 -45 -69s-16.5 -54.5 -16.5 -84.5s5.5 -58.333 16.5 -85s26 -49.667 45 -69s41.333 -34.666 67 -45.999s53.167 -17 82.5 -17zM414.004 815.001h105
l-146 -163h-75z" />
    <glyph glyph-name="acircumflex" unicode="&#xe2;" horiz-adv-x="712" 
d="M339 -12c-40.667 0 -79.1631 7.66797 -115.496 23.001s-68 36.5 -95 63.5s-48.333 59.167 -64 96.5s-23.5 77.666 -23.5 120.999c0 44 7.66699 84.5 23 121.5s36.5 69.167 63.5 96.5s58.667 48.666 95 63.999s75.166 23 116.499 23s81.666 -9.5 120.999 -28.5
s70.666 -45.833 93.999 -80.5v97h94v-585h-94v99c-23.333 -35.333 -54.833 -62.666 -94.5 -81.999s-79.834 -29 -120.501 -29zM348.004 76.001c30 0 58 5.66699 84 17s48.5 26.666 67.5 45.999s34 42.333 45 69s16.5 55 16.5 85s-5.5 58.167 -16.5 84.5s-26 49.333 -45 69
s-41.5 35.167 -67.5 46.5s-54 17 -84 17c-29.333 0 -56.833 -5.66699 -82.5 -17s-48 -26.833 -67 -46.5s-34 -42.667 -45 -69s-16.5 -54.5 -16.5 -84.5s5.5 -58.333 16.5 -85s26 -49.667 45 -69s41.333 -34.666 67 -45.999s53.167 -17 82.5 -17zM307.004 811.001h69
l119 -163h-84l-70 98l-68 -98h-85z" />
    <glyph glyph-name="atilde" unicode="&#xe3;" horiz-adv-x="712" 
d="M339 -12c-40.667 0 -79.1631 7.66797 -115.496 23.001s-68 36.5 -95 63.5s-48.333 59.167 -64 96.5s-23.5 77.666 -23.5 120.999c0 44 7.66699 84.5 23 121.5s36.5 69.167 63.5 96.5s58.667 48.666 95 63.999s75.166 23 116.499 23s81.666 -9.5 120.999 -28.5
s70.666 -45.833 93.999 -80.5v97h94v-585h-94v99c-23.333 -35.333 -54.833 -62.666 -94.5 -81.999s-79.834 -29 -120.501 -29zM348.004 76.001c30 0 58 5.66699 84 17s48.5 26.666 67.5 45.999s34 42.333 45 69s16.5 55 16.5 85s-5.5 58.167 -16.5 84.5s-26 49.333 -45 69
s-41.5 35.167 -67.5 46.5s-54 17 -84 17c-29.333 0 -56.833 -5.66699 -82.5 -17s-48 -26.833 -67 -46.5s-34 -42.667 -45 -69s-16.5 -54.5 -16.5 -84.5s5.5 -58.333 16.5 -85s26 -49.667 45 -69s41.333 -34.666 67 -45.999s53.167 -17 82.5 -17zM179.004 652.001
c0 37.333 8.99707 67.166 26.9971 89.499s42.333 33.5 73 33.5c16.667 0 31.334 -2.66699 44.001 -8s24.667 -11.666 36 -18.999l30.5 -18.5c9.66699 -5.66699 19.834 -8.5 30.501 -8.5c24 0 36 16.667 36 50h66c0 -38 -8.5 -68 -25.5 -90s-42.167 -33 -75.5 -33
c-19.333 0 -36.166 3.5 -50.499 10.5s-27.833 14.167 -40.5 21.5l-25.5 14.5c-7.66699 4.33301 -16.167 6.5 -25.5 6.5c-23.333 0 -35 -16.333 -35 -49h-65z" />
    <glyph glyph-name="adieresis" unicode="&#xe4;" horiz-adv-x="712" 
d="M339 -12c-40.667 0 -79.1631 7.66797 -115.496 23.001s-68 36.5 -95 63.5s-48.333 59.167 -64 96.5s-23.5 77.666 -23.5 120.999c0 44 7.66699 84.5 23 121.5s36.5 69.167 63.5 96.5s58.667 48.666 95 63.999s75.166 23 116.499 23s81.666 -9.5 120.999 -28.5
s70.666 -45.833 93.999 -80.5v97h94v-585h-94v99c-23.333 -35.333 -54.833 -62.666 -94.5 -81.999s-79.834 -29 -120.501 -29zM348.004 76.001c30 0 58 5.66699 84 17s48.5 26.666 67.5 45.999s34 42.333 45 69s16.5 55 16.5 85s-5.5 58.167 -16.5 84.5s-26 49.333 -45 69
s-41.5 35.167 -67.5 46.5s-54 17 -84 17c-29.333 0 -56.833 -5.66699 -82.5 -17s-48 -26.833 -67 -46.5s-34 -42.667 -45 -69s-16.5 -54.5 -16.5 -84.5s5.5 -58.333 16.5 -85s26 -49.667 45 -69s41.333 -34.666 67 -45.999s53.167 -17 82.5 -17zM185.004 713.001
c0 18.667 5.66797 33.667 17.001 45s26.666 17 45.999 17c20.667 0 36.5 -5.66699 47.5 -17s16.5 -26.333 16.5 -45c0 -19.333 -5.5 -34.666 -16.5 -45.999s-26.833 -17 -47.5 -17c-20 0 -35.5 5.66699 -46.5 17s-16.5 26.666 -16.5 45.999zM380.005 713.001
c0 18.667 5.66797 33.667 17.001 45s26.666 17 45.999 17c20.667 0 36.5 -5.66699 47.5 -17s16.5 -26.333 16.5 -45c0 -19.333 -5.5 -34.666 -16.5 -45.999s-26.833 -17 -47.5 -17c-20 0 -35.5 5.66699 -46.5 17s-16.5 26.666 -16.5 45.999z" />
    <glyph glyph-name="aring" unicode="&#xe5;" horiz-adv-x="712" 
d="M339 -12c-40.667 0 -79.1631 7.66797 -115.496 23.001s-68 36.5 -95 63.5s-48.333 59.167 -64 96.5s-23.5 77.666 -23.5 120.999c0 44 7.66699 84.5 23 121.5s36.5 69.167 63.5 96.5s58.667 48.666 95 63.999s75.166 23 116.499 23s81.666 -9.5 120.999 -28.5
s70.666 -45.833 93.999 -80.5v97h94v-585h-94v99c-23.333 -35.333 -54.833 -62.666 -94.5 -81.999s-79.834 -29 -120.501 -29zM348.004 76.001c30 0 58 5.66699 84 17s48.5 26.666 67.5 45.999s34 42.333 45 69s16.5 55 16.5 85s-5.5 58.167 -16.5 84.5s-26 49.333 -45 69
s-41.5 35.167 -67.5 46.5s-54 17 -84 17c-29.333 0 -56.833 -5.66699 -82.5 -17s-48 -26.833 -67 -46.5s-34 -42.667 -45 -69s-16.5 -54.5 -16.5 -84.5s5.5 -58.333 16.5 -85s26 -49.667 45 -69s41.333 -34.666 67 -45.999s53.167 -17 82.5 -17zM349.004 646.001
c-14.667 0 -28.667 2.83301 -42 8.5s-24.833 13.334 -34.5 23.001s-17.334 21.167 -23.001 34.5s-8.5 27.666 -8.5 42.999s2.83301 29.666 8.5 42.999s13.334 25 23.001 35s21.167 17.833 34.5 23.5s27.333 8.5 42 8.5c15.333 0 29.833 -2.83301 43.5 -8.5
s25.5 -13.5 35.5 -23.5s17.833 -21.667 23.5 -35s8.5 -27.666 8.5 -42.999s-2.83301 -29.666 -8.5 -42.999s-13.5 -24.833 -23.5 -34.5s-21.833 -17.334 -35.5 -23.001s-28.167 -8.5 -43.5 -8.5zM349.004 709.001c13.333 0 24.5 4.33301 33.5 13s13.5 19.667 13.5 33
c0 12.667 -4.5 23.667 -13.5 33s-20.167 14 -33.5 14c-12.667 0 -23.5 -4.66699 -32.5 -14s-13.5 -20.333 -13.5 -33c0 -13.333 4.5 -24.333 13.5 -33s19.833 -13 32.5 -13z" />
    <glyph glyph-name="ae" unicode="&#xe6;" horiz-adv-x="1094" 
d="M756 -12c-59.333 0 -111.33 12.1641 -155.997 36.4971s-80 57.166 -106 98.499c-9.33301 -17.333 -22 -34.166 -38 -50.499s-34.5 -30.666 -55.5 -42.999s-44.333 -22.333 -70 -30s-53.5 -11.5 -83.5 -11.5c-36.667 0 -68.167 4 -94.5 12s-47.833 19.333 -64.5 34
s-29 31.834 -37 51.501s-12.333 40.834 -13 63.501c0 28 5.33301 52.167 16 72.5s25.5 37.5 44.5 51.5s41.167 25.5 66.5 34.5s52.333 16.833 81 23.5l75 17c24.667 5.33301 46.667 11.5 66 18.5s34.833 15.5 46.5 25.5s17.5 23 17.5 39c0 25.333 -12 46.666 -36 63.999
s-60 26 -108 26c-54 0 -95.333 -12.833 -124 -38.5s-43 -57.834 -43 -96.501v-3h-88v2c0 32.667 5.83301 62 17.5 88s28.334 48.167 50.001 66.5s48.167 32.5 79.5 42.5s66.333 15 105 15c54 0 99.667 -8.83301 137 -26.5s64.666 -42.5 81.999 -74.5
c27.333 31.333 60.166 56 98.499 74s81.166 27 128.499 27c42.667 0 82.334 -7.16699 119.001 -21.5s68.5 -34.666 95.5 -60.999s48.167 -57.666 63.5 -93.999s23 -76.5 23 -120.5v-37h-512c3.33301 -28 11 -53.667 23 -77s27.5 -43.333 46.5 -60s41 -29.667 66 -39
s52.167 -14 81.5 -14c47.333 0 87.666 11.833 120.999 35.5s58.666 54.5 75.999 92.5l82 -38c-25.333 -54 -61.5 -96.667 -108.5 -128s-103.833 -47 -170.5 -47zM750.003 511.997c-26 0 -50.167 -4.16895 -72.5 -12.502s-42.333 -19.666 -60 -33.999
s-32.667 -31.666 -45 -51.999s-21.5 -42.5 -27.5 -66.5h409c-9.33301 52 -32 92.5 -68 121.5s-81.333 43.5 -136 43.5zM252.003 67.9951c28 0 53.5 5.00098 76.5 15.001s43.333 22.333 61 37s32.167 30.667 43.5 48s19 33.333 23 48c-4.66699 21.333 -7 45.666 -7 72.999
v16.5c0 5.66699 0.333008 11.167 1 16.5c-8 -14.667 -25.667 -26.167 -53 -34.5s-63 -17.166 -107 -26.499c-24 -4.66699 -45.5 -9.83398 -64.5 -15.501s-35.333 -12.667 -49 -21s-24 -18.333 -31 -30s-10.5 -26.167 -10.5 -43.5c0 -23.333 9 -43 27 -59s48 -24 90 -24z" />
    <glyph glyph-name="ccedilla" unicode="&#xe7;" horiz-adv-x="659" 
d="M341 -235c-29.333 0 -55.9971 5.16797 -79.9971 15.501s-45 23.833 -63 40.5l64 39c12 -10 24.167 -18.333 36.5 -25s28.166 -10 47.499 -10c18 0 33.333 3.66699 46 11s19 16.666 19 27.999c0 22.667 -22.667 34 -68 34h-43v94c-38 5.33301 -72.833 16.833 -104.5 34.5
s-59 39.667 -82 66s-40.833 56.666 -53.5 90.999s-19 70.5 -19 108.5c0 43.333 8 83.666 24 120.999s37.667 69.666 65 96.999s59.833 48.666 97.5 63.999s77.834 23 120.501 23c32 0 62.333 -4.33301 91 -13s54.667 -20.834 78 -36.501s44 -34.5 62 -56.5
s32.333 -46 43 -72l-85 -36c-17.333 39.333 -42.333 70.166 -75 92.499s-71 33.5 -115 33.5c-30 0 -57.833 -5.66699 -83.5 -17s-47.834 -26.666 -66.501 -45.999s-33.334 -42.333 -44.001 -69s-16 -55 -16 -85s5.33301 -58 16 -84s25.5 -48.833 44.5 -68.5
s41.5 -35.167 67.5 -46.5s54.333 -17 85 -17c46.667 0 86 12.667 118 38s56 57 72 95l87 -38c-22 -51.333 -54.833 -93.666 -98.5 -126.999s-96.834 -51.666 -159.501 -54.999v-42c36 0.666992 64.667 -6.66602 86 -21.999s32 -34.666 32 -57.999
c0 -15.333 -3.83301 -29.166 -11.5 -41.499s-18.167 -23 -31.5 -32s-28.833 -16 -46.5 -21s-36.5 -7.5 -56.5 -7.5z" />
    <glyph glyph-name="egrave" unicode="&#xe8;" horiz-adv-x="688" 
d="M350 -12c-46.667 0 -89.001 7.66309 -127.001 22.9961s-70.5 36.5 -97.5 63.5s-47.833 58.833 -62.5 95.5s-22 76.334 -22 119.001c0 43.333 7.66699 83.833 23 121.5s36.5 70.334 63.5 98.001s59.167 49.334 96.5 65.001s77.666 23.5 120.999 23.5
c42.667 0 82.334 -7.16699 119.001 -21.5s68.334 -34.666 95.001 -60.999s47.667 -57.666 63 -93.999s23 -76.5 23 -120.5v-40h-511c3.33301 -28 10.833 -53.333 22.5 -76s27 -42.334 46 -59.001s41 -29.5 66 -38.5s52.167 -13.5 81.5 -13.5
c46.667 0 86.5 11.167 119.5 33.5s58.167 52.5 75.5 90.5l81 -43c-26.667 -52 -62.667 -92.667 -108 -122s-101.333 -44 -168 -44zM344.999 511.996c-26 0 -50.334 -4.16602 -73.001 -12.499s-43 -19.833 -61 -34.5s-33.167 -32.334 -45.5 -53.001s-21.166 -43 -26.499 -67
h409c-8.66699 52 -30.667 92.833 -66 122.5s-81 44.5 -137 44.5zM168.998 814.997h104l117 -163h-75z" />
    <glyph glyph-name="eacute" unicode="&#xe9;" horiz-adv-x="688" 
d="M350 -12c-46.667 0 -89.001 7.66309 -127.001 22.9961s-70.5 36.5 -97.5 63.5s-47.833 58.833 -62.5 95.5s-22 76.334 -22 119.001c0 43.333 7.66699 83.833 23 121.5s36.5 70.334 63.5 98.001s59.167 49.334 96.5 65.001s77.666 23.5 120.999 23.5
c42.667 0 82.334 -7.16699 119.001 -21.5s68.334 -34.666 95.001 -60.999s47.667 -57.666 63 -93.999s23 -76.5 23 -120.5v-40h-511c3.33301 -28 10.833 -53.333 22.5 -76s27 -42.334 46 -59.001s41 -29.5 66 -38.5s52.167 -13.5 81.5 -13.5
c46.667 0 86.5 11.167 119.5 33.5s58.167 52.5 75.5 90.5l81 -43c-26.667 -52 -62.667 -92.667 -108 -122s-101.333 -44 -168 -44zM344.999 511.996c-26 0 -50.334 -4.16602 -73.001 -12.499s-43 -19.833 -61 -34.5s-33.167 -32.334 -45.5 -53.001s-21.166 -43 -26.499 -67
h409c-8.66699 52 -30.667 92.833 -66 122.5s-81 44.5 -137 44.5zM430.998 814.997h105l-146 -163h-75z" />
    <glyph glyph-name="ecircumflex" unicode="&#xea;" horiz-adv-x="688" 
d="M350 -12c-46.667 0 -89.001 7.66309 -127.001 22.9961s-70.5 36.5 -97.5 63.5s-47.833 58.833 -62.5 95.5s-22 76.334 -22 119.001c0 43.333 7.66699 83.833 23 121.5s36.5 70.334 63.5 98.001s59.167 49.334 96.5 65.001s77.666 23.5 120.999 23.5
c42.667 0 82.334 -7.16699 119.001 -21.5s68.334 -34.666 95.001 -60.999s47.667 -57.666 63 -93.999s23 -76.5 23 -120.5v-40h-511c3.33301 -28 10.833 -53.333 22.5 -76s27 -42.334 46 -59.001s41 -29.5 66 -38.5s52.167 -13.5 81.5 -13.5
c46.667 0 86.5 11.167 119.5 33.5s58.167 52.5 75.5 90.5l81 -43c-26.667 -52 -62.667 -92.667 -108 -122s-101.333 -44 -168 -44zM344.999 511.996c-26 0 -50.334 -4.16602 -73.001 -12.499s-43 -19.833 -61 -34.5s-33.167 -32.334 -45.5 -53.001s-21.166 -43 -26.499 -67
h409c-8.66699 52 -30.667 92.833 -66 122.5s-81 44.5 -137 44.5zM314.998 804.997h69l119 -163h-84l-70 98l-68 -98h-85z" />
    <glyph glyph-name="edieresis" unicode="&#xeb;" horiz-adv-x="688" 
d="M350 -12c-46.667 0 -89.001 7.66309 -127.001 22.9961s-70.5 36.5 -97.5 63.5s-47.833 58.833 -62.5 95.5s-22 76.334 -22 119.001c0 43.333 7.66699 83.833 23 121.5s36.5 70.334 63.5 98.001s59.167 49.334 96.5 65.001s77.666 23.5 120.999 23.5
c42.667 0 82.334 -7.16699 119.001 -21.5s68.334 -34.666 95.001 -60.999s47.667 -57.666 63 -93.999s23 -76.5 23 -120.5v-40h-511c3.33301 -28 10.833 -53.333 22.5 -76s27 -42.334 46 -59.001s41 -29.5 66 -38.5s52.167 -13.5 81.5 -13.5
c46.667 0 86.5 11.167 119.5 33.5s58.167 52.5 75.5 90.5l81 -43c-26.667 -52 -62.667 -92.667 -108 -122s-101.333 -44 -168 -44zM344.999 511.996c-26 0 -50.334 -4.16602 -73.001 -12.499s-43 -19.833 -61 -34.5s-33.167 -32.334 -45.5 -53.001s-21.166 -43 -26.499 -67
h409c-8.66699 52 -30.667 92.833 -66 122.5s-81 44.5 -137 44.5zM386.998 708.997c0 18.667 5.66797 33.667 17.001 45s26.666 17 45.999 17c20.667 0 36.5 -5.66699 47.5 -17s16.5 -26.333 16.5 -45c0 -19.333 -5.5 -34.666 -16.5 -45.999s-26.833 -17 -47.5 -17
c-20 0 -35.5 5.66699 -46.5 17s-16.5 26.666 -16.5 45.999zM191.999 708.997c0 18.667 5.66797 33.667 17.001 45s26.666 17 45.999 17c20.667 0 36.5 -5.66699 47.5 -17s16.5 -26.333 16.5 -45c0 -19.333 -5.5 -34.666 -16.5 -45.999s-26.833 -17 -47.5 -17
c-20 0 -35.5 5.66699 -46.5 17s-16.5 26.666 -16.5 45.999z" />
    <glyph glyph-name="igrave" unicode="&#xec;" horiz-adv-x="224" 
d="M64 585h96v-585h-96v585zM-67 805h104l117 -163h-75z" />
    <glyph glyph-name="iacute" unicode="&#xed;" horiz-adv-x="224" 
d="M191 805h105l-146 -163h-75zM64 585h96v-585h-96v585z" />
    <glyph glyph-name="icircumflex" unicode="&#xee;" horiz-adv-x="224" 
d="M64 585h96v-585h-96v585zM78 799h69l119 -163h-84l-70 98l-68 -98h-85z" />
    <glyph glyph-name="idieresis" unicode="&#xef;" horiz-adv-x="224" 
d="M177 814h96v-162h-96v162zM-48 814h96v-162h-96v162zM64 585h96v-585h-96v585z" />
    <glyph glyph-name="eth" unicode="&#xf0;" horiz-adv-x="682" 
d="M298 730l-75 60.0029c-26.667 20.667 -55.667 42 -87 64h143l44 -36l41 -35l90 71h99l-143 -114c78.667 -76.667 136 -152.5 172 -227.5s54 -150.833 54 -227.5c0 -40.667 -7.66699 -78.834 -23 -114.501s-36.166 -66.667 -62.499 -93s-57.5 -47 -93.5 -62
s-75 -22.5 -117 -22.5c-40.667 0 -78.834 7.33301 -114.501 22s-66.834 35 -93.501 61s-47.834 56.667 -63.501 92s-23.5 73.666 -23.5 114.999s7.5 79.666 22.5 114.999s35.333 66 61 92s55.834 46.333 90.501 61s71.334 22 110.001 22c36 0 66.833 -5 92.5 -15
s47.5 -23.333 65.5 -40c-16 28 -35.667 55.833 -59 83.5s-51 56.5 -83 86.5l-85 -67h-101zM341 81.0029c27.333 0 53.166 5.33301 77.499 16s45.5 25.167 63.5 43.5s32.333 39.666 43 63.999s16 50.5 16 78.5c0 27.333 -5.16699 53.333 -15.5 78s-24.333 46.167 -42 64.5
s-38.667 32.833 -63 43.5s-50.5 16 -78.5 16c-27.333 0 -53.166 -5.16699 -77.499 -15.5s-45.666 -24.666 -63.999 -42.999s-32.833 -39.833 -43.5 -64.5s-16 -51 -16 -79s5.33301 -54.333 16 -79s25.167 -46 43.5 -64s39.666 -32.333 63.999 -43s49.833 -16 76.5 -16z" />
    <glyph glyph-name="ntilde" unicode="&#xf1;" horiz-adv-x="667" 
d="M64 585l94.001 -0.000976562v-90c20 30.667 47 55.334 81 74.001s73 28 117 28c38 0 72.5 -6 103.5 -18s57.167 -29.5 78.5 -52.5s37.833 -50.833 49.5 -83.5s17.5 -69.667 17.5 -111v-332h-96v328c0 56 -14.333 100.667 -43 134s-71.334 50 -128.001 50
c-25.333 0 -49 -4.66699 -71 -14s-41 -22.333 -57 -39s-28.5 -36.5 -37.5 -59.5s-13.5 -48.167 -13.5 -75.5v-324h-95v585zM175.001 651.999c0 37.333 8.99707 67.166 26.9971 89.499s42.333 33.5 73 33.5c16.667 0 31.334 -2.66699 44.001 -8s24.667 -11.666 36 -18.999
l30.5 -18.5c9.66699 -5.66699 19.834 -8.5 30.501 -8.5c24 0 36 16.667 36 50h66c0 -38 -8.5 -68 -25.5 -90s-42.167 -33 -75.5 -33c-19.333 0 -36.166 3.5 -50.499 10.5s-27.833 14.167 -40.5 21.5l-25.5 14.5c-7.66699 4.33301 -16.167 6.5 -25.5 6.5
c-23.333 0 -35 -16.333 -35 -49h-65z" />
    <glyph glyph-name="ograve" unicode="&#xf2;" horiz-adv-x="691" 
d="M344 -12c-42 0 -81.333 7.83301 -118 23.5s-68.834 37.167 -96.501 64.5s-49.334 59.5 -65.001 96.5s-23.5 76.833 -23.5 119.5c0 43.333 7.83301 83.5 23.5 120.5s37.334 69.167 65.001 96.5s59.834 48.833 96.501 64.5s76 23.5 118 23.5s81.5 -7.83301 118.5 -23.5
s69.333 -37.167 97 -64.5s49.334 -59.5 65.001 -96.5s23.5 -77.167 23.5 -120.5c0 -42.667 -7.83301 -82.5 -23.5 -119.5s-37.334 -69.167 -65.001 -96.5s-60 -48.833 -97 -64.5s-76.5 -23.5 -118.5 -23.5zM344 76c29.333 0 56.666 5.66699 81.999 17s47.5 26.833 66.5 46.5
s33.833 42.5 44.5 68.5s16 54 16 84s-5.33301 58.167 -16 84.5s-25.5 49.333 -44.5 69s-41.167 35.167 -66.5 46.5s-52.666 17 -81.999 17c-28.667 0 -55.667 -5.66699 -81 -17s-47.333 -26.833 -66 -46.5s-33.334 -42.667 -44.001 -69s-16 -54.5 -16 -84.5
s5.33301 -58 16 -84s25.334 -48.833 44.001 -68.5s40.667 -35.167 66 -46.5s52.333 -17 81 -17zM171 815h104l117 -163h-75z" />
    <glyph glyph-name="oacute" unicode="&#xf3;" horiz-adv-x="691" 
d="M418 815h105l-146 -163h-75zM344 -12c-42 0 -81.333 7.83301 -118 23.5s-68.834 37.167 -96.501 64.5s-49.334 59.5 -65.001 96.5s-23.5 76.833 -23.5 119.5c0 43.333 7.83301 83.5 23.5 120.5s37.334 69.167 65.001 96.5s59.834 48.833 96.501 64.5s76 23.5 118 23.5
s81.5 -7.83301 118.5 -23.5s69.333 -37.167 97 -64.5s49.334 -59.5 65.001 -96.5s23.5 -77.167 23.5 -120.5c0 -42.667 -7.83301 -82.5 -23.5 -119.5s-37.334 -69.167 -65.001 -96.5s-60 -48.833 -97 -64.5s-76.5 -23.5 -118.5 -23.5zM344 76
c29.333 0 56.666 5.66699 81.999 17s47.5 26.833 66.5 46.5s33.833 42.5 44.5 68.5s16 54 16 84s-5.33301 58.167 -16 84.5s-25.5 49.333 -44.5 69s-41.167 35.167 -66.5 46.5s-52.666 17 -81.999 17c-28.667 0 -55.667 -5.66699 -81 -17s-47.333 -26.833 -66 -46.5
s-33.334 -42.667 -44.001 -69s-16 -54.5 -16 -84.5s5.33301 -58 16 -84s25.334 -48.833 44.001 -68.5s40.667 -35.167 66 -46.5s52.333 -17 81 -17z" />
    <glyph glyph-name="ocircumflex" unicode="&#xf4;" horiz-adv-x="691" 
d="M344 -12c-42 0 -81.333 7.83301 -118 23.5s-68.834 37.167 -96.501 64.5s-49.334 59.5 -65.001 96.5s-23.5 76.833 -23.5 119.5c0 43.333 7.83301 83.5 23.5 120.5s37.334 69.167 65.001 96.5s59.834 48.833 96.501 64.5s76 23.5 118 23.5s81.5 -7.83301 118.5 -23.5
s69.333 -37.167 97 -64.5s49.334 -59.5 65.001 -96.5s23.5 -77.167 23.5 -120.5c0 -42.667 -7.83301 -82.5 -23.5 -119.5s-37.334 -69.167 -65.001 -96.5s-60 -48.833 -97 -64.5s-76.5 -23.5 -118.5 -23.5zM344 76c29.333 0 56.666 5.66699 81.999 17s47.5 26.833 66.5 46.5
s33.833 42.5 44.5 68.5s16 54 16 84s-5.33301 58.167 -16 84.5s-25.5 49.333 -44.5 69s-41.167 35.167 -66.5 46.5s-52.666 17 -81.999 17c-28.667 0 -55.667 -5.66699 -81 -17s-47.333 -26.833 -66 -46.5s-33.334 -42.667 -44.001 -69s-16 -54.5 -16 -84.5
s5.33301 -58 16 -84s25.334 -48.833 44.001 -68.5s40.667 -35.167 66 -46.5s52.333 -17 81 -17zM309 815h69l119 -163h-84l-70 98l-68 -98h-85z" />
    <glyph glyph-name="otilde" unicode="&#xf5;" horiz-adv-x="691" 
d="M344 -12c-42 0 -81.333 7.83301 -118 23.5s-68.834 37.167 -96.501 64.5s-49.334 59.5 -65.001 96.5s-23.5 76.833 -23.5 119.5c0 43.333 7.83301 83.5 23.5 120.5s37.334 69.167 65.001 96.5s59.834 48.833 96.501 64.5s76 23.5 118 23.5s81.5 -7.83301 118.5 -23.5
s69.333 -37.167 97 -64.5s49.334 -59.5 65.001 -96.5s23.5 -77.167 23.5 -120.5c0 -42.667 -7.83301 -82.5 -23.5 -119.5s-37.334 -69.167 -65.001 -96.5s-60 -48.833 -97 -64.5s-76.5 -23.5 -118.5 -23.5zM344 76c29.333 0 56.666 5.66699 81.999 17s47.5 26.833 66.5 46.5
s33.833 42.5 44.5 68.5s16 54 16 84s-5.33301 58.167 -16 84.5s-25.5 49.333 -44.5 69s-41.167 35.167 -66.5 46.5s-52.666 17 -81.999 17c-28.667 0 -55.667 -5.66699 -81 -17s-47.333 -26.833 -66 -46.5s-33.334 -42.667 -44.001 -69s-16 -54.5 -16 -84.5
s5.33301 -58 16 -84s25.334 -48.833 44.001 -68.5s40.667 -35.167 66 -46.5s52.333 -17 81 -17zM183 652c0 37.333 8.99707 67.166 26.9971 89.499s42.333 33.5 73 33.5c16.667 0 31.334 -2.66699 44.001 -8s24.667 -11.666 36 -18.999l30.5 -18.5
c9.66699 -5.66699 19.834 -8.5 30.501 -8.5c24 0 36 16.667 36 50h66c0 -38 -8.5 -68 -25.5 -90s-42.167 -33 -75.5 -33c-19.333 0 -36.166 3.5 -50.499 10.5s-27.833 14.167 -40.5 21.5l-25.5 14.5c-7.66699 4.33301 -16.167 6.5 -25.5 6.5c-23.333 0 -35 -16.333 -35 -49
h-65z" />
    <glyph glyph-name="odieresis" unicode="&#xf6;" horiz-adv-x="691" 
d="M181 704c0 18.667 5.66797 33.667 17.001 45s26.666 17 45.999 17c20.667 0 36.5 -5.66699 47.5 -17s16.5 -26.333 16.5 -45c0 -19.333 -5.5 -34.666 -16.5 -45.999s-26.833 -17 -47.5 -17c-20 0 -35.5 5.66699 -46.5 17s-16.5 26.666 -16.5 45.999zM376.001 704
c0 18.667 5.66797 33.667 17.001 45s26.666 17 45.999 17c20.667 0 36.5 -5.66699 47.5 -17s16.5 -26.333 16.5 -45c0 -19.333 -5.5 -34.666 -16.5 -45.999s-26.833 -17 -47.5 -17c-20 0 -35.5 5.66699 -46.5 17s-16.5 26.666 -16.5 45.999zM344.002 -12
c-42 0 -81.333 7.83301 -118 23.5s-68.834 37.167 -96.501 64.5s-49.334 59.5 -65.001 96.5s-23.5 76.833 -23.5 119.5c0 43.333 7.83301 83.5 23.5 120.5s37.334 69.167 65.001 96.5s59.834 48.833 96.501 64.5s76 23.5 118 23.5s81.5 -7.83301 118.5 -23.5
s69.333 -37.167 97 -64.5s49.334 -59.5 65.001 -96.5s23.5 -77.167 23.5 -120.5c0 -42.667 -7.83301 -82.5 -23.5 -119.5s-37.334 -69.167 -65.001 -96.5s-60 -48.833 -97 -64.5s-76.5 -23.5 -118.5 -23.5zM344.002 76c29.333 0 56.666 5.66699 81.999 17
s47.5 26.833 66.5 46.5s33.833 42.5 44.5 68.5s16 54 16 84s-5.33301 58.167 -16 84.5s-25.5 49.333 -44.5 69s-41.167 35.167 -66.5 46.5s-52.666 17 -81.999 17c-28.667 0 -55.667 -5.66699 -81 -17s-47.333 -26.833 -66 -46.5s-33.334 -42.667 -44.001 -69
s-16 -54.5 -16 -84.5s5.33301 -58 16 -84s25.334 -48.833 44.001 -68.5s40.667 -35.167 66 -46.5s52.333 -17 81 -17z" />
    <glyph glyph-name="divide" unicode="&#xf7;" horiz-adv-x="461" 
d="M46 406h370v-82h-370v82zM191 572h81v-119h-81v119zM191 276h81v-119h-81v119z" />
    <glyph glyph-name="oslash" unicode="&#xf8;" horiz-adv-x="691" 
d="M344 -12c-28 0 -54.835 3.5 -80.502 10.5s-49.5 16.833 -71.5 29.5l-22 -28h-101l59 77c-27.333 28 -48.666 60.167 -63.999 96.5s-23 75.833 -23 118.5c0 43.333 7.83301 83.5 23.5 120.5s37.334 69.167 65.001 96.5s59.834 48.833 96.501 64.5s76 23.5 118 23.5
c28 0 54.833 -3.5 80.5 -10.5s49.834 -17.167 72.501 -30.5l22 29h102l-60 -78c27.333 -28 48.666 -60.167 63.999 -96.5s23 -75.833 23 -118.5s-7.83301 -82.5 -23.5 -119.5s-37.334 -69.167 -65.001 -96.5s-60 -48.833 -97 -64.5s-76.5 -23.5 -118.5 -23.5zM343.998 76
c29.333 0 56.8311 5.66699 82.498 17s47.834 26.833 66.501 46.5s33.334 42.5 44.001 68.5s16 54 16 84c0 27.333 -4.33301 52.833 -13 76.5s-20.667 45.167 -36 64.5l-257 -333c28 -16 60.333 -24 97 -24zM136.996 292c0 -27.333 4.16602 -52.833 12.499 -76.5
s20.166 -44.834 35.499 -63.501l256 332c-30 16.667 -62.333 25 -97 25c-29.333 0 -56.666 -5.66699 -81.999 -17s-47.166 -26.666 -65.499 -45.999s-32.833 -42.333 -43.5 -69s-16 -55 -16 -85z" />
    <glyph glyph-name="ugrave" unicode="&#xf9;" horiz-adv-x="636" 
d="M302 -12c-76.667 0 -135.834 23.333 -177.501 70s-62.5 111.667 -62.5 195v332h96v-328c0 -56 12.833 -100.667 38.5 -134s66.167 -50 121.5 -50c50 0 89 17.333 117 52s42 79.667 42 135v325h95v-585h-93v82c-17.333 -28.667 -40.666 -51.5 -69.999 -68.5
s-65 -25.5 -107 -25.5zM139 795h104l117 -163h-75z" />
    <glyph glyph-name="uacute" unicode="&#xfa;" horiz-adv-x="636" 
d="M302 -12c-76.667 0 -135.834 23.333 -177.501 70s-62.5 111.667 -62.5 195v332h96v-328c0 -56 12.833 -100.667 38.5 -134s66.167 -50 121.5 -50c50 0 89 17.333 117 52s42 79.667 42 135v325h95v-585h-93v82c-17.333 -28.667 -40.666 -51.5 -69.999 -68.5
s-65 -25.5 -107 -25.5zM384 784h105l-146 -163h-75z" />
    <glyph glyph-name="ucircumflex" unicode="&#xfb;" horiz-adv-x="636" 
d="M302 -12c-76.667 0 -135.834 23.333 -177.501 70s-62.5 111.667 -62.5 195v332h96v-328c0 -56 12.833 -100.667 38.5 -134s66.167 -50 121.5 -50c50 0 89 17.333 117 52s42 79.667 42 135v325h95v-585h-93v82c-17.333 -28.667 -40.666 -51.5 -69.999 -68.5
s-65 -25.5 -107 -25.5zM286 805h69l119 -163h-84l-70 98l-68 -98h-85z" />
    <glyph glyph-name="udieresis" unicode="&#xfc;" horiz-adv-x="636" 
d="M302 -12c-76.667 0 -135.834 23.333 -177.501 70s-62.5 111.667 -62.5 195v332h96v-328c0 -56 12.833 -100.667 38.5 -134s66.167 -50 121.5 -50c50 0 89 17.333 117 52s42 79.667 42 135v325h95v-585h-93v82c-17.333 -28.667 -40.666 -51.5 -69.999 -68.5
s-65 -25.5 -107 -25.5zM346 702c0 18.667 5.66797 33.667 17.001 45s26.666 17 45.999 17c20.667 0 36.5 -5.66699 47.5 -17s16.5 -26.333 16.5 -45c0 -19.333 -5.5 -34.666 -16.5 -45.999s-26.833 -17 -47.5 -17c-20 0 -35.5 5.66699 -46.5 17s-16.5 26.666 -16.5 45.999z
M151.001 702c0 18.667 5.66797 33.667 17.001 45s26.666 17 45.999 17c20.667 0 36.5 -5.66699 47.5 -17s16.5 -26.333 16.5 -45c0 -19.333 -5.5 -34.666 -16.5 -45.999s-26.833 -17 -47.5 -17c-20 0 -35.5 5.66699 -46.5 17s-16.5 26.666 -16.5 45.999z" />
    <glyph glyph-name="yacute" unicode="&#xfd;" horiz-adv-x="635" 
d="M276 31l-252 554h104l197 -443l183 443h102l-366 -855h-100zM381 781h105l-146 -163h-75z" />
    <glyph glyph-name="thorn" unicode="&#xfe;" horiz-adv-x="710" 
d="M373 -12c-46.667 0 -88.667 9.99902 -126 29.999s-67.333 46 -90 78v-365h-92v1123h92v-368c23.333 32.667 54 59.334 92 80.001s80 31 126 31c41.333 0 80 -7.5 116 -22.5s67.333 -36 94 -63s47.5 -58.833 62.5 -95.5s22.5 -77 22.5 -121s-7.66699 -84.667 -23 -122
s-36.5 -69.833 -63.5 -97.5s-58.5 -49.167 -94.5 -64.5s-74.667 -23 -116 -23zM365 75.999c30.667 0 58.8311 5.83301 84.498 17.5s47.834 27.5 66.501 47.5s33.167 43.167 43.5 69.5s15.5 54.5 15.5 84.5c0 29.333 -5 57 -15 83s-24.333 48.833 -43 68.5
s-40.667 35.167 -66 46.5s-53.666 17 -84.999 17c-30 0 -58 -5.66699 -84 -17s-48.5 -26.833 -67.5 -46.5s-34 -42.667 -45 -69s-16.5 -54.5 -16.5 -84.5c0 -29.333 5.5 -57.166 16.5 -83.499s26 -49.333 45 -69s41.5 -35.334 67.5 -47.001s53.667 -17.5 83 -17.5z" />
    <glyph glyph-name="ydieresis" unicode="&#xff;" horiz-adv-x="635" 
d="M276 31l-252 554h104l197 -443l183 443h102l-366 -855h-100zM359 694c0 18.667 5.66797 33.667 17.001 45s26.666 17 45.999 17c20.667 0 36.5 -5.66699 47.5 -17s16.5 -26.333 16.5 -45c0 -19.333 -5.5 -34.666 -16.5 -45.999s-26.833 -17 -47.5 -17
c-20 0 -35.5 5.66699 -46.5 17s-16.5 26.666 -16.5 45.999zM164.001 694c0 18.667 5.66797 33.667 17.001 45s26.666 17 45.999 17c20.667 0 36.5 -5.66699 47.5 -17s16.5 -26.333 16.5 -45c0 -19.333 -5.5 -34.666 -16.5 -45.999s-26.833 -17 -47.5 -17
c-20 0 -35.5 5.66699 -46.5 17s-16.5 26.666 -16.5 45.999z" />
    <glyph glyph-name="Amacron" unicode="&#x100;" horiz-adv-x="696" 
d="M298 730h101l270 -730h-101l-62 167h-316l-61 -167h-102zM224 260h248l-124 337zM214 857h264v-70h-264v70z" />
    <glyph glyph-name="amacron" unicode="&#x101;" horiz-adv-x="712" 
d="M339 -12c-40.667 0 -79.1631 7.66797 -115.496 23.001s-68 36.5 -95 63.5s-48.333 59.167 -64 96.5s-23.5 77.666 -23.5 120.999c0 44 7.66699 84.5 23 121.5s36.5 69.167 63.5 96.5s58.667 48.666 95 63.999s75.166 23 116.499 23s81.666 -9.5 120.999 -28.5
s70.666 -45.833 93.999 -80.5v97h94v-585h-94v99c-23.333 -35.333 -54.833 -62.666 -94.5 -81.999s-79.834 -29 -120.501 -29zM348.004 76.001c30 0 58 5.66699 84 17s48.5 26.666 67.5 45.999s34 42.333 45 69s16.5 55 16.5 85s-5.5 58.167 -16.5 84.5s-26 49.333 -45 69
s-41.5 35.167 -67.5 46.5s-54 17 -84 17c-29.333 0 -56.833 -5.66699 -82.5 -17s-48 -26.833 -67 -46.5s-34 -42.667 -45 -69s-16.5 -54.5 -16.5 -84.5s5.5 -58.333 16.5 -85s26 -49.667 45 -69s41.333 -34.666 67 -45.999s53.167 -17 82.5 -17zM215.004 723.001h264v-70
h-264v70z" />
    <glyph glyph-name="Abreve" unicode="&#x102;" horiz-adv-x="696" 
d="M298 730h101l270 -730h-101l-62 167h-316l-61 -167h-102zM224 260h248l-124 337zM344 782c-27.333 0 -51.1689 4.33301 -71.502 13s-37.166 20.334 -50.499 35.001s-23.166 32 -29.499 52s-9.5 41.333 -9.5 64h70c0 -32 7.66699 -57 23 -75s38 -27.333 68 -28
c29.333 0.666992 51.833 10 67.5 28s23.5 43 23.5 75h71c0 -22.667 -3.66699 -44 -11 -64s-18 -37.333 -32 -52s-31 -26.334 -51 -35.001s-42.667 -13 -68 -13z" />
    <glyph glyph-name="abreve" unicode="&#x103;" horiz-adv-x="712" 
d="M339 -12c-40.667 0 -79.1631 7.66797 -115.496 23.001s-68 36.5 -95 63.5s-48.333 59.167 -64 96.5s-23.5 77.666 -23.5 120.999c0 44 7.66699 84.5 23 121.5s36.5 69.167 63.5 96.5s58.667 48.666 95 63.999s75.166 23 116.499 23s81.666 -9.5 120.999 -28.5
s70.666 -45.833 93.999 -80.5v97h94v-585h-94v99c-23.333 -35.333 -54.833 -62.666 -94.5 -81.999s-79.834 -29 -120.501 -29zM348.004 76.001c30 0 58 5.66699 84 17s48.5 26.666 67.5 45.999s34 42.333 45 69s16.5 55 16.5 85s-5.5 58.167 -16.5 84.5s-26 49.333 -45 69
s-41.5 35.167 -67.5 46.5s-54 17 -84 17c-29.333 0 -56.833 -5.66699 -82.5 -17s-48 -26.833 -67 -46.5s-34 -42.667 -45 -69s-16.5 -54.5 -16.5 -84.5s5.5 -58.333 16.5 -85s26 -49.667 45 -69s41.333 -34.666 67 -45.999s53.167 -17 82.5 -17zM347.004 647.001
c-27.333 0 -51.1689 4.33301 -71.502 13s-37.166 20.334 -50.499 35.001s-23.166 32 -29.499 52s-9.5 41.333 -9.5 64h70c0 -32 7.66699 -57 23 -75s38 -27.333 68 -28c29.333 0.666992 51.833 10 67.5 28s23.5 43 23.5 75h71c0 -22.667 -3.66699 -44 -11 -64
s-18 -37.333 -32 -52s-31 -26.334 -51 -35.001s-42.667 -13 -68 -13z" />
    <glyph glyph-name="Aogonek" unicode="&#x104;" horiz-adv-x="696" 
d="M597 -219c-41.333 0 -74.502 9.83203 -99.502 29.499s-37.5 44.167 -37.5 73.5c0 22 7.16699 43.333 21.5 64s41.5 42.334 81.5 65.001l-57 154h-316l-61 -167h-102l271 730h101l270 -730h-3l2 -1l-62.5 -40c-16.333 -10.667 -29.166 -20.167 -38.499 -28.5
s-15.666 -15.833 -18.999 -22.5s-5 -13.667 -5 -21c0 -12.667 5.16699 -22.167 15.5 -28.5s23.166 -9.5 38.499 -9.5s28.5 3.16699 39.5 9.5s21.5 14.166 31.5 23.499l65 -44c-17.333 -15.333 -38.166 -28.666 -62.499 -39.999s-48.833 -17 -73.5 -17zM223.998 259.999h248
l-124 337z" />
    <glyph glyph-name="aogonek" unicode="&#x105;" horiz-adv-x="712" 
d="M339 -12c-40.667 0 -79.1621 7.66602 -115.495 22.999s-68 36.5 -95 63.5s-48.333 59.167 -64 96.5s-23.5 77.666 -23.5 120.999c0 44 7.66699 84.5 23 121.5s36.5 69.167 63.5 96.5s58.667 48.666 95 63.999s75.166 23 116.499 23s81.666 -9.5 120.999 -28.5
s70.666 -45.833 93.999 -80.5v97h94v-585c-31.333 -22.667 -54 -43 -68 -61s-21 -34.333 -21 -49c0 -13.333 4.33301 -23.833 13 -31.5s19.667 -11.5 33 -11.5s24.666 2.83301 33.999 8.5s18.333 12.834 27 21.501l55 -52c-15.333 -13.333 -33 -24.666 -53 -33.999
s-41.667 -14 -65 -14c-40 0 -70.5 10.667 -91.5 32s-31.833 46.666 -32.5 75.999c-0.666992 24 5.83301 46.333 19.5 67s32.167 40.334 55.5 59.001v88c-23.333 -35.333 -54.833 -62.666 -94.5 -81.999s-79.834 -29 -120.501 -29zM348.005 75.999c30 0 58 5.66699 84 17
s48.5 26.666 67.5 45.999s34 42.333 45 69s16.5 55 16.5 85s-5.5 58.167 -16.5 84.5s-26 49.333 -45 69s-41.5 35.167 -67.5 46.5s-54 17 -84 17c-29.333 0 -56.833 -5.66699 -82.5 -17s-48 -26.833 -67 -46.5s-34 -42.667 -45 -69s-16.5 -54.5 -16.5 -84.5
s5.5 -58.333 16.5 -85s26 -49.667 45 -69s41.333 -34.666 67 -45.999s53.167 -17 82.5 -17z" />
    <glyph glyph-name="Cacute" unicode="&#x106;" horiz-adv-x="769" 
d="M487 950h105l-146 -163h-75zM414 -10c-53.333 0 -102.841 9.83496 -148.508 29.502s-85.334 46.5 -119.001 80.5s-60 73.667 -79 119s-28.5 94 -28.5 146c0 53.333 9.83301 102.833 29.5 148.5s46.334 85.167 80.001 118.5s73.334 59.666 119.001 78.999
s94.5 29 146.5 29c34.667 0 67.834 -4.5 99.501 -13.5s61.334 -21.5 89.001 -37.5s53 -35.333 76 -58s42.5 -47.667 58.5 -75l-85 -52c-23.333 43.333 -55.333 78 -96 104s-88 39 -142 39c-39.333 0 -76 -7.33301 -110 -22s-63.333 -34.834 -88 -60.501s-44 -55.5 -58 -89.5
s-21 -70.667 -21 -110c0 -38.667 7 -75 21 -109s33.333 -63.667 58 -89s53.834 -45.333 87.501 -60s70.167 -22 109.5 -22c58.667 0 108.834 14.167 150.501 42.5s73.834 65.5 96.501 111.5l87 -46c-16 -30 -35.333 -57.5 -58 -82.5s-48.167 -46.5 -76.5 -64.5
s-59.166 -31.833 -92.499 -41.5s-68.666 -14.5 -105.999 -14.5z" />
    <glyph glyph-name="cacute" unicode="&#x107;" horiz-adv-x="659" 
d="M419 815h105l-146 -163h-75zM348 -12c-44 0 -84.665 8.00293 -121.998 24.0029s-69.833 37.667 -97.5 65s-49.167 59.5 -64.5 96.5s-23 76.5 -23 118.5c0 43.333 8 83.666 24 120.999s37.667 69.666 65 96.999s59.833 48.666 97.5 63.999s77.834 23 120.501 23
c32 0 62.333 -4.33301 91 -13s54.667 -20.834 78 -36.501s44 -34.5 62 -56.5s32.333 -46 43 -72l-85 -36c-17.333 39.333 -42.333 70.166 -75 92.499s-71 33.5 -115 33.5c-30 0 -57.833 -5.66699 -83.5 -17s-47.834 -26.666 -66.501 -45.999s-33.334 -42.333 -44.001 -69
s-16 -55 -16 -85s5.33301 -58 16 -84s25.5 -48.833 44.5 -68.5s41.5 -35.167 67.5 -46.5s54.333 -17 85 -17c46.667 0 86 12.667 118 38s56 57 72 95l87 -38c-11.333 -26.667 -25.833 -51.167 -43.5 -73.5s-38.334 -41.666 -62.001 -57.999s-50 -29 -79 -38
s-60.5 -13.5 -94.5 -13.5z" />
    <glyph glyph-name="Ccircumflex" unicode="&#x108;" horiz-adv-x="769" 
d="M414 -10c-53.333 0 -102.841 9.83496 -148.508 29.502s-85.334 46.5 -119.001 80.5s-60 73.667 -79 119s-28.5 94 -28.5 146c0 53.333 9.83301 102.833 29.5 148.5s46.334 85.167 80.001 118.5s73.334 59.666 119.001 78.999s94.5 29 146.5 29
c34.667 0 67.834 -4.5 99.501 -13.5s61.334 -21.5 89.001 -37.5s53 -35.333 76 -58s42.5 -47.667 58.5 -75l-85 -52c-23.333 43.333 -55.333 78 -96 104s-88 39 -142 39c-39.333 0 -76 -7.33301 -110 -22s-63.333 -34.834 -88 -60.501s-44 -55.5 -58 -89.5
s-21 -70.667 -21 -110c0 -38.667 7 -75 21 -109s33.333 -63.667 58 -89s53.834 -45.333 87.501 -60s70.167 -22 109.5 -22c58.667 0 108.834 14.167 150.501 42.5s73.834 65.5 96.501 111.5l87 -46c-16 -30 -35.333 -57.5 -58 -82.5s-48.167 -46.5 -76.5 -64.5
s-59.166 -31.833 -92.499 -41.5s-68.666 -14.5 -105.999 -14.5zM379.992 950.002h69l119 -163h-84l-70 98l-68 -98h-85z" />
    <glyph glyph-name="ccircumflex" unicode="&#x109;" horiz-adv-x="659" 
d="M348 -12c-44 0 -84.665 8.00293 -121.998 24.0029s-69.833 37.667 -97.5 65s-49.167 59.5 -64.5 96.5s-23 76.5 -23 118.5c0 43.333 8 83.666 24 120.999s37.667 69.666 65 96.999s59.833 48.666 97.5 63.999s77.834 23 120.501 23c32 0 62.333 -4.33301 91 -13
s54.667 -20.834 78 -36.501s44 -34.5 62 -56.5s32.333 -46 43 -72l-85 -36c-17.333 39.333 -42.333 70.166 -75 92.499s-71 33.5 -115 33.5c-30 0 -57.833 -5.66699 -83.5 -17s-47.834 -26.666 -66.501 -45.999s-33.334 -42.333 -44.001 -69s-16 -55 -16 -85
s5.33301 -58 16 -84s25.5 -48.833 44.5 -68.5s41.5 -35.167 67.5 -46.5s54.333 -17 85 -17c46.667 0 86 12.667 118 38s56 57 72 95l87 -38c-11.333 -26.667 -25.833 -51.167 -43.5 -73.5s-38.334 -41.666 -62.001 -57.999s-50 -29 -79 -38s-60.5 -13.5 -94.5 -13.5z
M318.002 811.003h69l119 -163h-84l-70 98l-68 -98h-85z" />
    <glyph glyph-name="Cdotaccent" unicode="&#x10a;" horiz-adv-x="769" 
d="M414 -10c-53.333 0 -102.841 9.83496 -148.508 29.502s-85.334 46.5 -119.001 80.5s-60 73.667 -79 119s-28.5 94 -28.5 146c0 53.333 9.83301 102.833 29.5 148.5s46.334 85.167 80.001 118.5s73.334 59.666 119.001 78.999s94.5 29 146.5 29
c34.667 0 67.834 -4.5 99.501 -13.5s61.334 -21.5 89.001 -37.5s53 -35.333 76 -58s42.5 -47.667 58.5 -75l-85 -52c-23.333 43.333 -55.333 78 -96 104s-88 39 -142 39c-39.333 0 -76 -7.33301 -110 -22s-63.333 -34.834 -88 -60.501s-44 -55.5 -58 -89.5
s-21 -70.667 -21 -110c0 -38.667 7 -75 21 -109s33.333 -63.667 58 -89s53.834 -45.333 87.501 -60s70.167 -22 109.5 -22c58.667 0 108.834 14.167 150.501 42.5s73.834 65.5 96.501 111.5l87 -46c-16 -30 -35.333 -57.5 -58 -82.5s-48.167 -46.5 -76.5 -64.5
s-59.166 -31.833 -92.499 -41.5s-68.666 -14.5 -105.999 -14.5zM355.992 861.002c0 19.333 6 34.833 18 46.5s27.667 17.5 47 17.5c21.333 0 37.666 -5.83301 48.999 -17.5s17 -27.167 17 -46.5s-5.66699 -35 -17 -47s-27.666 -18 -48.999 -18c-20.667 0 -36.667 6 -48 18
s-17 27.667 -17 47z" />
    <glyph glyph-name="cdotaccent" unicode="&#x10b;" horiz-adv-x="659" 
d="M348 -12c-44 0 -84.665 8.00293 -121.998 24.0029s-69.833 37.667 -97.5 65s-49.167 59.5 -64.5 96.5s-23 76.5 -23 118.5c0 43.333 8 83.666 24 120.999s37.667 69.666 65 96.999s59.833 48.666 97.5 63.999s77.834 23 120.501 23c32 0 62.333 -4.33301 91 -13
s54.667 -20.834 78 -36.501s44 -34.5 62 -56.5s32.333 -46 43 -72l-85 -36c-17.333 39.333 -42.333 70.166 -75 92.499s-71 33.5 -115 33.5c-30 0 -57.833 -5.66699 -83.5 -17s-47.834 -26.666 -66.501 -45.999s-33.334 -42.333 -44.001 -69s-16 -55 -16 -85
s5.33301 -58 16 -84s25.5 -48.833 44.5 -68.5s41.5 -35.167 67.5 -46.5s54.333 -17 85 -17c46.667 0 86 12.667 118 38s56 57 72 95l87 -38c-11.333 -26.667 -25.833 -51.167 -43.5 -73.5s-38.334 -41.666 -62.001 -57.999s-50 -29 -79 -38s-60.5 -13.5 -94.5 -13.5z
M283.002 715.003c0 19.333 6 34.833 18 46.5s27.667 17.5 47 17.5c21.333 0 37.666 -5.83301 48.999 -17.5s17 -27.167 17 -46.5s-5.66699 -35 -17 -47s-27.666 -18 -48.999 -18c-20.667 0 -36.667 6 -48 18s-17 27.667 -17 47z" />
    <glyph glyph-name="Ccaron" unicode="&#x10c;" horiz-adv-x="769" 
d="M414 -10c-53.333 0 -102.841 9.83496 -148.508 29.502s-85.334 46.5 -119.001 80.5s-60 73.667 -79 119s-28.5 94 -28.5 146c0 53.333 9.83301 102.833 29.5 148.5s46.334 85.167 80.001 118.5s73.334 59.666 119.001 78.999s94.5 29 146.5 29
c34.667 0 67.834 -4.5 99.501 -13.5s61.334 -21.5 89.001 -37.5s53 -35.333 76 -58s42.5 -47.667 58.5 -75l-85 -52c-23.333 43.333 -55.333 78 -96 104s-88 39 -142 39c-39.333 0 -76 -7.33301 -110 -22s-63.333 -34.834 -88 -60.501s-44 -55.5 -58 -89.5
s-21 -70.667 -21 -110c0 -38.667 7 -75 21 -109s33.333 -63.667 58 -89s53.834 -45.333 87.501 -60s70.167 -22 109.5 -22c58.667 0 108.834 14.167 150.501 42.5s73.834 65.5 96.501 111.5l87 -46c-16 -30 -35.333 -57.5 -58 -82.5s-48.167 -46.5 -76.5 -64.5
s-59.166 -31.833 -92.499 -41.5s-68.666 -14.5 -105.999 -14.5zM257.992 950.002h85l68 -98l70 98h84l-119 -163h-69z" />
    <glyph glyph-name="ccaron" unicode="&#x10d;" horiz-adv-x="659" 
d="M348 -12c-44 0 -84.665 8.00293 -121.998 24.0029s-69.833 37.667 -97.5 65s-49.167 59.5 -64.5 96.5s-23 76.5 -23 118.5c0 43.333 8 83.666 24 120.999s37.667 69.666 65 96.999s59.833 48.666 97.5 63.999s77.834 23 120.501 23c32 0 62.333 -4.33301 91 -13
s54.667 -20.834 78 -36.501s44 -34.5 62 -56.5s32.333 -46 43 -72l-85 -36c-17.333 39.333 -42.333 70.166 -75 92.499s-71 33.5 -115 33.5c-30 0 -57.833 -5.66699 -83.5 -17s-47.834 -26.666 -66.501 -45.999s-33.334 -42.333 -44.001 -69s-16 -55 -16 -85
s5.33301 -58 16 -84s25.5 -48.833 44.5 -68.5s41.5 -35.167 67.5 -46.5s54.333 -17 85 -17c46.667 0 86 12.667 118 38s56 57 72 95l87 -38c-11.333 -26.667 -25.833 -51.167 -43.5 -73.5s-38.334 -41.666 -62.001 -57.999s-50 -29 -79 -38s-60.5 -13.5 -94.5 -13.5z
M198.002 815.003h85l68 -98l70 98h84l-119 -163h-69z" />
    <glyph glyph-name="Dcaron" unicode="&#x10e;" horiz-adv-x="684" 
d="M60 730l203 0.000976562c58 0 110.667 -9.33301 158 -28s87.5 -44.334 120.5 -77.001s58.5 -71.167 76.5 -115.5s27 -92.5 27 -144.5s-9.5 -100.333 -28.5 -145s-45.333 -83.167 -79 -115.5s-73.667 -57.833 -120 -76.5s-96.5 -28 -150.5 -28h-207v730zM156 641.001
l0.000976562 -551.003h101c43.333 0 82.666 7 117.999 21s65.833 33.333 91.5 58s45.5 53.834 59.5 87.501s21 69.834 21 108.501c0 39.333 -6.66699 75.833 -20 109.5s-32.5 62.834 -57.5 87.501s-55.667 44 -92 58s-77.5 21 -123.5 21h-98zM130.001 949.998h85l68 -98
l70 98h84l-119 -163h-69z" />
    <glyph glyph-name="dcaron" unicode="&#x10f;" horiz-adv-x="761" 
d="M339 -12c-40.667 0 -79.1641 7.66895 -115.497 23.002s-68 36.5 -95 63.5s-48.333 59.167 -64 96.5s-23.5 77.666 -23.5 120.999c0 44 7.66699 84.5 23 121.5s36.5 69.167 63.5 96.5s58.667 48.666 95 63.999s75.166 23 116.499 23c40.667 0 80.667 -9.33301 120 -28
s70.666 -45.334 93.999 -80.001v251h94v-740h-93v99c-23.333 -35.333 -54.833 -62.666 -94.5 -81.999s-79.834 -29 -120.501 -29zM348.003 76.002c30 0 58 5.66699 84 17s48.5 26.666 67.5 45.999s34 42.333 45 69s16.5 55 16.5 85s-5.5 58.167 -16.5 84.5
s-26 49.333 -45 69s-41.5 35.167 -67.5 46.5s-54 17 -84 17c-29.333 0 -56.833 -5.66699 -82.5 -17s-48 -26.833 -67 -46.5s-34 -42.667 -45 -69s-16.5 -54.5 -16.5 -84.5s5.5 -58.333 16.5 -85s26 -49.667 45 -69s41.333 -34.666 67 -45.999s53.167 -17 82.5 -17z
M725.003 741.002h82l-56 -176h-62z" />
    <glyph glyph-name="Dcroat" unicode="&#x110;" horiz-adv-x="717" 
d="M22 411l73 0.000976562v319h201c58 0 110.667 -9.33301 158 -28s87.5 -44.334 120.5 -77.001s58.5 -71.167 76.5 -115.5s27 -92.5 27 -144.5s-9.5 -100.333 -28.5 -145s-45.333 -83.167 -79 -115.5s-73.667 -57.833 -120 -76.5s-96.5 -28 -150.5 -28h-205v323h-73v88z
M192 641.001l-0.00195312 -230.003h198v-88h-198v-233h97c43.333 0 82.833 7 118.5 21s66.334 33.333 92.001 58s45.667 53.834 60 87.501s21.5 69.834 21.5 108.501c0 39.333 -6.66699 75.833 -20 109.5s-32.666 62.834 -57.999 87.501s-56.333 44 -93 58s-78 21 -124 21
h-94z" />
    <glyph glyph-name="dcroat" unicode="&#x111;" horiz-adv-x="715" 
d="M456 679l97.0029 0.00195312v61h94v-61h68v-69h-68v-610h-93v99c-23.333 -35.333 -54.833 -62.666 -94.5 -81.999s-79.834 -29 -120.501 -29s-79.167 7.66699 -115.5 23s-68 36.5 -95 63.5s-48.333 59.167 -64 96.5s-23.5 77.666 -23.5 120.999
c0 44 7.66699 84.5 23 121.5s36.5 69.167 63.5 96.5s58.667 48.666 95 63.999s75.166 23 116.499 23c40.667 0 80.667 -9.33301 120 -28s70.666 -45.334 93.999 -80.001v121h-97v69zM348.003 76.002c30 0 58 5.66699 84 17s48.5 26.666 67.5 45.999s34 42.333 45 69
s16.5 55 16.5 85s-5.5 58.167 -16.5 84.5s-26 49.333 -45 69s-41.5 35.167 -67.5 46.5s-54 17 -84 17c-29.333 0 -56.833 -5.66699 -82.5 -17s-48 -26.833 -67 -46.5s-34 -42.667 -45 -69s-16.5 -54.5 -16.5 -84.5s5.5 -58.333 16.5 -85s26 -49.667 45 -69
s41.333 -34.666 67 -45.999s53.167 -17 82.5 -17z" />
    <glyph glyph-name="Emacron" unicode="&#x112;" horiz-adv-x="551" 
d="M60 730h440v-92h-344v-226h344v-92h-344v-227h344v-93h-440v730zM145 857h264v-70h-264v70z" />
    <glyph glyph-name="emacron" unicode="&#x113;" horiz-adv-x="688" 
d="M350 -12c-46.667 0 -89.001 7.66309 -127.001 22.9961s-70.5 36.5 -97.5 63.5s-47.833 58.833 -62.5 95.5s-22 76.334 -22 119.001c0 43.333 7.66699 83.833 23 121.5s36.5 70.334 63.5 98.001s59.167 49.334 96.5 65.001s77.666 23.5 120.999 23.5
c42.667 0 82.334 -7.16699 119.001 -21.5s68.334 -34.666 95.001 -60.999s47.667 -57.666 63 -93.999s23 -76.5 23 -120.5v-40h-511c3.33301 -28 10.833 -53.333 22.5 -76s27 -42.334 46 -59.001s41 -29.5 66 -38.5s52.167 -13.5 81.5 -13.5
c46.667 0 86.5 11.167 119.5 33.5s58.167 52.5 75.5 90.5l81 -43c-26.667 -52 -62.667 -92.667 -108 -122s-101.333 -44 -168 -44zM344.999 511.996c-26 0 -50.334 -4.16602 -73.001 -12.499s-43 -19.833 -61 -34.5s-33.167 -32.334 -45.5 -53.001s-21.166 -43 -26.499 -67
h409c-8.66699 52 -30.667 92.833 -66 122.5s-81 44.5 -137 44.5zM218.998 723.997h264v-70h-264v70z" />
    <glyph glyph-name="Ebreve" unicode="&#x114;" horiz-adv-x="551" 
d="M60 730h440v-92h-344v-226h344v-92h-344v-227h344v-93h-440v730zM280 782c-27.333 0 -51.1689 4.33301 -71.502 13s-37.166 20.334 -50.499 35.001s-23.166 32 -29.499 52s-9.5 41.333 -9.5 64h70c0 -32 7.66699 -57 23 -75s38 -27.333 68 -28
c29.333 0.666992 51.833 10 67.5 28s23.5 43 23.5 75h71c0 -22.667 -3.66699 -44 -11 -64s-18 -37.333 -32 -52s-31 -26.334 -51 -35.001s-42.667 -13 -68 -13z" />
    <glyph glyph-name="ebreve" unicode="&#x115;" horiz-adv-x="688" 
d="M350 -12c-46.667 0 -89.001 7.66309 -127.001 22.9961s-70.5 36.5 -97.5 63.5s-47.833 58.833 -62.5 95.5s-22 76.334 -22 119.001c0 43.333 7.66699 83.833 23 121.5s36.5 70.334 63.5 98.001s59.167 49.334 96.5 65.001s77.666 23.5 120.999 23.5
c42.667 0 82.334 -7.16699 119.001 -21.5s68.334 -34.666 95.001 -60.999s47.667 -57.666 63 -93.999s23 -76.5 23 -120.5v-40h-511c3.33301 -28 10.833 -53.333 22.5 -76s27 -42.334 46 -59.001s41 -29.5 66 -38.5s52.167 -13.5 81.5 -13.5
c46.667 0 86.5 11.167 119.5 33.5s58.167 52.5 75.5 90.5l81 -43c-26.667 -52 -62.667 -92.667 -108 -122s-101.333 -44 -168 -44zM344.999 511.996c-26 0 -50.334 -4.16602 -73.001 -12.499s-43 -19.833 -61 -34.5s-33.167 -32.334 -45.5 -53.001s-21.166 -43 -26.499 -67
h409c-8.66699 52 -30.667 92.833 -66 122.5s-81 44.5 -137 44.5zM349.998 646.997c-27.333 0 -51.1689 4.33301 -71.502 13s-37.166 20.334 -50.499 35.001s-23.166 32 -29.499 52s-9.5 41.333 -9.5 64h70c0 -32 7.66699 -57 23 -75s38 -27.333 68 -28
c29.333 0.666992 51.833 10 67.5 28s23.5 43 23.5 75h71c0 -22.667 -3.66699 -44 -11 -64s-18 -37.333 -32 -52s-31 -26.334 -51 -35.001s-42.667 -13 -68 -13z" />
    <glyph glyph-name="Edotaccent" unicode="&#x116;" horiz-adv-x="551" 
d="M60 730h440v-92h-344v-226h344v-92h-344v-227h344v-93h-440v730zM227 861c0 19.333 6 34.833 18 46.5s27.667 17.5 47 17.5c21.333 0 37.666 -5.83301 48.999 -17.5s17 -27.167 17 -46.5s-5.66699 -35 -17 -47s-27.666 -18 -48.999 -18c-20.667 0 -36.667 6 -48 18
s-17 27.667 -17 47z" />
    <glyph glyph-name="edotaccent" unicode="&#x117;" horiz-adv-x="688" 
d="M350 -12c-46.667 0 -89.001 7.66309 -127.001 22.9961s-70.5 36.5 -97.5 63.5s-47.833 58.833 -62.5 95.5s-22 76.334 -22 119.001c0 43.333 7.66699 83.833 23 121.5s36.5 70.334 63.5 98.001s59.167 49.334 96.5 65.001s77.666 23.5 120.999 23.5
c42.667 0 82.334 -7.16699 119.001 -21.5s68.334 -34.666 95.001 -60.999s47.667 -57.666 63 -93.999s23 -76.5 23 -120.5v-40h-511c3.33301 -28 10.833 -53.333 22.5 -76s27 -42.334 46 -59.001s41 -29.5 66 -38.5s52.167 -13.5 81.5 -13.5
c46.667 0 86.5 11.167 119.5 33.5s58.167 52.5 75.5 90.5l81 -43c-26.667 -52 -62.667 -92.667 -108 -122s-101.333 -44 -168 -44zM344.999 511.996c-26 0 -50.334 -4.16602 -73.001 -12.499s-43 -19.833 -61 -34.5s-33.167 -32.334 -45.5 -53.001s-21.166 -43 -26.499 -67
h409c-8.66699 52 -30.667 92.833 -66 122.5s-81 44.5 -137 44.5zM282.998 712.997c0 19.333 6 34.833 18 46.5s27.667 17.5 47 17.5c21.333 0 37.666 -5.83301 48.999 -17.5s17 -27.167 17 -46.5s-5.66699 -35 -17 -47s-27.666 -18 -48.999 -18c-20.667 0 -36.667 6 -48 18
s-17 27.667 -17 47z" />
    <glyph glyph-name="Eogonek" unicode="&#x118;" horiz-adv-x="551" 
d="M60 730h439.997v-92h-344v-226h344v-92h-344v-227h344v-93h-2l2 -1l-62.5 -40c-16.333 -10.667 -29.166 -20.167 -38.499 -28.5s-15.666 -15.833 -18.999 -22.5s-5 -13.667 -5 -21c0 -12.667 5.16699 -22.167 15.5 -28.5s23.166 -9.5 38.499 -9.5s28.5 3.16699 39.5 9.5
s21.5 14.166 31.5 23.499l65 -44c-17.333 -15.333 -38.166 -28.666 -62.499 -39.999s-48.833 -17 -73.5 -17c-41.333 0 -74.5 9.83301 -99.5 29.5s-37.5 44.167 -37.5 73.5c0 19.333 5.83301 38.5 17.5 57.5s32.834 38.5 63.501 58.5h-313v730z" />
    <glyph glyph-name="eogonek" unicode="&#x119;" horiz-adv-x="688" 
d="M360 -219c-41.333 0 -74.501 9.82617 -99.501 29.4932s-37.5 44.167 -37.5 73.5c0 18.667 5 36.834 15 54.501s28.333 35.834 55 54.501c-38.667 6 -73.5 17.5 -104.5 34.5s-57.5 38.5 -79.5 64.5s-38.833 55.833 -50.5 89.5s-17.5 69.5 -17.5 107.5
c0 43.333 7.66699 83.833 23 121.5s36.5 70.334 63.5 98.001s59.167 49.334 96.5 65.001s77.666 23.5 120.999 23.5c42.667 0 82.334 -7.16699 119.001 -21.5s68.334 -34.666 95.001 -60.999s47.667 -57.666 63 -93.999s23 -76.5 23 -120.5v-40h-511
c3.33301 -28 10.833 -53.333 22.5 -76s27 -42.334 46 -59.001s41 -29.5 66 -38.5s52.167 -13.5 81.5 -13.5c46.667 0 86.5 11.167 119.5 33.5s58.167 52.5 75.5 90.5l81 -43c-21.333 -41.333 -48.666 -75.666 -81.999 -102.999s-73 -45.666 -119 -54.999l-59.5 -38.5
c-15.667 -10.333 -27.834 -19.5 -36.501 -27.5s-14.667 -15.333 -18 -22s-5 -13.667 -5 -21c0 -12.667 5.16699 -22.167 15.5 -28.5s23.166 -9.5 38.499 -9.5s28.5 3.16699 39.5 9.5s21.5 14.166 31.5 23.499l65 -44c-17.333 -15.333 -38.166 -28.666 -62.499 -39.999
s-48.833 -17 -73.5 -17zM344.999 511.993c-26 0 -50.334 -4.16602 -73.001 -12.499s-43 -19.833 -61 -34.5s-33.167 -32.334 -45.5 -53.001s-21.166 -43 -26.499 -67h409c-8.66699 52 -30.667 92.833 -66 122.5s-81 44.5 -137 44.5z" />
    <glyph glyph-name="Ecaron" unicode="&#x11a;" horiz-adv-x="552" 
d="M60 730h440v-92h-344v-226h344v-92h-344v-227h344v-93h-440v730zM122 950h85l68 -98l70 98h84l-119 -163h-69z" />
    <glyph glyph-name="ecaron" unicode="&#x11b;" horiz-adv-x="688" 
d="M350 -12c-46.667 0 -89.001 7.66309 -127.001 22.9961s-70.5 36.5 -97.5 63.5s-47.833 58.833 -62.5 95.5s-22 76.334 -22 119.001c0 43.333 7.66699 83.833 23 121.5s36.5 70.334 63.5 98.001s59.167 49.334 96.5 65.001s77.666 23.5 120.999 23.5
c42.667 0 82.334 -7.16699 119.001 -21.5s68.334 -34.666 95.001 -60.999s47.667 -57.666 63 -93.999s23 -76.5 23 -120.5v-40h-511c3.33301 -28 10.833 -53.333 22.5 -76s27 -42.334 46 -59.001s41 -29.5 66 -38.5s52.167 -13.5 81.5 -13.5
c46.667 0 86.5 11.167 119.5 33.5s58.167 52.5 75.5 90.5l81 -43c-26.667 -52 -62.667 -92.667 -108 -122s-101.333 -44 -168 -44zM344.999 511.996c-26 0 -50.334 -4.16602 -73.001 -12.499s-43 -19.833 -61 -34.5s-33.167 -32.334 -45.5 -53.001s-21.166 -43 -26.499 -67
h409c-8.66699 52 -30.667 92.833 -66 122.5s-81 44.5 -137 44.5zM196.998 814.997h85l68 -98l70 98h84l-119 -163h-69z" />
    <glyph glyph-name="Gcircumflex" unicode="&#x11c;" horiz-adv-x="820" 
d="M418 -10c-54.667 0 -105.172 10 -151.505 30s-86.333 47 -120 81s-60 73.667 -79 119s-28.5 93.666 -28.5 144.999c0 52 9.5 100.833 28.5 146.5s45.333 85.334 79 119.001s73.667 60.334 120 80.001s96.833 29.5 151.5 29.5c36 0 70.333 -4.5 103 -13.5
s62.834 -21.667 90.501 -38s52.667 -36 75 -59s41.5 -48.5 57.5 -76.5l-84 -51c-24.667 45.333 -57.667 80.833 -99 106.5s-89 38.5 -143 38.5c-41.333 0 -79.166 -7.5 -113.499 -22.5s-64 -35.333 -89 -61s-44.333 -55.5 -58 -89.5s-20.5 -70.333 -20.5 -109s7 -75 21 -109
s33.333 -63.833 58 -89.5s54.334 -45.834 89.001 -60.501s72.334 -22 113.001 -22c37.333 0 71 5.5 101 16.5s56 26.167 78 45.5s40 42.5 54 69.5s23.667 56.5 29 88.5h-274v92h375v-34c0 -50 -8.16699 -97.5 -24.5 -142.5s-40.166 -84.5 -71.499 -118.5
s-69.333 -61 -114 -81s-95.667 -30 -153 -30zM376.995 950h69l119 -163h-84l-70 98l-68 -98h-85z" />
    <glyph glyph-name="gcircumflex" unicode="&#x11d;" horiz-adv-x="714" 
d="M339 -12c-40.667 0 -79.1621 7.66797 -115.495 23.001s-68 36.5 -95 63.5s-48.333 59.167 -64 96.5s-23.5 77.666 -23.5 120.999c0 44 7.66699 84.5 23 121.5s36.5 69.167 63.5 96.5s58.667 48.666 95 63.999s75.166 23 116.499 23s81.666 -9.66699 120.999 -29
s70.666 -46.666 93.999 -81.999v99h95v-574c0 -45.333 -7.33301 -86.166 -22 -122.499s-35.167 -67.333 -61.5 -93s-57.833 -45.5 -94.5 -59.5s-77.334 -21 -122.001 -21c-71.333 0 -129.666 13.833 -174.999 41.5s-81.666 65.5 -108.999 113.5l84 50
c10.667 -18 22 -34.167 34 -48.5s25.833 -26.833 41.5 -37.5s33.667 -18.834 54 -24.501s44.166 -8.5 71.499 -8.5c31.333 0 59.666 5 84.999 15s46.833 24.167 64.5 42.5s31.167 40.166 40.5 65.499s14 53.333 14 84v91c-23.333 -35.333 -54.833 -62.666 -94.5 -81.999
s-79.834 -29 -120.501 -29zM348.005 76.001c30 0 58 5.66699 84 17s48.5 26.666 67.5 45.999s34 42.333 45 69s16.5 55 16.5 85s-5.5 58.167 -16.5 84.5s-26 49.333 -45 69s-41.5 35.167 -67.5 46.5s-54 17 -84 17c-29.333 0 -56.833 -5.66699 -82.5 -17
s-48 -26.833 -67 -46.5s-34 -42.667 -45 -69s-16.5 -54.5 -16.5 -84.5s5.5 -58.333 16.5 -85s26 -49.667 45 -69s41.333 -34.666 67 -45.999s53.167 -17 82.5 -17zM309.005 813.001h69l119 -163h-84l-70 98l-68 -98h-85z" />
    <glyph glyph-name="Gbreve" unicode="&#x11e;" horiz-adv-x="820" 
d="M418 -10c-54.667 0 -105.172 10 -151.505 30s-86.333 47 -120 81s-60 73.667 -79 119s-28.5 93.666 -28.5 144.999c0 52 9.5 100.833 28.5 146.5s45.333 85.334 79 119.001s73.667 60.334 120 80.001s96.833 29.5 151.5 29.5c36 0 70.333 -4.5 103 -13.5
s62.834 -21.667 90.501 -38s52.667 -36 75 -59s41.5 -48.5 57.5 -76.5l-84 -51c-24.667 45.333 -57.667 80.833 -99 106.5s-89 38.5 -143 38.5c-41.333 0 -79.166 -7.5 -113.499 -22.5s-64 -35.333 -89 -61s-44.333 -55.5 -58 -89.5s-20.5 -70.333 -20.5 -109s7 -75 21 -109
s33.333 -63.833 58 -89.5s54.334 -45.834 89.001 -60.501s72.334 -22 113.001 -22c37.333 0 71 5.5 101 16.5s56 26.167 78 45.5s40 42.5 54 69.5s23.667 56.5 29 88.5h-274v92h375v-34c0 -50 -8.16699 -97.5 -24.5 -142.5s-40.166 -84.5 -71.499 -118.5
s-69.333 -61 -114 -81s-95.667 -30 -153 -30zM409.995 782c-27.333 0 -51.1689 4.33301 -71.502 13s-37.166 20.334 -50.499 35.001s-23.166 32 -29.499 52s-9.5 41.333 -9.5 64h70c0 -32 7.66699 -57 23 -75s38 -27.333 68 -28c29.333 0.666992 51.833 10 67.5 28
s23.5 43 23.5 75h71c0 -22.667 -3.66699 -44 -11 -64s-18 -37.333 -32 -52s-31 -26.334 -51 -35.001s-42.667 -13 -68 -13z" />
    <glyph glyph-name="gbreve" unicode="&#x11f;" horiz-adv-x="714" 
d="M339 -12c-40.667 0 -79.1621 7.66797 -115.495 23.001s-68 36.5 -95 63.5s-48.333 59.167 -64 96.5s-23.5 77.666 -23.5 120.999c0 44 7.66699 84.5 23 121.5s36.5 69.167 63.5 96.5s58.667 48.666 95 63.999s75.166 23 116.499 23s81.666 -9.66699 120.999 -29
s70.666 -46.666 93.999 -81.999v99h95v-574c0 -45.333 -7.33301 -86.166 -22 -122.499s-35.167 -67.333 -61.5 -93s-57.833 -45.5 -94.5 -59.5s-77.334 -21 -122.001 -21c-71.333 0 -129.666 13.833 -174.999 41.5s-81.666 65.5 -108.999 113.5l84 50
c10.667 -18 22 -34.167 34 -48.5s25.833 -26.833 41.5 -37.5s33.667 -18.834 54 -24.501s44.166 -8.5 71.499 -8.5c31.333 0 59.666 5 84.999 15s46.833 24.167 64.5 42.5s31.167 40.166 40.5 65.499s14 53.333 14 84v91c-23.333 -35.333 -54.833 -62.666 -94.5 -81.999
s-79.834 -29 -120.501 -29zM348.005 76.001c30 0 58 5.66699 84 17s48.5 26.666 67.5 45.999s34 42.333 45 69s16.5 55 16.5 85s-5.5 58.167 -16.5 84.5s-26 49.333 -45 69s-41.5 35.167 -67.5 46.5s-54 17 -84 17c-29.333 0 -56.833 -5.66699 -82.5 -17
s-48 -26.833 -67 -46.5s-34 -42.667 -45 -69s-16.5 -54.5 -16.5 -84.5s5.5 -58.333 16.5 -85s26 -49.667 45 -69s41.333 -34.666 67 -45.999s53.167 -17 82.5 -17zM359.005 650.001c-27.333 0 -51.1689 4.33301 -71.502 13s-37.166 20.334 -50.499 35.001
s-23.166 32 -29.499 52s-9.5 41.333 -9.5 64h70c0 -32 7.66699 -57 23 -75s38 -27.333 68 -28c29.333 0.666992 51.833 10 67.5 28s23.5 43 23.5 75h71c0 -22.667 -3.66699 -44 -11 -64s-18 -37.333 -32 -52s-31 -26.334 -51 -35.001s-42.667 -13 -68 -13z" />
    <glyph glyph-name="Gdotaccent" unicode="&#x120;" horiz-adv-x="820" 
d="M418 -10c-54.667 0 -105.172 10 -151.505 30s-86.333 47 -120 81s-60 73.667 -79 119s-28.5 93.666 -28.5 144.999c0 52 9.5 100.833 28.5 146.5s45.333 85.334 79 119.001s73.667 60.334 120 80.001s96.833 29.5 151.5 29.5c36 0 70.333 -4.5 103 -13.5
s62.834 -21.667 90.501 -38s52.667 -36 75 -59s41.5 -48.5 57.5 -76.5l-84 -51c-24.667 45.333 -57.667 80.833 -99 106.5s-89 38.5 -143 38.5c-41.333 0 -79.166 -7.5 -113.499 -22.5s-64 -35.333 -89 -61s-44.333 -55.5 -58 -89.5s-20.5 -70.333 -20.5 -109s7 -75 21 -109
s33.333 -63.833 58 -89.5s54.334 -45.834 89.001 -60.501s72.334 -22 113.001 -22c37.333 0 71 5.5 101 16.5s56 26.167 78 45.5s40 42.5 54 69.5s23.667 56.5 29 88.5h-274v92h375v-34c0 -50 -8.16699 -97.5 -24.5 -142.5s-40.166 -84.5 -71.499 -118.5
s-69.333 -61 -114 -81s-95.667 -30 -153 -30zM347.995 861c0 19.333 6 34.833 18 46.5s27.667 17.5 47 17.5c21.333 0 37.666 -5.83301 48.999 -17.5s17 -27.167 17 -46.5s-5.66699 -35 -17 -47s-27.666 -18 -48.999 -18c-20.667 0 -36.667 6 -48 18s-17 27.667 -17 47z" />
    <glyph glyph-name="gdotaccent" unicode="&#x121;" horiz-adv-x="714" 
d="M339 -12c-40.667 0 -79.1621 7.66797 -115.495 23.001s-68 36.5 -95 63.5s-48.333 59.167 -64 96.5s-23.5 77.666 -23.5 120.999c0 44 7.66699 84.5 23 121.5s36.5 69.167 63.5 96.5s58.667 48.666 95 63.999s75.166 23 116.499 23s81.666 -9.66699 120.999 -29
s70.666 -46.666 93.999 -81.999v99h95v-574c0 -45.333 -7.33301 -86.166 -22 -122.499s-35.167 -67.333 -61.5 -93s-57.833 -45.5 -94.5 -59.5s-77.334 -21 -122.001 -21c-71.333 0 -129.666 13.833 -174.999 41.5s-81.666 65.5 -108.999 113.5l84 50
c10.667 -18 22 -34.167 34 -48.5s25.833 -26.833 41.5 -37.5s33.667 -18.834 54 -24.501s44.166 -8.5 71.499 -8.5c31.333 0 59.666 5 84.999 15s46.833 24.167 64.5 42.5s31.167 40.166 40.5 65.499s14 53.333 14 84v91c-23.333 -35.333 -54.833 -62.666 -94.5 -81.999
s-79.834 -29 -120.501 -29zM348.005 76.001c30 0 58 5.66699 84 17s48.5 26.666 67.5 45.999s34 42.333 45 69s16.5 55 16.5 85s-5.5 58.167 -16.5 84.5s-26 49.333 -45 69s-41.5 35.167 -67.5 46.5s-54 17 -84 17c-29.333 0 -56.833 -5.66699 -82.5 -17
s-48 -26.833 -67 -46.5s-34 -42.667 -45 -69s-16.5 -54.5 -16.5 -84.5s5.5 -58.333 16.5 -85s26 -49.667 45 -69s41.333 -34.666 67 -45.999s53.167 -17 82.5 -17zM275.005 716.001c0 19.333 6 34.833 18 46.5s27.667 17.5 47 17.5c21.333 0 37.666 -5.83301 48.999 -17.5
s17 -27.167 17 -46.5s-5.66699 -35 -17 -47s-27.666 -18 -48.999 -18c-20.667 0 -36.667 6 -48 18s-17 27.667 -17 47z" />
    <glyph glyph-name="uni0122" unicode="&#x122;" horiz-adv-x="820" 
d="M418 -10c-54.667 0 -105.172 10 -151.505 30s-86.333 47 -120 81s-60 73.667 -79 119s-28.5 93.666 -28.5 144.999c0 52 9.5 100.833 28.5 146.5s45.333 85.334 79 119.001s73.667 60.334 120 80.001s96.833 29.5 151.5 29.5c36 0 70.333 -4.5 103 -13.5
s62.834 -21.667 90.501 -38s52.667 -36 75 -59s41.5 -48.5 57.5 -76.5l-84 -51c-24.667 45.333 -57.667 80.833 -99 106.5s-89 38.5 -143 38.5c-41.333 0 -79.166 -7.5 -113.499 -22.5s-64 -35.333 -89 -61s-44.333 -55.5 -58 -89.5s-20.5 -70.333 -20.5 -109s7 -75 21 -109
s33.333 -63.833 58 -89.5s54.334 -45.834 89.001 -60.501s72.334 -22 113.001 -22c37.333 0 71 5.5 101 16.5s56 26.167 78 45.5s40 42.5 54 69.5s23.667 56.5 29 88.5h-274v92h375v-34c0 -50 -8.16699 -97.5 -24.5 -142.5s-40.166 -84.5 -71.499 -118.5
s-69.333 -61 -114 -81s-95.667 -30 -153 -30zM338.995 -259l40 204h86l-63 -204h-63z" />
    <glyph glyph-name="uni0123" unicode="&#x123;" horiz-adv-x="714" 
d="M339 -12c-40.667 0 -79.1621 7.66797 -115.495 23.001s-68 36.5 -95 63.5s-48.333 59.167 -64 96.5s-23.5 77.666 -23.5 120.999c0 44 7.66699 84.5 23 121.5s36.5 69.167 63.5 96.5s58.667 48.666 95 63.999s75.166 23 116.499 23s81.666 -9.66699 120.999 -29
s70.666 -46.666 93.999 -81.999v99h95v-574c0 -45.333 -7.33301 -86.166 -22 -122.499s-35.167 -67.333 -61.5 -93s-57.833 -45.5 -94.5 -59.5s-77.334 -21 -122.001 -21c-71.333 0 -129.666 13.833 -174.999 41.5s-81.666 65.5 -108.999 113.5l84 50
c10.667 -18 22 -34.167 34 -48.5s25.833 -26.833 41.5 -37.5s33.667 -18.834 54 -24.501s44.166 -8.5 71.499 -8.5c31.333 0 59.666 5 84.999 15s46.833 24.167 64.5 42.5s31.167 40.166 40.5 65.499s14 53.333 14 84v91c-23.333 -35.333 -54.833 -62.666 -94.5 -81.999
s-79.834 -29 -120.501 -29zM348.005 76.001c30 0 58 5.66699 84 17s48.5 26.666 67.5 45.999s34 42.333 45 69s16.5 55 16.5 85s-5.5 58.167 -16.5 84.5s-26 49.333 -45 69s-41.5 35.167 -67.5 46.5s-54 17 -84 17c-29.333 0 -56.833 -5.66699 -82.5 -17
s-48 -26.833 -67 -46.5s-34 -42.667 -45 -69s-16.5 -54.5 -16.5 -84.5s5.5 -58.333 16.5 -85s26 -49.667 45 -69s41.333 -34.666 67 -45.999s53.167 -17 82.5 -17zM304.005 652.001l40 204h86l-63 -204h-63z" />
    <glyph glyph-name="Hcircumflex" unicode="&#x124;" horiz-adv-x="666" 
d="M508 320h-352v-320h-96v730h96v-317h352v317h97v-730h-97v320zM297 950h69l119 -163h-84l-70 98l-68 -98h-85z" />
    <glyph glyph-name="hcircumflex" unicode="&#x125;" horiz-adv-x="669" 
d="M65 740h93.999v-243c20.667 30 47.834 54.167 81.501 72.5s72.5 27.5 116.5 27.5c38 0 72.5 -6 103.5 -18s57.333 -29.5 79 -52.5s38.334 -50.833 50.001 -83.5s17.5 -69.667 17.5 -111v-332h-97v327c0 56.667 -14.333 101.667 -43 135s-71.334 50 -128.001 50
c-25.333 0 -48.833 -4.66699 -70.5 -14s-40.5 -22.333 -56.5 -39s-28.5 -36.5 -37.5 -59.5s-13.5 -48.167 -13.5 -75.5v-324h-96v740zM72.999 951h69l119 -163h-84l-70 98l-68 -98h-85z" />
    <glyph glyph-name="Hbar" unicode="&#x126;" horiz-adv-x="712" 
d="M18 609h64v121h96v-121h352v121h97v-121h61v-74h-61v-535h-97v320h-352v-320h-96v535h-64v74zM178 413h352v122h-352v-122z" />
    <glyph glyph-name="hbar" unicode="&#x127;" horiz-adv-x="680" 
d="M8 689h67.999v51h94v-51h86v-65h-86v-127c20.667 30 47.834 54.167 81.501 72.5s72.5 27.5 116.5 27.5c38 0 72.5 -6 103.5 -18s57.333 -29.5 79 -52.5s38.334 -50.833 50.001 -83.5s17.5 -69.667 17.5 -111v-332h-97v327c0 56.667 -14.333 101.667 -43 135
s-71.334 50 -128.001 50c-25.333 0 -48.833 -4.66699 -70.5 -14s-40.5 -22.333 -56.5 -39s-28.5 -36.5 -37.5 -59.5s-13.5 -48.167 -13.5 -75.5v-324h-96v624h-68v65z" />
    <glyph glyph-name="Itilde" unicode="&#x128;" horiz-adv-x="232" 
d="M68 730h97v-730h-97v730zM-47 787c0 37.333 8.99707 67.166 26.9971 89.499s42.333 33.5 73 33.5c16.667 0 31.334 -2.66699 44.001 -8s24.667 -11.666 36 -18.999l30.5 -18.5c9.66699 -5.66699 19.834 -8.5 30.501 -8.5c24 0 36 16.667 36 50h66
c0 -38 -8.5 -68 -25.5 -90s-42.167 -33 -75.5 -33c-19.333 0 -36.166 3.5 -50.499 10.5s-27.833 14.167 -40.5 21.5l-25.5 14.5c-7.66699 4.33301 -16.167 6.5 -25.5 6.5c-23.333 0 -35 -16.333 -35 -49h-65z" />
    <glyph glyph-name="itilde" unicode="&#x129;" horiz-adv-x="224" 
d="M64 585h96v-585h-96v585zM-58 652c0 37.333 8.99707 67.166 26.9971 89.499s42.333 33.5 73 33.5c16.667 0 31.334 -2.66699 44.001 -8s24.667 -11.666 36 -18.999l30.5 -18.5c9.66699 -5.66699 19.834 -8.5 30.501 -8.5c24 0 36 16.667 36 50h66
c0 -38 -8.5 -68 -25.5 -90s-42.167 -33 -75.5 -33c-19.333 0 -36.166 3.5 -50.499 10.5s-27.833 14.167 -40.5 21.5l-25.5 14.5c-7.66699 4.33301 -16.167 6.5 -25.5 6.5c-23.333 0 -35 -16.333 -35 -49h-65z" />
    <glyph glyph-name="Imacron" unicode="&#x12a;" horiz-adv-x="233" 
d="M68 730h97v-730h-97v730zM-16 857h264v-70h-264v70z" />
    <glyph glyph-name="imacron" unicode="&#x12b;" horiz-adv-x="224" 
d="M64 585h96v-585h-96v585zM-20 712h264v-70h-264v70z" />
    <glyph glyph-name="Ibreve" unicode="&#x12c;" horiz-adv-x="233" 
d="M68 730h97v-730h-97v730zM114 782c-27.333 0 -51.1689 4.33301 -71.502 13s-37.166 20.334 -50.499 35.001s-23.166 32 -29.499 52s-9.5 41.333 -9.5 64h70c0 -32 7.66699 -57 23 -75s38 -27.333 68 -28c29.333 0.666992 51.833 10 67.5 28s23.5 43 23.5 75h71
c0 -22.667 -3.66699 -44 -11 -64s-18 -37.333 -32 -52s-31 -26.334 -51 -35.001s-42.667 -13 -68 -13z" />
    <glyph glyph-name="ibreve" unicode="&#x12d;" horiz-adv-x="224" 
d="M64 585h96v-585h-96v585zM113 638c-27.333 0 -51.1689 4.33301 -71.502 13s-37.166 20.334 -50.499 35.001s-23.166 32 -29.499 52s-9.5 41.333 -9.5 64h70c0 -32 7.66699 -57 23 -75s38 -27.333 68 -28c29.333 0.666992 51.833 10 67.5 28s23.5 43 23.5 75h71
c0 -22.667 -3.66699 -44 -11 -64s-18 -37.333 -32 -52s-31 -26.334 -51 -35.001s-42.667 -13 -68 -13z" />
    <glyph glyph-name="Iogonek" unicode="&#x12e;" horiz-adv-x="233" 
d="M118 -223c-40 0 -70.4971 10.666 -91.4971 31.999s-31.833 46.666 -32.5 75.999c-0.666992 24 5.66602 46.167 18.999 66.5s31.666 39.833 54.999 58.5v720h97v-730h-2c-31.333 -22.667 -54 -43 -68 -61s-21 -34.333 -21 -49c0 -13.333 4.33301 -23.833 13 -31.5
s19.667 -11.5 33 -11.5s24.666 2.83301 33.999 8.5s18.333 12.834 27 21.501l55 -52c-15.333 -13.333 -33 -24.666 -53 -33.999s-41.667 -14 -65 -14z" />
    <glyph glyph-name="iogonek" unicode="&#x12f;" horiz-adv-x="224" 
d="M116 -223c-40 0 -70.499 10.667 -91.499 32s-31.833 46.666 -32.5 75.999c-0.666992 23.333 5.5 45.166 18.5 65.499s30.833 39.5 53.5 57.5v577h96v-585h1c-31.333 -22.667 -54 -43 -68 -61s-21 -34.333 -21 -49c0 -13.333 4.33301 -23.833 13 -31.5
s19.667 -11.5 33 -11.5s24.666 2.83301 33.999 8.5s18.333 12.834 27 21.501l55 -52c-15.333 -13.333 -33 -24.666 -53 -33.999s-41.667 -14 -65 -14zM44.001 728c0 20 6.16699 36.167 18.5 48.5s28.833 18.5 49.5 18.5c22 0 39 -6.16699 51 -18.5s18 -28.5 18 -48.5
c0 -20.667 -6 -37.167 -18 -49.5s-29 -18.5 -51 -18.5c-21.333 0 -38 6.16699 -50 18.5s-18 28.833 -18 49.5z" />
    <glyph glyph-name="Idotaccent" unicode="&#x130;" horiz-adv-x="233" 
d="M68 730h97v-730h-97v730zM51 861c0 19.333 6 34.833 18 46.5s27.667 17.5 47 17.5c21.333 0 37.666 -5.83301 48.999 -17.5s17 -27.167 17 -46.5s-5.66699 -35 -17 -47s-27.666 -18 -48.999 -18c-20.667 0 -36.667 6 -48 18s-17 27.667 -17 47z" />
    <glyph glyph-name="dotlessi" unicode="&#x131;" horiz-adv-x="224" 
d="M64 585h96v-585h-96v585z" />
    <glyph glyph-name="IJ" unicode="&#x132;" horiz-adv-x="538" 
d="M233 93h56c35.333 0 60.5 8.16699 75.5 24.5s22.5 43.833 22.5 82.5v530h97v-528c0 -68.667 -13.833 -119.5 -41.5 -152.5s-76.167 -49.5 -145.5 -49.5h-64v93zM54 730h98v-730h-98v730z" />
    <glyph glyph-name="ij" unicode="&#x133;" horiz-adv-x="445" 
d="M64 585h96v-585h-96v585zM44 728c0 20 6.16699 36.167 18.5 48.5s28.833 18.5 49.5 18.5c22 0 39 -6.16699 51 -18.5s18 -28.5 18 -48.5c0 -20.667 -6 -37.167 -18 -49.5s-29 -18.5 -51 -18.5c-21.333 0 -38 6.16699 -50 18.5s-18 28.833 -18 49.5zM381 -25
c0 -42.667 -3.50098 -78.334 -10.501 -107.001s-19 -51.667 -36 -69s-39.333 -29.666 -67 -36.999s-62.167 -11 -103.5 -11h-100v91h85c28.667 0 51.834 1.66699 69.501 5s31.5 9.66602 41.5 18.999s16.667 22.833 20 40.5s5 40.834 5 69.501v609h96v-610zM264.999 728
c0 20 6.16699 36.167 18.5 48.5s28.833 18.5 49.5 18.5c22 0 39 -6.16699 51 -18.5s18 -28.5 18 -48.5c0 -20.667 -6 -37.167 -18 -49.5s-29 -18.5 -51 -18.5c-21.333 0 -38 6.16699 -50 18.5s-18 28.833 -18 49.5z" />
    <glyph glyph-name="Jcircumflex" unicode="&#x134;" horiz-adv-x="484" 
d="M230 -10c-50 0 -92.5 11.832 -127.5 35.499s-59.5 54.5 -73.5 92.5l92 43c8 -23.333 21.167 -42.666 39.5 -57.999s40.833 -23 67.5 -23c32.667 0 57.667 10.667 75 32s26 50 26 86v532h97v-526c0 -67.333 -17.333 -119.833 -52 -157.5s-82.667 -56.5 -144 -56.5z
M340 949.999h69l119 -163h-84l-70 98l-68 -98h-85z" />
    <glyph glyph-name="jcircumflex" unicode="&#x135;" horiz-adv-x="225" 
d="M-75 -177c28.667 0 52.167 1.49902 70.5 4.49902s32.5 9.33301 42.5 19s16.833 23.334 20.5 41.001s5.5 41.5 5.5 71.5v626h96v-627c0 -44 -3.5 -80.5 -10.5 -109.5s-19 -52.167 -36 -69.5s-39.667 -29.5 -68 -36.5s-63.5 -10.5 -105.5 -10.5h-15v91zM78 804.999h69
l119 -163h-84l-70 98l-68 -98h-85z" />
    <glyph glyph-name="uni0136" unicode="&#x136;" horiz-adv-x="635" 
d="M277 375l-120 -142v-233h-96v730h96v-370l312 370h119l-243 -289l272 -441h-112zM245 -259l40 204h86l-63 -204h-63z" />
    <glyph glyph-name="uni0137" unicode="&#x137;" horiz-adv-x="606" 
d="M65 740h94v-472l301 317h118l-236 -248l242 -337h-109l-201 280l-115 -120v-160h-94v740zM180 -254l40 204h86l-63 -204h-63z" />
    <glyph glyph-name="kgreenlandic" unicode="&#x138;" horiz-adv-x="606" 
d="M274 279l-115 -119v-160h-94v585h94v-317l300 317h118l-235 -248l242 -337h-110z" />
    <glyph glyph-name="Lacute" unicode="&#x139;" horiz-adv-x="512" 
d="M60 730h96v-637h309v-93h-405v730zM183 950h105l-146 -163h-75z" />
    <glyph glyph-name="lacute" unicode="&#x13a;" horiz-adv-x="226" 
d="M193 970h105l-146 -163h-75zM65 740h96v-740h-96v740z" />
    <glyph glyph-name="uni013B" unicode="&#x13b;" horiz-adv-x="512" 
d="M60 730h96v-637h309v-93h-405v730zM178 -259l40 204h86l-63 -204h-63z" />
    <glyph glyph-name="uni013C" unicode="&#x13c;" horiz-adv-x="226" 
d="M29 -254l40 204h86l-63 -204h-63zM65 740h96v-740h-96v740z" />
    <glyph glyph-name="Lcaron" unicode="&#x13d;" horiz-adv-x="512" 
d="M60 730h96v-637h309v-93h-405v730zM302 730h82l-56 -176h-62z" />
    <glyph glyph-name="lcaron" unicode="&#x13e;" horiz-adv-x="270" 
d="M228 740h82l-56 -176h-62zM60 740h96v-740h-96v740z" />
    <glyph glyph-name="Ldot" unicode="&#x13f;" horiz-adv-x="516" 
d="M60 730h96v-637h309v-93h-405v730zM351 362c0 19.333 6 34.833 18 46.5s27.667 17.5 47 17.5c21.333 0 37.666 -5.83301 48.999 -17.5s17 -27.167 17 -46.5s-5.66699 -35 -17 -47s-27.666 -18 -48.999 -18c-20.667 0 -36.667 6 -48 18s-17 27.667 -17 47z" />
    <glyph glyph-name="ldot" unicode="&#x140;" horiz-adv-x="366" 
d="M65 740h96v-740h-96v740zM230 294c0 19.333 6 34.833 18 46.5s27.667 17.5 47 17.5c21.333 0 37.666 -5.83301 48.999 -17.5s17 -27.167 17 -46.5s-5.66699 -35 -17 -47s-27.666 -18 -48.999 -18c-20.667 0 -36.667 6 -48 18s-17 27.667 -17 47z" />
    <glyph glyph-name="Lslash" unicode="&#x141;" horiz-adv-x="546" 
d="M14 392l80 24v314h96v-284l132 40v-70l-132 -40v-283h309v-93h-405v346l-80 -24v70z" />
    <glyph glyph-name="lslash" unicode="&#x142;" horiz-adv-x="329" 
d="M8 436l107 34v384h97v-353l110 36v-71l-110 -36v-430h-97v399l-107 -34v71z" />
    <glyph glyph-name="Nacute" unicode="&#x143;" horiz-adv-x="720" 
d="M60 730h110l393 -574v574h96v-730h-103l-400 582v-582h-96v730zM443 950h105l-146 -163h-75z" />
    <glyph glyph-name="nacute" unicode="&#x144;" horiz-adv-x="667" 
d="M64 585l94.001 -0.000976562v-90c20 30.667 47 55.334 81 74.001s73 28 117 28c38 0 72.5 -6 103.5 -18s57.167 -29.5 78.5 -52.5s37.833 -50.833 49.5 -83.5s17.5 -69.667 17.5 -111v-332h-96v328c0 56 -14.333 100.667 -43 134s-71.334 50 -128.001 50
c-25.333 0 -49 -4.66699 -71 -14s-41 -22.333 -57 -39s-28.5 -36.5 -37.5 -59.5s-13.5 -48.167 -13.5 -75.5v-324h-95v585zM426.001 814.999h105l-146 -163h-75z" />
    <glyph glyph-name="uni0145" unicode="&#x145;" horiz-adv-x="720" 
d="M60 730h110l393 -574v574h96v-730h-103l-400 582v-582h-96v730zM274 -259l40 204h86l-63 -204h-63z" />
    <glyph glyph-name="uni0146" unicode="&#x146;" horiz-adv-x="667" 
d="M64 585l94.001 -0.000976562v-90c20 30.667 47 55.334 81 74.001s73 28 117 28c38 0 72.5 -6 103.5 -18s57.167 -29.5 78.5 -52.5s37.833 -50.833 49.5 -83.5s17.5 -69.667 17.5 -111v-332h-96v328c0 56 -14.333 100.667 -43 134s-71.334 50 -128.001 50
c-25.333 0 -49 -4.66699 -71 -14s-41 -22.333 -57 -39s-28.5 -36.5 -37.5 -59.5s-13.5 -48.167 -13.5 -75.5v-324h-95v585zM253.001 -254.001l40 204h86l-63 -204h-63z" />
    <glyph glyph-name="Ncaron" unicode="&#x147;" horiz-adv-x="720" 
d="M60 730h110l393 -574v574h96v-730h-103l-400 582v-582h-96v730zM207 950h85l68 -98l70 98h84l-119 -163h-69z" />
    <glyph glyph-name="ncaron" unicode="&#x148;" horiz-adv-x="667" 
d="M64 585l94.001 -0.000976562v-90c20 30.667 47 55.334 81 74.001s73 28 117 28c38 0 72.5 -6 103.5 -18s57.167 -29.5 78.5 -52.5s37.833 -50.833 49.5 -83.5s17.5 -69.667 17.5 -111v-332h-96v328c0 56 -14.333 100.667 -43 134s-71.334 50 -128.001 50
c-25.333 0 -49 -4.66699 -71 -14s-41 -22.333 -57 -39s-28.5 -36.5 -37.5 -59.5s-13.5 -48.167 -13.5 -75.5v-324h-95v585zM201.001 814.999h85l68 -98l70 98h84l-119 -163h-69z" />
    <glyph glyph-name="Eng" unicode="&#x14a;" horiz-adv-x="720" 
d="M449 -119h21.001c36 0.666992 60.5 8.16699 73.5 22.5s19.5 40.5 19.5 78.5v29l-405 571v-582h-98v730h110l393 -556v556h96v-747c0 -67.333 -13.333 -116.833 -40 -148.5s-73.334 -47.5 -140.001 -47.5h-30v94z" />
    <glyph glyph-name="eng" unicode="&#x14b;" horiz-adv-x="667" 
d="M370 -177c28.667 0 52.001 1.49805 70.001 4.49805s32.167 9.33301 42.5 19s17.333 23.334 21 41.001s5.5 41.5 5.5 71.5v369c0 56 -14.333 100.667 -43 134s-71.334 50 -128.001 50c-25.333 0 -49 -4.66699 -71 -14s-41 -22.333 -57 -39s-28.5 -36.5 -37.5 -59.5
s-13.5 -48.167 -13.5 -75.5v-324h-95v585h94v-90c20 30.667 47 55.334 81 74.001s73 28 117 28c38 0 72.5 -6 103.5 -18s57.167 -29.5 78.5 -52.5s37.833 -50.833 49.5 -83.5s17.5 -69.667 17.5 -111v-374c0 -44 -3.66699 -80.5 -11 -109.5s-19.5 -52.167 -36.5 -69.5
s-39.667 -29.5 -68 -36.5s-63.5 -10.5 -105.5 -10.5h-14v91z" />
    <glyph glyph-name="Omacron" unicode="&#x14c;" horiz-adv-x="827" 
d="M277 857h264v-70h-264v70zM413 -10c-52 0 -100.667 9.83301 -146 29.5s-84.833 46.5 -118.5 80.5s-60.334 73.667 -80.001 119s-29.5 94 -29.5 146s9.83301 100.667 29.5 146s46.334 85 80.001 119s73.167 60.833 118.5 80.5s94 29.5 146 29.5
s100.833 -9.83301 146.5 -29.5s85.334 -46.5 119.001 -80.5s60.334 -73.667 80.001 -119s29.5 -94 29.5 -146s-9.83301 -100.667 -29.5 -146s-46.334 -85 -80.001 -119s-73.334 -60.833 -119.001 -80.5s-94.5 -29.5 -146.5 -29.5zM413 84c39.333 0 75.833 7.5 109.5 22.5
s63 35.167 88 60.5s44.667 55 59 89s21.5 70.333 21.5 109s-7.16699 75 -21.5 109s-34 63.833 -59 89.5s-54.333 45.834 -88 60.501s-70.167 22 -109.5 22c-38.667 0 -74.834 -7.33301 -108.501 -22s-62.834 -34.834 -87.501 -60.501s-44.167 -55.5 -58.5 -89.5
s-21.5 -70.333 -21.5 -109s7.16699 -75 21.5 -109s33.833 -63.667 58.5 -89s53.834 -45.5 87.501 -60.5s69.834 -22.5 108.501 -22.5z" />
    <glyph glyph-name="omacron" unicode="&#x14d;" horiz-adv-x="691" 
d="M216 725h264v-70h-264v70zM344 -12c-42 0 -81.333 7.83301 -118 23.5s-68.834 37.167 -96.501 64.5s-49.334 59.5 -65.001 96.5s-23.5 76.833 -23.5 119.5c0 43.333 7.83301 83.5 23.5 120.5s37.334 69.167 65.001 96.5s59.834 48.833 96.501 64.5s76 23.5 118 23.5
s81.5 -7.83301 118.5 -23.5s69.333 -37.167 97 -64.5s49.334 -59.5 65.001 -96.5s23.5 -77.167 23.5 -120.5c0 -42.667 -7.83301 -82.5 -23.5 -119.5s-37.334 -69.167 -65.001 -96.5s-60 -48.833 -97 -64.5s-76.5 -23.5 -118.5 -23.5zM344 76
c29.333 0 56.666 5.66699 81.999 17s47.5 26.833 66.5 46.5s33.833 42.5 44.5 68.5s16 54 16 84s-5.33301 58.167 -16 84.5s-25.5 49.333 -44.5 69s-41.167 35.167 -66.5 46.5s-52.666 17 -81.999 17c-28.667 0 -55.667 -5.66699 -81 -17s-47.333 -26.833 -66 -46.5
s-33.334 -42.667 -44.001 -69s-16 -54.5 -16 -84.5s5.33301 -58 16 -84s25.334 -48.833 44.001 -68.5s40.667 -35.167 66 -46.5s52.333 -17 81 -17z" />
    <glyph glyph-name="Obreve" unicode="&#x14e;" horiz-adv-x="827" 
d="M413 -10c-52 0 -100.667 9.83301 -146 29.5s-84.833 46.5 -118.5 80.5s-60.334 73.667 -80.001 119s-29.5 94 -29.5 146s9.83301 100.667 29.5 146s46.334 85 80.001 119s73.167 60.833 118.5 80.5s94 29.5 146 29.5s100.833 -9.83301 146.5 -29.5
s85.334 -46.5 119.001 -80.5s60.334 -73.667 80.001 -119s29.5 -94 29.5 -146s-9.83301 -100.667 -29.5 -146s-46.334 -85 -80.001 -119s-73.334 -60.833 -119.001 -80.5s-94.5 -29.5 -146.5 -29.5zM413 84c39.333 0 75.833 7.5 109.5 22.5s63 35.167 88 60.5
s44.667 55 59 89s21.5 70.333 21.5 109s-7.16699 75 -21.5 109s-34 63.833 -59 89.5s-54.333 45.834 -88 60.501s-70.167 22 -109.5 22c-38.667 0 -74.834 -7.33301 -108.501 -22s-62.834 -34.834 -87.501 -60.501s-44.167 -55.5 -58.5 -89.5s-21.5 -70.333 -21.5 -109
s7.16699 -75 21.5 -109s33.833 -63.667 58.5 -89s53.834 -45.5 87.501 -60.5s69.834 -22.5 108.501 -22.5zM408 783c-27.333 0 -51.1689 4.33301 -71.502 13s-37.166 20.334 -50.499 35.001s-23.166 32 -29.499 52s-9.5 41.333 -9.5 64h70c0 -32 7.66699 -57 23 -75
s38 -27.333 68 -28c29.333 0.666992 51.833 10 67.5 28s23.5 43 23.5 75h71c0 -22.667 -3.66699 -44 -11 -64s-18 -37.333 -32 -52s-31 -26.334 -51 -35.001s-42.667 -13 -68 -13z" />
    <glyph glyph-name="obreve" unicode="&#x14f;" horiz-adv-x="691" 
d="M344 -12c-42 0 -81.333 7.83301 -118 23.5s-68.834 37.167 -96.501 64.5s-49.334 59.5 -65.001 96.5s-23.5 76.833 -23.5 119.5c0 43.333 7.83301 83.5 23.5 120.5s37.334 69.167 65.001 96.5s59.834 48.833 96.501 64.5s76 23.5 118 23.5s81.5 -7.83301 118.5 -23.5
s69.333 -37.167 97 -64.5s49.334 -59.5 65.001 -96.5s23.5 -77.167 23.5 -120.5c0 -42.667 -7.83301 -82.5 -23.5 -119.5s-37.334 -69.167 -65.001 -96.5s-60 -48.833 -97 -64.5s-76.5 -23.5 -118.5 -23.5zM344 76c29.333 0 56.666 5.66699 81.999 17s47.5 26.833 66.5 46.5
s33.833 42.5 44.5 68.5s16 54 16 84s-5.33301 58.167 -16 84.5s-25.5 49.333 -44.5 69s-41.167 35.167 -66.5 46.5s-52.666 17 -81.999 17c-28.667 0 -55.667 -5.66699 -81 -17s-47.333 -26.833 -66 -46.5s-33.334 -42.667 -44.001 -69s-16 -54.5 -16 -84.5
s5.33301 -58 16 -84s25.334 -48.833 44.001 -68.5s40.667 -35.167 66 -46.5s52.333 -17 81 -17zM344 651c-27.333 0 -51.1689 4.33301 -71.502 13s-37.166 20.334 -50.499 35.001s-23.166 32 -29.499 52s-9.5 41.333 -9.5 64h70c0 -32 7.66699 -57 23 -75s38 -27.333 68 -28
c29.333 0.666992 51.833 10 67.5 28s23.5 43 23.5 75h71c0 -22.667 -3.66699 -44 -11 -64s-18 -37.333 -32 -52s-31 -26.334 -51 -35.001s-42.667 -13 -68 -13z" />
    <glyph glyph-name="Ohungarumlaut" unicode="&#x150;" horiz-adv-x="827" 
d="M407 950h100l-147 -163h-69zM555 950h99l-146 -163h-70zM413 -10c-52 0 -100.667 9.83301 -146 29.5s-84.833 46.5 -118.5 80.5s-60.334 73.667 -80.001 119s-29.5 94 -29.5 146s9.83301 100.667 29.5 146s46.334 85 80.001 119s73.167 60.833 118.5 80.5
s94 29.5 146 29.5s100.833 -9.83301 146.5 -29.5s85.334 -46.5 119.001 -80.5s60.334 -73.667 80.001 -119s29.5 -94 29.5 -146s-9.83301 -100.667 -29.5 -146s-46.334 -85 -80.001 -119s-73.334 -60.833 -119.001 -80.5s-94.5 -29.5 -146.5 -29.5zM413 84
c39.333 0 75.833 7.5 109.5 22.5s63 35.167 88 60.5s44.667 55 59 89s21.5 70.333 21.5 109s-7.16699 75 -21.5 109s-34 63.833 -59 89.5s-54.333 45.834 -88 60.501s-70.167 22 -109.5 22c-38.667 0 -74.834 -7.33301 -108.501 -22s-62.834 -34.834 -87.501 -60.501
s-44.167 -55.5 -58.5 -89.5s-21.5 -70.333 -21.5 -109s7.16699 -75 21.5 -109s33.833 -63.667 58.5 -89s53.834 -45.5 87.501 -60.5s69.834 -22.5 108.501 -22.5z" />
    <glyph glyph-name="ohungarumlaut" unicode="&#x151;" horiz-adv-x="691" 
d="M354 815h100l-147 -163h-69zM502 815h99l-146 -163h-70zM344 -12c-42 0 -81.333 7.83301 -118 23.5s-68.834 37.167 -96.501 64.5s-49.334 59.5 -65.001 96.5s-23.5 76.833 -23.5 119.5c0 43.333 7.83301 83.5 23.5 120.5s37.334 69.167 65.001 96.5
s59.834 48.833 96.501 64.5s76 23.5 118 23.5s81.5 -7.83301 118.5 -23.5s69.333 -37.167 97 -64.5s49.334 -59.5 65.001 -96.5s23.5 -77.167 23.5 -120.5c0 -42.667 -7.83301 -82.5 -23.5 -119.5s-37.334 -69.167 -65.001 -96.5s-60 -48.833 -97 -64.5
s-76.5 -23.5 -118.5 -23.5zM344 76c29.333 0 56.666 5.66699 81.999 17s47.5 26.833 66.5 46.5s33.833 42.5 44.5 68.5s16 54 16 84s-5.33301 58.167 -16 84.5s-25.5 49.333 -44.5 69s-41.167 35.167 -66.5 46.5s-52.666 17 -81.999 17c-28.667 0 -55.667 -5.66699 -81 -17
s-47.333 -26.833 -66 -46.5s-33.334 -42.667 -44.001 -69s-16 -54.5 -16 -84.5s5.33301 -58 16 -84s25.334 -48.833 44.001 -68.5s40.667 -35.167 66 -46.5s52.333 -17 81 -17z" />
    <glyph glyph-name="OE" unicode="&#x152;" horiz-adv-x="1181" 
d="M691 122c-32 -40.667 -71.667 -72.833 -119 -96.5s-100.333 -35.5 -159 -35.5c-52 0 -100.667 9.83301 -146 29.5s-84.833 46.5 -118.5 80.5s-60.334 73.667 -80.001 119s-29.5 94 -29.5 146s9.83301 100.667 29.5 146s46.334 85 80.001 119s73.167 60.833 118.5 80.5
s94 29.5 146 29.5c58.667 0 111.667 -12 159 -36s87 -56.333 119 -97v123h440v-92h-343v-226h343v-92h-343v-227h343v-93h-440v122zM413 86.001c38.667 0 75 7.33301 109 22s63.5 34.667 88.5 60s44.667 55 59 89s21.5 70 21.5 108v11
c-1.33301 37.333 -9.5 72.333 -24.5 105s-35 61.167 -60 85.5s-54 43.5 -87 57.5s-68.5 21 -106.5 21c-38.667 0 -74.834 -7.33301 -108.501 -22s-63 -34.667 -88 -60s-44.667 -55 -59 -89s-21.5 -70.333 -21.5 -109c0 -38 7.16699 -74 21.5 -108s34 -63.667 59 -89
s54.333 -45.333 88 -60s69.834 -22 108.501 -22z" />
    <glyph glyph-name="oe" unicode="&#x153;" horiz-adv-x="1203" 
d="M344 -12c-42 0 -81.335 7.83105 -118.002 23.498s-68.834 37.167 -96.501 64.5s-49.334 59.5 -65.001 96.5s-23.5 76.833 -23.5 119.5c0 43.333 7.83301 83.5 23.5 120.5s37.334 69.167 65.001 96.5s59.834 48.833 96.501 64.5s76 23.5 118 23.5
c56.667 0 107.5 -13.167 152.5 -39.5s80.167 -61.5 105.5 -105.5c25.333 44 60 79.167 104 105.5s95 39.5 153 39.5c42.667 0 82.167 -7.16699 118.5 -21.5s68 -34.666 95 -60.999s48.167 -57.666 63.5 -93.999s23 -76.5 23 -120.5v-37h-512c3.33301 -28 11 -53.667 23 -77
s27.5 -43.333 46.5 -60s41.167 -29.667 66.5 -39s52.333 -14 81 -14c48 0 88.833 11.833 122.5 35.5s58.834 54.5 75.501 92.5l82 -38c-24.667 -54 -60.667 -96.667 -108 -128s-104.666 -47 -171.999 -47c-60.667 0 -113.5 12.667 -158.5 38s-80.167 59.666 -105.5 102.999
c-26 -43.333 -61.167 -77.666 -105.5 -102.999s-94.5 -38 -150.5 -38zM343.998 75.998c29.333 0 56.833 5.66699 82.5 17s47.834 26.833 66.501 46.5s33.334 42.5 44.001 68.5s16 54 16 84s-5.33301 58.333 -16 85s-25.334 49.667 -44.001 69s-40.834 34.666 -66.501 45.999
s-53.167 17 -82.5 17s-56.666 -5.66699 -81.999 -17s-47.166 -26.666 -65.499 -45.999s-32.833 -42.333 -43.5 -69s-16 -55 -16 -85s5.33301 -58 16 -84s25.167 -48.833 43.5 -68.5s40.166 -35.167 65.499 -46.5s52.666 -17 81.999 -17zM859.998 511.998
c-26 0 -50.333 -4.16895 -73 -12.502s-43 -19.666 -61 -33.999s-33.167 -31.666 -45.5 -51.999s-21.5 -42.5 -27.5 -66.5h410c-9.33301 52 -32 92.5 -68 121.5s-81 43.5 -135 43.5z" />
    <glyph glyph-name="Racute" unicode="&#x154;" horiz-adv-x="593" 
d="M60 730h234.001c38 0 72.5 -6.16699 103.5 -18.5s57.667 -29 80 -50s39.666 -45.833 51.999 -74.5s18.5 -59.667 18.5 -93c0 -24 -3.66699 -47.167 -11 -69.5s-17.5 -43 -30.5 -62s-28.667 -35.833 -47 -50.5s-38.5 -26.667 -60.5 -36l160 -276h-109l-144 254h-151v-254
h-95v730zM155.001 640v-297h128c27.333 0 51.5 4.5 72.5 13.5s38.5 20.667 52.5 35s24.5 30.5 31.5 48.5s10.5 36 10.5 54c0 43.333 -14.167 78.5 -42.5 105.5s-69.5 40.5 -123.5 40.5h-129zM332.001 950h105l-146 -163h-75z" />
    <glyph glyph-name="racute" unicode="&#x155;" horiz-adv-x="434" 
d="M64 585h93.999v-84c28.667 56.667 78 85 148 85c25.333 0 47 -3 65 -9s34.333 -13 49 -21l-40 -89c-11.333 7.33301 -23 13.5 -35 18.5s-30 7.5 -54 7.5c-39.333 0 -71.166 -13 -95.499 -39s-36.5 -67.333 -36.5 -124v-17.5v-39v-53c0 -19.667 0.333008 -39.5 1 -59.5
v-161h-96v585zM305.999 805h105l-146 -163h-75z" />
    <glyph glyph-name="uni0156" unicode="&#x156;" horiz-adv-x="593" 
d="M60 730h234.001c38 0 72.5 -6.16699 103.5 -18.5s57.667 -29 80 -50s39.666 -45.833 51.999 -74.5s18.5 -59.667 18.5 -93c0 -24 -3.66699 -47.167 -11 -69.5s-17.5 -43 -30.5 -62s-28.667 -35.833 -47 -50.5s-38.5 -26.667 -60.5 -36l160 -276h-109l-144 254h-151v-254
h-95v730zM155.001 640v-297h128c27.333 0 51.5 4.5 72.5 13.5s38.5 20.667 52.5 35s24.5 30.5 31.5 48.5s10.5 36 10.5 54c0 43.333 -14.167 78.5 -42.5 105.5s-69.5 40.5 -123.5 40.5h-129zM227.001 -281l40 204h86l-63 -204h-63z" />
    <glyph glyph-name="uni0157" unicode="&#x157;" horiz-adv-x="434" 
d="M64 585h93.999v-84c28.667 56.667 78 85 148 85c25.333 0 47 -3 65 -9s34.333 -13 49 -21l-40 -89c-11.333 7.33301 -23 13.5 -35 18.5s-30 7.5 -54 7.5c-39.333 0 -71.166 -13 -95.499 -39s-36.5 -67.333 -36.5 -124v-17.5v-39v-53c0 -19.667 0.333008 -39.5 1 -59.5
v-161h-96v585zM26.999 -254l40 204h86l-63 -204h-63z" />
    <glyph glyph-name="Rcaron" unicode="&#x158;" horiz-adv-x="593" 
d="M60 730h234.001c38 0 72.5 -6.16699 103.5 -18.5s57.667 -29 80 -50s39.666 -45.833 51.999 -74.5s18.5 -59.667 18.5 -93c0 -24 -3.66699 -47.167 -11 -69.5s-17.5 -43 -30.5 -62s-28.667 -35.833 -47 -50.5s-38.5 -26.667 -60.5 -36l160 -276h-109l-144 254h-151v-254
h-95v730zM155.001 640v-297h128c27.333 0 51.5 4.5 72.5 13.5s38.5 20.667 52.5 35s24.5 30.5 31.5 48.5s10.5 36 10.5 54c0 43.333 -14.167 78.5 -42.5 105.5s-69.5 40.5 -123.5 40.5h-129zM147.001 950h85l68 -98l70 98h84l-119 -163h-69z" />
    <glyph glyph-name="rcaron" unicode="&#x159;" horiz-adv-x="434" 
d="M64 585h93.999v-84c28.667 56.667 78 85 148 85c25.333 0 47 -3 65 -9s34.333 -13 49 -21l-40 -89c-11.333 7.33301 -23 13.5 -35 18.5s-30 7.5 -54 7.5c-39.333 0 -71.166 -13 -95.499 -39s-36.5 -67.333 -36.5 -124v-17.5v-39v-53c0 -19.667 0.333008 -39.5 1 -59.5
v-161h-96v585zM82.999 807h85l68 -98l70 98h84l-119 -163h-69z" />
    <glyph glyph-name="Sacute" unicode="&#x15a;" horiz-adv-x="562" 
d="M351 950h105l-146 -163h-75zM282 -10c-60.667 0 -112.495 11.8301 -155.495 35.4971s-79.5 55.167 -109.5 94.5l85 66c22 -34 47.833 -60 77.5 -78s63.5 -27 101.5 -27c42.667 0 77 11.833 103 35.5s39 53.5 39 89.5c0 20 -4.66699 37 -14 51s-21.833 26 -37.5 36
s-33.667 18.667 -54 26s-41.5 14.333 -63.5 21c-24.667 8 -49.167 17 -73.5 27s-46.333 22.5 -66 37.5s-35.5 33.833 -47.5 56.5s-18 50.334 -18 83.001c0 27.333 5.83301 53 17.5 77s27.667 44.833 48 62.5s44.666 31.5 72.999 41.5s58.833 15 91.5 15
c54 0 99.167 -9.66699 135.5 -29s68.166 -45 95.499 -77l-79 -59c-34.667 52.667 -85.334 79 -152.001 79c-39.333 0 -71 -10.167 -95 -30.5s-36 -46.166 -36 -77.499c0 -18.667 4.66699 -34.667 14 -48s21.666 -24.666 36.999 -33.999s33 -17.5 53 -24.5l62 -21.5
c25.333 -8.66699 50.5 -18.167 75.5 -28.5s47.333 -23.5 67 -39.5s35.667 -35.5 48 -58.5s18.5 -51.5 18.5 -85.5c0 -28 -5.66699 -55 -17 -81s-27.333 -49 -48 -69s-45.834 -36 -75.501 -48s-63.167 -18 -100.5 -18z" />
    <glyph glyph-name="sacute" unicode="&#x15b;" horiz-adv-x="533" 
d="M343 815h105l-146 -163h-75zM264 -12c-54.667 0 -102.671 10.6631 -144.004 31.9961s-75.333 51 -102 89l81 53c18.667 -27.333 42.334 -49.166 71.001 -65.499s61 -24.5 97 -24.5c43.333 0 75.833 9.66699 97.5 29s32.5 42 32.5 68c0 15.333 -4.33301 27.666 -13 36.999
s-20.334 17.166 -35.001 23.499s-31.167 11.666 -49.5 15.999l-57.5 13.5c-24 6 -47.833 12.667 -71.5 20s-44.667 17.333 -63 30s-33.333 28.5 -45 47.5s-17.5 42.833 -17.5 71.5c0 22 5 43.333 15 64s24.333 38.834 43 54.501s41.334 28.167 68.001 37.5
s56.334 14 89.001 14c47.333 0 90.5 -8.5 129.5 -25.5s70.167 -40.833 93.5 -71.5l-75 -52c-18 21.333 -39.167 38 -63.5 50s-52.5 18 -84.5 18c-39.333 0 -69.166 -8.5 -89.499 -25.5s-30.5 -37.5 -30.5 -61.5c0 -14 4 -25.667 12 -35s18.667 -17.333 32 -24
s29.333 -12.167 48 -16.5s38.334 -9.16602 59.001 -14.499c23.333 -6 47 -12.667 71 -20s45.5 -17.166 64.5 -29.499s34.5 -28.166 46.5 -47.499s18 -43.666 18 -72.999c0 -19.333 -4.33301 -39.666 -13 -60.999s-22.167 -41 -40.5 -59s-41.833 -32.833 -70.5 -44.5
s-63 -17.5 -103 -17.5z" />
    <glyph glyph-name="Scircumflex" unicode="&#x15c;" horiz-adv-x="562" 
d="M282 -10c-60.667 0 -112.495 11.8301 -155.495 35.4971s-79.5 55.167 -109.5 94.5l85 66c22 -34 47.833 -60 77.5 -78s63.5 -27 101.5 -27c42.667 0 77 11.833 103 35.5s39 53.5 39 89.5c0 20 -4.66699 37 -14 51s-21.833 26 -37.5 36s-33.667 18.667 -54 26
s-41.5 14.333 -63.5 21c-24.667 8 -49.167 17 -73.5 27s-46.333 22.5 -66 37.5s-35.5 33.833 -47.5 56.5s-18 50.334 -18 83.001c0 27.333 5.83301 53 17.5 77s27.667 44.833 48 62.5s44.666 31.5 72.999 41.5s58.833 15 91.5 15c54 0 99.167 -9.66699 135.5 -29
s68.166 -45 95.499 -77l-79 -59c-34.667 52.667 -85.334 79 -152.001 79c-39.333 0 -71 -10.167 -95 -30.5s-36 -46.166 -36 -77.499c0 -18.667 4.66699 -34.667 14 -48s21.666 -24.666 36.999 -33.999s33 -17.5 53 -24.5l62 -21.5c25.333 -8.66699 50.5 -18.167 75.5 -28.5
s47.333 -23.5 67 -39.5s35.667 -35.5 48 -58.5s18.5 -51.5 18.5 -85.5c0 -28 -5.66699 -55 -17 -81s-27.333 -49 -48 -69s-45.834 -36 -75.501 -48s-63.167 -18 -100.5 -18zM245.005 949.997h69l119 -163h-84l-70 98l-68 -98h-85z" />
    <glyph glyph-name="scircumflex" unicode="&#x15d;" horiz-adv-x="533" 
d="M264 -12c-54.667 0 -102.671 10.6631 -144.004 31.9961s-75.333 51 -102 89l81 53c18.667 -27.333 42.334 -49.166 71.001 -65.499s61 -24.5 97 -24.5c43.333 0 75.833 9.66699 97.5 29s32.5 42 32.5 68c0 15.333 -4.33301 27.666 -13 36.999
s-20.334 17.166 -35.001 23.499s-31.167 11.666 -49.5 15.999l-57.5 13.5c-24 6 -47.833 12.667 -71.5 20s-44.667 17.333 -63 30s-33.333 28.5 -45 47.5s-17.5 42.833 -17.5 71.5c0 22 5 43.333 15 64s24.333 38.834 43 54.501s41.334 28.167 68.001 37.5
s56.334 14 89.001 14c47.333 0 90.5 -8.5 129.5 -25.5s70.167 -40.833 93.5 -71.5l-75 -52c-18 21.333 -39.167 38 -63.5 50s-52.5 18 -84.5 18c-39.333 0 -69.166 -8.5 -89.499 -25.5s-30.5 -37.5 -30.5 -61.5c0 -14 4 -25.667 12 -35s18.667 -17.333 32 -24
s29.333 -12.167 48 -16.5s38.334 -9.16602 59.001 -14.499c23.333 -6 47 -12.667 71 -20s45.5 -17.166 64.5 -29.499s34.5 -28.166 46.5 -47.499s18 -43.666 18 -72.999c0 -19.333 -4.33301 -39.666 -13 -60.999s-22.167 -41 -40.5 -59s-41.833 -32.833 -70.5 -44.5
s-63 -17.5 -103 -17.5zM232.996 809.996h69l119 -163h-84l-70 98l-68 -98h-85z" />
    <glyph glyph-name="Scedilla" unicode="&#x15e;" horiz-adv-x="562" 
d="M279 -235c-29.333 0 -55.9941 5.16309 -79.9941 15.4961s-45 23.833 -63 40.5l64 39c12 -10 24.167 -18.333 36.5 -25s28.166 -10 47.499 -10c18 0 33.333 3.66699 46 11s19 16.666 19 27.999c0 22.667 -22.667 34 -68 34h-43v95c-49.333 5.33301 -92 19.333 -128 42
s-67 51 -93 85l85 66c22 -34 47.833 -60 77.5 -78s63.5 -27 101.5 -27c42.667 0 77 11.833 103 35.5s39 53.5 39 89.5c0 20 -4.66699 37 -14 51s-21.833 26 -37.5 36s-33.667 18.667 -54 26s-41.5 14.333 -63.5 21c-24.667 8 -49.167 17 -73.5 27s-46.333 22.5 -66 37.5
s-35.5 33.833 -47.5 56.5s-18 50.334 -18 83.001c0 27.333 5.83301 53 17.5 77s27.667 44.833 48 62.5s44.666 31.5 72.999 41.5s58.833 15 91.5 15c54 0 99.167 -9.66699 135.5 -29s68.166 -45 95.499 -77l-79 -59c-34.667 52.667 -85.334 79 -152.001 79
c-39.333 0 -71 -10.167 -95 -30.5s-36 -46.166 -36 -77.499c0 -18.667 4.66699 -34.667 14 -48s21.666 -24.666 36.999 -33.999s33 -17.5 53 -24.5l62 -21.5c25.333 -8.66699 50.5 -18.167 75.5 -28.5s47.333 -23.5 67 -39.5s35.667 -35.5 48 -58.5s18.5 -51.5 18.5 -85.5
c0 -26.667 -5 -52.334 -15 -77.001s-24.333 -46.667 -43 -66s-41.334 -35.5 -68.001 -48.5s-56.667 -20.833 -90 -23.5v-44c36 0.666992 64.667 -6.66602 86 -21.999s32 -34.666 32 -57.999c0 -15.333 -3.83301 -29.166 -11.5 -41.499s-18.167 -23 -31.5 -32
s-28.833 -16 -46.5 -21s-36.5 -7.5 -56.5 -7.5z" />
    <glyph glyph-name="scedilla" unicode="&#x15f;" horiz-adv-x="533" 
d="M255 -238c-29.333 0 -56.0029 5.16309 -80.0029 15.4961s-45 23.833 -63 40.5l64 39c12 -10 24.167 -18.333 36.5 -25s28.166 -10 47.499 -10c18 0 33.333 3.66699 46 11s19 16.666 19 27.999c0 22.667 -22.667 34 -68 34h-43v97
c-42.667 5.33301 -80.5 18.166 -113.5 38.499s-60.5 46.5 -82.5 78.5l81 53c18.667 -27.333 42.334 -49.166 71.001 -65.499s61 -24.5 97 -24.5c43.333 0 75.833 9.66699 97.5 29s32.5 42 32.5 68c0 15.333 -4.33301 27.666 -13 36.999s-20.334 17.166 -35.001 23.499
s-31.167 11.666 -49.5 15.999l-57.5 13.5c-24 6 -47.833 12.667 -71.5 20s-44.667 17.333 -63 30s-33.333 28.5 -45 47.5s-17.5 42.833 -17.5 71.5c0 22 5 43.333 15 64s24.333 38.834 43 54.501s41.334 28.167 68.001 37.5s56.334 14 89.001 14
c47.333 0 90.5 -8.5 129.5 -25.5s70.167 -40.833 93.5 -71.5l-75 -52c-18 21.333 -39.167 38 -63.5 50s-52.5 18 -84.5 18c-39.333 0 -69.166 -8.5 -89.499 -25.5s-30.5 -37.5 -30.5 -61.5c0 -14 4 -25.667 12 -35s18.667 -17.333 32 -24s29.333 -12.167 48 -16.5
s38.334 -9.16602 59.001 -14.499c23.333 -6 47 -12.667 71 -20s45.5 -17.166 64.5 -29.499s34.5 -28.166 46.5 -47.499s18 -43.666 18 -72.999c0 -18.667 -4 -38.167 -12 -58.5s-20.333 -39.333 -37 -57s-38.167 -32.5 -64.5 -44.5s-57.833 -19 -94.5 -21v-45
c36 0.666992 64.667 -6.66602 86 -21.999s32 -34.666 32 -57.999c0 -15.333 -3.83301 -29.166 -11.5 -41.499s-18.167 -23 -31.5 -32s-28.833 -16 -46.5 -21s-36.5 -7.5 -56.5 -7.5z" />
    <glyph glyph-name="Scaron" unicode="&#x160;" horiz-adv-x="562" 
d="M282 -10c-60.667 0 -112.495 11.8301 -155.495 35.4971s-79.5 55.167 -109.5 94.5l85 66c22 -34 47.833 -60 77.5 -78s63.5 -27 101.5 -27c42.667 0 77 11.833 103 35.5s39 53.5 39 89.5c0 20 -4.66699 37 -14 51s-21.833 26 -37.5 36s-33.667 18.667 -54 26
s-41.5 14.333 -63.5 21c-24.667 8 -49.167 17 -73.5 27s-46.333 22.5 -66 37.5s-35.5 33.833 -47.5 56.5s-18 50.334 -18 83.001c0 27.333 5.83301 53 17.5 77s27.667 44.833 48 62.5s44.666 31.5 72.999 41.5s58.833 15 91.5 15c54 0 99.167 -9.66699 135.5 -29
s68.166 -45 95.499 -77l-79 -59c-34.667 52.667 -85.334 79 -152.001 79c-39.333 0 -71 -10.167 -95 -30.5s-36 -46.166 -36 -77.499c0 -18.667 4.66699 -34.667 14 -48s21.666 -24.666 36.999 -33.999s33 -17.5 53 -24.5l62 -21.5c25.333 -8.66699 50.5 -18.167 75.5 -28.5
s47.333 -23.5 67 -39.5s35.667 -35.5 48 -58.5s18.5 -51.5 18.5 -85.5c0 -28 -5.66699 -55 -17 -81s-27.333 -49 -48 -69s-45.834 -36 -75.501 -48s-63.167 -18 -100.5 -18zM130.005 949.997h85l68 -98l70 98h84l-119 -163h-69z" />
    <glyph glyph-name="scaron" unicode="&#x161;" horiz-adv-x="533" 
d="M264 -12c-54.667 0 -102.671 10.6631 -144.004 31.9961s-75.333 51 -102 89l81 53c18.667 -27.333 42.334 -49.166 71.001 -65.499s61 -24.5 97 -24.5c43.333 0 75.833 9.66699 97.5 29s32.5 42 32.5 68c0 15.333 -4.33301 27.666 -13 36.999
s-20.334 17.166 -35.001 23.499s-31.167 11.666 -49.5 15.999l-57.5 13.5c-24 6 -47.833 12.667 -71.5 20s-44.667 17.333 -63 30s-33.333 28.5 -45 47.5s-17.5 42.833 -17.5 71.5c0 22 5 43.333 15 64s24.333 38.834 43 54.501s41.334 28.167 68.001 37.5
s56.334 14 89.001 14c47.333 0 90.5 -8.5 129.5 -25.5s70.167 -40.833 93.5 -71.5l-75 -52c-18 21.333 -39.167 38 -63.5 50s-52.5 18 -84.5 18c-39.333 0 -69.166 -8.5 -89.499 -25.5s-30.5 -37.5 -30.5 -61.5c0 -14 4 -25.667 12 -35s18.667 -17.333 32 -24
s29.333 -12.167 48 -16.5s38.334 -9.16602 59.001 -14.499c23.333 -6 47 -12.667 71 -20s45.5 -17.166 64.5 -29.499s34.5 -28.166 46.5 -47.499s18 -43.666 18 -72.999c0 -19.333 -4.33301 -39.666 -13 -60.999s-22.167 -41 -40.5 -59s-41.833 -32.833 -70.5 -44.5
s-63 -17.5 -103 -17.5zM107.996 814.996h85l68 -98l70 98h84l-119 -163h-69z" />
    <glyph glyph-name="uni0162" unicode="&#x162;" horiz-adv-x="605" 
d="M221 -259l40 204h86l-63 -204h-63zM256 639h-212v91h520v-91h-212v-639h-96v639z" />
    <glyph glyph-name="uni0163" unicode="&#x163;" horiz-adv-x="403" 
d="M28 585h102v111l94 65v-176h137v-86h-137v-272c0 -29.333 1.66699 -53 5 -71s10 -31.833 20 -41.5s24 -16.167 42 -19.5s41.333 -5 70 -5v-90h-14c-42.667 0 -78 3.5 -106 10.5s-50.167 19.167 -66.5 36.5s-27.833 40.5 -34.5 69.5s-10 65.5 -10 109.5v273h-102v86z
M160 -257l40 204h86l-63 -204h-63z" />
    <glyph glyph-name="Tcaron" unicode="&#x164;" horiz-adv-x="605" 
d="M256 639h-212v91h520v-91h-212v-639h-96v639zM145 950h85l68 -98l70 98h84l-119 -163h-69z" />
    <glyph glyph-name="tcaron" unicode="&#x165;" horiz-adv-x="403" 
d="M28 585h102v111l94 65v-176h137v-86h-137v-272c0 -29.333 1.66699 -53 5 -71s10 -31.833 20 -41.5s24 -16.167 42 -19.5s41.333 -5 70 -5v-90h-14c-42.667 0 -78 3.5 -106 10.5s-50.167 19.167 -66.5 36.5s-27.833 40.5 -34.5 69.5s-10 65.5 -10 109.5v273h-102v86z
M304 810h82l-56 -176h-62z" />
    <glyph glyph-name="Tbar" unicode="&#x166;" horiz-adv-x="605" 
d="M145 437h111v202h-212v91h520v-91h-212v-202h109v-91h-109v-346h-96v346h-111v91z" />
    <glyph glyph-name="tbar" unicode="&#x167;" horiz-adv-x="403" 
d="M28 585h101.001v111l95 65v-176h137v-86h-137v-152h137v-81h-137v-39c0 -29.333 1.66699 -53 5 -71s10 -31.833 20 -41.5s24 -16.167 42 -19.5s41.333 -5 70 -5v-90h-14c-42.667 0 -78 3.5 -106 10.5s-50.333 19.167 -67 36.5s-28.334 40.5 -35.001 69.5
s-10 65.5 -10 109.5v40h-101v81h101v152h-101v86z" />
    <glyph glyph-name="Utilde" unicode="&#x168;" horiz-adv-x="625" 
d="M312 -10c-36.667 0 -70.4961 6 -101.496 18s-57.833 29.167 -80.5 51.5s-40.334 49.166 -53.001 80.499s-19 66 -19 104v486h96v-492c0 -21.333 4 -41.5 12 -60.5s19.167 -35.667 33.5 -50s31.166 -25.666 50.499 -33.999s40 -12.5 62 -12.5s42.667 4.16699 62 12.5
s36.166 19.666 50.499 33.999s25.666 31 33.999 50s12.5 39.167 12.5 60.5v492h96v-486c0 -38 -6.5 -72.667 -19.5 -104s-30.833 -58.166 -53.5 -80.499s-49.5 -39.5 -80.5 -51.5s-64.833 -18 -101.5 -18zM139.004 787c0 37.333 8.99707 67.166 26.9971 89.499
s42.333 33.5 73 33.5c16.667 0 31.334 -2.66699 44.001 -8s24.667 -11.666 36 -18.999l30.5 -18.5c9.66699 -5.66699 19.834 -8.5 30.501 -8.5c24 0 36 16.667 36 50h66c0 -38 -8.5 -68 -25.5 -90s-42.167 -33 -75.5 -33c-19.333 0 -36.166 3.5 -50.499 10.5
s-27.833 14.167 -40.5 21.5l-25.5 14.5c-7.66699 4.33301 -16.167 6.5 -25.5 6.5c-23.333 0 -35 -16.333 -35 -49h-65z" />
    <glyph glyph-name="utilde" unicode="&#x169;" horiz-adv-x="636" 
d="M302 -12c-76.667 0 -135.837 23.332 -177.504 69.999s-62.5 111.667 -62.5 195v332h47c4 29.333 14.667 52.5 32 69.5s39.333 25.5 66 25.5c16.667 0 31.334 -2.66699 44.001 -8s24.667 -11.666 36 -18.999l30.5 -18.5c9.66699 -5.66699 19.834 -8.5 30.501 -8.5
c24 0 36 16.667 36 50h66c0 -38 -8.5 -68 -25.5 -90s-42.167 -33 -75.5 -33c-19.333 0 -36.166 3.5 -50.499 10.5s-27.833 14.167 -40.5 21.5l-25.5 14.5c-7.66699 4.33301 -16.167 6.5 -25.5 6.5c-23.333 0 -35 -16.333 -35 -49h-14v-300c0 -56 12.833 -100.667 38.5 -134
s66.167 -50 121.5 -50c50 0 89 17.333 117 52s42 79.667 42 135v325h95v-585h-93v82c-17.333 -28.667 -40.666 -51.5 -69.999 -68.5s-65 -25.5 -107 -25.5z" />
    <glyph glyph-name="Umacron" unicode="&#x16a;" horiz-adv-x="625" 
d="M312 -10c-36.667 0 -70.4961 6 -101.496 18s-57.833 29.167 -80.5 51.5s-40.334 49.166 -53.001 80.499s-19 66 -19 104v486h96v-492c0 -21.333 4 -41.5 12 -60.5s19.167 -35.667 33.5 -50s31.166 -25.666 50.499 -33.999s40 -12.5 62 -12.5s42.667 4.16699 62 12.5
s36.166 19.666 50.499 33.999s25.666 31 33.999 50s12.5 39.167 12.5 60.5v492h96v-486c0 -38 -6.5 -72.667 -19.5 -104s-30.833 -58.166 -53.5 -80.499s-49.5 -39.5 -80.5 -51.5s-64.833 -18 -101.5 -18zM178.004 857h264v-70h-264v70z" />
    <glyph glyph-name="umacron" unicode="&#x16b;" horiz-adv-x="636" 
d="M302 -12c-76.667 0 -135.834 23.333 -177.501 70s-62.5 111.667 -62.5 195v332h96v-328c0 -56 12.833 -100.667 38.5 -134s66.167 -50 121.5 -50c50 0 89 17.333 117 52s42 79.667 42 135v325h95v-585h-93v82c-17.333 -28.667 -40.666 -51.5 -69.999 -68.5
s-65 -25.5 -107 -25.5zM185 712h264v-70h-264v70z" />
    <glyph glyph-name="Ubreve" unicode="&#x16c;" horiz-adv-x="625" 
d="M312 -10c-36.667 0 -70.4961 6 -101.496 18s-57.833 29.167 -80.5 51.5s-40.334 49.166 -53.001 80.499s-19 66 -19 104v486h96v-492c0 -21.333 4 -41.5 12 -60.5s19.167 -35.667 33.5 -50s31.166 -25.666 50.499 -33.999s40 -12.5 62 -12.5s42.667 4.16699 62 12.5
s36.166 19.666 50.499 33.999s25.666 31 33.999 50s12.5 39.167 12.5 60.5v492h96v-486c0 -38 -6.5 -72.667 -19.5 -104s-30.833 -58.166 -53.5 -80.499s-49.5 -39.5 -80.5 -51.5s-64.833 -18 -101.5 -18zM311.004 782c-27.333 0 -51.1689 4.33301 -71.502 13
s-37.166 20.334 -50.499 35.001s-23.166 32 -29.499 52s-9.5 41.333 -9.5 64h70c0 -32 7.66699 -57 23 -75s38 -27.333 68 -28c29.333 0.666992 51.833 10 67.5 28s23.5 43 23.5 75h71c0 -22.667 -3.66699 -44 -11 -64s-18 -37.333 -32 -52s-31 -26.334 -51 -35.001
s-42.667 -13 -68 -13z" />
    <glyph glyph-name="ubreve" unicode="&#x16d;" horiz-adv-x="636" 
d="M302 -12c-76.667 0 -135.834 23.333 -177.501 70s-62.5 111.667 -62.5 195v332h96v-328c0 -56 12.833 -100.667 38.5 -134s66.167 -50 121.5 -50c50 0 89 17.333 117 52s42 79.667 42 135v325h95v-585h-93v82c-17.333 -28.667 -40.666 -51.5 -69.999 -68.5
s-65 -25.5 -107 -25.5zM322 618c-27.333 0 -51.1689 4.33301 -71.502 13s-37.166 20.334 -50.499 35.001s-23.166 32 -29.499 52s-9.5 41.333 -9.5 64h70c0 -32 7.66699 -57 23 -75s38 -27.333 68 -28c29.333 0.666992 51.833 10 67.5 28s23.5 43 23.5 75h71
c0 -22.667 -3.66699 -44 -11 -64s-18 -37.333 -32 -52s-31 -26.334 -51 -35.001s-42.667 -13 -68 -13z" />
    <glyph glyph-name="Uring" unicode="&#x16e;" horiz-adv-x="625" 
d="M308 764c-14.667 0 -28.667 2.83301 -42 8.5s-24.833 13.334 -34.5 23.001s-17.334 21.167 -23.001 34.5s-8.5 27.666 -8.5 42.999s2.83301 29.666 8.5 42.999s13.334 25 23.001 35s21.167 17.833 34.5 23.5s27.333 8.5 42 8.5c15.333 0 29.833 -2.83301 43.5 -8.5
s25.5 -13.5 35.5 -23.5s17.833 -21.667 23.5 -35s8.5 -27.666 8.5 -42.999s-2.83301 -29.666 -8.5 -42.999s-13.5 -24.833 -23.5 -34.5s-21.833 -17.334 -35.5 -23.001s-28.167 -8.5 -43.5 -8.5zM308 827c13.333 0 24.5 4.33301 33.5 13s13.5 19.667 13.5 33
c0 12.667 -4.5 23.667 -13.5 33s-20.167 14 -33.5 14c-12.667 0 -23.5 -4.66699 -32.5 -14s-13.5 -20.333 -13.5 -33c0 -13.333 4.5 -24.333 13.5 -33s19.833 -13 32.5 -13zM312 -10c-36.667 0 -70.4961 6 -101.496 18s-57.833 29.167 -80.5 51.5
s-40.334 49.166 -53.001 80.499s-19 66 -19 104v486h96v-492c0 -21.333 4 -41.5 12 -60.5s19.167 -35.667 33.5 -50s31.166 -25.666 50.499 -33.999s40 -12.5 62 -12.5s42.667 4.16699 62 12.5s36.166 19.666 50.499 33.999s25.666 31 33.999 50s12.5 39.167 12.5 60.5v492
h96v-486c0 -38 -6.5 -72.667 -19.5 -104s-30.833 -58.166 -53.5 -80.499s-49.5 -39.5 -80.5 -51.5s-64.833 -18 -101.5 -18z" />
    <glyph glyph-name="uring" unicode="&#x16f;" horiz-adv-x="636" 
d="M302 -12c-76.667 0 -135.834 23.333 -177.501 70s-62.5 111.667 -62.5 195v332h96v-328c0 -56 12.833 -100.667 38.5 -134s66.167 -50 121.5 -50c50 0 89 17.333 117 52s42 79.667 42 135v325h95v-585h-93v82c-17.333 -28.667 -40.666 -51.5 -69.999 -68.5
s-65 -25.5 -107 -25.5zM279 553c-14.667 0 -28.667 2.83301 -42 8.5s-24.833 13.334 -34.5 23.001s-17.334 21.167 -23.001 34.5s-8.5 27.666 -8.5 42.999s2.83301 29.666 8.5 42.999s13.334 25 23.001 35s21.167 17.833 34.5 23.5s27.333 8.5 42 8.5
c15.333 0 29.833 -2.83301 43.5 -8.5s25.5 -13.5 35.5 -23.5s17.833 -21.667 23.5 -35s8.5 -27.666 8.5 -42.999s-2.83301 -29.666 -8.5 -42.999s-13.5 -24.833 -23.5 -34.5s-21.833 -17.334 -35.5 -23.001s-28.167 -8.5 -43.5 -8.5zM279 616c13.333 0 24.5 4.33301 33.5 13
s13.5 19.667 13.5 33c0 12.667 -4.5 23.667 -13.5 33s-20.167 14 -33.5 14c-12.667 0 -23.5 -4.66699 -32.5 -14s-13.5 -20.333 -13.5 -33c0 -13.333 4.5 -24.333 13.5 -33s19.833 -13 32.5 -13z" />
    <glyph glyph-name="Uhungarumlaut" unicode="&#x170;" horiz-adv-x="625" 
d="M312 -10c-36.667 0 -70.4961 6 -101.496 18s-57.833 29.167 -80.5 51.5s-40.334 49.166 -53.001 80.499s-19 66 -19 104v486h96v-492c0 -21.333 4 -41.5 12 -60.5s19.167 -35.667 33.5 -50s31.166 -25.666 50.499 -33.999s40 -12.5 62 -12.5s42.667 4.16699 62 12.5
s36.166 19.666 50.499 33.999s25.666 31 33.999 50s12.5 39.167 12.5 60.5v492h96v-486c0 -38 -6.5 -72.667 -19.5 -104s-30.833 -58.166 -53.5 -80.499s-49.5 -39.5 -80.5 -51.5s-64.833 -18 -101.5 -18zM301.004 950h100l-147 -163h-69zM449.004 950h99l-146 -163h-70z
" />
    <glyph glyph-name="uhungarumlaut" unicode="&#x171;" horiz-adv-x="636" 
d="M302 -12c-76.667 0 -135.834 23.333 -177.501 70s-62.5 111.667 -62.5 195v332h96v-328c0 -56 12.833 -100.667 38.5 -134s66.167 -50 121.5 -50c50 0 89 17.333 117 52s42 79.667 42 135v325h95v-585h-93v82c-17.333 -28.667 -40.666 -51.5 -69.999 -68.5
s-65 -25.5 -107 -25.5zM464 799h99l-146 -163h-70zM316 799h100l-147 -163h-69z" />
    <glyph glyph-name="Uogonek" unicode="&#x172;" horiz-adv-x="625" 
d="M319 -217c-41.333 0 -74.4961 9.83398 -99.4961 29.501s-37.5 44.167 -37.5 73.5c0 18.667 5 36.834 15 54.501s28.667 36.167 56 55.5c-28.667 6 -55 16 -79 30s-44.5 31.667 -61.5 53s-30.333 46 -40 74s-14.5 58.333 -14.5 91v486h96v-492c0 -21.333 4 -41.5 12 -60.5
s19.167 -35.667 33.5 -50s31.166 -25.666 50.499 -33.999s40 -12.5 62 -12.5s42.667 4.16699 62 12.5s36.166 19.666 50.499 33.999s25.666 31 33.999 50s12.5 39.167 12.5 60.5v492h96v-486c0 -31.333 -4.33301 -60.333 -13 -87s-20.834 -50.334 -36.501 -71.001
s-34.5 -38.334 -56.5 -53.001s-46.333 -25.667 -73 -33c-25.333 -15.333 -46 -28.5 -62 -39.5s-28.5 -20.5 -37.5 -28.5s-15.167 -15.333 -18.5 -22s-5 -13.667 -5 -21c0 -12.667 5.16699 -22.167 15.5 -28.5s23.166 -9.5 38.499 -9.5s28.5 3.16699 39.5 9.5
s21.5 14.166 31.5 23.499l65 -44c-17.333 -15.333 -38.166 -28.666 -62.499 -39.999s-48.833 -17 -73.5 -17z" />
    <glyph glyph-name="uogonek" unicode="&#x173;" horiz-adv-x="636" 
d="M500 -223c-40 0 -70.499 10.666 -91.499 31.999s-31.833 46.666 -32.5 75.999c-0.666992 28.667 8.5 55 27.5 79s44.167 46.667 75.5 68v50c-17.333 -28.667 -40.666 -51.5 -69.999 -68.5s-65 -25.5 -107 -25.5c-76.667 0 -135.834 23.333 -177.501 70
s-62.5 111.667 -62.5 195v332h96v-328c0 -56 12.833 -100.667 38.5 -134s66.167 -50 121.5 -50c50 0 89 17.333 117 52s42 79.667 42 135v325h95v-585h-27c-31.333 -22.667 -54 -43 -68 -61s-21 -34.333 -21 -49c0 -13.333 4.33301 -23.833 13 -31.5s19.667 -11.5 33 -11.5
s24.666 2.83301 33.999 8.5s18.333 12.834 27 21.501l55 -52c-15.333 -13.333 -33 -24.666 -53 -33.999s-41.667 -14 -65 -14z" />
    <glyph glyph-name="Wcircumflex" unicode="&#x174;" horiz-adv-x="1051" 
d="M29 730h102l162 -578l185 578h95l184 -579l167 579h99l-217 -730h-97l-184 579l-186 -579h-99zM489 950h69l119 -163h-84l-70 98l-68 -98h-85z" />
    <glyph glyph-name="wcircumflex" unicode="&#x175;" horiz-adv-x="990" 
d="M32 585h99l144 -453l174 453h88l174 -455l149 455h99l-199 -585h-92l-176 455l-176 -455h-94zM455 802h69l119 -163h-84l-70 98l-68 -98h-85z" />
    <glyph glyph-name="Ycircumflex" unicode="&#x176;" horiz-adv-x="621" 
d="M263 346l-239 384h107l180 -291l180 291h107l-239 -384v-346h-96v346zM275 950h69l119 -163h-84l-70 98l-68 -98h-85z" />
    <glyph glyph-name="ycircumflex" unicode="&#x177;" horiz-adv-x="635" 
d="M276 31l-252 554h104l197 -443l183 443h102l-366 -855h-100zM287 802h69l119 -163h-84l-70 98l-68 -98h-85z" />
    <glyph glyph-name="Ydieresis" unicode="&#x178;" horiz-adv-x="621" 
d="M263 346l-239 384h107l180 -291l180 291h107l-239 -384v-346h-96v346zM344 861c0 18.667 5.66797 33.667 17.001 45s26.666 17 45.999 17c20.667 0 36.5 -5.66699 47.5 -17s16.5 -26.333 16.5 -45c0 -19.333 -5.5 -34.666 -16.5 -45.999s-26.833 -17 -47.5 -17
c-20 0 -35.5 5.66699 -46.5 17s-16.5 26.666 -16.5 45.999zM149.001 861c0 18.667 5.66797 33.667 17.001 45s26.666 17 45.999 17c20.667 0 36.5 -5.66699 47.5 -17s16.5 -26.333 16.5 -45c0 -19.333 -5.5 -34.666 -16.5 -45.999s-26.833 -17 -47.5 -17
c-20 0 -35.5 5.66699 -46.5 17s-16.5 26.666 -16.5 45.999z" />
    <glyph glyph-name="Zacute" unicode="&#x179;" horiz-adv-x="583" 
d="M50 89l369 549h-357v92h471v-88l-369 -549h370v-93h-484v89zM360 950h105l-146 -163h-75z" />
    <glyph glyph-name="zacute" unicode="&#x17a;" horiz-adv-x="603" 
d="M45 89l391 411h-381v85h499v-89l-391 -410h395v-86h-513v89zM371 805h105l-146 -163h-75z" />
    <glyph glyph-name="Zdotaccent" unicode="&#x17b;" horiz-adv-x="583" 
d="M50 89l369 549h-357v92h471v-88l-369 -549h370v-93h-484v89zM231 861c0 19.333 6 34.833 18 46.5s27.667 17.5 47 17.5c21.333 0 37.666 -5.83301 48.999 -17.5s17 -27.167 17 -46.5s-5.66699 -35 -17 -47s-27.666 -18 -48.999 -18c-20.667 0 -36.667 6 -48 18
s-17 27.667 -17 47z" />
    <glyph glyph-name="zdotaccent" unicode="&#x17c;" horiz-adv-x="603" 
d="M45 89l391 411h-381v85h499v-89l-391 -410h395v-86h-513v89zM241 704c0 19.333 6 34.833 18 46.5s27.667 17.5 47 17.5c21.333 0 37.666 -5.83301 48.999 -17.5s17 -27.167 17 -46.5s-5.66699 -35 -17 -47s-27.666 -18 -48.999 -18c-20.667 0 -36.667 6 -48 18
s-17 27.667 -17 47z" />
    <glyph glyph-name="Zcaron" unicode="&#x17d;" horiz-adv-x="583" 
d="M50 89l369 549h-357v92h471v-88l-369 -549h370v-93h-484v89zM141 950h85l68 -98l70 98h84l-119 -163h-69z" />
    <glyph glyph-name="zcaron" unicode="&#x17e;" horiz-adv-x="603" 
d="M45 89l391 411h-381v85h499v-89l-391 -410h395v-86h-513v89zM152 805h85l68 -98l70 98h84l-119 -163h-69z" />
    <glyph glyph-name="florin" unicode="&#x192;" horiz-adv-x="588" 
d="M89 415h172l35 114c11.333 38.667 24.333 70.834 39 96.501s31.334 46.334 50.001 62.001s39.667 26.667 63 33s49.333 9.5 78 9.5h8v-88c-20 0 -37.167 -1.83301 -51.5 -5.5s-27 -9.83398 -38 -18.501s-20.5 -20.5 -28.5 -35.5s-15.333 -34.167 -22 -57.5l-34 -110h152
v-86h-178l-39 -128c-11.333 -38 -23.5 -69.833 -36.5 -95.5s-28.333 -46.334 -46 -62.001s-38.334 -26.834 -62.001 -33.501s-51.5 -10 -83.5 -10h-12v89c21.333 0 39.333 1.83301 54 5.5s27.5 9.83398 38.5 18.501s20.333 20.667 28 36s15.167 34.333 22.5 57l37 123h-146
v86z" />
    <glyph glyph-name="Ohorn" unicode="&#x1a0;" horiz-adv-x="827" 
d="M413 84c39.333 0 75.833 7.5 109.5 22.5s63 35.167 88 60.5s44.667 55 59 89s21.5 70.333 21.5 109s-7.16699 75 -21.5 109s-34 63.833 -59 89.5s-54.333 45.834 -88 60.501s-70.167 22 -109.5 22c-38.667 0 -74.834 -7.33301 -108.501 -22
s-62.834 -34.834 -87.501 -60.501s-44.167 -55.5 -58.5 -89.5s-21.5 -70.333 -21.5 -109s7.16699 -75 21.5 -109s33.833 -63.667 58.5 -89s53.834 -45.5 87.501 -60.5s69.834 -22.5 108.501 -22.5zM627 673c18.667 -12.667 36.001 -26.999 52.001 -42.999
c33.333 -34 59.833 -73.667 79.5 -119s29.5 -94 29.5 -146s-9.83301 -100.667 -29.5 -146s-46.334 -85 -80.001 -119s-73.334 -60.833 -119.001 -80.5s-94.5 -29.5 -146.5 -29.5s-100.667 9.83301 -146 29.5s-84.833 46.5 -118.5 80.5s-60.334 73.667 -80.001 119
s-29.5 94 -29.5 146s9.83301 100.667 29.5 146s46.334 85 80.001 119s73.167 60.833 118.5 80.5s94 29.5 146 29.5c46 0 89.333 -7.66699 130 -23c32.667 0 54.334 8.66699 65.001 26c9.33301 11.333 13 34.666 11 69.999h73c0 -60 -13.667 -101.667 -41 -125
c-6.66699 -6 -14.667 -11 -24 -15z" />
    <glyph glyph-name="ohorn" unicode="&#x1a1;" horiz-adv-x="691" 
d="M344 76c29.333 0 56.666 5.66699 81.999 17s47.5 26.833 66.5 46.5s33.833 42.5 44.5 68.5s16 54 16 84s-5.33301 58.167 -16 84.5s-25.5 49.333 -44.5 69s-41.167 35.167 -66.5 46.5s-52.666 17 -81.999 17c-28.667 0 -55.667 -5.66699 -81 -17
s-47.333 -26.833 -66 -46.5s-33.334 -42.667 -44.001 -69s-16 -54.5 -16 -84.5s5.33301 -58 16 -84s25.334 -48.833 44.001 -68.5s40.667 -35.167 66 -46.5s52.333 -17 81 -17zM545 522c5.33301 -4 10.334 -8.33301 15.001 -13c27.333 -27.333 48.833 -59.5 64.5 -96.5
s23.5 -77.167 23.5 -120.5c0 -42.667 -7.83301 -82.5 -23.5 -119.5s-37.334 -69.167 -65.001 -96.5s-60 -48.833 -97 -64.5s-76.5 -23.5 -118.5 -23.5s-81.333 7.83301 -118 23.5s-68.834 37.167 -96.501 64.5s-49.334 59.5 -65.001 96.5s-23.5 76.833 -23.5 119.5
c0 43.333 7.83301 83.5 23.5 120.5s37.334 69.167 65.001 96.5s59.834 48.833 96.501 64.5s76 23.5 118 23.5s81.667 -7.66699 119 -23c3.33301 -2 6.66602 -3.66699 9.99902 -5c26.667 1.33301 47.334 10.333 62.001 27c9.33301 11.333 13 34.666 11 69.999h73
c0 -60 -13.667 -101.667 -41 -125c-8.66699 -7.33301 -19.667 -13.666 -33 -18.999z" />
    <glyph glyph-name="Uhorn" unicode="&#x1af;" horiz-adv-x="625" 
d="M567 661l0.00390625 -416.999c0 -38 -6.5 -72.667 -19.5 -104s-30.833 -58.166 -53.5 -80.499s-49.5 -39.5 -80.5 -51.5s-64.833 -18 -101.5 -18s-70.5 6 -101.5 18s-57.833 29.167 -80.5 51.5s-40.334 49.166 -53.001 80.499s-19 66 -19 104v486h96v-492
c0 -21.333 4 -41.5 12 -60.5s19.167 -35.667 33.5 -50s31.166 -25.666 50.499 -33.999s40 -12.5 62 -12.5s42.667 4.16699 62 12.5s36.166 19.666 50.499 33.999s25.666 31 33.999 50s12.5 39.167 12.5 60.5v492h93c9.33301 2.66699 16.333 7 21 13
c9.33301 11.333 13 34.666 11 69.999h73c0 -60 -13.667 -101.667 -41 -125c-14.667 -12.667 -35 -21.667 -61 -27z" />
    <glyph glyph-name="uhorn" unicode="&#x1b0;" horiz-adv-x="636" 
d="M572 513l-0.000976562 -512.999h-93v82c-17.333 -28.667 -40.666 -51.5 -69.999 -68.5s-65 -25.5 -107 -25.5c-76.667 0 -135.834 23.333 -177.501 70s-62.5 111.667 -62.5 195v332h96v-328c0 -56 12.833 -100.667 38.5 -134s66.167 -50 121.5 -50c50 0 89 17.333 117 52
s42 79.667 42 135v325h95c8.66699 1.33301 15.334 5 20.001 11c9.33301 11.333 13 34.666 11 69.999h73c0 -60 -13.667 -101.667 -41 -125c-15.333 -12.667 -36.333 -22 -63 -28z" />
    <glyph glyph-name="Aringacute" unicode="&#x1fa;" horiz-adv-x="696" 
d="M283 691c-13.333 10 -23.668 22.5 -31.001 37.5s-11 31.5 -11 49.5c0 15.333 2.83301 29.666 8.5 42.999s13.334 25 23.001 35s21.167 17.833 34.5 23.5s27.333 8.5 42 8.5c15.333 0 29.833 -2.83301 43.5 -8.5s25.5 -13.5 35.5 -23.5s17.833 -21.667 23.5 -35
s8.5 -27.666 8.5 -42.999c0 -18.667 -4.16699 -35.667 -12.5 -51s-19.5 -28 -33.5 -38l255 -689h-101l-62 167h-316l-61 -167h-102zM223.998 260h248l-124 337zM425.998 1085h105l-146 -163h-75zM348.998 732c13.333 0 24.5 4.33301 33.5 13s13.5 19.667 13.5 33
c0 12.667 -4.5 23.667 -13.5 33s-20.167 14 -33.5 14c-12.667 0 -23.5 -4.66699 -32.5 -14s-13.5 -20.333 -13.5 -33c0 -13.333 4.5 -24.333 13.5 -33s19.833 -13 32.5 -13z" />
    <glyph glyph-name="aringacute" unicode="&#x1fb;" horiz-adv-x="712" 
d="M339 -12c-40.667 0 -79.167 7.66699 -115.5 23s-68 36.5 -95 63.5s-48.333 59.167 -64 96.5s-23.5 77.666 -23.5 120.999c0 35.333 5.16699 68.666 15.5 99.999s24.833 59.666 43.5 84.999s40.667 47 66 65s53.333 31.667 84 41c-11.333 17.333 -17 37.333 -17 60
c0 15.333 2.83301 29.666 8.5 42.999s13.334 25 23.001 35s21.167 17.833 34.5 23.5s27.333 8.5 42 8.5c15.333 0 29.833 -2.83301 43.5 -8.5s25.5 -13.5 35.5 -23.5s17.833 -21.667 23.5 -35s8.5 -27.666 8.5 -42.999c0 -23.333 -6.66699 -44.333 -20 -63
c24.667 -9.33301 47.5 -21.666 68.5 -36.999s38.833 -33.666 53.5 -54.999v97h94v-585h-94v99c-23.333 -35.333 -54.833 -62.666 -94.5 -81.999s-79.834 -29 -120.501 -29zM348 76c30 0 58 5.66699 84 17s48.5 26.666 67.5 45.999s34 42.333 45 69s16.5 55 16.5 85
s-5.5 58.167 -16.5 84.5s-26 49.333 -45 69s-41.5 35.167 -67.5 46.5s-54 17 -84 17c-29.333 0 -56.833 -5.66699 -82.5 -17s-48 -26.833 -67 -46.5s-34 -42.667 -45 -69s-16.5 -54.5 -16.5 -84.5s5.5 -58.333 16.5 -85s26 -49.667 45 -69s41.333 -34.666 67 -45.999
s53.167 -17 82.5 -17zM416 948h105l-146 -163h-75zM341 597c13.333 0 24.5 4.33203 33.5 12.999s13.5 19.667 13.5 33c0 12.667 -4.5 23.667 -13.5 33s-20.167 14 -33.5 14c-12.667 0 -23.5 -4.66699 -32.5 -14s-13.5 -20.333 -13.5 -33
c0 -13.333 4.33301 -24.166 13 -32.499s19 -12.833 31 -13.5h2z" />
    <glyph glyph-name="AEacute" unicode="&#x1fc;" horiz-adv-x="993" 
d="M369 730h565v-92h-441l54 -226h387v-92h-365l54 -227h311v-93h-390l-39 164h-300l-77 -164h-105zM247 254h237l-79 335zM614 960h105l-146 -163h-75z" />
    <glyph glyph-name="aeacute" unicode="&#x1fd;" horiz-adv-x="1094" 
d="M756 -12c-59.333 0 -111.33 12.1641 -155.997 36.4971s-80 57.166 -106 98.499c-9.33301 -17.333 -22 -34.166 -38 -50.499s-34.5 -30.666 -55.5 -42.999s-44.333 -22.333 -70 -30s-53.5 -11.5 -83.5 -11.5c-36.667 0 -68.167 4 -94.5 12s-47.833 19.333 -64.5 34
s-29 31.834 -37 51.501s-12.333 40.834 -13 63.501c0 28 5.33301 52.167 16 72.5s25.5 37.5 44.5 51.5s41.167 25.5 66.5 34.5s52.333 16.833 81 23.5l75 17c24.667 5.33301 46.667 11.5 66 18.5s34.833 15.5 46.5 25.5s17.5 23 17.5 39c0 25.333 -12 46.666 -36 63.999
s-60 26 -108 26c-54 0 -95.333 -12.833 -124 -38.5s-43 -57.834 -43 -96.501v-3h-88v2c0 32.667 5.83301 62 17.5 88s28.334 48.167 50.001 66.5s48.167 32.5 79.5 42.5s66.333 15 105 15c54 0 99.667 -8.83301 137 -26.5s64.666 -42.5 81.999 -74.5
c27.333 31.333 60.166 56 98.499 74s81.166 27 128.499 27c42.667 0 82.334 -7.16699 119.001 -21.5s68.5 -34.666 95.5 -60.999s48.167 -57.666 63.5 -93.999s23 -76.5 23 -120.5v-37h-512c3.33301 -28 11 -53.667 23 -77s27.5 -43.333 46.5 -60s41 -29.667 66 -39
s52.167 -14 81.5 -14c47.333 0 87.666 11.833 120.999 35.5s58.666 54.5 75.999 92.5l82 -38c-25.333 -54 -61.5 -96.667 -108.5 -128s-103.833 -47 -170.5 -47zM750.003 511.997c-26 0 -50.167 -4.16895 -72.5 -12.502s-42.333 -19.666 -60 -33.999
s-32.667 -31.666 -45 -51.999s-21.5 -42.5 -27.5 -66.5h409c-9.33301 52 -32 92.5 -68 121.5s-81.333 43.5 -136 43.5zM252.003 67.9951c28 0 53.5 5.00098 76.5 15.001s43.333 22.333 61 37s32.167 30.667 43.5 48s19 33.333 23 48c-4.66699 21.333 -7 45.666 -7 72.999
v16.5c0 5.66699 0.333008 11.167 1 16.5c-8 -14.667 -25.667 -26.167 -53 -34.5s-63 -17.166 -107 -26.499c-24 -4.66699 -45.5 -9.83398 -64.5 -15.501s-35.333 -12.667 -49 -21s-24 -18.333 -31 -30s-10.5 -26.167 -10.5 -43.5c0 -23.333 9 -43 27 -59s48 -24 90 -24z
M613.003 810.996h105l-146 -163h-75z" />
    <glyph glyph-name="Oslashacute" unicode="&#x1fe;" horiz-adv-x="827" 
d="M150 98c-34.667 34 -61.832 73.832 -81.499 119.499s-29.5 94.834 -29.5 147.501c0 52 9.83301 100.667 29.5 146s46.334 85 80.001 119s73.167 60.833 118.5 80.5s94 29.5 146 29.5c36 0 70.5 -4.83301 103.5 -14.5s63.833 -23.167 92.5 -40.5l35 45h112l-78 -100
c34 -34 60.833 -73.667 80.5 -119s29.5 -94 29.5 -146s-9.83301 -100.667 -29.5 -146s-46.334 -85 -80.001 -119s-73.334 -60.833 -119.001 -80.5s-94.5 -29.5 -146.5 -29.5c-36 0 -70.167 4.5 -102.5 13.5s-62.5 22.167 -90.5 39.5l-34 -43h-112zM137.002 364.999
c0 -37.333 6.33496 -72.166 19.002 -104.499s30.667 -61.166 54 -86.499l340 436c-20 11.333 -41.5 20.166 -64.5 26.499s-47.167 9.5 -72.5 9.5c-38.667 0 -74.834 -7.33301 -108.501 -22s-62.834 -34.834 -87.501 -60.501s-44.167 -55.5 -58.5 -89.5
s-21.5 -70.333 -21.5 -109zM413.004 83.999c39.333 0 75.833 7.50098 109.5 22.501s63 35.167 88 60.5s44.667 55 59 89s21.5 70.333 21.5 109c0 36 -6.33301 70.167 -19 102.5s-30.334 61.166 -53.001 86.499l-340 -435c19.333 -11.333 40.333 -20 63 -26
s46.334 -9 71.001 -9zM480.004 950h105l-146 -163h-75z" />
    <glyph glyph-name="oslashacute" unicode="&#x1ff;" horiz-adv-x="691" 
d="M344 -12c-28 0 -54.835 3.5 -80.502 10.5s-49.5 16.833 -71.5 29.5l-22 -28h-101l59 77c-27.333 28 -48.666 60.167 -63.999 96.5s-23 75.833 -23 118.5c0 43.333 7.83301 83.5 23.5 120.5s37.334 69.167 65.001 96.5s59.834 48.833 96.501 64.5s76 23.5 118 23.5
c28 0 54.833 -3.5 80.5 -10.5s49.834 -17.167 72.501 -30.5l22 29h102l-60 -78c27.333 -28 48.666 -60.167 63.999 -96.5s23 -75.833 23 -118.5s-7.83301 -82.5 -23.5 -119.5s-37.334 -69.167 -65.001 -96.5s-60 -48.833 -97 -64.5s-76.5 -23.5 -118.5 -23.5zM343.998 76
c29.333 0 56.8311 5.66699 82.498 17s47.834 26.833 66.501 46.5s33.334 42.5 44.001 68.5s16 54 16 84c0 27.333 -4.33301 52.833 -13 76.5s-20.667 45.167 -36 64.5l-257 -333c28 -16 60.333 -24 97 -24zM136.996 292c0 -27.333 4.16602 -52.833 12.499 -76.5
s20.166 -44.834 35.499 -63.501l256 332c-30 16.667 -62.333 25 -97 25c-29.333 0 -56.666 -5.66699 -81.999 -17s-47.166 -26.666 -65.499 -45.999s-32.833 -42.333 -43.5 -69s-16 -55 -16 -85zM428.995 811h105l-146 -163h-75z" />
    <glyph glyph-name="uni0218" unicode="&#x218;" horiz-adv-x="562" 
d="M202 -252l40 204h86l-63 -204h-63zM282 -10c-60.667 0 -112.495 11.8301 -155.495 35.4971s-79.5 55.167 -109.5 94.5l85 66c22 -34 47.833 -60 77.5 -78s63.5 -27 101.5 -27c42.667 0 77 11.833 103 35.5s39 53.5 39 89.5c0 20 -4.66699 37 -14 51s-21.833 26 -37.5 36
s-33.667 18.667 -54 26s-41.5 14.333 -63.5 21c-24.667 8 -49.167 17 -73.5 27s-46.333 22.5 -66 37.5s-35.5 33.833 -47.5 56.5s-18 50.334 -18 83.001c0 27.333 5.83301 53 17.5 77s27.667 44.833 48 62.5s44.666 31.5 72.999 41.5s58.833 15 91.5 15
c54 0 99.167 -9.66699 135.5 -29s68.166 -45 95.499 -77l-79 -59c-34.667 52.667 -85.334 79 -152.001 79c-39.333 0 -71 -10.167 -95 -30.5s-36 -46.166 -36 -77.499c0 -18.667 4.66699 -34.667 14 -48s21.666 -24.666 36.999 -33.999s33 -17.5 53 -24.5l62 -21.5
c25.333 -8.66699 50.5 -18.167 75.5 -28.5s47.333 -23.5 67 -39.5s35.667 -35.5 48 -58.5s18.5 -51.5 18.5 -85.5c0 -28 -5.66699 -55 -17 -81s-27.333 -49 -48 -69s-45.834 -36 -75.501 -48s-63.167 -18 -100.5 -18z" />
    <glyph glyph-name="uni0219" unicode="&#x219;" horiz-adv-x="533" 
d="M180 -259l40 204h86l-63 -204h-63zM264 -12c-54.667 0 -102.671 10.6631 -144.004 31.9961s-75.333 51 -102 89l81 53c18.667 -27.333 42.334 -49.166 71.001 -65.499s61 -24.5 97 -24.5c43.333 0 75.833 9.66699 97.5 29s32.5 42 32.5 68
c0 15.333 -4.33301 27.666 -13 36.999s-20.334 17.166 -35.001 23.499s-31.167 11.666 -49.5 15.999l-57.5 13.5c-24 6 -47.833 12.667 -71.5 20s-44.667 17.333 -63 30s-33.333 28.5 -45 47.5s-17.5 42.833 -17.5 71.5c0 22 5 43.333 15 64s24.333 38.834 43 54.501
s41.334 28.167 68.001 37.5s56.334 14 89.001 14c47.333 0 90.5 -8.5 129.5 -25.5s70.167 -40.833 93.5 -71.5l-75 -52c-18 21.333 -39.167 38 -63.5 50s-52.5 18 -84.5 18c-39.333 0 -69.166 -8.5 -89.499 -25.5s-30.5 -37.5 -30.5 -61.5c0 -14 4 -25.667 12 -35
s18.667 -17.333 32 -24s29.333 -12.167 48 -16.5s38.334 -9.16602 59.001 -14.499c23.333 -6 47 -12.667 71 -20s45.5 -17.166 64.5 -29.499s34.5 -28.166 46.5 -47.499s18 -43.666 18 -72.999c0 -19.333 -4.33301 -39.666 -13 -60.999s-22.167 -41 -40.5 -59
s-41.833 -32.833 -70.5 -44.5s-63 -17.5 -103 -17.5z" />
    <glyph glyph-name="uni0237" unicode="&#x237;" horiz-adv-x="224" 
d="M-75 -177c28.667 0 52.167 1.49902 70.5 4.49902s32.5 9.33301 42.5 19s16.833 23.334 20.5 41.001s5.5 41.5 5.5 71.5v626h96v-627c0 -44 -3.5 -80.5 -10.5 -109.5s-19 -52.167 -36 -69.5s-39.667 -29.5 -68 -36.5s-63.5 -10.5 -105.5 -10.5h-15v91z" />
    <glyph glyph-name="circumflex" unicode="&#x2c6;" 
d="M210 720h69l119 -163h-84l-70 98l-68 -98h-85z" />
    <glyph glyph-name="caron" unicode="&#x2c7;" 
d="M90 720h85l68 -98l70 98h84l-119 -163h-69z" />
    <glyph glyph-name="breve" unicode="&#x2d8;" 
d="M243 551c-27.333 0 -51.1689 4.33301 -71.502 13s-37.166 20.334 -50.499 35.001s-23.166 32 -29.499 52s-9.5 41.333 -9.5 64h70c0 -32 7.66699 -57 23 -75s38 -27.333 68 -28c29.333 0.666992 51.833 10 67.5 28s23.5 43 23.5 75h71c0 -22.667 -3.66699 -44 -11 -64
s-18 -37.333 -32 -52s-31 -26.334 -51 -35.001s-42.667 -13 -68 -13z" />
    <glyph glyph-name="dotaccent" unicode="&#x2d9;" horiz-adv-x="492" 
d="M171 631c0 19.333 6 34.833 18 46.5s27.667 17.5 47 17.5c21.333 0 37.666 -5.83301 48.999 -17.5s17 -27.167 17 -46.5s-5.66699 -35 -17 -47s-27.666 -18 -48.999 -18c-20.667 0 -36.667 6 -48 18s-17 27.667 -17 47z" />
    </font>
</defs>
</svg>
