<?xml version="1.0" standalone="no"?>
<!DOCTYPE svg PUBLIC "-//W3C//DTD SVG 1.1//EN" "http://www.w3.org/Graphics/SVG/1.1/DTD/svg11.dtd" >
<svg>
<metadata>
Created by FontForge 20090914 at Fri Jul 19 10:56:07 2019
 By www-data
Samsung Sharp Sans is a customized version of Sharp Sans, which is copyright (c) 2015 by Lucas Sharp. All rights reserved.
</metadata>
<defs>
<font id="iCielSamsungSharpSansRegular" horiz-adv-x="545" >
  <font-face 
    font-family="iCiel Samsung Sharp Sans Regular"
    font-weight="700"
    font-stretch="normal"
    units-per-em="1000"
    panose-1="0 0 0 0 0 0 0 0 0 0"
    ascent="800"
    descent="-200"
    x-height="585"
    cap-height="730"
    bbox="-371 -283.005 1371 1135"
    underline-thickness="50"
    underline-position="-50"
    unicode-range="U+0020-U+FB79"
  />
<missing-glyph horiz-adv-x="926" 
d="M100 730h726v-730h-726v730zM236 130h454v470h-454v-470zM260 240l123 127l-124 129l80 78l122 -126l124 127l80 -78l-126 -130l125 -128l-80 -78l-123 126l-121 -125z" />
    <glyph glyph-name="uni203D" unicode="&#x21;&#x3f;" horiz-adv-x="539" 
d="M243 161c-0.666992 22 -1.1709 51.6699 -1.50391 89.0029s-0.666016 77.333 -0.999023 120s-0.5 85.5 -0.5 128.5v114.5v74c-32.667 -4.66699 -59.667 -15.334 -81 -32.001s-38.666 -37.667 -51.999 -63l-51 24c17.333 34.667 44.166 64 80.499 88s81.166 36 134.499 36
c30 0 57.833 -4.33301 83.5 -13s47.834 -20.834 66.501 -36.501s33.334 -34.334 44.001 -56.001s16 -45.834 16 -72.501c0 -31.333 -4.66699 -56.666 -14 -75.999s-21.166 -36 -35.499 -50s-29.833 -27 -46.5 -39s-32.167 -26.333 -46.5 -43s-26.166 -37 -35.499 -61
s-14 -55.333 -14 -94v-38h-46zM422.996 563.003c0 33.333 -12 61.166 -36 83.499s-54.333 35.833 -91 40.5v-74c0 -38 -0.666992 -78.667 -2 -122l-4 -128c12.667 20.667 26.667 37.667 42 51l43.5 39.5c13.667 13 25 27.833 34 44.5s13.5 38.334 13.5 65.001z
M215.996 39.0029c0 14 4.66699 25.5 14 34.5s21 13.5 35 13.5c15.333 0 27.333 -4.5 36 -13.5s13 -20.5 13 -34.5s-4.33301 -25.667 -13 -35s-20.667 -14 -36 -14s-27.333 4.66699 -36 14s-13 21 -13 35z" />
    <glyph glyph-name="interrobangdown" unicode="&#xa1;&#xbf;" horiz-adv-x="539" 
d="M269 -240c-30 0 -57.8301 4.33008 -83.4971 12.9971s-48 20.834 -67 36.501s-33.833 34.334 -44.5 56.001s-16 45.834 -16 72.501c0 31.333 4.66699 56.666 14 75.999s21.166 36 35.499 50s29.833 27 46.5 39s32.167 26.333 46.5 43s26.166 37.167 35.499 61.5
s14 55.5 14 93.5v38h47c0.666992 -22 1.16699 -51.667 1.5 -89s0.5 -77.333 0.5 -120v-128.5v-114.5v-74c32.667 4.66699 59.667 15.334 81 32.001s39 37.667 53 63l51 -24c-17.333 -34.667 -44.333 -64 -81 -88s-81.334 -36 -134.001 -36zM117.003 -63.0029
c0 -33.333 11.8311 -61.167 35.498 -83.5s53.834 -35.833 90.501 -40.5v74c0 38 0.666992 78.5 2 121.5l4 126.5c-12.667 -20 -26.667 -36.667 -42 -50s-29.666 -26.5 -42.999 -39.5s-24.5 -27.667 -33.5 -44s-13.5 -37.833 -13.5 -64.5zM225.001 461.996
c0 14 4.66699 25.5 14 34.5s21 13.5 35 13.5c15.333 0 27.333 -4.5 36 -13.5s13 -20.5 13 -34.5s-4.33301 -25.667 -13 -35s-20.667 -14 -36 -14s-27.333 4.66699 -36 14s-13 21 -13 35z" />
    <glyph glyph-name="uniFB76" unicode="&#x683;" horiz-adv-x="520" arabic-form="isolated" 
d="M72 596h200c28.667 0 55.167 -5 79.5 -15s45.333 -23.5 63 -40.5s31.5 -37 41.5 -60s15 -47.5 15 -73.5c0 -39.333 -11.333 -74.833 -34 -106.5s-54 -54.167 -94 -67.5l134 -233h-68l-122 218h-157v-218h-58v596zM130 543v-272.999h135c22.667 0 43 3.83301 61 11.5
s33.333 18 46 31s22.5 27.667 29.5 44s10.5 33.166 10.5 50.499c0 39.333 -12.5 71.833 -37.5 97.5s-60.167 38.5 -105.5 38.5h-139z" />
    <glyph glyph-name="uniFB77" unicode="&#x683;" horiz-adv-x="520" arabic-form="final" 
d="M72 596h200c28.667 0 55.167 -5 79.5 -15s45.333 -23.5 63 -40.5s31.5 -37 41.5 -60s15 -47.5 15 -73.5c0 -39.333 -11.333 -74.833 -34 -106.5s-54 -54.167 -94 -67.5l134 -233h-68l-122 218h-157v-218h-58v596zM130 543v-272.999h135c22.667 0 43 3.83301 61 11.5
s33.333 18 46 31s22.5 27.667 29.5 44s10.5 33.166 10.5 50.499c0 39.333 -12.5 71.833 -37.5 97.5s-60.167 38.5 -105.5 38.5h-139zM332 816.001h75l-140 -155h-54z" />
    <glyph glyph-name="uniFB78" unicode="&#x683;" horiz-adv-x="520" arabic-form="initial" 
d="M72 596h200c28.667 0 55.167 -5 79.5 -15s45.333 -23.5 63 -40.5s31.5 -37 41.5 -60s15 -47.5 15 -73.5c0 -39.333 -11.333 -74.833 -34 -106.5s-54 -54.167 -94 -67.5l134 -233h-68l-122 218h-157v-218h-58v596zM130 543v-272.999h135c22.667 0 43 3.83301 61 11.5
s33.333 18 46 31s22.5 27.667 29.5 44s10.5 33.166 10.5 50.499c0 39.333 -12.5 71.833 -37.5 97.5s-60.167 38.5 -105.5 38.5h-139zM120 816.001h59l81 -114l84 114h59l-118 -155h-48z" />
    <glyph glyph-name="uniFB79" unicode="&#x683;" horiz-adv-x="520" arabic-form="medial" 
d="M72 596h200c28.667 0 55.167 -5 79.5 -15s45.333 -23.5 63 -40.5s31.5 -37 41.5 -60s15 -47.5 15 -73.5c0 -39.333 -11.333 -74.833 -34 -106.5s-54 -54.167 -94 -67.5l134 -233h-68l-122 218h-157v-218h-58v596zM130 543v-272.999h135c22.667 0 43 3.83301 61 11.5
s33.333 18 46 31s22.5 27.667 29.5 44s10.5 33.166 10.5 50.499c0 39.333 -12.5 71.833 -37.5 97.5s-60.167 38.5 -105.5 38.5h-139zM192 -259.999l43 204h55l-58 -204h-40z" />
    <glyph glyph-name=".notdef" horiz-adv-x="926" 
d="M100 730h726v-730h-726v730zM236 130h454v470h-454v-470zM260 240l123 127l-124 129l80 78l122 -126l124 127l80 -78l-126 -130l125 -128l-80 -78l-123 126l-121 -125z" />
    <glyph glyph-name=".null" horiz-adv-x="0" 
 />
    <glyph glyph-name=".null" horiz-adv-x="0" 
 />
    <glyph glyph-name="space" unicode=" " horiz-adv-x="254" 
 />
    <glyph glyph-name="exclam" unicode="!" horiz-adv-x="242" 
d="M106 152c-1.33301 21.333 -2.83301 48 -4.5 80s-3.16699 66.167 -4.5 102.5s-2.33301 73.5 -3 111.5s-1 73.667 -1 107v177h58v-177c0 -33.333 -0.333008 -69 -1 -107s-1.5 -75.167 -2.5 -111.5s-2.33301 -70.5 -4 -102.5s-3.16699 -58.667 -4.5 -80h-33zM72 39
c0 14 4.66699 25.5 14 34.5s21 13.5 35 13.5c15.333 0 27.333 -4.5 36 -13.5s13 -20.5 13 -34.5s-4.33301 -25.667 -13 -35s-20.667 -14 -36 -14s-27.333 4.66699 -36 14s-13 21 -13 35z" />
    <glyph glyph-name="quotedbl" unicode="&#x22;" horiz-adv-x="286" 
d="M80 500c-0.666992 6 -2 15.167 -4 27.5s-3.83301 25.5 -5.5 39.5s-3.16699 28 -4.5 42s-2 26.333 -2 37v84h51v-84c0 -10 -0.666992 -22.167 -2 -36.5l-4 -42.5c-1.33301 -14 -2.83301 -27.167 -4.5 -39.5s-3.16699 -21.5 -4.5 -27.5h-20zM187 500
c-0.666992 6 -2 15.167 -4 27.5s-3.83301 25.5 -5.5 39.5s-3.16699 28 -4.5 42s-2 26.333 -2 37v84h51v-84c0 -10 -0.666992 -22.167 -2 -36.5l-4 -42.5c-1.33301 -14 -2.83301 -27.167 -4.5 -39.5s-3.16699 -21.5 -4.5 -27.5h-20z" />
    <glyph glyph-name="numbersign" unicode="#" horiz-adv-x="835" 
d="M525 204h-217v-204h-58v204h-202v55h202v220h-202v55h202v196h58v-196h217v196h58v-196h204v-55h-204v-220h204v-55h-204v-204h-58v204zM308 259h217v220h-217v-220z" />
    <glyph glyph-name="dollar" unicode="$" horiz-adv-x="588" 
d="M540 196c0 -26 -5.16699 -50.832 -15.5 -74.499s-24.833 -44.667 -43.5 -63s-41.167 -33.5 -67.5 -45.5s-55.5 -19.333 -87.5 -22v-111h-57v111c-52 3.33301 -96.667 15.166 -134 35.499s-69 46.166 -95 77.499l44 41c21.333 -28 47 -51 77 -69s66 -28.667 108 -32v321
c-24.667 8 -49.334 16.667 -74.001 26s-46.667 21.333 -66 36s-35.166 32.334 -47.499 53.001s-18.5 46 -18.5 76c0 26 5 49.833 15 71.5s24 40.5 42 56.5s39.667 28.667 65 38s53.333 15 84 17v101h57v-102c48.667 -4 89 -15.667 121 -35s58.667 -43 80 -71l-46 -35
c-16 23.333 -36.333 43.166 -61 59.499s-56 26.833 -94 31.5v-286c25.333 -8 50.833 -17 76.5 -27s48.667 -22.833 69 -38.5s36.833 -34.667 49.5 -57s19 -50.166 19 -83.499zM481 195.001c0 22 -4.33301 41 -13 57s-20.167 29.833 -34.5 41.5s-30.833 21.667 -49.5 30
s-38 15.833 -58 22.5v-302c46 5.33301 83.333 21.5 112 48.5s43 61.167 43 102.5zM122 556.001c0 -19.333 3.99805 -35.998 11.998 -49.998s18.833 -26.333 32.5 -37s29.334 -19.834 47.001 -27.501s36.167 -14.834 55.5 -21.501v269
c-43.333 -3.33301 -78.666 -16.833 -105.999 -40.5s-41 -54.5 -41 -92.5z" />
    <glyph glyph-name="percent" unicode="%" horiz-adv-x="858" 
d="M126 574c0 -16 3.16699 -31.167 9.5 -45.5s14.666 -26.833 24.999 -37.5s22.5 -19.167 36.5 -25.5s29 -9.5 45 -9.5s31 3.16699 45 9.5s26.333 14.833 37 25.5s19 23.167 25 37.5s9 29.5 9 45.5s-3 31.167 -9 45.5s-14.333 26.833 -25 37.5s-23 19 -37 25s-29 9 -45 9
s-31 -3 -45 -9s-26.167 -14.333 -36.5 -25s-18.666 -23.167 -24.999 -37.5s-9.5 -29.5 -9.5 -45.5zM466 156c0 23.333 4.33301 45 13 65s20.5 37.5 35.5 52.5s32.5 26.833 52.5 35.5s41.667 13 65 13s45 -4.33301 65 -13s37.5 -20.5 52.5 -35.5s26.833 -32.5 35.5 -52.5
s13 -41.667 13 -65c0 -22.667 -4.33301 -44.167 -13 -64.5s-20.5 -38.166 -35.5 -53.499s-32.5 -27.333 -52.5 -36s-41.667 -13 -65 -13s-45 4.33301 -65 13s-37.5 20.667 -52.5 36s-26.833 33.166 -35.5 53.499s-13 41.833 -13 64.5zM714 730h73l-627 -730h-73zM516 156
c0 -16.667 3 -32.167 9 -46.5s14.333 -26.833 25 -37.5s23 -19 37 -25s29 -9 45 -9s31 3 45 9s26.167 14.333 36.5 25s18.666 23.167 24.999 37.5s9.5 29.833 9.5 46.5c0 16 -3.16699 31.167 -9.5 45.5s-14.666 26.833 -24.999 37.5s-22.5 19 -36.5 25s-29 9 -45 9
s-31 -3 -45 -9s-26.333 -14.333 -37 -25s-19 -23.167 -25 -37.5s-9 -29.5 -9 -45.5zM76 574c0 23.333 4.33301 45 13 65s20.5 37.5 35.5 52.5s32.667 26.833 53 35.5s41.833 13 64.5 13c23.333 0 45 -4.33301 65 -13s37.5 -20.5 52.5 -35.5s26.833 -32.5 35.5 -52.5
s13 -41.667 13 -65c0 -22.667 -4.33301 -44.167 -13 -64.5s-20.5 -38.166 -35.5 -53.499s-32.5 -27.333 -52.5 -36s-41.667 -13 -65 -13c-22.667 0 -44.167 4.33301 -64.5 13s-38 20.667 -53 36s-26.833 33.166 -35.5 53.499s-13 41.833 -13 64.5z" />
    <glyph glyph-name="ampersand" unicode="&#x26;" horiz-adv-x="762" 
d="M557 78c-30.667 -27.333 -64.665 -49.0029 -101.998 -65.0029s-78 -24 -122 -24c-50.667 0 -93.834 7.33301 -129.501 22s-64.834 33.334 -87.501 56.001s-39.334 48.167 -50.001 76.5s-16 55.833 -16 82.5c0 50.667 13 95 39 133s60.333 68 103 90
c-15.333 20 -27 40 -35 60s-12 42.333 -12 67c0 22 4 42.833 12 62.5s19.833 37 35.5 52s34.834 27 57.501 36s48.334 13.5 77.001 13.5c40 0 74.5 -8.66699 103.5 -26s51.167 -38 66.5 -62l-47 -31c-12 18.667 -28.333 34.834 -49 48.501s-45.334 20.5 -74.001 20.5
c-19.333 0 -36.666 -3 -51.999 -9s-28.333 -14.333 -39 -25s-18.834 -22.834 -24.501 -36.501s-8.5 -28.167 -8.5 -43.5s2.5 -29.833 7.5 -43.5s12.5 -27.667 22.5 -42s22.667 -29.5 38 -45.5l54 -56l236 -236c28 32.667 50.333 68.834 67 108.501s26.667 78.834 30 117.501
h-143v54h199v-23c0 -48 -10.167 -98.167 -30.5 -150.5s-49.5 -99.833 -87.5 -142.5l118 -117h-78zM333.002 39.9971c36.667 0 70.834 6.66602 102.501 19.999s60.167 31 85.5 53l-242 242l-54 54c-37.333 -19.333 -66.166 -44.166 -86.499 -74.499s-30.5 -66.5 -30.5 -108.5
c0 -20.667 4.33301 -42 13 -64s22.167 -42 40.5 -60s41.666 -32.833 69.999 -44.5s62.166 -17.5 101.499 -17.5z" />
    <glyph glyph-name="quotesingle" unicode="'" horiz-adv-x="179" 
d="M80 500c-0.666992 6 -2 15.167 -4 27.5s-3.83301 25.5 -5.5 39.5s-3.16699 28 -4.5 42s-2 26.333 -2 37v84h51v-84c0 -10 -0.666992 -22.167 -2 -36.5l-4 -42.5c-1.33301 -14 -2.83301 -27.167 -4.5 -39.5s-3.16699 -21.5 -4.5 -27.5h-20z" />
    <glyph glyph-name="parenleft" unicode="(" horiz-adv-x="419" 
d="M328 -248c-38 26.667 -73.667 56.5 -107 89.5s-62.333 69.833 -87 110.5s-44.167 85.667 -58.5 135s-21.5 103.666 -21.5 162.999c0 58.667 7 112.5 21 161.5s33.167 94 57.5 135s53 78 86 111s68.167 62.833 105.5 89.5l40 -44
c-36.667 -25.333 -70.167 -53.333 -100.5 -84s-56.5 -64.667 -78.5 -102s-39 -78.166 -51 -122.499s-18 -92.5 -18 -144.5c0 -52.667 6.16699 -101.167 18.5 -145.5s29.666 -85.166 51.999 -122.499s48.833 -71.333 79.5 -102s64.334 -58.334 101.001 -83.001z" />
    <glyph glyph-name="parenright" unicode=")" horiz-adv-x="419" 
d="M303 250c0 52 -6 100.167 -18 144.5s-29 85 -51 122s-48.167 71 -78.5 102s-63.833 58.833 -100.5 83.5l40 45c37.333 -26.667 72.5 -56.5 105.5 -89.5s61.667 -70 86 -111s43.5 -86 57.5 -135s21 -103.167 21 -162.5c0 -58.667 -7.16699 -112.667 -21.5 -162
s-33.833 -94.5 -58.5 -135.5s-53.667 -78 -87 -111s-69 -62.5 -107 -88.5l-39 45c36.667 24.667 70.334 52.334 101.001 83.001s57.167 64.667 79.5 102s39.666 78.166 51.999 122.499s18.5 92.833 18.5 145.5z" />
    <glyph glyph-name="asterisk" unicode="*" horiz-adv-x="438" 
d="M232 532l14 -156h-54l14 156l-128 -90l-26 46l141 66l-141 67l26 45l128 -91l-14 155h54l-14 -153l126 88l26 -46l-142 -65l142 -65l-27 -46z" />
    <glyph glyph-name="plus" unicode="+" horiz-adv-x="475" 
d="M53 390h160v159h50v-159h160v-50h-160v-161h-50v161h-160v50z" />
    <glyph glyph-name="comma" unicode="," horiz-adv-x="191" 
d="M75 87h63l-60 -204h-46z" />
    <glyph glyph-name="hyphen" unicode="-" horiz-adv-x="475" 
d="M53 277h370v-51h-370v51z" />
    <glyph glyph-name="period" unicode="." horiz-adv-x="191" 
d="M47 39c0 14 4.66699 25.5 14 34.5s21 13.5 35 13.5c15.333 0 27.333 -4.5 36 -13.5s13 -20.5 13 -34.5s-4.33301 -25.667 -13 -35s-20.667 -14 -36 -14s-27.333 4.66699 -36 14s-13 21 -13 35z" />
    <glyph glyph-name="slash" unicode="/" horiz-adv-x="463" 
d="M374 730h62l-346 -730h-62z" />
    <glyph glyph-name="zero" unicode="0" horiz-adv-x="588" 
d="M293 43c54 0 96 15.501 126 46.501s45 74.167 45 129.5v282c0 58.667 -14.833 104.334 -44.5 137.001s-71.167 49 -124.5 49c-54 0 -96 -16.833 -126 -50.5s-45 -78.834 -45 -135.501v-278c0 -56.667 14.667 -100.834 44 -132.501s71 -47.5 125 -47.5zM294 -9.99902
c-72.667 0 -128.832 20.834 -168.499 62.501s-59.5 98.5 -59.5 170.5v278c0 35.333 5.5 67.666 16.5 96.999s26.5 54.5 46.5 75.5s44 37.333 72 49s59 17.5 93 17.5c34.667 0 66 -6 94 -18s52 -28.5 72 -49.5s35.333 -46.167 46 -75.5s16 -61.333 16 -96v-282
c0 -72.667 -20.333 -129 -61 -169s-96.334 -60 -167.001 -60z" />
    <glyph glyph-name="one" unicode="1" horiz-adv-x="321" 
d="M154 0v676h-132v54h190v-730h-58z" />
    <glyph glyph-name="two" unicode="2" horiz-adv-x="587" 
d="M65 59c0 28.667 6.16406 55.0039 18.4971 79.0039s28.333 46.667 48 68s42 41.5 67 60.5l75.5 55.5l70 51c22.667 16.667 42.667 33.667 60 51s31.333 35.666 42 54.999s16 40 16 62c0 43.333 -15.167 78.666 -45.5 105.999s-71.166 41 -122.499 41
c-42.667 0 -79.167 -10.833 -109.5 -32.5s-54.166 -49.5 -71.499 -83.5l-50 27c20 41.333 49.833 75.166 89.5 101.499s86.5 39.5 140.5 39.5c34.667 0 66 -5.16699 94 -15.5s52 -24.5 72 -42.5s35.333 -39.167 46 -63.5s16 -50.5 16 -78.5s-5.83301 -53.833 -17.5 -77.5
s-27.167 -45.834 -46.5 -66.501s-41.166 -40.167 -65.499 -58.5l-74.5 -54.5l-70.5 -50.5c-23 -17 -43.333 -34.5 -61 -52.5s-32 -37 -43 -57s-16.5 -41.333 -16.5 -64v-4h405v-55h-466v59z" />
    <glyph glyph-name="three" unicode="3" horiz-adv-x="573" 
d="M278 -9c-48 0 -92.1641 8.33398 -132.497 25.001s-73.166 41 -98.499 73l46 38c20.667 -26 46.667 -46.667 78 -62s67 -23 107 -23c27.333 0 52.166 4 74.499 12s41.333 19 57 33s27.834 30.667 36.501 50s13 40.333 13 63c0 24 -4.83301 45.333 -14.5 64
s-23 34.5 -40 47.5s-37 23 -60 30s-47.5 10.5 -73.5 10.5h-68v55h68c51.333 0 92.666 12.667 123.999 38s47 59.333 47 102c0 43.333 -15.5 77.666 -46.5 102.999s-72.833 38 -125.5 38c-36 0 -68.5 -8 -97.5 -24s-51.5 -35 -67.5 -57l-47 33c21.333 26.667 50 50 86 70
s78.667 30 128 30c35.333 0 67.166 -4.83301 95.499 -14.5s52.166 -23 71.499 -40s34.166 -37.333 44.499 -61s15.5 -49.5 15.5 -77.5c0 -40 -10.167 -74.167 -30.5 -102.5s-49.166 -49.833 -86.499 -64.5c41.333 -14 74.166 -36 98.499 -66s36.5 -68 36.5 -114
c0 -30.667 -5.66699 -58.834 -17 -84.501s-27.333 -47.667 -48 -66s-45.667 -32.666 -75 -42.999s-62.333 -15.5 -99 -15.5z" />
    <glyph glyph-name="four" unicode="4" horiz-adv-x="614" 
d="M403 168h-354l-2 53l356 509h58v-510h107v-52h-107v-168h-58v168zM403 220v419l-294 -419h294z" />
    <glyph glyph-name="five" unicode="5" horiz-adv-x="611" 
d="M308 -10c-55.333 0 -104.332 11.834 -146.999 35.501s-75.334 56.834 -98.001 99.501l54 33c18 -34.667 43 -62.334 75 -83.001s70.667 -31 116 -31c26.667 0 51.667 4.5 75 13.5s43.666 21.833 60.999 38.5s31 36.667 41 60s15 49.333 15 78
c0 32 -5.66699 59.833 -17 83.5s-26 43.334 -44 59.001s-38.5 27.5 -61.5 35.5s-46.167 12 -69.5 12c-46 0 -84.667 -10.667 -116 -32s-55.666 -50 -72.999 -86l-56 19l59 405h384v-54h-336l-40 -277c20 23.333 44.667 42.166 74 56.499s64 21.5 104 21.5
c31.333 0 62 -4.83301 92 -14.5s56.667 -24.5 80 -44.5s42.166 -45.333 56.499 -76s21.5 -66.667 21.5 -108c0 -36 -6.16699 -68.833 -18.5 -98.5s-29.666 -55.334 -51.999 -77.001s-48.833 -38.5 -79.5 -50.5s-64 -18 -100 -18z" />
    <glyph glyph-name="six" unicode="6" horiz-adv-x="622" 
d="M308 -10c-36.667 0 -70.666 6.5 -101.999 19.5s-58.5 31 -81.5 54s-41 49.833 -54 80.5s-19.5 63.667 -19.5 99c0 32 5.16699 62.833 15.5 92.5s24.166 56.167 41.499 79.5l221 315h70l-177 -250c28 12 59.667 18 95 18c34.667 0 67 -6.5 97 -19.5s56.167 -31 78.5 -54
s40 -49.833 53 -80.5s19.5 -64 19.5 -100s-6.66699 -69.333 -20 -100s-31.5 -57.5 -54.5 -80.5s-50.167 -41 -81.5 -54s-65 -19.5 -101 -19.5zM308.001 43c27.333 0 53.166 5.33496 77.499 16.002s45.5 25 63.5 43s32.333 39.167 43 63.5s16 50.5 16 78.5
s-5.33301 54.167 -16 78.5s-25 45.666 -43 63.999s-39.167 32.666 -63.5 42.999s-50.166 15.5 -77.499 15.5c-28 0 -54.167 -5.33301 -78.5 -16s-45.5 -25 -63.5 -43s-32.167 -39.167 -42.5 -63.5s-15.5 -50.5 -15.5 -78.5s5.16699 -54.167 15.5 -78.5
s24.5 -45.5 42.5 -63.5s39.167 -32.333 63.5 -43s50.5 -16 78.5 -16z" />
    <glyph glyph-name="seven" unicode="7" horiz-adv-x="534" 
d="M431 675h-385v55h446v-50l-325 -680h-62z" />
    <glyph glyph-name="eight" unicode="8" horiz-adv-x="571" 
d="M285 -10c-36 0 -68.3291 5.50098 -96.9961 16.501s-53 26.167 -73 45.5s-35.167 41.833 -45.5 67.5s-15.5 53.167 -15.5 82.5c0 42 11.667 79.5 35 112.5s54 57.833 92 74.5c-30 15.333 -54.167 37.166 -72.5 65.499s-27.5 60.5 -27.5 96.5c0 26.667 5 51.5 15 74.5
s24 43 42 60s39.5 30.333 64.5 40s52.5 14.5 82.5 14.5c29.333 0 56.666 -4.83301 81.999 -14.5s47.166 -23 65.499 -40s32.666 -37 42.999 -60s15.5 -47.833 15.5 -74.5c0 -36 -9.5 -68 -28.5 -96s-43.5 -49.667 -73.5 -65c38 -16 68.833 -40.833 92.5 -74.5
s35.5 -71.5 35.5 -113.5c0 -29.333 -5.16699 -56.833 -15.5 -82.5s-25.5 -48.167 -45.5 -67.5s-44.333 -34.5 -73 -45.5s-61.334 -16.5 -98.001 -16.5zM285.004 43.001c27.333 0 51.668 4.16699 73.001 12.5s39.666 19.666 54.999 33.999s27 31.166 35 50.499s12 40 12 62
c0 21.333 -4 41.666 -12 60.999s-19.5 36.333 -34.5 51s-33.333 26.334 -55 35.001s-46.167 13 -73.5 13c-26.667 0 -50.834 -4.33301 -72.501 -13s-40 -20.334 -55 -35.001s-26.5 -31.667 -34.5 -51s-12 -39.666 -12 -60.999c0 -22 4 -42.667 12 -62
s19.5 -36.166 34.5 -50.499s33.333 -25.666 55 -33.999s45.834 -12.5 72.501 -12.5zM285.006 413.001c22.667 0 43.333 3.66699 62 11s34.5 17.166 47.5 29.499s23.167 27 30.5 44s11 34.833 11 53.5c0 19.333 -3.5 37.333 -10.5 54s-17 31.334 -30 44.001
s-28.833 22.5 -47.5 29.5s-39.667 10.5 -63 10.5c-22.667 0 -43.167 -3.5 -61.5 -10.5s-34 -16.833 -47 -29.5s-23 -27.334 -30 -44.001s-10.5 -34.667 -10.5 -54c0 -18.667 3.5 -36.5 10.5 -53.5s17 -31.667 30 -44s28.667 -22.166 47 -29.499s38.833 -11 61.5 -11z" />
    <glyph glyph-name="nine" unicode="9" horiz-adv-x="608" 
d="M390 258c-28 -12 -59.334 -18.002 -94.001 -18.002c-34 0 -66 6.5 -96 19.5s-56 30.667 -78 53s-39.333 48.833 -52 79.5s-19 63.334 -19 98.001c0 35.333 6.5 68.166 19.5 98.499s30.833 56.833 53.5 79.5s49.5 40.334 80.5 53.001s64.167 19 99.5 19
s68.5 -6.5 99.5 -19.5s57.833 -30.667 80.5 -53s40.5 -48.666 53.5 -78.999s19.5 -62.833 19.5 -97.5c0 -30 -4.66699 -58.833 -14 -86.5s-21.666 -52.5 -36.999 -74.5l-224 -330h-69zM303.999 293.998c27.333 0 52.833 5.16699 76.5 15.5s44.334 24.333 62.001 42
s31.667 38.334 42 62.001s15.5 49.167 15.5 76.5s-5.16699 52.833 -15.5 76.5s-24.333 44.5 -42 62.5s-38.334 32.167 -62.001 42.5s-49.167 15.5 -76.5 15.5c-26.667 0 -51.834 -5.16699 -75.501 -15.5s-44.5 -24.5 -62.5 -42.5s-32.167 -38.833 -42.5 -62.5
s-15.5 -49.167 -15.5 -76.5s5.16699 -52.833 15.5 -76.5s24.5 -44.334 42.5 -62.001s38.833 -31.667 62.5 -42s48.834 -15.5 75.501 -15.5z" />
    <glyph glyph-name="colon" unicode=":" horiz-adv-x="190" 
d="M47 39c0 14 4.66699 25.5 14 34.5s21 13.5 35 13.5c15.333 0 27.333 -4.5 36 -13.5s13 -20.5 13 -34.5s-4.33301 -25.667 -13 -35s-20.667 -14 -36 -14s-27.333 4.66699 -36 14s-13 21 -13 35zM47 457c0 14 4.66699 25.5 14 34.5s21 13.5 35 13.5
c15.333 0 27.333 -4.5 36 -13.5s13 -20.5 13 -34.5s-4.33301 -25.667 -13 -35s-20.667 -14 -36 -14s-27.333 4.66699 -36 14s-13 21 -13 35z" />
    <glyph glyph-name="semicolon" unicode=";" horiz-adv-x="191" 
d="M75 87h63l-60 -204h-46zM47 457c0 14 4.66699 25.5 14 34.5s21 13.5 35 13.5c15.333 0 27.333 -4.5 36 -13.5s13 -20.5 13 -34.5s-4.33301 -25.667 -13 -35s-20.667 -14 -36 -14s-27.333 4.66699 -36 14s-13 21 -13 35z" />
    <glyph glyph-name="less" unicode="&#x3c;" horiz-adv-x="475" 
d="M53 342v49l370 142v-52l-310 -114l310 -118v-53z" />
    <glyph glyph-name="equal" unicode="=" horiz-adv-x="475" 
d="M53 469h370v-50h-370v50zM53 307h370v-49h-370v49z" />
    <glyph glyph-name="greater" unicode="&#x3e;" horiz-adv-x="475" 
d="M53 249l310 118l-310 114v52l370 -142v-49l-370 -146v53z" />
    <glyph glyph-name="question" unicode="?" horiz-adv-x="539" 
d="M228 199c0 42 4.83398 76.668 14.501 104.001s21.667 50.166 36 68.499s30 33.833 47 46.5s32.667 25.5 47 38.5s26.333 27.667 36 44s14.5 37.5 14.5 63.5c0 18.667 -4 35.667 -12 51s-18.833 28.5 -32.5 39.5s-29.834 19.5 -48.501 25.5s-39 9 -61 9
c-42 0 -75.667 -8.83301 -101 -26.5s-45.666 -41.167 -60.999 -70.5l-51 24c17.333 34.667 44.166 64 80.499 88s80.833 36 133.5 36c30 0 57.833 -4.16699 83.5 -12.5s48 -20.333 67 -36s33.833 -34.334 44.5 -56.001s16 -45.834 16 -72.501
c0 -31.333 -4.83301 -56.833 -14.5 -76.5s-22 -36.5 -37 -50.5s-31 -27.167 -48 -39.5s-33 -26.666 -48 -42.999s-27.333 -36.666 -37 -60.999s-14.5 -55.5 -14.5 -93.5v-38h-54v38zM206.001 39.001c0 14 4.66699 25.5 14 34.5s21 13.5 35 13.5
c15.333 0 27.333 -4.5 36 -13.5s13 -20.5 13 -34.5s-4.33301 -25.667 -13 -35s-20.667 -14 -36 -14s-27.333 4.66699 -36 14s-13 21 -13 35z" />
    <glyph glyph-name="at" unicode="@" horiz-adv-x="856" 
d="M427 -125c-52 0 -100.668 9.82715 -146.001 29.4941s-84.833 46.334 -118.5 80.001s-60.167 73.334 -79.5 119.001s-29 94.5 -29 146.5s10.167 100.667 30.5 146s48 85 83 119s75.5 60.833 121.5 80.5s95 29.5 147 29.5c53.333 0 102.333 -9.33301 147 -28
s83.167 -43.5 115.5 -74.5s57.5 -66.833 75.5 -107.5s27 -83 27 -127c0 -27.333 -3.16699 -53.666 -9.5 -78.999s-16 -47.666 -29 -66.999s-29 -34.666 -48 -45.999s-41.167 -17 -66.5 -17c-30 0 -54.167 6.5 -72.5 19.5s-31.166 29.5 -38.499 49.5
c-11.333 -19.333 -28.333 -36.166 -51 -50.499s-50.334 -21.5 -83.001 -21.5c-20 0 -39.833 4 -59.5 12s-37 19.667 -52 35s-26.5 34.333 -34.5 57s-10.667 48.667 -8 78c4 30 11.667 56.167 23 78.5s25.333 40.833 42 55.5s34.834 25.667 54.501 33s39.834 11 60.501 11
c28 0 51.833 -6 71.5 -18s34.5 -27 44.5 -45c1.33301 12.667 2.5 22.834 3.5 30.501s1.5 13.5 1.5 17.5c0.666992 4.66699 1 7.66699 1 9h55l-20 -181c-4.66699 -42.667 -1.16699 -72.834 10.5 -90.501s30.167 -26.5 55.5 -26.5c30 0 53.5 14.667 70.5 44
s25.5 66.333 25.5 111c0 37.333 -7.5 73.166 -22.5 107.499s-36.333 64.833 -64 91.5s-60.667 47.834 -99 63.501s-80.833 23.5 -127.5 23.5c-44.667 0 -86.667 -8.5 -126 -25.5s-73.666 -40.167 -102.999 -69.5s-52.5 -63.5 -69.5 -102.5s-25.5 -80.833 -25.5 -125.5
s8.16699 -86.5 24.5 -125.5s38.666 -73.167 66.999 -102.5s61.666 -52.5 99.999 -69.5s79.833 -25.5 124.5 -25.5c46.667 0 89.5 8.66699 128.5 26s73.5 41.333 103.5 72l40 -35c-32 -33.333 -71.5 -60.833 -118.5 -82.5s-98.167 -32.5 -153.5 -32.5zM413.999 127.994
c18 0 33.835 3.50195 47.502 10.502s25.5 16.5 35.5 28.5s18 25.833 24 41.5s9.66699 32.167 11 49.5c2 17.333 1.5 33.666 -1.5 48.999s-8.5 28.833 -16.5 40.5s-18.333 21 -31 28s-27.667 10.5 -45 10.5c-32 0 -60.5 -11.333 -85.5 -34s-39.5 -54 -43.5 -94
c-2.66699 -18 -1.83398 -34.833 2.49902 -50.5s11.166 -29.334 20.499 -41.001s21 -21 35 -28s29.667 -10.5 47 -10.5z" />
    <glyph glyph-name="A" unicode="A" horiz-adv-x="698" 
d="M318 730h62l281 -730h-61l-79 204h-345l-78 -204h-61zM197 259h303l-151 394z" />
    <glyph glyph-name="B" unicode="B" horiz-adv-x="639" 
d="M75 730l278.999 0.00292969c31.333 0 60 -4.66699 86 -14s48.5 -22.333 67.5 -39s33.667 -36.5 44 -59.5s15.5 -48.5 15.5 -76.5c0 -36.667 -8.83301 -69.334 -26.5 -98.001s-43.167 -50 -76.5 -64c38 -14 67.667 -36.5 89 -67.5s32 -67.833 32 -110.5
c0 -30 -5.33301 -57.333 -16 -82s-25.667 -45.834 -45 -63.501s-42.166 -31.334 -68.499 -41.001s-55.5 -14.5 -87.5 -14.5h-293v730zM132.999 350.003v-296.997h234c23.333 0 44.833 3.83301 64.5 11.5s36.5 18 50.5 31s25 28.667 33 47s12 37.833 12 58.5
c0 21.333 -3.66699 41.166 -11 59.499s-18 34.166 -32 47.499s-31 23.666 -51 30.999s-42.333 11 -67 11h-233zM132.999 677.006l-0.000976562 -274h230c22.667 0 43 3.5 61 10.5s33.333 16.667 46 29s22.334 27 29.001 44s10 35.167 10 54.5s-3.83301 37.333 -11.5 54
s-18.5 31 -32.5 43s-30.5 21.5 -49.5 28.5s-39.833 10.5 -62.5 10.5h-220z" />
    <glyph glyph-name="C" unicode="C" horiz-adv-x="796" 
d="M428 -10c-52 0 -100.673 9.83105 -146.006 29.498s-85 46.5 -119 80.5s-60.833 73.667 -80.5 119s-29.5 94 -29.5 146s9.83301 100.667 29.5 146s46.5 85 80.5 119s73.667 60.833 119 80.5s94 29.5 146 29.5c34 0 66.833 -4.5 98.5 -13.5s61.334 -21.5 89.001 -37.5
s52.834 -35.333 75.501 -58s42.334 -47.667 59.001 -75l-50 -29c-27.333 47.333 -64.666 85.666 -111.999 114.999s-100.666 44 -159.999 44c-44.667 0 -86.167 -8.5 -124.5 -25.5s-71.666 -40 -99.999 -69s-50.666 -63 -66.999 -102s-24.5 -80.5 -24.5 -124.5
s8.16699 -85.333 24.5 -124s38.666 -72.5 66.999 -101.5s61.666 -52 99.999 -69s79.833 -25.5 124.5 -25.5c64.667 0 121.167 15.5 169.5 46.5s85.5 71.5 111.5 121.5l51 -26c-16 -29.333 -35.333 -56.166 -58 -80.499s-48.167 -45.166 -76.5 -62.499
s-59.166 -30.666 -92.499 -39.999s-68.333 -14 -105 -14z" />
    <glyph glyph-name="D" unicode="D" horiz-adv-x="711" 
d="M75 730l205 0.000976562c55.333 0 106 -9.33301 152 -28s85.833 -44.334 119.5 -77.001s59.834 -71.167 78.501 -115.5s28 -92.5 28 -144.5s-9.66699 -100.333 -29 -145s-45.833 -83.167 -79.5 -115.5s-73.334 -57.833 -119.001 -76.5s-95.167 -28 -148.5 -28h-207v730z
M133 677.001l0.000976562 -623h145c46 0 88.5 7.83301 127.5 23.5s72.833 37.5 101.5 65.5s51.167 61 67.5 99s24.5 79 24.5 123s-7.83301 85 -23.5 123s-37.834 71 -66.501 99s-62.667 50 -102 66s-83 24 -131 24h-143z" />
    <glyph glyph-name="E" unicode="E" horiz-adv-x="583" 
d="M75 730h447v-55h-389v-282h389v-54h-389v-284h389v-55h-447v730z" />
    <glyph glyph-name="F" unicode="F" horiz-adv-x="547" 
d="M75 730h413v-55h-355v-282h355v-55h-355v-338h-58v730z" />
    <glyph glyph-name="G" unicode="G" horiz-adv-x="850" 
d="M430 -10c-53.333 0 -103.001 9.83496 -149.001 29.502s-85.833 46.5 -119.5 80.5s-60.167 73.667 -79.5 119s-29 94 -29 146s9.66699 100.667 29 146s46 85 80 119s74.167 60.833 120.5 80.5s96.833 29.5 151.5 29.5c70.667 0 133.834 -16.5 189.501 -49.5
s99.834 -77.833 132.501 -134.5l-50 -29c-26.667 48.667 -63.5 87.334 -110.5 116.001s-100.833 43 -161.5 43c-47.333 0 -90.666 -8.5 -129.999 -25.5s-73.333 -40 -102 -69s-50.834 -63 -66.501 -102s-23.5 -80.5 -23.5 -124.5s7.83301 -85.333 23.5 -124
s37.667 -72.5 66 -101.5s62 -52 101 -69s81.5 -25.5 127.5 -25.5s87.167 7.16699 123.5 21.5s67.833 34.166 94.5 59.499s47.834 55.166 63.501 89.499s25.5 71.5 29.5 111.5h-316v54h374v-15c0 -50.667 -8.33301 -98.834 -25 -144.501s-40.834 -85.667 -72.501 -120
s-70.334 -61.5 -116.001 -81.5s-97.5 -30 -155.5 -30z" />
    <glyph glyph-name="H" unicode="H" horiz-adv-x="688" 
d="M555 339h-422v-339h-58v730h58v-336h422v336h58v-730h-58v339z" />
    <glyph glyph-name="I" unicode="I" horiz-adv-x="227" 
d="M85 730h57v-730h-57v730z" />
    <glyph glyph-name="J" unicode="J" horiz-adv-x="476" 
d="M219 -10c-44 0 -81.499 9.33301 -112.499 28s-54.167 43.667 -69.5 75l52 33c11.333 -24.667 27.666 -44.667 48.999 -60s48 -23 80 -23c40 0 71.333 13 94 39s34 61.333 34 106v542h58v-541c0 -61.333 -16.333 -109.833 -49 -145.5s-78 -53.5 -136 -53.5z" />
    <glyph glyph-name="K" unicode="K" horiz-adv-x="649" 
d="M291 397l-158 -181v-216h-57v730h57v-437l382 437h71l-254 -293l290 -437h-67z" />
    <glyph glyph-name="L" unicode="L" horiz-adv-x="533" 
d="M75 730h58v-675h347v-55h-405v730z" />
    <glyph glyph-name="M" unicode="M" horiz-adv-x="866" 
d="M75 730h57l296 -410l307 410h55v-730h-57v638l-306 -413l-294 404v-629h-58v730z" />
    <glyph glyph-name="N" unicode="N" horiz-adv-x="742" 
d="M75 730h64l470 -640v640h58v-730h-62l-472 643v-643h-58v730z" />
    <glyph glyph-name="O" unicode="O" horiz-adv-x="855" 
d="M428 -10c-52 0 -100.667 9.83301 -146 29.5s-85 46.5 -119 80.5s-60.833 73.667 -80.5 119s-29.5 94 -29.5 146s9.83301 100.667 29.5 146s46.5 85 80.5 119s73.667 60.833 119 80.5s94 29.5 146 29.5s100.667 -9.83301 146 -29.5s85 -46.5 119 -80.5
s60.833 -73.667 80.5 -119s29.5 -94 29.5 -146s-9.83301 -100.667 -29.5 -146s-46.5 -85 -80.5 -119s-73.667 -60.833 -119 -80.5s-94 -29.5 -146 -29.5zM428 45c44.667 0 86.167 8.5 124.5 25.5s71.666 40 99.999 69s50.5 62.833 66.5 101.5s24 80 24 124
s-8 85.5 -24 124.5s-38.167 73 -66.5 102s-61.666 51.833 -99.999 68.5s-79.833 25 -124.5 25s-86.167 -8.33301 -124.5 -25s-71.666 -39.5 -99.999 -68.5s-50.666 -63 -66.999 -102s-24.5 -80.5 -24.5 -124.5s8.16699 -85.333 24.5 -124s38.666 -72.5 66.999 -101.5
s61.666 -52 99.999 -69s79.833 -25.5 124.5 -25.5z" />
    <glyph glyph-name="P" unicode="P" horiz-adv-x="617" 
d="M75 730l221 -0.00292969c40 0 76.5 -6.33301 109.5 -19s61.167 -30 84.5 -52s41.333 -48.167 54 -78.5s19 -63.166 19 -98.499s-6.33301 -68.166 -19 -98.499s-30.667 -56.666 -54 -78.999s-51.5 -39.833 -84.5 -52.5s-69.5 -19 -109.5 -19h-163v-233h-58v730z
M133 676.997v-390.003h160c32.667 0 62 5 88 15s48.167 23.833 66.5 41.5s32.333 38.334 42 62.001s14.5 49.167 14.5 76.5c0 28 -4.83301 53.833 -14.5 77.5s-23.667 44.334 -42 62.001s-40.5 31.334 -66.5 41.001s-55.333 14.5 -88 14.5h-160z" />
    <glyph glyph-name="Q" unicode="Q" horiz-adv-x="856" 
d="M451 301h71.9971l132 -155c27.333 28.667 49 61.5 65 98.5s24 77.167 24 120.5c0 44 -8.16699 85.5 -24.5 124.5s-38.666 73 -66.999 102s-61.666 51.833 -99.999 68.5s-79.833 25 -124.5 25s-86.167 -8.33301 -124.5 -25s-71.666 -39.5 -99.999 -68.5
s-50.666 -63 -66.999 -102s-24.5 -80.5 -24.5 -124.5s8.16699 -85.333 24.5 -124s38.666 -72.5 66.999 -101.5s61.666 -52 99.999 -69s79.833 -25.5 124.5 -25.5c28 0 54 3.33301 78 10s47 16 69 28l36 -43c-27.333 -16 -56.166 -28.333 -86.499 -37s-62.5 -13 -96.5 -13
c-52 0 -100.667 9.83301 -146 29.5s-85 46.5 -119 80.5s-60.833 73.667 -80.5 119s-29.5 94 -29.5 146s9.83301 100.667 29.5 146s46.5 85 80.5 119s73.667 60.833 119 80.5s94 29.5 146 29.5s100.667 -9.83301 146 -29.5s85 -46.5 119 -80.5s60.833 -73.667 80.5 -119
s29.5 -94 29.5 -146s-10 -100.167 -30 -144.5s-47 -83.833 -81 -118.5l88 -102h-74z" />
    <glyph glyph-name="R" unicode="R" horiz-adv-x="596" 
d="M330 272l-197 0.000976562v-272h-58v730h228c34 0 65.667 -6 95 -18s54.833 -28.333 76.5 -49s38.5 -44.834 50.5 -72.501s18 -57.167 18 -88.5c0 -24 -3.83301 -47.333 -11.5 -70s-18.5 -43.334 -32.5 -62.001s-30.833 -35.167 -50.5 -49.5s-41.5 -25.166 -65.5 -32.499
l164 -288h-65zM133 677.001l-0.000976562 -352.001h165c28 0 53.333 4.83301 76 14.5s42.334 22.834 59.001 39.501s29.5 35.667 38.5 57s13.5 43.333 13.5 66c0 24.667 -4.5 47.667 -13.5 69s-21.667 39.833 -38 55.5s-36 28 -59 37s-48.167 13.5 -75.5 13.5h-166z" />
    <glyph glyph-name="S" unicode="S" horiz-adv-x="557" 
d="M273 -10c-54 0 -101.169 10.8359 -141.502 32.5029s-74.166 50.834 -101.499 87.501l48 37c23.333 -34 51.333 -59.833 84 -77.5s69.667 -26.5 111 -26.5c24.667 0 47.667 3.66699 69 11s39.833 17.666 55.5 30.999s28 29.5 37 48.5s13.5 40.167 13.5 63.5
c0 24.667 -5.16699 45.5 -15.5 62.5s-24.166 31.5 -41.499 43.5s-37.166 22.167 -59.499 30.5s-45.5 16.5 -69.5 24.5c-25.333 8 -50.166 17 -74.499 27s-46.166 22.333 -65.499 37s-35 32.667 -47 54s-18 47.666 -18 78.999c0 26.667 5.66699 51.334 17 74.001
s26.666 42.167 45.999 58.5s42.166 29.166 68.499 38.499s54.833 14 85.5 14c49.333 0 91.5 -9 126.5 -27s64.5 -42.333 88.5 -73l-45 -35c-19.333 27.333 -42.833 48.166 -70.5 62.499s-60.834 21.5 -99.501 21.5c-22 0 -42.667 -3.33301 -62 -10
s-36.166 -15.834 -50.499 -27.501s-25.5 -25.667 -33.5 -42s-12 -34.5 -12 -54.5c0 -23.333 5 -43 15 -59s23.5 -29.5 40.5 -40.5s36.5 -20.5 58.5 -28.5l68 -24c25.333 -8.66699 50.5 -18 75.5 -28s47.333 -22.833 67 -38.5s35.5 -34.667 47.5 -57s18 -49.833 18 -82.5
c0 -28.667 -5.66699 -55.5 -17 -80.5s-27.333 -46.833 -48 -65.5s-45.334 -33.5 -74.001 -44.5s-60 -16.5 -94 -16.5z" />
    <glyph glyph-name="T" unicode="T" horiz-adv-x="610" 
d="M276 677h-228v53h514v-53h-228v-677h-58v677z" />
    <glyph glyph-name="U" unicode="U" horiz-adv-x="641" 
d="M320 -10c-35.333 0 -68.1689 6.33301 -98.502 19s-56.5 30.167 -78.5 52.5s-39.333 48.666 -52 78.999s-19 62.833 -19 97.5v492h58v-495c0 -26 4.83301 -50.667 14.5 -74s23 -43.5 40 -60.5s37.167 -30.5 60.5 -40.5s48.333 -15 75 -15s51.667 5 75 15
s43.5 23.667 60.5 41s30.5 37.5 40.5 60.5s15 47.833 15 74.5v494h58v-492c0 -34.667 -6.33301 -67.167 -19 -97.5s-30.167 -56.666 -52.5 -78.999s-48.666 -39.833 -78.999 -52.5s-63.166 -19 -98.499 -19z" />
    <glyph glyph-name="V" unicode="V" horiz-adv-x="681" 
d="M37 730h60l243 -649l243 649h61l-275 -730h-58z" />
    <glyph glyph-name="W" unicode="W" horiz-adv-x="1072" 
d="M42 730h61l186 -641l218 641h55l216 -641l193 641h60l-223 -730h-59l-216 640l-217 -640h-59z" />
    <glyph glyph-name="X" unicode="X" horiz-adv-x="652" 
d="M326 331l-225 -331h-65l257 377l-238 353h66l206 -305l206 305h65l-237 -350l255 -380h-65z" />
    <glyph glyph-name="Y" unicode="Y" horiz-adv-x="612" 
d="M278 347l-245 383h65l208 -328l208 328h65l-243 -381v-349h-58v347z" />
    <glyph glyph-name="Z" unicode="Z" horiz-adv-x="600" 
d="M58 53l415 622h-399v55h467v-53l-415 -622h417v-55h-485v53z" />
    <glyph glyph-name="bracketleft" unicode="[" horiz-adv-x="378" 
d="M53 730h273v-54h-215v-852h215v-54h-273v960z" />
    <glyph glyph-name="backslash" unicode="\" horiz-adv-x="463" 
d="M28 730h62l346 -730h-62z" />
    <glyph glyph-name="bracketright" unicode="]" horiz-adv-x="378" 
d="M53 -177h215v853h-215v54h273v-960h-273v53z" />
    <glyph glyph-name="asciicircum" unicode="^" horiz-adv-x="502" 
d="M228 683h44l126 -167h-60l-88 117l-85 -117h-60z" />
    <glyph glyph-name="underscore" unicode="_" horiz-adv-x="542" 
d="M53 -10h437v-50h-437v50z" />
    <glyph glyph-name="grave" unicode="`" horiz-adv-x="502" 
d="M147 720h74l120 -155h-54z" />
    <glyph glyph-name="a" unicode="a" horiz-adv-x="747" 
d="M361 -12c-42.667 0 -82.5 7.99512 -119.5 23.9951s-69 37.833 -96 65.5s-48.167 59.834 -63.5 96.501s-23 76 -23 118s7.66699 81.5 23 118.5s36.5 69.333 63.5 97s59 49.5 96 65.5s76.833 24 119.5 24c24 0 48.167 -3.16699 72.5 -9.5s47.333 -15.833 69 -28.5
s41.5 -28.167 59.5 -46.5s32.667 -39.166 44 -62.499v135h56v-585h-56v134c-11.333 -23.333 -26 -44.166 -44 -62.499s-37.833 -33.666 -59.5 -45.999s-44.667 -21.666 -69 -27.999s-48.5 -9.5 -72.5 -9.5zM363 40.9951c35.333 0 68 6.49707 98 19.4971
s56.333 30.833 79 53.5s40.334 49.334 53.001 80.001s19 63.334 19 98.001s-6.33301 67.334 -19 98.001s-30.334 57.334 -53.001 80.001s-49 40.667 -79 54s-62.667 20 -98 20c-34 0 -66 -6.5 -96 -19.5s-56.167 -31 -78.5 -54s-39.833 -49.667 -52.5 -80
s-19 -63.166 -19 -98.499c0 -34.667 6.33301 -67.334 19 -98.001s30.167 -57.334 52.5 -80.001s48.5 -40.5 78.5 -53.5s62 -19.5 96 -19.5z" />
    <glyph glyph-name="b" unicode="b" horiz-adv-x="746" 
d="M386 -12c-24 0 -48.166 3.16895 -72.499 9.50195s-47.333 15.666 -69 27.999s-41.5 27.5 -59.5 45.5s-32.667 38.333 -44 61v-132h-55v740h56v-286c11.333 22.667 26 42.834 44 60.501s37.833 32.667 59.5 45s44.5 21.666 68.5 27.999s48 9.5 72 9.5
c42.667 0 82.5 -8 119.5 -24s69 -37.833 96 -65.5s48.167 -60 63.5 -97s23 -76.5 23 -118.5s-7.83301 -81.333 -23.5 -118s-37 -68.834 -64 -96.501s-58.833 -49.5 -95.5 -65.5s-76.334 -24 -119.001 -24zM384.001 41.002c34 0 66 6.50293 96 19.5029s56 30.833 78 53.5
s39.333 49.334 52 80.001s19 63.334 19 98.001c0 35.333 -6.33301 68.166 -19 98.499s-30 57 -52 80s-48 41 -78 54s-62 19.5 -96 19.5c-35.333 0 -68.166 -6.66699 -98.499 -20s-56.666 -31.333 -78.999 -54s-39.833 -49.334 -52.5 -80.001s-19 -63.334 -19 -98.001
s6.33301 -67.334 19 -98.001s30.167 -57.334 52.5 -80.001s48.666 -40.5 78.999 -53.5s63.166 -19.5 98.499 -19.5z" />
    <glyph glyph-name="c" unicode="c" horiz-adv-x="697" 
d="M365 -12c-43.333 0 -83.666 8.00195 -120.999 24.002s-69.666 37.667 -96.999 65s-48.833 59.5 -64.5 96.5s-23.5 76.5 -23.5 118.5c0 43.333 8 83.5 24 120.5s37.667 69.167 65 96.5s59.5 48.833 96.5 64.5s76.833 23.5 119.5 23.5c32 0 62.333 -4.33301 91 -13
s55 -21 79 -37s45.167 -35 63.5 -57s32.833 -46.333 43.5 -73l-53 -22c-19.333 46 -48.5 82.333 -87.5 109s-84.5 40 -136.5 40c-34.667 0 -67.167 -6.5 -97.5 -19.5s-56.5 -31 -78.5 -54s-39.333 -49.667 -52 -80s-19 -63.166 -19 -98.499
c0 -34.667 6.33301 -67.334 19 -98.001s30.167 -57.334 52.5 -80.001s48.666 -40.5 78.999 -53.5s63.166 -19.5 98.499 -19.5c54 0 100.167 14.333 138.5 43s66.833 65.667 85.5 111l54 -23c-11.333 -26.667 -26 -51.334 -44 -74.001s-38.833 -42.167 -62.5 -58.5
s-50 -29 -79 -38s-60.167 -13.5 -93.5 -13.5z" />
    <glyph glyph-name="d" unicode="d" horiz-adv-x="747" 
d="M361 -12c-42.667 0 -82.5 7.99512 -119.5 23.9951s-69 37.833 -96 65.5s-48.167 59.834 -63.5 96.501s-23 76 -23 118s7.66699 81.5 23 118.5s36.5 69.333 63.5 97s59 49.5 96 65.5s76.833 24 119.5 24c24 0 48 -3.16699 72 -9.5s46.667 -15.666 68 -27.999
s41 -27.333 59 -45s33 -38.167 45 -61.5v287h56v-740h-55v134c-11.333 -23.333 -26 -44.166 -44 -62.499s-37.833 -33.666 -59.5 -45.999s-44.667 -21.666 -69 -27.999s-48.5 -9.5 -72.5 -9.5zM363 40.9951c35.333 0 68 6.49707 98 19.4971s56.333 30.833 79 53.5
s40.334 49.334 53.001 80.001s19 63.334 19 98.001s-6.33301 67.334 -19 98.001s-30.334 57.334 -53.001 80.001s-49 40.667 -79 54s-62.667 20 -98 20c-34 0 -66 -6.5 -96 -19.5s-56.167 -31 -78.5 -54s-39.833 -49.667 -52.5 -80s-19 -63.166 -19 -98.499
c0 -34.667 6.33301 -67.334 19 -98.001s30.167 -57.334 52.5 -80.001s48.5 -40.5 78.5 -53.5s62 -19.5 96 -19.5z" />
    <glyph glyph-name="e" unicode="e" horiz-adv-x="722" 
d="M366 -12c-47.333 0 -90.001 7.83496 -128.001 23.502s-70.167 37 -96.5 64s-46.666 58.833 -60.999 95.5s-21.5 76.334 -21.5 119.001c0 43.333 7.66699 83.666 23 120.999s36.5 69.666 63.5 96.999s59.167 49 96.5 65s77.666 24 120.999 24
c42.667 0 82.167 -7.33301 118.5 -22s67.833 -35.334 94.5 -62.001s47.5 -58.167 62.5 -94.5s22.5 -76.166 22.5 -119.499v-26h-547c2 -33.333 9.33301 -64.333 22 -93s30 -53.334 52 -74.001s48 -36.834 78 -48.501s63.333 -17.5 100 -17.5
c56.667 0 104.334 13.833 143.001 41.5s67.667 65.834 87 114.501l51 -24c-26 -58.667 -62 -104 -108 -136s-103.667 -48 -173 -48zM362.999 545.002c-32.667 0 -63 -5.66797 -91 -17.001s-52.833 -26.666 -74.5 -45.999s-39.667 -42.333 -54 -69s-23.5 -55.667 -27.5 -87
h487c-2.66699 32 -10.5 61.5 -23.5 88.5s-29.833 50.167 -50.5 69.5s-45 34.333 -73 45s-59 16 -93 16z" />
    <glyph glyph-name="f" unicode="f" horiz-adv-x="397" 
d="M39 585h103v15c0 42 3 76.5 9 103.5s16.833 48.333 32.5 64s36.5 26.5 62.5 32.5s59 9 99 9h6v-54c-32.667 0 -59 -1.83301 -79 -5.5s-35.5 -11 -46.5 -22s-18.5 -26.833 -22.5 -47.5s-6 -47.667 -6 -81v-14h154v-52h-154v-533h-55v533h-103v52z" />
    <glyph glyph-name="g" unicode="g" horiz-adv-x="747" 
d="M361 -12c-42.667 0 -82.499 7.99121 -119.499 23.9912s-69 37.833 -96 65.5s-48.167 59.834 -63.5 96.501s-23 76 -23 118s7.66699 81.5 23 118.5s36.5 69.333 63.5 97s59 49.5 96 65.5s76.833 24 119.5 24c24 0 48.167 -3.16699 72.5 -9.5s47.333 -15.833 69 -28.5
s41.5 -28.167 59.5 -46.5s32.667 -39.166 44 -62.499v135h56v-573c0 -45.333 -6.83301 -86.166 -20.5 -122.499s-33.334 -67.166 -59.001 -92.499s-56.5 -45 -92.5 -59s-76 -21 -120 -21c-36 0 -68 3.66699 -96 11s-53 17.833 -75 31.5s-41.5 30.334 -58.5 50.001
s-32.5 42.167 -46.5 67.5l55 25c21.333 -41.333 49.333 -73.833 84 -97.5s80.334 -35.5 137.001 -35.5c36 0 68.667 5.66699 98 17s54.166 27.5 74.499 48.5s36 46.333 47 76s16.5 62.834 16.5 99.501v124c-11.333 -23.333 -26 -44.166 -44 -62.499
s-37.833 -33.666 -59.5 -45.999s-44.667 -21.666 -69 -27.999s-48.5 -9.5 -72.5 -9.5zM363.001 40.9912c35.333 0 68 6.49707 98 19.4971s56.333 30.833 79 53.5s40.334 49.334 53.001 80.001s19 63.334 19 98.001s-6.33301 67.334 -19 98.001
s-30.334 57.334 -53.001 80.001s-49 40.667 -79 54s-62.667 20 -98 20c-34 0 -66 -6.5 -96 -19.5s-56.167 -31 -78.5 -54s-39.833 -49.667 -52.5 -80s-19 -63.166 -19 -98.499c0 -34.667 6.33301 -67.334 19 -98.001s30.167 -57.334 52.5 -80.001s48.5 -40.5 78.5 -53.5
s62 -19.5 96 -19.5z" />
    <glyph glyph-name="h" unicode="h" horiz-adv-x="706" 
d="M86 740h54.999v-269c20 37.333 49.333 67.666 88 90.999s83.667 35 135 35c39.333 0 74.833 -6.16699 106.5 -18.5s59 -30.166 82 -53.499s40.667 -51.5 53 -84.5s18.5 -70.5 18.5 -112.5v-328h-58v329c0 32.667 -4.66699 62.167 -14 88.5s-23 49 -41 68
s-39.833 33.667 -65.5 44s-55.167 15.5 -88.5 15.5c-30.667 0 -59.167 -5.5 -85.5 -16.5s-49.166 -26.333 -68.499 -46s-34.5 -42.667 -45.5 -69s-16.5 -54.833 -16.5 -85.5v-328h-55v740z" />
    <glyph glyph-name="i" unicode="i" horiz-adv-x="226" 
d="M85 585h57v-585h-57v585zM65 713c0 14 4.66699 25.5 14 34.5s21 13.5 35 13.5c15.333 0 27.333 -4.5 36 -13.5s13 -20.5 13 -34.5s-4.33301 -25.667 -13 -35s-20.667 -14 -36 -14s-27.333 4.66699 -36 14s-13 21 -13 35z" />
    <glyph glyph-name="j" unicode="j" horiz-adv-x="226" 
d="M-70 -212c31.333 0 57.168 1.66797 77.501 5.00098s36.166 10.5 47.499 21.5s19.166 26.667 23.499 47s6.5 47.166 6.5 80.499v643h57v-644c0 -41.333 -3.33301 -75.333 -10 -102s-17.667 -48 -33 -64s-36.166 -27.167 -62.499 -33.5s-58.833 -9.5 -97.5 -9.5h-9v56z
M65.002 713.001c0 14 4.66699 25.5 14 34.5s21 13.5 35 13.5c15.333 0 27.333 -4.5 36 -13.5s13 -20.5 13 -34.5s-4.33301 -25.667 -13 -35s-20.667 -14 -36 -14s-27.333 4.66699 -36 14s-13 21 -13 35z" />
    <glyph glyph-name="k" unicode="k" horiz-adv-x="607" 
d="M278 305l-136 -141v-164h-56v740h56v-509l340 354h73l-236 -245l251 -340h-67z" />
    <glyph glyph-name="l" unicode="l" horiz-adv-x="231" 
d="M86 740h58v-740h-58v740z" />
    <glyph glyph-name="m" unicode="m" horiz-adv-x="1155" 
d="M85 585l55 0.000976562v-112c18.667 37.333 46.334 67.333 83.001 90s80 34 130 34c58.667 0 107.167 -13.333 145.5 -40s65.166 -62 80.499 -106c17.333 42.667 46.5 77.667 87.5 105s89.5 41 145.5 41c40.667 0 77.167 -6.33301 109.5 -19
s59.666 -30.334 81.999 -53.001s39.5 -49.834 51.5 -81.501s18 -66.834 18 -105.501v-338h-57v342c0 29.333 -4.83301 56.5 -14.5 81.5s-23.334 46.5 -41.001 64.5s-39.167 32 -64.5 42s-53.666 15 -84.999 15c-28.667 0 -55.667 -4.66699 -81 -14
s-47.333 -22.833 -66 -40.5s-33.334 -39 -44.001 -64s-16 -53.167 -16 -84.5v-342h-57v353c0 28.667 -4.66699 54.834 -14 78.501s-22.5 43.834 -39.5 60.501s-37.667 29.667 -62 39s-51.833 14 -82.5 14c-30 0 -57.667 -5.16699 -83 -15.5s-47.166 -24.833 -65.499 -43.5
s-32.666 -41.167 -42.999 -67.5s-15.5 -55.5 -15.5 -87.5v-331h-57v585z" />
    <glyph glyph-name="n" unicode="n" horiz-adv-x="707" 
d="M85 585l55 -0.00195312v-119c19.333 38.667 48.666 70.167 87.999 94.5s85 36.5 137 36.5c39.333 0 74.833 -6.16699 106.5 -18.5s59 -30.166 82 -53.499s40.667 -51.5 53 -84.5s18.5 -70.5 18.5 -112.5v-328h-57v329c0 32.667 -4.83301 62.167 -14.5 88.5
s-23.5 48.833 -41.5 67.5s-40 33.167 -66 43.5s-55.333 15.5 -88 15.5c-30.667 0 -59.167 -5.5 -85.5 -16.5s-49.166 -26.167 -68.499 -45.5s-34.5 -42.166 -45.5 -68.499s-16.5 -54.833 -16.5 -85.5v-328h-57v585z" />
    <glyph glyph-name="o" unicode="o" horiz-adv-x="726" 
d="M363 -12c-42 0 -81.5 7.83301 -118.5 23.5s-69.333 37.167 -97 64.5s-49.334 59.5 -65.001 96.5s-23.5 76.833 -23.5 119.5s7.83301 82.5 23.5 119.5s37.334 69.333 65.001 97s60 49.334 97 65.001s76.5 23.5 118.5 23.5s81.5 -7.83301 118.5 -23.5
s69.167 -37.334 96.5 -65.001s49 -60 65 -97s24 -76.833 24 -119.5s-8 -82.5 -24 -119.5s-37.667 -69.167 -65 -96.5s-59.5 -48.833 -96.5 -64.5s-76.5 -23.5 -118.5 -23.5zM363 41c34 0 66 6.5 96 19.5s56 30.833 78 53.5s39.333 49.334 52 80.001s19 63.334 19 98.001
c0 35.333 -6.33301 68.166 -19 98.499s-30 57 -52 80s-48 41 -78 54s-62 19.5 -96 19.5c-34.667 0 -67 -6.5 -97 -19.5s-56 -31 -78 -54s-39.333 -49.667 -52 -80s-19 -63.166 -19 -98.499c0 -34.667 6.33301 -67.334 19 -98.001s30 -57.334 52 -80.001s48 -40.5 78 -53.5
s62.333 -19.5 97 -19.5z" />
    <glyph glyph-name="p" unicode="p" horiz-adv-x="745" 
d="M385 -12c-25.333 0 -50.168 3 -74.501 9s-47.166 15 -68.499 27s-40.833 26.833 -58.5 44.5s-32.167 37.834 -43.5 60.501v-398h-55v854h54v-134c11.333 23.333 26 44 44 62s38 33.333 60 46s45.167 22.167 69.5 28.5s48.5 9.5 72.5 9.5c42.667 0 82.334 -8 119.001 -24
s68.5 -37.833 95.5 -65.5s48.167 -60 63.5 -97s23 -76.5 23 -118.5s-7.66699 -81.333 -23 -118s-36.5 -68.834 -63.5 -96.501s-58.833 -49.5 -95.5 -65.5s-76.334 -24 -119.001 -24zM381.998 41c34 0 66 6.50293 96 19.5029s56.167 30.833 78.5 53.5
s39.833 49.334 52.5 80.001s19 63.334 19 98.001c0 35.333 -6.33301 68.166 -19 98.499s-30.167 57 -52.5 80s-48.5 41 -78.5 54s-62 19.5 -96 19.5c-34.667 0 -67.167 -6.66699 -97.5 -20s-56.833 -31.333 -79.5 -54s-40.334 -49.334 -53.001 -80.001
s-19 -63.334 -19 -98.001s6.33301 -67.334 19 -98.001s30.334 -57.334 53.001 -80.001s49.167 -40.5 79.5 -53.5s62.833 -19.5 97.5 -19.5z" />
    <glyph glyph-name="q" unicode="q" horiz-adv-x="746" 
d="M361 -12c-42.667 0 -82.5 7.99805 -119.5 23.998s-69 37.833 -96 65.5s-48.167 59.834 -63.5 96.501s-23 76 -23 118s7.66699 81.5 23 118.5s36.5 69.333 63.5 97s59 49.5 96 65.5s76.833 24 119.5 24c24 0 48.167 -3.16699 72.5 -9.5s47.333 -15.833 69 -28.5
s41.5 -28.167 59.5 -46.5s32.667 -39.166 44 -62.499v135h55v-854h-56v399c-11.333 -23.333 -25.833 -43.833 -43.5 -61.5s-37.167 -32.5 -58.5 -44.5s-44 -21 -68 -27s-48.667 -9 -74 -9zM363 40.998c35.333 0 68 6.49707 98 19.4971s56.333 30.833 79 53.5
s40.334 49.334 53.001 80.001s19 63.334 19 98.001s-6.33301 67.334 -19 98.001s-30.334 57.334 -53.001 80.001s-49 40.667 -79 54s-62.667 20 -98 20c-34 0 -66 -6.5 -96 -19.5s-56.167 -31 -78.5 -54s-39.833 -49.667 -52.5 -80s-19 -63.166 -19 -98.499
c0 -34.667 6.33301 -67.334 19 -98.001s30.167 -57.334 52.5 -80.001s48.5 -40.5 78.5 -53.5s62 -19.5 96 -19.5z" />
    <glyph glyph-name="r" unicode="r" horiz-adv-x="458" 
d="M85 585l55.0029 0.000976562v-104c15.333 35.333 37.666 62.5 66.999 81.5s64.666 28.5 105.999 28.5c26 0 48.167 -2.83301 66.5 -8.5s36.5 -13.834 54.5 -24.501l-34 -50c-13.333 9.33301 -26.833 16.666 -40.5 21.999s-29.834 8 -48.501 8
c-52 0 -93.167 -17.167 -123.5 -51.5s-45.5 -82.166 -45.5 -143.499v-343h-57v585z" />
    <glyph glyph-name="s" unicode="s" horiz-adv-x="542" 
d="M267 -12c-50 0 -95.001 10.1709 -135.001 30.5039s-71.667 46.5 -95 78.5l45 36c19.333 -26.667 45.166 -49 77.499 -67s68.5 -27 108.5 -27c26.667 0 49.834 3.33301 69.501 10s36.167 15.667 49.5 27s23.333 24.5 30 39.5s10 30.5 10 46.5
c0 19.333 -4.83301 35.166 -14.5 47.499s-22.5 22.666 -38.5 30.999s-34.167 15.333 -54.5 21s-41.166 11.167 -62.499 16.5c-24 6 -47.5 12.667 -70.5 20s-43.5 16.833 -61.5 28.5s-32.5 26.5 -43.5 44.5s-16.5 40.333 -16.5 67c0 21.333 4.66699 41.666 14 60.999
s22.833 36.333 40.5 51s38.834 26.334 63.501 35.001s52.334 13 83.001 13c42 0 80.667 -7.5 116 -22.5s64.666 -35.833 87.999 -62.5l-43 -35c-20 22.667 -43 40 -69 52s-56.667 18 -92 18c-46 0 -81.5 -10.333 -106.5 -31s-37.5 -46.667 -37.5 -78
c0 -18 4.66699 -33 14 -45s21.666 -22.167 36.999 -30.5s32.833 -15.333 52.5 -21s40.167 -11.167 61.5 -16.5c24 -6 47.833 -12.833 71.5 -20.5s44.667 -17.5 63 -29.5s33.333 -27 45 -45s17.5 -41 17.5 -69c0 -20.667 -4.33301 -41.334 -13 -62.001
s-21.834 -39.334 -39.501 -56.001s-40.167 -30.167 -67.5 -40.5s-59.666 -15.5 -96.999 -15.5z" />
    <glyph glyph-name="t" unicode="t" horiz-adv-x="402" 
d="M36 585h104.001v136l55 36v-172h154v-52h-154v-323c0 -33.333 2.16699 -60.333 6.5 -81s12.166 -36.667 23.499 -48s27 -18.833 47 -22.5s45.667 -5.5 77 -5.5v-53h-9c-40 0 -72.833 3 -98.5 9s-46 16.833 -61 32.5s-25.5 37 -31.5 64s-9 61.5 -9 103.5v324h-104v52z" />
    <glyph glyph-name="u" unicode="u" horiz-adv-x="707" 
d="M345 -12c-40.667 0 -77.332 6.16895 -109.999 18.502s-60.334 30.166 -83.001 53.499s-40 51.5 -52 84.5s-18 70.5 -18 112.5v328h58v-329c0 -32.667 4.66699 -62.167 14 -88.5s23 -48.833 41 -67.5s40 -33.167 66 -43.5s55.333 -15.5 88 -15.5
c30.667 0 59.167 5.5 85.5 16.5s49.333 26.167 69 45.5s35 42.166 46 68.499s16.5 54.833 16.5 85.5v328h57v-585h-56v119c-19.333 -38.667 -48.333 -70.167 -87 -94.5s-83.667 -36.5 -135 -36.5z" />
    <glyph glyph-name="v" unicode="v" horiz-adv-x="600" 
d="M42 585h63l196 -508l196 508h61l-229 -585h-58z" />
    <glyph glyph-name="w" unicode="w" horiz-adv-x="979" 
d="M47 585h61l159 -501l199 501h49l193 -503l164 503h60l-194 -585h-54l-195 502l-200 -502h-54z" />
    <glyph glyph-name="x" unicode="x" horiz-adv-x="617" 
d="M273 301l-226 284h70l193 -245l190 245h71l-227 -284l238 -301h-71l-203 262l-201 -262h-72z" />
    <glyph glyph-name="y" unicode="y" horiz-adv-x="654" 
d="M305 33l-262 552h64l229 -487l214 487h62l-382 -855h-62z" />
    <glyph glyph-name="z" unicode="z" horiz-adv-x="628" 
d="M57 54l439 479h-424v52h495v-54l-437 -478h441v-53h-514v54z" />
    <glyph glyph-name="braceleft" unicode="{" horiz-adv-x="405" 
d="M352 -230c-42 0 -77 3.66504 -105 10.998s-50.5 19.5 -67.5 36.5s-29.167 39.333 -36.5 67s-11 61.834 -11 102.501v128c0 19.333 -1 35.833 -3 49.5s-6.16699 24.667 -12.5 33s-15.666 14.333 -27.999 18s-29.166 5.5 -50.499 5.5v55c21.333 0 38.166 2 50.499 6
s21.666 10.167 27.999 18.5s10.5 19.333 12.5 33s3 30.167 3 49.5v130c0 40.667 3.66699 74.834 11 102.501s19.5 50 36.5 67s39.5 29.167 67.5 36.5s63 11 105 11h11v-52c-35.333 0 -64.333 -2.5 -87 -7.5s-40.5 -13.833 -53.5 -26.5s-21.833 -29.667 -26.5 -51
s-7 -48.333 -7 -81v-130c0 -36 -4.5 -64.833 -13.5 -86.5s-25.833 -37.167 -50.5 -46.5c25.333 -9.33301 42.333 -24.833 51 -46.5s13 -50.5 13 -86.5v-128c0 -32.667 2.33301 -59.667 7 -81s13.5 -38.333 26.5 -51s30.833 -21.5 53.5 -26.5s51.667 -7.5 87 -7.5v-52h-11z
" />
    <glyph glyph-name="bar" unicode="|" horiz-adv-x="190" 
d="M66 730h58v-960h-58v960z" />
    <glyph glyph-name="braceright" unicode="}" horiz-adv-x="405" 
d="M43 -177c35.333 0 64.334 2.50391 87.001 7.50391s40.5 13.667 53.5 26s21.833 29.166 26.5 50.499s7 48.333 7 81v128c0 36 4.16699 64.833 12.5 86.5s25.166 37.167 50.499 46.5c-24 9.33301 -40.5 24.833 -49.5 46.5s-13.5 50.5 -13.5 86.5v130
c0 32.667 -2.33301 59.667 -7 81s-13.5 38.166 -26.5 50.499s-30.833 21 -53.5 26s-51.667 7.5 -87 7.5v53h11c42 0 77 -3.66699 105 -11s50.5 -19.5 67.5 -36.5s29.167 -39.333 36.5 -67s11 -61.834 11 -102.501v-130c0 -19.333 1 -35.833 3 -49.5
s6.16699 -24.667 12.5 -33s15.833 -14.5 28.5 -18.5s29.334 -6 50.001 -6v-55c-20.667 0 -37.334 -1.83301 -50.001 -5.5s-22.167 -9.66699 -28.5 -18s-10.5 -19.333 -12.5 -33s-3 -30.167 -3 -49.5v-128c0 -40.667 -3.66699 -74.834 -11 -102.501s-19.5 -50 -36.5 -67
s-39.5 -29.167 -67.5 -36.5s-63 -11 -105 -11h-11v53z" />
    <glyph glyph-name="asciitilde" unicode="~" horiz-adv-x="455" 
d="M67 558c1.33301 30.667 10.334 55.168 27.001 73.501s38 27.5 64 27.5c17.333 0 31.833 -2.66699 43.5 -8s23.167 -11.666 34.5 -18.999l31.5 -18.5c10.333 -6.33301 21.5 -9.5 33.5 -9.5c26.667 0 42 16.667 46 50h46c-1.33301 -30.667 -9.83301 -55.167 -25.5 -73.5
s-37.5 -27.5 -65.5 -27.5c-19.333 0 -35.833 3.66699 -49.5 11s-26.5 14.666 -38.5 21.999c-9.33301 5.33301 -18.333 10.166 -27 14.499s-18.334 6.5 -29.001 6.5c-24.667 0 -39 -16.333 -43 -49h-48z" />
    <glyph glyph-name="exclamdown" unicode="&#xa1;" horiz-adv-x="242" 
d="M138 348c1.33301 -21.333 2.83301 -48 4.5 -80s3.16699 -66.167 4.5 -102.5s2.33301 -73.5 3 -111.5s1 -73.667 1 -107v-177h-58v177c0 33.333 0.333008 69 1 107s1.5 75.167 2.5 111.5s2.33301 70.5 4 102.5s3.16699 58.667 4.5 80h33zM172 461
c0 -14 -4.66699 -25.5 -14 -34.5s-21 -13.5 -35 -13.5c-15.333 0 -27.333 4.5 -36 13.5s-13 20.5 -13 34.5s4.33301 25.667 13 35s20.667 14 36 14s27.333 -4.66699 36 -14s13 -21 13 -35z" />
    <glyph glyph-name="cent" unicode="&#xa2;" horiz-adv-x="588" 
d="M277 -8c-32.667 3.33301 -62.6641 11.8359 -89.9971 25.5029s-50.833 31.667 -70.5 54s-35 48.5 -46 78.5s-16.5 63.333 -16.5 100c0 37.333 5.66699 71 17 101s27 56.167 47 78.5s43.667 40.166 71 53.499s56.666 21.666 87.999 24.999v122h58v-122
c47.333 -4.66699 89.333 -20.334 126 -47.001s62.667 -62 78 -106l-52 -22c-14.667 41.333 -37.834 72.5 -69.501 93.5s-68.5 31.5 -110.5 31.5c-27.333 0 -52.833 -4.83301 -76.5 -14.5s-44.334 -23.5 -62.001 -41.5s-31.5 -39.833 -41.5 -65.5s-15 -54.5 -15 -86.5
s5 -60.833 15 -86.5s23.833 -47.5 41.5 -65.5s38.5 -31.833 62.5 -41.5s50 -14.5 78 -14.5c44 0 81.833 11.5 113.5 34.5s54.167 54.5 67.5 94.5l53 -22c-16.667 -46 -43 -82.667 -79 -110s-79 -43.333 -129 -48v-121h-58v122z" />
    <glyph glyph-name="sterling" unicode="&#xa3;" horiz-adv-x="588" 
d="M75 384l97.0049 0.0078125c-15.333 24 -28.833 49.333 -40.5 76s-17.5 57.667 -17.5 93c0 27.333 4.83301 52.5 14.5 75.5s23.167 42.667 40.5 59s37.666 29.166 60.999 38.499s48.666 14 75.999 14c48 0 88 -10.333 120 -31s57.667 -47.334 77 -80.001l-51 -30
c-16.667 29.333 -36.834 51.333 -60.501 66s-52.834 22 -87.501 22c-18.667 0 -36 -3.33301 -52 -10s-30 -15.834 -42 -27.501s-21.333 -25.667 -28 -42s-10 -34.5 -10 -54.5c0 -32.667 6.33301 -62.334 19 -89.001s27.334 -53.334 44.001 -80.001h211v-47h-183
c14 -24.667 26.167 -50.667 36.5 -78s15.5 -58 15.5 -92c0 -11.333 -0.833008 -22.5 -2.5 -33.5s-4.16699 -21.5 -7.5 -31.5c18.667 -15.333 36.667 -29 54 -41s35.666 -18 54.999 -18s32.666 5.16699 39.999 15.5s11 25.166 11 44.499v66h58v-65
c0 -42.667 -9.83301 -72.334 -29.5 -89.001s-46.834 -25 -81.501 -25c-24 0 -46.667 6.66699 -68 20s-42 28.666 -62 45.999c-13.333 -19.333 -30 -35.166 -50 -47.499s-44 -18.5 -72 -18.5c-36 0 -63.667 8.83301 -83 26.5s-29 40.5 -29 68.5
c0 27.333 9.16699 49.666 27.5 66.999s42.833 26 73.5 26c22.667 0 43.334 -4.33301 62.001 -13s36.334 -19 53.001 -31c0.666992 5.33301 1.16699 10.333 1.5 15s0.5 9.66699 0.5 15c0 36 -6.33301 67.5 -19 94.5s-27.334 53.167 -44.001 78.5h-128v47zM159.005 36.0078
c21.333 0 39.332 4.33203 53.999 12.999s26.334 20.667 35.001 36c-15.333 12.667 -31 23.5 -47 32.5s-32.333 13.5 -49 13.5s-29.667 -4.66699 -39 -14s-14 -20.666 -14 -33.999c0 -15.333 5.5 -27 16.5 -35s25.5 -12 43.5 -12z" />
    <glyph glyph-name="currency" unicode="&#xa4;" horiz-adv-x="773" 
d="M391 102c-31.333 0 -60.832 5 -88.499 15s-52.834 24 -75.501 42l-93 -97l-35 35l93 97c-19.333 22.667 -34.166 48.167 -44.499 76.5s-15.5 58.833 -15.5 91.5c0 32 5.16699 62.333 15.5 91s25.166 54.334 44.499 77.001l-93 97l34 35l94 -98
c22 18 46.833 32.167 74.5 42.5s57.5 15.5 89.5 15.5c30.667 0 59.834 -5 87.501 -15s52.5 -24 74.5 -42l88 92l34 -35l-87 -90c19.333 -23.333 34.666 -49.333 45.999 -78s17 -59.334 17 -92.001c0 -33.333 -5.66699 -64.5 -17 -93.5s-27 -54.833 -47 -77.5l87 -89l-35 -35
l-88 90c-22 -17.333 -46.5 -30.833 -73.5 -40.5s-55.833 -14.5 -86.5 -14.5zM391.001 154c28 0 54.333 5.5 79 16.5s46.167 25.833 64.5 44.5s32.666 40.667 42.999 66s15.5 52.333 15.5 81s-5.16699 55.667 -15.5 81s-24.666 47.333 -42.999 66s-39.833 33.5 -64.5 44.5
s-51 16.5 -79 16.5s-54.333 -5.5 -79 -16.5s-46 -25.833 -64 -44.5s-32.167 -40.667 -42.5 -66s-15.5 -52.333 -15.5 -81s5.16699 -55.667 15.5 -81s24.5 -47.333 42.5 -66s39.333 -33.5 64 -44.5s51 -16.5 79 -16.5z" />
    <glyph glyph-name="yen" unicode="&#xa5;" horiz-adv-x="588" 
d="M97 386h171v6l-216 338h65l179 -282l179 282h64l-214 -337v-7h169v-48h-169v-120h169v-48h-169v-170h-57v170h-171v48h171v120h-171v48z" />
    <glyph glyph-name="brokenbar" unicode="&#xa6;" horiz-adv-x="217" 
d="M66 730h58v-420h-58v420zM66 190h58v-420h-58v420z" />
    <glyph glyph-name="section" unicode="&#xa7;" horiz-adv-x="606" 
d="M302 -10c-36.667 0 -68.8252 4.49902 -96.4922 13.499s-50.834 20.833 -69.501 35.5s-32.834 31.334 -42.501 50.001s-15.5 38 -17.5 58l58 13c1.33301 -16.667 5.5 -32.5 12.5 -47.5s17.5 -28 31.5 -39s31.5 -19.833 52.5 -26.5s45.5 -10 73.5 -10
c17.333 0 35 1.83301 53 5.5s34.167 9.5 48.5 17.5s26 18.333 35 31s13.5 28 13.5 46c0 16 -4.33301 29.333 -13 40s-21 19.5 -37 26.5s-35 13 -57 18s-46 10.167 -72 15.5c-32.667 7.33301 -62.334 14.833 -89.001 22.5s-49.334 17 -68.001 28s-33 23.833 -43 38.5
s-15 32.334 -15 53.001c0 26 8.33301 49.833 25 71.5s40 37.167 70 46.5c-18.667 11.333 -33 24.5 -43 39.5s-15 33.833 -15 56.5c0 23.333 5 44.166 15 62.499s23.667 33.833 41 46.5s38.166 22.167 62.499 28.5s50.5 9.5 78.5 9.5c35.333 0 65.833 -4.16699 91.5 -12.5
s47.167 -19.5 64.5 -33.5s30.666 -30 39.999 -48s15 -36.667 17 -56l-56 -11c-2.66699 33.333 -16 60.833 -40 82.5s-63.333 32.5 -118 32.5c-18 0 -35.5 -1.83301 -52.5 -5.5s-32.167 -9.33398 -45.5 -17.001s-24 -17.834 -32 -30.501s-12 -28 -12 -46
c0 -16 4.33301 -29.167 13 -39.5s20.834 -19.166 36.501 -26.499s34.334 -13.666 56.001 -18.999s45.5 -10.666 71.5 -15.999c32.667 -6.66699 62.167 -14 88.5 -22s48.666 -17.333 66.999 -28s32.5 -23.334 42.5 -38.001s15 -32.334 15 -53.001
c0 -24.667 -8.33301 -47.834 -25 -69.501s-39.334 -37.5 -68.001 -47.5c19.333 -10.667 34.166 -23.667 44.499 -39s15.5 -34.666 15.5 -57.999s-5.33301 -44.166 -16 -62.499s-25.334 -34 -44.001 -47s-40.5 -22.833 -65.5 -29.5s-51.833 -10 -80.5 -10zM305.009 280.999
c17.333 -3.33301 33.834 -6.83398 49.501 -10.501s30.167 -7.83398 43.5 -12.501c30 8 52.167 20.333 66.5 37s21.5 34.667 21.5 54c0 14.667 -5.16699 27.167 -15.5 37.5s-24 19.333 -41 27s-36.833 14.334 -59.5 20.001s-46.667 11.167 -72 16.5
c-17.333 3.33301 -33.833 7 -49.5 11s-30.167 8.33301 -43.5 13c-28.667 -4 -51 -14.5 -67 -31.5s-23.667 -35.833 -23 -56.5c0 -16 5.16699 -29.5 15.5 -40.5s24.166 -20.5 41.499 -28.5s37.5 -14.667 60.5 -20s47.167 -10.666 72.5 -15.999z" />
    <glyph glyph-name="dieresis" unicode="&#xa8;" horiz-adv-x="506" 
d="M119 650c0 12.667 4.16699 23 12.5 31s18.833 12 31.5 12c13.333 0 23.833 -4 31.5 -12s11.5 -18.333 11.5 -31s-3.83301 -23.167 -11.5 -31.5s-18.167 -12.5 -31.5 -12.5s-24 4.16699 -32 12.5s-12 18.833 -12 31.5zM287 650c0 12.667 4.16699 23 12.5 31
s18.833 12 31.5 12c13.333 0 23.833 -4 31.5 -12s11.5 -18.333 11.5 -31s-3.83301 -23.167 -11.5 -31.5s-18.167 -12.5 -31.5 -12.5s-24 4.16699 -32 12.5s-12 18.833 -12 31.5z" />
    <glyph glyph-name="copyright" unicode="&#xa9;" horiz-adv-x="858" 
d="M429 -10c-52 0 -100.667 9.83301 -146 29.5s-85 46.5 -119 80.5s-60.833 73.667 -80.5 119s-29.5 94 -29.5 146s9.83301 100.667 29.5 146s46.5 85 80.5 119s73.667 60.833 119 80.5s94 29.5 146 29.5s100.667 -9.83301 146 -29.5s85 -46.5 119 -80.5
s60.833 -73.667 80.5 -119s29.5 -94 29.5 -146s-9.83301 -100.667 -29.5 -146s-46.5 -85 -80.5 -119s-73.667 -60.833 -119 -80.5s-94 -29.5 -146 -29.5zM429 41c45.333 0 87.333 8.5 126 25.5s72.334 40.167 101.001 69.5s51.167 63.666 67.5 102.999s24.5 81.333 24.5 126
s-8.16699 86.667 -24.5 126s-38.833 73.666 -67.5 102.999s-62.334 52.5 -101.001 69.5s-80.667 25.5 -126 25.5c-44.667 0 -86.5 -8.5 -125.5 -25.5s-72.833 -40.167 -101.5 -69.5s-51.167 -63.666 -67.5 -102.999s-24.5 -81.333 -24.5 -126s8.16699 -86.667 24.5 -126
s38.833 -73.666 67.5 -102.999s62.5 -52.5 101.5 -69.5s80.833 -25.5 125.5 -25.5zM433 167c-28 0 -54.168 5.16699 -78.501 15.5s-45.333 24.5 -63 42.5s-31.667 39 -42 63s-15.5 49.667 -15.5 77s5.16699 53 15.5 77s24.5 45 42.5 63s39 32.167 63 42.5s50 15.5 78 15.5
c36.667 0 70.167 -9 100.5 -27s53.833 -41 70.5 -69l-49 -31c-11.333 21.333 -27.666 38.833 -48.999 52.5s-46 20.5 -74 20.5c-19.333 0 -37.666 -3.83301 -54.999 -11.5s-32.5 -18 -45.5 -31s-23.333 -28.167 -31 -45.5s-11.5 -36 -11.5 -56s3.83301 -38.833 11.5 -56.5
s18 -33 31 -46s28.167 -23.333 45.5 -31s35.666 -11.5 54.999 -11.5c29.333 0 55 7.33301 77 22s38.333 33.667 49 57l50 -28c-16 -30.667 -39.667 -55.667 -71 -75s-66 -29 -104 -29z" />
    <glyph glyph-name="ordfeminine" unicode="&#xaa;" horiz-adv-x="418" 
d="M205 435c-18 0 -35.667 3.50098 -53 10.501s-32.833 17 -46.5 30s-24.667 28.833 -33 47.5s-12.5 39.334 -12.5 62.001c0 23.333 4.16699 44.333 12.5 63s19.5 34.5 33.5 47.5s29.667 23 47 30s35 10.5 53 10.5c23.333 0 44.833 -4.83301 64.5 -14.5
s35.5 -22.834 47.5 -39.501v48h44v-289h-44v48c-12 -16.667 -27.833 -29.834 -47.5 -39.501s-41.5 -14.5 -65.5 -14.5zM213 476.001c15.333 0 29.5 2.99902 42.5 8.99902s24.167 14 33.5 24s16.666 21.667 21.999 35s8 27.333 8 42c0 15.333 -2.66699 29.5 -8 42.5
s-12.666 24.5 -21.999 34.5s-20.5 17.833 -33.5 23.5s-27.167 8.5 -42.5 8.5s-29.5 -2.83301 -42.5 -8.5s-24.333 -13.334 -34 -23.001s-17.334 -21.167 -23.001 -34.5s-8.5 -27.666 -8.5 -42.999s2.83301 -29.666 8.5 -42.999s13.334 -25 23.001 -35s21 -17.833 34 -23.5
s27.167 -8.5 42.5 -8.5z" />
    <glyph glyph-name="guillemotleft" unicode="&#xab;" horiz-adv-x="451" 
d="M67 232v36l155 117v-45l-119 -91l119 -90v-44zM229 232v36l154 117v-45l-118 -91l118 -90v-44z" />
    <glyph glyph-name="logicalnot" unicode="&#xac;" horiz-adv-x="603" 
d="M505 456h-471v55h529v-310h-58v255z" />
    <glyph glyph-name="uni00AD" unicode="&#xad;" horiz-adv-x="475" 
d="M53 277h370v-51h-370v51z" />
    <glyph glyph-name="registered" unicode="&#xae;" horiz-adv-x="858" 
d="M429 -125c-52 0 -100.667 9.83301 -146 29.5s-85 46.5 -119 80.5s-60.833 73.667 -80.5 119s-29.5 94 -29.5 146s9.83301 100.667 29.5 146s46.5 85 80.5 119s73.667 60.833 119 80.5s94 29.5 146 29.5s100.667 -9.83301 146 -29.5s85 -46.5 119 -80.5
s60.833 -73.667 80.5 -119s29.5 -94 29.5 -146s-9.83301 -100.667 -29.5 -146s-46.5 -85 -80.5 -119s-73.667 -60.833 -119 -80.5s-94 -29.5 -146 -29.5zM429 -74c45.333 0 87.333 8.5 126 25.5s72.334 40.167 101.001 69.5s51.167 63.666 67.5 102.999
s24.5 81.333 24.5 126s-8.16699 86.667 -24.5 126s-38.833 73.666 -67.5 102.999s-62.334 52.5 -101.001 69.5s-80.667 25.5 -126 25.5c-44.667 0 -86.5 -8.5 -125.5 -25.5s-72.833 -40.167 -101.5 -69.5s-51.167 -63.666 -67.5 -102.999s-24.5 -81.333 -24.5 -126
s8.16699 -86.667 24.5 -126s38.833 -73.666 67.5 -102.999s62.5 -52.5 101.5 -69.5s80.833 -25.5 125.5 -25.5zM299 443l147.999 0.00292969c21.333 0 40.5 -3.16699 57.5 -9.5s31.5 -14.833 43.5 -25.5s21.167 -23.334 27.5 -38.001s9.5 -30 9.5 -46
c0 -28.667 -7.66699 -54.334 -23 -77.001s-37.666 -37.667 -66.999 -45l90 -133h-64l-109 169h27c26 0 47.5 7.66699 64.5 23s25.5 35.666 25.5 60.999c0 24.667 -8.66699 43.167 -26 55.5s-38 18.5 -62 18.5h-88v-327h-54v374z" />
    <glyph glyph-name="macron" unicode="&#xaf;" horiz-adv-x="502" 
d="M120 615h264v-50h-264v50z" />
    <glyph glyph-name="degree" unicode="&#xb0;" horiz-adv-x="433" 
d="M217 517c-15.333 0 -29.833 3 -43.5 9s-25.5 14 -35.5 24s-18 21.833 -24 35.5s-9 28.167 -9 43.5s3 29.666 9 42.999s14 25 24 35s21.833 18 35.5 24s28.167 9 43.5 9s29.833 -3 43.5 -9s25.5 -14 35.5 -24s17.833 -21.667 23.5 -35s8.5 -27.666 8.5 -42.999
s-2.83301 -29.833 -8.5 -43.5s-13.5 -25.5 -23.5 -35.5s-21.833 -18 -35.5 -24s-28.167 -9 -43.5 -9zM217 565c17.333 0 32.166 6.16699 44.499 18.5s18.5 27.166 18.5 44.499s-6.16699 32.166 -18.5 44.499s-27.166 18.5 -44.499 18.5s-32.166 -6.16699 -44.499 -18.5
s-18.5 -27.166 -18.5 -44.499s6.16699 -32.166 18.5 -44.499s27.166 -18.5 44.499 -18.5z" />
    <glyph glyph-name="plusminus" unicode="&#xb1;" horiz-adv-x="475" 
d="M53 487h160v160h50v-160h160v-50h-160v-160h-50v160h-160v50zM53 181h370v-50h-370v50z" />
    <glyph glyph-name="uni00B2" unicode="&#xb2;" horiz-adv-x="344" 
d="M39 358c0 17.333 3.49902 33.1689 10.499 47.502s16.167 27.666 27.5 39.999s24 23.833 38 34.5l42 31l36.5 25.5c11.667 8.33301 22 16.833 31 25.5s16.167 17.834 21.5 27.501s8 19.834 8 30.501c0 20 -7.33301 36.667 -22 50s-34.667 20 -60 20
c-22 0 -40.667 -6 -56 -18s-27.666 -27.667 -36.999 -47l-45 23c12.667 26.667 30.667 48 54 64s51.333 24 84 24c42 0 75 -11.167 99 -33.5s36 -49.833 36 -82.5c0 -16.667 -3.33301 -31.834 -10 -45.501s-15.334 -26.334 -26.001 -38.001s-22.667 -22.5 -36 -32.5
s-27 -19.667 -41 -29l-37.5 -26c-12.333 -8.66699 -23.166 -17.834 -32.499 -27.501s-17 -19.667 -23 -30s-9 -21.5 -9 -33.5h216v-50h-269v50z" />
    <glyph glyph-name="uni00B3" unicode="&#xb3;" horiz-adv-x="329" 
d="M158 302c-27.333 0 -52.333 4.66992 -75 14.0029s-42 23.666 -58 42.999l44 34c21.333 -28.667 51 -43 89 -43c25.333 0 46.166 7 62.499 21s24.5 32.333 24.5 55c0 24 -8.66699 42.667 -26 56s-39.333 20 -66 20h-42v48h42c27.333 0 48.333 6.66699 63 20
s22 30.666 22 51.999c0 20.667 -7.5 37.167 -22.5 49.5s-34.833 18.5 -59.5 18.5c-19.333 0 -36 -4.16699 -50 -12.5s-25 -18.833 -33 -31.5l-44 25c12 18.667 29 34.167 51 46.5s47.333 18.5 76 18.5c40.667 0 72.834 -10.333 96.501 -31s35.5 -48.334 35.5 -83.001
c0 -21.333 -5 -40 -15 -56s-24 -29 -42 -39c20 -9.33301 36 -22.5 48 -39.5s18 -37.5 18 -61.5c0 -36 -12.167 -65.667 -36.5 -89s-58.5 -35 -102.5 -35z" />
    <glyph glyph-name="acute" unicode="&#xb4;" horiz-adv-x="502" 
d="M266 720h75l-140 -155h-54z" />
    <glyph glyph-name="mu" unicode="&#xb5;" horiz-adv-x="604" 
d="M71 500l57.998 -0.000976562v-276c0 -27.333 4.33301 -52.166 13 -74.499s20.5 -41.5 35.5 -57.5s33 -28.333 54 -37s43.833 -13 68.5 -13c25.333 0 48.833 4.5 70.5 13.5s40.334 21.5 56.001 37.5s28 35 37 57s13.5 45.667 13.5 71v279h57v-500h-56v93
c-17.333 -30.667 -41.833 -55.5 -73.5 -74.5s-68.5 -28.5 -110.5 -28.5c-36.667 0 -69.167 8 -97.5 24s-51.166 35.667 -68.499 59v-303h-57v730z" />
    <glyph glyph-name="mu" unicode="&#x3bc;" horiz-adv-x="604" 
d="M71 500l57.998 -0.000976562v-276c0 -27.333 4.33301 -52.166 13 -74.499s20.5 -41.5 35.5 -57.5s33 -28.333 54 -37s43.833 -13 68.5 -13c25.333 0 48.833 4.5 70.5 13.5s40.334 21.5 56.001 37.5s28 35 37 57s13.5 45.667 13.5 71v279h57v-500h-56v93
c-17.333 -30.667 -41.833 -55.5 -73.5 -74.5s-68.5 -28.5 -110.5 -28.5c-36.667 0 -69.167 8 -97.5 24s-51.166 35.667 -68.499 59v-303h-57v730z" />
    <glyph glyph-name="paragraph" unicode="&#xb6;" horiz-adv-x="575" 
d="M346 302h-90.998c-30.667 0 -59.334 5.5 -86.001 16.5s-49.667 26.167 -69 45.5s-34.5 42 -45.5 68s-16.5 54 -16.5 84s5.5 58 16.5 84s26.167 48.667 45.5 68s42.166 34.5 68.499 45.5s54.833 16.5 85.5 16.5h255v-730h-52v678h-60v-678h-51v302z" />
    <glyph glyph-name="periodcentered" unicode="&#xb7;" horiz-adv-x="191" 
d="M66 318h58v-137h-58v137z" />
    <glyph glyph-name="cedilla" unicode="&#xb8;" horiz-adv-x="502" 
d="M248 -227c-31.333 0 -58.166 4.99902 -80.499 14.999s-41.833 22.667 -58.5 38l46 28c13.333 -11.333 26.666 -20.5 39.999 -27.5s31 -10.5 53 -10.5c23.333 0 42.5 4.66699 57.5 14s22.5 21.333 22.5 36c0 13.333 -7.16699 24 -21.5 32s-34.833 12 -61.5 12h-33v90h49
v-53c36 -0.666992 65.167 -8.16699 87.5 -22.5s33.5 -33.166 33.5 -56.499c0 -14 -3.5 -26.833 -10.5 -38.5s-16.5 -21.667 -28.5 -30s-26.167 -14.833 -42.5 -19.5s-33.833 -7 -52.5 -7z" />
    <glyph glyph-name="uni00B9" unicode="&#xb9;" horiz-adv-x="286" 
d="M37 357l83.999 0.000976562v285c-6 -10 -15.833 -18.5 -29.5 -25.5s-27.167 -10.5 -40.5 -10.5h-6v55h3c14 0 25.667 2.16699 35 6.5s16.833 9.83301 22.5 16.5s9.83398 14.167 12.501 22.5s4 16.166 4 23.499h51v-373h81v-49h-217v49z" />
    <glyph glyph-name="ordmasculine" unicode="&#xba;" horiz-adv-x="421" 
d="M210 435c-20.667 0 -40.167 4 -58.5 12s-34.166 18.667 -47.499 32s-24 29.166 -32 47.499s-12 37.833 -12 58.5c0 21.333 4 41.166 12 59.499s18.667 34.166 32 47.499s29.166 24 47.499 32s37.833 12 58.5 12c21.333 0 41.166 -4 59.499 -12s34.166 -18.667 47.499 -32
s24 -29.166 32 -47.499s12 -38.166 12 -59.499c0 -20.667 -4 -40.167 -12 -58.5s-18.667 -34.166 -32 -47.499s-29.166 -24 -47.499 -32s-38.166 -12 -59.499 -12zM210 478c15.333 0 29.333 2.83301 42 8.5s23.834 13.334 33.501 23.001s17.167 21 22.5 34s8 26.833 8 41.5
c0 15.333 -2.66699 29.5 -8 42.5s-12.833 24.333 -22.5 34s-20.834 17.334 -33.501 23.001s-26.667 8.5 -42 8.5c-14.667 0 -28.334 -2.83301 -41.001 -8.5s-23.667 -13.334 -33 -23.001s-16.833 -21 -22.5 -34s-8.5 -27.167 -8.5 -42.5c0 -14.667 2.83301 -28.5 8.5 -41.5
s13.167 -24.333 22.5 -34s20.333 -17.334 33 -23.001s26.334 -8.5 41.001 -8.5z" />
    <glyph glyph-name="guillemotright" unicode="&#xbb;" horiz-adv-x="451" 
d="M67 160l119 90l-119 90v45l155 -117v-35l-155 -117v44zM229 160l119 90l-119 90v45l154 -117v-35l-154 -117v44z" />
    <glyph glyph-name="onequarter" unicode="&#xbc;" horiz-adv-x="781" 
d="M627 97h-195v48l193 277h54v-277h61v-48h-61v-97h-52v97zM632 730h68l-527 -730h-68zM37 357l83.999 0.000976562v285c-6 -10 -15.833 -18.5 -29.5 -25.5s-27.167 -10.5 -40.5 -10.5h-6v55h3c14 0 25.667 2.16699 35 6.5s16.833 9.83301 22.5 16.5
s9.83398 14.167 12.501 22.5s4 16.166 4 23.499h51v-373h81v-49h-217v49zM626.999 145.001v196l-138 -196h138z" />
    <glyph glyph-name="onehalf" unicode="&#xbd;" horiz-adv-x="831" 
d="M632 730h68l-527 -730h-68zM523 50c0 17.333 3.49902 33.1689 10.499 47.502s16.167 27.666 27.5 39.999s24 23.833 38 34.5l42 31l36.5 25.5c11.667 8.33301 22 16.833 31 25.5s16.167 17.834 21.5 27.501s8 19.834 8 30.501c0 20 -7.33301 36.667 -22 50
s-34.667 20 -60 20c-22 0 -40.667 -6 -56 -18s-27.666 -27.667 -36.999 -47l-45 23c12.667 26.667 30.667 48 54 64s51.333 24 84 24c42 0 75 -11.167 99 -33.5s36 -49.833 36 -82.5c0 -16.667 -3.33301 -31.834 -10 -45.501s-15.334 -26.334 -26.001 -38.001
s-22.667 -22.5 -36 -32.5s-27 -19.667 -41 -29l-37.5 -26c-12.333 -8.66699 -23.166 -17.834 -32.499 -27.501s-17 -19.667 -23 -30s-9 -21.5 -9 -33.5h216v-50h-269v50zM36.999 357.003l83.999 0.000976562v285c-6 -10 -15.833 -18.5 -29.5 -25.5
s-27.167 -10.5 -40.5 -10.5h-6v55h3c14 0 25.667 2.16699 35 6.5s16.833 9.83301 22.5 16.5s9.83398 14.167 12.501 22.5s4 16.166 4 23.499h51v-373h81v-49h-217v49z" />
    <glyph glyph-name="threequarters" unicode="&#xbe;" horiz-adv-x="811" 
d="M658 97h-195v48l193 277h54v-277h61v-48h-61v-97h-52v97zM663 730h68l-527 -730h-68zM158 302c-27.333 0 -52.333 4.66992 -75 14.0029s-42 23.666 -58 42.999l44 34c21.333 -28.667 51 -43 89 -43c25.333 0 46.166 7 62.499 21s24.5 32.333 24.5 55
c0 24 -8.66699 42.667 -26 56s-39.333 20 -66 20h-42v48h42c27.333 0 48.333 6.66699 63 20s22 30.666 22 51.999c0 20.667 -7.5 37.167 -22.5 49.5s-34.833 18.5 -59.5 18.5c-19.333 0 -36 -4.16699 -50 -12.5s-25 -18.833 -33 -31.5l-44 25c12 18.667 29 34.167 51 46.5
s47.333 18.5 76 18.5c40.667 0 72.834 -10.333 96.501 -31s35.5 -48.334 35.5 -83.001c0 -21.333 -5 -40 -15 -56s-24 -29 -42 -39c20 -9.33301 36 -22.5 48 -39.5s18 -37.5 18 -61.5c0 -36 -12.167 -65.667 -36.5 -89s-58.5 -35 -102.5 -35zM658 145.003v196l-138 -196h138
z" />
    <glyph glyph-name="questiondown" unicode="&#xbf;" horiz-adv-x="539" 
d="M267 -240c-30 0 -57.835 4.16602 -83.502 12.499s-48 20.333 -67 36s-33.833 34.334 -44.5 56.001s-16 45.834 -16 72.501c0 31.333 4.83301 56.833 14.5 76.5s22 36.5 37 50.5s31 27.167 48 39.5s33 26.666 48 42.999s27.333 36.666 37 60.999s14.5 55.5 14.5 93.5v38
h53v-38c0 -42 -4.83301 -76.667 -14.5 -104s-21.667 -50.166 -36 -68.499s-29.833 -33.833 -46.5 -46.5s-32.167 -25.5 -46.5 -38.5s-26.333 -27.667 -36 -44s-14.5 -37.5 -14.5 -63.5c0 -18.667 4 -35.667 12 -51s18.833 -28.5 32.5 -39.5s29.834 -19.5 48.501 -25.5
s38.667 -9 60 -9c42 0 75.667 8.83301 101 26.5s46 41.167 62 70.5l51 -24c-17.333 -34.667 -44.166 -64 -80.499 -88s-80.833 -36 -133.5 -36zM230.998 461.999c0 14 4.66699 25.5 14 34.5s21 13.5 35 13.5c15.333 0 27.333 -4.5 36 -13.5s13 -20.5 13 -34.5
s-4.33301 -25.667 -13 -35s-20.667 -14 -36 -14s-27.333 4.66699 -36 14s-13 21 -13 35z" />
    <glyph glyph-name="Agrave" unicode="&#xc0;" horiz-adv-x="698" 
d="M318 730h62l281 -730h-61l-79 204h-345l-78 -204h-61zM197 259h303l-151 394zM178 950h74l120 -155h-54z" />
    <glyph glyph-name="Aacute" unicode="&#xc1;" horiz-adv-x="698" 
d="M318 730h62l281 -730h-61l-79 204h-345l-78 -204h-61zM197 259h303l-151 394zM434 950h75l-140 -155h-54z" />
    <glyph glyph-name="Acircumflex" unicode="&#xc2;" horiz-adv-x="698" 
d="M318 730h62l281 -730h-61l-79 204h-345l-78 -204h-61zM197 259h303l-151 394zM319 950h49l119 -155h-61l-83 110l-83 -110h-60z" />
    <glyph glyph-name="Atilde" unicode="&#xc3;" horiz-adv-x="698" 
d="M318 730h62l281 -730h-61l-79 204h-345l-78 -204h-61zM197 259h303l-151 394zM170 795c0 33.333 8.66699 59.667 26 79s39.666 29 66.999 29c16.667 0 31.834 -3 45.501 -9s27.167 -13 40.5 -21l36.5 -21c11.667 -6.66699 23.5 -10 35.5 -10
c15.333 0 27.5 4.66699 36.5 14s13.5 24 13.5 44h46c0 -34 -8.16699 -60.667 -24.5 -80s-39.833 -29 -70.5 -29c-19.333 0 -36.5 3.83301 -51.5 11.5s-29.167 15.5 -42.5 23.5l-32 18.5c-10 5.66699 -21 8.5 -33 8.5c-13.333 0 -24.333 -4.83301 -33 -14.5
s-13 -24.167 -13 -43.5h-47z" />
    <glyph glyph-name="Adieresis" unicode="&#xc4;" horiz-adv-x="698" 
d="M318 730h62l281 -730h-61l-79 204h-345l-78 -204h-61zM197 259h303l-151 394zM219 880c0 12.667 4.16699 23 12.5 31s18.833 12 31.5 12c13.333 0 23.833 -4 31.5 -12s11.5 -18.333 11.5 -31s-3.83301 -23.167 -11.5 -31.5s-18.167 -12.5 -31.5 -12.5
s-24 4.16699 -32 12.5s-12 18.833 -12 31.5zM387 880c0 12.667 4.16699 23 12.5 31s18.833 12 31.5 12c13.333 0 23.833 -4 31.5 -12s11.5 -18.333 11.5 -31s-3.83301 -23.167 -11.5 -31.5s-18.167 -12.5 -31.5 -12.5s-24 4.16699 -32 12.5s-12 18.833 -12 31.5z" />
    <glyph glyph-name="Aring" unicode="&#xc5;" horiz-adv-x="698" 
d="M305 697c-17.333 7.33301 -31.5 19.166 -42.5 35.499s-16.5 34.833 -16.5 55.5c0 28 9.5 51.667 28.5 71s42.167 29 69.5 29c28.667 0 52.667 -9.66699 72 -29s29 -43 29 -71c0 -19.333 -5 -36.666 -15 -51.999s-23 -27.333 -39 -36l270 -700h-61l-79 204h-345l-78 -204
h-61zM197 259h303l-151 394zM344 734c15.333 0 28.5 5.16699 39.5 15.5s16.5 23.166 16.5 38.499s-5.5 28.333 -16.5 39s-24.167 16 -39.5 16c-14.667 0 -27.334 -5.33301 -38.001 -16s-16 -23.667 -16 -39s5.33301 -28.166 16 -38.499s23.334 -15.5 38.001 -15.5z" />
    <glyph glyph-name="AE" unicode="&#xc6;" horiz-adv-x="1037" 
d="M401 730h561v-55h-485l63 -282h422v-54h-410l63 -284h347v-55h-393l-45 199h-327l-100 -199h-66zM224 252h288l-88 395z" />
    <glyph glyph-name="Ccedilla" unicode="&#xc7;" horiz-adv-x="796" 
d="M430 -227c-31.333 0 -58.1689 5 -80.502 15s-41.833 22.667 -58.5 38l46 28c13.333 -11.333 26.666 -20.5 39.999 -27.5s31 -10.5 53 -10.5c23.333 0 42.5 4.66699 57.5 14s22.5 21.333 22.5 36c0 13.333 -7.16699 24 -21.5 32s-34.833 12 -61.5 12h-33v82
c-48 4 -92.667 16.5 -134 37.5s-77.333 48.167 -108 81.5s-54.834 71.833 -72.501 115.5s-26.5 89.834 -26.5 138.501c0 52 9.83301 100.667 29.5 146s46.5 85 80.5 119s73.667 60.833 119 80.5s94 29.5 146 29.5c34 0 66.833 -4.5 98.5 -13.5s61.334 -21.5 89.001 -37.5
s52.834 -35.333 75.501 -58s42.334 -47.667 59.001 -75l-50 -29c-27.333 47.333 -64.666 85.666 -111.999 114.999s-100.666 44 -159.999 44c-44.667 0 -86.167 -8.5 -124.5 -25.5s-71.666 -40 -99.999 -69s-50.666 -63 -66.999 -102s-24.5 -80.5 -24.5 -124.5
s8.16699 -85.333 24.5 -124s38.666 -72.5 66.999 -101.5s61.666 -52 99.999 -69s79.833 -25.5 124.5 -25.5c64.667 0 121.167 15.5 169.5 46.5s85.5 71.5 111.5 121.5l51 -26c-31.333 -57.333 -74.333 -103.833 -129 -139.5s-117.334 -54.834 -188.001 -57.501v-43
c36 -0.666992 65.167 -8.16699 87.5 -22.5s33.5 -33.166 33.5 -56.499c0 -14 -3.5 -26.833 -10.5 -38.5s-16.5 -21.667 -28.5 -30s-26.167 -14.833 -42.5 -19.5s-33.833 -7 -52.5 -7z" />
    <glyph glyph-name="Egrave" unicode="&#xc8;" horiz-adv-x="587" 
d="M75 730h447v-55h-389v-282h389v-54h-389v-284h389v-55h-447v730zM140 950h74l120 -155h-54z" />
    <glyph glyph-name="Eacute" unicode="&#xc9;" horiz-adv-x="587" 
d="M75 730h447v-55h-389v-282h389v-54h-389v-284h389v-55h-447v730zM372 950h75l-140 -155h-54z" />
    <glyph glyph-name="Ecircumflex" unicode="&#xca;" horiz-adv-x="587" 
d="M75 730h447v-55h-389v-282h389v-54h-389v-284h389v-55h-447v730zM270 950h49l119 -155h-61l-83 110l-83 -110h-60z" />
    <glyph glyph-name="Edieresis" unicode="&#xcb;" horiz-adv-x="587" 
d="M75 730h447v-55h-389v-282h389v-54h-389v-284h389v-55h-447v730zM338 880c0 12.667 4.16699 23 12.5 31s18.833 12 31.5 12c13.333 0 23.833 -4 31.5 -12s11.5 -18.333 11.5 -31s-3.83301 -23.167 -11.5 -31.5s-18.167 -12.5 -31.5 -12.5s-24 4.16699 -32 12.5
s-12 18.833 -12 31.5zM170 880c0 12.667 4.16699 23 12.5 31s18.833 12 31.5 12c13.333 0 23.833 -4 31.5 -12s11.5 -18.333 11.5 -31s-3.83301 -23.167 -11.5 -31.5s-18.167 -12.5 -31.5 -12.5s-24 4.16699 -32 12.5s-12 18.833 -12 31.5z" />
    <glyph glyph-name="Igrave" unicode="&#xcc;" horiz-adv-x="227" 
d="M85 730h57v-730h-57v730zM-53 950h74l120 -155h-54z" />
    <glyph glyph-name="Iacute" unicode="&#xcd;" horiz-adv-x="227" 
d="M85 730h57v-730h-57v730zM202 950h75l-140 -155h-54z" />
    <glyph glyph-name="Icircumflex" unicode="&#xce;" horiz-adv-x="227" 
d="M85 730h57v-730h-57v730zM88 950h49l119 -155h-61l-83 110l-83 -110h-60z" />
    <glyph glyph-name="Idieresis" unicode="&#xcf;" horiz-adv-x="227" 
d="M185 939h56v-139h-56v139zM-15 939h56v-139h-56v139zM85 730h57v-730h-57v730z" />
    <glyph glyph-name="Eth" unicode="&#xd0;" horiz-adv-x="731" 
d="M22 397l75 0.000976562v333h203c55.333 0 106.166 -9.33301 152.499 -28s86.333 -44.334 120 -77.001s59.834 -71.167 78.501 -115.5s28 -92.5 28 -144.5s-9.66699 -100.333 -29 -145s-45.833 -83.167 -79.5 -115.5s-73.5 -57.833 -119.5 -76.5s-95.667 -28 -149 -28
h-205v341h-75v56zM155 677.001v-280h231v-56h-231v-287h142c46 0 88.833 7.83301 128.5 23.5s74 37.5 103 65.5s51.667 61 68 99s24.5 79 24.5 123s-8 85 -24 123s-38.5 71 -67.5 99s-63.333 50 -103 66s-83.5 24 -131.5 24h-140z" />
    <glyph glyph-name="Ntilde" unicode="&#xd1;" horiz-adv-x="742" 
d="M75 730h64l470 -640v640h58v-730h-62l-472 643v-643h-58v730zM197 795c0 33.333 8.66699 59.667 26 79s39.666 29 66.999 29c16.667 0 31.834 -3 45.501 -9s27.167 -13 40.5 -21l36.5 -21c11.667 -6.66699 23.5 -10 35.5 -10c15.333 0 27.5 4.66699 36.5 14
s13.5 24 13.5 44h46c0 -34 -8.16699 -60.667 -24.5 -80s-39.833 -29 -70.5 -29c-19.333 0 -36.5 3.83301 -51.5 11.5s-29.167 15.5 -42.5 23.5l-32 18.5c-10 5.66699 -21 8.5 -33 8.5c-13.333 0 -24.333 -4.83301 -33 -14.5s-13 -24.167 -13 -43.5h-47z" />
    <glyph glyph-name="Ograve" unicode="&#xd2;" horiz-adv-x="855" 
d="M428 -10c-52 0 -100.667 9.83301 -146 29.5s-85 46.5 -119 80.5s-60.833 73.667 -80.5 119s-29.5 94 -29.5 146s9.83301 100.667 29.5 146s46.5 85 80.5 119s73.667 60.833 119 80.5s94 29.5 146 29.5s100.667 -9.83301 146 -29.5s85 -46.5 119 -80.5
s60.833 -73.667 80.5 -119s29.5 -94 29.5 -146s-9.83301 -100.667 -29.5 -146s-46.5 -85 -80.5 -119s-73.667 -60.833 -119 -80.5s-94 -29.5 -146 -29.5zM428 45c44.667 0 86.167 8.5 124.5 25.5s71.666 40 99.999 69s50.5 62.833 66.5 101.5s24 80 24 124
s-8 85.5 -24 124.5s-38.167 73 -66.5 102s-61.666 51.833 -99.999 68.5s-79.833 25 -124.5 25s-86.167 -8.33301 -124.5 -25s-71.666 -39.5 -99.999 -68.5s-50.666 -63 -66.999 -102s-24.5 -80.5 -24.5 -124.5s8.16699 -85.333 24.5 -124s38.666 -72.5 66.999 -101.5
s61.666 -52 99.999 -69s79.833 -25.5 124.5 -25.5zM258 950h74l120 -155h-54z" />
    <glyph glyph-name="Oacute" unicode="&#xd3;" horiz-adv-x="855" 
d="M510 950h75l-140 -155h-54zM428 -10c-52 0 -100.667 9.83301 -146 29.5s-85 46.5 -119 80.5s-60.833 73.667 -80.5 119s-29.5 94 -29.5 146s9.83301 100.667 29.5 146s46.5 85 80.5 119s73.667 60.833 119 80.5s94 29.5 146 29.5s100.667 -9.83301 146 -29.5
s85 -46.5 119 -80.5s60.833 -73.667 80.5 -119s29.5 -94 29.5 -146s-9.83301 -100.667 -29.5 -146s-46.5 -85 -80.5 -119s-73.667 -60.833 -119 -80.5s-94 -29.5 -146 -29.5zM428 45c44.667 0 86.167 8.5 124.5 25.5s71.666 40 99.999 69s50.5 62.833 66.5 101.5
s24 80 24 124s-8 85.5 -24 124.5s-38.167 73 -66.5 102s-61.666 51.833 -99.999 68.5s-79.833 25 -124.5 25s-86.167 -8.33301 -124.5 -25s-71.666 -39.5 -99.999 -68.5s-50.666 -63 -66.999 -102s-24.5 -80.5 -24.5 -124.5s8.16699 -85.333 24.5 -124
s38.666 -72.5 66.999 -101.5s61.666 -52 99.999 -69s79.833 -25.5 124.5 -25.5z" />
    <glyph glyph-name="Ocircumflex" unicode="&#xd4;" horiz-adv-x="855" 
d="M428 -10c-52 0 -100.667 9.83301 -146 29.5s-85 46.5 -119 80.5s-60.833 73.667 -80.5 119s-29.5 94 -29.5 146s9.83301 100.667 29.5 146s46.5 85 80.5 119s73.667 60.833 119 80.5s94 29.5 146 29.5s100.667 -9.83301 146 -29.5s85 -46.5 119 -80.5
s60.833 -73.667 80.5 -119s29.5 -94 29.5 -146s-9.83301 -100.667 -29.5 -146s-46.5 -85 -80.5 -119s-73.667 -60.833 -119 -80.5s-94 -29.5 -146 -29.5zM428 45c44.667 0 86.167 8.5 124.5 25.5s71.666 40 99.999 69s50.5 62.833 66.5 101.5s24 80 24 124
s-8 85.5 -24 124.5s-38.167 73 -66.5 102s-61.666 51.833 -99.999 68.5s-79.833 25 -124.5 25s-86.167 -8.33301 -124.5 -25s-71.666 -39.5 -99.999 -68.5s-50.666 -63 -66.999 -102s-24.5 -80.5 -24.5 -124.5s8.16699 -85.333 24.5 -124s38.666 -72.5 66.999 -101.5
s61.666 -52 99.999 -69s79.833 -25.5 124.5 -25.5zM399 950h49l119 -155h-61l-83 110l-83 -110h-60z" />
    <glyph glyph-name="Otilde" unicode="&#xd5;" horiz-adv-x="855" 
d="M428 -10c-52 0 -100.667 9.83301 -146 29.5s-85 46.5 -119 80.5s-60.833 73.667 -80.5 119s-29.5 94 -29.5 146s9.83301 100.667 29.5 146s46.5 85 80.5 119s73.667 60.833 119 80.5s94 29.5 146 29.5s100.667 -9.83301 146 -29.5s85 -46.5 119 -80.5
s60.833 -73.667 80.5 -119s29.5 -94 29.5 -146s-9.83301 -100.667 -29.5 -146s-46.5 -85 -80.5 -119s-73.667 -60.833 -119 -80.5s-94 -29.5 -146 -29.5zM428 45c44.667 0 86.167 8.5 124.5 25.5s71.666 40 99.999 69s50.5 62.833 66.5 101.5s24 80 24 124
s-8 85.5 -24 124.5s-38.167 73 -66.5 102s-61.666 51.833 -99.999 68.5s-79.833 25 -124.5 25s-86.167 -8.33301 -124.5 -25s-71.666 -39.5 -99.999 -68.5s-50.666 -63 -66.999 -102s-24.5 -80.5 -24.5 -124.5s8.16699 -85.333 24.5 -124s38.666 -72.5 66.999 -101.5
s61.666 -52 99.999 -69s79.833 -25.5 124.5 -25.5zM248 795c0 33.333 8.66699 59.667 26 79s39.666 29 66.999 29c16.667 0 31.834 -3 45.501 -9s27.167 -13 40.5 -21l36.5 -21c11.667 -6.66699 23.5 -10 35.5 -10c15.333 0 27.5 4.66699 36.5 14s13.5 24 13.5 44h46
c0 -34 -8.16699 -60.667 -24.5 -80s-39.833 -29 -70.5 -29c-19.333 0 -36.5 3.83301 -51.5 11.5s-29.167 15.5 -42.5 23.5l-32 18.5c-10 5.66699 -21 8.5 -33 8.5c-13.333 0 -24.333 -4.83301 -33 -14.5s-13 -24.167 -13 -43.5h-47z" />
    <glyph glyph-name="Odieresis" unicode="&#xd6;" horiz-adv-x="855" 
d="M298 880c0 12.667 4.16699 23 12.5 31s18.833 12 31.5 12c13.333 0 23.833 -4 31.5 -12s11.5 -18.333 11.5 -31s-3.83301 -23.167 -11.5 -31.5s-18.167 -12.5 -31.5 -12.5s-24 4.16699 -32 12.5s-12 18.833 -12 31.5zM466 880c0 12.667 4.16699 23 12.5 31
s18.833 12 31.5 12c13.333 0 23.833 -4 31.5 -12s11.5 -18.333 11.5 -31s-3.83301 -23.167 -11.5 -31.5s-18.167 -12.5 -31.5 -12.5s-24 4.16699 -32 12.5s-12 18.833 -12 31.5zM428 -10c-52 0 -100.667 9.83301 -146 29.5s-85 46.5 -119 80.5s-60.833 73.667 -80.5 119
s-29.5 94 -29.5 146s9.83301 100.667 29.5 146s46.5 85 80.5 119s73.667 60.833 119 80.5s94 29.5 146 29.5s100.667 -9.83301 146 -29.5s85 -46.5 119 -80.5s60.833 -73.667 80.5 -119s29.5 -94 29.5 -146s-9.83301 -100.667 -29.5 -146s-46.5 -85 -80.5 -119
s-73.667 -60.833 -119 -80.5s-94 -29.5 -146 -29.5zM428 45c44.667 0 86.167 8.5 124.5 25.5s71.666 40 99.999 69s50.5 62.833 66.5 101.5s24 80 24 124s-8 85.5 -24 124.5s-38.167 73 -66.5 102s-61.666 51.833 -99.999 68.5s-79.833 25 -124.5 25
s-86.167 -8.33301 -124.5 -25s-71.666 -39.5 -99.999 -68.5s-50.666 -63 -66.999 -102s-24.5 -80.5 -24.5 -124.5s8.16699 -85.333 24.5 -124s38.666 -72.5 66.999 -101.5s61.666 -52 99.999 -69s79.833 -25.5 124.5 -25.5z" />
    <glyph glyph-name="multiply" unicode="&#xd7;" horiz-adv-x="475" 
d="M76 236l128 128l-128 129l34 34l128 -129l128 128l34 -34l-128 -128l128 -127l-34 -34l-128 127l-128 -128z" />
    <glyph glyph-name="Oslash" unicode="&#xd8;" horiz-adv-x="855" 
d="M182 82c-40 34.667 -71.5 76.3311 -94.5 124.998s-34.5 101.334 -34.5 158.001c0 52 9.83301 100.667 29.5 146s46.5 85 80.5 119s73.667 60.833 119 80.5s94 29.5 146 29.5c38 0 74 -5.16699 108 -15.5s65.667 -25.166 95 -44.499l38 50h68l-63 -83
c40 -34.667 71.5 -76.167 94.5 -124.5s34.5 -100.833 34.5 -157.5c0 -52 -9.83301 -100.667 -29.5 -146s-46.5 -85 -80.5 -119s-73.667 -60.833 -119 -80.5s-94 -29.5 -146 -29.5c-38 0 -74 5 -108 15s-65.667 24.667 -95 44l-37 -49h-68zM112 364.997
c0 -47.333 9.16504 -91.5 27.498 -132.5s43.5 -76.167 75.5 -105.5l383 508c-24.667 16 -51.167 28.333 -79.5 37s-58.5 13 -90.5 13c-44.667 0 -86.167 -8.33301 -124.5 -25s-71.666 -39.5 -99.999 -68.5s-50.666 -63 -66.999 -102s-24.5 -80.5 -24.5 -124.5z
M427.998 44.9971c44.667 0 86.168 8.50098 124.501 25.501s71.666 40 99.999 69s50.5 62.833 66.5 101.5s24 80 24 124c0 47.333 -9.16699 91.166 -27.5 131.499s-43.5 75.5 -75.5 105.5l-382 -508c24.667 -15.333 51.167 -27.333 79.5 -36s58.5 -13 90.5 -13z" />
    <glyph glyph-name="Ugrave" unicode="&#xd9;" horiz-adv-x="641" 
d="M320 -10c-35.333 0 -68.1689 6.33301 -98.502 19s-56.5 30.167 -78.5 52.5s-39.333 48.666 -52 78.999s-19 62.833 -19 97.5v492h58v-495c0 -26 4.83301 -50.667 14.5 -74s23 -43.5 40 -60.5s37.167 -30.5 60.5 -40.5s48.333 -15 75 -15s51.667 5 75 15
s43.5 23.667 60.5 41s30.5 37.5 40.5 60.5s15 47.833 15 74.5v494h58v-492c0 -34.667 -6.33301 -67.167 -19 -97.5s-30.167 -56.666 -52.5 -78.999s-48.666 -39.833 -78.999 -52.5s-63.166 -19 -98.499 -19zM156.997 950h74l120 -155h-54z" />
    <glyph glyph-name="Uacute" unicode="&#xda;" horiz-adv-x="641" 
d="M399 950h75l-140 -155h-54zM320 -10c-35.333 0 -68.1689 6.33301 -98.502 19s-56.5 30.167 -78.5 52.5s-39.333 48.666 -52 78.999s-19 62.833 -19 97.5v492h58v-495c0 -26 4.83301 -50.667 14.5 -74s23 -43.5 40 -60.5s37.167 -30.5 60.5 -40.5s48.333 -15 75 -15
s51.667 5 75 15s43.5 23.667 60.5 41s30.5 37.5 40.5 60.5s15 47.833 15 74.5v494h58v-492c0 -34.667 -6.33301 -67.167 -19 -97.5s-30.167 -56.666 -52.5 -78.999s-48.666 -39.833 -78.999 -52.5s-63.166 -19 -98.499 -19z" />
    <glyph glyph-name="Ucircumflex" unicode="&#xdb;" horiz-adv-x="641" 
d="M320 -10c-35.333 0 -68.1689 6.33301 -98.502 19s-56.5 30.167 -78.5 52.5s-39.333 48.666 -52 78.999s-19 62.833 -19 97.5v492h58v-495c0 -26 4.83301 -50.667 14.5 -74s23 -43.5 40 -60.5s37.167 -30.5 60.5 -40.5s48.333 -15 75 -15s51.667 5 75 15
s43.5 23.667 60.5 41s30.5 37.5 40.5 60.5s15 47.833 15 74.5v494h58v-492c0 -34.667 -6.33301 -67.167 -19 -97.5s-30.167 -56.666 -52.5 -78.999s-48.666 -39.833 -78.999 -52.5s-63.166 -19 -98.499 -19zM292.997 950h49l119 -155h-61l-83 110l-83 -110h-60z" />
    <glyph glyph-name="Udieresis" unicode="&#xdc;" horiz-adv-x="641" 
d="M192 880c0 12.667 4.16699 23 12.5 31s18.833 12 31.5 12c13.333 0 23.833 -4 31.5 -12s11.5 -18.333 11.5 -31s-3.83301 -23.167 -11.5 -31.5s-18.167 -12.5 -31.5 -12.5s-24 4.16699 -32 12.5s-12 18.833 -12 31.5zM360 880c0 12.667 4.16699 23 12.5 31
s18.833 12 31.5 12c13.333 0 23.833 -4 31.5 -12s11.5 -18.333 11.5 -31s-3.83301 -23.167 -11.5 -31.5s-18.167 -12.5 -31.5 -12.5s-24 4.16699 -32 12.5s-12 18.833 -12 31.5zM320 -10c-35.333 0 -68.1689 6.33301 -98.502 19s-56.5 30.167 -78.5 52.5
s-39.333 48.666 -52 78.999s-19 62.833 -19 97.5v492h58v-495c0 -26 4.83301 -50.667 14.5 -74s23 -43.5 40 -60.5s37.167 -30.5 60.5 -40.5s48.333 -15 75 -15s51.667 5 75 15s43.5 23.667 60.5 41s30.5 37.5 40.5 60.5s15 47.833 15 74.5v494h58v-492
c0 -34.667 -6.33301 -67.167 -19 -97.5s-30.167 -56.666 -52.5 -78.999s-48.666 -39.833 -78.999 -52.5s-63.166 -19 -98.499 -19z" />
    <glyph glyph-name="Yacute" unicode="&#xdd;" horiz-adv-x="612" 
d="M278 347l-245 383h65l208 -328l208 328h65l-243 -381v-349h-58v347zM391 950h75l-140 -155h-54z" />
    <glyph glyph-name="Thorn" unicode="&#xde;" horiz-adv-x="571" 
d="M73 730h58.002v-153h157c34 0 65 -5 93 -15s51.833 -24 71.5 -42s34.834 -39.5 45.501 -64.5s16 -52.5 16 -82.5s-5.33301 -57.5 -16 -82.5s-25.834 -46.5 -45.501 -64.5s-43.334 -32.167 -71.001 -42.5s-58.834 -15.5 -93.501 -15.5h-157v-168h-58v730zM131.002 523
v-302h153c53.333 0 95.166 14.167 125.499 42.5s45.5 64.833 45.5 109.5c0 44 -15.167 80 -45.5 108s-72.166 42 -125.499 42h-153z" />
    <glyph glyph-name="germandbls" unicode="&#xdf;" horiz-adv-x="642" 
d="M-60 -214c55.333 0 93.333 13.334 114 40.001s31 66.667 31 120v690c0 33.333 5.33301 63.833 16 91.5s26 51.5 46 71.5s43.833 35.667 71.5 47s58.167 17 91.5 17c32.667 0 62.834 -5.66699 90.501 -17s51.5 -26.833 71.5 -46.5s35.667 -42.834 47 -69.501
s17 -55.667 17 -87c0 -43.333 -10.833 -81.5 -32.5 -114.5s-50.834 -57.833 -87.501 -74.5c50.667 -16 91.167 -43.167 121.5 -81.5s45.5 -84.5 45.5 -138.5c0 -34.667 -5.83301 -66.667 -17.5 -96s-28 -54.833 -49 -76.5s-46.167 -38.667 -75.5 -51s-62 -18.5 -98 -18.5
c-49.333 0 -90 9.33301 -122 28l5 54c31.333 -19.333 70.333 -29 117 -29c25.333 0 49 5 71 15s41.167 23.5 57.5 40.5s29.333 37 39 60s14.5 47.5 14.5 73.5s-4.83301 50.333 -14.5 73s-23.5 42.5 -41.5 59.5s-39.667 30.333 -65 40s-53.333 14.5 -84 14.5h-21v54h21
c20 0 39.5 4.16699 58.5 12.5s35.833 20 50.5 35s26.5 33 35.5 54s13.5 43.833 13.5 68.5c0 22.667 -4.16699 44.167 -12.5 64.5s-20 38.333 -35 54s-32.833 28 -53.5 37s-43 13.5 -67 13.5c-23.333 0 -45.333 -4 -66 -12s-38.667 -19.5 -54 -34.5s-27.5 -33 -36.5 -54
s-13.5 -44.5 -13.5 -70.5v-695c0 -74 -14.5 -128.5 -43.5 -163.5s-77.833 -52.5 -146.5 -52.5h-10v54z" />
    <glyph glyph-name="agrave" unicode="&#xe0;" horiz-adv-x="747" 
d="M361 -12c-42.667 0 -82.5 7.99512 -119.5 23.9951s-69 37.833 -96 65.5s-48.167 59.834 -63.5 96.501s-23 76 -23 118s7.66699 81.5 23 118.5s36.5 69.333 63.5 97s59 49.5 96 65.5s76.833 24 119.5 24c24 0 48.167 -3.16699 72.5 -9.5s47.333 -15.833 69 -28.5
s41.5 -28.167 59.5 -46.5s32.667 -39.166 44 -62.499v135h56v-585h-56v134c-11.333 -23.333 -26 -44.166 -44 -62.499s-37.833 -33.666 -59.5 -45.999s-44.667 -21.666 -69 -27.999s-48.5 -9.5 -72.5 -9.5zM363 40.9951c35.333 0 68 6.49707 98 19.4971
s56.333 30.833 79 53.5s40.334 49.334 53.001 80.001s19 63.334 19 98.001s-6.33301 67.334 -19 98.001s-30.334 57.334 -53.001 80.001s-49 40.667 -79 54s-62.667 20 -98 20c-34 0 -66 -6.5 -96 -19.5s-56.167 -31 -78.5 -54s-39.833 -49.667 -52.5 -80
s-19 -63.166 -19 -98.499c0 -34.667 6.33301 -67.334 19 -98.001s30.167 -57.334 52.5 -80.001s48.5 -40.5 78.5 -53.5s62 -19.5 96 -19.5zM204 814.992h74l120 -155h-54z" />
    <glyph glyph-name="aacute" unicode="&#xe1;" horiz-adv-x="747" 
d="M361 -12c-42.667 0 -82.5 7.99512 -119.5 23.9951s-69 37.833 -96 65.5s-48.167 59.834 -63.5 96.501s-23 76 -23 118s7.66699 81.5 23 118.5s36.5 69.333 63.5 97s59 49.5 96 65.5s76.833 24 119.5 24c24 0 48.167 -3.16699 72.5 -9.5s47.333 -15.833 69 -28.5
s41.5 -28.167 59.5 -46.5s32.667 -39.166 44 -62.499v135h56v-585h-56v134c-11.333 -23.333 -26 -44.166 -44 -62.499s-37.833 -33.666 -59.5 -45.999s-44.667 -21.666 -69 -27.999s-48.5 -9.5 -72.5 -9.5zM363 40.9951c35.333 0 68 6.49707 98 19.4971
s56.333 30.833 79 53.5s40.334 49.334 53.001 80.001s19 63.334 19 98.001s-6.33301 67.334 -19 98.001s-30.334 57.334 -53.001 80.001s-49 40.667 -79 54s-62.667 20 -98 20c-34 0 -66 -6.5 -96 -19.5s-56.167 -31 -78.5 -54s-39.833 -49.667 -52.5 -80
s-19 -63.166 -19 -98.499c0 -34.667 6.33301 -67.334 19 -98.001s30.167 -57.334 52.5 -80.001s48.5 -40.5 78.5 -53.5s62 -19.5 96 -19.5zM443 814.992h75l-140 -155h-54z" />
    <glyph glyph-name="acircumflex" unicode="&#xe2;" horiz-adv-x="747" 
d="M361 -12c-42.667 0 -82.5 7.99512 -119.5 23.9951s-69 37.833 -96 65.5s-48.167 59.834 -63.5 96.501s-23 76 -23 118s7.66699 81.5 23 118.5s36.5 69.333 63.5 97s59 49.5 96 65.5s76.833 24 119.5 24c24 0 48.167 -3.16699 72.5 -9.5s47.333 -15.833 69 -28.5
s41.5 -28.167 59.5 -46.5s32.667 -39.166 44 -62.499v135h56v-585h-56v134c-11.333 -23.333 -26 -44.166 -44 -62.499s-37.833 -33.666 -59.5 -45.999s-44.667 -21.666 -69 -27.999s-48.5 -9.5 -72.5 -9.5zM363 40.9951c35.333 0 68 6.49707 98 19.4971
s56.333 30.833 79 53.5s40.334 49.334 53.001 80.001s19 63.334 19 98.001s-6.33301 67.334 -19 98.001s-30.334 57.334 -53.001 80.001s-49 40.667 -79 54s-62.667 20 -98 20c-34 0 -66 -6.5 -96 -19.5s-56.167 -31 -78.5 -54s-39.833 -49.667 -52.5 -80
s-19 -63.166 -19 -98.499c0 -34.667 6.33301 -67.334 19 -98.001s30.167 -57.334 52.5 -80.001s48.5 -40.5 78.5 -53.5s62 -19.5 96 -19.5zM335 808.992h49l119 -155h-61l-83 110l-83 -110h-60z" />
    <glyph glyph-name="atilde" unicode="&#xe3;" horiz-adv-x="747" 
d="M361 -12c-42.667 0 -82.5 7.99512 -119.5 23.9951s-69 37.833 -96 65.5s-48.167 59.834 -63.5 96.501s-23 76 -23 118s7.66699 81.5 23 118.5s36.5 69.333 63.5 97s59 49.5 96 65.5s76.833 24 119.5 24c24 0 48.167 -3.16699 72.5 -9.5s47.333 -15.833 69 -28.5
s41.5 -28.167 59.5 -46.5s32.667 -39.166 44 -62.499v135h56v-585h-56v134c-11.333 -23.333 -26 -44.166 -44 -62.499s-37.833 -33.666 -59.5 -45.999s-44.667 -21.666 -69 -27.999s-48.5 -9.5 -72.5 -9.5zM363 40.9951c35.333 0 68 6.49707 98 19.4971
s56.333 30.833 79 53.5s40.334 49.334 53.001 80.001s19 63.334 19 98.001s-6.33301 67.334 -19 98.001s-30.334 57.334 -53.001 80.001s-49 40.667 -79 54s-62.667 20 -98 20c-34 0 -66 -6.5 -96 -19.5s-56.167 -31 -78.5 -54s-39.833 -49.667 -52.5 -80
s-19 -63.166 -19 -98.499c0 -34.667 6.33301 -67.334 19 -98.001s30.167 -57.334 52.5 -80.001s48.5 -40.5 78.5 -53.5s62 -19.5 96 -19.5zM195 659.992c0 33.333 8.66699 59.667 26 79s39.666 29 66.999 29c16.667 0 31.834 -3 45.501 -9s27.167 -13 40.5 -21l36.5 -21
c11.667 -6.66699 23.5 -10 35.5 -10c15.333 0 27.5 4.66699 36.5 14s13.5 24 13.5 44h46c0 -34 -8.16699 -60.667 -24.5 -80s-39.833 -29 -70.5 -29c-19.333 0 -36.5 3.83301 -51.5 11.5s-29.167 15.5 -42.5 23.5l-32 18.5c-10 5.66699 -21 8.5 -33 8.5
c-13.333 0 -24.333 -4.83301 -33 -14.5s-13 -24.167 -13 -43.5h-47z" />
    <glyph glyph-name="adieresis" unicode="&#xe4;" horiz-adv-x="747" 
d="M361 -12c-42.667 0 -82.5 7.99512 -119.5 23.9951s-69 37.833 -96 65.5s-48.167 59.834 -63.5 96.501s-23 76 -23 118s7.66699 81.5 23 118.5s36.5 69.333 63.5 97s59 49.5 96 65.5s76.833 24 119.5 24c24 0 48.167 -3.16699 72.5 -9.5s47.333 -15.833 69 -28.5
s41.5 -28.167 59.5 -46.5s32.667 -39.166 44 -62.499v135h56v-585h-56v134c-11.333 -23.333 -26 -44.166 -44 -62.499s-37.833 -33.666 -59.5 -45.999s-44.667 -21.666 -69 -27.999s-48.5 -9.5 -72.5 -9.5zM363 40.9951c35.333 0 68 6.49707 98 19.4971
s56.333 30.833 79 53.5s40.334 49.334 53.001 80.001s19 63.334 19 98.001s-6.33301 67.334 -19 98.001s-30.334 57.334 -53.001 80.001s-49 40.667 -79 54s-62.667 20 -98 20c-34 0 -66 -6.5 -96 -19.5s-56.167 -31 -78.5 -54s-39.833 -49.667 -52.5 -80
s-19 -63.166 -19 -98.499c0 -34.667 6.33301 -67.334 19 -98.001s30.167 -57.334 52.5 -80.001s48.5 -40.5 78.5 -53.5s62 -19.5 96 -19.5zM232 699.992c0 12.667 4.16699 23 12.5 31s18.833 12 31.5 12c13.333 0 23.833 -4 31.5 -12s11.5 -18.333 11.5 -31
s-3.83301 -23.167 -11.5 -31.5s-18.167 -12.5 -31.5 -12.5s-24 4.16699 -32 12.5s-12 18.833 -12 31.5zM400 699.992c0 12.667 4.16699 23 12.5 31s18.833 12 31.5 12c13.333 0 23.833 -4 31.5 -12s11.5 -18.333 11.5 -31s-3.83301 -23.167 -11.5 -31.5
s-18.167 -12.5 -31.5 -12.5s-24 4.16699 -32 12.5s-12 18.833 -12 31.5z" />
    <glyph glyph-name="aring" unicode="&#xe5;" horiz-adv-x="747" 
d="M361 -12c-42.667 0 -82.5 7.99512 -119.5 23.9951s-69 37.833 -96 65.5s-48.167 59.834 -63.5 96.501s-23 76 -23 118s7.66699 81.5 23 118.5s36.5 69.333 63.5 97s59 49.5 96 65.5s76.833 24 119.5 24c24 0 48.167 -3.16699 72.5 -9.5s47.333 -15.833 69 -28.5
s41.5 -28.167 59.5 -46.5s32.667 -39.166 44 -62.499v135h56v-585h-56v134c-11.333 -23.333 -26 -44.166 -44 -62.499s-37.833 -33.666 -59.5 -45.999s-44.667 -21.666 -69 -27.999s-48.5 -9.5 -72.5 -9.5zM363 40.9951c35.333 0 68 6.49707 98 19.4971
s56.333 30.833 79 53.5s40.334 49.334 53.001 80.001s19 63.334 19 98.001s-6.33301 67.334 -19 98.001s-30.334 57.334 -53.001 80.001s-49 40.667 -79 54s-62.667 20 -98 20c-34 0 -66 -6.5 -96 -19.5s-56.167 -31 -78.5 -54s-39.833 -49.667 -52.5 -80
s-19 -63.166 -19 -98.499c0 -34.667 6.33301 -67.334 19 -98.001s30.167 -57.334 52.5 -80.001s48.5 -40.5 78.5 -53.5s62 -19.5 96 -19.5zM365 654.992c-27.333 0 -50.5 9.5 -69.5 28.5s-28.5 42.5 -28.5 70.5s9.5 51.667 28.5 71s42.167 29 69.5 29
c28.667 0 52.667 -9.66699 72 -29s29 -43 29 -71s-9.66699 -51.5 -29 -70.5s-43.333 -28.5 -72 -28.5zM365 699.992c15.333 0 28.5 5.16699 39.5 15.5s16.5 23.166 16.5 38.499s-5.5 28.333 -16.5 39s-24.167 16 -39.5 16c-14.667 0 -27.334 -5.33301 -38.001 -16
s-16 -23.667 -16 -39s5.33301 -28.166 16 -38.499s23.334 -15.5 38.001 -15.5z" />
    <glyph glyph-name="ae" unicode="&#xe6;" horiz-adv-x="1147" 
d="M789 -12c-60.667 0 -114.162 13.332 -160.495 39.999s-82.166 62.334 -107.499 107.001c-9.33301 -17.333 -22 -34.833 -38 -52.5s-34.833 -33.5 -56.5 -47.5s-46.334 -25.333 -74.001 -34s-57.834 -13 -90.501 -13c-36.667 0 -67.667 4.16699 -93 12.5
s-46 19.666 -62 33.999s-27.833 31 -35.5 50s-11.5 39.167 -11.5 60.5c-0.666992 28.667 4.83301 53 16.5 73s27.5 36.833 47.5 50.5s43.5 24.834 70.5 33.501s55.5 16 85.5 22c26.667 6 52.834 11.5 78.501 16.5s48.5 11.333 68.5 19s36 17.334 48 29.001s18 26.5 18 44.5
c0 34 -14.5 62 -43.5 84s-73.167 33 -132.5 33c-60.667 0 -107.834 -14.667 -141.501 -44s-50.5 -67.333 -50.5 -114v-4h-54v2c0 31.333 5.83301 59.666 17.5 84.999s28.167 47 49.5 65s47 32 77 42s63.667 15 101 15c62.667 0 112.667 -11 150 -33s61.666 -52 72.999 -90
c27.333 38 62.166 68 104.499 90s89.5 33 141.5 33c42.667 0 82.334 -7.33301 119.001 -22s68.5 -35.334 95.5 -62.001s48.167 -58.334 63.5 -95.001s23 -76.667 23 -120v-20h-549c1.33301 -34 8.66602 -65.5 21.999 -94.5s31.166 -54.167 53.499 -75.5
s48.666 -38 78.999 -50s62.833 -18 97.5 -18c58.667 0 108.5 15.667 149.5 47s69.167 72 84.5 122l52 -23c-10 -30 -24 -57.167 -42 -81.5s-39.333 -45.166 -64 -62.499s-52 -30.666 -82 -39.999s-62.667 -14 -98 -14zM785.005 544.999c-32 0 -62 -5.5 -90 -16.5
s-52.667 -26.167 -74 -45.5s-39 -42 -53 -68s-23.333 -54.333 -28 -85h486c-3.33301 32 -11.5 61.167 -24.5 87.5s-30 49 -51 68s-45.5 33.667 -73.5 44s-58.667 15.5 -92 15.5zM264.005 36.999c31.333 0 59.666 4.83301 84.999 14.5s47.666 22 66.999 37
s35.666 31.5 48.999 49.5s23.666 35.333 30.999 52c-10 31.333 -15 64.666 -15 99.999c0 9.33301 0.333008 18.333 1 27s1.66699 17.334 3 26.001c-13.333 -16.667 -35.166 -29 -65.499 -37s-69.5 -16.667 -117.5 -26c-26.667 -4.66699 -51.167 -10.167 -73.5 -16.5
s-41.666 -14.5 -57.999 -24.5s-29.166 -22.5 -38.499 -37.5s-14 -33.5 -14 -55.5c0 -14.667 2.66699 -28.667 8 -42s13.833 -25 25.5 -35s26.834 -17.833 45.501 -23.5s41 -8.5 67 -8.5z" />
    <glyph glyph-name="ccedilla" unicode="&#xe7;" horiz-adv-x="697" 
d="M359 -233c-31.333 0 -58.1641 4.99707 -80.4971 14.9971s-41.833 22.667 -58.5 38l46 28c13.333 -11.333 26.666 -20.5 39.999 -27.5s31 -10.5 53 -10.5c23.333 0 42.5 4.66699 57.5 14s22.5 21.333 22.5 36c0 13.333 -7.16699 24 -21.5 32s-34.833 12 -61.5 12h-33v87
c-38 4.66699 -73.167 15.834 -105.5 33.501s-60.333 39.834 -84 66.501s-42 57.167 -55 91.5s-19.5 70.833 -19.5 109.5c0 43.333 8 83.5 24 120.5s37.667 69.167 65 96.5s59.5 48.833 96.5 64.5s76.833 23.5 119.5 23.5c32 0 62.333 -4.33301 91 -13s55 -21 79 -37
s45.167 -35 63.5 -57s32.833 -46.333 43.5 -73l-53 -22c-19.333 46 -48.5 82.333 -87.5 109s-84.5 40 -136.5 40c-34.667 0 -67.167 -6.5 -97.5 -19.5s-56.5 -31 -78.5 -54s-39.333 -49.667 -52 -80s-19 -63.166 -19 -98.499c0 -34.667 6.33301 -67.334 19 -98.001
s30.167 -57.334 52.5 -80.001s48.666 -40.5 78.999 -53.5s63.166 -19.5 98.499 -19.5c54 0 100.167 14.333 138.5 43s66.833 65.667 85.5 111l54 -23c-11.333 -26.667 -25.833 -51 -43.5 -73s-38 -41.167 -61 -57.5s-48.667 -29.166 -77 -38.499s-58.5 -14.333 -90.5 -15
v-47c36 -0.666992 65.167 -8.16699 87.5 -22.5s33.5 -33.166 33.5 -56.499c0 -14 -3.5 -26.833 -10.5 -38.5s-16.5 -21.667 -28.5 -30s-26.167 -14.833 -42.5 -19.5s-33.833 -7 -52.5 -7z" />
    <glyph glyph-name="egrave" unicode="&#xe8;" horiz-adv-x="722" 
d="M366 -12c-47.333 0 -90.001 7.83496 -128.001 23.502s-70.167 37 -96.5 64s-46.666 58.833 -60.999 95.5s-21.5 76.334 -21.5 119.001c0 43.333 7.66699 83.666 23 120.999s36.5 69.666 63.5 96.999s59.167 49 96.5 65s77.666 24 120.999 24
c42.667 0 82.167 -7.33301 118.5 -22s67.833 -35.334 94.5 -62.001s47.5 -58.167 62.5 -94.5s22.5 -76.166 22.5 -119.499v-26h-547c2 -33.333 9.33301 -64.333 22 -93s30 -53.334 52 -74.001s48 -36.834 78 -48.501s63.333 -17.5 100 -17.5
c56.667 0 104.334 13.833 143.001 41.5s67.667 65.834 87 114.501l51 -24c-26 -58.667 -62 -104 -108 -136s-103.667 -48 -173 -48zM362.999 545.002c-32.667 0 -63 -5.66797 -91 -17.001s-52.833 -26.666 -74.5 -45.999s-39.667 -42.333 -54 -69s-23.5 -55.667 -27.5 -87
h487c-2.66699 32 -10.5 61.5 -23.5 88.5s-29.833 50.167 -50.5 69.5s-45 34.333 -73 45s-59 16 -93 16zM211.999 815.001h74l120 -155h-54z" />
    <glyph glyph-name="eacute" unicode="&#xe9;" horiz-adv-x="722" 
d="M366 -12c-47.333 0 -90.001 7.83496 -128.001 23.502s-70.167 37 -96.5 64s-46.666 58.833 -60.999 95.5s-21.5 76.334 -21.5 119.001c0 43.333 7.66699 83.666 23 120.999s36.5 69.666 63.5 96.999s59.167 49 96.5 65s77.666 24 120.999 24
c42.667 0 82.167 -7.33301 118.5 -22s67.833 -35.334 94.5 -62.001s47.5 -58.167 62.5 -94.5s22.5 -76.166 22.5 -119.499v-26h-547c2 -33.333 9.33301 -64.333 22 -93s30 -53.334 52 -74.001s48 -36.834 78 -48.501s63.333 -17.5 100 -17.5
c56.667 0 104.334 13.833 143.001 41.5s67.667 65.834 87 114.501l51 -24c-26 -58.667 -62 -104 -108 -136s-103.667 -48 -173 -48zM362.999 545.002c-32.667 0 -63 -5.66797 -91 -17.001s-52.833 -26.666 -74.5 -45.999s-39.667 -42.333 -54 -69s-23.5 -55.667 -27.5 -87
h487c-2.66699 32 -10.5 61.5 -23.5 88.5s-29.833 50.167 -50.5 69.5s-45 34.333 -73 45s-59 16 -93 16zM454.999 815.001h75l-140 -155h-54z" />
    <glyph glyph-name="ecircumflex" unicode="&#xea;" horiz-adv-x="722" 
d="M366 -12c-47.333 0 -90.001 7.83496 -128.001 23.502s-70.167 37 -96.5 64s-46.666 58.833 -60.999 95.5s-21.5 76.334 -21.5 119.001c0 43.333 7.66699 83.666 23 120.999s36.5 69.666 63.5 96.999s59.167 49 96.5 65s77.666 24 120.999 24
c42.667 0 82.167 -7.33301 118.5 -22s67.833 -35.334 94.5 -62.001s47.5 -58.167 62.5 -94.5s22.5 -76.166 22.5 -119.499v-26h-547c2 -33.333 9.33301 -64.333 22 -93s30 -53.334 52 -74.001s48 -36.834 78 -48.501s63.333 -17.5 100 -17.5
c56.667 0 104.334 13.833 143.001 41.5s67.667 65.834 87 114.501l51 -24c-26 -58.667 -62 -104 -108 -136s-103.667 -48 -173 -48zM362.999 545.002c-32.667 0 -63 -5.66797 -91 -17.001s-52.833 -26.666 -74.5 -45.999s-39.667 -42.333 -54 -69s-23.5 -55.667 -27.5 -87
h487c-2.66699 32 -10.5 61.5 -23.5 88.5s-29.833 50.167 -50.5 69.5s-45 34.333 -73 45s-59 16 -93 16zM343.999 811.001h49l119 -155h-61l-83 110l-83 -110h-60z" />
    <glyph glyph-name="edieresis" unicode="&#xeb;" horiz-adv-x="722" 
d="M366 -12c-47.333 0 -90.001 7.83496 -128.001 23.502s-70.167 37 -96.5 64s-46.666 58.833 -60.999 95.5s-21.5 76.334 -21.5 119.001c0 43.333 7.66699 83.666 23 120.999s36.5 69.666 63.5 96.999s59.167 49 96.5 65s77.666 24 120.999 24
c42.667 0 82.167 -7.33301 118.5 -22s67.833 -35.334 94.5 -62.001s47.5 -58.167 62.5 -94.5s22.5 -76.166 22.5 -119.499v-26h-547c2 -33.333 9.33301 -64.333 22 -93s30 -53.334 52 -74.001s48 -36.834 78 -48.501s63.333 -17.5 100 -17.5
c56.667 0 104.334 13.833 143.001 41.5s67.667 65.834 87 114.501l51 -24c-26 -58.667 -62 -104 -108 -136s-103.667 -48 -173 -48zM362.999 545.002c-32.667 0 -63 -5.66797 -91 -17.001s-52.833 -26.666 -74.5 -45.999s-39.667 -42.333 -54 -69s-23.5 -55.667 -27.5 -87
h487c-2.66699 32 -10.5 61.5 -23.5 88.5s-29.833 50.167 -50.5 69.5s-45 34.333 -73 45s-59 16 -93 16zM405.999 699.001c0 12.667 4.16699 23 12.5 31s18.833 12 31.5 12c13.333 0 23.833 -4 31.5 -12s11.5 -18.333 11.5 -31s-3.83301 -23.167 -11.5 -31.5
s-18.167 -12.5 -31.5 -12.5s-24 4.16699 -32 12.5s-12 18.833 -12 31.5zM237.999 699.001c0 12.667 4.16699 23 12.5 31s18.833 12 31.5 12c13.333 0 23.833 -4 31.5 -12s11.5 -18.333 11.5 -31s-3.83301 -23.167 -11.5 -31.5s-18.167 -12.5 -31.5 -12.5
s-24 4.16699 -32 12.5s-12 18.833 -12 31.5z" />
    <glyph glyph-name="igrave" unicode="&#xec;" horiz-adv-x="226" 
d="M85 585h57v-585h-57v585zM-54 805h74l120 -155h-54z" />
    <glyph glyph-name="iacute" unicode="&#xed;" horiz-adv-x="226" 
d="M207 805h75l-140 -155h-54zM85 585h57v-585h-57v585z" />
    <glyph glyph-name="icircumflex" unicode="&#xee;" horiz-adv-x="226" 
d="M85 585h57v-585h-57v585zM89 787h49l119 -155h-61l-83 110l-83 -110h-60z" />
    <glyph glyph-name="idieresis" unicode="&#xef;" horiz-adv-x="226" 
d="M197 814h57v-164h-57v164zM-28 814h56v-164h-56v164zM85 585h57v-585h-57v585z" />
    <glyph glyph-name="eth" unicode="&#xf0;" horiz-adv-x="719" 
d="M327 753c-19.333 16.667 -39.8311 33.332 -61.498 49.999l-67.5 51h88l45 -35.5l42 -34.5l106 70h85l-155 -103c84.667 -78 147.167 -155.167 187.5 -231.5s60.5 -154.166 60.5 -233.499c0 -40.667 -7.66699 -79 -23 -115s-36.5 -67.167 -63.5 -93.5
s-58.5 -47.166 -94.5 -62.499s-75 -23 -117 -23c-41.333 0 -80 7.5 -116 22.5s-67.5 35.667 -94.5 62s-48.333 57.5 -64 93.5s-23.5 74.667 -23.5 116s7.66699 80 23 116s36.333 67.167 63 93.5s57.667 47.166 93 62.499s73 23 113 23c45.333 0 84.666 -8.33301 117.999 -25
s60.666 -39 81.999 -67c-36.667 74 -99.667 151.333 -189 232l-116 -76h-86zM360.002 44.998c33.333 0 64.5 6.33301 93.5 19s54.333 29.834 76 51.501s38.667 47.167 51 76.5s18.5 60.666 18.5 93.999c0 32.667 -6.16699 63.667 -18.5 93s-29.333 55 -51 77
s-47 39.333 -76 52s-60.167 19 -93.5 19c-32.667 0 -63.667 -6.33301 -93 -19s-54.833 -29.834 -76.5 -51.501s-38.834 -47.167 -51.501 -76.5s-19 -60.666 -19 -93.999s6.33301 -64.666 19 -93.999s29.834 -54.833 51.501 -76.5s47.167 -38.834 76.5 -51.501
s60.333 -19 93 -19z" />
    <glyph glyph-name="ntilde" unicode="&#xf1;" horiz-adv-x="707" 
d="M85 585l55 -0.00195312v-119c19.333 38.667 48.666 70.167 87.999 94.5s85 36.5 137 36.5c39.333 0 74.833 -6.16699 106.5 -18.5s59 -30.166 82 -53.499s40.667 -51.5 53 -84.5s18.5 -70.5 18.5 -112.5v-328h-57v329c0 32.667 -4.83301 62.167 -14.5 88.5
s-23.5 48.833 -41.5 67.5s-40 33.167 -66 43.5s-55.333 15.5 -88 15.5c-30.667 0 -59.167 -5.5 -85.5 -16.5s-49.166 -26.167 -68.499 -45.5s-34.5 -42.166 -45.5 -68.499s-16.5 -54.833 -16.5 -85.5v-328h-57v585zM188 659.998c0 33.333 8.66699 59.667 26 79
s39.666 29 66.999 29c16.667 0 31.834 -3 45.501 -9s27.167 -13 40.5 -21l36.5 -21c11.667 -6.66699 23.5 -10 35.5 -10c15.333 0 27.5 4.66699 36.5 14s13.5 24 13.5 44h46c0 -34 -8.16699 -60.667 -24.5 -80s-39.833 -29 -70.5 -29c-19.333 0 -36.5 3.83301 -51.5 11.5
s-29.167 15.5 -42.5 23.5l-32 18.5c-10 5.66699 -21 8.5 -33 8.5c-13.333 0 -24.333 -4.83301 -33 -14.5s-13 -24.167 -13 -43.5h-47z" />
    <glyph glyph-name="ograve" unicode="&#xf2;" horiz-adv-x="726" 
d="M363 -12c-42 0 -81.5 7.83301 -118.5 23.5s-69.333 37.167 -97 64.5s-49.334 59.5 -65.001 96.5s-23.5 76.833 -23.5 119.5s7.83301 82.5 23.5 119.5s37.334 69.333 65.001 97s60 49.334 97 65.001s76.5 23.5 118.5 23.5s81.5 -7.83301 118.5 -23.5
s69.167 -37.334 96.5 -65.001s49 -60 65 -97s24 -76.833 24 -119.5s-8 -82.5 -24 -119.5s-37.667 -69.167 -65 -96.5s-59.5 -48.833 -96.5 -64.5s-76.5 -23.5 -118.5 -23.5zM363 41c34 0 66 6.5 96 19.5s56 30.833 78 53.5s39.333 49.334 52 80.001s19 63.334 19 98.001
c0 35.333 -6.33301 68.166 -19 98.499s-30 57 -52 80s-48 41 -78 54s-62 19.5 -96 19.5c-34.667 0 -67 -6.5 -97 -19.5s-56 -31 -78 -54s-39.333 -49.667 -52 -80s-19 -63.166 -19 -98.499c0 -34.667 6.33301 -67.334 19 -98.001s30 -57.334 52 -80.001s48 -40.5 78 -53.5
s62.333 -19.5 97 -19.5zM199 815h74l120 -155h-54z" />
    <glyph glyph-name="oacute" unicode="&#xf3;" horiz-adv-x="726" 
d="M456 815h75l-140 -155h-54zM363 -12c-42 0 -81.5 7.83301 -118.5 23.5s-69.333 37.167 -97 64.5s-49.334 59.5 -65.001 96.5s-23.5 76.833 -23.5 119.5s7.83301 82.5 23.5 119.5s37.334 69.333 65.001 97s60 49.334 97 65.001s76.5 23.5 118.5 23.5
s81.5 -7.83301 118.5 -23.5s69.167 -37.334 96.5 -65.001s49 -60 65 -97s24 -76.833 24 -119.5s-8 -82.5 -24 -119.5s-37.667 -69.167 -65 -96.5s-59.5 -48.833 -96.5 -64.5s-76.5 -23.5 -118.5 -23.5zM363 41c34 0 66 6.5 96 19.5s56 30.833 78 53.5
s39.333 49.334 52 80.001s19 63.334 19 98.001c0 35.333 -6.33301 68.166 -19 98.499s-30 57 -52 80s-48 41 -78 54s-62 19.5 -96 19.5c-34.667 0 -67 -6.5 -97 -19.5s-56 -31 -78 -54s-39.333 -49.667 -52 -80s-19 -63.166 -19 -98.499
c0 -34.667 6.33301 -67.334 19 -98.001s30 -57.334 52 -80.001s48 -40.5 78 -53.5s62.333 -19.5 97 -19.5z" />
    <glyph glyph-name="ocircumflex" unicode="&#xf4;" horiz-adv-x="726" 
d="M363 -12c-42 0 -81.5 7.83301 -118.5 23.5s-69.333 37.167 -97 64.5s-49.334 59.5 -65.001 96.5s-23.5 76.833 -23.5 119.5s7.83301 82.5 23.5 119.5s37.334 69.333 65.001 97s60 49.334 97 65.001s76.5 23.5 118.5 23.5s81.5 -7.83301 118.5 -23.5
s69.167 -37.334 96.5 -65.001s49 -60 65 -97s24 -76.833 24 -119.5s-8 -82.5 -24 -119.5s-37.667 -69.167 -65 -96.5s-59.5 -48.833 -96.5 -64.5s-76.5 -23.5 -118.5 -23.5zM363 41c34 0 66 6.5 96 19.5s56 30.833 78 53.5s39.333 49.334 52 80.001s19 63.334 19 98.001
c0 35.333 -6.33301 68.166 -19 98.499s-30 57 -52 80s-48 41 -78 54s-62 19.5 -96 19.5c-34.667 0 -67 -6.5 -97 -19.5s-56 -31 -78 -54s-39.333 -49.667 -52 -80s-19 -63.166 -19 -98.499c0 -34.667 6.33301 -67.334 19 -98.001s30 -57.334 52 -80.001s48 -40.5 78 -53.5
s62.333 -19.5 97 -19.5zM338 811h49l119 -155h-61l-83 110l-83 -110h-60z" />
    <glyph glyph-name="otilde" unicode="&#xf5;" horiz-adv-x="726" 
d="M363 -12c-42 0 -81.5 7.83301 -118.5 23.5s-69.333 37.167 -97 64.5s-49.334 59.5 -65.001 96.5s-23.5 76.833 -23.5 119.5s7.83301 82.5 23.5 119.5s37.334 69.333 65.001 97s60 49.334 97 65.001s76.5 23.5 118.5 23.5s81.5 -7.83301 118.5 -23.5
s69.167 -37.334 96.5 -65.001s49 -60 65 -97s24 -76.833 24 -119.5s-8 -82.5 -24 -119.5s-37.667 -69.167 -65 -96.5s-59.5 -48.833 -96.5 -64.5s-76.5 -23.5 -118.5 -23.5zM363 41c34 0 66 6.5 96 19.5s56 30.833 78 53.5s39.333 49.334 52 80.001s19 63.334 19 98.001
c0 35.333 -6.33301 68.166 -19 98.499s-30 57 -52 80s-48 41 -78 54s-62 19.5 -96 19.5c-34.667 0 -67 -6.5 -97 -19.5s-56 -31 -78 -54s-39.333 -49.667 -52 -80s-19 -63.166 -19 -98.499c0 -34.667 6.33301 -67.334 19 -98.001s30 -57.334 52 -80.001s48 -40.5 78 -53.5
s62.333 -19.5 97 -19.5zM190 660c0 33.333 8.66699 59.667 26 79s39.666 29 66.999 29c16.667 0 31.834 -3 45.501 -9s27.167 -13 40.5 -21l36.5 -21c11.667 -6.66699 23.5 -10 35.5 -10c15.333 0 27.5 4.66699 36.5 14s13.5 24 13.5 44h46
c0 -34 -8.16699 -60.667 -24.5 -80s-39.833 -29 -70.5 -29c-19.333 0 -36.5 3.83301 -51.5 11.5s-29.167 15.5 -42.5 23.5l-32 18.5c-10 5.66699 -21 8.5 -33 8.5c-13.333 0 -24.333 -4.83301 -33 -14.5s-13 -24.167 -13 -43.5h-47z" />
    <glyph glyph-name="odieresis" unicode="&#xf6;" horiz-adv-x="726" 
d="M236 698c0 12.667 4.16699 23 12.5 31s18.833 12 31.5 12c13.333 0 23.833 -4 31.5 -12s11.5 -18.333 11.5 -31s-3.83301 -23.167 -11.5 -31.5s-18.167 -12.5 -31.5 -12.5s-24 4.16699 -32 12.5s-12 18.833 -12 31.5zM404 698c0 12.667 4.16699 23 12.5 31
s18.833 12 31.5 12c13.333 0 23.833 -4 31.5 -12s11.5 -18.333 11.5 -31s-3.83301 -23.167 -11.5 -31.5s-18.167 -12.5 -31.5 -12.5s-24 4.16699 -32 12.5s-12 18.833 -12 31.5zM363 -12c-42 0 -81.5 7.83301 -118.5 23.5s-69.333 37.167 -97 64.5
s-49.334 59.5 -65.001 96.5s-23.5 76.833 -23.5 119.5s7.83301 82.5 23.5 119.5s37.334 69.333 65.001 97s60 49.334 97 65.001s76.5 23.5 118.5 23.5s81.5 -7.83301 118.5 -23.5s69.167 -37.334 96.5 -65.001s49 -60 65 -97s24 -76.833 24 -119.5s-8 -82.5 -24 -119.5
s-37.667 -69.167 -65 -96.5s-59.5 -48.833 -96.5 -64.5s-76.5 -23.5 -118.5 -23.5zM363 41c34 0 66 6.5 96 19.5s56 30.833 78 53.5s39.333 49.334 52 80.001s19 63.334 19 98.001c0 35.333 -6.33301 68.166 -19 98.499s-30 57 -52 80s-48 41 -78 54s-62 19.5 -96 19.5
c-34.667 0 -67 -6.5 -97 -19.5s-56 -31 -78 -54s-39.333 -49.667 -52 -80s-19 -63.166 -19 -98.499c0 -34.667 6.33301 -67.334 19 -98.001s30 -57.334 52 -80.001s48 -40.5 78 -53.5s62.333 -19.5 97 -19.5z" />
    <glyph glyph-name="divide" unicode="&#xf7;" horiz-adv-x="475" 
d="M53 390h370v-50h-370v50zM213 566h50v-122h-50v122zM213 284h50v-121h-50v121z" />
    <glyph glyph-name="oslash" unicode="&#xf8;" horiz-adv-x="726" 
d="M363 -12c-30 0 -58.6689 3.99902 -86.002 11.999s-52.666 19.333 -75.999 34l-25 -34h-63l47 64c-31.333 28 -56 61.5 -74 100.5s-27 81.5 -27 127.5c0 42.667 7.83301 82.5 23.5 119.5s37.334 69.333 65.001 97s60 49.334 97 65.001s76.5 23.5 118.5 23.5
c30 0 58.5 -4 85.5 -12s52.167 -19.333 75.5 -34l25 34h65l-49 -65c32 -28 57 -61.5 75 -100.5s27 -81.5 27 -127.5c0 -42.667 -8 -82.5 -24 -119.5s-37.667 -69.167 -65 -96.5s-59.5 -48.833 -96.5 -64.5s-76.5 -23.5 -118.5 -23.5zM116.998 291.999
c0 -36.667 6.83301 -70.6689 20.5 -102.002s32.5 -58.666 56.5 -81.999l297 399c-38 24.667 -80.667 37 -128 37c-34.667 0 -67 -6.5 -97 -19.5s-56 -31 -78 -54s-39.333 -49.667 -52 -80s-19 -63.166 -19 -98.499zM362.998 40.9971c34 0 65.999 6.49805 95.999 19.498
s56 30.833 78 53.5s39.333 49.334 52 80.001s19 63.334 19 98.001c0 36 -6.83301 69.667 -20.5 101s-32.167 58.666 -55.5 81.999l-298 -398c18.667 -11.333 38.834 -20.166 60.501 -26.499s44.5 -9.5 68.5 -9.5z" />
    <glyph glyph-name="ugrave" unicode="&#xf9;" horiz-adv-x="707" 
d="M345 -12c-40.667 0 -77.332 6.16895 -109.999 18.502s-60.334 30.166 -83.001 53.499s-40 51.5 -52 84.5s-18 70.5 -18 112.5v328h58v-329c0 -32.667 4.66699 -62.167 14 -88.5s23 -48.833 41 -67.5s40 -33.167 66 -43.5s55.333 -15.5 88 -15.5
c30.667 0 59.167 5.5 85.5 16.5s49.333 26.167 69 45.5s35 42.166 46 68.499s16.5 54.833 16.5 85.5v328h57v-585h-56v119c-19.333 -38.667 -48.333 -70.167 -87 -94.5s-83.667 -36.5 -135 -36.5zM190.002 803.002h74l120 -155h-54z" />
    <glyph glyph-name="uacute" unicode="&#xfa;" horiz-adv-x="707" 
d="M345 -12c-40.667 0 -77.332 6.16895 -109.999 18.502s-60.334 30.166 -83.001 53.499s-40 51.5 -52 84.5s-18 70.5 -18 112.5v328h58v-329c0 -32.667 4.66699 -62.167 14 -88.5s23 -48.833 41 -67.5s40 -33.167 66 -43.5s55.333 -15.5 88 -15.5
c30.667 0 59.167 5.5 85.5 16.5s49.333 26.167 69 45.5s35 42.166 46 68.499s16.5 54.833 16.5 85.5v328h57v-585h-56v119c-19.333 -38.667 -48.333 -70.167 -87 -94.5s-83.667 -36.5 -135 -36.5zM433.002 796.002h75l-140 -155h-54z" />
    <glyph glyph-name="ucircumflex" unicode="&#xfb;" horiz-adv-x="707" 
d="M345 -12c-40.667 0 -77.332 6.16895 -109.999 18.502s-60.334 30.166 -83.001 53.499s-40 51.5 -52 84.5s-18 70.5 -18 112.5v328h58v-329c0 -32.667 4.66699 -62.167 14 -88.5s23 -48.833 41 -67.5s40 -33.167 66 -43.5s55.333 -15.5 88 -15.5
c30.667 0 59.167 5.5 85.5 16.5s49.333 26.167 69 45.5s35 42.166 46 68.499s16.5 54.833 16.5 85.5v328h57v-585h-56v119c-19.333 -38.667 -48.333 -70.167 -87 -94.5s-83.667 -36.5 -135 -36.5zM329.002 805.002h49l119 -155h-61l-83 110l-83 -110h-60z" />
    <glyph glyph-name="udieresis" unicode="&#xfc;" horiz-adv-x="707" 
d="M345 -12c-40.667 0 -77.332 6.16895 -109.999 18.502s-60.334 30.166 -83.001 53.499s-40 51.5 -52 84.5s-18 70.5 -18 112.5v328h58v-329c0 -32.667 4.66699 -62.167 14 -88.5s23 -48.833 41 -67.5s40 -33.167 66 -43.5s55.333 -15.5 88 -15.5
c30.667 0 59.167 5.5 85.5 16.5s49.333 26.167 69 45.5s35 42.166 46 68.499s16.5 54.833 16.5 85.5v328h57v-585h-56v119c-19.333 -38.667 -48.333 -70.167 -87 -94.5s-83.667 -36.5 -135 -36.5zM393.002 693.002c0 12.667 4.16699 23 12.5 31s18.833 12 31.5 12
c13.333 0 23.833 -4 31.5 -12s11.5 -18.333 11.5 -31s-3.83301 -23.167 -11.5 -31.5s-18.167 -12.5 -31.5 -12.5s-24 4.16699 -32 12.5s-12 18.833 -12 31.5zM225.002 693.002c0 12.667 4.16699 23 12.5 31s18.833 12 31.5 12c13.333 0 23.833 -4 31.5 -12
s11.5 -18.333 11.5 -31s-3.83301 -23.167 -11.5 -31.5s-18.167 -12.5 -31.5 -12.5s-24 4.16699 -32 12.5s-12 18.833 -12 31.5z" />
    <glyph glyph-name="yacute" unicode="&#xfd;" horiz-adv-x="654" 
d="M305 33l-262 552h64l229 -487l214 487h62l-382 -855h-62zM414 786h75l-140 -155h-54z" />
    <glyph glyph-name="thorn" unicode="&#xfe;" horiz-adv-x="747" 
d="M386 -12c-24 0 -47.999 3.16797 -71.999 9.50098s-46.833 15.5 -68.5 27.5s-41.5 27 -59.5 45s-32.667 38.333 -44 61v-400h-56v1123h56v-400c11.333 22.667 26 42.834 44 60.501s37.833 32.667 59.5 45s44.5 21.666 68.5 27.999s48 9.5 72 9.5
c42.667 0 82.5 -8 119.5 -24s69 -37.833 96 -65.5s48.167 -60 63.5 -97s23 -76.5 23 -118.5s-7.83301 -81.333 -23.5 -118s-37 -68.834 -64 -96.501s-58.833 -49.5 -95.5 -65.5s-76.334 -24 -119.001 -24zM384.001 41.001c34 0 66 6.50293 96 19.5029s56 30.833 78 53.5
s39.333 49.334 52 80.001s19 63.334 19 98.001c0 35.333 -6.33301 68.166 -19 98.499s-30 57 -52 80s-48 41 -78 54s-62 19.5 -96 19.5c-35.333 0 -68.166 -6.66699 -98.499 -20s-56.666 -31.333 -78.999 -54s-39.833 -49.334 -52.5 -80.001s-19 -63.334 -19 -98.001
s6.33301 -67.334 19 -98.001s30.167 -57.334 52.5 -80.001s48.666 -40.5 78.999 -53.5s63.166 -19.5 98.499 -19.5z" />
    <glyph glyph-name="ydieresis" unicode="&#xff;" horiz-adv-x="654" 
d="M305 33l-262 552h64l229 -487l214 487h62l-382 -855h-62zM372 685c0 12.667 4.16699 23 12.5 31s18.833 12 31.5 12c13.333 0 23.833 -4 31.5 -12s11.5 -18.333 11.5 -31s-3.83301 -23.167 -11.5 -31.5s-18.167 -12.5 -31.5 -12.5s-24 4.16699 -32 12.5
s-12 18.833 -12 31.5zM204 685c0 12.667 4.16699 23 12.5 31s18.833 12 31.5 12c13.333 0 23.833 -4 31.5 -12s11.5 -18.333 11.5 -31s-3.83301 -23.167 -11.5 -31.5s-18.167 -12.5 -31.5 -12.5s-24 4.16699 -32 12.5s-12 18.833 -12 31.5z" />
    <glyph glyph-name="Amacron" unicode="&#x100;" horiz-adv-x="698" 
d="M318 730h62l281 -730h-61l-79 204h-345l-78 -204h-61zM197 259h303l-151 394zM214 845h264v-50h-264v50z" />
    <glyph glyph-name="amacron" unicode="&#x101;" horiz-adv-x="747" 
d="M361 -12c-42.667 0 -82.5 7.99512 -119.5 23.9951s-69 37.833 -96 65.5s-48.167 59.834 -63.5 96.501s-23 76 -23 118s7.66699 81.5 23 118.5s36.5 69.333 63.5 97s59 49.5 96 65.5s76.833 24 119.5 24c24 0 48.167 -3.16699 72.5 -9.5s47.333 -15.833 69 -28.5
s41.5 -28.167 59.5 -46.5s32.667 -39.166 44 -62.499v135h56v-585h-56v134c-11.333 -23.333 -26 -44.166 -44 -62.499s-37.833 -33.666 -59.5 -45.999s-44.667 -21.666 -69 -27.999s-48.5 -9.5 -72.5 -9.5zM363 40.9951c35.333 0 68 6.49707 98 19.4971
s56.333 30.833 79 53.5s40.334 49.334 53.001 80.001s19 63.334 19 98.001s-6.33301 67.334 -19 98.001s-30.334 57.334 -53.001 80.001s-49 40.667 -79 54s-62.667 20 -98 20c-34 0 -66 -6.5 -96 -19.5s-56.167 -31 -78.5 -54s-39.833 -49.667 -52.5 -80
s-19 -63.166 -19 -98.499c0 -34.667 6.33301 -67.334 19 -98.001s30.167 -57.334 52.5 -80.001s48.5 -40.5 78.5 -53.5s62 -19.5 96 -19.5zM230 715.992h264v-50h-264v50z" />
    <glyph glyph-name="Abreve" unicode="&#x102;" horiz-adv-x="698" 
d="M318 730h62l281 -730h-61l-79 204h-345l-78 -204h-61zM197 259h303l-151 394zM344 791c-27.333 0 -51.1689 4.33301 -71.502 13s-37.166 20.167 -50.499 34.5s-23.166 31 -29.499 50s-9.5 38.833 -9.5 59.5h49c0 -31.333 9.33301 -58 28 -80s46.667 -33 84 -33
c36 0 63.5 11 82.5 33s28.5 48.667 28.5 80h51c0 -20.667 -3.66699 -40.5 -11 -59.5s-18 -35.667 -32 -50s-31 -25.833 -51 -34.5s-42.667 -13 -68 -13z" />
    <glyph glyph-name="abreve" unicode="&#x103;" horiz-adv-x="747" 
d="M361 -12c-42.667 0 -82.5 7.99512 -119.5 23.9951s-69 37.833 -96 65.5s-48.167 59.834 -63.5 96.501s-23 76 -23 118s7.66699 81.5 23 118.5s36.5 69.333 63.5 97s59 49.5 96 65.5s76.833 24 119.5 24c24 0 48.167 -3.16699 72.5 -9.5s47.333 -15.833 69 -28.5
s41.5 -28.167 59.5 -46.5s32.667 -39.166 44 -62.499v135h56v-585h-56v134c-11.333 -23.333 -26 -44.166 -44 -62.499s-37.833 -33.666 -59.5 -45.999s-44.667 -21.666 -69 -27.999s-48.5 -9.5 -72.5 -9.5zM363 40.9951c35.333 0 68 6.49707 98 19.4971
s56.333 30.833 79 53.5s40.334 49.334 53.001 80.001s19 63.334 19 98.001s-6.33301 67.334 -19 98.001s-30.334 57.334 -53.001 80.001s-49 40.667 -79 54s-62.667 20 -98 20c-34 0 -66 -6.5 -96 -19.5s-56.167 -31 -78.5 -54s-39.833 -49.667 -52.5 -80
s-19 -63.166 -19 -98.499c0 -34.667 6.33301 -67.334 19 -98.001s30.167 -57.334 52.5 -80.001s48.5 -40.5 78.5 -53.5s62 -19.5 96 -19.5zM364 656.992c-27.333 0 -51.1689 4.33301 -71.502 13s-37.166 20.167 -50.499 34.5s-23.166 31 -29.499 50s-9.5 38.833 -9.5 59.5
h49c0 -31.333 9.33301 -58 28 -80s46.667 -33 84 -33c36 0 63.5 11 82.5 33s28.5 48.667 28.5 80h51c0 -20.667 -3.66699 -40.5 -11 -59.5s-18 -35.667 -32 -50s-31 -25.833 -51 -34.5s-42.667 -13 -68 -13z" />
    <glyph glyph-name="Aogonek" unicode="&#x104;" horiz-adv-x="698" 
d="M610 -208c-38.667 0 -69.833 8.99805 -93.5 26.998s-35.5 40.667 -35.5 68c0 22.667 8.33301 44.334 25 65.001s46 41.667 88 63l-73 189h-345l-78 -204h-61l281 730h62l281 -730c-24 -13.333 -43.833 -25 -59.5 -35s-28.167 -19.167 -37.5 -27.5
s-15.833 -16.333 -19.5 -24s-5.5 -15.5 -5.5 -23.5c0 -16 6.66699 -28.5 20 -37.5s30.333 -13.5 51 -13.5c18.667 0 34.667 3.83301 48 11.5s26 16.834 38 27.501l45 -31c-16 -14.667 -35.5 -27.5 -58.5 -38.5s-47.167 -16.5 -72.5 -16.5zM197.001 258.998h303l-151 394z
" />
    <glyph glyph-name="aogonek" unicode="&#x105;" horiz-adv-x="747" 
d="M361 -12c-42.667 0 -82.5 7.99512 -119.5 23.9951s-69 37.833 -96 65.5s-48.167 59.834 -63.5 96.501s-23 76 -23 118s7.66699 81.5 23 118.5s36.5 69.333 63.5 97s59 49.5 96 65.5s76.833 24 119.5 24c24 0 48.167 -3.16699 72.5 -9.5s47.333 -15.833 69 -28.5
s41.5 -28.167 59.5 -46.5s32.667 -39.166 44 -62.499v135h56v-585c-26.667 -21.333 -47 -41.5 -61 -60.5s-21 -37.167 -21 -54.5c0 -16 5.33301 -29 16 -39s25 -15 43 -15c16 0 29.5 3 40.5 9s21.833 13.667 32.5 23l33 -40c-14 -11.333 -30.167 -21 -48.5 -29
s-37.5 -12 -57.5 -12c-38.667 0 -67.167 10 -85.5 30s-27.5 43.667 -27.5 71c0 23.333 7.5 46 22.5 68s34.167 42.667 57.5 62v121c-11.333 -23.333 -26 -44.166 -44 -62.499s-37.833 -33.666 -59.5 -45.999s-44.667 -21.666 -69 -27.999s-48.5 -9.5 -72.5 -9.5z
M363 40.9951c35.333 0 68 6.49707 98 19.4971s56.333 30.833 79 53.5s40.334 49.334 53.001 80.001s19 63.334 19 98.001s-6.33301 67.334 -19 98.001s-30.334 57.334 -53.001 80.001s-49 40.667 -79 54s-62.667 20 -98 20c-34 0 -66 -6.5 -96 -19.5s-56.167 -31 -78.5 -54
s-39.833 -49.667 -52.5 -80s-19 -63.166 -19 -98.499c0 -34.667 6.33301 -67.334 19 -98.001s30.167 -57.334 52.5 -80.001s48.5 -40.5 78.5 -53.5s62 -19.5 96 -19.5z" />
    <glyph glyph-name="Cacute" unicode="&#x106;" horiz-adv-x="796" 
d="M513 950h75l-140 -155h-54zM428 -10c-52 0 -100.673 9.83105 -146.006 29.498s-85 46.5 -119 80.5s-60.833 73.667 -80.5 119s-29.5 94 -29.5 146s9.83301 100.667 29.5 146s46.5 85 80.5 119s73.667 60.833 119 80.5s94 29.5 146 29.5c34 0 66.833 -4.5 98.5 -13.5
s61.334 -21.5 89.001 -37.5s52.834 -35.333 75.501 -58s42.334 -47.667 59.001 -75l-50 -29c-27.333 47.333 -64.666 85.666 -111.999 114.999s-100.666 44 -159.999 44c-44.667 0 -86.167 -8.5 -124.5 -25.5s-71.666 -40 -99.999 -69s-50.666 -63 -66.999 -102
s-24.5 -80.5 -24.5 -124.5s8.16699 -85.333 24.5 -124s38.666 -72.5 66.999 -101.5s61.666 -52 99.999 -69s79.833 -25.5 124.5 -25.5c64.667 0 121.167 15.5 169.5 46.5s85.5 71.5 111.5 121.5l51 -26c-16 -29.333 -35.333 -56.166 -58 -80.499
s-48.167 -45.166 -76.5 -62.499s-59.166 -30.666 -92.499 -39.999s-68.333 -14 -105 -14z" />
    <glyph glyph-name="cacute" unicode="&#x107;" horiz-adv-x="697" 
d="M449 815h75l-140 -155h-54zM365 -12c-43.333 0 -83.666 8.00195 -120.999 24.002s-69.666 37.667 -96.999 65s-48.833 59.5 -64.5 96.5s-23.5 76.5 -23.5 118.5c0 43.333 8 83.5 24 120.5s37.667 69.167 65 96.5s59.5 48.833 96.5 64.5s76.833 23.5 119.5 23.5
c32 0 62.333 -4.33301 91 -13s55 -21 79 -37s45.167 -35 63.5 -57s32.833 -46.333 43.5 -73l-53 -22c-19.333 46 -48.5 82.333 -87.5 109s-84.5 40 -136.5 40c-34.667 0 -67.167 -6.5 -97.5 -19.5s-56.5 -31 -78.5 -54s-39.333 -49.667 -52 -80s-19 -63.166 -19 -98.499
c0 -34.667 6.33301 -67.334 19 -98.001s30.167 -57.334 52.5 -80.001s48.666 -40.5 78.999 -53.5s63.166 -19.5 98.499 -19.5c54 0 100.167 14.333 138.5 43s66.833 65.667 85.5 111l54 -23c-11.333 -26.667 -26 -51.334 -44 -74.001s-38.833 -42.167 -62.5 -58.5
s-50 -29 -79 -38s-60.167 -13.5 -93.5 -13.5z" />
    <glyph glyph-name="Ccircumflex" unicode="&#x108;" horiz-adv-x="796" 
d="M428 -10c-52 0 -100.673 9.83105 -146.006 29.498s-85 46.5 -119 80.5s-60.833 73.667 -80.5 119s-29.5 94 -29.5 146s9.83301 100.667 29.5 146s46.5 85 80.5 119s73.667 60.833 119 80.5s94 29.5 146 29.5c34 0 66.833 -4.5 98.5 -13.5s61.334 -21.5 89.001 -37.5
s52.834 -35.333 75.501 -58s42.334 -47.667 59.001 -75l-50 -29c-27.333 47.333 -64.666 85.666 -111.999 114.999s-100.666 44 -159.999 44c-44.667 0 -86.167 -8.5 -124.5 -25.5s-71.666 -40 -99.999 -69s-50.666 -63 -66.999 -102s-24.5 -80.5 -24.5 -124.5
s8.16699 -85.333 24.5 -124s38.666 -72.5 66.999 -101.5s61.666 -52 99.999 -69s79.833 -25.5 124.5 -25.5c64.667 0 121.167 15.5 169.5 46.5s85.5 71.5 111.5 121.5l51 -26c-16 -29.333 -35.333 -56.166 -58 -80.499s-48.167 -45.166 -76.5 -62.499
s-59.166 -30.666 -92.499 -39.999s-68.333 -14 -105 -14zM401.994 949.998h49l119 -155h-61l-83 110l-83 -110h-60z" />
    <glyph glyph-name="ccircumflex" unicode="&#x109;" horiz-adv-x="697" 
d="M365 -12c-43.333 0 -83.666 8.00195 -120.999 24.002s-69.666 37.667 -96.999 65s-48.833 59.5 -64.5 96.5s-23.5 76.5 -23.5 118.5c0 43.333 8 83.5 24 120.5s37.667 69.167 65 96.5s59.5 48.833 96.5 64.5s76.833 23.5 119.5 23.5c32 0 62.333 -4.33301 91 -13
s55 -21 79 -37s45.167 -35 63.5 -57s32.833 -46.333 43.5 -73l-53 -22c-19.333 46 -48.5 82.333 -87.5 109s-84.5 40 -136.5 40c-34.667 0 -67.167 -6.5 -97.5 -19.5s-56.5 -31 -78.5 -54s-39.333 -49.667 -52 -80s-19 -63.166 -19 -98.499
c0 -34.667 6.33301 -67.334 19 -98.001s30.167 -57.334 52.5 -80.001s48.666 -40.5 78.999 -53.5s63.166 -19.5 98.499 -19.5c54 0 100.167 14.333 138.5 43s66.833 65.667 85.5 111l54 -23c-11.333 -26.667 -26 -51.334 -44 -74.001s-38.833 -42.167 -62.5 -58.5
s-50 -29 -79 -38s-60.167 -13.5 -93.5 -13.5zM340 811.002h49l119 -155h-61l-83 110l-83 -110h-60z" />
    <glyph glyph-name="Cdotaccent" unicode="&#x10a;" horiz-adv-x="796" 
d="M428 -10c-52 0 -100.673 9.83105 -146.006 29.498s-85 46.5 -119 80.5s-60.833 73.667 -80.5 119s-29.5 94 -29.5 146s9.83301 100.667 29.5 146s46.5 85 80.5 119s73.667 60.833 119 80.5s94 29.5 146 29.5c34 0 66.833 -4.5 98.5 -13.5s61.334 -21.5 89.001 -37.5
s52.834 -35.333 75.501 -58s42.334 -47.667 59.001 -75l-50 -29c-27.333 47.333 -64.666 85.666 -111.999 114.999s-100.666 44 -159.999 44c-44.667 0 -86.167 -8.5 -124.5 -25.5s-71.666 -40 -99.999 -69s-50.666 -63 -66.999 -102s-24.5 -80.5 -24.5 -124.5
s8.16699 -85.333 24.5 -124s38.666 -72.5 66.999 -101.5s61.666 -52 99.999 -69s79.833 -25.5 124.5 -25.5c64.667 0 121.167 15.5 169.5 46.5s85.5 71.5 111.5 121.5l51 -26c-16 -29.333 -35.333 -56.166 -58 -80.499s-48.167 -45.166 -76.5 -62.499
s-59.166 -30.666 -92.499 -39.999s-68.333 -14 -105 -14zM384.994 879.998c0 14 4.66699 25.5 14 34.5s21 13.5 35 13.5c15.333 0 27.333 -4.5 36 -13.5s13 -20.5 13 -34.5s-4.33301 -25.667 -13 -35s-20.667 -14 -36 -14s-27.333 4.66699 -36 14s-13 21 -13 35z" />
    <glyph glyph-name="cdotaccent" unicode="&#x10b;" horiz-adv-x="697" 
d="M365 -12c-43.333 0 -83.666 8.00195 -120.999 24.002s-69.666 37.667 -96.999 65s-48.833 59.5 -64.5 96.5s-23.5 76.5 -23.5 118.5c0 43.333 8 83.5 24 120.5s37.667 69.167 65 96.5s59.5 48.833 96.5 64.5s76.833 23.5 119.5 23.5c32 0 62.333 -4.33301 91 -13
s55 -21 79 -37s45.167 -35 63.5 -57s32.833 -46.333 43.5 -73l-53 -22c-19.333 46 -48.5 82.333 -87.5 109s-84.5 40 -136.5 40c-34.667 0 -67.167 -6.5 -97.5 -19.5s-56.5 -31 -78.5 -54s-39.333 -49.667 -52 -80s-19 -63.166 -19 -98.499
c0 -34.667 6.33301 -67.334 19 -98.001s30.167 -57.334 52.5 -80.001s48.666 -40.5 78.999 -53.5s63.166 -19.5 98.499 -19.5c54 0 100.167 14.333 138.5 43s66.833 65.667 85.5 111l54 -23c-11.333 -26.667 -26 -51.334 -44 -74.001s-38.833 -42.167 -62.5 -58.5
s-50 -29 -79 -38s-60.167 -13.5 -93.5 -13.5zM315 706.002c0 14 4.66699 25.5 14 34.5s21 13.5 35 13.5c15.333 0 27.333 -4.5 36 -13.5s13 -20.5 13 -34.5s-4.33301 -25.667 -13 -35s-20.667 -14 -36 -14s-27.333 4.66699 -36 14s-13 21 -13 35z" />
    <glyph glyph-name="Ccaron" unicode="&#x10c;" horiz-adv-x="796" 
d="M428 -10c-52 0 -100.673 9.83105 -146.006 29.498s-85 46.5 -119 80.5s-60.833 73.667 -80.5 119s-29.5 94 -29.5 146s9.83301 100.667 29.5 146s46.5 85 80.5 119s73.667 60.833 119 80.5s94 29.5 146 29.5c34 0 66.833 -4.5 98.5 -13.5s61.334 -21.5 89.001 -37.5
s52.834 -35.333 75.501 -58s42.334 -47.667 59.001 -75l-50 -29c-27.333 47.333 -64.666 85.666 -111.999 114.999s-100.666 44 -159.999 44c-44.667 0 -86.167 -8.5 -124.5 -25.5s-71.666 -40 -99.999 -69s-50.666 -63 -66.999 -102s-24.5 -80.5 -24.5 -124.5
s8.16699 -85.333 24.5 -124s38.666 -72.5 66.999 -101.5s61.666 -52 99.999 -69s79.833 -25.5 124.5 -25.5c64.667 0 121.167 15.5 169.5 46.5s85.5 71.5 111.5 121.5l51 -26c-16 -29.333 -35.333 -56.166 -58 -80.499s-48.167 -45.166 -76.5 -62.499
s-59.166 -30.666 -92.499 -39.999s-68.333 -14 -105 -14zM279.994 949.998h59l81 -114l84 114h59l-118 -155h-48z" />
    <glyph glyph-name="ccaron" unicode="&#x10d;" horiz-adv-x="697" 
d="M365 -12c-43.333 0 -83.666 8.00195 -120.999 24.002s-69.666 37.667 -96.999 65s-48.833 59.5 -64.5 96.5s-23.5 76.5 -23.5 118.5c0 43.333 8 83.5 24 120.5s37.667 69.167 65 96.5s59.5 48.833 96.5 64.5s76.833 23.5 119.5 23.5c32 0 62.333 -4.33301 91 -13
s55 -21 79 -37s45.167 -35 63.5 -57s32.833 -46.333 43.5 -73l-53 -22c-19.333 46 -48.5 82.333 -87.5 109s-84.5 40 -136.5 40c-34.667 0 -67.167 -6.5 -97.5 -19.5s-56.5 -31 -78.5 -54s-39.333 -49.667 -52 -80s-19 -63.166 -19 -98.499
c0 -34.667 6.33301 -67.334 19 -98.001s30.167 -57.334 52.5 -80.001s48.666 -40.5 78.999 -53.5s63.166 -19.5 98.499 -19.5c54 0 100.167 14.333 138.5 43s66.833 65.667 85.5 111l54 -23c-11.333 -26.667 -26 -51.334 -44 -74.001s-38.833 -42.167 -62.5 -58.5
s-50 -29 -79 -38s-60.167 -13.5 -93.5 -13.5zM225 815.002h59l81 -114l84 114h59l-118 -155h-48z" />
    <glyph glyph-name="Dcaron" unicode="&#x10e;" horiz-adv-x="711" 
d="M75 730l205 0.000976562c55.333 0 106 -9.33301 152 -28s85.833 -44.334 119.5 -77.001s59.834 -71.167 78.501 -115.5s28 -92.5 28 -144.5s-9.66699 -100.333 -29 -145s-45.833 -83.167 -79.5 -115.5s-73.334 -57.833 -119.001 -76.5s-95.167 -28 -148.5 -28h-207v730z
M133 677.001l0.000976562 -623h145c46 0 88.5 7.83301 127.5 23.5s72.833 37.5 101.5 65.5s51.167 61 67.5 99s24.5 79 24.5 123s-7.83301 85 -23.5 123s-37.834 71 -66.501 99s-62.667 50 -102 66s-83 24 -131 24h-143zM158.001 950.001h59l81 -114l84 114h59l-118 -155
h-48z" />
    <glyph glyph-name="dcaron" unicode="&#x10f;" horiz-adv-x="754" 
d="M361 -12c-42.667 0 -82.5 7.99512 -119.5 23.9951s-69 37.833 -96 65.5s-48.167 59.834 -63.5 96.501s-23 76 -23 118s7.66699 81.5 23 118.5s36.5 69.333 63.5 97s59 49.5 96 65.5s76.833 24 119.5 24c24 0 48 -3.16699 72 -9.5s46.667 -15.666 68 -27.999
s41 -27.333 59 -45s33 -38.167 45 -61.5v287h56v-740h-55v134c-11.333 -23.333 -26 -44.166 -44 -62.499s-37.833 -33.666 -59.5 -45.999s-44.667 -21.666 -69 -27.999s-48.5 -9.5 -72.5 -9.5zM363 40.9951c35.333 0 68 6.49707 98 19.4971s56.333 30.833 79 53.5
s40.334 49.334 53.001 80.001s19 63.334 19 98.001s-6.33301 67.334 -19 98.001s-30.334 57.334 -53.001 80.001s-49 40.667 -79 54s-62.667 20 -98 20c-34 0 -66 -6.5 -96 -19.5s-56.167 -31 -78.5 -54s-39.833 -49.667 -52.5 -80s-19 -63.166 -19 -98.499
c0 -34.667 6.33301 -67.334 19 -98.001s30.167 -57.334 52.5 -80.001s48.5 -40.5 78.5 -53.5s62 -19.5 96 -19.5zM759 739.992h55l-63 -172h-41z" />
    <glyph glyph-name="Dcroat" unicode="&#x110;" horiz-adv-x="731" 
d="M22 397l75 0.000976562v333h203c55.333 0 106.166 -9.33301 152.499 -28s86.333 -44.334 120 -77.001s59.834 -71.167 78.501 -115.5s28 -92.5 28 -144.5s-9.66699 -100.333 -29 -145s-45.833 -83.167 -79.5 -115.5s-73.5 -57.833 -119.5 -76.5s-95.667 -28 -149 -28
h-205v341h-75v56zM155 677.001v-280h231v-56h-231v-287h142c46 0 88.833 7.83301 128.5 23.5s74 37.5 103 65.5s51.667 61 68 99s24.5 79 24.5 123s-8 85 -24 123s-38.5 71 -67.5 99s-63.333 50 -103 66s-83.5 24 -131.5 24h-140z" />
    <glyph glyph-name="dcroat" unicode="&#x111;" horiz-adv-x="760" 
d="M497 674l108 -0.00488281v66h56v-66h67v-49h-67v-625h-55v134c-11.333 -23.333 -26 -44.166 -44 -62.499s-37.833 -33.666 -59.5 -45.999s-44.667 -21.666 -69 -27.999s-48.5 -9.5 -72.5 -9.5c-42.667 0 -82.5 8 -119.5 24s-69 37.833 -96 65.5
s-48.167 59.834 -63.5 96.501s-23 76 -23 118s7.66699 81.5 23 118.5s36.5 69.333 63.5 97s59 49.5 96 65.5s76.833 24 119.5 24c24 0 48 -3.16699 72 -9.5s46.667 -15.666 68 -27.999s41 -27.333 59 -45s33 -38.167 45 -61.5v172h-108v49zM363 40.9951
c35.333 0 68 6.49707 98 19.4971s56.333 30.833 79 53.5s40.334 49.334 53.001 80.001s19 63.334 19 98.001s-6.33301 67.334 -19 98.001s-30.334 57.334 -53.001 80.001s-49 40.667 -79 54s-62.667 20 -98 20c-34 0 -66 -6.5 -96 -19.5s-56.167 -31 -78.5 -54
s-39.833 -49.667 -52.5 -80s-19 -63.166 -19 -98.499c0 -34.667 6.33301 -67.334 19 -98.001s30.167 -57.334 52.5 -80.001s48.5 -40.5 78.5 -53.5s62 -19.5 96 -19.5z" />
    <glyph glyph-name="Emacron" unicode="&#x112;" horiz-adv-x="587" 
d="M75 730h447v-55h-389v-282h389v-54h-389v-284h389v-55h-447v730zM163 845h264v-50h-264v50z" />
    <glyph glyph-name="emacron" unicode="&#x113;" horiz-adv-x="722" 
d="M366 -12c-47.333 0 -90.001 7.83496 -128.001 23.502s-70.167 37 -96.5 64s-46.666 58.833 -60.999 95.5s-21.5 76.334 -21.5 119.001c0 43.333 7.66699 83.666 23 120.999s36.5 69.666 63.5 96.999s59.167 49 96.5 65s77.666 24 120.999 24
c42.667 0 82.167 -7.33301 118.5 -22s67.833 -35.334 94.5 -62.001s47.5 -58.167 62.5 -94.5s22.5 -76.166 22.5 -119.499v-26h-547c2 -33.333 9.33301 -64.333 22 -93s30 -53.334 52 -74.001s48 -36.834 78 -48.501s63.333 -17.5 100 -17.5
c56.667 0 104.334 13.833 143.001 41.5s67.667 65.834 87 114.501l51 -24c-26 -58.667 -62 -104 -108 -136s-103.667 -48 -173 -48zM362.999 545.002c-32.667 0 -63 -5.66797 -91 -17.001s-52.833 -26.666 -74.5 -45.999s-39.667 -42.333 -54 -69s-23.5 -55.667 -27.5 -87
h487c-2.66699 32 -10.5 61.5 -23.5 88.5s-29.833 50.167 -50.5 69.5s-45 34.333 -73 45s-59 16 -93 16zM236.999 719.001h264v-50h-264v50z" />
    <glyph glyph-name="Ebreve" unicode="&#x114;" horiz-adv-x="587" 
d="M75 730h447v-55h-389v-282h389v-54h-389v-284h389v-55h-447v730zM298 791c-27.333 0 -51.1689 4.33301 -71.502 13s-37.166 20.167 -50.499 34.5s-23.166 31 -29.499 50s-9.5 38.833 -9.5 59.5h49c0 -31.333 9.33301 -58 28 -80s46.667 -33 84 -33c36 0 63.5 11 82.5 33
s28.5 48.667 28.5 80h51c0 -20.667 -3.66699 -40.5 -11 -59.5s-18 -35.667 -32 -50s-31 -25.833 -51 -34.5s-42.667 -13 -68 -13z" />
    <glyph glyph-name="ebreve" unicode="&#x115;" horiz-adv-x="722" 
d="M366 -12c-47.333 0 -90.001 7.83496 -128.001 23.502s-70.167 37 -96.5 64s-46.666 58.833 -60.999 95.5s-21.5 76.334 -21.5 119.001c0 43.333 7.66699 83.666 23 120.999s36.5 69.666 63.5 96.999s59.167 49 96.5 65s77.666 24 120.999 24
c42.667 0 82.167 -7.33301 118.5 -22s67.833 -35.334 94.5 -62.001s47.5 -58.167 62.5 -94.5s22.5 -76.166 22.5 -119.499v-26h-547c2 -33.333 9.33301 -64.333 22 -93s30 -53.334 52 -74.001s48 -36.834 78 -48.501s63.333 -17.5 100 -17.5
c56.667 0 104.334 13.833 143.001 41.5s67.667 65.834 87 114.501l51 -24c-26 -58.667 -62 -104 -108 -136s-103.667 -48 -173 -48zM362.999 545.002c-32.667 0 -63 -5.66797 -91 -17.001s-52.833 -26.666 -74.5 -45.999s-39.667 -42.333 -54 -69s-23.5 -55.667 -27.5 -87
h487c-2.66699 32 -10.5 61.5 -23.5 88.5s-29.833 50.167 -50.5 69.5s-45 34.333 -73 45s-59 16 -93 16zM364.999 656.001c-27.333 0 -51.1689 4.33301 -71.502 13s-37.166 20.167 -50.499 34.5s-23.166 31 -29.499 50s-9.5 38.833 -9.5 59.5h49
c0 -31.333 9.33301 -58 28 -80s46.667 -33 84 -33c36 0 63.5 11 82.5 33s28.5 48.667 28.5 80h51c0 -20.667 -3.66699 -40.5 -11 -59.5s-18 -35.667 -32 -50s-31 -25.833 -51 -34.5s-42.667 -13 -68 -13z" />
    <glyph glyph-name="Edotaccent" unicode="&#x116;" horiz-adv-x="587" 
d="M75 730h447v-55h-389v-282h389v-54h-389v-284h389v-55h-447v730zM257 880c0 14 4.66699 25.5 14 34.5s21 13.5 35 13.5c15.333 0 27.333 -4.5 36 -13.5s13 -20.5 13 -34.5s-4.33301 -25.667 -13 -35s-20.667 -14 -36 -14s-27.333 4.66699 -36 14s-13 21 -13 35z" />
    <glyph glyph-name="edotaccent" unicode="&#x117;" horiz-adv-x="722" 
d="M366 -12c-47.333 0 -90.001 7.83496 -128.001 23.502s-70.167 37 -96.5 64s-46.666 58.833 -60.999 95.5s-21.5 76.334 -21.5 119.001c0 43.333 7.66699 83.666 23 120.999s36.5 69.666 63.5 96.999s59.167 49 96.5 65s77.666 24 120.999 24
c42.667 0 82.167 -7.33301 118.5 -22s67.833 -35.334 94.5 -62.001s47.5 -58.167 62.5 -94.5s22.5 -76.166 22.5 -119.499v-26h-547c2 -33.333 9.33301 -64.333 22 -93s30 -53.334 52 -74.001s48 -36.834 78 -48.501s63.333 -17.5 100 -17.5
c56.667 0 104.334 13.833 143.001 41.5s67.667 65.834 87 114.501l51 -24c-26 -58.667 -62 -104 -108 -136s-103.667 -48 -173 -48zM362.999 545.002c-32.667 0 -63 -5.66797 -91 -17.001s-52.833 -26.666 -74.5 -45.999s-39.667 -42.333 -54 -69s-23.5 -55.667 -27.5 -87
h487c-2.66699 32 -10.5 61.5 -23.5 88.5s-29.833 50.167 -50.5 69.5s-45 34.333 -73 45s-59 16 -93 16zM315.999 708.001c0 14 4.66699 25.5 14 34.5s21 13.5 35 13.5c15.333 0 27.333 -4.5 36 -13.5s13 -20.5 13 -34.5s-4.33301 -25.667 -13 -35s-20.667 -14 -36 -14
s-27.333 4.66699 -36 14s-13 21 -13 35z" />
    <glyph glyph-name="Eogonek" unicode="&#x118;" horiz-adv-x="587" 
d="M75 730l447.001 -0.00195312v-55h-389v-282h389v-54h-389v-284h389v-55c-24 -13.333 -43.833 -25 -59.5 -35s-28.167 -19.167 -37.5 -27.5s-15.833 -16.333 -19.5 -24s-5.5 -15.5 -5.5 -23.5c0 -16 6.66699 -28.5 20 -37.5s30.333 -13.5 51 -13.5
c18.667 0 34.667 3.83301 48 11.5s26 16.834 38 27.501l45 -31c-16 -14.667 -35.5 -27.5 -58.5 -38.5s-47.167 -16.5 -72.5 -16.5c-38.667 0 -69.834 9 -93.501 27s-35.5 40.667 -35.5 68c0 19.333 6.16699 38.333 18.5 57s34.5 37.334 66.5 56.001h-352v730z" />
    <glyph glyph-name="eogonek" unicode="&#x119;" horiz-adv-x="722" 
d="M374 -215c-38.667 0 -69.832 9.00098 -93.499 27.001s-35.5 40.667 -35.5 68c0 19.333 5.83301 38 17.5 56s32.5 36 62.5 54c-41.333 4 -78.5 14.5 -111.5 31.5s-61 38.833 -84 65.5s-40.5 57.334 -52.5 92.001s-18 71.667 -18 111c0 43.333 7.66699 83.666 23 120.999
s36.5 69.666 63.5 96.999s59.167 49 96.5 65s77.666 24 120.999 24c42.667 0 82.167 -7.33301 118.5 -22s67.833 -35.334 94.5 -62.001s47.5 -58.167 62.5 -94.5s22.5 -76.166 22.5 -119.499v-26h-547c2 -33.333 9.33301 -64.333 22 -93s30 -53.334 52 -74.001
s48 -36.834 78 -48.501s63.333 -17.5 100 -17.5c56.667 0 104.334 13.833 143.001 41.5s67.667 65.834 87 114.501l51 -24c-22.667 -50 -52.334 -90.333 -89.001 -121s-81.667 -50 -135 -58c-23.333 -13.333 -42.833 -25 -58.5 -35s-28 -19.167 -37 -27.5
s-15.333 -16.333 -19 -24s-5.5 -15.5 -5.5 -23.5c0 -16 6.66699 -28.5 20 -37.5s30.333 -13.5 51 -13.5c18.667 0 34.667 3.83301 48 11.5s26 16.834 38 27.501l45 -31c-16 -14.667 -35.5 -27.5 -58.5 -38.5s-47.167 -16.5 -72.5 -16.5zM363.002 545.001
c-32.667 0 -63 -5.66797 -91 -17.001s-52.833 -26.666 -74.5 -45.999s-39.667 -42.333 -54 -69s-23.5 -55.667 -27.5 -87h487c-2.66699 32 -10.5 61.5 -23.5 88.5s-29.833 50.167 -50.5 69.5s-45 34.333 -73 45s-59 16 -93 16z" />
    <glyph glyph-name="Ecaron" unicode="&#x11a;" horiz-adv-x="587" 
d="M75 730h447v-55h-389v-282h389v-54h-389v-284h389v-55h-447v730zM153 950h59l81 -114l84 114h59l-118 -155h-48z" />
    <glyph glyph-name="ecaron" unicode="&#x11b;" horiz-adv-x="722" 
d="M366 -12c-47.333 0 -90.001 7.83496 -128.001 23.502s-70.167 37 -96.5 64s-46.666 58.833 -60.999 95.5s-21.5 76.334 -21.5 119.001c0 43.333 7.66699 83.666 23 120.999s36.5 69.666 63.5 96.999s59.167 49 96.5 65s77.666 24 120.999 24
c42.667 0 82.167 -7.33301 118.5 -22s67.833 -35.334 94.5 -62.001s47.5 -58.167 62.5 -94.5s22.5 -76.166 22.5 -119.499v-26h-547c2 -33.333 9.33301 -64.333 22 -93s30 -53.334 52 -74.001s48 -36.834 78 -48.501s63.333 -17.5 100 -17.5
c56.667 0 104.334 13.833 143.001 41.5s67.667 65.834 87 114.501l51 -24c-26 -58.667 -62 -104 -108 -136s-103.667 -48 -173 -48zM362.999 545.002c-32.667 0 -63 -5.66797 -91 -17.001s-52.833 -26.666 -74.5 -45.999s-39.667 -42.333 -54 -69s-23.5 -55.667 -27.5 -87
h487c-2.66699 32 -10.5 61.5 -23.5 88.5s-29.833 50.167 -50.5 69.5s-45 34.333 -73 45s-59 16 -93 16zM227.999 815.001h59l81 -114l84 114h59l-118 -155h-48z" />
    <glyph glyph-name="Gcircumflex" unicode="&#x11c;" horiz-adv-x="850" 
d="M430 -10c-53.333 0 -103.001 9.83496 -149.001 29.502s-85.833 46.5 -119.5 80.5s-60.167 73.667 -79.5 119s-29 94 -29 146s9.66699 100.667 29 146s46 85 80 119s74.167 60.833 120.5 80.5s96.833 29.5 151.5 29.5c70.667 0 133.834 -16.5 189.501 -49.5
s99.834 -77.833 132.501 -134.5l-50 -29c-26.667 48.667 -63.5 87.334 -110.5 116.001s-100.833 43 -161.5 43c-47.333 0 -90.666 -8.5 -129.999 -25.5s-73.333 -40 -102 -69s-50.834 -63 -66.501 -102s-23.5 -80.5 -23.5 -124.5s7.83301 -85.333 23.5 -124
s37.667 -72.5 66 -101.5s62 -52 101 -69s81.5 -25.5 127.5 -25.5s87.167 7.16699 123.5 21.5s67.833 34.166 94.5 59.499s47.834 55.166 63.501 89.499s25.5 71.5 29.5 111.5h-316v54h374v-15c0 -50.667 -8.33301 -98.834 -25 -144.501s-40.834 -85.667 -72.501 -120
s-70.334 -61.5 -116.001 -81.5s-97.5 -30 -155.5 -30zM399.999 950.002h49l119 -155h-61l-83 110l-83 -110h-60z" />
    <glyph glyph-name="gcircumflex" unicode="&#x11d;" horiz-adv-x="747" 
d="M361 -12c-42.667 0 -82.499 7.99121 -119.499 23.9912s-69 37.833 -96 65.5s-48.167 59.834 -63.5 96.501s-23 76 -23 118s7.66699 81.5 23 118.5s36.5 69.333 63.5 97s59 49.5 96 65.5s76.833 24 119.5 24c24 0 48.167 -3.16699 72.5 -9.5s47.333 -15.833 69 -28.5
s41.5 -28.167 59.5 -46.5s32.667 -39.166 44 -62.499v135h56v-573c0 -45.333 -6.83301 -86.166 -20.5 -122.499s-33.334 -67.166 -59.001 -92.499s-56.5 -45 -92.5 -59s-76 -21 -120 -21c-36 0 -68 3.66699 -96 11s-53 17.833 -75 31.5s-41.5 30.334 -58.5 50.001
s-32.5 42.167 -46.5 67.5l55 25c21.333 -41.333 49.333 -73.833 84 -97.5s80.334 -35.5 137.001 -35.5c36 0 68.667 5.66699 98 17s54.166 27.5 74.499 48.5s36 46.333 47 76s16.5 62.834 16.5 99.501v124c-11.333 -23.333 -26 -44.166 -44 -62.499
s-37.833 -33.666 -59.5 -45.999s-44.667 -21.666 -69 -27.999s-48.5 -9.5 -72.5 -9.5zM363.001 40.9912c35.333 0 68 6.49707 98 19.4971s56.333 30.833 79 53.5s40.334 49.334 53.001 80.001s19 63.334 19 98.001s-6.33301 67.334 -19 98.001
s-30.334 57.334 -53.001 80.001s-49 40.667 -79 54s-62.667 20 -98 20c-34 0 -66 -6.5 -96 -19.5s-56.167 -31 -78.5 -54s-39.833 -49.667 -52.5 -80s-19 -63.166 -19 -98.499c0 -34.667 6.33301 -67.334 19 -98.001s30.167 -57.334 52.5 -80.001s48.5 -40.5 78.5 -53.5
s62 -19.5 96 -19.5zM336.001 810.988h49l119 -155h-61l-83 110l-83 -110h-60z" />
    <glyph glyph-name="Gbreve" unicode="&#x11e;" horiz-adv-x="850" 
d="M430 -10c-53.333 0 -103.001 9.83496 -149.001 29.502s-85.833 46.5 -119.5 80.5s-60.167 73.667 -79.5 119s-29 94 -29 146s9.66699 100.667 29 146s46 85 80 119s74.167 60.833 120.5 80.5s96.833 29.5 151.5 29.5c70.667 0 133.834 -16.5 189.501 -49.5
s99.834 -77.833 132.501 -134.5l-50 -29c-26.667 48.667 -63.5 87.334 -110.5 116.001s-100.833 43 -161.5 43c-47.333 0 -90.666 -8.5 -129.999 -25.5s-73.333 -40 -102 -69s-50.834 -63 -66.501 -102s-23.5 -80.5 -23.5 -124.5s7.83301 -85.333 23.5 -124
s37.667 -72.5 66 -101.5s62 -52 101 -69s81.5 -25.5 127.5 -25.5s87.167 7.16699 123.5 21.5s67.833 34.166 94.5 59.499s47.834 55.166 63.501 89.499s25.5 71.5 29.5 111.5h-316v54h374v-15c0 -50.667 -8.33301 -98.834 -25 -144.501s-40.834 -85.667 -72.501 -120
s-70.334 -61.5 -116.001 -81.5s-97.5 -30 -155.5 -30zM422.999 791.002c-27.333 0 -51.1689 4.33301 -71.502 13s-37.166 20.167 -50.499 34.5s-23.166 31 -29.499 50s-9.5 38.833 -9.5 59.5h49c0 -31.333 9.33301 -58 28 -80s46.667 -33 84 -33c36 0 63.5 11 82.5 33
s28.5 48.667 28.5 80h51c0 -20.667 -3.66699 -40.5 -11 -59.5s-18 -35.667 -32 -50s-31 -25.833 -51 -34.5s-42.667 -13 -68 -13z" />
    <glyph glyph-name="gbreve" unicode="&#x11f;" horiz-adv-x="747" 
d="M361 -12c-42.667 0 -82.499 7.99121 -119.499 23.9912s-69 37.833 -96 65.5s-48.167 59.834 -63.5 96.501s-23 76 -23 118s7.66699 81.5 23 118.5s36.5 69.333 63.5 97s59 49.5 96 65.5s76.833 24 119.5 24c24 0 48.167 -3.16699 72.5 -9.5s47.333 -15.833 69 -28.5
s41.5 -28.167 59.5 -46.5s32.667 -39.166 44 -62.499v135h56v-573c0 -45.333 -6.83301 -86.166 -20.5 -122.499s-33.334 -67.166 -59.001 -92.499s-56.5 -45 -92.5 -59s-76 -21 -120 -21c-36 0 -68 3.66699 -96 11s-53 17.833 -75 31.5s-41.5 30.334 -58.5 50.001
s-32.5 42.167 -46.5 67.5l55 25c21.333 -41.333 49.333 -73.833 84 -97.5s80.334 -35.5 137.001 -35.5c36 0 68.667 5.66699 98 17s54.166 27.5 74.499 48.5s36 46.333 47 76s16.5 62.834 16.5 99.501v124c-11.333 -23.333 -26 -44.166 -44 -62.499
s-37.833 -33.666 -59.5 -45.999s-44.667 -21.666 -69 -27.999s-48.5 -9.5 -72.5 -9.5zM363.001 40.9912c35.333 0 68 6.49707 98 19.4971s56.333 30.833 79 53.5s40.334 49.334 53.001 80.001s19 63.334 19 98.001s-6.33301 67.334 -19 98.001
s-30.334 57.334 -53.001 80.001s-49 40.667 -79 54s-62.667 20 -98 20c-34 0 -66 -6.5 -96 -19.5s-56.167 -31 -78.5 -54s-39.833 -49.667 -52.5 -80s-19 -63.166 -19 -98.499c0 -34.667 6.33301 -67.334 19 -98.001s30.167 -57.334 52.5 -80.001s48.5 -40.5 78.5 -53.5
s62 -19.5 96 -19.5zM362.001 656.988c-27.333 0 -51.1689 4.33301 -71.502 13s-37.166 20.167 -50.499 34.5s-23.166 31 -29.499 50s-9.5 38.833 -9.5 59.5h49c0 -31.333 9.33301 -58 28 -80s46.667 -33 84 -33c36 0 63.5 11 82.5 33s28.5 48.667 28.5 80h51
c0 -20.667 -3.66699 -40.5 -11 -59.5s-18 -35.667 -32 -50s-31 -25.833 -51 -34.5s-42.667 -13 -68 -13z" />
    <glyph glyph-name="Gdotaccent" unicode="&#x120;" horiz-adv-x="850" 
d="M430 -10c-53.333 0 -103.001 9.83496 -149.001 29.502s-85.833 46.5 -119.5 80.5s-60.167 73.667 -79.5 119s-29 94 -29 146s9.66699 100.667 29 146s46 85 80 119s74.167 60.833 120.5 80.5s96.833 29.5 151.5 29.5c70.667 0 133.834 -16.5 189.501 -49.5
s99.834 -77.833 132.501 -134.5l-50 -29c-26.667 48.667 -63.5 87.334 -110.5 116.001s-100.833 43 -161.5 43c-47.333 0 -90.666 -8.5 -129.999 -25.5s-73.333 -40 -102 -69s-50.834 -63 -66.501 -102s-23.5 -80.5 -23.5 -124.5s7.83301 -85.333 23.5 -124
s37.667 -72.5 66 -101.5s62 -52 101 -69s81.5 -25.5 127.5 -25.5s87.167 7.16699 123.5 21.5s67.833 34.166 94.5 59.499s47.834 55.166 63.501 89.499s25.5 71.5 29.5 111.5h-316v54h374v-15c0 -50.667 -8.33301 -98.834 -25 -144.501s-40.834 -85.667 -72.501 -120
s-70.334 -61.5 -116.001 -81.5s-97.5 -30 -155.5 -30zM375.999 880.002c0 14 4.66699 25.5 14 34.5s21 13.5 35 13.5c15.333 0 27.333 -4.5 36 -13.5s13 -20.5 13 -34.5s-4.33301 -25.667 -13 -35s-20.667 -14 -36 -14s-27.333 4.66699 -36 14s-13 21 -13 35z" />
    <glyph glyph-name="gdotaccent" unicode="&#x121;" horiz-adv-x="747" 
d="M361 -12c-42.667 0 -82.499 7.99121 -119.499 23.9912s-69 37.833 -96 65.5s-48.167 59.834 -63.5 96.501s-23 76 -23 118s7.66699 81.5 23 118.5s36.5 69.333 63.5 97s59 49.5 96 65.5s76.833 24 119.5 24c24 0 48.167 -3.16699 72.5 -9.5s47.333 -15.833 69 -28.5
s41.5 -28.167 59.5 -46.5s32.667 -39.166 44 -62.499v135h56v-573c0 -45.333 -6.83301 -86.166 -20.5 -122.499s-33.334 -67.166 -59.001 -92.499s-56.5 -45 -92.5 -59s-76 -21 -120 -21c-36 0 -68 3.66699 -96 11s-53 17.833 -75 31.5s-41.5 30.334 -58.5 50.001
s-32.5 42.167 -46.5 67.5l55 25c21.333 -41.333 49.333 -73.833 84 -97.5s80.334 -35.5 137.001 -35.5c36 0 68.667 5.66699 98 17s54.166 27.5 74.499 48.5s36 46.333 47 76s16.5 62.834 16.5 99.501v124c-11.333 -23.333 -26 -44.166 -44 -62.499
s-37.833 -33.666 -59.5 -45.999s-44.667 -21.666 -69 -27.999s-48.5 -9.5 -72.5 -9.5zM363.001 40.9912c35.333 0 68 6.49707 98 19.4971s56.333 30.833 79 53.5s40.334 49.334 53.001 80.001s19 63.334 19 98.001s-6.33301 67.334 -19 98.001
s-30.334 57.334 -53.001 80.001s-49 40.667 -79 54s-62.667 20 -98 20c-34 0 -66 -6.5 -96 -19.5s-56.167 -31 -78.5 -54s-39.833 -49.667 -52.5 -80s-19 -63.166 -19 -98.499c0 -34.667 6.33301 -67.334 19 -98.001s30.167 -57.334 52.5 -80.001s48.5 -40.5 78.5 -53.5
s62 -19.5 96 -19.5zM311.001 712.988c0 14 4.66699 25.5 14 34.5s21 13.5 35 13.5c15.333 0 27.333 -4.5 36 -13.5s13 -20.5 13 -34.5s-4.33301 -25.667 -13 -35s-20.667 -14 -36 -14s-27.333 4.66699 -36 14s-13 21 -13 35z" />
    <glyph glyph-name="uni0122" unicode="&#x122;" horiz-adv-x="850" 
d="M430 -10c-53.333 0 -103.001 9.83496 -149.001 29.502s-85.833 46.5 -119.5 80.5s-60.167 73.667 -79.5 119s-29 94 -29 146s9.66699 100.667 29 146s46 85 80 119s74.167 60.833 120.5 80.5s96.833 29.5 151.5 29.5c70.667 0 133.834 -16.5 189.501 -49.5
s99.834 -77.833 132.501 -134.5l-50 -29c-26.667 48.667 -63.5 87.334 -110.5 116.001s-100.833 43 -161.5 43c-47.333 0 -90.666 -8.5 -129.999 -25.5s-73.333 -40 -102 -69s-50.834 -63 -66.501 -102s-23.5 -80.5 -23.5 -124.5s7.83301 -85.333 23.5 -124
s37.667 -72.5 66 -101.5s62 -52 101 -69s81.5 -25.5 127.5 -25.5s87.167 7.16699 123.5 21.5s67.833 34.166 94.5 59.499s47.834 55.166 63.501 89.499s25.5 71.5 29.5 111.5h-316v54h374v-15c0 -50.667 -8.33301 -98.834 -25 -144.501s-40.834 -85.667 -72.501 -120
s-70.334 -61.5 -116.001 -81.5s-97.5 -30 -155.5 -30zM362.999 -268.998l43 204h55l-58 -204h-40z" />
    <glyph glyph-name="uni0123" unicode="&#x123;" horiz-adv-x="747" 
d="M361 -12c-42.667 0 -82.499 7.99121 -119.499 23.9912s-69 37.833 -96 65.5s-48.167 59.834 -63.5 96.501s-23 76 -23 118s7.66699 81.5 23 118.5s36.5 69.333 63.5 97s59 49.5 96 65.5s76.833 24 119.5 24c24 0 48.167 -3.16699 72.5 -9.5s47.333 -15.833 69 -28.5
s41.5 -28.167 59.5 -46.5s32.667 -39.166 44 -62.499v135h56v-573c0 -45.333 -6.83301 -86.166 -20.5 -122.499s-33.334 -67.166 -59.001 -92.499s-56.5 -45 -92.5 -59s-76 -21 -120 -21c-36 0 -68 3.66699 -96 11s-53 17.833 -75 31.5s-41.5 30.334 -58.5 50.001
s-32.5 42.167 -46.5 67.5l55 25c21.333 -41.333 49.333 -73.833 84 -97.5s80.334 -35.5 137.001 -35.5c36 0 68.667 5.66699 98 17s54.166 27.5 74.499 48.5s36 46.333 47 76s16.5 62.834 16.5 99.501v124c-11.333 -23.333 -26 -44.166 -44 -62.499
s-37.833 -33.666 -59.5 -45.999s-44.667 -21.666 -69 -27.999s-48.5 -9.5 -72.5 -9.5zM363.001 40.9912c35.333 0 68 6.49707 98 19.4971s56.333 30.833 79 53.5s40.334 49.334 53.001 80.001s19 63.334 19 98.001s-6.33301 67.334 -19 98.001
s-30.334 57.334 -53.001 80.001s-49 40.667 -79 54s-62.667 20 -98 20c-34 0 -66 -6.5 -96 -19.5s-56.167 -31 -78.5 -54s-39.833 -49.667 -52.5 -80s-19 -63.166 -19 -98.499c0 -34.667 6.33301 -67.334 19 -98.001s30.167 -57.334 52.5 -80.001s48.5 -40.5 78.5 -53.5
s62 -19.5 96 -19.5zM335.001 659.988l43 204h55l-58 -204h-40z" />
    <glyph glyph-name="Hcircumflex" unicode="&#x124;" horiz-adv-x="688" 
d="M554 339h-422v-339h-58v730h58v-336h422v336h58v-730h-58v339zM318 950h49l119 -155h-61l-83 110l-83 -110h-60z" />
    <glyph glyph-name="hcircumflex" unicode="&#x125;" horiz-adv-x="709" 
d="M89 740h54.999v-269c20 37.333 49.333 67.666 88 90.999s83.667 35 135 35c39.333 0 74.833 -6.16699 106.5 -18.5s59 -30.166 82 -53.499s40.667 -51.5 53 -84.5s18.5 -70.5 18.5 -112.5v-328h-58v329c0 32.667 -4.66699 62.167 -14 88.5s-23 49 -41 68
s-39.833 33.667 -65.5 44s-55.167 15.5 -88.5 15.5c-30.667 0 -59.167 -5.5 -85.5 -16.5s-49.166 -26.333 -68.499 -46s-34.5 -42.667 -45.5 -69s-16.5 -54.833 -16.5 -85.5v-328h-55v740zM92.999 943h49l119 -155h-61l-83 110l-83 -110h-60z" />
    <glyph glyph-name="Hbar" unicode="&#x126;" horiz-adv-x="721" 
d="M20 585h70v145h58v-145h422v145h58v-145h65v-45h-65v-540h-58v339h-422v-339h-58v540h-70v45zM148 394h422v146h-422v-146z" />
    <glyph glyph-name="hbar" unicode="&#x127;" horiz-adv-x="719" 
d="M19 675h78.999v65h55v-65h97v-44h-97v-160c20 37.333 49.333 67.666 88 90.999s83.667 35 135 35c39.333 0 74.833 -6.16699 106.5 -18.5s59 -30.166 82 -53.499s40.667 -51.5 53 -84.5s18.5 -70.5 18.5 -112.5v-328h-58v329c0 32.667 -4.66699 62.167 -14 88.5
s-23 49 -41 68s-39.833 33.667 -65.5 44s-55.167 15.5 -88.5 15.5c-30.667 0 -59.167 -5.5 -85.5 -16.5s-49.166 -26.333 -68.499 -46s-34.5 -42.667 -45.5 -69s-16.5 -54.833 -16.5 -85.5v-328h-55v631h-79v44z" />
    <glyph glyph-name="Itilde" unicode="&#x128;" horiz-adv-x="224" 
d="M84 730h57v-730h-57v730zM-54 795c0 33.333 8.66699 59.667 26 79s39.666 29 66.999 29c16.667 0 31.834 -3 45.501 -9s27.167 -13 40.5 -21l36.5 -21c11.667 -6.66699 23.5 -10 35.5 -10c15.333 0 27.5 4.66699 36.5 14s13.5 24 13.5 44h46
c0 -34 -8.16699 -60.667 -24.5 -80s-39.833 -29 -70.5 -29c-19.333 0 -36.5 3.83301 -51.5 11.5s-29.167 15.5 -42.5 23.5l-32 18.5c-10 5.66699 -21 8.5 -33 8.5c-13.333 0 -24.333 -4.83301 -33 -14.5s-13 -24.167 -13 -43.5h-47z" />
    <glyph glyph-name="itilde" unicode="&#x129;" horiz-adv-x="226" 
d="M85 585h57v-585h-57v585zM-59 660c0 33.333 8.66699 59.667 26 79s39.666 29 66.999 29c16.667 0 31.834 -3 45.501 -9s27.167 -13 40.5 -21l36.5 -21c11.667 -6.66699 23.5 -10 35.5 -10c15.333 0 27.5 4.66699 36.5 14s13.5 24 13.5 44h46
c0 -34 -8.16699 -60.667 -24.5 -80s-39.833 -29 -70.5 -29c-19.333 0 -36.5 3.83301 -51.5 11.5s-29.167 15.5 -42.5 23.5l-32 18.5c-10 5.66699 -21 8.5 -33 8.5c-13.333 0 -24.333 -4.83301 -33 -14.5s-13 -24.167 -13 -43.5h-47z" />
    <glyph glyph-name="Imacron" unicode="&#x12a;" horiz-adv-x="227" 
d="M85 730h57v-730h-57v730zM-19 845h264v-50h-264v50z" />
    <glyph glyph-name="imacron" unicode="&#x12b;" horiz-adv-x="226" 
d="M85 585h57v-585h-57v585zM-19 714h264v-50h-264v50z" />
    <glyph glyph-name="Ibreve" unicode="&#x12c;" horiz-adv-x="227" 
d="M85 730h57v-730h-57v730zM111 791c-27.333 0 -51.1689 4.33301 -71.502 13s-37.166 20.167 -50.499 34.5s-23.166 31 -29.499 50s-9.5 38.833 -9.5 59.5h49c0 -31.333 9.33301 -58 28 -80s46.667 -33 84 -33c36 0 63.5 11 82.5 33s28.5 48.667 28.5 80h51
c0 -20.667 -3.66699 -40.5 -11 -59.5s-18 -35.667 -32 -50s-31 -25.833 -51 -34.5s-42.667 -13 -68 -13z" />
    <glyph glyph-name="ibreve" unicode="&#x12d;" horiz-adv-x="226" 
d="M85 585h57v-585h-57v585zM113 647c-27.333 0 -51.1689 4.33301 -71.502 13s-37.166 20.167 -50.499 34.5s-23.166 31 -29.499 50s-9.5 38.833 -9.5 59.5h49c0 -31.333 9.33301 -58 28 -80s46.667 -33 84 -33c36 0 63.5 11 82.5 33s28.5 48.667 28.5 80h51
c0 -20.667 -3.66699 -40.5 -11 -59.5s-18 -35.667 -32 -50s-31 -25.833 -51 -34.5s-42.667 -13 -68 -13z" />
    <glyph glyph-name="Iogonek" unicode="&#x12e;" horiz-adv-x="227" 
d="M120 -218c-38.667 0 -67.166 10.002 -85.499 30.002s-27.5 43.667 -27.5 71c0 23.333 7.16699 45.666 21.5 66.999s33.166 41.666 56.499 60.999v719h57v-730h1c-26.667 -21.333 -47 -41.5 -61 -60.5s-21 -37.167 -21 -54.5c0 -16 5.33301 -29 16 -39s25 -15 43 -15
c16 0 29.5 3 40.5 9s21.833 13.667 32.5 23l33 -40c-14 -11.333 -30.167 -21 -48.5 -29s-37.5 -12 -57.5 -12z" />
    <glyph glyph-name="iogonek" unicode="&#x12f;" horiz-adv-x="226" 
d="M119 -218c-38.667 0 -67.167 10 -85.5 30s-27.5 43.667 -27.5 71c0 23.333 7.33301 45.833 22 67.5s33.667 42.167 57 61.5v573h57v-585c-26.667 -21.333 -47 -41.5 -61 -60.5s-21 -37.167 -21 -54.5c0 -16 5.33301 -29 16 -39s25 -15 43 -15c16 0 29.5 3 40.5 9
s21.833 13.667 32.5 23l33 -40c-14 -11.333 -30.167 -21 -48.5 -29s-37.5 -12 -57.5 -12zM65 713c0 14 4.66699 25.5 14 34.5s21 13.5 35 13.5c15.333 0 27.333 -4.5 36 -13.5s13 -20.5 13 -34.5s-4.33301 -25.667 -13 -35s-20.667 -14 -36 -14s-27.333 4.66699 -36 14
s-13 21 -13 35z" />
    <glyph glyph-name="Idotaccent" unicode="&#x130;" horiz-adv-x="227" 
d="M85 730h57v-730h-57v730zM64 880c0 14 4.66699 25.5 14 34.5s21 13.5 35 13.5c15.333 0 27.333 -4.5 36 -13.5s13 -20.5 13 -34.5s-4.33301 -25.667 -13 -35s-20.667 -14 -36 -14s-27.333 4.66699 -36 14s-13 21 -13 35z" />
    <glyph glyph-name="dotlessi" unicode="&#x131;" horiz-adv-x="226" 
d="M85 585h57v-585h-57v585z" />
    <glyph glyph-name="IJ" unicode="&#x132;" horiz-adv-x="552" 
d="M224 54l79 0.000976562c40.667 0 71.667 12 93 36s32 58 32 102v538h58v-538c0 -60.667 -15 -107.834 -45 -141.501s-75.333 -50.5 -136 -50.5h-81v54zM66 730.001h58v-730h-58v730z" />
    <glyph glyph-name="ij" unicode="&#x133;" horiz-adv-x="454" 
d="M85 585h57v-585h-57v585zM65 713c0 14 4.66699 25.5 14 34.5s21 13.5 35 13.5c15.333 0 27.333 -4.5 36 -13.5s13 -20.5 13 -34.5s-4.33301 -25.667 -13 -35s-20.667 -14 -36 -14s-27.333 4.66699 -36 14s-13 21 -13 35zM369 -20
c0 -38 -3.00098 -69.6689 -9.00098 -95.002s-16.333 -45.666 -31 -60.999s-34.5 -26.333 -59.5 -33s-56.5 -10 -94.5 -10h-90v56h82c31.333 0 56.333 2 75 6s33.334 11.333 44.001 22s17.667 25.334 21 44.001s5 42.667 5 72v604h57v-605zM291.999 712.998
c0 14 4.66699 25.5 14 34.5s21 13.5 35 13.5c15.333 0 27.333 -4.5 36 -13.5s13 -20.5 13 -34.5s-4.33301 -25.667 -13 -35s-20.667 -14 -36 -14s-27.333 4.66699 -36 14s-13 21 -13 35z" />
    <glyph glyph-name="Jcircumflex" unicode="&#x134;" horiz-adv-x="476" 
d="M219 -10c-44 0 -81.499 9.33301 -112.499 28s-54.167 43.667 -69.5 75l52 33c11.333 -24.667 27.666 -44.667 48.999 -60s48 -23 80 -23c40 0 71.333 13 94 39s34 61.333 34 106v542h58v-541c0 -61.333 -16.333 -109.833 -49 -145.5s-78 -53.5 -136 -53.5zM350.001 950
h49l119 -155h-61l-83 110l-83 -110h-60z" />
    <glyph glyph-name="jcircumflex" unicode="&#x135;" horiz-adv-x="226" 
d="M-70 -212c31.333 0 57.166 1.66797 77.499 5.00098s36.166 10.5 47.499 21.5s19.166 26.667 23.499 47s6.5 47.166 6.5 80.499v643h57v-644c0 -41.333 -3.16699 -75.5 -9.5 -102.5s-17.166 -48.333 -32.499 -64s-36.166 -26.667 -62.499 -33s-59.166 -9.5 -98.499 -9.5
h-9v56zM89 800.001h49l119 -155h-61l-83 110l-83 -110h-60z" />
    <glyph glyph-name="uni0136" unicode="&#x136;" horiz-adv-x="649" 
d="M291 397l-158 -181v-216h-57v730h57v-437l382 437h71l-254 -293l290 -437h-67zM263 -269l43 204h55l-58 -204h-40z" />
    <glyph glyph-name="uni0137" unicode="&#x137;" horiz-adv-x="607" 
d="M278 305l-136 -141v-164h-56v740h56v-509l340 354h73l-236 -245l251 -340h-67zM246 -258l43 204h55l-58 -204h-40z" />
    <glyph glyph-name="kgreenlandic" unicode="&#x138;" horiz-adv-x="607" 
d="M277 305l-135 -141v-164h-57v585h57v-354l339 354h74l-236 -245l251 -340h-68z" />
    <glyph glyph-name="Lacute" unicode="&#x139;" horiz-adv-x="533" 
d="M75 730h58v-675h347v-55h-405v730zM191 950h75l-140 -155h-54z" />
    <glyph glyph-name="lacute" unicode="&#x13a;" horiz-adv-x="231" 
d="M210 950h75l-140 -155h-54zM86 740h58v-740h-58v740z" />
    <glyph glyph-name="uni013B" unicode="&#x13b;" horiz-adv-x="533" 
d="M75 730h58v-675h347v-55h-405v730zM203 -269l43 204h55l-58 -204h-40z" />
    <glyph glyph-name="uni013C" unicode="&#x13c;" horiz-adv-x="231" 
d="M9 -258l43 204h55l-58 -204h-40zM86 740h58v-740h-58v740z" />
    <glyph glyph-name="Lcaron" unicode="&#x13d;" horiz-adv-x="533" 
d="M75 730h58v-675h347v-55h-405v730zM330 729h55l-63 -172h-41z" />
    <glyph glyph-name="lcaron" unicode="&#x13e;" horiz-adv-x="264" 
d="M258 740h55l-63 -172h-41zM86 740h58v-740h-58v740z" />
    <glyph glyph-name="Ldot" unicode="&#x13f;" horiz-adv-x="542" 
d="M75 730h58v-675h347v-55h-405v730zM401 369c0 14 4.66699 25.5 14 34.5s21 13.5 35 13.5c15.333 0 27.333 -4.5 36 -13.5s13 -20.5 13 -34.5s-4.33301 -25.667 -13 -35s-20.667 -14 -36 -14s-27.333 4.66699 -36 14s-13 21 -13 35z" />
    <glyph glyph-name="ldot" unicode="&#x140;" horiz-adv-x="382" 
d="M86 740h58v-740h-58v740zM252 286c0 14 4.66699 25.5 14 34.5s21 13.5 35 13.5c15.333 0 27.333 -4.5 36 -13.5s13 -20.5 13 -34.5s-4.33301 -25.667 -13 -35s-20.667 -14 -36 -14s-27.333 4.66699 -36 14s-13 21 -13 35z" />
    <glyph glyph-name="Lslash" unicode="&#x141;" horiz-adv-x="561" 
d="M12 386l91 26v318h58v-301l143 42v-42l-143 -42v-332h347v-55h-405v370l-91 -27v43z" />
    <glyph glyph-name="lslash" unicode="&#x142;" horiz-adv-x="317" 
d="M13 409l116 50v395h58v-369l117 51v-49l-117 -50v-437h-58v412l-116 -50v47z" />
    <glyph glyph-name="Nacute" unicode="&#x143;" horiz-adv-x="742" 
d="M75 730h64l470 -640v640h58v-730h-62l-472 643v-643h-58v730zM466 950h75l-140 -155h-54z" />
    <glyph glyph-name="nacute" unicode="&#x144;" horiz-adv-x="707" 
d="M85 585l55 -0.00195312v-119c19.333 38.667 48.666 70.167 87.999 94.5s85 36.5 137 36.5c39.333 0 74.833 -6.16699 106.5 -18.5s59 -30.166 82 -53.499s40.667 -51.5 53 -84.5s18.5 -70.5 18.5 -112.5v-328h-57v329c0 32.667 -4.83301 62.167 -14.5 88.5
s-23.5 48.833 -41.5 67.5s-40 33.167 -66 43.5s-55.333 15.5 -88 15.5c-30.667 0 -59.167 -5.5 -85.5 -16.5s-49.166 -26.167 -68.499 -45.5s-34.5 -42.166 -45.5 -68.499s-16.5 -54.833 -16.5 -85.5v-328h-57v585zM449 814.998h75l-140 -155h-54z" />
    <glyph glyph-name="uni0145" unicode="&#x145;" horiz-adv-x="742" 
d="M75 730h64l470 -640v640h58v-730h-62l-472 643v-643h-58v730zM296 -269l43 204h55l-58 -204h-40z" />
    <glyph glyph-name="uni0146" unicode="&#x146;" horiz-adv-x="707" 
d="M85 585l55 -0.00195312v-119c19.333 38.667 48.666 70.167 87.999 94.5s85 36.5 137 36.5c39.333 0 74.833 -6.16699 106.5 -18.5s59 -30.166 82 -53.499s40.667 -51.5 53 -84.5s18.5 -70.5 18.5 -112.5v-328h-57v329c0 32.667 -4.83301 62.167 -14.5 88.5
s-23.5 48.833 -41.5 67.5s-40 33.167 -66 43.5s-55.333 15.5 -88 15.5c-30.667 0 -59.167 -5.5 -85.5 -16.5s-49.166 -26.167 -68.499 -45.5s-34.5 -42.166 -45.5 -68.499s-16.5 -54.833 -16.5 -85.5v-328h-57v585zM285 -254.002l43 204h55l-58 -204h-40z" />
    <glyph glyph-name="Ncaron" unicode="&#x147;" horiz-adv-x="742" 
d="M75 730h64l470 -640v640h58v-730h-62l-472 643v-643h-58v730zM231 950h59l81 -114l84 114h59l-118 -155h-48z" />
    <glyph glyph-name="ncaron" unicode="&#x148;" horiz-adv-x="707" 
d="M85 585l55 -0.00195312v-119c19.333 38.667 48.666 70.167 87.999 94.5s85 36.5 137 36.5c39.333 0 74.833 -6.16699 106.5 -18.5s59 -30.166 82 -53.499s40.667 -51.5 53 -84.5s18.5 -70.5 18.5 -112.5v-328h-57v329c0 32.667 -4.83301 62.167 -14.5 88.5
s-23.5 48.833 -41.5 67.5s-40 33.167 -66 43.5s-55.333 15.5 -88 15.5c-30.667 0 -59.167 -5.5 -85.5 -16.5s-49.166 -26.167 -68.499 -45.5s-34.5 -42.166 -45.5 -68.499s-16.5 -54.833 -16.5 -85.5v-328h-57v585zM228 814.998h59l81 -114l84 114h59l-118 -155h-48z" />
    <glyph glyph-name="Eng" unicode="&#x14a;" horiz-adv-x="742" 
d="M453 -157h49c38.667 0 66.167 9.5 82.5 28.5s24.5 48.833 24.5 89.5v39l-476 643v-643h-58v730h64l470 -635v635h58v-771c0 -54.667 -12.333 -97 -37 -127s-65.667 -45 -123 -45h-54v56z" />
    <glyph glyph-name="eng" unicode="&#x14b;" horiz-adv-x="707" 
d="M412 -212c31.333 0 57.167 1.66602 77.5 4.99902s36.333 10.5 48 21.5s19.667 26.667 24 47s6.5 47.166 6.5 80.499v387c0 32.667 -4.83301 62.167 -14.5 88.5s-23.5 48.833 -41.5 67.5s-40 33.167 -66 43.5s-55.333 15.5 -88 15.5c-30.667 0 -59.167 -5.5 -85.5 -16.5
s-49.166 -26.167 -68.499 -45.5s-34.5 -42.166 -45.5 -68.499s-16.5 -54.833 -16.5 -85.5v-328h-57v585h55v-119c19.333 38.667 48.666 70.167 87.999 94.5s85 36.5 137 36.5c39.333 0 74.833 -6.16699 106.5 -18.5s59 -30.166 82 -53.499s40.667 -51.5 53 -84.5
s18.5 -70.5 18.5 -112.5v-387c0 -41.333 -3.16699 -75.5 -9.5 -102.5s-17.333 -48.333 -33 -64s-36.667 -26.667 -63 -33s-59.5 -9.5 -99.5 -9.5h-8v56z" />
    <glyph glyph-name="Omacron" unicode="&#x14c;" horiz-adv-x="855" 
d="M292 845h264v-50h-264v50zM428 -10c-52 0 -100.667 9.83301 -146 29.5s-85 46.5 -119 80.5s-60.833 73.667 -80.5 119s-29.5 94 -29.5 146s9.83301 100.667 29.5 146s46.5 85 80.5 119s73.667 60.833 119 80.5s94 29.5 146 29.5s100.667 -9.83301 146 -29.5
s85 -46.5 119 -80.5s60.833 -73.667 80.5 -119s29.5 -94 29.5 -146s-9.83301 -100.667 -29.5 -146s-46.5 -85 -80.5 -119s-73.667 -60.833 -119 -80.5s-94 -29.5 -146 -29.5zM428 45c44.667 0 86.167 8.5 124.5 25.5s71.666 40 99.999 69s50.5 62.833 66.5 101.5
s24 80 24 124s-8 85.5 -24 124.5s-38.167 73 -66.5 102s-61.666 51.833 -99.999 68.5s-79.833 25 -124.5 25s-86.167 -8.33301 -124.5 -25s-71.666 -39.5 -99.999 -68.5s-50.666 -63 -66.999 -102s-24.5 -80.5 -24.5 -124.5s8.16699 -85.333 24.5 -124
s38.666 -72.5 66.999 -101.5s61.666 -52 99.999 -69s79.833 -25.5 124.5 -25.5z" />
    <glyph glyph-name="omacron" unicode="&#x14d;" horiz-adv-x="726" 
d="M230 720h264v-50h-264v50zM363 -12c-42 0 -81.5 7.83301 -118.5 23.5s-69.333 37.167 -97 64.5s-49.334 59.5 -65.001 96.5s-23.5 76.833 -23.5 119.5s7.83301 82.5 23.5 119.5s37.334 69.333 65.001 97s60 49.334 97 65.001s76.5 23.5 118.5 23.5
s81.5 -7.83301 118.5 -23.5s69.167 -37.334 96.5 -65.001s49 -60 65 -97s24 -76.833 24 -119.5s-8 -82.5 -24 -119.5s-37.667 -69.167 -65 -96.5s-59.5 -48.833 -96.5 -64.5s-76.5 -23.5 -118.5 -23.5zM363 41c34 0 66 6.5 96 19.5s56 30.833 78 53.5
s39.333 49.334 52 80.001s19 63.334 19 98.001c0 35.333 -6.33301 68.166 -19 98.499s-30 57 -52 80s-48 41 -78 54s-62 19.5 -96 19.5c-34.667 0 -67 -6.5 -97 -19.5s-56 -31 -78 -54s-39.333 -49.667 -52 -80s-19 -63.166 -19 -98.499
c0 -34.667 6.33301 -67.334 19 -98.001s30 -57.334 52 -80.001s48 -40.5 78 -53.5s62.333 -19.5 97 -19.5z" />
    <glyph glyph-name="Obreve" unicode="&#x14e;" horiz-adv-x="855" 
d="M428 -10c-52 0 -100.667 9.83301 -146 29.5s-85 46.5 -119 80.5s-60.833 73.667 -80.5 119s-29.5 94 -29.5 146s9.83301 100.667 29.5 146s46.5 85 80.5 119s73.667 60.833 119 80.5s94 29.5 146 29.5s100.667 -9.83301 146 -29.5s85 -46.5 119 -80.5
s60.833 -73.667 80.5 -119s29.5 -94 29.5 -146s-9.83301 -100.667 -29.5 -146s-46.5 -85 -80.5 -119s-73.667 -60.833 -119 -80.5s-94 -29.5 -146 -29.5zM428 45c44.667 0 86.167 8.5 124.5 25.5s71.666 40 99.999 69s50.5 62.833 66.5 101.5s24 80 24 124
s-8 85.5 -24 124.5s-38.167 73 -66.5 102s-61.666 51.833 -99.999 68.5s-79.833 25 -124.5 25s-86.167 -8.33301 -124.5 -25s-71.666 -39.5 -99.999 -68.5s-50.666 -63 -66.999 -102s-24.5 -80.5 -24.5 -124.5s8.16699 -85.333 24.5 -124s38.666 -72.5 66.999 -101.5
s61.666 -52 99.999 -69s79.833 -25.5 124.5 -25.5zM423 792c-27.333 0 -51.1689 4.33301 -71.502 13s-37.166 20.167 -50.499 34.5s-23.166 31 -29.499 50s-9.5 38.833 -9.5 59.5h49c0 -31.333 9.33301 -58 28 -80s46.667 -33 84 -33c36 0 63.5 11 82.5 33
s28.5 48.667 28.5 80h51c0 -20.667 -3.66699 -40.5 -11 -59.5s-18 -35.667 -32 -50s-31 -25.833 -51 -34.5s-42.667 -13 -68 -13z" />
    <glyph glyph-name="obreve" unicode="&#x14f;" horiz-adv-x="726" 
d="M363 -12c-42 0 -81.5 7.83301 -118.5 23.5s-69.333 37.167 -97 64.5s-49.334 59.5 -65.001 96.5s-23.5 76.833 -23.5 119.5s7.83301 82.5 23.5 119.5s37.334 69.333 65.001 97s60 49.334 97 65.001s76.5 23.5 118.5 23.5s81.5 -7.83301 118.5 -23.5
s69.167 -37.334 96.5 -65.001s49 -60 65 -97s24 -76.833 24 -119.5s-8 -82.5 -24 -119.5s-37.667 -69.167 -65 -96.5s-59.5 -48.833 -96.5 -64.5s-76.5 -23.5 -118.5 -23.5zM363 41c34 0 66 6.5 96 19.5s56 30.833 78 53.5s39.333 49.334 52 80.001s19 63.334 19 98.001
c0 35.333 -6.33301 68.166 -19 98.499s-30 57 -52 80s-48 41 -78 54s-62 19.5 -96 19.5c-34.667 0 -67 -6.5 -97 -19.5s-56 -31 -78 -54s-39.333 -49.667 -52 -80s-19 -63.166 -19 -98.499c0 -34.667 6.33301 -67.334 19 -98.001s30 -57.334 52 -80.001s48 -40.5 78 -53.5
s62.333 -19.5 97 -19.5zM362 657c-27.333 0 -51.1689 4.33301 -71.502 13s-37.166 20.167 -50.499 34.5s-23.166 31 -29.499 50s-9.5 38.833 -9.5 59.5h49c0 -31.333 9.33301 -58 28 -80s46.667 -33 84 -33c36 0 63.5 11 82.5 33s28.5 48.667 28.5 80h51
c0 -20.667 -3.66699 -40.5 -11 -59.5s-18 -35.667 -32 -50s-31 -25.833 -51 -34.5s-42.667 -13 -68 -13z" />
    <glyph glyph-name="Ohungarumlaut" unicode="&#x150;" horiz-adv-x="855" 
d="M447 950h71l-140 -155h-50zM569 950h71l-140 -155h-51zM428 -10c-52 0 -100.667 9.83301 -146 29.5s-85 46.5 -119 80.5s-60.833 73.667 -80.5 119s-29.5 94 -29.5 146s9.83301 100.667 29.5 146s46.5 85 80.5 119s73.667 60.833 119 80.5s94 29.5 146 29.5
s100.667 -9.83301 146 -29.5s85 -46.5 119 -80.5s60.833 -73.667 80.5 -119s29.5 -94 29.5 -146s-9.83301 -100.667 -29.5 -146s-46.5 -85 -80.5 -119s-73.667 -60.833 -119 -80.5s-94 -29.5 -146 -29.5zM428 45c44.667 0 86.167 8.5 124.5 25.5s71.666 40 99.999 69
s50.5 62.833 66.5 101.5s24 80 24 124s-8 85.5 -24 124.5s-38.167 73 -66.5 102s-61.666 51.833 -99.999 68.5s-79.833 25 -124.5 25s-86.167 -8.33301 -124.5 -25s-71.666 -39.5 -99.999 -68.5s-50.666 -63 -66.999 -102s-24.5 -80.5 -24.5 -124.5
s8.16699 -85.333 24.5 -124s38.666 -72.5 66.999 -101.5s61.666 -52 99.999 -69s79.833 -25.5 124.5 -25.5z" />
    <glyph glyph-name="ohungarumlaut" unicode="&#x151;" horiz-adv-x="726" 
d="M391 815h71l-140 -155h-50zM513 815h71l-140 -155h-51zM363 -12c-42 0 -81.5 7.83301 -118.5 23.5s-69.333 37.167 -97 64.5s-49.334 59.5 -65.001 96.5s-23.5 76.833 -23.5 119.5s7.83301 82.5 23.5 119.5s37.334 69.333 65.001 97s60 49.334 97 65.001
s76.5 23.5 118.5 23.5s81.5 -7.83301 118.5 -23.5s69.167 -37.334 96.5 -65.001s49 -60 65 -97s24 -76.833 24 -119.5s-8 -82.5 -24 -119.5s-37.667 -69.167 -65 -96.5s-59.5 -48.833 -96.5 -64.5s-76.5 -23.5 -118.5 -23.5zM363 41c34 0 66 6.5 96 19.5s56 30.833 78 53.5
s39.333 49.334 52 80.001s19 63.334 19 98.001c0 35.333 -6.33301 68.166 -19 98.499s-30 57 -52 80s-48 41 -78 54s-62 19.5 -96 19.5c-34.667 0 -67 -6.5 -97 -19.5s-56 -31 -78 -54s-39.333 -49.667 -52 -80s-19 -63.166 -19 -98.499
c0 -34.667 6.33301 -67.334 19 -98.001s30 -57.334 52 -80.001s48 -40.5 78 -53.5s62.333 -19.5 97 -19.5z" />
    <glyph glyph-name="OE" unicode="&#x152;" horiz-adv-x="1255" 
d="M744 174c-31.333 -55.333 -74.333 -99.833 -129 -133.5s-117.334 -50.5 -188.001 -50.5c-52 0 -100.667 9.83301 -146 29.5s-84.833 46.5 -118.5 80.5s-60.334 73.667 -80.001 119s-29.5 94 -29.5 146s9.83301 100.667 29.5 146s46.334 85 80.001 119
s73.167 60.833 118.5 80.5s94 29.5 146 29.5c70.667 0 133.334 -16.833 188.001 -50.5s97.667 -78.167 129 -133.5v174h446v-55h-388v-282h388v-54h-388v-284h388v-55h-446v174zM427 47c44 0 85.333 8.33301 124 25s72.167 39.5 100.5 68.5s50.833 62.667 67.5 101
s25 79.5 25 123.5s-8.33301 85.333 -25 124s-39.167 72.5 -67.5 101.5s-61.833 51.833 -100.5 68.5s-80 25 -124 25s-85.167 -8.33301 -123.5 -25s-71.666 -39.5 -99.999 -68.5s-50.833 -62.833 -67.5 -101.5s-25 -80 -25 -124s8.33301 -85.167 25 -123.5
s39.167 -72 67.5 -101s61.666 -51.833 99.999 -68.5s79.5 -25 123.5 -25z" />
    <glyph glyph-name="oe" unicode="&#x153;" horiz-adv-x="1275" 
d="M363 -12c-42 0 -81.498 7.83301 -118.498 23.5s-69.333 37.167 -97 64.5s-49.334 59.5 -65.001 96.5s-23.5 76.833 -23.5 119.5s7.83301 82.5 23.5 119.5s37.334 69.333 65.001 97s60 49.334 97 65.001s76.5 23.5 118.5 23.5c31.333 0 61.166 -4.33301 89.499 -13
s54.166 -20.834 77.499 -36.501s44.166 -34.5 62.499 -56.5s33.166 -46.333 44.499 -73c11.333 26.667 25.833 51 43.5 73s38.334 40.833 62.001 56.5s49.834 27.834 78.501 36.501s59.334 13 92.001 13c42.667 0 82.167 -7.33301 118.5 -22s68 -35.334 95 -62.001
s48.167 -58.334 63.5 -95.001s23 -76.667 23 -120v-20h-549c1.33301 -34 8.66602 -65.5 21.999 -94.5s31.333 -54.167 54 -75.5s49 -38 79 -50s62.333 -18 97 -18c59.333 0 109.333 15.667 150 47s69 72 85 122l51 -23c-10 -30 -23.833 -57.167 -41.5 -81.5
s-38.834 -45.166 -63.501 -62.499s-52.167 -30.666 -82.5 -39.999s-63.166 -14 -98.499 -14c-68 0 -126.333 16.167 -175 48.5s-84 75.166 -106 128.499c-11.333 -26 -26 -50 -44 -72s-38.667 -40.667 -62 -56s-49 -27.333 -77 -36s-57.667 -13 -89 -13zM363.002 41
c34 0 66 6.5 96 19.5s56 30.833 78 53.5s39.333 49.334 52 80.001s19 63.334 19 98.001c0 35.333 -6.33301 68.166 -19 98.499s-30 57 -52 80s-48 41 -78 54s-62 19.5 -96 19.5c-34.667 0 -67 -6.5 -97 -19.5s-56 -31 -78 -54s-39.333 -49.667 -52 -80
s-19 -63.166 -19 -98.499c0 -34.667 6.33301 -67.334 19 -98.001s30 -57.334 52 -80.001s48 -40.5 78 -53.5s62.333 -19.5 97 -19.5zM913.002 545c-32 0 -62 -5.5 -90 -16.5s-52.833 -26.167 -74.5 -45.5s-39.5 -42 -53.5 -68s-23.333 -54.333 -28 -85h487
c-3.33301 32 -11.5 61.167 -24.5 87.5s-30 49 -51 68s-45.5 33.667 -73.5 44s-58.667 15.5 -92 15.5z" />
    <glyph glyph-name="Racute" unicode="&#x154;" horiz-adv-x="596" 
d="M330 272l-197 0.000976562v-272h-58v730h228c34 0 65.667 -6 95 -18s54.833 -28.333 76.5 -49s38.5 -44.834 50.5 -72.501s18 -57.167 18 -88.5c0 -24 -3.83301 -47.333 -11.5 -70s-18.5 -43.334 -32.5 -62.001s-30.833 -35.167 -50.5 -49.5s-41.5 -25.166 -65.5 -32.499
l164 -288h-65zM133 677.001l-0.000976562 -352.001h165c28 0 53.333 4.83301 76 14.5s42.334 22.834 59.001 39.501s29.5 35.667 38.5 57s13.5 43.333 13.5 66c0 24.667 -4.5 47.667 -13.5 69s-21.667 39.833 -38 55.5s-36 28 -59 37s-48.167 13.5 -75.5 13.5h-166z
M356.999 950h75l-140 -155h-54z" />
    <glyph glyph-name="racute" unicode="&#x155;" horiz-adv-x="450" 
d="M85 585l55.0029 0.000976562v-104c15.333 35.333 37.666 62.5 66.999 81.5s64.666 28.5 105.999 28.5c26 0 48.167 -2.83301 66.5 -8.5s36.5 -13.834 54.5 -24.501l-34 -50c-13.333 9.33301 -26.833 16.666 -40.5 21.999s-29.834 8 -48.501 8
c-52 0 -93.167 -17.167 -123.5 -51.5s-45.5 -82.166 -45.5 -143.499v-343h-57v585zM342.003 812.001h75l-140 -155h-54z" />
    <glyph glyph-name="uni0156" unicode="&#x156;" horiz-adv-x="596" 
d="M330 272l-197 0.000976562v-272h-58v730h228c34 0 65.667 -6 95 -18s54.833 -28.333 76.5 -49s38.5 -44.834 50.5 -72.501s18 -57.167 18 -88.5c0 -24 -3.83301 -47.333 -11.5 -70s-18.5 -43.334 -32.5 -62.001s-30.833 -35.167 -50.5 -49.5s-41.5 -25.166 -65.5 -32.499
l164 -288h-65zM133 677.001l-0.000976562 -352.001h165c28 0 53.333 4.83301 76 14.5s42.334 22.834 59.001 39.501s29.5 35.667 38.5 57s13.5 43.333 13.5 66c0 24.667 -4.5 47.667 -13.5 69s-21.667 39.833 -38 55.5s-36 28 -59 37s-48.167 13.5 -75.5 13.5h-166z
M245.999 -281l43 204h55l-58 -204h-40z" />
    <glyph glyph-name="uni0157" unicode="&#x157;" horiz-adv-x="450" 
d="M85 585l55.0029 0.000976562v-104c15.333 35.333 37.666 62.5 66.999 81.5s64.666 28.5 105.999 28.5c26 0 48.167 -2.83301 66.5 -8.5s36.5 -13.834 54.5 -24.501l-34 -50c-13.333 9.33301 -26.833 16.666 -40.5 21.999s-29.834 8 -48.501 8
c-52 0 -93.167 -17.167 -123.5 -51.5s-45.5 -82.166 -45.5 -143.499v-343h-57v585zM42.0029 -257.999l43 204h55l-58 -204h-40z" />
    <glyph glyph-name="Rcaron" unicode="&#x158;" horiz-adv-x="596" 
d="M330 272l-197 0.000976562v-272h-58v730h228c34 0 65.667 -6 95 -18s54.833 -28.333 76.5 -49s38.5 -44.834 50.5 -72.501s18 -57.167 18 -88.5c0 -24 -3.83301 -47.333 -11.5 -70s-18.5 -43.334 -32.5 -62.001s-30.833 -35.167 -50.5 -49.5s-41.5 -25.166 -65.5 -32.499
l164 -288h-65zM133 677.001l-0.000976562 -352.001h165c28 0 53.333 4.83301 76 14.5s42.334 22.834 59.001 39.501s29.5 35.667 38.5 57s13.5 43.333 13.5 66c0 24.667 -4.5 47.667 -13.5 69s-21.667 39.833 -38 55.5s-36 28 -59 37s-48.167 13.5 -75.5 13.5h-166z
M166.999 950h59l81 -114l84 114h59l-118 -155h-48z" />
    <glyph glyph-name="rcaron" unicode="&#x159;" horiz-adv-x="450" 
d="M85 585l55.0029 0.000976562v-104c15.333 35.333 37.666 62.5 66.999 81.5s64.666 28.5 105.999 28.5c26 0 48.167 -2.83301 66.5 -8.5s36.5 -13.834 54.5 -24.501l-34 -50c-13.333 9.33301 -26.833 16.666 -40.5 21.999s-29.834 8 -48.501 8
c-52 0 -93.167 -17.167 -123.5 -51.5s-45.5 -82.166 -45.5 -143.499v-343h-57v585zM110.003 811.001h59l81 -114l84 114h59l-118 -155h-48z" />
    <glyph glyph-name="Sacute" unicode="&#x15a;" horiz-adv-x="557" 
d="M366 949h75l-140 -155h-54zM273 -10c-54 0 -101.169 10.8359 -141.502 32.5029s-74.166 50.834 -101.499 87.501l48 37c23.333 -34 51.333 -59.833 84 -77.5s69.667 -26.5 111 -26.5c24.667 0 47.667 3.66699 69 11s39.833 17.666 55.5 30.999s28 29.5 37 48.5
s13.5 40.167 13.5 63.5c0 24.667 -5.16699 45.5 -15.5 62.5s-24.166 31.5 -41.499 43.5s-37.166 22.167 -59.499 30.5s-45.5 16.5 -69.5 24.5c-25.333 8 -50.166 17 -74.499 27s-46.166 22.333 -65.499 37s-35 32.667 -47 54s-18 47.666 -18 78.999
c0 26.667 5.66699 51.334 17 74.001s26.666 42.167 45.999 58.5s42.166 29.166 68.499 38.499s54.833 14 85.5 14c49.333 0 91.5 -9 126.5 -27s64.5 -42.333 88.5 -73l-45 -35c-19.333 27.333 -42.833 48.166 -70.5 62.499s-60.834 21.5 -99.501 21.5
c-22 0 -42.667 -3.33301 -62 -10s-36.166 -15.834 -50.499 -27.501s-25.5 -25.667 -33.5 -42s-12 -34.5 -12 -54.5c0 -23.333 5 -43 15 -59s23.5 -29.5 40.5 -40.5s36.5 -20.5 58.5 -28.5l68 -24c25.333 -8.66699 50.5 -18 75.5 -28s47.333 -22.833 67 -38.5
s35.5 -34.667 47.5 -57s18 -49.833 18 -82.5c0 -28.667 -5.66699 -55.5 -17 -80.5s-27.333 -46.833 -48 -65.5s-45.334 -33.5 -74.001 -44.5s-60 -16.5 -94 -16.5z" />
    <glyph glyph-name="sacute" unicode="&#x15b;" horiz-adv-x="542" 
d="M355 815h75l-140 -155h-54zM267 -12c-50 0 -95.001 10.1709 -135.001 30.5039s-71.667 46.5 -95 78.5l45 36c19.333 -26.667 45.166 -49 77.499 -67s68.5 -27 108.5 -27c26.667 0 49.834 3.33301 69.501 10s36.167 15.667 49.5 27s23.333 24.5 30 39.5s10 30.5 10 46.5
c0 19.333 -4.83301 35.166 -14.5 47.499s-22.5 22.666 -38.5 30.999s-34.167 15.333 -54.5 21s-41.166 11.167 -62.499 16.5c-24 6 -47.5 12.667 -70.5 20s-43.5 16.833 -61.5 28.5s-32.5 26.5 -43.5 44.5s-16.5 40.333 -16.5 67c0 21.333 4.66699 41.666 14 60.999
s22.833 36.333 40.5 51s38.834 26.334 63.501 35.001s52.334 13 83.001 13c42 0 80.667 -7.5 116 -22.5s64.666 -35.833 87.999 -62.5l-43 -35c-20 22.667 -43 40 -69 52s-56.667 18 -92 18c-46 0 -81.5 -10.333 -106.5 -31s-37.5 -46.667 -37.5 -78
c0 -18 4.66699 -33 14 -45s21.666 -22.167 36.999 -30.5s32.833 -15.333 52.5 -21s40.167 -11.167 61.5 -16.5c24 -6 47.833 -12.833 71.5 -20.5s44.667 -17.5 63 -29.5s33.333 -27 45 -45s17.5 -41 17.5 -69c0 -20.667 -4.33301 -41.334 -13 -62.001
s-21.834 -39.334 -39.501 -56.001s-40.167 -30.167 -67.5 -40.5s-59.666 -15.5 -96.999 -15.5z" />
    <glyph glyph-name="Scircumflex" unicode="&#x15c;" horiz-adv-x="557" 
d="M273 -10c-54 0 -101.169 10.8359 -141.502 32.5029s-74.166 50.834 -101.499 87.501l48 37c23.333 -34 51.333 -59.833 84 -77.5s69.667 -26.5 111 -26.5c24.667 0 47.667 3.66699 69 11s39.833 17.666 55.5 30.999s28 29.5 37 48.5s13.5 40.167 13.5 63.5
c0 24.667 -5.16699 45.5 -15.5 62.5s-24.166 31.5 -41.499 43.5s-37.166 22.167 -59.499 30.5s-45.5 16.5 -69.5 24.5c-25.333 8 -50.166 17 -74.499 27s-46.166 22.333 -65.499 37s-35 32.667 -47 54s-18 47.666 -18 78.999c0 26.667 5.66699 51.334 17 74.001
s26.666 42.167 45.999 58.5s42.166 29.166 68.499 38.499s54.833 14 85.5 14c49.333 0 91.5 -9 126.5 -27s64.5 -42.333 88.5 -73l-45 -35c-19.333 27.333 -42.833 48.166 -70.5 62.499s-60.834 21.5 -99.501 21.5c-22 0 -42.667 -3.33301 -62 -10
s-36.166 -15.834 -50.499 -27.501s-25.5 -25.667 -33.5 -42s-12 -34.5 -12 -54.5c0 -23.333 5 -43 15 -59s23.5 -29.5 40.5 -40.5s36.5 -20.5 58.5 -28.5l68 -24c25.333 -8.66699 50.5 -18 75.5 -28s47.333 -22.833 67 -38.5s35.5 -34.667 47.5 -57s18 -49.833 18 -82.5
c0 -28.667 -5.66699 -55.5 -17 -80.5s-27.333 -46.833 -48 -65.5s-45.334 -33.5 -74.001 -44.5s-60 -16.5 -94 -16.5zM252.998 950.003h49l119 -155h-61l-83 110l-83 -110h-60z" />
    <glyph glyph-name="scircumflex" unicode="&#x15d;" horiz-adv-x="542" 
d="M267 -12c-50 0 -95.001 10.1709 -135.001 30.5039s-71.667 46.5 -95 78.5l45 36c19.333 -26.667 45.166 -49 77.499 -67s68.5 -27 108.5 -27c26.667 0 49.834 3.33301 69.501 10s36.167 15.667 49.5 27s23.333 24.5 30 39.5s10 30.5 10 46.5
c0 19.333 -4.83301 35.166 -14.5 47.499s-22.5 22.666 -38.5 30.999s-34.167 15.333 -54.5 21s-41.166 11.167 -62.499 16.5c-24 6 -47.5 12.667 -70.5 20s-43.5 16.833 -61.5 28.5s-32.5 26.5 -43.5 44.5s-16.5 40.333 -16.5 67c0 21.333 4.66699 41.666 14 60.999
s22.833 36.333 40.5 51s38.834 26.334 63.501 35.001s52.334 13 83.001 13c42 0 80.667 -7.5 116 -22.5s64.666 -35.833 87.999 -62.5l-43 -35c-20 22.667 -43 40 -69 52s-56.667 18 -92 18c-46 0 -81.5 -10.333 -106.5 -31s-37.5 -46.667 -37.5 -78
c0 -18 4.66699 -33 14 -45s21.666 -22.167 36.999 -30.5s32.833 -15.333 52.5 -21s40.167 -11.167 61.5 -16.5c24 -6 47.833 -12.833 71.5 -20.5s44.667 -17.5 63 -29.5s33.333 -27 45 -45s17.5 -41 17.5 -69c0 -20.667 -4.33301 -41.334 -13 -62.001
s-21.834 -39.334 -39.501 -56.001s-40.167 -30.167 -67.5 -40.5s-59.666 -15.5 -96.999 -15.5zM239.999 812.004h49l119 -155h-61l-83 110l-83 -110h-60z" />
    <glyph glyph-name="Scedilla" unicode="&#x15e;" horiz-adv-x="557" 
d="M281 -227c-31.333 0 -58.167 5.00391 -80.5 15.0039s-41.833 22.667 -58.5 38l46 28c13.333 -11.333 26.666 -20.5 39.999 -27.5s31 -10.5 53 -10.5c23.333 0 42.5 4.66699 57.5 14s22.5 21.333 22.5 36c0 13.333 -7.16699 24 -21.5 32s-34.833 12 -61.5 12h-33v82
c-47.333 3.33301 -88.833 15.333 -124.5 36s-65.834 48 -90.501 82l48 37c23.333 -34 51.333 -59.833 84 -77.5s69.667 -26.5 111 -26.5c24.667 0 47.667 3.66699 69 11s39.833 17.666 55.5 30.999s28 29.5 37 48.5s13.5 40.167 13.5 63.5
c0 24.667 -5.16699 45.5 -15.5 62.5s-24.166 31.5 -41.499 43.5s-37.166 22.167 -59.499 30.5s-45.5 16.5 -69.5 24.5c-25.333 8 -50.166 17 -74.499 27s-46.166 22.333 -65.499 37s-35 32.667 -47 54s-18 47.666 -18 78.999c0 26.667 5.66699 51.334 17 74.001
s26.666 42.167 45.999 58.5s42.166 29.166 68.499 38.499s54.833 14 85.5 14c49.333 0 91.5 -9 126.5 -27s64.5 -42.333 88.5 -73l-45 -35c-19.333 27.333 -42.833 48.166 -70.5 62.499s-60.834 21.5 -99.501 21.5c-22 0 -42.667 -3.33301 -62 -10
s-36.166 -15.834 -50.499 -27.501s-25.5 -25.667 -33.5 -42s-12 -34.5 -12 -54.5c0 -23.333 5 -43 15 -59s23.5 -29.5 40.5 -40.5s36.5 -20.5 58.5 -28.5l68 -24c25.333 -8.66699 50.5 -18 75.5 -28s47.333 -22.833 67 -38.5s35.5 -34.667 47.5 -57s18 -49.833 18 -82.5
c0 -26.667 -5.16699 -52 -15.5 -76s-24.833 -45.333 -43.5 -64s-41 -33.834 -67 -45.501s-54.667 -18.5 -86 -20.5v-44c36 -0.666992 65.167 -8.16699 87.5 -22.5s33.5 -33.166 33.5 -56.499c0 -14 -3.5 -26.833 -10.5 -38.5s-16.5 -21.667 -28.5 -30
s-26.167 -14.833 -42.5 -19.5s-33.833 -7 -52.5 -7z" />
    <glyph glyph-name="scedilla" unicode="&#x15f;" horiz-adv-x="542" 
d="M276 -232c-31.333 0 -58.167 5 -80.5 15s-41.833 22.667 -58.5 38l46 28c13.333 -11.333 26.666 -20.5 39.999 -27.5s31 -10.5 53 -10.5c23.333 0 42.5 4.66699 57.5 14s22.5 21.333 22.5 36c0 13.333 -7.16699 24 -21.5 32s-34.833 12 -61.5 12h-33v85
c-44 3.33301 -83.5 14.833 -118.5 34.5s-63.167 43.834 -84.5 72.501l45 36c19.333 -26.667 45.166 -49 77.499 -67s68.5 -27 108.5 -27c26.667 0 49.834 3.33301 69.501 10s36.167 15.667 49.5 27s23.333 24.5 30 39.5s10 30.5 10 46.5
c0 19.333 -4.83301 35.166 -14.5 47.499s-22.5 22.666 -38.5 30.999s-34.167 15.333 -54.5 21s-41.166 11.167 -62.499 16.5c-24 6 -47.5 12.667 -70.5 20s-43.5 16.833 -61.5 28.5s-32.5 26.5 -43.5 44.5s-16.5 40.333 -16.5 67c0 21.333 4.66699 41.666 14 60.999
s22.833 36.333 40.5 51s38.834 26.334 63.501 35.001s52.334 13 83.001 13c42 0 80.667 -7.5 116 -22.5s64.666 -35.833 87.999 -62.5l-43 -35c-20 22.667 -43 40 -69 52s-56.667 18 -92 18c-46 0 -81.5 -10.333 -106.5 -31s-37.5 -46.667 -37.5 -78
c0 -18 4.66699 -33 14 -45s21.666 -22.167 36.999 -30.5s32.833 -15.333 52.5 -21s40.167 -11.167 61.5 -16.5c24 -6 47.833 -12.833 71.5 -20.5s44.667 -17.5 63 -29.5s33.333 -27 45 -45s17.5 -41 17.5 -69c0 -19.333 -3.83301 -38.833 -11.5 -58.5
s-19.5 -37.667 -35.5 -54s-36.333 -30 -61 -41s-53.667 -17.5 -87 -19.5v-47c36 -0.666992 65.167 -8.16699 87.5 -22.5s33.5 -33.166 33.5 -56.499c0 -14 -3.5 -26.833 -10.5 -38.5s-16.5 -21.667 -28.5 -30s-26.167 -14.833 -42.5 -19.5s-33.833 -7 -52.5 -7z" />
    <glyph glyph-name="Scaron" unicode="&#x160;" horiz-adv-x="557" 
d="M273 -10c-54 0 -101.169 10.8359 -141.502 32.5029s-74.166 50.834 -101.499 87.501l48 37c23.333 -34 51.333 -59.833 84 -77.5s69.667 -26.5 111 -26.5c24.667 0 47.667 3.66699 69 11s39.833 17.666 55.5 30.999s28 29.5 37 48.5s13.5 40.167 13.5 63.5
c0 24.667 -5.16699 45.5 -15.5 62.5s-24.166 31.5 -41.499 43.5s-37.166 22.167 -59.499 30.5s-45.5 16.5 -69.5 24.5c-25.333 8 -50.166 17 -74.499 27s-46.166 22.333 -65.499 37s-35 32.667 -47 54s-18 47.666 -18 78.999c0 26.667 5.66699 51.334 17 74.001
s26.666 42.167 45.999 58.5s42.166 29.166 68.499 38.499s54.833 14 85.5 14c49.333 0 91.5 -9 126.5 -27s64.5 -42.333 88.5 -73l-45 -35c-19.333 27.333 -42.833 48.166 -70.5 62.499s-60.834 21.5 -99.501 21.5c-22 0 -42.667 -3.33301 -62 -10
s-36.166 -15.834 -50.499 -27.501s-25.5 -25.667 -33.5 -42s-12 -34.5 -12 -54.5c0 -23.333 5 -43 15 -59s23.5 -29.5 40.5 -40.5s36.5 -20.5 58.5 -28.5l68 -24c25.333 -8.66699 50.5 -18 75.5 -28s47.333 -22.833 67 -38.5s35.5 -34.667 47.5 -57s18 -49.833 18 -82.5
c0 -28.667 -5.66699 -55.5 -17 -80.5s-27.333 -46.833 -48 -65.5s-45.334 -33.5 -74.001 -44.5s-60 -16.5 -94 -16.5zM137.998 950.003h59l81 -114l84 114h59l-118 -155h-48z" />
    <glyph glyph-name="scaron" unicode="&#x161;" horiz-adv-x="542" 
d="M267 -12c-50 0 -95.001 10.1709 -135.001 30.5039s-71.667 46.5 -95 78.5l45 36c19.333 -26.667 45.166 -49 77.499 -67s68.5 -27 108.5 -27c26.667 0 49.834 3.33301 69.501 10s36.167 15.667 49.5 27s23.333 24.5 30 39.5s10 30.5 10 46.5
c0 19.333 -4.83301 35.166 -14.5 47.499s-22.5 22.666 -38.5 30.999s-34.167 15.333 -54.5 21s-41.166 11.167 -62.499 16.5c-24 6 -47.5 12.667 -70.5 20s-43.5 16.833 -61.5 28.5s-32.5 26.5 -43.5 44.5s-16.5 40.333 -16.5 67c0 21.333 4.66699 41.666 14 60.999
s22.833 36.333 40.5 51s38.834 26.334 63.501 35.001s52.334 13 83.001 13c42 0 80.667 -7.5 116 -22.5s64.666 -35.833 87.999 -62.5l-43 -35c-20 22.667 -43 40 -69 52s-56.667 18 -92 18c-46 0 -81.5 -10.333 -106.5 -31s-37.5 -46.667 -37.5 -78
c0 -18 4.66699 -33 14 -45s21.666 -22.167 36.999 -30.5s32.833 -15.333 52.5 -21s40.167 -11.167 61.5 -16.5c24 -6 47.833 -12.833 71.5 -20.5s44.667 -17.5 63 -29.5s33.333 -27 45 -45s17.5 -41 17.5 -69c0 -20.667 -4.33301 -41.334 -13 -62.001
s-21.834 -39.334 -39.501 -56.001s-40.167 -30.167 -67.5 -40.5s-59.666 -15.5 -96.999 -15.5zM124.999 815.004h59l81 -114l84 114h59l-118 -155h-48z" />
    <glyph glyph-name="uni0162" unicode="&#x162;" horiz-adv-x="610" 
d="M238 -269l43 204h55l-58 -204h-40zM276 677h-228v53h514v-53h-228v-677h-58v677z" />
    <glyph glyph-name="uni0163" unicode="&#x163;" horiz-adv-x="402" 
d="M36 585h104.001v136l55 36v-172h154v-52h-154v-323c0 -33.333 2.16699 -60.333 6.5 -81s12.166 -36.667 23.499 -48s27 -18.833 47 -22.5s45.667 -5.5 77 -5.5v-53h-9c-40 0 -72.833 3 -98.5 9s-46 16.833 -61 32.5s-25.5 37 -31.5 64s-9 61.5 -9 103.5v324h-104v52z
M170.001 -269l43 204h55l-58 -204h-40z" />
    <glyph glyph-name="Tcaron" unicode="&#x164;" horiz-adv-x="610" 
d="M276 677h-228v53h514v-53h-228v-677h-58v677zM160 950h59l81 -114l84 114h59l-118 -155h-48z" />
    <glyph glyph-name="tcaron" unicode="&#x165;" horiz-adv-x="402" 
d="M36 585h104.001v136l55 36v-172h154v-52h-154v-323c0 -33.333 2.16699 -60.333 6.5 -81s12.166 -36.667 23.499 -48s27 -18.833 47 -22.5s45.667 -5.5 77 -5.5v-53h-9c-40 0 -72.833 3 -98.5 9s-46 16.833 -61 32.5s-25.5 37 -31.5 64s-9 61.5 -9 103.5v324h-104v52z
M319.001 843h55l-63 -172h-41z" />
    <glyph glyph-name="Tbar" unicode="&#x166;" horiz-adv-x="610" 
d="M166 425h110v252h-228v53h514v-53h-228v-252h116v-53h-116v-372h-58v372h-110v53z" />
    <glyph glyph-name="tbar" unicode="&#x167;" horiz-adv-x="402" 
d="M36 585h104.001v136l55 36v-172h154v-52h-154v-193h154v-52h-154v-78c0 -33.333 2.16699 -60.333 6.5 -81s12.166 -36.667 23.499 -48s27 -18.833 47 -22.5s45.667 -5.5 77 -5.5v-53h-9c-40 0 -72.833 3 -98.5 9s-46 16.833 -61 32.5s-25.5 37 -31.5 64s-9 61.5 -9 103.5
v79h-104v52h104v193h-104v52z" />
    <glyph glyph-name="Utilde" unicode="&#x168;" horiz-adv-x="641" 
d="M320 -10c-35.333 0 -68.1689 6.33301 -98.502 19s-56.5 30.167 -78.5 52.5s-39.333 48.666 -52 78.999s-19 62.833 -19 97.5v492h58v-495c0 -26 4.83301 -50.667 14.5 -74s23 -43.5 40 -60.5s37.167 -30.5 60.5 -40.5s48.333 -15 75 -15s51.667 5 75 15
s43.5 23.667 60.5 41s30.5 37.5 40.5 60.5s15 47.833 15 74.5v494h58v-492c0 -34.667 -6.33301 -67.167 -19 -97.5s-30.167 -56.666 -52.5 -78.999s-48.666 -39.833 -78.999 -52.5s-63.166 -19 -98.499 -19zM148.997 795c0 33.333 8.66699 59.667 26 79s39.666 29 66.999 29
c16.667 0 31.834 -3 45.501 -9s27.167 -13 40.5 -21l36.5 -21c11.667 -6.66699 23.5 -10 35.5 -10c15.333 0 27.5 4.66699 36.5 14s13.5 24 13.5 44h46c0 -34 -8.16699 -60.667 -24.5 -80s-39.833 -29 -70.5 -29c-19.333 0 -36.5 3.83301 -51.5 11.5
s-29.167 15.5 -42.5 23.5l-32 18.5c-10 5.66699 -21 8.5 -33 8.5c-13.333 0 -24.333 -4.83301 -33 -14.5s-13 -24.167 -13 -43.5h-47z" />
    <glyph glyph-name="utilde" unicode="&#x169;" horiz-adv-x="707" 
d="M345 -12c-40.667 0 -77.332 6.16895 -109.999 18.502s-60.334 30.166 -83.001 53.499s-40 51.5 -52 84.5s-18 70.5 -18 112.5v328h58v-329c0 -32.667 4.66699 -62.167 14 -88.5s23 -48.833 41 -67.5s40 -33.167 66 -43.5s55.333 -15.5 88 -15.5
c30.667 0 59.167 5.5 85.5 16.5s49.333 26.167 69 45.5s35 42.166 46 68.499s16.5 54.833 16.5 85.5v328h57v-585h-56v119c-19.333 -38.667 -48.333 -70.167 -87 -94.5s-83.667 -36.5 -135 -36.5zM186.002 660.002c0 33.333 8.66699 59.667 26 79s39.666 29 66.999 29
c16.667 0 31.834 -3 45.501 -9s27.167 -13 40.5 -21l36.5 -21c11.667 -6.66699 23.5 -10 35.5 -10c15.333 0 27.5 4.66699 36.5 14s13.5 24 13.5 44h46c0 -34 -8.16699 -60.667 -24.5 -80s-39.833 -29 -70.5 -29c-19.333 0 -36.5 3.83301 -51.5 11.5
s-29.167 15.5 -42.5 23.5l-32 18.5c-10 5.66699 -21 8.5 -33 8.5c-13.333 0 -24.333 -4.83301 -33 -14.5s-13 -24.167 -13 -43.5h-47z" />
    <glyph glyph-name="Umacron" unicode="&#x16a;" horiz-adv-x="641" 
d="M320 -10c-35.333 0 -68.1689 6.33301 -98.502 19s-56.5 30.167 -78.5 52.5s-39.333 48.666 -52 78.999s-19 62.833 -19 97.5v492h58v-495c0 -26 4.83301 -50.667 14.5 -74s23 -43.5 40 -60.5s37.167 -30.5 60.5 -40.5s48.333 -15 75 -15s51.667 5 75 15
s43.5 23.667 60.5 41s30.5 37.5 40.5 60.5s15 47.833 15 74.5v494h58v-492c0 -34.667 -6.33301 -67.167 -19 -97.5s-30.167 -56.666 -52.5 -78.999s-48.666 -39.833 -78.999 -52.5s-63.166 -19 -98.499 -19zM186.997 845h264v-50h-264v50z" />
    <glyph glyph-name="umacron" unicode="&#x16b;" horiz-adv-x="707" 
d="M345 -12c-40.667 0 -77.332 6.16895 -109.999 18.502s-60.334 30.166 -83.001 53.499s-40 51.5 -52 84.5s-18 70.5 -18 112.5v328h58v-329c0 -32.667 4.66699 -62.167 14 -88.5s23 -48.833 41 -67.5s40 -33.167 66 -43.5s55.333 -15.5 88 -15.5
c30.667 0 59.167 5.5 85.5 16.5s49.333 26.167 69 45.5s35 42.166 46 68.499s16.5 54.833 16.5 85.5v328h57v-585h-56v119c-19.333 -38.667 -48.333 -70.167 -87 -94.5s-83.667 -36.5 -135 -36.5zM221.002 714.002h264v-50h-264v50z" />
    <glyph glyph-name="Ubreve" unicode="&#x16c;" horiz-adv-x="641" 
d="M320 -10c-35.333 0 -68.1689 6.33301 -98.502 19s-56.5 30.167 -78.5 52.5s-39.333 48.666 -52 78.999s-19 62.833 -19 97.5v492h58v-495c0 -26 4.83301 -50.667 14.5 -74s23 -43.5 40 -60.5s37.167 -30.5 60.5 -40.5s48.333 -15 75 -15s51.667 5 75 15
s43.5 23.667 60.5 41s30.5 37.5 40.5 60.5s15 47.833 15 74.5v494h58v-492c0 -34.667 -6.33301 -67.167 -19 -97.5s-30.167 -56.666 -52.5 -78.999s-48.666 -39.833 -78.999 -52.5s-63.166 -19 -98.499 -19zM316.997 791c-27.333 0 -51.1689 4.33301 -71.502 13
s-37.166 20.167 -50.499 34.5s-23.166 31 -29.499 50s-9.5 38.833 -9.5 59.5h49c0 -31.333 9.33301 -58 28 -80s46.667 -33 84 -33c36 0 63.5 11 82.5 33s28.5 48.667 28.5 80h51c0 -20.667 -3.66699 -40.5 -11 -59.5s-18 -35.667 -32 -50s-31 -25.833 -51 -34.5
s-42.667 -13 -68 -13z" />
    <glyph glyph-name="ubreve" unicode="&#x16d;" horiz-adv-x="707" 
d="M345 -12c-40.667 0 -77.332 6.16895 -109.999 18.502s-60.334 30.166 -83.001 53.499s-40 51.5 -52 84.5s-18 70.5 -18 112.5v328h58v-329c0 -32.667 4.66699 -62.167 14 -88.5s23 -48.833 41 -67.5s40 -33.167 66 -43.5s55.333 -15.5 88 -15.5
c30.667 0 59.167 5.5 85.5 16.5s49.333 26.167 69 45.5s35 42.166 46 68.499s16.5 54.833 16.5 85.5v328h57v-585h-56v119c-19.333 -38.667 -48.333 -70.167 -87 -94.5s-83.667 -36.5 -135 -36.5zM355.002 643.002c-27.333 0 -51.1689 4.33301 -71.502 13
s-37.166 20.167 -50.499 34.5s-23.166 31 -29.499 50s-9.5 38.833 -9.5 59.5h49c0 -31.333 9.33301 -58 28 -80s46.667 -33 84 -33c36 0 63.5 11 82.5 33s28.5 48.667 28.5 80h51c0 -20.667 -3.66699 -40.5 -11 -59.5s-18 -35.667 -32 -50s-31 -25.833 -51 -34.5
s-42.667 -13 -68 -13z" />
    <glyph glyph-name="Uring" unicode="&#x16e;" horiz-adv-x="641" 
d="M315 791c-27.333 0 -50.5 9.5 -69.5 28.5s-28.5 42.5 -28.5 70.5s9.5 51.667 28.5 71s42.167 29 69.5 29c28.667 0 52.667 -9.66699 72 -29s29 -43 29 -71s-9.66699 -51.5 -29 -70.5s-43.333 -28.5 -72 -28.5zM315 836c15.333 0 28.5 5.16699 39.5 15.5
s16.5 23.166 16.5 38.499s-5.5 28.333 -16.5 39s-24.167 16 -39.5 16c-14.667 0 -27.334 -5.33301 -38.001 -16s-16 -23.667 -16 -39s5.33301 -28.166 16 -38.499s23.334 -15.5 38.001 -15.5zM320 -10c-35.333 0 -68.1689 6.33301 -98.502 19s-56.5 30.167 -78.5 52.5
s-39.333 48.666 -52 78.999s-19 62.833 -19 97.5v492h58v-495c0 -26 4.83301 -50.667 14.5 -74s23 -43.5 40 -60.5s37.167 -30.5 60.5 -40.5s48.333 -15 75 -15s51.667 5 75 15s43.5 23.667 60.5 41s30.5 37.5 40.5 60.5s15 47.833 15 74.5v494h58v-492
c0 -34.667 -6.33301 -67.167 -19 -97.5s-30.167 -56.666 -52.5 -78.999s-48.666 -39.833 -78.999 -52.5s-63.166 -19 -98.499 -19z" />
    <glyph glyph-name="uring" unicode="&#x16f;" horiz-adv-x="707" 
d="M345 -12c-40.667 0 -77.332 6.16895 -109.999 18.502s-60.334 30.166 -83.001 53.499s-40 51.5 -52 84.5s-18 70.5 -18 112.5v328h58v-329c0 -32.667 4.66699 -62.167 14 -88.5s23 -48.833 41 -67.5s40 -33.167 66 -43.5s55.333 -15.5 88 -15.5
c30.667 0 59.167 5.5 85.5 16.5s49.333 26.167 69 45.5s35 42.166 46 68.499s16.5 54.833 16.5 85.5v328h57v-585h-56v119c-19.333 -38.667 -48.333 -70.167 -87 -94.5s-83.667 -36.5 -135 -36.5zM351.002 617.002c-27.333 0 -50.5 9.5 -69.5 28.5s-28.5 42.5 -28.5 70.5
s9.5 51.667 28.5 71s42.167 29 69.5 29c28.667 0 52.667 -9.66699 72 -29s29 -43 29 -71s-9.66699 -51.5 -29 -70.5s-43.333 -28.5 -72 -28.5zM351.002 662.002c15.333 0 28.5 5.16699 39.5 15.5s16.5 23.166 16.5 38.499s-5.5 28.333 -16.5 39s-24.167 16 -39.5 16
c-14.667 0 -27.334 -5.33301 -38.001 -16s-16 -23.667 -16 -39s5.33301 -28.166 16 -38.499s23.334 -15.5 38.001 -15.5z" />
    <glyph glyph-name="Uhungarumlaut" unicode="&#x170;" horiz-adv-x="641" 
d="M320 -10c-35.333 0 -68.1689 6.33301 -98.502 19s-56.5 30.167 -78.5 52.5s-39.333 48.666 -52 78.999s-19 62.833 -19 97.5v492h58v-495c0 -26 4.83301 -50.667 14.5 -74s23 -43.5 40 -60.5s37.167 -30.5 60.5 -40.5s48.333 -15 75 -15s51.667 5 75 15
s43.5 23.667 60.5 41s30.5 37.5 40.5 60.5s15 47.833 15 74.5v494h58v-492c0 -34.667 -6.33301 -67.167 -19 -97.5s-30.167 -56.666 -52.5 -78.999s-48.666 -39.833 -78.999 -52.5s-63.166 -19 -98.499 -19zM335.997 950h71l-140 -155h-50zM457.997 950h71l-140 -155h-51z
" />
    <glyph glyph-name="uhungarumlaut" unicode="&#x171;" horiz-adv-x="707" 
d="M345 -12c-40.667 0 -77.332 6.16895 -109.999 18.502s-60.334 30.166 -83.001 53.499s-40 51.5 -52 84.5s-18 70.5 -18 112.5v328h58v-329c0 -32.667 4.66699 -62.167 14 -88.5s23 -48.833 41 -67.5s40 -33.167 66 -43.5s55.333 -15.5 88 -15.5
c30.667 0 59.167 5.5 85.5 16.5s49.333 26.167 69 45.5s35 42.166 46 68.499s16.5 54.833 16.5 85.5v328h57v-585h-56v119c-19.333 -38.667 -48.333 -70.167 -87 -94.5s-83.667 -36.5 -135 -36.5zM487.002 804.002h71l-140 -155h-51zM365.002 804.002h71l-140 -155h-50z" />
    <glyph glyph-name="Uogonek" unicode="&#x172;" horiz-adv-x="641" 
d="M322 -210c-38.667 0 -69.832 8.99902 -93.499 26.999s-35.5 40.667 -35.5 68c0 19.333 5.83301 37.833 17.5 55.5s32.167 35.834 61.5 54.501c-29.333 5.33301 -56.166 15.166 -80.499 29.499s-45.333 32.166 -63 53.499s-31.5 45.666 -41.5 72.999s-15 56.333 -15 87
v492h58v-495c0 -26 4.83301 -50.667 14.5 -74s23 -43.5 40 -60.5s37.167 -30.5 60.5 -40.5s48.333 -15 75 -15s51.667 5 75 15s43.5 23.667 60.5 41s30.5 37.5 40.5 60.5s15 47.833 15 74.5v494h58v-492c0 -30.667 -5 -59.834 -15 -87.501s-24 -52.167 -42 -73.5
s-39.5 -39.166 -64.5 -53.499s-52.5 -24.166 -82.5 -29.499c-22 -12 -40.333 -22.833 -55 -32.5s-26.334 -18.667 -35.001 -27s-14.834 -16.166 -18.501 -23.499s-5.5 -15 -5.5 -23c0 -16 6.66699 -28.5 20 -37.5s30.333 -13.5 51 -13.5c18.667 0 34.667 3.83301 48 11.5
s26 16.834 38 27.501l45 -31c-16 -14.667 -35.5 -27.5 -58.5 -38.5s-47.167 -16.5 -72.5 -16.5z" />
    <glyph glyph-name="uogonek" unicode="&#x173;" horiz-adv-x="707" 
d="M600 -218c-38.667 0 -67.165 10.002 -85.498 30.002s-27.5 43.667 -27.5 71c0 23.333 7.5 46 22.5 68s34.167 42.667 57.5 62v106c-19.333 -38.667 -48.333 -70.167 -87 -94.5s-83.667 -36.5 -135 -36.5c-40.667 0 -77.334 6.16699 -110.001 18.5
s-60.334 30.166 -83.001 53.499s-40 51.5 -52 84.5s-18 70.5 -18 112.5v328h58v-329c0 -32.667 4.66699 -62.167 14 -88.5s23 -48.833 41 -67.5s40 -33.167 66 -43.5s55.333 -15.5 88 -15.5c30.667 0 59.167 5.5 85.5 16.5s49.333 26.167 69 45.5s35 42.166 46 68.499
s16.5 54.833 16.5 85.5v328h57v-585c-26.667 -21.333 -47 -41.5 -61 -60.5s-21 -37.167 -21 -54.5c0 -16 5.33301 -29 16 -39s25 -15 43 -15c16 0 29.5 3 40.5 9s21.833 13.667 32.5 23l33 -40c-14 -11.333 -30.167 -21 -48.5 -29s-37.5 -12 -57.5 -12z" />
    <glyph glyph-name="Wcircumflex" unicode="&#x174;" horiz-adv-x="1072" 
d="M42 730h61l186 -641l218 641h55l216 -641l193 641h60l-223 -730h-59l-216 640l-217 -640h-59zM508 950h49l119 -155h-61l-83 110l-83 -110h-60z" />
    <glyph glyph-name="wcircumflex" unicode="&#x175;" horiz-adv-x="979" 
d="M47 585h61l159 -501l199 501h49l193 -503l164 503h60l-194 -585h-54l-195 502l-200 -502h-54zM465 803h49l119 -155h-61l-83 110l-83 -110h-60z" />
    <glyph glyph-name="Ycircumflex" unicode="&#x176;" horiz-adv-x="612" 
d="M278 347l-245 383h65l208 -328l208 328h65l-243 -381v-349h-58v347zM280 950h49l119 -155h-61l-83 110l-83 -110h-60z" />
    <glyph glyph-name="ycircumflex" unicode="&#x177;" horiz-adv-x="654" 
d="M305 33l-262 552h64l229 -487l214 487h62l-382 -855h-62zM307 806h49l119 -155h-61l-83 110l-83 -110h-60z" />
    <glyph glyph-name="Ydieresis" unicode="&#x178;" horiz-adv-x="612" 
d="M278 347l-245 383h65l208 -328l208 328h65l-243 -381v-349h-58v347zM346 880c0 12.667 4.16699 23 12.5 31s18.833 12 31.5 12c13.333 0 23.833 -4 31.5 -12s11.5 -18.333 11.5 -31s-3.83301 -23.167 -11.5 -31.5s-18.167 -12.5 -31.5 -12.5s-24 4.16699 -32 12.5
s-12 18.833 -12 31.5zM178 880c0 12.667 4.16699 23 12.5 31s18.833 12 31.5 12c13.333 0 23.833 -4 31.5 -12s11.5 -18.333 11.5 -31s-3.83301 -23.167 -11.5 -31.5s-18.167 -12.5 -31.5 -12.5s-24 4.16699 -32 12.5s-12 18.833 -12 31.5z" />
    <glyph glyph-name="Zacute" unicode="&#x179;" horiz-adv-x="600" 
d="M58 53l415 622h-399v55h467v-53l-415 -622h417v-55h-485v53zM386 950h75l-140 -155h-54z" />
    <glyph glyph-name="zacute" unicode="&#x17a;" horiz-adv-x="628" 
d="M57 54l439 479h-424v52h495v-54l-437 -478h441v-53h-514v54zM402 807h75l-140 -155h-54z" />
    <glyph glyph-name="Zdotaccent" unicode="&#x17b;" horiz-adv-x="600" 
d="M58 53l415 622h-399v55h467v-53l-415 -622h417v-55h-485v53zM256 880c0 14 4.66699 25.5 14 34.5s21 13.5 35 13.5c15.333 0 27.333 -4.5 36 -13.5s13 -20.5 13 -34.5s-4.33301 -25.667 -13 -35s-20.667 -14 -36 -14s-27.333 4.66699 -36 14s-13 21 -13 35z" />
    <glyph glyph-name="zdotaccent" unicode="&#x17c;" horiz-adv-x="628" 
d="M57 54l439 479h-424v52h495v-54l-437 -478h441v-53h-514v54zM274 698c0 14 4.66699 25.5 14 34.5s21 13.5 35 13.5c15.333 0 27.333 -4.5 36 -13.5s13 -20.5 13 -34.5s-4.33301 -25.667 -13 -35s-20.667 -14 -36 -14s-27.333 4.66699 -36 14s-13 21 -13 35z" />
    <glyph glyph-name="Zcaron" unicode="&#x17d;" horiz-adv-x="600" 
d="M58 53l415 622h-399v55h467v-53l-415 -622h417v-55h-485v53zM162 950h59l81 -114l84 114h59l-118 -155h-48z" />
    <glyph glyph-name="zcaron" unicode="&#x17e;" horiz-adv-x="628" 
d="M57 54l439 479h-424v52h495v-54l-437 -478h441v-53h-514v54zM180 806h59l81 -114l84 114h59l-118 -155h-48z" />
    <glyph glyph-name="florin" unicode="&#x192;" horiz-adv-x="588" 
d="M122 403l158.999 0.000976562l43 141c10.667 36 22.167 65.833 34.5 89.5s26.333 42.667 42 57s33.334 24.5 53.001 30.5s42.167 9 67.5 9h4v-52c-18.667 0 -35.167 -2.16699 -49.5 -6.5s-27 -11.666 -38 -21.999s-21 -24.5 -30 -42.5s-17.5 -41 -25.5 -69l-41 -135h148
v-51h-164l-50 -166c-10.667 -35.333 -21.5 -64.833 -32.5 -88.5s-24.333 -42.834 -40 -57.501s-34.167 -25 -55.5 -31s-47.666 -9 -78.999 -9h-5v53c23.333 0 43 2.16699 59 6.5s29.667 11.666 41 21.999s21.166 24.5 29.499 42.5s16.5 40.667 24.5 68l48 160h-143v51z" />
    <glyph glyph-name="Ohorn" unicode="&#x1a0;" horiz-adv-x="855" 
d="M428 45c44.667 0 86.167 8.5 124.5 25.5s71.666 40 99.999 69s50.5 62.833 66.5 101.5s24 80 24 124s-8 85.5 -24 124.5s-38.167 73 -66.5 102s-61.666 51.833 -99.999 68.5s-79.833 25 -124.5 25s-86.167 -8.33301 -124.5 -25s-71.666 -39.5 -99.999 -68.5
s-50.666 -63 -66.999 -102s-24.5 -80.5 -24.5 -124.5s8.16699 -85.333 24.5 -124s38.666 -72.5 66.999 -101.5s61.666 -52 99.999 -69s79.833 -25.5 124.5 -25.5zM625 684c24.667 -15.333 47.333 -33.332 68 -53.999c34 -34 60.833 -73.667 80.5 -119s29.5 -94 29.5 -146
s-9.83301 -100.667 -29.5 -146s-46.5 -85 -80.5 -119s-73.667 -60.833 -119 -80.5s-94 -29.5 -146 -29.5s-100.667 9.83301 -146 29.5s-85 46.5 -119 80.5s-60.833 73.667 -80.5 119s-29.5 94 -29.5 146s9.83301 100.667 29.5 146s46.5 85 80.5 119s73.667 60.833 119 80.5
s94 29.5 146 29.5c40 0 78.333 -6 115 -18c32 -0.666992 55.333 7.66602 70 24.999c10 12 14 34.667 12 68h63c0 -55.333 -13 -94 -39 -116c-6.66699 -6 -14.667 -11 -24 -15z" />
    <glyph glyph-name="ohorn" unicode="&#x1a1;" horiz-adv-x="726" 
d="M363 41c34 0 66 6.5 96 19.5s56 30.833 78 53.5s39.333 49.334 52 80.001s19 63.334 19 98.001c0 35.333 -6.33301 68.166 -19 98.499s-30 57 -52 80s-48 41 -78 54s-62 19.5 -96 19.5c-34.667 0 -67 -6.5 -97 -19.5s-56 -31 -78 -54s-39.333 -49.667 -52 -80
s-19 -63.166 -19 -98.499c0 -34.667 6.33301 -67.334 19 -98.001s30 -57.334 52 -80.001s48 -40.5 78 -53.5s62.333 -19.5 97 -19.5zM551 533l27.002 -24.001c27.333 -28 49 -60.5 65 -97.5s24 -76.833 24 -119.5s-8 -82.5 -24 -119.5s-37.667 -69.167 -65 -96.5
s-59.5 -48.833 -96.5 -64.5s-76.5 -23.5 -118.5 -23.5s-81.5 7.83301 -118.5 23.5s-69.333 37.167 -97 64.5s-49.334 59.5 -65.001 96.5s-23.5 76.833 -23.5 119.5s7.83301 82.5 23.5 119.5s37.334 69.333 65.001 97s60 49.334 97 65.001s76.5 23.5 118.5 23.5
c41.333 0 80.333 -7.66699 117 -23c33.333 -2 57.666 7.33301 72.999 28c10 12 14 34.667 12 68h63c0 -55.333 -13 -94 -39 -116c-10.667 -8.66699 -23.334 -15.667 -38.001 -21z" />
    <glyph glyph-name="Uhorn" unicode="&#x1af;" horiz-adv-x="641" 
d="M569 677l-0.00390625 -439c0 -34.667 -6.33301 -67.167 -19 -97.5s-30.167 -56.666 -52.5 -78.999s-48.666 -39.833 -78.999 -52.5s-63.166 -19 -98.499 -19s-68.166 6.33301 -98.499 19s-56.5 30.167 -78.5 52.5s-39.333 48.666 -52 78.999s-19 62.833 -19 97.5v492h58
v-495c0 -26 4.83301 -50.667 14.5 -74s23 -43.5 40 -60.5s37.167 -30.5 60.5 -40.5s48.333 -15 75 -15s51.667 5 75 15s43.5 23.667 60.5 41s30.5 37.5 40.5 60.5s15 47.833 15 74.5v494h32c12.667 2 22.334 7.66699 29.001 17c10 12 14 34.667 12 68h63
c0 -55.333 -13 -94 -39 -116c-10.667 -8.66699 -23.667 -16 -39 -22z" />
    <glyph glyph-name="uhorn" unicode="&#x1b0;" horiz-adv-x="707" 
d="M623 526l0.00195312 -525.998h-56v119c-19.333 -38.667 -48.333 -70.167 -87 -94.5s-83.667 -36.5 -135 -36.5c-40.667 0 -77.334 6.16699 -110.001 18.5s-60.334 30.166 -83.001 53.499s-40 51.5 -52 84.5s-18 70.5 -18 112.5v328h58v-329
c0 -32.667 4.66699 -62.167 14 -88.5s23 -48.833 41 -67.5s40 -33.167 66 -43.5s55.333 -15.5 88 -15.5c30.667 0 59.167 5.5 85.5 16.5s49.333 26.167 69 45.5s35 42.166 46 68.499s16.5 54.833 16.5 85.5v328h40c22 -1.33301 38 4.66699 48 18c10 12 14 34.667 12 68h63
c0 -55.333 -13 -94 -39 -116c-16.667 -14 -39 -23.667 -67 -29z" />
    <glyph glyph-name="Aringacute" unicode="&#x1fa;" horiz-adv-x="698" 
d="M305 697c-17.333 7.33301 -31.5 19.332 -42.5 35.999s-16.5 35.334 -16.5 56.001c0 28 9.5 51.667 28.5 71s42.167 29 69.5 29c28.667 0 52.667 -9.66699 72 -29s29 -43 29 -71c0 -19.333 -5 -36.833 -15 -52.5s-23 -27.5 -39 -35.5l270 -701h-61l-79 204h-345l-78 -204
h-61zM197 258.999h303l-151 394zM434 1076h75l-140 -155h-54zM344 734.999c15.333 0 28.5 5.16699 39.5 15.5s16.5 23.166 16.5 38.499s-5.5 28.333 -16.5 39s-24.167 16 -39.5 16c-14.667 0 -27.334 -5.33301 -38.001 -16s-16 -23.667 -16 -39s5.33301 -28.166 16 -38.499
s23.334 -15.5 38.001 -15.5z" />
    <glyph glyph-name="aringacute" unicode="&#x1fb;" horiz-adv-x="747" 
d="M361 -12c-42.667 0 -82.501 7.99707 -119.501 23.9971s-69 37.833 -96 65.5s-48.167 59.834 -63.5 96.501s-23 76 -23 118c0 35.333 5.5 69 16.5 101s26.333 61 46 87s43.334 48.167 71.001 66.5s57.834 31.833 90.501 40.5c-15.333 17.333 -23 38.666 -23 63.999
c0 28 9.5 51.667 28.5 71s42.167 29 69.5 29c28.667 0 52.667 -9.66699 72 -29s29 -43 29 -71c0 -24 -8 -45.667 -24 -65c36 -9.33301 69.167 -25.5 99.5 -48.5s54.166 -52.167 71.499 -87.5v135h56v-585h-56v134c-11.333 -23.333 -26 -44.166 -44 -62.499
s-37.833 -33.666 -59.5 -45.999s-44.667 -21.666 -69 -27.999s-48.5 -9.5 -72.5 -9.5zM362.999 40.9971c35.333 0 68 6.49707 98 19.4971s56.333 30.833 79 53.5s40.334 49.334 53.001 80.001s19 63.334 19 98.001s-6.33301 67.334 -19 98.001
s-30.334 57.334 -53.001 80.001s-49 40.667 -79 54s-62.667 20 -98 20c-34 0 -66 -6.5 -96 -19.5s-56.167 -31 -78.5 -54s-39.833 -49.667 -52.5 -80s-19 -63.166 -19 -98.499c0 -34.667 6.33301 -67.334 19 -98.001s30.167 -57.334 52.5 -80.001s48.5 -40.5 78.5 -53.5
s62 -19.5 96 -19.5zM445.999 940.994h75l-140 -155h-54zM361.999 596.994c14.667 1.33301 27 6.99902 37 16.999s15 22.333 15 37c0 15.333 -5.5 28.333 -16.5 39s-24.167 16 -39.5 16c-14.667 0 -27.334 -5.33301 -38.001 -16s-16 -23.667 -16 -39
s5.33301 -28.166 16 -38.499s23.334 -15.5 38.001 -15.5h4z" />
    <glyph glyph-name="AEacute" unicode="&#x1fc;" horiz-adv-x="1037" 
d="M401 730h561v-55h-485l63 -282h422v-54h-410l63 -284h347v-55h-393l-45 199h-327l-100 -199h-66zM224 252h288l-88 395zM691 950h75l-140 -155h-54z" />
    <glyph glyph-name="aeacute" unicode="&#x1fd;" horiz-adv-x="1147" 
d="M789 -12c-60.667 0 -114.162 13.332 -160.495 39.999s-82.166 62.334 -107.499 107.001c-9.33301 -17.333 -22 -34.833 -38 -52.5s-34.833 -33.5 -56.5 -47.5s-46.334 -25.333 -74.001 -34s-57.834 -13 -90.501 -13c-36.667 0 -67.667 4.16699 -93 12.5
s-46 19.666 -62 33.999s-27.833 31 -35.5 50s-11.5 39.167 -11.5 60.5c-0.666992 28.667 4.83301 53 16.5 73s27.5 36.833 47.5 50.5s43.5 24.834 70.5 33.501s55.5 16 85.5 22c26.667 6 52.834 11.5 78.501 16.5s48.5 11.333 68.5 19s36 17.334 48 29.001s18 26.5 18 44.5
c0 34 -14.5 62 -43.5 84s-73.167 33 -132.5 33c-60.667 0 -107.834 -14.667 -141.501 -44s-50.5 -67.333 -50.5 -114v-4h-54v2c0 31.333 5.83301 59.666 17.5 84.999s28.167 47 49.5 65s47 32 77 42s63.667 15 101 15c62.667 0 112.667 -11 150 -33s61.666 -52 72.999 -90
c27.333 38 62.166 68 104.499 90s89.5 33 141.5 33c42.667 0 82.334 -7.33301 119.001 -22s68.5 -35.334 95.5 -62.001s48.167 -58.334 63.5 -95.001s23 -76.667 23 -120v-20h-549c1.33301 -34 8.66602 -65.5 21.999 -94.5s31.166 -54.167 53.499 -75.5
s48.666 -38 78.999 -50s62.833 -18 97.5 -18c58.667 0 108.5 15.667 149.5 47s69.167 72 84.5 122l52 -23c-10 -30 -24 -57.167 -42 -81.5s-39.333 -45.166 -64 -62.499s-52 -30.666 -82 -39.999s-62.667 -14 -98 -14zM785.005 544.999c-32 0 -62 -5.5 -90 -16.5
s-52.667 -26.167 -74 -45.5s-39 -42 -53 -68s-23.333 -54.333 -28 -85h486c-3.33301 32 -11.5 61.167 -24.5 87.5s-30 49 -51 68s-45.5 33.667 -73.5 44s-58.667 15.5 -92 15.5zM264.005 36.999c31.333 0 59.666 4.83301 84.999 14.5s47.666 22 66.999 37
s35.666 31.5 48.999 49.5s23.666 35.333 30.999 52c-10 31.333 -15 64.666 -15 99.999c0 9.33301 0.333008 18.333 1 27s1.66699 17.334 3 26.001c-13.333 -16.667 -35.166 -29 -65.499 -37s-69.5 -16.667 -117.5 -26c-26.667 -4.66699 -51.167 -10.167 -73.5 -16.5
s-41.666 -14.5 -57.999 -24.5s-29.166 -22.5 -38.499 -37.5s-14 -33.5 -14 -55.5c0 -14.667 2.66699 -28.667 8 -42s13.833 -25 25.5 -35s26.834 -17.833 45.501 -23.5s41 -8.5 67 -8.5zM645.005 797.999h75l-140 -155h-54z" />
    </font>
</defs>
</svg>
