<svg xmlns="http://www.w3.org/2000/svg" width="288.848" height="186.809" viewBox="0 0 288.848 186.809">
  <g id="Group_5" data-name="Group 5" transform="translate(-0.456 -0.607)">
    <path id="Path_4" data-name="Path 4" d="M145.351,187.416A225.175,225.175,0,0,1,55.923,168.3a9.385,9.385,0,0,1-4.088-3.417,9.054,9.054,0,0,1-1.512-5.041V84.79a9.173,9.173,0,0,1,2.786-6.555,9.634,9.634,0,0,1,6.716-2.719h171.05a9.633,9.633,0,0,1,6.716,2.719,9.172,9.172,0,0,1,2.787,6.555v75.053a9.062,9.062,0,0,1-1.512,5.041,9.392,9.392,0,0,1-4.088,3.417A225.176,225.176,0,0,1,145.351,187.416Z" fill="#a0a5aa"/>
    <path id="Path_5" data-name="Path 5" d="M145.787,126.379a9.662,9.662,0,0,1-3.7-.731L6.272,69.28a9.478,9.478,0,0,1-4.278-3.521,9.233,9.233,0,0,1,.2-10.49A9.494,9.494,0,0,1,6.6,51.9L142.415,1.219a9.627,9.627,0,0,1,6.79.014l134,50.686a9.5,9.5,0,0,1,4.378,3.366,9.235,9.235,0,0,1,.2,10.454,9.477,9.477,0,0,1-4.249,3.523l-134,56.368A9.678,9.678,0,0,1,145.787,126.379Z" fill="#a0a5aa"/>
    <path id="Path_6" data-name="Path 6" d="M65.847,172.619c7.015,0,12.7-5.383,12.7-12.022s-5.687-12.023-12.7-12.023-12.7,5.383-12.7,12.023S58.832,172.619,65.847,172.619Z" fill="#38608f"/>
    <path id="Path_7" data-name="Path 7" d="M284.164,61.4,150.058,117.442a8.643,8.643,0,0,1-6.618.015L7.516,61.421a8.248,8.248,0,0,1-4.047-3.476,8.1,8.1,0,0,0-.689,6.766A8.229,8.229,0,0,0,4.6,67.7a8.463,8.463,0,0,0,2.917,1.993L143.44,125.729a8.649,8.649,0,0,0,6.618-.016L284.164,69.676a8.461,8.461,0,0,0,2.9-2,8.227,8.227,0,0,0,1.805-2.985,8.1,8.1,0,0,0-.7-6.747A8.253,8.253,0,0,1,284.164,61.4Z" opacity="0.2"/>
    <path id="Path_8" data-name="Path 8" d="M68.409,160.6a2.1,2.1,0,0,0,1.479-.609,2.074,2.074,0,0,0,.612-1.471V88.937l68.965-24.984a2.1,2.1,0,0,0,1.488-.587A2.073,2.073,0,0,0,141,60.425a2.1,2.1,0,0,0-1.47-.631L70.562,84.779a4.157,4.157,0,0,0-4.244,4.159v69.58a2.07,2.07,0,0,0,.612,1.47A2.1,2.1,0,0,0,68.409,160.6Z" fill="#38608f"/>
  </g>
</svg>
