<svg width="60" height="60" viewBox="0 0 60 60" fill="none" xmlns="http://www.w3.org/2000/svg">
<path d="M30 60.0039C35.9334 60.0039 41.7336 58.2445 46.6671 54.948C51.6006 51.6516 55.4458 46.9662 57.7164 41.4844C59.987 36.0026 60.5811 29.9706 59.4236 24.1512C58.266 18.3318 55.4088 12.9863 51.2132 8.79072C47.0176 4.59514 41.6721 1.73792 35.8527 0.580361C30.0333 -0.577195 24.0013 0.0169048 18.5195 2.28753C13.0377 4.55816 8.35235 8.40334 5.05591 13.3368C1.75947 18.2703 0 24.0705 0 30.0039C0 37.9604 3.16071 45.591 8.7868 51.2171C14.4129 56.8432 22.0435 60.0039 30 60.0039Z" fill="#FFD726"/>
<path d="M28.151 56.302C33.7188 56.302 39.1616 54.6509 43.7911 51.5576C48.4205 48.4642 52.0287 44.0675 54.1593 38.9235C56.2899 33.7794 56.8473 28.1191 55.7609 22.6583C54.6746 17.1975 51.9932 12.1815 48.0561 8.24454C44.1189 4.30763 39.1027 1.62667 33.6418 0.540682C28.1809 -0.545304 22.5206 0.0124648 17.3767 2.14345C12.2328 4.27444 7.83636 7.88294 4.74333 12.5126C1.6503 17.1423 -0.000395498 22.5852 7.10783e-08 28.153C0.000530479 35.6188 2.96666 42.7786 8.24594 48.0575C13.5252 53.3364 20.6852 56.302 28.151 56.302Z" fill="url(#paint0_linear_8_3)"/>
<path d="M17.6424 33.4719L34.1684 33.4719L29.9574 37.6829C26.7194 40.9209 31.7634 45.9279 35.0094 42.6829L45.2744 32.4169C45.9285 31.7425 46.2921 30.8385 46.2871 29.8989C46.282 28.9594 45.9087 28.0593 45.2474 27.3919L34.9824 17.1279C31.7444 13.8899 26.7384 18.9339 29.9824 22.1799L34.1674 26.3649H17.6934C13.1054 26.3649 13.0644 33.4719 17.6424 33.4719Z" fill="white"/>
<defs>
<linearGradient id="paint0_linear_8_3" x1="28.151" y1="0" x2="28.151" y2="56.302" gradientUnits="userSpaceOnUse">
<stop stop-color="#FAE74E"/>
<stop offset="1" stop-color="#EDB042"/>
</linearGradient>
</defs>
</svg>
