<svg width="60" height="60" viewBox="0 0 60 60" fill="none" xmlns="http://www.w3.org/2000/svg">
<path d="M30 60.0039C35.9334 60.0039 41.7336 58.2445 46.6671 54.948C51.6006 51.6516 55.4458 46.9662 57.7164 41.4844C59.987 36.0026 60.5811 29.9706 59.4236 24.1512C58.266 18.3318 55.4088 12.9863 51.2132 8.79072C47.0176 4.59514 41.6721 1.73792 35.8527 0.580361C30.0333 -0.577195 24.0013 0.0169048 18.5195 2.28753C13.0377 4.55816 8.35235 8.40334 5.05591 13.3368C1.75947 18.2703 0 24.0705 0 30.0039C0 37.9604 3.16071 45.591 8.7868 51.2171C14.4129 56.8432 22.0435 60.0039 30 60.0039Z" fill="#FFD726"/>
<path d="M28.151 56.302C33.7188 56.302 39.1616 54.6509 43.7911 51.5576C48.4205 48.4642 52.0287 44.0675 54.1593 38.9235C56.2899 33.7794 56.8473 28.1191 55.7609 22.6583C54.6746 17.1975 51.9932 12.1815 48.0561 8.24454C44.1189 4.30763 39.1027 1.62667 33.6418 0.540682C28.1809 -0.545304 22.5206 0.0124648 17.3767 2.14345C12.2328 4.27444 7.83636 7.88294 4.74333 12.5126C1.6503 17.1423 -0.000395498 22.5852 7.10783e-08 28.153C0.000530479 35.6188 2.96666 42.7786 8.24594 48.0575C13.5252 53.3364 20.6852 56.302 28.151 56.302Z" fill="url(#paint0_linear_8_18)"/>
<path d="M42.8752 26.3484L26.3492 26.3484L30.5602 22.1374C33.7982 18.8994 28.7542 13.8924 25.5082 17.1374L15.2432 27.4034C14.5891 28.0778 14.2255 28.9819 14.2305 29.9214C14.2356 30.8609 14.6088 31.761 15.2702 32.4284L25.5352 42.6924C28.7732 45.9304 33.7792 40.8864 30.5352 37.6404L26.3502 33.4554L42.8242 33.4554C47.4122 33.4554 47.4532 26.3484 42.8752 26.3484Z" fill="white"/>
<defs>
<linearGradient id="paint0_linear_8_18" x1="28.151" y1="0" x2="28.151" y2="56.302" gradientUnits="userSpaceOnUse">
<stop stop-color="#FAE74E"/>
<stop offset="1" stop-color="#EDB042"/>
</linearGradient>
</defs>
</svg>
