<svg xmlns="http://www.w3.org/2000/svg" width="250" height="250" viewBox="0 0 250 250" fill="none"><rect width="250" height="250" rx="125" fill="white"></rect><path d="M24 88.2317H34.3441L38.5085 115.463L42.7179 88.2317H51.9424L51.8976 169H45.7628V109.754L38.5085 156.657L31.299 109.754V169H25.1195V90.5455L24 88.2317ZM53.4202 88.1538H60.5849L65.5554 122.406L70.4812 88.1538H76.8399L68.69 144.312L68.6005 145.006V168.997H62.4657V144.929L62.3761 144.312L54.5845 90.5456L53.4202 88.1538ZM84.0941 100.265H77.4219V88H96.9462V100.265H88.4381L90.2741 102.58V168.844H84.0946L84.0941 100.265ZM105.678 88.0009V122.253H112.887V88.0009H119.022V168.769H112.887V134.442H103.842L105.678 136.834V168.771H99.4982V90.3172L98.3788 88.003L105.678 88.0009ZM127.844 156.811H135.098V100.421H126.052L127.844 102.813V156.811ZM141.232 95.8685V161.363C141.232 165.683 139.307 169 136.799 169H126.141C123.634 169 121.708 165.683 121.708 161.363V95.8685C121.708 91.78 123.634 88.2314 126.141 88.2314H136.799C139.306 88.2314 141.232 91.7798 141.232 95.8685ZM162.995 95.8685V112.531H156.86V100.343H147.815L149.606 102.734V112.531L162.995 140.842V153.03V161.361C162.995 165.45 161.069 168.999 158.562 168.999H147.904C145.397 168.999 143.471 165.45 143.471 161.361V144.159H149.606V156.81H156.86V144.622L143.471 116.311V95.8682C143.471 91.5483 145.396 88.231 147.904 88.231H158.562C161.069 88.231 162.995 91.5484 162.995 95.8685ZM165.234 90.6234L164.115 88.232H181.713V100.42H169.578L171.414 102.812V122.483H178.668V134.748H169.578L171.414 137.062V156.811H181.713V168.999H165.234V156.811V134.748V122.483L165.234 90.6234ZM190.401 156.811H197.61V100.421H188.565L190.401 102.813V156.811ZM203.79 95.8685V161.363C203.79 165.683 201.82 169 199.312 169H184.221V156.812V90.6249L183.102 88.2335H199.312C201.775 88.2335 203.79 91.7798 203.79 95.8685ZM212.611 156.811H219.821V88.1541H226V161.285C226 165.605 223.94 168.922 221.567 168.922L210.909 169C208.402 169 206.476 165.605 206.476 161.285V90.5459H206.431L205.312 88.1545H212.611L212.611 156.811Z" fill="#357AA0"></path></svg>