<svg xmlns="http://www.w3.org/2000/svg" width="306" height="58" viewBox="0 0 306 58" fill="none"><path d="M4.72 8.33911H1.68094V7.11255H4.72C5.30854 7.11255 5.78511 7.0188 6.14969 6.8313C6.51427 6.6438 6.7799 6.38338 6.94656 6.05005C7.11844 5.71672 7.20438 5.33651 7.20438 4.90942C7.20438 4.5188 7.11844 4.15161 6.94656 3.80786C6.7799 3.46411 6.51427 3.18807 6.14969 2.97974C5.78511 2.76619 5.30854 2.65942 4.72 2.65942H2.0325V12.8H0.524689V1.42505H4.72C5.57938 1.42505 6.30594 1.57349 6.89969 1.87036C7.49344 2.16724 7.94396 2.57869 8.25125 3.10474C8.55854 3.62557 8.71219 4.22192 8.71219 4.8938C8.71219 5.62297 8.55854 6.24536 8.25125 6.76099C7.94396 7.27661 7.49344 7.66984 6.89969 7.94067C6.30594 8.2063 5.57938 8.33911 4.72 8.33911ZM15.5716 10.8469V4.34692H17.0247V12.8H15.6419L15.5716 10.8469ZM15.845 9.06567L16.4466 9.05005C16.4466 9.61255 16.3867 10.1334 16.2669 10.6125C16.1523 11.0865 15.9648 11.498 15.7044 11.8469C15.444 12.1959 15.1028 12.4693 14.6809 12.6672C14.2591 12.8599 13.746 12.9563 13.1419 12.9563C12.7304 12.9563 12.3528 12.8964 12.0091 12.7766C11.6705 12.6568 11.3789 12.4719 11.1341 12.2219C10.8893 11.9719 10.6992 11.6464 10.5638 11.2454C10.4335 10.8443 10.3684 10.3625 10.3684 9.80005V4.34692H11.8138V9.81567C11.8138 10.1959 11.8554 10.511 11.9388 10.761C12.0273 11.0058 12.1445 11.2011 12.2903 11.3469C12.4414 11.4875 12.608 11.5865 12.7903 11.6438C12.9778 11.7011 13.1705 11.7297 13.3684 11.7297C13.983 11.7297 14.47 11.6125 14.8294 11.3782C15.1888 11.1386 15.4466 10.8183 15.6028 10.4172C15.7643 10.011 15.845 9.56047 15.845 9.06567ZM19.22 0.800049H20.6731V11.1594L20.5481 12.8H19.22V0.800049ZM26.3841 8.50317V8.66724C26.3841 9.28182 26.3111 9.85213 26.1653 10.3782C26.0195 10.899 25.8059 11.3521 25.5247 11.7375C25.2434 12.123 24.8997 12.4224 24.4934 12.636C24.0872 12.8495 23.621 12.9563 23.095 12.9563C22.5585 12.9563 22.0872 12.8652 21.6809 12.6829C21.2799 12.4954 20.9414 12.2271 20.6653 11.8782C20.3893 11.5292 20.1679 11.1073 20.0013 10.6125C19.8398 10.1178 19.7278 9.56047 19.6653 8.94067V8.22192C19.7278 7.59692 19.8398 7.03703 20.0013 6.54224C20.1679 6.04744 20.3893 5.62557 20.6653 5.27661C20.9414 4.92244 21.2799 4.65422 21.6809 4.47192C22.082 4.28442 22.5481 4.19067 23.0794 4.19067C23.6106 4.19067 24.082 4.29484 24.4934 4.50317C24.9049 4.7063 25.2486 4.99797 25.5247 5.37817C25.8059 5.75838 26.0195 6.21411 26.1653 6.74536C26.3111 7.2714 26.3841 7.85734 26.3841 8.50317ZM24.9309 8.66724V8.50317C24.9309 8.0813 24.8919 7.68547 24.8138 7.31567C24.7356 6.94067 24.6106 6.61255 24.4388 6.3313C24.2669 6.04484 24.0403 5.82088 23.7591 5.65942C23.4778 5.49276 23.1315 5.40942 22.72 5.40942C22.3554 5.40942 22.0377 5.47192 21.7669 5.59692C21.5013 5.72192 21.2747 5.89119 21.0872 6.10474C20.8997 6.31307 20.746 6.55265 20.6263 6.82349C20.5117 7.08911 20.4257 7.36515 20.3684 7.65161V9.53442C20.4518 9.89901 20.5872 10.2506 20.7747 10.5891C20.9674 10.9224 21.2226 11.1959 21.5403 11.4094C21.8632 11.623 22.2617 11.7297 22.7356 11.7297C23.1263 11.7297 23.4596 11.6516 23.7356 11.4954C24.0169 11.3339 24.2434 11.1125 24.4153 10.8313C24.5924 10.55 24.7226 10.2245 24.8059 9.85474C24.8893 9.48494 24.9309 9.08911 24.9309 8.66724ZM29.7825 0.800049V12.8H28.3294V0.800049H29.7825ZM33.6731 4.34692V12.8H32.22V4.34692H33.6731ZM32.1106 2.10474C32.1106 1.87036 32.1809 1.67244 32.3216 1.51099C32.4674 1.34953 32.6809 1.2688 32.9622 1.2688C33.2382 1.2688 33.4492 1.34953 33.595 1.51099C33.746 1.67244 33.8216 1.87036 33.8216 2.10474C33.8216 2.32869 33.746 2.5214 33.595 2.68286C33.4492 2.83911 33.2382 2.91724 32.9622 2.91724C32.6809 2.91724 32.4674 2.83911 32.3216 2.68286C32.1809 2.5214 32.1106 2.32869 32.1106 2.10474ZM40.9153 10.5579C40.9153 10.3495 40.8684 10.1568 40.7747 9.97974C40.6861 9.79744 40.5013 9.63338 40.22 9.48755C39.944 9.33651 39.5273 9.2063 38.97 9.09692C38.5013 8.99797 38.0768 8.88078 37.6966 8.74536C37.3216 8.60994 37.0013 8.44588 36.7356 8.25317C36.4752 8.06047 36.2747 7.8339 36.1341 7.57349C35.9934 7.31307 35.9231 7.00838 35.9231 6.65942C35.9231 6.32609 35.996 6.01099 36.1419 5.71411C36.2929 5.41724 36.5039 5.15422 36.7747 4.92505C37.0507 4.69588 37.3815 4.51619 37.7669 4.38599C38.1523 4.25578 38.582 4.19067 39.0559 4.19067C39.733 4.19067 40.3111 4.31047 40.7903 4.55005C41.2695 4.78963 41.6367 5.10994 41.8919 5.51099C42.1471 5.90682 42.2747 6.34692 42.2747 6.8313H40.8294C40.8294 6.59692 40.7591 6.37036 40.6184 6.15161C40.483 5.92765 40.2825 5.74276 40.0169 5.59692C39.7565 5.45109 39.4361 5.37817 39.0559 5.37817C38.6549 5.37817 38.3294 5.44067 38.0794 5.56567C37.8346 5.68547 37.6549 5.83911 37.5403 6.02661C37.4309 6.21411 37.3763 6.41203 37.3763 6.62036C37.3763 6.77661 37.4023 6.91724 37.4544 7.04224C37.5117 7.16203 37.6106 7.27401 37.7513 7.37817C37.8919 7.47713 38.0898 7.57088 38.345 7.65942C38.6002 7.74797 38.9257 7.83651 39.3216 7.92505C40.0143 8.0813 40.5846 8.2688 41.0325 8.48755C41.4804 8.7063 41.8138 8.97453 42.0325 9.29224C42.2513 9.60994 42.3606 9.99536 42.3606 10.4485C42.3606 10.8183 42.2825 11.1568 42.1263 11.4641C41.9752 11.7714 41.7539 12.037 41.4622 12.261C41.1757 12.4797 40.832 12.6516 40.4309 12.7766C40.0351 12.8964 39.5898 12.9563 39.095 12.9563C38.3502 12.9563 37.72 12.8235 37.2044 12.5579C36.6888 12.2922 36.2981 11.9485 36.0325 11.5266C35.7669 11.1047 35.6341 10.6594 35.6341 10.1907H37.0872C37.108 10.5865 37.2226 10.9016 37.4309 11.136C37.6393 11.3652 37.8945 11.5292 38.1966 11.6282C38.4986 11.7219 38.7981 11.7688 39.095 11.7688C39.4908 11.7688 39.8216 11.7167 40.0872 11.6125C40.358 11.5084 40.5638 11.3652 40.7044 11.1829C40.845 11.0006 40.9153 10.7922 40.9153 10.5579ZM45.7044 0.800049V12.8H44.2591V0.800049H45.7044ZM45.3606 8.25317L44.7591 8.22974C44.7643 7.65161 44.8502 7.11776 45.0169 6.62817C45.1835 6.13338 45.4179 5.70369 45.72 5.33911C46.0221 4.97453 46.3815 4.69328 46.7981 4.49536C47.22 4.29224 47.6861 4.19067 48.1966 4.19067C48.6132 4.19067 48.9882 4.24797 49.3216 4.36255C49.6549 4.47192 49.9388 4.64901 50.1731 4.8938C50.4127 5.13859 50.595 5.4563 50.72 5.84692C50.845 6.23234 50.9075 6.70369 50.9075 7.26099V12.8H49.4544V7.24536C49.4544 6.80265 49.3893 6.44849 49.2591 6.18286C49.1289 5.91203 48.9388 5.71672 48.6888 5.59692C48.4388 5.47192 48.1315 5.40942 47.7669 5.40942C47.4075 5.40942 47.0794 5.48494 46.7825 5.63599C46.4908 5.78703 46.2382 5.99536 46.0247 6.26099C45.8164 6.52661 45.6523 6.8313 45.5325 7.17505C45.4179 7.51359 45.3606 7.87297 45.3606 8.25317ZM60.5794 4.34692V5.4563H56.0091V4.34692H60.5794ZM57.5559 2.29224H59.0013V10.7063C59.0013 10.9928 59.0455 11.2089 59.1341 11.3547C59.2226 11.5006 59.3372 11.5969 59.4778 11.6438C59.6184 11.6907 59.7695 11.7141 59.9309 11.7141C60.0507 11.7141 60.1757 11.7037 60.3059 11.6829C60.4414 11.6568 60.5429 11.636 60.6106 11.6204L60.6184 12.8C60.5039 12.8365 60.3528 12.8704 60.1653 12.9016C59.983 12.9381 59.7617 12.9563 59.5013 12.9563C59.1471 12.9563 58.8216 12.886 58.5247 12.7454C58.2278 12.6047 57.9908 12.3704 57.8138 12.0422C57.6419 11.7089 57.5559 11.261 57.5559 10.6985V2.29224ZM63.72 0.800049V12.8H62.2747V0.800049H63.72ZM63.3763 8.25317L62.7747 8.22974C62.7799 7.65161 62.8658 7.11776 63.0325 6.62817C63.1992 6.13338 63.4335 5.70369 63.7356 5.33911C64.0377 4.97453 64.3971 4.69328 64.8138 4.49536C65.2356 4.29224 65.7018 4.19067 66.2122 4.19067C66.6289 4.19067 67.0039 4.24797 67.3372 4.36255C67.6705 4.47192 67.9544 4.64901 68.1888 4.8938C68.4283 5.13859 68.6106 5.4563 68.7356 5.84692C68.8606 6.23234 68.9231 6.70369 68.9231 7.26099V12.8H67.47V7.24536C67.47 6.80265 67.4049 6.44849 67.2747 6.18286C67.1445 5.91203 66.9544 5.71672 66.7044 5.59692C66.4544 5.47192 66.1471 5.40942 65.7825 5.40942C65.4231 5.40942 65.095 5.48494 64.7981 5.63599C64.5065 5.78703 64.2539 5.99536 64.0403 6.26099C63.832 6.52661 63.6679 6.8313 63.5481 7.17505C63.4335 7.51359 63.3763 7.87297 63.3763 8.25317ZM74.595 12.9563C74.0065 12.9563 73.4726 12.8573 72.9934 12.6594C72.5195 12.4563 72.1106 12.1724 71.7669 11.8079C71.4283 11.4433 71.1679 11.011 70.9856 10.511C70.8033 10.011 70.7122 9.46411 70.7122 8.87036V8.54224C70.7122 7.85474 70.8138 7.24276 71.0169 6.7063C71.22 6.16463 71.496 5.7063 71.845 5.3313C72.194 4.9563 72.5898 4.67244 73.0325 4.47974C73.4752 4.28703 73.9335 4.19067 74.4075 4.19067C75.0117 4.19067 75.5325 4.29484 75.97 4.50317C76.4127 4.71151 76.7747 5.00317 77.0559 5.37817C77.3372 5.74797 77.5455 6.18547 77.6809 6.69067C77.8164 7.19067 77.8841 7.73755 77.8841 8.3313V8.97974H71.5716V7.80005H76.4388V7.69067C76.4179 7.31567 76.3398 6.95109 76.2044 6.59692C76.0742 6.24276 75.8658 5.95109 75.5794 5.72192C75.2929 5.49276 74.9023 5.37817 74.4075 5.37817C74.0794 5.37817 73.7773 5.44849 73.5013 5.58911C73.2252 5.72453 72.9882 5.92765 72.7903 6.19849C72.5924 6.46932 72.4388 6.80005 72.3294 7.19067C72.22 7.5813 72.1653 8.03182 72.1653 8.54224V8.87036C72.1653 9.2714 72.22 9.64901 72.3294 10.0032C72.444 10.3521 72.608 10.6594 72.8216 10.925C73.0403 11.1907 73.3033 11.399 73.6106 11.55C73.9231 11.7011 74.2773 11.7766 74.6731 11.7766C75.1835 11.7766 75.6158 11.6724 75.97 11.4641C76.3242 11.2558 76.6341 10.9771 76.8997 10.6282L77.7747 11.3235C77.5924 11.5995 77.3606 11.8625 77.0794 12.1125C76.7981 12.3625 76.4518 12.5657 76.0403 12.7219C75.6341 12.8782 75.1523 12.9563 74.595 12.9563ZM86.9231 11.7688C87.2669 11.7688 87.5846 11.6985 87.8763 11.5579C88.1679 11.4172 88.4075 11.2245 88.595 10.9797C88.7825 10.7297 88.8893 10.4459 88.9153 10.1282H90.2903C90.2643 10.6282 90.095 11.0943 89.7825 11.5266C89.4752 11.9537 89.0716 12.3 88.5716 12.5657C88.0716 12.8261 87.5221 12.9563 86.9231 12.9563C86.2877 12.9563 85.733 12.8443 85.2591 12.6204C84.7903 12.3964 84.3997 12.0891 84.0872 11.6985C83.7799 11.3079 83.5481 10.8599 83.3919 10.3547C83.2408 9.84432 83.1653 9.30526 83.1653 8.73755V8.40942C83.1653 7.84172 83.2408 7.30526 83.3919 6.80005C83.5481 6.28963 83.7799 5.83911 84.0872 5.44849C84.3997 5.05786 84.7903 4.75057 85.2591 4.52661C85.733 4.30265 86.2877 4.19067 86.9231 4.19067C87.5846 4.19067 88.1627 4.32609 88.6575 4.59692C89.1523 4.86255 89.5403 5.22713 89.8216 5.69067C90.108 6.14901 90.2643 6.66984 90.2903 7.25317H88.9153C88.8893 6.90422 88.7903 6.58911 88.6184 6.30786C88.4518 6.02661 88.2226 5.80265 87.9309 5.63599C87.6445 5.46411 87.3085 5.37817 86.9231 5.37817C86.4804 5.37817 86.108 5.46672 85.8059 5.6438C85.5091 5.81567 85.2721 6.05005 85.095 6.34692C84.9231 6.63859 84.7981 6.96411 84.72 7.32349C84.6471 7.67765 84.6106 8.03963 84.6106 8.40942V8.73755C84.6106 9.10734 84.6471 9.47192 84.72 9.8313C84.7929 10.1907 84.9153 10.5162 85.0872 10.8079C85.2643 11.0995 85.5013 11.3339 85.7981 11.511C86.1002 11.6829 86.4752 11.7688 86.9231 11.7688ZM91.5325 8.66724V8.48755C91.5325 7.87817 91.621 7.31307 91.7981 6.79224C91.9752 6.26619 92.2304 5.81047 92.5638 5.42505C92.8971 5.03442 93.3007 4.73234 93.7747 4.5188C94.2486 4.30005 94.7799 4.19067 95.3684 4.19067C95.9622 4.19067 96.496 4.30005 96.97 4.5188C97.4492 4.73234 97.8554 5.03442 98.1888 5.42505C98.5273 5.81047 98.7851 6.26619 98.9622 6.79224C99.1393 7.31307 99.2278 7.87817 99.2278 8.48755V8.66724C99.2278 9.27661 99.1393 9.84172 98.9622 10.3625C98.7851 10.8834 98.5273 11.3391 98.1888 11.7297C97.8554 12.1152 97.4518 12.4172 96.9778 12.636C96.5091 12.8495 95.9778 12.9563 95.3841 12.9563C94.7903 12.9563 94.2565 12.8495 93.7825 12.636C93.3085 12.4172 92.9023 12.1152 92.5638 11.7297C92.2304 11.3391 91.9752 10.8834 91.7981 10.3625C91.621 9.84172 91.5325 9.27661 91.5325 8.66724ZM92.9778 8.48755V8.66724C92.9778 9.08911 93.0273 9.48755 93.1263 9.86255C93.2252 10.2323 93.3736 10.5605 93.5716 10.8469C93.7747 11.1334 94.0273 11.3599 94.3294 11.5266C94.6315 11.6881 94.983 11.7688 95.3841 11.7688C95.7799 11.7688 96.1263 11.6881 96.4231 11.5266C96.7252 11.3599 96.9752 11.1334 97.1731 10.8469C97.371 10.5605 97.5195 10.2323 97.6184 9.86255C97.7226 9.48755 97.7747 9.08911 97.7747 8.66724V8.48755C97.7747 8.07088 97.7226 7.67765 97.6184 7.30786C97.5195 6.93286 97.3684 6.60213 97.1653 6.31567C96.9674 6.02401 96.7174 5.79484 96.4153 5.62817C96.1184 5.46151 95.7695 5.37817 95.3684 5.37817C94.9726 5.37817 94.6236 5.46151 94.3216 5.62817C94.0247 5.79484 93.7747 6.02401 93.5716 6.31567C93.3736 6.60213 93.2252 6.93286 93.1263 7.30786C93.0273 7.67765 92.9778 8.07088 92.9778 8.48755ZM106.212 10.8469V4.34692H107.665V12.8H106.283L106.212 10.8469ZM106.486 9.06567L107.087 9.05005C107.087 9.61255 107.027 10.1334 106.908 10.6125C106.793 11.0865 106.605 11.498 106.345 11.8469C106.085 12.1959 105.743 12.4693 105.322 12.6672C104.9 12.8599 104.387 12.9563 103.783 12.9563C103.371 12.9563 102.993 12.8964 102.65 12.7766C102.311 12.6568 102.019 12.4719 101.775 12.2219C101.53 11.9719 101.34 11.6464 101.204 11.2454C101.074 10.8443 101.009 10.3625 101.009 9.80005V4.34692H102.454V9.81567C102.454 10.1959 102.496 10.511 102.579 10.761C102.668 11.0058 102.785 11.2011 102.931 11.3469C103.082 11.4875 103.249 11.5865 103.431 11.6438C103.618 11.7011 103.811 11.7297 104.009 11.7297C104.624 11.7297 105.111 11.6125 105.47 11.3782C105.829 11.1386 106.087 10.8183 106.243 10.4172C106.405 10.011 106.486 9.56047 106.486 9.06567ZM111.314 5.67505V12.8H109.868V4.34692H111.275L111.314 5.67505ZM113.954 4.30005L113.947 5.6438C113.827 5.61776 113.712 5.60213 113.603 5.59692C113.499 5.58651 113.379 5.5813 113.243 5.5813C112.91 5.5813 112.616 5.63338 112.361 5.73755C112.105 5.84172 111.889 5.98755 111.712 6.17505C111.535 6.36255 111.394 6.58651 111.29 6.84692C111.191 7.10213 111.126 7.38338 111.095 7.69067L110.689 7.92505C110.689 7.41463 110.738 6.93547 110.837 6.48755C110.941 6.03963 111.1 5.6438 111.314 5.30005C111.527 4.95109 111.798 4.68026 112.126 4.48755C112.46 4.28963 112.855 4.19067 113.314 4.19067C113.418 4.19067 113.538 4.20369 113.673 4.22974C113.809 4.25057 113.902 4.27401 113.954 4.30005ZM120.212 10.5579C120.212 10.3495 120.165 10.1568 120.072 9.97974C119.983 9.79744 119.798 9.63338 119.517 9.48755C119.241 9.33651 118.824 9.2063 118.267 9.09692C117.798 8.99797 117.374 8.88078 116.993 8.74536C116.618 8.60994 116.298 8.44588 116.033 8.25317C115.772 8.06047 115.572 7.8339 115.431 7.57349C115.29 7.31307 115.22 7.00838 115.22 6.65942C115.22 6.32609 115.293 6.01099 115.439 5.71411C115.59 5.41724 115.801 5.15422 116.072 4.92505C116.348 4.69588 116.678 4.51619 117.064 4.38599C117.449 4.25578 117.879 4.19067 118.353 4.19067C119.03 4.19067 119.608 4.31047 120.087 4.55005C120.566 4.78963 120.934 5.10994 121.189 5.51099C121.444 5.90682 121.572 6.34692 121.572 6.8313H120.126C120.126 6.59692 120.056 6.37036 119.915 6.15161C119.78 5.92765 119.579 5.74276 119.314 5.59692C119.053 5.45109 118.733 5.37817 118.353 5.37817C117.952 5.37817 117.626 5.44067 117.376 5.56567C117.131 5.68547 116.952 5.83911 116.837 6.02661C116.728 6.21411 116.673 6.41203 116.673 6.62036C116.673 6.77661 116.699 6.91724 116.751 7.04224C116.809 7.16203 116.908 7.27401 117.048 7.37817C117.189 7.47713 117.387 7.57088 117.642 7.65942C117.897 7.74797 118.223 7.83651 118.618 7.92505C119.311 8.0813 119.881 8.2688 120.329 8.48755C120.777 8.7063 121.111 8.97453 121.329 9.29224C121.548 9.60994 121.658 9.99536 121.658 10.4485C121.658 10.8183 121.579 11.1568 121.423 11.4641C121.272 11.7714 121.051 12.037 120.759 12.261C120.473 12.4797 120.129 12.6516 119.728 12.7766C119.332 12.8964 118.887 12.9563 118.392 12.9563C117.647 12.9563 117.017 12.8235 116.501 12.5579C115.986 12.2922 115.595 11.9485 115.329 11.5266C115.064 11.1047 114.931 10.6594 114.931 10.1907H116.384C116.405 10.5865 116.519 10.9016 116.728 11.136C116.936 11.3652 117.191 11.5292 117.493 11.6282C117.796 11.7219 118.095 11.7688 118.392 11.7688C118.788 11.7688 119.118 11.7167 119.384 11.6125C119.655 11.5084 119.861 11.3652 120.001 11.1829C120.142 11.0006 120.212 10.7922 120.212 10.5579ZM127.064 12.9563C126.475 12.9563 125.941 12.8573 125.462 12.6594C124.988 12.4563 124.579 12.1724 124.236 11.8079C123.897 11.4433 123.637 11.011 123.454 10.511C123.272 10.011 123.181 9.46411 123.181 8.87036V8.54224C123.181 7.85474 123.283 7.24276 123.486 6.7063C123.689 6.16463 123.965 5.7063 124.314 5.3313C124.663 4.9563 125.059 4.67244 125.501 4.47974C125.944 4.28703 126.402 4.19067 126.876 4.19067C127.48 4.19067 128.001 4.29484 128.439 4.50317C128.881 4.71151 129.243 5.00317 129.525 5.37817C129.806 5.74797 130.014 6.18547 130.15 6.69067C130.285 7.19067 130.353 7.73755 130.353 8.3313V8.97974H124.04V7.80005H128.908V7.69067C128.887 7.31567 128.809 6.95109 128.673 6.59692C128.543 6.24276 128.335 5.95109 128.048 5.72192C127.762 5.49276 127.371 5.37817 126.876 5.37817C126.548 5.37817 126.246 5.44849 125.97 5.58911C125.694 5.72453 125.457 5.92765 125.259 6.19849C125.061 6.46932 124.908 6.80005 124.798 7.19067C124.689 7.5813 124.634 8.03182 124.634 8.54224V8.87036C124.634 9.2714 124.689 9.64901 124.798 10.0032C124.913 10.3521 125.077 10.6594 125.29 10.925C125.509 11.1907 125.772 11.399 126.079 11.55C126.392 11.7011 126.746 11.7766 127.142 11.7766C127.652 11.7766 128.085 11.6724 128.439 11.4641C128.793 11.2558 129.103 10.9771 129.368 10.6282L130.243 11.3235C130.061 11.5995 129.829 11.8625 129.548 12.1125C129.267 12.3625 128.921 12.5657 128.509 12.7219C128.103 12.8782 127.621 12.9563 127.064 12.9563ZM138.384 11.925L140.736 4.34692H142.283L138.892 14.1047C138.814 14.3131 138.71 14.537 138.579 14.7766C138.454 15.0214 138.293 15.2532 138.095 15.4719C137.897 15.6907 137.658 15.8678 137.376 16.0032C137.1 16.1438 136.769 16.2141 136.384 16.2141C136.269 16.2141 136.124 16.1985 135.947 16.1672C135.769 16.136 135.644 16.1099 135.572 16.0891L135.564 14.9172C135.605 14.9224 135.671 14.9277 135.759 14.9329C135.853 14.9433 135.918 14.9485 135.954 14.9485C136.283 14.9485 136.561 14.9042 136.79 14.8157C137.019 14.7323 137.212 14.5891 137.368 14.386C137.53 14.1881 137.668 13.9146 137.783 13.5657L138.384 11.925ZM136.658 4.34692L138.853 10.9094L139.228 12.4329L138.189 12.9641L135.079 4.34692H136.658ZM143.079 8.66724V8.48755C143.079 7.87817 143.168 7.31307 143.345 6.79224C143.522 6.26619 143.777 5.81047 144.111 5.42505C144.444 5.03442 144.848 4.73234 145.322 4.5188C145.796 4.30005 146.327 4.19067 146.915 4.19067C147.509 4.19067 148.043 4.30005 148.517 4.5188C148.996 4.73234 149.402 5.03442 149.736 5.42505C150.074 5.81047 150.332 6.26619 150.509 6.79224C150.686 7.31307 150.775 7.87817 150.775 8.48755V8.66724C150.775 9.27661 150.686 9.84172 150.509 10.3625C150.332 10.8834 150.074 11.3391 149.736 11.7297C149.402 12.1152 148.999 12.4172 148.525 12.636C148.056 12.8495 147.525 12.9563 146.931 12.9563C146.337 12.9563 145.803 12.8495 145.329 12.636C144.855 12.4172 144.449 12.1152 144.111 11.7297C143.777 11.3391 143.522 10.8834 143.345 10.3625C143.168 9.84172 143.079 9.27661 143.079 8.66724ZM144.525 8.48755V8.66724C144.525 9.08911 144.574 9.48755 144.673 9.86255C144.772 10.2323 144.921 10.5605 145.118 10.8469C145.322 11.1334 145.574 11.3599 145.876 11.5266C146.178 11.6881 146.53 11.7688 146.931 11.7688C147.327 11.7688 147.673 11.6881 147.97 11.5266C148.272 11.3599 148.522 11.1334 148.72 10.8469C148.918 10.5605 149.066 10.2323 149.165 9.86255C149.269 9.48755 149.322 9.08911 149.322 8.66724V8.48755C149.322 8.07088 149.269 7.67765 149.165 7.30786C149.066 6.93286 148.915 6.60213 148.712 6.31567C148.514 6.02401 148.264 5.79484 147.962 5.62817C147.665 5.46151 147.316 5.37817 146.915 5.37817C146.519 5.37817 146.171 5.46151 145.868 5.62817C145.572 5.79484 145.322 6.02401 145.118 6.31567C144.921 6.60213 144.772 6.93286 144.673 7.30786C144.574 7.67765 144.525 8.07088 144.525 8.48755ZM157.759 10.8469V4.34692H159.212V12.8H157.829L157.759 10.8469ZM158.033 9.06567L158.634 9.05005C158.634 9.61255 158.574 10.1334 158.454 10.6125C158.34 11.0865 158.152 11.498 157.892 11.8469C157.631 12.1959 157.29 12.4693 156.868 12.6672C156.447 12.8599 155.934 12.9563 155.329 12.9563C154.918 12.9563 154.54 12.8964 154.197 12.7766C153.858 12.6568 153.566 12.4719 153.322 12.2219C153.077 11.9719 152.887 11.6464 152.751 11.2454C152.621 10.8443 152.556 10.3625 152.556 9.80005V4.34692H154.001V9.81567C154.001 10.1959 154.043 10.511 154.126 10.761C154.215 11.0058 154.332 11.2011 154.478 11.3469C154.629 11.4875 154.796 11.5865 154.978 11.6438C155.165 11.7011 155.358 11.7297 155.556 11.7297C156.171 11.7297 156.658 11.6125 157.017 11.3782C157.376 11.1386 157.634 10.8183 157.79 10.4172C157.952 10.011 158.033 9.56047 158.033 9.06567ZM167.525 11.3L169.697 4.34692H170.65L170.462 5.72974L168.251 12.8H167.322L167.525 11.3ZM166.064 4.34692L167.915 11.3782L168.048 12.8H167.072L164.618 4.34692H166.064ZM172.728 11.3235L174.493 4.34692H175.931L173.478 12.8H172.509L172.728 11.3235ZM170.861 4.34692L172.986 11.1829L173.228 12.8H172.306L170.033 5.71411L169.845 4.34692H170.861ZM182.4 11.3547V7.00317C182.4 6.66984 182.332 6.38078 182.197 6.13599C182.066 5.88599 181.868 5.69328 181.603 5.55786C181.337 5.42244 181.009 5.35474 180.618 5.35474C180.254 5.35474 179.934 5.41724 179.658 5.54224C179.387 5.66724 179.173 5.8313 179.017 6.03442C178.866 6.23755 178.79 6.4563 178.79 6.69067H177.345C177.345 6.38859 177.423 6.08911 177.579 5.79224C177.736 5.49536 177.96 5.22713 178.251 4.98755C178.548 4.74276 178.902 4.55005 179.314 4.40942C179.73 4.26359 180.194 4.19067 180.704 4.19067C181.319 4.19067 181.861 4.29484 182.329 4.50317C182.803 4.71151 183.173 5.02661 183.439 5.44849C183.71 5.86515 183.845 6.38859 183.845 7.0188V10.9563C183.845 11.2375 183.868 11.537 183.915 11.8547C183.967 12.1724 184.043 12.4459 184.142 12.675V12.8H182.634C182.561 12.6334 182.504 12.412 182.462 12.136C182.421 11.8547 182.4 11.5943 182.4 11.3547ZM182.65 7.67505L182.665 8.69067H181.204C180.793 8.69067 180.426 8.72453 180.103 8.79224C179.78 8.85474 179.509 8.95109 179.29 9.0813C179.072 9.21151 178.905 9.37557 178.79 9.57349C178.676 9.76619 178.618 9.99276 178.618 10.2532C178.618 10.5188 178.678 10.761 178.798 10.9797C178.918 11.1985 179.098 11.373 179.337 11.5032C179.582 11.6282 179.881 11.6907 180.236 11.6907C180.678 11.6907 181.069 11.5969 181.408 11.4094C181.746 11.2219 182.014 10.9928 182.212 10.7219C182.415 10.4511 182.525 10.1881 182.54 9.93286L183.158 10.6282C183.121 10.8469 183.022 11.0891 182.861 11.3547C182.699 11.6204 182.483 11.8756 182.212 12.1204C181.947 12.3599 181.629 12.5605 181.259 12.7219C180.894 12.8782 180.483 12.9563 180.025 12.9563C179.452 12.9563 178.949 12.8443 178.517 12.6204C178.09 12.3964 177.756 12.0969 177.517 11.7219C177.283 11.3417 177.165 10.9172 177.165 10.4485C177.165 9.99536 177.254 9.59692 177.431 9.25317C177.608 8.90422 177.863 8.61515 178.197 8.38599C178.53 8.15161 178.931 7.97453 179.4 7.85474C179.868 7.73494 180.392 7.67505 180.97 7.67505H182.65ZM187.564 6.15161V12.8H186.118V4.34692H187.486L187.564 6.15161ZM187.22 8.25317L186.618 8.22974C186.624 7.65161 186.71 7.11776 186.876 6.62817C187.043 6.13338 187.277 5.70369 187.579 5.33911C187.881 4.97453 188.241 4.69328 188.658 4.49536C189.079 4.29224 189.546 4.19067 190.056 4.19067C190.473 4.19067 190.848 4.24797 191.181 4.36255C191.514 4.47192 191.798 4.64901 192.033 4.8938C192.272 5.13859 192.454 5.4563 192.579 5.84692C192.704 6.23234 192.767 6.70369 192.767 7.26099V12.8H191.314V7.24536C191.314 6.80265 191.249 6.44849 191.118 6.18286C190.988 5.91203 190.798 5.71672 190.548 5.59692C190.298 5.47192 189.991 5.40942 189.626 5.40942C189.267 5.40942 188.939 5.48494 188.642 5.63599C188.35 5.78703 188.098 5.99536 187.884 6.26099C187.676 6.52661 187.512 6.8313 187.392 7.17505C187.277 7.51359 187.22 7.87297 187.22 8.25317ZM198.501 4.34692V5.4563H193.931V4.34692H198.501ZM195.478 2.29224H196.923V10.7063C196.923 10.9928 196.967 11.2089 197.056 11.3547C197.144 11.5006 197.259 11.5969 197.4 11.6438C197.54 11.6907 197.691 11.7141 197.853 11.7141C197.973 11.7141 198.098 11.7037 198.228 11.6829C198.363 11.6568 198.465 11.636 198.533 11.6204L198.54 12.8C198.426 12.8365 198.275 12.8704 198.087 12.9016C197.905 12.9381 197.684 12.9563 197.423 12.9563C197.069 12.9563 196.743 12.886 196.447 12.7454C196.15 12.6047 195.913 12.3704 195.736 12.0422C195.564 11.7089 195.478 11.261 195.478 10.6985V2.29224ZM201.509 11.0813V12.2454C201.509 12.7193 201.389 13.2193 201.15 13.7454C200.91 14.2766 200.574 14.7193 200.142 15.0735L199.322 14.5032C199.488 14.274 199.629 14.0396 199.743 13.8C199.858 13.5657 199.944 13.3209 200.001 13.0657C200.064 12.8157 200.095 12.55 200.095 12.2688V11.0813H201.509ZM208.892 4.34692V12.8H207.439V4.34692H208.892ZM207.329 2.10474C207.329 1.87036 207.4 1.67244 207.54 1.51099C207.686 1.34953 207.9 1.2688 208.181 1.2688C208.457 1.2688 208.668 1.34953 208.814 1.51099C208.965 1.67244 209.04 1.87036 209.04 2.10474C209.04 2.32869 208.965 2.5214 208.814 2.68286C208.668 2.83911 208.457 2.91724 208.181 2.91724C207.9 2.91724 207.686 2.83911 207.54 2.68286C207.4 2.5214 207.329 2.32869 207.329 2.10474ZM212.658 6.15161V12.8H211.212V4.34692H212.579L212.658 6.15161ZM212.314 8.25317L211.712 8.22974C211.717 7.65161 211.803 7.11776 211.97 6.62817C212.137 6.13338 212.371 5.70369 212.673 5.33911C212.975 4.97453 213.335 4.69328 213.751 4.49536C214.173 4.29224 214.639 4.19067 215.15 4.19067C215.566 4.19067 215.941 4.24797 216.275 4.36255C216.608 4.47192 216.892 4.64901 217.126 4.8938C217.366 5.13859 217.548 5.4563 217.673 5.84692C217.798 6.23234 217.861 6.70369 217.861 7.26099V12.8H216.408V7.24536C216.408 6.80265 216.342 6.44849 216.212 6.18286C216.082 5.91203 215.892 5.71672 215.642 5.59692C215.392 5.47192 215.085 5.40942 214.72 5.40942C214.361 5.40942 214.033 5.48494 213.736 5.63599C213.444 5.78703 213.191 5.99536 212.978 6.26099C212.769 6.52661 212.605 6.8313 212.486 7.17505C212.371 7.51359 212.314 7.87297 212.314 8.25317ZM227.564 4.34692V5.4563H222.993V4.34692H227.564ZM224.54 2.29224H225.986V10.7063C225.986 10.9928 226.03 11.2089 226.118 11.3547C226.207 11.5006 226.322 11.5969 226.462 11.6438C226.603 11.6907 226.754 11.7141 226.915 11.7141C227.035 11.7141 227.16 11.7037 227.29 11.6829C227.426 11.6568 227.527 11.636 227.595 11.6204L227.603 12.8C227.488 12.8365 227.337 12.8704 227.15 12.9016C226.967 12.9381 226.746 12.9563 226.486 12.9563C226.131 12.9563 225.806 12.886 225.509 12.7454C225.212 12.6047 224.975 12.3704 224.798 12.0422C224.626 11.7089 224.54 11.261 224.54 10.6985V2.29224ZM230.704 0.800049V12.8H229.259V0.800049H230.704ZM230.361 8.25317L229.759 8.22974C229.764 7.65161 229.85 7.11776 230.017 6.62817C230.184 6.13338 230.418 5.70369 230.72 5.33911C231.022 4.97453 231.381 4.69328 231.798 4.49536C232.22 4.29224 232.686 4.19067 233.197 4.19067C233.613 4.19067 233.988 4.24797 234.322 4.36255C234.655 4.47192 234.939 4.64901 235.173 4.8938C235.413 5.13859 235.595 5.4563 235.72 5.84692C235.845 6.23234 235.908 6.70369 235.908 7.26099V12.8H234.454V7.24536C234.454 6.80265 234.389 6.44849 234.259 6.18286C234.129 5.91203 233.939 5.71672 233.689 5.59692C233.439 5.47192 233.131 5.40942 232.767 5.40942C232.408 5.40942 232.079 5.48494 231.783 5.63599C231.491 5.78703 231.238 5.99536 231.025 6.26099C230.816 6.52661 230.652 6.8313 230.533 7.17505C230.418 7.51359 230.361 7.87297 230.361 8.25317ZM241.579 12.9563C240.991 12.9563 240.457 12.8573 239.978 12.6594C239.504 12.4563 239.095 12.1724 238.751 11.8079C238.413 11.4433 238.152 11.011 237.97 10.511C237.788 10.011 237.697 9.46411 237.697 8.87036V8.54224C237.697 7.85474 237.798 7.24276 238.001 6.7063C238.204 6.16463 238.48 5.7063 238.829 5.3313C239.178 4.9563 239.574 4.67244 240.017 4.47974C240.46 4.28703 240.918 4.19067 241.392 4.19067C241.996 4.19067 242.517 4.29484 242.954 4.50317C243.397 4.71151 243.759 5.00317 244.04 5.37817C244.322 5.74797 244.53 6.18547 244.665 6.69067C244.801 7.19067 244.868 7.73755 244.868 8.3313V8.97974H238.556V7.80005H243.423V7.69067C243.402 7.31567 243.324 6.95109 243.189 6.59692C243.059 6.24276 242.85 5.95109 242.564 5.72192C242.277 5.49276 241.887 5.37817 241.392 5.37817C241.064 5.37817 240.762 5.44849 240.486 5.58911C240.21 5.72453 239.973 5.92765 239.775 6.19849C239.577 6.46932 239.423 6.80005 239.314 7.19067C239.204 7.5813 239.15 8.03182 239.15 8.54224V8.87036C239.15 9.2714 239.204 9.64901 239.314 10.0032C239.428 10.3521 239.592 10.6594 239.806 10.925C240.025 11.1907 240.288 11.399 240.595 11.55C240.908 11.7011 241.262 11.7766 241.658 11.7766C242.168 11.7766 242.6 11.6724 242.954 11.4641C243.309 11.2558 243.618 10.9771 243.884 10.6282L244.759 11.3235C244.577 11.5995 244.345 11.8625 244.064 12.1125C243.783 12.3625 243.436 12.5657 243.025 12.7219C242.618 12.8782 242.137 12.9563 241.579 12.9563ZM252.665 11.3L254.837 4.34692H255.79L255.603 5.72974L253.392 12.8H252.462L252.665 11.3ZM251.204 4.34692L253.056 11.3782L253.189 12.8H252.212L249.759 4.34692H251.204ZM257.868 11.3235L259.634 4.34692H261.072L258.618 12.8H257.65L257.868 11.3235ZM256.001 4.34692L258.126 11.1829L258.368 12.8H257.447L255.173 5.71411L254.986 4.34692H256.001ZM267.54 11.3547V7.00317C267.54 6.66984 267.473 6.38078 267.337 6.13599C267.207 5.88599 267.009 5.69328 266.743 5.55786C266.478 5.42244 266.15 5.35474 265.759 5.35474C265.394 5.35474 265.074 5.41724 264.798 5.54224C264.527 5.66724 264.314 5.8313 264.158 6.03442C264.006 6.23755 263.931 6.4563 263.931 6.69067H262.486C262.486 6.38859 262.564 6.08911 262.72 5.79224C262.876 5.49536 263.1 5.22713 263.392 4.98755C263.689 4.74276 264.043 4.55005 264.454 4.40942C264.871 4.26359 265.335 4.19067 265.845 4.19067C266.46 4.19067 267.001 4.29484 267.47 4.50317C267.944 4.71151 268.314 5.02661 268.579 5.44849C268.85 5.86515 268.986 6.38859 268.986 7.0188V10.9563C268.986 11.2375 269.009 11.537 269.056 11.8547C269.108 12.1724 269.184 12.4459 269.283 12.675V12.8H267.775C267.702 12.6334 267.644 12.412 267.603 12.136C267.561 11.8547 267.54 11.5943 267.54 11.3547ZM267.79 7.67505L267.806 8.69067H266.345C265.934 8.69067 265.566 8.72453 265.243 8.79224C264.921 8.85474 264.65 8.95109 264.431 9.0813C264.212 9.21151 264.046 9.37557 263.931 9.57349C263.816 9.76619 263.759 9.99276 263.759 10.2532C263.759 10.5188 263.819 10.761 263.939 10.9797C264.059 11.1985 264.238 11.373 264.478 11.5032C264.723 11.6282 265.022 11.6907 265.376 11.6907C265.819 11.6907 266.21 11.5969 266.548 11.4094C266.887 11.2219 267.155 10.9928 267.353 10.7219C267.556 10.4511 267.665 10.1881 267.681 9.93286L268.298 10.6282C268.262 10.8469 268.163 11.0891 268.001 11.3547C267.84 11.6204 267.624 11.8756 267.353 12.1204C267.087 12.3599 266.769 12.5605 266.4 12.7219C266.035 12.8782 265.624 12.9563 265.165 12.9563C264.592 12.9563 264.09 12.8443 263.658 12.6204C263.23 12.3964 262.897 12.0969 262.658 11.7219C262.423 11.3417 262.306 10.9172 262.306 10.4485C262.306 9.99536 262.394 9.59692 262.572 9.25317C262.749 8.90422 263.004 8.61515 263.337 8.38599C263.671 8.15161 264.072 7.97453 264.54 7.85474C265.009 7.73494 265.533 7.67505 266.111 7.67505H267.79ZM273.509 11.925L275.861 4.34692H277.408L274.017 14.1047C273.939 14.3131 273.835 14.537 273.704 14.7766C273.579 15.0214 273.418 15.2532 273.22 15.4719C273.022 15.6907 272.783 15.8678 272.501 16.0032C272.225 16.1438 271.894 16.2141 271.509 16.2141C271.394 16.2141 271.249 16.1985 271.072 16.1672C270.894 16.136 270.769 16.1099 270.697 16.0891L270.689 14.9172C270.73 14.9224 270.796 14.9277 270.884 14.9329C270.978 14.9433 271.043 14.9485 271.079 14.9485C271.408 14.9485 271.686 14.9042 271.915 14.8157C272.144 14.7323 272.337 14.5891 272.493 14.386C272.655 14.1881 272.793 13.9146 272.908 13.5657L273.509 11.925ZM271.783 4.34692L273.978 10.9094L274.353 12.4329L273.314 12.9641L270.204 4.34692H271.783ZM285.056 11.925L287.408 4.34692H288.954L285.564 14.1047C285.486 14.3131 285.381 14.537 285.251 14.7766C285.126 15.0214 284.965 15.2532 284.767 15.4719C284.569 15.6907 284.329 15.8678 284.048 16.0032C283.772 16.1438 283.441 16.2141 283.056 16.2141C282.941 16.2141 282.796 16.1985 282.618 16.1672C282.441 16.136 282.316 16.1099 282.243 16.0891L282.236 14.9172C282.277 14.9224 282.342 14.9277 282.431 14.9329C282.525 14.9433 282.59 14.9485 282.626 14.9485C282.954 14.9485 283.233 14.9042 283.462 14.8157C283.691 14.7323 283.884 14.5891 284.04 14.386C284.202 14.1881 284.34 13.9146 284.454 13.5657L285.056 11.925ZM283.329 4.34692L285.525 10.9094L285.9 12.4329L284.861 12.9641L281.751 4.34692H283.329ZM289.751 8.66724V8.48755C289.751 7.87817 289.84 7.31307 290.017 6.79224C290.194 6.26619 290.449 5.81047 290.783 5.42505C291.116 5.03442 291.519 4.73234 291.993 4.5188C292.467 4.30005 292.999 4.19067 293.587 4.19067C294.181 4.19067 294.715 4.30005 295.189 4.5188C295.668 4.73234 296.074 5.03442 296.408 5.42505C296.746 5.81047 297.004 6.26619 297.181 6.79224C297.358 7.31307 297.447 7.87817 297.447 8.48755V8.66724C297.447 9.27661 297.358 9.84172 297.181 10.3625C297.004 10.8834 296.746 11.3391 296.408 11.7297C296.074 12.1152 295.671 12.4172 295.197 12.636C294.728 12.8495 294.197 12.9563 293.603 12.9563C293.009 12.9563 292.475 12.8495 292.001 12.636C291.527 12.4172 291.121 12.1152 290.783 11.7297C290.449 11.3391 290.194 10.8834 290.017 10.3625C289.84 9.84172 289.751 9.27661 289.751 8.66724ZM291.197 8.48755V8.66724C291.197 9.08911 291.246 9.48755 291.345 9.86255C291.444 10.2323 291.592 10.5605 291.79 10.8469C291.993 11.1334 292.246 11.3599 292.548 11.5266C292.85 11.6881 293.202 11.7688 293.603 11.7688C293.999 11.7688 294.345 11.6881 294.642 11.5266C294.944 11.3599 295.194 11.1334 295.392 10.8469C295.59 10.5605 295.738 10.2323 295.837 9.86255C295.941 9.48755 295.993 9.08911 295.993 8.66724V8.48755C295.993 8.07088 295.941 7.67765 295.837 7.30786C295.738 6.93286 295.587 6.60213 295.384 6.31567C295.186 6.02401 294.936 5.79484 294.634 5.62817C294.337 5.46151 293.988 5.37817 293.587 5.37817C293.191 5.37817 292.842 5.46151 292.54 5.62817C292.243 5.79484 291.993 6.02401 291.79 6.31567C291.592 6.60213 291.444 6.93286 291.345 7.30786C291.246 7.67765 291.197 8.07088 291.197 8.48755ZM304.431 10.8469V4.34692H305.884V12.8H304.501L304.431 10.8469ZM304.704 9.06567L305.306 9.05005C305.306 9.61255 305.246 10.1334 305.126 10.6125C305.012 11.0865 304.824 11.498 304.564 11.8469C304.303 12.1959 303.962 12.4693 303.54 12.6672C303.118 12.8599 302.605 12.9563 302.001 12.9563C301.59 12.9563 301.212 12.8964 300.868 12.7766C300.53 12.6568 300.238 12.4719 299.993 12.2219C299.749 11.9719 299.559 11.6464 299.423 11.2454C299.293 10.8443 299.228 10.3625 299.228 9.80005V4.34692H300.673V9.81567C300.673 10.1959 300.715 10.511 300.798 10.761C300.887 11.0058 301.004 11.2011 301.15 11.3469C301.301 11.4875 301.467 11.5865 301.65 11.6438C301.837 11.7011 302.03 11.7297 302.228 11.7297C302.842 11.7297 303.329 11.6125 303.689 11.3782C304.048 11.1386 304.306 10.8183 304.462 10.4172C304.624 10.011 304.704 9.56047 304.704 9.06567ZM6.20438 34.3L8.37625 27.3469H9.32938L9.14188 28.7297L6.93094 35.8H6.00125L6.20438 34.3ZM4.74344 27.3469L6.595 34.3782L6.72781 35.8H5.75125L3.29813 27.3469H4.74344ZM11.4075 34.3235L13.1731 27.3469H14.6106L12.1575 35.8H11.1888L11.4075 34.3235ZM9.54031 27.3469L11.6653 34.1829L11.9075 35.8H10.9856L8.71219 28.7141L8.52469 27.3469H9.54031ZM21.0794 34.3547V30.0032C21.0794 29.6698 21.0117 29.3808 20.8763 29.136C20.746 28.886 20.5481 28.6933 20.2825 28.5579C20.0169 28.4224 19.6888 28.3547 19.2981 28.3547C18.9335 28.3547 18.6132 28.4172 18.3372 28.5422C18.0664 28.6672 17.8528 28.8313 17.6966 29.0344C17.5455 29.2375 17.47 29.4563 17.47 29.6907H16.0247C16.0247 29.3886 16.1028 29.0891 16.2591 28.7922C16.4153 28.4954 16.6393 28.2271 16.9309 27.9875C17.2278 27.7428 17.582 27.55 17.9934 27.4094C18.4101 27.2636 18.8736 27.1907 19.3841 27.1907C19.9986 27.1907 20.5403 27.2948 21.0091 27.5032C21.483 27.7115 21.8528 28.0266 22.1184 28.4485C22.3893 28.8652 22.5247 29.3886 22.5247 30.0188V33.9563C22.5247 34.2375 22.5481 34.537 22.595 34.8547C22.6471 35.1724 22.7226 35.4459 22.8216 35.675V35.8H21.3138C21.2408 35.6334 21.1835 35.412 21.1419 35.136C21.1002 34.8547 21.0794 34.5943 21.0794 34.3547ZM21.3294 30.675L21.345 31.6907H19.8841C19.4726 31.6907 19.1054 31.7245 18.7825 31.7922C18.4596 31.8547 18.1888 31.9511 17.97 32.0813C17.7513 32.2115 17.5846 32.3756 17.47 32.5735C17.3554 32.7662 17.2981 32.9928 17.2981 33.2532C17.2981 33.5188 17.358 33.761 17.4778 33.9797C17.5976 34.1985 17.7773 34.373 18.0169 34.5032C18.2617 34.6282 18.5611 34.6907 18.9153 34.6907C19.358 34.6907 19.7486 34.5969 20.0872 34.4094C20.4257 34.2219 20.694 33.9928 20.8919 33.7219C21.095 33.4511 21.2044 33.1881 21.22 32.9329L21.8372 33.6282C21.8007 33.8469 21.7018 34.0891 21.5403 34.3547C21.3789 34.6204 21.1627 34.8756 20.8919 35.1204C20.6263 35.3599 20.3085 35.5605 19.9388 35.7219C19.5742 35.8782 19.1627 35.9563 18.7044 35.9563C18.1315 35.9563 17.6289 35.8443 17.1966 35.6204C16.7695 35.3964 16.4361 35.0969 16.1966 34.7219C15.9622 34.3417 15.845 33.9172 15.845 33.4485C15.845 32.9954 15.9335 32.5969 16.1106 32.2532C16.2877 31.9042 16.5429 31.6152 16.8763 31.386C17.2096 31.1516 17.6106 30.9745 18.0794 30.8547C18.5481 30.7349 19.0716 30.675 19.6497 30.675H21.3294ZM26.2434 29.1516V35.8H24.7981V27.3469H26.1653L26.2434 29.1516ZM25.8997 31.2532L25.2981 31.2297C25.3033 30.6516 25.3893 30.1178 25.5559 29.6282C25.7226 29.1334 25.957 28.7037 26.2591 28.3391C26.5611 27.9745 26.9205 27.6933 27.3372 27.4954C27.7591 27.2922 28.2252 27.1907 28.7356 27.1907C29.1523 27.1907 29.5273 27.248 29.8606 27.3625C30.194 27.4719 30.4778 27.649 30.7122 27.8938C30.9518 28.1386 31.1341 28.4563 31.2591 28.8469C31.3841 29.2323 31.4466 29.7037 31.4466 30.261V35.8H29.9934V30.2454C29.9934 29.8027 29.9283 29.4485 29.7981 29.1829C29.6679 28.912 29.4778 28.7167 29.2278 28.5969C28.9778 28.4719 28.6705 28.4094 28.3059 28.4094C27.9466 28.4094 27.6184 28.4849 27.3216 28.636C27.0299 28.787 26.7773 28.9954 26.5638 29.261C26.3554 29.5266 26.1914 29.8313 26.0716 30.175C25.957 30.5136 25.8997 30.873 25.8997 31.2532ZM37.1809 27.3469V28.4563H32.6106V27.3469H37.1809ZM34.1575 25.2922H35.6028V33.7063C35.6028 33.9928 35.6471 34.2089 35.7356 34.3547C35.8242 34.5006 35.9388 34.5969 36.0794 34.6438C36.22 34.6907 36.371 34.7141 36.5325 34.7141C36.6523 34.7141 36.7773 34.7037 36.9075 34.6829C37.0429 34.6568 37.1445 34.636 37.2122 34.6204L37.22 35.8C37.1054 35.8365 36.9544 35.8704 36.7669 35.9016C36.5846 35.9381 36.3632 35.9563 36.1028 35.9563C35.7486 35.9563 35.4231 35.886 35.1263 35.7454C34.8294 35.6047 34.5924 35.3704 34.4153 35.0422C34.2434 34.7089 34.1575 34.261 34.1575 33.6985V25.2922ZM40.1888 34.0813V35.2454C40.1888 35.7193 40.069 36.2193 39.8294 36.7454C39.5898 37.2766 39.2539 37.7193 38.8216 38.0735L38.0013 37.5032C38.1679 37.274 38.3085 37.0396 38.4231 36.8C38.5377 36.5657 38.6236 36.3209 38.6809 36.0657C38.7434 35.8157 38.7747 35.55 38.7747 35.2688V34.0813H40.1888ZM50.9856 34.3547V30.0032C50.9856 29.6698 50.9179 29.3808 50.7825 29.136C50.6523 28.886 50.4544 28.6933 50.1888 28.5579C49.9231 28.4224 49.595 28.3547 49.2044 28.3547C48.8398 28.3547 48.5195 28.4172 48.2434 28.5422C47.9726 28.6672 47.7591 28.8313 47.6028 29.0344C47.4518 29.2375 47.3763 29.4563 47.3763 29.6907H45.9309C45.9309 29.3886 46.0091 29.0891 46.1653 28.7922C46.3216 28.4954 46.5455 28.2271 46.8372 27.9875C47.1341 27.7428 47.4882 27.55 47.8997 27.4094C48.3164 27.2636 48.7799 27.1907 49.2903 27.1907C49.9049 27.1907 50.4466 27.2948 50.9153 27.5032C51.3893 27.7115 51.7591 28.0266 52.0247 28.4485C52.2955 28.8652 52.4309 29.3886 52.4309 30.0188V33.9563C52.4309 34.2375 52.4544 34.537 52.5013 34.8547C52.5533 35.1724 52.6289 35.4459 52.7278 35.675V35.8H51.22C51.1471 35.6334 51.0898 35.412 51.0481 35.136C51.0065 34.8547 50.9856 34.5943 50.9856 34.3547ZM51.2356 30.675L51.2513 31.6907H49.7903C49.3789 31.6907 49.0117 31.7245 48.6888 31.7922C48.3658 31.8547 48.095 31.9511 47.8763 32.0813C47.6575 32.2115 47.4908 32.3756 47.3763 32.5735C47.2617 32.7662 47.2044 32.9928 47.2044 33.2532C47.2044 33.5188 47.2643 33.761 47.3841 33.9797C47.5039 34.1985 47.6835 34.373 47.9231 34.5032C48.1679 34.6282 48.4674 34.6907 48.8216 34.6907C49.2643 34.6907 49.6549 34.5969 49.9934 34.4094C50.332 34.2219 50.6002 33.9928 50.7981 33.7219C51.0013 33.4511 51.1106 33.1881 51.1263 32.9329L51.7434 33.6282C51.707 33.8469 51.608 34.0891 51.4466 34.3547C51.2851 34.6204 51.069 34.8756 50.7981 35.1204C50.5325 35.3599 50.2148 35.5605 49.845 35.7219C49.4804 35.8782 49.069 35.9563 48.6106 35.9563C48.0377 35.9563 47.5351 35.8443 47.1028 35.6204C46.6757 35.3964 46.3424 35.0969 46.1028 34.7219C45.8684 34.3417 45.7513 33.9172 45.7513 33.4485C45.7513 32.9954 45.8398 32.5969 46.0169 32.2532C46.194 31.9042 46.4492 31.6152 46.7825 31.386C47.1158 31.1516 47.5169 30.9745 47.9856 30.8547C48.4544 30.7349 48.9778 30.675 49.5559 30.675H51.2356ZM56.1497 29.1516V35.8H54.7044V27.3469H56.0716L56.1497 29.1516ZM55.8059 31.2532L55.2044 31.2297C55.2096 30.6516 55.2955 30.1178 55.4622 29.6282C55.6289 29.1334 55.8632 28.7037 56.1653 28.3391C56.4674 27.9745 56.8268 27.6933 57.2434 27.4954C57.6653 27.2922 58.1315 27.1907 58.6419 27.1907C59.0585 27.1907 59.4335 27.248 59.7669 27.3625C60.1002 27.4719 60.3841 27.649 60.6184 27.8938C60.858 28.1386 61.0403 28.4563 61.1653 28.8469C61.2903 29.2323 61.3528 29.7037 61.3528 30.261V35.8H59.8997V30.2454C59.8997 29.8027 59.8346 29.4485 59.7044 29.1829C59.5742 28.912 59.3841 28.7167 59.1341 28.5969C58.8841 28.4719 58.5768 28.4094 58.2122 28.4094C57.8528 28.4094 57.5247 28.4849 57.2278 28.636C56.9361 28.787 56.6835 28.9954 56.47 29.261C56.2617 29.5266 56.0976 29.8313 55.9778 30.175C55.8632 30.5136 55.8059 30.873 55.8059 31.2532ZM68.8763 34.1594V23.8H70.3294V35.8H69.0013L68.8763 34.1594ZM63.1888 31.6672V31.5032C63.1888 30.8573 63.2669 30.2714 63.4231 29.7454C63.5846 29.2141 63.8111 28.7584 64.1028 28.3782C64.3997 27.998 64.7513 27.7063 65.1575 27.5032C65.569 27.2948 66.0273 27.1907 66.5325 27.1907C67.0638 27.1907 67.5273 27.2844 67.9231 27.4719C68.3242 27.6542 68.6627 27.9224 68.9388 28.2766C69.22 28.6256 69.4414 29.0474 69.6028 29.5422C69.7643 30.037 69.8763 30.5969 69.9388 31.2219V31.9407C69.8815 32.5605 69.7695 33.1178 69.6028 33.6125C69.4414 34.1073 69.22 34.5292 68.9388 34.8782C68.6627 35.2271 68.3242 35.4954 67.9231 35.6829C67.5221 35.8652 67.0533 35.9563 66.5169 35.9563C66.0221 35.9563 65.569 35.8495 65.1575 35.636C64.7513 35.4224 64.3997 35.123 64.1028 34.7375C63.8111 34.3521 63.5846 33.899 63.4231 33.3782C63.2669 32.8521 63.1888 32.2818 63.1888 31.6672ZM64.6419 31.5032V31.6672C64.6419 32.0891 64.6835 32.4849 64.7669 32.8547C64.8554 33.2245 64.9908 33.55 65.1731 33.8313C65.3554 34.1125 65.5872 34.3339 65.8684 34.4954C66.1497 34.6516 66.4856 34.7297 66.8763 34.7297C67.3554 34.7297 67.7486 34.6282 68.0559 34.425C68.3684 34.2219 68.6184 33.9537 68.8059 33.6204C68.9934 33.287 69.1393 32.925 69.2434 32.5344V30.6516C69.1809 30.3652 69.0898 30.0891 68.97 29.8235C68.8554 29.5527 68.7044 29.3131 68.5169 29.1047C68.3346 28.8912 68.108 28.7219 67.8372 28.5969C67.5716 28.4719 67.2565 28.4094 66.8919 28.4094C66.496 28.4094 66.1549 28.4928 65.8684 28.6594C65.5872 28.8209 65.3554 29.0448 65.1731 29.3313C64.9908 29.6125 64.8554 29.9407 64.7669 30.3157C64.6835 30.6855 64.6419 31.0813 64.6419 31.5032ZM81.5325 34.3547V30.0032C81.5325 29.6698 81.4648 29.3808 81.3294 29.136C81.1992 28.886 81.0013 28.6933 80.7356 28.5579C80.47 28.4224 80.1419 28.3547 79.7513 28.3547C79.3867 28.3547 79.0664 28.4172 78.7903 28.5422C78.5195 28.6672 78.3059 28.8313 78.1497 29.0344C77.9986 29.2375 77.9231 29.4563 77.9231 29.6907H76.4778C76.4778 29.3886 76.5559 29.0891 76.7122 28.7922C76.8684 28.4954 77.0924 28.2271 77.3841 27.9875C77.6809 27.7428 78.0351 27.55 78.4466 27.4094C78.8632 27.2636 79.3268 27.1907 79.8372 27.1907C80.4518 27.1907 80.9934 27.2948 81.4622 27.5032C81.9361 27.7115 82.3059 28.0266 82.5716 28.4485C82.8424 28.8652 82.9778 29.3886 82.9778 30.0188V33.9563C82.9778 34.2375 83.0013 34.537 83.0481 34.8547C83.1002 35.1724 83.1757 35.4459 83.2747 35.675V35.8H81.7669C81.694 35.6334 81.6367 35.412 81.595 35.136C81.5533 34.8547 81.5325 34.5943 81.5325 34.3547ZM81.7825 30.675L81.7981 31.6907H80.3372C79.9257 31.6907 79.5585 31.7245 79.2356 31.7922C78.9127 31.8547 78.6419 31.9511 78.4231 32.0813C78.2044 32.2115 78.0377 32.3756 77.9231 32.5735C77.8085 32.7662 77.7513 32.9928 77.7513 33.2532C77.7513 33.5188 77.8111 33.761 77.9309 33.9797C78.0507 34.1985 78.2304 34.373 78.47 34.5032C78.7148 34.6282 79.0143 34.6907 79.3684 34.6907C79.8111 34.6907 80.2018 34.5969 80.5403 34.4094C80.8789 34.2219 81.1471 33.9928 81.345 33.7219C81.5481 33.4511 81.6575 33.1881 81.6731 32.9329L82.2903 33.6282C82.2539 33.8469 82.1549 34.0891 81.9934 34.3547C81.832 34.6204 81.6158 34.8756 81.345 35.1204C81.0794 35.3599 80.7617 35.5605 80.3919 35.7219C80.0273 35.8782 79.6158 35.9563 79.1575 35.9563C78.5846 35.9563 78.082 35.8443 77.6497 35.6204C77.2226 35.3964 76.8893 35.0969 76.6497 34.7219C76.4153 34.3417 76.2981 33.9172 76.2981 33.4485C76.2981 32.9954 76.3867 32.5969 76.5638 32.2532C76.7408 31.9042 76.996 31.6152 77.3294 31.386C77.6627 31.1516 78.0638 30.9745 78.5325 30.8547C79.0013 30.7349 79.5247 30.675 80.1028 30.675H81.7825ZM86.8216 23.8V35.8H85.3684V23.8H86.8216ZM91.2825 34.3L93.4544 27.3469H94.4075L94.22 28.7297L92.0091 35.8H91.0794L91.2825 34.3ZM89.8216 27.3469L91.6731 34.3782L91.8059 35.8H90.8294L88.3763 27.3469H89.8216ZM96.4856 34.3235L98.2513 27.3469H99.6888L97.2356 35.8H96.2669L96.4856 34.3235ZM94.6184 27.3469L96.7434 34.1829L96.9856 35.8H96.0638L93.7903 28.7141L93.6028 27.3469H94.6184ZM106.158 34.3547V30.0032C106.158 29.6698 106.09 29.3808 105.954 29.136C105.824 28.886 105.626 28.6933 105.361 28.5579C105.095 28.4224 104.767 28.3547 104.376 28.3547C104.012 28.3547 103.691 28.4172 103.415 28.5422C103.144 28.6672 102.931 28.8313 102.775 29.0344C102.624 29.2375 102.548 29.4563 102.548 29.6907H101.103C101.103 29.3886 101.181 29.0891 101.337 28.7922C101.493 28.4954 101.717 28.2271 102.009 27.9875C102.306 27.7428 102.66 27.55 103.072 27.4094C103.488 27.2636 103.952 27.1907 104.462 27.1907C105.077 27.1907 105.618 27.2948 106.087 27.5032C106.561 27.7115 106.931 28.0266 107.197 28.4485C107.467 28.8652 107.603 29.3886 107.603 30.0188V33.9563C107.603 34.2375 107.626 34.537 107.673 34.8547C107.725 35.1724 107.801 35.4459 107.9 35.675V35.8H106.392C106.319 35.6334 106.262 35.412 106.22 35.136C106.178 34.8547 106.158 34.5943 106.158 34.3547ZM106.408 30.675L106.423 31.6907H104.962C104.551 31.6907 104.184 31.7245 103.861 31.7922C103.538 31.8547 103.267 31.9511 103.048 32.0813C102.829 32.2115 102.663 32.3756 102.548 32.5735C102.434 32.7662 102.376 32.9928 102.376 33.2532C102.376 33.5188 102.436 33.761 102.556 33.9797C102.676 34.1985 102.855 34.373 103.095 34.5032C103.34 34.6282 103.639 34.6907 103.993 34.6907C104.436 34.6907 104.827 34.5969 105.165 34.4094C105.504 34.2219 105.772 33.9928 105.97 33.7219C106.173 33.4511 106.283 33.1881 106.298 32.9329L106.915 33.6282C106.879 33.8469 106.78 34.0891 106.618 34.3547C106.457 34.6204 106.241 34.8756 105.97 35.1204C105.704 35.3599 105.387 35.5605 105.017 35.7219C104.652 35.8782 104.241 35.9563 103.783 35.9563C103.21 35.9563 102.707 35.8443 102.275 35.6204C101.848 35.3964 101.514 35.0969 101.275 34.7219C101.04 34.3417 100.923 33.9172 100.923 33.4485C100.923 32.9954 101.012 32.5969 101.189 32.2532C101.366 31.9042 101.621 31.6152 101.954 31.386C102.288 31.1516 102.689 30.9745 103.158 30.8547C103.626 30.7349 104.15 30.675 104.728 30.675H106.408ZM112.126 34.925L114.478 27.3469H116.025L112.634 37.1047C112.556 37.3131 112.452 37.537 112.322 37.7766C112.197 38.0214 112.035 38.2532 111.837 38.4719C111.639 38.6907 111.4 38.8678 111.118 39.0032C110.842 39.1438 110.512 39.2141 110.126 39.2141C110.012 39.2141 109.866 39.1985 109.689 39.1672C109.512 39.136 109.387 39.1099 109.314 39.0891L109.306 37.9172C109.348 37.9224 109.413 37.9277 109.501 37.9329C109.595 37.9433 109.66 37.9485 109.697 37.9485C110.025 37.9485 110.303 37.9042 110.533 37.8157C110.762 37.7323 110.954 37.5891 111.111 37.386C111.272 37.1881 111.41 36.9146 111.525 36.5657L112.126 34.925ZM110.4 27.3469L112.595 33.9094L112.97 35.4329L111.931 35.9641L108.822 27.3469H110.4ZM122.251 33.5579C122.251 33.3495 122.204 33.1568 122.111 32.9797C122.022 32.7974 121.837 32.6334 121.556 32.4875C121.28 32.3365 120.863 32.2063 120.306 32.0969C119.837 31.998 119.413 31.8808 119.033 31.7454C118.658 31.6099 118.337 31.4459 118.072 31.2532C117.811 31.0605 117.611 30.8339 117.47 30.5735C117.329 30.3131 117.259 30.0084 117.259 29.6594C117.259 29.3261 117.332 29.011 117.478 28.7141C117.629 28.4172 117.84 28.1542 118.111 27.925C118.387 27.6959 118.717 27.5162 119.103 27.386C119.488 27.2558 119.918 27.1907 120.392 27.1907C121.069 27.1907 121.647 27.3105 122.126 27.55C122.605 27.7896 122.973 28.1099 123.228 28.511C123.483 28.9068 123.611 29.3469 123.611 29.8313H122.165C122.165 29.5969 122.095 29.3704 121.954 29.1516C121.819 28.9277 121.618 28.7428 121.353 28.5969C121.092 28.4511 120.772 28.3782 120.392 28.3782C119.991 28.3782 119.665 28.4407 119.415 28.5657C119.171 28.6855 118.991 28.8391 118.876 29.0266C118.767 29.2141 118.712 29.412 118.712 29.6204C118.712 29.7766 118.738 29.9172 118.79 30.0422C118.848 30.162 118.947 30.274 119.087 30.3782C119.228 30.4771 119.426 30.5709 119.681 30.6594C119.936 30.748 120.262 30.8365 120.658 30.925C121.35 31.0813 121.921 31.2688 122.368 31.4875C122.816 31.7063 123.15 31.9745 123.368 32.2922C123.587 32.6099 123.697 32.9954 123.697 33.4485C123.697 33.8183 123.618 34.1568 123.462 34.4641C123.311 34.7714 123.09 35.037 122.798 35.261C122.512 35.4797 122.168 35.6516 121.767 35.7766C121.371 35.8964 120.926 35.9563 120.431 35.9563C119.686 35.9563 119.056 35.8235 118.54 35.5579C118.025 35.2922 117.634 34.9485 117.368 34.5266C117.103 34.1047 116.97 33.6594 116.97 33.1907H118.423C118.444 33.5865 118.559 33.9016 118.767 34.136C118.975 34.3652 119.23 34.5292 119.533 34.6282C119.835 34.7219 120.134 34.7688 120.431 34.7688C120.827 34.7688 121.158 34.7167 121.423 34.6125C121.694 34.5084 121.9 34.3652 122.04 34.1829C122.181 34.0006 122.251 33.7922 122.251 33.5579ZM131.009 23.8V35.8H129.564V23.8H131.009ZM130.665 31.2532L130.064 31.2297C130.069 30.6516 130.155 30.1178 130.322 29.6282C130.488 29.1334 130.723 28.7037 131.025 28.3391C131.327 27.9745 131.686 27.6933 132.103 27.4954C132.525 27.2922 132.991 27.1907 133.501 27.1907C133.918 27.1907 134.293 27.248 134.626 27.3625C134.96 27.4719 135.243 27.649 135.478 27.8938C135.717 28.1386 135.9 28.4563 136.025 28.8469C136.15 29.2323 136.212 29.7037 136.212 30.261V35.8H134.759V30.2454C134.759 29.8027 134.694 29.4485 134.564 29.1829C134.434 28.912 134.243 28.7167 133.993 28.5969C133.743 28.4719 133.436 28.4094 133.072 28.4094C132.712 28.4094 132.384 28.4849 132.087 28.636C131.796 28.787 131.543 28.9954 131.329 29.261C131.121 29.5266 130.957 29.8313 130.837 30.175C130.723 30.5136 130.665 30.873 130.665 31.2532ZM143.361 34.3547V30.0032C143.361 29.6698 143.293 29.3808 143.158 29.136C143.027 28.886 142.829 28.6933 142.564 28.5579C142.298 28.4224 141.97 28.3547 141.579 28.3547C141.215 28.3547 140.894 28.4172 140.618 28.5422C140.348 28.6672 140.134 28.8313 139.978 29.0344C139.827 29.2375 139.751 29.4563 139.751 29.6907H138.306C138.306 29.3886 138.384 29.0891 138.54 28.7922C138.697 28.4954 138.921 28.2271 139.212 27.9875C139.509 27.7428 139.863 27.55 140.275 27.4094C140.691 27.2636 141.155 27.1907 141.665 27.1907C142.28 27.1907 142.822 27.2948 143.29 27.5032C143.764 27.7115 144.134 28.0266 144.4 28.4485C144.671 28.8652 144.806 29.3886 144.806 30.0188V33.9563C144.806 34.2375 144.829 34.537 144.876 34.8547C144.928 35.1724 145.004 35.4459 145.103 35.675V35.8H143.595C143.522 35.6334 143.465 35.412 143.423 35.136C143.381 34.8547 143.361 34.5943 143.361 34.3547ZM143.611 30.675L143.626 31.6907H142.165C141.754 31.6907 141.387 31.7245 141.064 31.7922C140.741 31.8547 140.47 31.9511 140.251 32.0813C140.033 32.2115 139.866 32.3756 139.751 32.5735C139.637 32.7662 139.579 32.9928 139.579 33.2532C139.579 33.5188 139.639 33.761 139.759 33.9797C139.879 34.1985 140.059 34.373 140.298 34.5032C140.543 34.6282 140.842 34.6907 141.197 34.6907C141.639 34.6907 142.03 34.5969 142.368 34.4094C142.707 34.2219 142.975 33.9928 143.173 33.7219C143.376 33.4511 143.486 33.1881 143.501 32.9329L144.118 33.6282C144.082 33.8469 143.983 34.0891 143.822 34.3547C143.66 34.6204 143.444 34.8756 143.173 35.1204C142.908 35.3599 142.59 35.5605 142.22 35.7219C141.855 35.8782 141.444 35.9563 140.986 35.9563C140.413 35.9563 139.91 35.8443 139.478 35.6204C139.051 35.3964 138.717 35.0969 138.478 34.7219C138.243 34.3417 138.126 33.9172 138.126 33.4485C138.126 32.9954 138.215 32.5969 138.392 32.2532C138.569 31.9042 138.824 31.6152 139.158 31.386C139.491 31.1516 139.892 30.9745 140.361 30.8547C140.829 30.7349 141.353 30.675 141.931 30.675H143.611ZM149.525 34.4954L151.837 27.3469H153.314L150.275 35.8H149.306L149.525 34.4954ZM147.595 27.3469L149.978 34.5344L150.142 35.8H149.173L146.111 27.3469H147.595ZM158.103 35.9563C157.514 35.9563 156.98 35.8573 156.501 35.6594C156.027 35.4563 155.618 35.1724 155.275 34.8079C154.936 34.4433 154.676 34.011 154.493 33.511C154.311 33.011 154.22 32.4641 154.22 31.8704V31.5422C154.22 30.8547 154.322 30.2428 154.525 29.7063C154.728 29.1646 155.004 28.7063 155.353 28.3313C155.702 27.9563 156.098 27.6724 156.54 27.4797C156.983 27.287 157.441 27.1907 157.915 27.1907C158.519 27.1907 159.04 27.2948 159.478 27.5032C159.921 27.7115 160.283 28.0032 160.564 28.3782C160.845 28.748 161.053 29.1855 161.189 29.6907C161.324 30.1907 161.392 30.7375 161.392 31.3313V31.9797H155.079V30.8H159.947V30.6907C159.926 30.3157 159.848 29.9511 159.712 29.5969C159.582 29.2428 159.374 28.9511 159.087 28.7219C158.801 28.4928 158.41 28.3782 157.915 28.3782C157.587 28.3782 157.285 28.4485 157.009 28.5891C156.733 28.7245 156.496 28.9277 156.298 29.1985C156.1 29.4693 155.947 29.8 155.837 30.1907C155.728 30.5813 155.673 31.0318 155.673 31.5422V31.8704C155.673 32.2714 155.728 32.649 155.837 33.0032C155.952 33.3521 156.116 33.6594 156.329 33.925C156.548 34.1907 156.811 34.399 157.118 34.55C157.431 34.7011 157.785 34.7766 158.181 34.7766C158.691 34.7766 159.124 34.6724 159.478 34.4641C159.832 34.2558 160.142 33.9771 160.408 33.6282L161.283 34.3235C161.1 34.5995 160.868 34.8625 160.587 35.1125C160.306 35.3625 159.96 35.5657 159.548 35.7219C159.142 35.8782 158.66 35.9563 158.103 35.9563ZM170.431 34.7688C170.775 34.7688 171.092 34.6985 171.384 34.5579C171.676 34.4172 171.915 34.2245 172.103 33.9797C172.29 33.7297 172.397 33.4459 172.423 33.1282H173.798C173.772 33.6282 173.603 34.0943 173.29 34.5266C172.983 34.9537 172.579 35.3 172.079 35.5657C171.579 35.8261 171.03 35.9563 170.431 35.9563C169.796 35.9563 169.241 35.8443 168.767 35.6204C168.298 35.3964 167.908 35.0891 167.595 34.6985C167.288 34.3079 167.056 33.8599 166.9 33.3547C166.749 32.8443 166.673 32.3053 166.673 31.7375V31.4094C166.673 30.8417 166.749 30.3053 166.9 29.8C167.056 29.2896 167.288 28.8391 167.595 28.4485C167.908 28.0579 168.298 27.7506 168.767 27.5266C169.241 27.3027 169.796 27.1907 170.431 27.1907C171.092 27.1907 171.671 27.3261 172.165 27.5969C172.66 27.8625 173.048 28.2271 173.329 28.6907C173.616 29.149 173.772 29.6698 173.798 30.2532H172.423C172.397 29.9042 172.298 29.5891 172.126 29.3079C171.96 29.0266 171.73 28.8027 171.439 28.636C171.152 28.4641 170.816 28.3782 170.431 28.3782C169.988 28.3782 169.616 28.4667 169.314 28.6438C169.017 28.8157 168.78 29.05 168.603 29.3469C168.431 29.6386 168.306 29.9641 168.228 30.3235C168.155 30.6777 168.118 31.0396 168.118 31.4094V31.7375C168.118 32.1073 168.155 32.4719 168.228 32.8313C168.301 33.1907 168.423 33.5162 168.595 33.8079C168.772 34.0995 169.009 34.3339 169.306 34.511C169.608 34.6829 169.983 34.7688 170.431 34.7688ZM175.04 31.6672V31.4875C175.04 30.8782 175.129 30.3131 175.306 29.7922C175.483 29.2662 175.738 28.8105 176.072 28.425C176.405 28.0344 176.809 27.7323 177.283 27.5188C177.756 27.3 178.288 27.1907 178.876 27.1907C179.47 27.1907 180.004 27.3 180.478 27.5188C180.957 27.7323 181.363 28.0344 181.697 28.425C182.035 28.8105 182.293 29.2662 182.47 29.7922C182.647 30.3131 182.736 30.8782 182.736 31.4875V31.6672C182.736 32.2766 182.647 32.8417 182.47 33.3625C182.293 33.8834 182.035 34.3391 181.697 34.7297C181.363 35.1152 180.96 35.4172 180.486 35.636C180.017 35.8495 179.486 35.9563 178.892 35.9563C178.298 35.9563 177.764 35.8495 177.29 35.636C176.816 35.4172 176.41 35.1152 176.072 34.7297C175.738 34.3391 175.483 33.8834 175.306 33.3625C175.129 32.8417 175.04 32.2766 175.04 31.6672ZM176.486 31.4875V31.6672C176.486 32.0891 176.535 32.4875 176.634 32.8625C176.733 33.2323 176.881 33.5605 177.079 33.8469C177.283 34.1334 177.535 34.3599 177.837 34.5266C178.139 34.6881 178.491 34.7688 178.892 34.7688C179.288 34.7688 179.634 34.6881 179.931 34.5266C180.233 34.3599 180.483 34.1334 180.681 33.8469C180.879 33.5605 181.027 33.2323 181.126 32.8625C181.23 32.4875 181.283 32.0891 181.283 31.6672V31.4875C181.283 31.0709 181.23 30.6777 181.126 30.3079C181.027 29.9329 180.876 29.6021 180.673 29.3157C180.475 29.024 180.225 28.7948 179.923 28.6282C179.626 28.4615 179.277 28.3782 178.876 28.3782C178.48 28.3782 178.131 28.4615 177.829 28.6282C177.533 28.7948 177.283 29.024 177.079 29.3157C176.881 29.6021 176.733 29.9329 176.634 30.3079C176.535 30.6777 176.486 31.0709 176.486 31.4875ZM185.993 29.1516V35.8H184.548V27.3469H185.915L185.993 29.1516ZM185.65 31.2532L185.048 31.2297C185.053 30.6516 185.139 30.1178 185.306 29.6282C185.473 29.1334 185.707 28.7037 186.009 28.3391C186.311 27.9745 186.671 27.6933 187.087 27.4954C187.509 27.2922 187.975 27.1907 188.486 27.1907C188.902 27.1907 189.277 27.248 189.611 27.3625C189.944 27.4719 190.228 27.649 190.462 27.8938C190.702 28.1386 190.884 28.4563 191.009 28.8469C191.134 29.2323 191.197 29.7037 191.197 30.261V35.8H189.743V30.2454C189.743 29.8027 189.678 29.4485 189.548 29.1829C189.418 28.912 189.228 28.7167 188.978 28.5969C188.728 28.4719 188.421 28.4094 188.056 28.4094C187.697 28.4094 187.368 28.4849 187.072 28.636C186.78 28.787 186.527 28.9954 186.314 29.261C186.105 29.5266 185.941 29.8313 185.822 30.175C185.707 30.5136 185.65 30.873 185.65 31.2532ZM196.931 27.3469V28.4563H192.361V27.3469H196.931ZM193.908 25.2922H195.353V33.7063C195.353 33.9928 195.397 34.2089 195.486 34.3547C195.574 34.5006 195.689 34.5969 195.829 34.6438C195.97 34.6907 196.121 34.7141 196.283 34.7141C196.402 34.7141 196.527 34.7037 196.658 34.6829C196.793 34.6568 196.894 34.636 196.962 34.6204L196.97 35.8C196.855 35.8365 196.704 35.8704 196.517 35.9016C196.335 35.9381 196.113 35.9563 195.853 35.9563C195.499 35.9563 195.173 35.886 194.876 35.7454C194.579 35.6047 194.342 35.3704 194.165 35.0422C193.993 34.7089 193.908 34.261 193.908 33.6985V25.2922ZM200.072 28.675V35.8H198.626V27.3469H200.033L200.072 28.675ZM202.712 27.3L202.704 28.6438C202.585 28.6178 202.47 28.6021 202.361 28.5969C202.256 28.5865 202.137 28.5813 202.001 28.5813C201.668 28.5813 201.374 28.6334 201.118 28.7375C200.863 28.8417 200.647 28.9875 200.47 29.175C200.293 29.3625 200.152 29.5865 200.048 29.8469C199.949 30.1021 199.884 30.3834 199.853 30.6907L199.447 30.925C199.447 30.4146 199.496 29.9355 199.595 29.4875C199.699 29.0396 199.858 28.6438 200.072 28.3C200.285 27.9511 200.556 27.6803 200.884 27.4875C201.217 27.2896 201.613 27.1907 202.072 27.1907C202.176 27.1907 202.296 27.2037 202.431 27.2297C202.566 27.2506 202.66 27.274 202.712 27.3ZM203.509 31.6672V31.4875C203.509 30.8782 203.598 30.3131 203.775 29.7922C203.952 29.2662 204.207 28.8105 204.54 28.425C204.874 28.0344 205.277 27.7323 205.751 27.5188C206.225 27.3 206.756 27.1907 207.345 27.1907C207.939 27.1907 208.473 27.3 208.947 27.5188C209.426 27.7323 209.832 28.0344 210.165 28.425C210.504 28.8105 210.762 29.2662 210.939 29.7922C211.116 30.3131 211.204 30.8782 211.204 31.4875V31.6672C211.204 32.2766 211.116 32.8417 210.939 33.3625C210.762 33.8834 210.504 34.3391 210.165 34.7297C209.832 35.1152 209.428 35.4172 208.954 35.636C208.486 35.8495 207.954 35.9563 207.361 35.9563C206.767 35.9563 206.233 35.8495 205.759 35.636C205.285 35.4172 204.879 35.1152 204.54 34.7297C204.207 34.3391 203.952 33.8834 203.775 33.3625C203.598 32.8417 203.509 32.2766 203.509 31.6672ZM204.954 31.4875V31.6672C204.954 32.0891 205.004 32.4875 205.103 32.8625C205.202 33.2323 205.35 33.5605 205.548 33.8469C205.751 34.1334 206.004 34.3599 206.306 34.5266C206.608 34.6881 206.96 34.7688 207.361 34.7688C207.756 34.7688 208.103 34.6881 208.4 34.5266C208.702 34.3599 208.952 34.1334 209.15 33.8469C209.348 33.5605 209.496 33.2323 209.595 32.8625C209.699 32.4875 209.751 32.0891 209.751 31.6672V31.4875C209.751 31.0709 209.699 30.6777 209.595 30.3079C209.496 29.9329 209.345 29.6021 209.142 29.3157C208.944 29.024 208.694 28.7948 208.392 28.6282C208.095 28.4615 207.746 28.3782 207.345 28.3782C206.949 28.3782 206.6 28.4615 206.298 28.6282C206.001 28.7948 205.751 29.024 205.548 29.3157C205.35 29.6021 205.202 29.9329 205.103 30.3079C205.004 30.6777 204.954 31.0709 204.954 31.4875ZM214.587 23.8V35.8H213.134V23.8H214.587ZM220.493 31.6672V31.4875C220.493 30.8782 220.582 30.3131 220.759 29.7922C220.936 29.2662 221.191 28.8105 221.525 28.425C221.858 28.0344 222.262 27.7323 222.736 27.5188C223.21 27.3 223.741 27.1907 224.329 27.1907C224.923 27.1907 225.457 27.3 225.931 27.5188C226.41 27.7323 226.816 28.0344 227.15 28.425C227.488 28.8105 227.746 29.2662 227.923 29.7922C228.1 30.3131 228.189 30.8782 228.189 31.4875V31.6672C228.189 32.2766 228.1 32.8417 227.923 33.3625C227.746 33.8834 227.488 34.3391 227.15 34.7297C226.816 35.1152 226.413 35.4172 225.939 35.636C225.47 35.8495 224.939 35.9563 224.345 35.9563C223.751 35.9563 223.217 35.8495 222.743 35.636C222.269 35.4172 221.863 35.1152 221.525 34.7297C221.191 34.3391 220.936 33.8834 220.759 33.3625C220.582 32.8417 220.493 32.2766 220.493 31.6672ZM221.939 31.4875V31.6672C221.939 32.0891 221.988 32.4875 222.087 32.8625C222.186 33.2323 222.335 33.5605 222.533 33.8469C222.736 34.1334 222.988 34.3599 223.29 34.5266C223.592 34.6881 223.944 34.7688 224.345 34.7688C224.741 34.7688 225.087 34.6881 225.384 34.5266C225.686 34.3599 225.936 34.1334 226.134 33.8469C226.332 33.5605 226.48 33.2323 226.579 32.8625C226.684 32.4875 226.736 32.0891 226.736 31.6672V31.4875C226.736 31.0709 226.684 30.6777 226.579 30.3079C226.48 29.9329 226.329 29.6021 226.126 29.3157C225.928 29.024 225.678 28.7948 225.376 28.6282C225.079 28.4615 224.73 28.3782 224.329 28.3782C223.934 28.3782 223.585 28.4615 223.283 28.6282C222.986 28.7948 222.736 29.024 222.533 29.3157C222.335 29.6021 222.186 29.9329 222.087 30.3079C221.988 30.6777 221.939 31.0709 221.939 31.4875ZM232.158 35.8H230.712V26.4563C230.712 25.8469 230.822 25.3339 231.04 24.9172C231.264 24.4954 231.585 24.1777 232.001 23.9641C232.418 23.7454 232.913 23.636 233.486 23.636C233.652 23.636 233.819 23.6464 233.986 23.6672C234.158 23.6881 234.324 23.7193 234.486 23.761L234.408 24.9407C234.298 24.9146 234.173 24.8964 234.033 24.886C233.897 24.8756 233.762 24.8704 233.626 24.8704C233.319 24.8704 233.053 24.9329 232.829 25.0579C232.611 25.1777 232.444 25.3547 232.329 25.5891C232.215 25.8235 232.158 26.1125 232.158 26.4563V35.8ZM233.954 27.3469V28.4563H229.376V27.3469H233.954ZM241.908 34.925L244.259 27.3469H245.806L242.415 37.1047C242.337 37.3131 242.233 37.537 242.103 37.7766C241.978 38.0214 241.816 38.2532 241.618 38.4719C241.421 38.6907 241.181 38.8678 240.9 39.0032C240.624 39.1438 240.293 39.2141 239.908 39.2141C239.793 39.2141 239.647 39.1985 239.47 39.1672C239.293 39.136 239.168 39.1099 239.095 39.0891L239.087 37.9172C239.129 37.9224 239.194 37.9277 239.283 37.9329C239.376 37.9433 239.441 37.9485 239.478 37.9485C239.806 37.9485 240.085 37.9042 240.314 37.8157C240.543 37.7323 240.736 37.5891 240.892 37.386C241.053 37.1881 241.191 36.9146 241.306 36.5657L241.908 34.925ZM240.181 27.3469L242.376 33.9094L242.751 35.4329L241.712 35.9641L238.603 27.3469H240.181ZM246.603 31.6672V31.4875C246.603 30.8782 246.691 30.3131 246.868 29.7922C247.046 29.2662 247.301 28.8105 247.634 28.425C247.967 28.0344 248.371 27.7323 248.845 27.5188C249.319 27.3 249.85 27.1907 250.439 27.1907C251.033 27.1907 251.566 27.3 252.04 27.5188C252.519 27.7323 252.926 28.0344 253.259 28.425C253.598 28.8105 253.855 29.2662 254.033 29.7922C254.21 30.3131 254.298 30.8782 254.298 31.4875V31.6672C254.298 32.2766 254.21 32.8417 254.033 33.3625C253.855 33.8834 253.598 34.3391 253.259 34.7297C252.926 35.1152 252.522 35.4172 252.048 35.636C251.579 35.8495 251.048 35.9563 250.454 35.9563C249.861 35.9563 249.327 35.8495 248.853 35.636C248.379 35.4172 247.973 35.1152 247.634 34.7297C247.301 34.3391 247.046 33.8834 246.868 33.3625C246.691 32.8417 246.603 32.2766 246.603 31.6672ZM248.048 31.4875V31.6672C248.048 32.0891 248.098 32.4875 248.197 32.8625C248.296 33.2323 248.444 33.5605 248.642 33.8469C248.845 34.1334 249.098 34.3599 249.4 34.5266C249.702 34.6881 250.053 34.7688 250.454 34.7688C250.85 34.7688 251.197 34.6881 251.493 34.5266C251.796 34.3599 252.046 34.1334 252.243 33.8469C252.441 33.5605 252.59 33.2323 252.689 32.8625C252.793 32.4875 252.845 32.0891 252.845 31.6672V31.4875C252.845 31.0709 252.793 30.6777 252.689 30.3079C252.59 29.9329 252.439 29.6021 252.236 29.3157C252.038 29.024 251.788 28.7948 251.486 28.6282C251.189 28.4615 250.84 28.3782 250.439 28.3782C250.043 28.3782 249.694 28.4615 249.392 28.6282C249.095 28.7948 248.845 29.024 248.642 29.3157C248.444 29.6021 248.296 29.9329 248.197 30.3079C248.098 30.6777 248.048 31.0709 248.048 31.4875ZM261.283 33.8469V27.3469H262.736V35.8H261.353L261.283 33.8469ZM261.556 32.0657L262.158 32.05C262.158 32.6125 262.098 33.1334 261.978 33.6125C261.863 34.0865 261.676 34.498 261.415 34.8469C261.155 35.1959 260.814 35.4693 260.392 35.6672C259.97 35.8599 259.457 35.9563 258.853 35.9563C258.441 35.9563 258.064 35.8964 257.72 35.7766C257.381 35.6568 257.09 35.4719 256.845 35.2219C256.6 34.9719 256.41 34.6464 256.275 34.2454C256.144 33.8443 256.079 33.3625 256.079 32.8V27.3469H257.525V32.8157C257.525 33.1959 257.566 33.511 257.65 33.761C257.738 34.0058 257.855 34.2011 258.001 34.3469C258.152 34.4875 258.319 34.5865 258.501 34.6438C258.689 34.7011 258.881 34.7297 259.079 34.7297C259.694 34.7297 260.181 34.6125 260.54 34.3782C260.9 34.1386 261.158 33.8183 261.314 33.4172C261.475 33.011 261.556 32.5605 261.556 32.0657ZM266.384 28.675V35.8H264.939V27.3469H266.345L266.384 28.675ZM269.025 27.3L269.017 28.6438C268.897 28.6178 268.783 28.6021 268.673 28.5969C268.569 28.5865 268.449 28.5813 268.314 28.5813C267.98 28.5813 267.686 28.6334 267.431 28.7375C267.176 28.8417 266.96 28.9875 266.783 29.175C266.605 29.3625 266.465 29.5865 266.361 29.8469C266.262 30.1021 266.197 30.3834 266.165 30.6907L265.759 30.925C265.759 30.4146 265.809 29.9355 265.908 29.4875C266.012 29.0396 266.171 28.6438 266.384 28.3C266.598 27.9511 266.868 27.6803 267.197 27.4875C267.53 27.2896 267.926 27.1907 268.384 27.1907C268.488 27.1907 268.608 27.2037 268.743 27.2297C268.879 27.2506 268.973 27.274 269.025 27.3ZM273.947 31.6672V31.4875C273.947 30.8782 274.035 30.3131 274.212 29.7922C274.389 29.2662 274.644 28.8105 274.978 28.425C275.311 28.0344 275.715 27.7323 276.189 27.5188C276.663 27.3 277.194 27.1907 277.783 27.1907C278.376 27.1907 278.91 27.3 279.384 27.5188C279.863 27.7323 280.269 28.0344 280.603 28.425C280.941 28.8105 281.199 29.2662 281.376 29.7922C281.553 30.3131 281.642 30.8782 281.642 31.4875V31.6672C281.642 32.2766 281.553 32.8417 281.376 33.3625C281.199 33.8834 280.941 34.3391 280.603 34.7297C280.269 35.1152 279.866 35.4172 279.392 35.636C278.923 35.8495 278.392 35.9563 277.798 35.9563C277.204 35.9563 276.671 35.8495 276.197 35.636C275.723 35.4172 275.316 35.1152 274.978 34.7297C274.644 34.3391 274.389 33.8834 274.212 33.3625C274.035 32.8417 273.947 32.2766 273.947 31.6672ZM275.392 31.4875V31.6672C275.392 32.0891 275.441 32.4875 275.54 32.8625C275.639 33.2323 275.788 33.5605 275.986 33.8469C276.189 34.1334 276.441 34.3599 276.743 34.5266C277.046 34.6881 277.397 34.7688 277.798 34.7688C278.194 34.7688 278.54 34.6881 278.837 34.5266C279.139 34.3599 279.389 34.1334 279.587 33.8469C279.785 33.5605 279.934 33.2323 280.033 32.8625C280.137 32.4875 280.189 32.0891 280.189 31.6672V31.4875C280.189 31.0709 280.137 30.6777 280.033 30.3079C279.934 29.9329 279.783 29.6021 279.579 29.3157C279.381 29.024 279.131 28.7948 278.829 28.6282C278.533 28.4615 278.184 28.3782 277.783 28.3782C277.387 28.3782 277.038 28.4615 276.736 28.6282C276.439 28.7948 276.189 29.024 275.986 29.3157C275.788 29.6021 275.639 29.9329 275.54 30.3079C275.441 30.6777 275.392 31.0709 275.392 31.4875ZM285.595 34.3L287.767 27.3469H288.72L288.533 28.7297L286.322 35.8H285.392L285.595 34.3ZM284.134 27.3469L285.986 34.3782L286.118 35.8H285.142L282.689 27.3469H284.134ZM290.798 34.3235L292.564 27.3469H294.001L291.548 35.8H290.579L290.798 34.3235ZM288.931 27.3469L291.056 34.1829L291.298 35.8H290.376L288.103 28.7141L287.915 27.3469H288.931ZM296.931 29.1516V35.8H295.486V27.3469H296.853L296.931 29.1516ZM296.587 31.2532L295.986 31.2297C295.991 30.6516 296.077 30.1178 296.243 29.6282C296.41 29.1334 296.644 28.7037 296.947 28.3391C297.249 27.9745 297.608 27.6933 298.025 27.4954C298.447 27.2922 298.913 27.1907 299.423 27.1907C299.84 27.1907 300.215 27.248 300.548 27.3625C300.881 27.4719 301.165 27.649 301.4 27.8938C301.639 28.1386 301.822 28.4563 301.947 28.8469C302.072 29.2323 302.134 29.7037 302.134 30.261V35.8H300.681V30.2454C300.681 29.8027 300.616 29.4485 300.486 29.1829C300.355 28.912 300.165 28.7167 299.915 28.5969C299.665 28.4719 299.358 28.4094 298.993 28.4094C298.634 28.4094 298.306 28.4849 298.009 28.636C297.717 28.787 297.465 28.9954 297.251 29.261C297.043 29.5266 296.879 29.8313 296.759 30.175C296.644 30.5136 296.587 30.873 296.587 31.2532ZM128.4 56.7688C128.743 56.7688 129.061 56.6985 129.353 56.5579C129.644 56.4172 129.884 56.2245 130.072 55.9797C130.259 55.7297 130.366 55.4459 130.392 55.1282H131.767C131.741 55.6282 131.572 56.0943 131.259 56.5266C130.952 56.9537 130.548 57.3 130.048 57.5657C129.548 57.8261 128.999 57.9563 128.4 57.9563C127.764 57.9563 127.21 57.8443 126.736 57.6204C126.267 57.3964 125.876 57.0891 125.564 56.6985C125.256 56.3079 125.025 55.8599 124.868 55.3547C124.717 54.8443 124.642 54.3053 124.642 53.7375V53.4094C124.642 52.8417 124.717 52.3053 124.868 51.8C125.025 51.2896 125.256 50.8391 125.564 50.4485C125.876 50.0579 126.267 49.7506 126.736 49.5266C127.21 49.3027 127.764 49.1907 128.4 49.1907C129.061 49.1907 129.639 49.3261 130.134 49.5969C130.629 49.8625 131.017 50.2271 131.298 50.6907C131.585 51.149 131.741 51.6698 131.767 52.2532H130.392C130.366 51.9042 130.267 51.5891 130.095 51.3079C129.928 51.0266 129.699 50.8027 129.408 50.636C129.121 50.4641 128.785 50.3782 128.4 50.3782C127.957 50.3782 127.585 50.4667 127.283 50.6438C126.986 50.8157 126.749 51.05 126.572 51.3469C126.4 51.6386 126.275 51.9641 126.197 52.3235C126.124 52.6777 126.087 53.0396 126.087 53.4094V53.7375C126.087 54.1073 126.124 54.4719 126.197 54.8313C126.269 55.1907 126.392 55.5162 126.564 55.8079C126.741 56.0995 126.978 56.3339 127.275 56.511C127.577 56.6829 127.952 56.7688 128.4 56.7688ZM133.009 53.6672V53.4875C133.009 52.8782 133.098 52.3131 133.275 51.7922C133.452 51.2662 133.707 50.8105 134.04 50.425C134.374 50.0344 134.777 49.7323 135.251 49.5188C135.725 49.3 136.256 49.1907 136.845 49.1907C137.439 49.1907 137.973 49.3 138.447 49.5188C138.926 49.7323 139.332 50.0344 139.665 50.425C140.004 50.8105 140.262 51.2662 140.439 51.7922C140.616 52.3131 140.704 52.8782 140.704 53.4875V53.6672C140.704 54.2766 140.616 54.8417 140.439 55.3625C140.262 55.8834 140.004 56.3391 139.665 56.7297C139.332 57.1152 138.928 57.4172 138.454 57.636C137.986 57.8495 137.454 57.9563 136.861 57.9563C136.267 57.9563 135.733 57.8495 135.259 57.636C134.785 57.4172 134.379 57.1152 134.04 56.7297C133.707 56.3391 133.452 55.8834 133.275 55.3625C133.098 54.8417 133.009 54.2766 133.009 53.6672ZM134.454 53.4875V53.6672C134.454 54.0891 134.504 54.4875 134.603 54.8625C134.702 55.2323 134.85 55.5605 135.048 55.8469C135.251 56.1334 135.504 56.3599 135.806 56.5266C136.108 56.6881 136.46 56.7688 136.861 56.7688C137.256 56.7688 137.603 56.6881 137.9 56.5266C138.202 56.3599 138.452 56.1334 138.65 55.8469C138.848 55.5605 138.996 55.2323 139.095 54.8625C139.199 54.4875 139.251 54.0891 139.251 53.6672V53.4875C139.251 53.0709 139.199 52.6777 139.095 52.3079C138.996 51.9329 138.845 51.6021 138.642 51.3157C138.444 51.024 138.194 50.7948 137.892 50.6282C137.595 50.4615 137.246 50.3782 136.845 50.3782C136.449 50.3782 136.1 50.4615 135.798 50.6282C135.501 50.7948 135.251 51.024 135.048 51.3157C134.85 51.6021 134.702 51.9329 134.603 52.3079C134.504 52.6777 134.454 53.0709 134.454 53.4875ZM143.962 51.1516V57.8H142.517V49.3469H143.884L143.962 51.1516ZM143.618 53.2532L143.017 53.2297C143.022 52.6516 143.108 52.1178 143.275 51.6282C143.441 51.1334 143.676 50.7037 143.978 50.3391C144.28 49.9745 144.639 49.6933 145.056 49.4954C145.478 49.2922 145.944 49.1907 146.454 49.1907C146.871 49.1907 147.246 49.248 147.579 49.3625C147.913 49.4719 148.197 49.649 148.431 49.8938C148.671 50.1386 148.853 50.4563 148.978 50.8469C149.103 51.2323 149.165 51.7037 149.165 52.261V57.8H147.712V52.2454C147.712 51.8027 147.647 51.4485 147.517 51.1829C147.387 50.912 147.197 50.7167 146.947 50.5969C146.697 50.4719 146.389 50.4094 146.025 50.4094C145.665 50.4094 145.337 50.4849 145.04 50.636C144.749 50.787 144.496 50.9954 144.283 51.261C144.074 51.5266 143.91 51.8313 143.79 52.175C143.676 52.5136 143.618 52.873 143.618 53.2532ZM154.9 49.3469V50.4563H150.329V49.3469H154.9ZM151.876 47.2922H153.322V55.7063C153.322 55.9928 153.366 56.2089 153.454 56.3547C153.543 56.5006 153.658 56.5969 153.798 56.6438C153.939 56.6907 154.09 56.7141 154.251 56.7141C154.371 56.7141 154.496 56.7037 154.626 56.6829C154.762 56.6568 154.863 56.636 154.931 56.6204L154.939 57.8C154.824 57.8365 154.673 57.8704 154.486 57.9016C154.303 57.9381 154.082 57.9563 153.822 57.9563C153.467 57.9563 153.142 57.886 152.845 57.7454C152.548 57.6047 152.311 57.3704 152.134 57.0422C151.962 56.7089 151.876 56.261 151.876 55.6985V47.2922ZM160.103 57.9563C159.514 57.9563 158.98 57.8573 158.501 57.6594C158.027 57.4563 157.618 57.1724 157.275 56.8079C156.936 56.4433 156.676 56.011 156.493 55.511C156.311 55.011 156.22 54.4641 156.22 53.8704V53.5422C156.22 52.8547 156.322 52.2428 156.525 51.7063C156.728 51.1646 157.004 50.7063 157.353 50.3313C157.702 49.9563 158.098 49.6724 158.54 49.4797C158.983 49.287 159.441 49.1907 159.915 49.1907C160.519 49.1907 161.04 49.2948 161.478 49.5032C161.921 49.7115 162.283 50.0032 162.564 50.3782C162.845 50.748 163.053 51.1855 163.189 51.6907C163.324 52.1907 163.392 52.7375 163.392 53.3313V53.9797H157.079V52.8H161.947V52.6907C161.926 52.3157 161.848 51.9511 161.712 51.5969C161.582 51.2428 161.374 50.9511 161.087 50.7219C160.801 50.4928 160.41 50.3782 159.915 50.3782C159.587 50.3782 159.285 50.4485 159.009 50.5891C158.733 50.7245 158.496 50.9277 158.298 51.1985C158.1 51.4693 157.947 51.8 157.837 52.1907C157.728 52.5813 157.673 53.0318 157.673 53.5422V53.8704C157.673 54.2714 157.728 54.649 157.837 55.0032C157.952 55.3521 158.116 55.6594 158.329 55.925C158.548 56.1907 158.811 56.399 159.118 56.55C159.431 56.7011 159.785 56.7766 160.181 56.7766C160.691 56.7766 161.124 56.6724 161.478 56.4641C161.832 56.2558 162.142 55.9771 162.408 55.6282L163.283 56.3235C163.1 56.5995 162.868 56.8625 162.587 57.1125C162.306 57.3625 161.96 57.5657 161.548 57.7219C161.142 57.8782 160.66 57.9563 160.103 57.9563ZM166.525 51.1516V57.8H165.079V49.3469H166.447L166.525 51.1516ZM166.181 53.2532L165.579 53.2297C165.585 52.6516 165.671 52.1178 165.837 51.6282C166.004 51.1334 166.238 50.7037 166.54 50.3391C166.842 49.9745 167.202 49.6933 167.618 49.4954C168.04 49.2922 168.506 49.1907 169.017 49.1907C169.434 49.1907 169.809 49.248 170.142 49.3625C170.475 49.4719 170.759 49.649 170.993 49.8938C171.233 50.1386 171.415 50.4563 171.54 50.8469C171.665 51.2323 171.728 51.7037 171.728 52.261V57.8H170.275V52.2454C170.275 51.8027 170.21 51.4485 170.079 51.1829C169.949 50.912 169.759 50.7167 169.509 50.5969C169.259 50.4719 168.952 50.4094 168.587 50.4094C168.228 50.4094 167.9 50.4849 167.603 50.636C167.311 50.787 167.059 50.9954 166.845 51.261C166.637 51.5266 166.473 51.8313 166.353 52.175C166.238 52.5136 166.181 52.873 166.181 53.2532ZM177.462 49.3469V50.4563H172.892V49.3469H177.462ZM174.439 47.2922H175.884V55.7063C175.884 55.9928 175.928 56.2089 176.017 56.3547C176.105 56.5006 176.22 56.5969 176.361 56.6438C176.501 56.6907 176.652 56.7141 176.814 56.7141C176.934 56.7141 177.059 56.7037 177.189 56.6829C177.324 56.6568 177.426 56.636 177.493 56.6204L177.501 57.8C177.387 57.8365 177.236 57.8704 177.048 57.9016C176.866 57.9381 176.644 57.9563 176.384 57.9563C176.03 57.9563 175.704 57.886 175.408 57.7454C175.111 57.6047 174.874 57.3704 174.697 57.0422C174.525 56.7089 174.439 56.261 174.439 55.6985V47.2922ZM179.181 57.0344C179.181 56.7896 179.256 56.5839 179.408 56.4172C179.564 56.2454 179.788 56.1594 180.079 56.1594C180.371 56.1594 180.592 56.2454 180.743 56.4172C180.9 56.5839 180.978 56.7896 180.978 57.0344C180.978 57.274 180.9 57.4771 180.743 57.6438C180.592 57.8105 180.371 57.8938 180.079 57.8938C179.788 57.8938 179.564 57.8105 179.408 57.6438C179.256 57.4771 179.181 57.274 179.181 57.0344Z" fill="#2D2F31"></path></svg>