<svg width="26" height="30" viewBox="0 0 26 30" fill="none" xmlns="http://www.w3.org/2000/svg">
<path fill-rule="evenodd" clip-rule="evenodd" d="M5.77607 7.28105H3.84107C3.19663 7.28118 2.57614 7.52539 2.1045 7.96456C1.63286 8.40372 1.34509 9.00526 1.29908 9.64806L0.0510646 27.123C0.0260657 27.4721 0.0732466 27.8226 0.189675 28.1527C0.306104 28.4827 0.489292 28.7853 0.727792 29.0414C0.966292 29.2975 1.25502 29.5018 1.57594 29.6414C1.89686 29.7811 2.2431 29.8531 2.59309 29.853H22.7651C23.1151 29.8531 23.4613 29.7811 23.7822 29.6414C24.1032 29.5018 24.3918 29.2975 24.6304 29.0414C24.8689 28.7853 25.052 28.4827 25.1685 28.1527C25.2849 27.8226 25.3321 27.4721 25.3071 27.123L24.0591 9.64806C24.013 9.00526 23.7253 8.40372 23.2536 7.96456C22.782 7.52539 22.1615 7.28118 21.5171 7.28105H19.5971V6.91704C19.5971 5.08254 18.8683 3.32318 17.5711 2.02599C16.274 0.728799 14.5146 4.77574e-05 12.6801 4.77574e-05C11.7673 -0.0157962 10.8608 0.152308 10.0144 0.49431C9.16804 0.836313 8.39922 1.34522 7.75373 1.99071C7.10825 2.6362 6.59934 3.40502 6.25733 4.25139C5.91533 5.09776 5.74723 6.00432 5.76307 6.91704C5.76807 7.03804 5.77208 7.15905 5.77708 7.28105H5.77607ZM19.5961 9.46504V14.926C19.5961 15.2157 19.481 15.4934 19.2762 15.6982C19.0714 15.903 18.7937 16.0181 18.5041 16.0181C18.2145 16.0181 17.9367 15.903 17.7319 15.6982C17.5271 15.4934 17.4121 15.2157 17.4121 14.926V9.46504H7.94706V14.926C7.94706 15.2157 7.83203 15.4934 7.62724 15.6982C7.42245 15.903 7.1447 16.0181 6.85508 16.0181C6.56546 16.0181 6.28771 15.903 6.08292 15.6982C5.87814 15.4934 5.76307 15.2157 5.76307 14.926C5.76307 14.926 5.85806 12.374 5.82606 9.46504H3.84208C3.75005 9.46506 3.66144 9.49993 3.59409 9.56264C3.52674 9.62535 3.48565 9.71127 3.47907 9.80306L2.23008 27.2781C2.22651 27.3279 2.23323 27.378 2.24986 27.4251C2.26648 27.4722 2.29264 27.5155 2.3267 27.552C2.36076 27.5886 2.40199 27.6178 2.44782 27.6378C2.49365 27.6577 2.5431 27.668 2.59309 27.668H22.7651C22.8151 27.668 22.8645 27.6577 22.9103 27.6378C22.9562 27.6178 22.9974 27.5886 23.0314 27.552C23.0655 27.5155 23.0917 27.4722 23.1083 27.4251C23.1249 27.378 23.1316 27.3279 23.1281 27.2781L21.8801 9.80004C21.8737 9.70816 21.8327 9.62213 21.7653 9.55937C21.6979 9.49662 21.6092 9.46183 21.5171 9.46205L19.5961 9.46504ZM17.4121 7.28105V6.91704C17.4121 5.66177 16.9134 4.45791 16.0258 3.5703C15.1382 2.68269 13.9344 2.18404 12.6791 2.18404C11.4238 2.18404 10.22 2.68269 9.33235 3.5703C8.44474 4.45791 7.94608 5.66177 7.94608 6.91704V7.28105H17.4121Z" fill="#363B46"/>
</svg>
