<svg width="28" height="28" viewBox="0 0 28 28" fill="none" xmlns="http://www.w3.org/2000/svg">
<path fill-rule="evenodd" clip-rule="evenodd" d="M14 28C21.732 28 28 21.732 28 14C28 6.268 21.732 0 14 0C6.268 0 0 6.268 0 14C0 21.732 6.268 28 14 28Z" fill="#E92B2B"/>
<path d="M14 7.3042L15.4369 11.9542H20.087L16.325 14.8281L17.7619 19.4781L14 16.6042L10.2381 19.4781L11.675 14.8281L7.91309 11.9542H12.5631L14 7.3042Z" fill="#FFE70E"/>
<path fill-rule="evenodd" clip-rule="evenodd" d="M28 14.0003C28 21.7322 21.7317 28 14.0002 28C6.26827 28 0 21.7322 0 14.0003C0 6.26828 6.26827 0.000488281 14.0002 0.000488281C21.7317 0.000488281 28 6.26828 28 14.0003Z" fill="#FBFAFB"/>
<mask id="mask0_6_20" style="mask-type:alpha" maskUnits="userSpaceOnUse" x="0" y="0" width="28" height="28">
<path fill-rule="evenodd" clip-rule="evenodd" d="M0.000610352 14.0002C0.000610352 21.7317 6.26793 28 13.9999 28C21.7319 28 27.9997 21.7317 27.9997 14.0002C27.9997 6.26827 21.7319 0 13.9999 0C6.26793 0 0.000610352 6.26827 0.000610352 14.0002Z" fill="white"/>
</mask>
<g mask="url(#mask0_6_20)">
<path fill-rule="evenodd" clip-rule="evenodd" d="M16.3529 27.738C16.3421 24.0465 16.3496 20.3556 16.3378 16.6642C16.3369 16.3761 16.4144 16.3221 16.6874 16.3231C20.367 16.3325 24.0475 16.325 27.7271 16.3382C28.0289 16.3392 28.1288 16.2531 28.1491 15.9683C28.1671 15.719 28.1524 15.4578 28.2745 15.2237V12.8308C28.1453 12.5309 28.1737 12.205 28.1255 11.8922C28.0947 11.6921 28.0332 11.6382 27.8321 11.6387C24.1161 11.6453 20.3996 11.6396 16.6831 11.651C16.3946 11.6519 16.3378 11.5753 16.3387 11.3004C16.3487 7.62888 16.3416 3.95686 16.3529 0.284833C16.3534 0.00287953 16.272 -0.0836935 15.9995 -0.117755C14.6177 -0.291374 13.2406 -0.29232 11.8606 -0.0950474C11.6349 -0.0628781 11.6529 0.0506603 11.6534 0.202991C11.6548 2.82715 11.6543 5.45131 11.6543 8.07546C11.6543 9.16969 11.6477 10.2634 11.66 11.3577C11.6624 11.5862 11.6056 11.6496 11.371 11.6491C7.65448 11.641 3.93846 11.6458 0.221966 11.6377C-0.0230882 11.6373 -0.111554 11.6997 -0.136154 11.9481C-0.164065 12.2243 -0.148454 12.5134 -0.274292 12.775V15.2237C-0.141357 15.4843 -0.164538 15.7748 -0.1371 16.0506C-0.111554 16.3042 -0.00463821 16.3344 0.214869 16.334C3.13943 16.3269 6.06352 16.3292 8.98855 16.3292C9.78711 16.3292 10.5857 16.3368 11.3837 16.3245C11.5971 16.3207 11.6605 16.3713 11.66 16.5946C11.6524 20.3012 11.6586 24.0077 11.6472 27.7138C11.6463 27.9977 11.7277 28.0918 12.0002 28.1164C12.2589 28.1396 12.5305 28.1174 12.7732 28.2456H15.1154C15.4087 28.1306 15.7233 28.1448 16.0284 28.1112C16.2815 28.0833 16.3534 28.0005 16.3529 27.738Z" fill="#E02127"/>
</g>
<mask id="mask1_6_20" style="mask-type:alpha" maskUnits="userSpaceOnUse" x="0" y="0" width="28" height="28">
<path fill-rule="evenodd" clip-rule="evenodd" d="M0.000610352 14.0002C0.000610352 21.7317 6.26793 28 13.9999 28C21.7319 28 27.9997 21.7317 27.9997 14.0002C27.9997 6.26827 21.7319 0 13.9999 0C6.26793 0 0.000610352 6.26827 0.000610352 14.0002Z" fill="white"/>
</mask>
<g mask="url(#mask1_6_20)">
<path fill-rule="evenodd" clip-rule="evenodd" d="M10.0935 0.479209C10.094 0.263486 9.99845 0.320255 9.87498 0.357155C8.48224 0.775355 7.18411 1.3913 5.98392 2.21114C5.47536 2.55838 4.98241 2.92644 4.51501 3.36498C6.36995 4.74068 8.20454 6.10173 10.0898 7.49967C10.0898 5.113 10.0879 2.79587 10.0935 0.479209Z" fill="#283679"/>
</g>
<mask id="mask2_6_20" style="mask-type:alpha" maskUnits="userSpaceOnUse" x="0" y="0" width="28" height="28">
<path fill-rule="evenodd" clip-rule="evenodd" d="M0.000610352 14.0002C0.000610352 21.7317 6.26793 28 13.9999 28C21.7319 28 27.9997 21.7317 27.9997 14.0002C27.9997 6.26827 21.7319 0 13.9999 0C6.26793 0 0.000610352 6.26827 0.000610352 14.0002Z" fill="white"/>
</mask>
<g mask="url(#mask2_6_20)">
<path fill-rule="evenodd" clip-rule="evenodd" d="M17.9114 7.31808C17.9114 7.35923 17.8892 7.4108 17.9673 7.45763C19.8 6.09754 21.6402 4.73176 23.4919 3.35748C21.9009 1.96237 20.125 0.960869 18.1262 0.351546C17.9058 0.284369 17.9077 0.370469 17.9081 0.535573C17.9114 2.79641 17.91 5.05724 17.9114 7.31808Z" fill="#283679"/>
</g>
<mask id="mask3_6_20" style="mask-type:alpha" maskUnits="userSpaceOnUse" x="0" y="0" width="28" height="28">
<path fill-rule="evenodd" clip-rule="evenodd" d="M0.000610352 14.0002C0.000610352 21.7317 6.26793 28 13.9999 28C21.7319 28 27.9997 21.7317 27.9997 14.0002C27.9997 6.26827 21.7319 0 13.9999 0C6.26793 0 0.000610352 6.26827 0.000610352 14.0002Z" fill="white"/>
</mask>
<g mask="url(#mask3_6_20)">
<path fill-rule="evenodd" clip-rule="evenodd" d="M17.9114 9.84513C17.8987 10.0107 17.9483 10.0779 18.1257 10.0698C18.4224 10.0571 18.7195 10.0646 19.0165 10.067C19.123 10.0675 19.2119 10.0396 19.2994 9.97476C21.2897 8.50396 23.2809 7.03364 25.2768 5.56947C25.4149 5.46823 25.3969 5.40815 25.3047 5.29461C25.0057 4.92797 24.6991 4.56938 24.3822 4.21741C24.2426 4.06224 24.157 4.05515 23.9881 4.18146C22.1469 5.55764 20.3062 6.93524 18.447 8.28682C18.0515 8.57398 17.7705 8.85262 17.9143 9.37253C17.9143 9.53006 17.9237 9.68855 17.9114 9.84513Z" fill="#E02127"/>
</g>
<mask id="mask4_6_20" style="mask-type:alpha" maskUnits="userSpaceOnUse" x="0" y="0" width="28" height="28">
<path fill-rule="evenodd" clip-rule="evenodd" d="M0.000610352 14.0002C0.000610352 21.7317 6.26793 28 13.9999 28C21.7319 28 27.9997 21.7317 27.9997 14.0002C27.9997 6.26827 21.7319 0 13.9999 0C6.26793 0 0.000610352 6.26827 0.000610352 14.0002Z" fill="white"/>
</mask>
<g mask="url(#mask4_6_20)">
<path fill-rule="evenodd" clip-rule="evenodd" d="M1.70474 7.19855C2.95556 8.11111 4.20164 9.02936 5.44772 9.94807C5.53146 10.01 5.61046 10.0663 5.72069 10.0663C6.72314 10.0654 7.72559 10.0659 8.72804 10.0659C8.73419 10.0479 8.73987 10.0304 8.74602 10.0129C8.60693 9.90975 8.46879 9.80662 8.32971 9.70396C6.47194 8.33299 4.61322 6.9639 2.75876 5.58914C2.61825 5.48506 2.54918 5.47418 2.4399 5.63408C2.16173 6.03904 1.89444 6.45061 1.63189 6.8655C1.53491 7.01831 1.56613 7.09731 1.70474 7.19855Z" fill="#E02127"/>
</g>
<mask id="mask5_6_20" style="mask-type:alpha" maskUnits="userSpaceOnUse" x="0" y="0" width="28" height="28">
<path fill-rule="evenodd" clip-rule="evenodd" d="M0.000610352 14.0002C0.000610352 21.7317 6.26793 28 13.9999 28C21.7319 28 27.9997 21.7317 27.9997 14.0002C27.9997 6.26827 21.7319 0 13.9999 0C6.26793 0 0.000610352 6.26827 0.000610352 14.0002Z" fill="white"/>
</mask>
<g mask="url(#mask5_6_20)">
<path fill-rule="evenodd" clip-rule="evenodd" d="M0.427295 10.0703C1.55653 10.0694 2.68576 10.0698 3.81547 10.0698C3.8202 10.0509 3.82541 10.032 3.83014 10.0135C2.94974 9.35927 2.0684 8.705 1.18848 8.04932C1.10711 7.98876 1.05696 7.97268 1.00492 8.08811C0.736687 8.68702 0.504406 9.29777 0.315175 9.92601C0.278275 10.049 0.320852 10.0703 0.427295 10.0703Z" fill="#283679"/>
</g>
<mask id="mask6_6_20" style="mask-type:alpha" maskUnits="userSpaceOnUse" x="0" y="0" width="28" height="28">
<path fill-rule="evenodd" clip-rule="evenodd" d="M0.000610352 14.0002C0.000610352 21.7317 6.26793 28 13.9999 28C21.7319 28 27.9997 21.7317 27.9997 14.0002C27.9997 6.26827 21.7319 0 13.9999 0C6.26793 0 0.000610352 6.26827 0.000610352 14.0002Z" fill="white"/>
</mask>
<g mask="url(#mask6_6_20)">
<path fill-rule="evenodd" clip-rule="evenodd" d="M24.231 10.0652C25.3352 10.0671 26.4398 10.0652 27.544 10.0723C27.728 10.0737 27.7058 9.99852 27.6675 9.87268C27.4858 9.27945 27.2635 8.70371 27.0151 8.13507C26.9361 7.95389 26.8699 8.00687 26.761 8.08824C25.901 8.7302 25.039 9.3698 24.1572 10.0255C24.2012 10.0496 24.2159 10.0652 24.231 10.0652Z" fill="#283679"/>
</g>
<mask id="mask7_6_20" style="mask-type:alpha" maskUnits="userSpaceOnUse" x="0" y="0" width="28" height="28">
<path fill-rule="evenodd" clip-rule="evenodd" d="M0.000610352 14.0002C0.000610352 21.7317 6.26793 28 13.9999 28C21.7319 28 27.9997 21.7317 27.9997 14.0002C27.9997 6.26827 21.7319 0 13.9999 0C6.26793 0 0.000610352 6.26827 0.000610352 14.0002Z" fill="white"/>
</mask>
<g mask="url(#mask7_6_20)">
<path fill-rule="evenodd" clip-rule="evenodd" d="M23.3482 24.4973C22.0425 23.5364 20.7425 22.5676 19.4411 21.6011C18.9467 21.234 18.4519 20.8669 17.9675 20.5073C17.9315 20.5305 17.9178 20.5352 17.9178 20.5404C17.9145 22.8755 17.9135 25.2107 17.9083 27.5458C17.9079 27.7232 17.9888 27.683 18.098 27.6503C20.0637 27.0637 21.8131 26.0877 23.3653 24.7518C23.4968 24.6387 23.4812 24.5952 23.3482 24.4973Z" fill="#283679"/>
</g>
<mask id="mask8_6_20" style="mask-type:alpha" maskUnits="userSpaceOnUse" x="0" y="0" width="28" height="28">
<path fill-rule="evenodd" clip-rule="evenodd" d="M0.000610352 14.0002C0.000610352 21.7317 6.26793 28 13.9999 28C21.7319 28 27.9997 21.7317 27.9997 14.0002C27.9997 6.26827 21.7319 0 13.9999 0C6.26793 0 0.000610352 6.26827 0.000610352 14.0002Z" fill="white"/>
</mask>
<g mask="url(#mask8_6_20)">
<path fill-rule="evenodd" clip-rule="evenodd" d="M26.3617 20.7689C25.1076 19.8468 23.8577 18.9191 22.6093 17.9895C22.5227 17.9247 22.4394 17.8916 22.3316 17.8921C21.376 17.8949 20.4199 17.894 19.4458 17.894C19.4553 17.9342 19.4543 17.9451 19.4595 17.9489C21.4252 19.4187 23.3927 20.8871 25.3559 22.3608C25.4742 22.4497 25.5206 22.4147 25.592 22.3149C25.8877 21.8995 26.1592 21.4695 26.4199 21.0319C26.4918 20.9103 26.4757 20.8526 26.3617 20.7689Z" fill="#E02127"/>
</g>
<mask id="mask9_6_20" style="mask-type:alpha" maskUnits="userSpaceOnUse" x="0" y="0" width="28" height="28">
<path fill-rule="evenodd" clip-rule="evenodd" d="M0.000610352 14.0002C0.000610352 21.7317 6.26793 28 13.9999 28C21.7319 28 27.9997 21.7317 27.9997 14.0002C27.9997 6.26827 21.7319 0 13.9999 0C6.26793 0 0.000610352 6.26827 0.000610352 14.0002Z" fill="white"/>
</mask>
<g mask="url(#mask9_6_20)">
<path fill-rule="evenodd" clip-rule="evenodd" d="M24.5589 18.2303C25.2936 18.7757 26.0273 19.3221 26.7648 19.8638C26.8344 19.9154 26.9219 20.0696 27.0123 19.8662C27.2933 19.2341 27.5421 18.5912 27.7257 17.9053H24.1237C24.2977 18.0354 24.4283 18.1328 24.5589 18.2303Z" fill="#283679"/>
</g>
<mask id="mask10_6_20" style="mask-type:alpha" maskUnits="userSpaceOnUse" x="0" y="0" width="28" height="28">
<path fill-rule="evenodd" clip-rule="evenodd" d="M0.000610352 14.0002C0.000610352 21.7317 6.26793 28 13.9999 28C21.7319 28 27.9997 21.7317 27.9997 14.0002C27.9997 6.26827 21.7319 0 13.9999 0C6.26793 0 0.000610352 6.26827 0.000610352 14.0002Z" fill="white"/>
</mask>
<g mask="url(#mask10_6_20)">
<path fill-rule="evenodd" clip-rule="evenodd" d="M10.0729 27.6735V20.4771C8.19856 21.867 6.3564 23.2322 4.50146 24.608C5.6974 25.838 8.62764 27.4455 10.0729 27.6735Z" fill="#283679"/>
</g>
<mask id="mask11_6_20" style="mask-type:alpha" maskUnits="userSpaceOnUse" x="0" y="0" width="28" height="28">
<path fill-rule="evenodd" clip-rule="evenodd" d="M0.000610352 14.0002C0.000610352 21.7317 6.26793 28 13.9999 28C21.7319 28 27.9997 21.7317 27.9997 14.0002C27.9997 6.26827 21.7319 0 13.9999 0C6.26793 0 0.000610352 6.26827 0.000610352 14.0002Z" fill="white"/>
</mask>
<g mask="url(#mask11_6_20)">
<path fill-rule="evenodd" clip-rule="evenodd" d="M10.0882 18.0672C10.0948 17.9366 10.0522 17.8883 9.91642 17.8907C9.52661 17.8983 9.13679 17.8954 8.74698 17.8921C8.65662 17.8912 8.59086 17.9267 8.52179 17.9782C6.56941 19.4367 4.61607 20.8938 2.66037 22.3476C2.54967 22.4299 2.5194 22.4824 2.61732 22.604C2.93807 23.0004 3.26638 23.3898 3.60747 23.7692C3.74608 23.9239 3.83076 23.9163 3.98972 23.7975C5.8385 22.4171 7.68634 21.0343 9.5531 19.6785C9.94812 19.3913 10.2301 19.115 10.0858 18.5951C10.0858 18.4191 10.0792 18.2427 10.0882 18.0672Z" fill="#E02127"/>
<path fill-rule="evenodd" clip-rule="evenodd" d="M3.88733 17.9019H0.267822C0.464622 18.5921 0.70258 19.2492 0.999199 19.8845C1.0801 20.0586 1.16572 19.9186 1.23101 19.8708C1.75328 19.4881 2.27178 19.0997 2.79169 18.7137C3.14129 18.4539 3.49137 18.1956 3.88733 17.9019Z" fill="#283679"/>
</g>
</svg>
