<svg xmlns="http://www.w3.org/2000/svg" xmlns:xlink="http://www.w3.org/1999/xlink" width="45" height="45" viewBox="0 0 45 45">
  <defs>
    <filter id="Path_2" x="1.286" y="6.063" width="42.042" height="38.736" filterUnits="userSpaceOnUse">
      <feOffset dy="3" input="SourceAlpha"/>
      <feGaussianBlur stdDeviation="3" result="blur"/>
      <feFlood flood-opacity="0.161"/>
      <feComposite operator="in" in2="blur"/>
      <feComposite in="SourceGraphic"/>
    </filter>
  </defs>
  <g id="_1download" data-name="1download" transform="translate(-4)">
    <g id="Group_1" data-name="Group 1">
      <path id="Path_1" data-name="Path 1" d="M26.5,45A22.5,22.5,0,1,1,49,22.5,22.5,22.5,0,0,1,26.5,45Z" fill="rgba(255,255,255,0.5)"/>
    </g>
    <g id="Group_2" data-name="Group 2">
      <g transform="matrix(1, 0, 0, 1, 4, 0)" filter="url(#Path_2)">
        <path id="Path_2-2" data-name="Path 2" d="M16.845,19.759H29.239L26.081,16.6c-2.428-2.428,1.355-6.183,3.789-3.749l7.7,7.7a2.692,2.692,0,0,1-.02,3.769l-7.7,7.7c-2.428,2.428-6.183-1.355-3.749-3.789l3.139-3.139H16.883C13.442,25.089,13.411,19.759,16.845,19.759Z" transform="translate(-4)" fill="rgba(255,255,255,0.8)"/>
      </g>
    </g>
  </g>
</svg>
