<svg width="24" height="22" viewBox="0 0 24 22" fill="none" xmlns="http://www.w3.org/2000/svg">
<path d="M3.27698 5.96757C3.26707 4.95524 3.5582 3.96278 4.11342 3.11623C4.66864 2.26967 5.46289 1.60719 6.39534 1.2129C7.32779 0.818607 8.35637 0.710291 9.3505 0.901701C10.3446 1.09311 11.2594 1.57562 11.9788 2.28795C12.6982 3.00029 13.1897 3.91032 13.3909 4.90252C13.592 5.89471 13.4938 6.92431 13.1087 7.8606C12.7236 8.79688 12.069 9.59761 11.228 10.1611C10.3869 10.7246 9.39736 11.0255 8.38498 11.0256C7.03696 11.032 5.74159 10.5027 4.78371 9.5542C3.82582 8.60569 3.28386 7.31559 3.27698 5.96757Z" fill="#363B46"/>
<path d="M5.15697 13.3127L5.37197 13.2787C7.36958 12.9631 9.40437 12.9631 11.402 13.2787L11.616 13.3127C12.9725 13.5214 14.21 14.2076 15.1055 15.2476C16.0011 16.2877 16.496 17.6133 16.501 18.9857C16.4993 19.3496 16.4259 19.7096 16.2851 20.0452C16.1442 20.3807 15.9387 20.6852 15.6802 20.9413C15.4217 21.1974 15.1152 21.4001 14.7784 21.5378C14.4415 21.6755 14.0809 21.7455 13.717 21.7437H3.05797C2.32287 21.7472 1.61647 21.4586 1.09405 20.9415C0.571632 20.4243 0.275941 19.7208 0.271973 18.9857C0.276979 17.6133 0.771821 16.2877 1.6674 15.2476C2.56297 14.2076 3.80044 13.5214 5.15697 13.3127Z" fill="#363B46"/>
<path d="M15.599 0.906273C15.4792 0.902265 15.3599 0.922385 15.2482 0.965433C15.1364 1.00848 15.0344 1.07358 14.9483 1.15685C14.8622 1.24012 14.7937 1.33987 14.747 1.45015C14.7002 1.56043 14.6761 1.67899 14.6761 1.79877C14.6761 1.91856 14.7002 2.03712 14.747 2.1474C14.7937 2.25768 14.8622 2.35742 14.9483 2.4407C15.0344 2.52397 15.1364 2.58907 15.2482 2.63211C15.3599 2.67516 15.4792 2.69528 15.599 2.69127C16.0338 2.68367 16.4658 2.76276 16.8697 2.9239C17.2737 3.08505 17.6415 3.32504 17.9516 3.62985C18.2618 3.93467 18.5082 4.29822 18.6764 4.69928C18.8446 5.10034 18.9312 5.53088 18.9312 5.96577C18.9312 6.40067 18.8446 6.83121 18.6764 7.23227C18.5082 7.63333 18.2618 7.99687 17.9516 8.30169C17.6415 8.60651 17.2737 8.8465 16.8697 9.00764C16.4658 9.16879 16.0338 9.24787 15.599 9.24027C15.4792 9.23626 15.3599 9.25638 15.2482 9.29943C15.1364 9.34248 15.0344 9.40758 14.9483 9.49085C14.8622 9.57412 14.7937 9.67387 14.747 9.78415C14.7002 9.89443 14.6761 10.013 14.6761 10.1328C14.6761 10.2526 14.7002 10.3711 14.747 10.4814C14.7937 10.5917 14.8622 10.6914 14.9483 10.7747C15.0344 10.858 15.1364 10.9231 15.2482 10.9661C15.3599 11.0092 15.4792 11.0293 15.599 11.0253C16.941 11.0253 18.228 10.4922 19.1769 9.54323C20.1259 8.5943 20.659 7.30727 20.659 5.96527C20.659 4.62328 20.1259 3.33625 19.1769 2.38731C18.228 1.43838 16.941 0.906273 15.599 0.906273Z" fill="#363B46"/>
<path d="M17.091 13.2676C16.9713 13.2636 16.8519 13.2837 16.7402 13.3268C16.6284 13.3698 16.5264 13.4349 16.4403 13.5182C16.3542 13.6015 16.2857 13.7012 16.239 13.8115C16.1922 13.9218 16.1681 14.0403 16.1681 14.1601C16.1681 14.2799 16.1922 14.3985 16.239 14.5087C16.2857 14.619 16.3542 14.7188 16.4403 14.802C16.5264 14.8853 16.6284 14.9504 16.7402 14.9934C16.8519 15.0365 16.9713 15.0566 17.091 15.0526H18.255C18.3517 15.0528 18.4483 15.0602 18.544 15.0746C19.4786 15.2185 20.3311 15.6913 20.948 16.408C21.5649 17.1246 21.9057 18.038 21.909 18.9836C21.9084 19.112 21.8826 19.239 21.833 19.3574C21.7833 19.4758 21.7108 19.5833 21.6196 19.6736C21.5284 19.764 21.4203 19.8355 21.3015 19.8841C21.1826 19.9326 21.0554 19.9573 20.927 19.9566H18.467C18.3473 19.9526 18.2279 19.9727 18.1162 20.0158C18.0044 20.0588 17.9024 20.1239 17.8163 20.2072C17.7302 20.2905 17.6617 20.3902 17.615 20.5005C17.5682 20.6108 17.5441 20.7293 17.5441 20.8491C17.5441 20.9689 17.5682 21.0875 17.615 21.1977C17.6617 21.308 17.7302 21.4078 17.8163 21.491C17.9024 21.5743 18.0044 21.6394 18.1162 21.6824C18.2279 21.7255 18.3473 21.7456 18.467 21.7416H20.923C21.6581 21.7451 22.3645 21.4565 22.8869 20.9393C23.4093 20.4222 23.705 19.7187 23.709 18.9836C23.704 17.6111 23.2091 16.2855 22.3135 15.2455C21.418 14.2054 20.1805 13.5193 18.824 13.3106C18.6344 13.281 18.4428 13.2663 18.251 13.2666L17.091 13.2676Z" fill="#363B46"/>
</svg>
