<svg width="25" height="24" viewBox="0 0 25 24" fill="none" xmlns="http://www.w3.org/2000/svg">
<path d="M23.7469 11.1442H14.336C14.1389 11.1442 13.9499 11.0659 13.8106 10.9266C13.6712 10.7873 13.593 10.5983 13.593 10.4012C13.593 10.2042 13.6712 10.0152 13.8106 9.87582C13.9499 9.73648 14.1389 9.6582 14.336 9.6582H23.7469C23.944 9.6582 24.133 9.73648 24.2723 9.87582C24.4117 10.0152 24.49 10.2042 24.49 10.4012C24.49 10.5983 24.4117 10.7873 24.2723 10.9266C24.133 11.0659 23.944 11.1442 23.7469 11.1442Z" fill="#363B46"/>
<path d="M20.0319 14.8591C19.8849 14.8591 19.7412 14.8155 19.6189 14.7338C19.4966 14.6521 19.4013 14.536 19.3451 14.4001C19.2889 14.2642 19.2743 14.1147 19.3031 13.9705C19.3319 13.8263 19.4028 13.6939 19.5069 13.5901L22.6969 10.4001L19.5069 7.21008C19.3676 7.07071 19.2893 6.88167 19.2893 6.68457C19.2893 6.48747 19.3676 6.29844 19.5069 6.15907C19.6463 6.0197 19.8353 5.94141 20.0324 5.94141C20.2295 5.94141 20.4186 6.0197 20.5579 6.15907L24.2729 9.87407C24.342 9.94307 24.3967 10.025 24.4341 10.1152C24.4714 10.2053 24.4907 10.302 24.4907 10.3996C24.4907 10.4972 24.4714 10.5938 24.4341 10.684C24.3967 10.7742 24.342 10.8561 24.2729 10.9251L20.5579 14.6401C20.4892 14.7096 20.4072 14.7648 20.3169 14.8024C20.2266 14.84 20.1298 14.8592 20.0319 14.8591Z" fill="#363B46"/>
<path d="M8.63997 23.774C8.43181 23.7749 8.22474 23.7438 8.02597 23.682L2.06397 21.692C1.67201 21.5571 1.33165 21.3037 1.08998 20.9669C0.848313 20.6301 0.717265 20.2266 0.714966 19.812L0.714966 1.98104C0.715495 1.45581 0.924377 0.952241 1.29577 0.580846C1.66717 0.209451 2.17073 0.000568931 2.69597 3.94637e-05C2.9058 -0.00126477 3.11458 0.0297659 3.31497 0.0920395L9.27197 2.07804C9.66457 2.21319 10.0054 2.46718 10.2471 2.80477C10.4888 3.14237 10.6195 3.54683 10.621 3.96204V21.792C10.6207 22.3174 10.4119 22.8213 10.0405 23.1929C9.66909 23.5645 9.16537 23.7735 8.63997 23.774ZM2.69597 1.48604C2.56336 1.48604 2.43618 1.53872 2.34241 1.63249C2.24864 1.72625 2.19597 1.85343 2.19597 1.98604V19.812C2.19776 19.9172 2.23169 20.0192 2.29318 20.1045C2.35468 20.1897 2.44079 20.2541 2.53997 20.289L8.47397 22.266C8.52653 22.2816 8.58116 22.289 8.63597 22.288C8.76857 22.288 8.89575 22.2354 8.98952 22.1416C9.08329 22.0478 9.13597 21.9206 9.13597 21.788V3.96204C9.13417 3.85692 9.10024 3.75488 9.03875 3.66961C8.97725 3.58434 8.89114 3.51993 8.79197 3.48504L2.85797 1.50704C2.80535 1.49183 2.75072 1.48475 2.69597 1.48604Z" fill="#363B46"/>
<path d="M15.8209 7.925C15.7234 7.925 15.6268 7.90578 15.5366 7.86844C15.4465 7.8311 15.3646 7.77637 15.2956 7.70738C15.2266 7.63839 15.1718 7.55648 15.1345 7.46633C15.0972 7.37619 15.0779 7.27957 15.0779 7.182V2.724C15.0774 2.39582 14.9468 2.08124 14.7148 1.84919C14.4827 1.61713 14.1681 1.48653 13.8399 1.486H2.69594C2.49889 1.486 2.3099 1.40772 2.17056 1.26838C2.03122 1.12904 1.95294 0.940056 1.95294 0.743C1.95294 0.545944 2.03122 0.356959 2.17056 0.21762C2.3099 0.0782801 2.49889 2.93636e-09 2.69594 0H13.8399C14.5622 0.00052973 15.2548 0.287692 15.7655 0.798426C16.2763 1.30916 16.5634 2.00171 16.5639 2.724V7.182C16.5639 7.37906 16.4857 7.56804 16.3463 7.70738C16.207 7.84672 16.018 7.925 15.8209 7.925Z" fill="#363B46"/>
<path d="M13.8409 20.8029H9.87794C9.68089 20.8029 9.49191 20.7247 9.35257 20.5853C9.21323 20.446 9.13495 20.257 9.13495 20.0599C9.13495 19.8629 9.21323 19.6739 9.35257 19.5345C9.49191 19.3952 9.68089 19.3169 9.87794 19.3169H13.8409C14.1691 19.3164 14.4837 19.1858 14.7158 18.9537C14.9478 18.7217 15.0784 18.4071 15.0789 18.0789V13.6209C15.0789 13.4239 15.1572 13.2349 15.2966 13.0956C15.4359 12.9562 15.6249 12.8779 15.8219 12.8779C16.019 12.8779 16.208 12.9562 16.3473 13.0956C16.4867 13.2349 16.5649 13.4239 16.5649 13.6209V18.0789C16.5644 18.8012 16.2773 19.4938 15.7665 20.0045C15.2558 20.5153 14.5632 20.8024 13.8409 20.8029Z" fill="#363B46"/>
</svg>
