<svg width="25" height="25" viewBox="0 0 25 25" fill="none" xmlns="http://www.w3.org/2000/svg">
<path d="M20.701 24.8312H4.23898C3.23891 24.8301 2.2801 24.4324 1.57294 23.7252C0.865785 23.0181 0.468039 22.0593 0.46698 21.0592V4.5972C0.468039 3.59712 0.865785 2.63832 1.57294 1.93116C2.2801 1.224 3.23891 0.826254 4.23898 0.825195H20.701C21.7011 0.826254 22.6599 1.224 23.367 1.93116C24.0742 2.63832 24.4719 3.59712 24.473 4.5972V21.0592C24.4719 22.0593 24.0742 23.0181 23.367 23.7252C22.6599 24.4324 21.7011 24.8301 20.701 24.8312ZM4.23898 2.8832C3.78464 2.88399 3.34914 3.06482 3.02787 3.38609C2.70661 3.70736 2.52577 4.14286 2.52498 4.5972V21.0592C2.52524 21.5139 2.70585 21.9499 3.02717 22.2716C3.34849 22.5933 3.7843 22.7744 4.23898 22.7752H20.701C21.156 22.7749 21.5923 22.5941 21.9141 22.2723C22.2358 21.9505 22.4167 21.5142 22.417 21.0592V4.5972C22.4165 4.14251 22.2356 3.7066 21.9141 3.38509C21.5926 3.06358 21.1567 2.88272 20.702 2.8822L4.23898 2.8832Z" fill="#363B46"/>
<path d="M8.01198 12.8285V18.3155C8.01198 18.5884 7.90357 18.8501 7.71059 19.0431C7.51762 19.2361 7.25589 19.3445 6.98298 19.3445C6.71007 19.3445 6.44834 19.2361 6.25537 19.0431C6.06239 18.8501 5.95398 18.5884 5.95398 18.3155V12.8285C5.95398 12.5556 6.06239 12.2939 6.25537 12.1009C6.44834 11.9079 6.71007 11.7995 6.98298 11.7995C7.25589 11.7995 7.51762 11.9079 7.71059 12.1009C7.90357 12.2939 8.01198 12.5556 8.01198 12.8285ZM12.47 6.3125C12.1971 6.3125 11.9353 6.42091 11.7424 6.61389C11.5494 6.80686 11.441 7.06859 11.441 7.3415V18.3155C11.441 18.5884 11.5494 18.8501 11.7424 19.0431C11.9353 19.2361 12.1971 19.3445 12.47 19.3445C12.7429 19.3445 13.0046 19.2361 13.1976 19.0431C13.3906 18.8501 13.499 18.5884 13.499 18.3155V7.3415C13.499 7.06859 13.3906 6.80686 13.1976 6.61389C13.0046 6.42091 12.7429 6.3125 12.47 6.3125ZM17.957 9.0565C17.6841 9.0565 17.4223 9.16491 17.2294 9.35789C17.0364 9.55086 16.928 9.81259 16.928 10.0855V18.3165C16.928 18.5894 17.0364 18.8511 17.2294 19.0441C17.4223 19.2371 17.6841 19.3455 17.957 19.3455C18.2299 19.3455 18.4916 19.2371 18.6846 19.0441C18.8776 18.8511 18.986 18.5894 18.986 18.3165V10.0845C18.9857 9.81177 18.8772 9.55029 18.6842 9.35753C18.4913 9.16477 18.2297 9.0565 17.957 9.0565Z" fill="#363B46"/>
</svg>
