<svg width="37" height="37" viewBox="0 0 37 37" fill="none" xmlns="http://www.w3.org/2000/svg">
<path d="M32.643 0.138378H3.92C2.90523 0.119269 1.92398 0.501747 1.18982 1.20257C0.455667 1.90338 0.0280352 2.86581 0 3.88038V32.3584C0.0238693 33.3749 0.450011 34.3404 1.18492 35.043C1.91982 35.7457 2.90346 36.1281 3.92 36.1064H32.643C33.6587 36.127 34.6411 35.7441 35.3748 35.0415C36.1085 34.3389 36.5336 33.374 36.557 32.3584V3.88038C36.529 2.86687 36.1022 1.90536 35.3693 1.20471C34.6365 0.504058 33.6567 0.120869 32.643 0.138378ZM35.378 32.3584C35.3615 33.0682 35.0644 33.7425 34.5518 34.2337C34.0392 34.7249 33.3528 34.9931 32.643 34.9794H3.92C3.20921 34.9944 2.52147 34.7269 2.00762 34.2356C1.49378 33.7442 1.19579 33.0691 1.179 32.3584V8.60338H3.743C4.06094 8.61035 4.36865 8.49084 4.59853 8.27108C4.82841 8.05133 4.96166 7.74931 4.969 7.43138V6.58538C4.9703 6.51945 4.98462 6.45444 5.01114 6.39407C5.03767 6.33371 5.07587 6.27918 5.12355 6.23364C5.17123 6.1881 5.22745 6.15244 5.28896 6.12871C5.35048 6.10498 5.41609 6.09365 5.482 6.09538L13.062 6.11838C13.1364 6.11861 13.2095 6.13694 13.2752 6.17178C13.3409 6.20663 13.3971 6.25694 13.439 6.31838L14.665 8.08238C14.7811 8.24597 14.935 8.37907 15.1137 8.47031C15.2923 8.56155 15.4904 8.60823 15.691 8.60638H35.378V32.3584ZM28.771 4.64838C28.7834 4.90624 28.7182 5.16189 28.584 5.38238C28.4497 5.60287 28.2525 5.77807 28.0177 5.88541C27.7829 5.99274 27.5213 6.02728 27.2667 5.98457C27.0121 5.94187 26.7762 5.82387 26.5893 5.64579C26.4024 5.46772 26.2731 5.23774 26.2181 4.9855C26.1631 4.73327 26.185 4.47035 26.2809 4.23065C26.3767 3.99095 26.5422 3.78547 26.7559 3.64069C26.9696 3.49591 27.2218 3.41848 27.48 3.41838C27.8141 3.41112 28.1374 3.53644 28.3794 3.76694C28.6213 3.99743 28.7621 4.31435 28.771 4.64838ZM24.492 4.64838C24.5044 4.90619 24.4393 5.16181 24.305 5.38227C24.1708 5.60274 23.9736 5.77794 23.7389 5.8853C23.5042 5.99267 23.2427 6.02726 22.9881 5.98464C22.7335 5.94201 22.4976 5.82411 22.3106 5.64614C22.1237 5.46816 21.9943 5.23828 21.9393 4.98611C21.8842 4.73395 21.9059 4.47106 22.0016 4.23135C22.0973 3.99163 22.2626 3.78608 22.4762 3.64118C22.6898 3.49628 22.9419 3.41868 23.2 3.41838C23.5341 3.41112 23.8574 3.53644 24.0993 3.76694C24.3413 3.99743 24.4831 4.31435 24.492 4.64838ZM31.765 3.41838C32.0068 3.42935 32.24 3.51113 32.4357 3.65355C32.6314 3.79597 32.7809 3.99276 32.8657 4.21945C32.9505 4.44615 32.9668 4.69276 32.9126 4.92865C32.8584 5.16454 32.7361 5.3793 32.5609 5.54625C32.3857 5.71321 32.1652 5.82499 31.927 5.86771C31.6888 5.91044 31.4432 5.88222 31.2209 5.78656C30.9986 5.69091 30.8093 5.53203 30.6765 5.32968C30.5437 5.12732 30.4733 4.89041 30.474 4.64838C30.4821 4.31408 30.6227 3.99671 30.8648 3.76604C31.1069 3.53538 31.4307 3.41032 31.765 3.41838Z" fill="black"/>
<path d="M13.6041 18.624H4.86906C4.46256 18.6243 4.07279 18.7859 3.78536 19.0733C3.49792 19.3608 3.33632 19.7505 3.33606 20.157V31.457C3.33632 31.8635 3.49792 32.2533 3.78536 32.5407C4.07279 32.8282 4.46256 32.9898 4.86906 32.99H13.6051C14.0116 32.9898 14.4013 32.8282 14.6888 32.5407C14.9762 32.2533 15.1378 31.8635 15.1381 31.457V20.157C15.1378 19.7504 14.9761 19.3604 14.6884 19.073C14.4008 18.7855 14.0107 18.624 13.6041 18.624ZM10.6261 26.534L8.75506 27.695C8.62633 27.775 8.47858 27.8191 8.32708 27.8229C8.17558 27.8266 8.02584 27.7898 7.89331 27.7163C7.76079 27.6428 7.65029 27.5353 7.57325 27.4048C7.4962 27.2743 7.4554 27.1256 7.45506 26.974V24.643C7.4554 24.4915 7.4962 24.3428 7.57325 24.2123C7.65029 24.0818 7.76079 23.9742 7.89331 23.9007C8.02584 23.8272 8.17558 23.7904 8.32708 23.7942C8.47858 23.7979 8.62633 23.8421 8.75506 23.922L10.6261 25.083C10.7495 25.1597 10.8513 25.2665 10.9219 25.3934C10.9925 25.5204 11.0295 25.6633 11.0295 25.8085C11.0295 25.9538 10.9925 26.0966 10.9219 26.2236C10.8513 26.3505 10.7495 26.4574 10.6261 26.534Z" fill="black"/>
<path d="M3.33606 12.6048V15.3608C3.34836 15.7787 3.52575 16.1746 3.82939 16.462C4.13303 16.7493 4.53816 16.9046 4.95606 16.8938H31.6001C32.018 16.9046 32.4231 16.7493 32.7267 16.462C33.0304 16.1746 33.2078 15.7787 33.2201 15.3608V12.6048C33.2078 12.187 33.0304 11.791 32.7267 11.5037C32.4231 11.2163 32.018 11.061 31.6001 11.0718H4.95606C4.53816 11.061 4.13303 11.2163 3.82939 11.5037C3.52575 11.791 3.34836 12.187 3.33606 12.6048Z" fill="black"/>
<path d="M31.687 26.1934H21.96C21.5536 26.1939 21.164 26.3556 20.8766 26.6429C20.5892 26.9303 20.4275 27.3199 20.427 27.7264V31.4574C20.4273 31.8639 20.5889 32.2536 20.8763 32.5411C21.1637 32.8285 21.5535 32.9901 21.96 32.9904H31.687C32.0935 32.9901 32.4833 32.8285 32.7707 32.5411C33.0581 32.2536 33.2197 31.8639 33.22 31.4574V27.7264C33.2195 27.3199 33.0578 26.9303 32.7704 26.6429C32.483 26.3556 32.0934 26.1939 31.687 26.1934Z" fill="black"/>
<path d="M32.798 18.4829H21.025C20.949 18.4797 20.8731 18.4919 20.802 18.5188C20.7308 18.5457 20.6658 18.5867 20.6109 18.6393C20.556 18.6919 20.5123 18.7552 20.4825 18.8251C20.4526 18.8951 20.4373 18.9704 20.4373 19.0464C20.4373 19.1225 20.4526 19.1978 20.4825 19.2677C20.5123 19.3377 20.556 19.4009 20.6109 19.4535C20.6658 19.5062 20.7308 19.5472 20.802 19.574C20.8731 19.6009 20.949 19.6131 21.025 19.6099H32.798C32.874 19.6131 32.9499 19.6009 33.021 19.574C33.0922 19.5472 33.1572 19.5062 33.2121 19.4535C33.267 19.4009 33.3107 19.3377 33.3405 19.2677C33.3704 19.1978 33.3857 19.1225 33.3857 19.0464C33.3857 18.9704 33.3704 18.8951 33.3405 18.8251C33.3107 18.7552 33.267 18.6919 33.2121 18.6393C33.1572 18.5867 33.0922 18.5457 33.021 18.5188C32.9499 18.4919 32.874 18.4797 32.798 18.4829Z" fill="black"/>
<path d="M32.798 21.0532H21.025C20.949 21.05 20.8731 21.0622 20.802 21.0891C20.7308 21.116 20.6658 21.157 20.6109 21.2096C20.556 21.2623 20.5123 21.3255 20.4825 21.3954C20.4526 21.4654 20.4373 21.5407 20.4373 21.6167C20.4373 21.6928 20.4526 21.7681 20.4825 21.838C20.5123 21.908 20.556 21.9712 20.6109 22.0238C20.6658 22.0765 20.7308 22.1175 20.802 22.1444C20.8731 22.1712 20.949 22.1834 21.025 22.1802H32.798C32.874 22.1834 32.9499 22.1712 33.021 22.1444C33.0922 22.1175 33.1572 22.0765 33.2121 22.0238C33.267 21.9712 33.3107 21.908 33.3405 21.838C33.3704 21.7681 33.3857 21.6928 33.3857 21.6167C33.3857 21.5407 33.3704 21.4654 33.3405 21.3954C33.3107 21.3255 33.267 21.2623 33.2121 21.2096C33.1572 21.157 33.0922 21.116 33.021 21.0891C32.9499 21.0622 32.874 21.05 32.798 21.0532Z" fill="black"/>
<path d="M32.798 23.6235H21.025C20.949 23.6203 20.8731 23.6325 20.802 23.6594C20.7308 23.6863 20.6658 23.7273 20.6109 23.7799C20.556 23.8326 20.5123 23.8958 20.4825 23.9657C20.4526 24.0357 20.4373 24.111 20.4373 24.1871C20.4373 24.2631 20.4526 24.3384 20.4825 24.4084C20.5123 24.4783 20.556 24.5415 20.6109 24.5942C20.6658 24.6468 20.7308 24.6878 20.802 24.7147C20.8731 24.7415 20.949 24.7538 21.025 24.7505H32.798C32.874 24.7538 32.9499 24.7415 33.021 24.7147C33.0922 24.6878 33.1572 24.6468 33.2121 24.5942C33.267 24.5415 33.3107 24.4783 33.3405 24.4084C33.3704 24.3384 33.3857 24.2631 33.3857 24.1871C33.3857 24.111 33.3704 24.0357 33.3405 23.9657C33.3107 23.8958 33.267 23.8326 33.2121 23.7799C33.1572 23.7273 33.0922 23.6863 33.021 23.6594C32.9499 23.6325 32.874 23.6203 32.798 23.6235Z" fill="black"/>
</svg>
