<svg xmlns="http://www.w3.org/2000/svg" width="22.917" height="21" viewBox="0 0 22.917 21">
  <path id="Path_4303" data-name="Path 4303" d="M3.167.5A3.328,3.328,0,0,0,.042,4V18a3.328,3.328,0,0,0,3.125,3.5H19.833A3.328,3.328,0,0,0,22.958,18V4A3.328,3.328,0,0,0,19.833.5Zm2.75,4.937a.967.967,0,0,0-1.467.149A1.265,1.265,0,0,0,4.583,7.23L9.5,11.818a2.872,2.872,0,0,0,4,0L18.417,7.23a1.265,1.265,0,0,0,.133-1.643.967.967,0,0,0-1.467-.149l-4.916,4.589a.957.957,0,0,1-1.334,0Z" transform="translate(-0.042 -0.5)" fill="#868aa5" fill-rule="evenodd"/>
</svg>
