<svg width="28" height="25" viewBox="0 0 28 25" fill="none" xmlns="http://www.w3.org/2000/svg">
<path fill-rule="evenodd" clip-rule="evenodd" d="M1.575 11.3709C1.23792 11.175 0.958171 10.8941 0.763717 10.5562C0.569262 10.2183 0.466919 9.83528 0.466919 9.44542C0.466919 9.05556 0.569262 8.67253 0.763717 8.33463C0.958171 7.99673 1.23792 7.7158 1.575 7.51992L11.996 1.34992C12.5868 1.00624 13.258 0.825195 13.9415 0.825195C14.625 0.825195 15.2962 1.00624 15.887 1.34992L26.308 7.52292C26.6451 7.7188 26.9248 7.99973 27.1193 8.33763C27.3137 8.67553 27.4161 9.05856 27.4161 9.44842C27.4161 9.83828 27.3137 10.2213 27.1193 10.5592C26.9248 10.8971 26.6451 11.178 26.308 11.3739L15.887 17.5389C15.2965 17.8833 14.6251 18.0647 13.9415 18.0647C13.2579 18.0647 12.5865 17.8833 11.996 17.5389L1.575 11.3709ZM2.484 9.60792L12.905 15.7769C13.2197 15.9602 13.5773 16.0568 13.9415 16.0568C14.3057 16.0568 14.6633 15.9602 14.978 15.7769L25.399 9.60792C25.468 9.56792 25.536 9.51892 25.536 9.44592C25.536 9.37292 25.468 9.32392 25.399 9.28192L14.978 3.11292C14.6633 2.92959 14.3057 2.833 13.9415 2.833C13.5773 2.833 13.2197 2.92959 12.905 3.11292L2.484 9.28092C2.415 9.32292 2.347 9.36992 2.347 9.44492C2.347 9.51992 2.417 9.56692 2.484 9.60792Z" fill="#363B46"/>
<path fill-rule="evenodd" clip-rule="evenodd" d="M22.107 13.5487C22.1291 13.3041 22.2419 13.0765 22.4233 12.9109C22.6046 12.7452 22.8414 12.6533 23.087 12.6533C23.3326 12.6533 23.5694 12.7452 23.7507 12.9109C23.932 13.0765 24.0449 13.3041 24.067 13.5487V18.8867C24.0043 20.1253 23.4536 21.2887 22.5353 22.1223C21.617 22.9559 20.4059 23.3918 19.167 23.3347H8.71598C7.47708 23.3918 6.26599 22.9559 5.34769 22.1223C4.42939 21.2887 3.87866 20.1253 3.81598 18.8867V13.5487C3.82841 13.3009 3.93852 13.0681 4.12219 12.9013C4.30586 12.7345 4.54813 12.6473 4.79598 12.6587C5.04383 12.6473 5.2861 12.7345 5.46977 12.9013C5.65344 13.0681 5.76355 13.3009 5.77598 13.5487V18.8867C5.81251 19.6305 6.14252 20.3295 6.69365 20.8304C7.24478 21.3313 7.97204 21.5932 8.71598 21.5587H19.167C19.9103 21.5929 20.6368 21.3313 21.1877 20.8311C21.7385 20.3309 22.0687 19.6328 22.106 18.8897L22.107 13.5487Z" fill="#363B46"/>
<path fill-rule="evenodd" clip-rule="evenodd" d="M13.666 11.855C13.509 11.698 13.4208 11.485 13.4208 11.263C13.4208 11.041 13.509 10.828 13.666 10.671C13.823 10.514 14.0359 10.4258 14.258 10.4258C14.48 10.4258 14.693 10.514 14.85 10.671L18.758 14.579C18.836 14.6566 18.8979 14.7488 18.9401 14.8504C18.9824 14.952 19.0041 15.061 19.004 15.171V24.103C19.004 24.3251 18.9158 24.5381 18.7587 24.6952C18.6016 24.8523 18.3886 24.9405 18.1665 24.9405C17.9444 24.9405 17.7314 24.8523 17.5743 24.6952C17.4172 24.5381 17.329 24.3251 17.329 24.103V15.519L13.666 11.855Z" fill="#363B46"/>
</svg>
