<svg width="41" height="41" viewBox="0 0 41 41" fill="none" xmlns="http://www.w3.org/2000/svg">
<path d="M12.6411 12.2391C12.8258 12.2391 13.0064 12.1843 13.16 12.0817C13.3136 11.9791 13.4333 11.8332 13.504 11.6625C13.5747 11.4919 13.5932 11.3041 13.5571 11.1229C13.5211 10.9417 13.4321 10.7753 13.3015 10.6447C13.1709 10.514 13.0045 10.4251 12.8233 10.389C12.6421 10.353 12.4543 10.3715 12.2836 10.4422C12.113 10.5129 11.9671 10.6326 11.8645 10.7862C11.7618 10.9398 11.7071 11.1204 11.7071 11.3051C11.7048 11.4284 11.7273 11.5509 11.7735 11.6652C11.8196 11.7796 11.8883 11.8835 11.9755 11.9707C12.0627 12.0579 12.1666 12.1266 12.2809 12.1727C12.3953 12.2188 12.5178 12.2414 12.6411 12.2391Z" fill="black"/>
<path d="M18.245 12.2391C18.4927 12.2391 18.7303 12.1407 18.9055 11.9655C19.0806 11.7904 19.179 11.5528 19.179 11.3051C19.179 11.0574 19.0806 10.8198 18.9055 10.6447C18.7303 10.4695 18.4927 10.3711 18.245 10.3711C17.9973 10.3711 17.7598 10.4695 17.5846 10.6447C17.4094 10.8198 17.311 11.0574 17.311 11.3051C17.311 11.5528 17.4094 11.7904 17.5846 11.9655C17.7598 12.1407 17.9973 12.2391 18.245 12.2391Z" fill="black"/>
<path d="M27.025 24.7547H26.714C26.3742 23.2732 25.5433 21.9501 24.3563 21.0006C23.1693 20.0511 21.6961 19.531 20.176 19.5247H18.121V19.0247C19.3067 18.4992 20.3175 17.6459 21.0345 16.5652C21.7515 15.4845 22.1448 14.2214 22.168 12.9248C22.6669 12.8341 23.1192 12.5738 23.4483 12.1881C23.7774 11.8023 23.9631 11.3147 23.974 10.8077C23.9761 10.4235 23.8726 10.046 23.675 9.71644C23.4773 9.38689 23.193 9.1179 22.853 8.93875V5.20275C22.853 2.27675 19.117 0.96875 15.443 0.96875C11.769 0.96875 8.03304 2.27675 8.03304 5.20275V8.93875C7.69322 9.11782 7.40902 9.38666 7.21137 9.71602C7.01372 10.0454 6.91019 10.4226 6.91204 10.8068C6.90936 11.3078 7.08237 11.794 7.40099 12.1808C7.71961 12.5676 8.1637 12.8305 8.65604 12.9237C8.67212 14.1903 9.04211 15.4272 9.72422 16.4945C10.4063 17.5619 11.3734 18.4172 12.516 18.9638V19.5238C12.454 19.5238 10.337 19.5858 10.461 19.5858C8.96583 19.5887 7.51489 20.0935 6.34081 21.0193C5.16673 21.9452 4.3375 23.2384 3.98604 24.6917C3.52922 24.7258 3.08487 24.8567 2.68249 25.0756C2.28011 25.2945 1.9289 25.5965 1.65217 25.9616C1.37545 26.3267 1.17954 26.7464 1.07745 27.193C0.975359 27.6395 0.969426 28.1027 1.06004 28.5518L3.36404 39.5687H2.05604C1.89526 39.5752 1.74321 39.6436 1.63173 39.7596C1.52026 39.8757 1.458 40.0303 1.458 40.1912C1.458 40.3522 1.52026 40.5068 1.63173 40.6229C1.74321 40.7389 1.89526 40.8073 2.05604 40.8138H29.266C29.3499 40.8171 29.4336 40.8035 29.512 40.7737C29.5905 40.744 29.6621 40.6987 29.7226 40.6405C29.7831 40.5824 29.8313 40.5126 29.8642 40.4354C29.897 40.3582 29.914 40.2752 29.914 40.1912C29.914 40.1073 29.897 40.0243 29.8642 39.9471C29.8313 39.8699 29.7831 39.8001 29.7226 39.742C29.6621 39.6838 29.5905 39.6385 29.512 39.6088C29.4336 39.579 29.3499 39.5654 29.266 39.5687H27.896L30.138 28.6098C30.2468 28.1442 30.248 27.66 30.1415 27.1939C30.035 26.7278 29.8237 26.2922 29.5236 25.92C29.2234 25.5479 28.8424 25.2491 28.4095 25.0463C27.9765 24.8435 27.5031 24.7421 27.025 24.7498V24.7547ZM28.955 28.3037L26.655 39.5117H4.67104L2.37104 28.3037C2.31628 28.0263 2.32326 27.7402 2.39148 27.4658C2.45969 27.1913 2.58748 26.9353 2.76576 26.7158C2.94405 26.4962 3.16846 26.3187 3.42307 26.1956C3.67769 26.0726 3.95627 26.0071 4.23904 26.0037H27.025C27.3124 25.9999 27.5971 26.06 27.8583 26.1797C28.1196 26.2994 28.351 26.4757 28.5358 26.6958C28.7205 26.916 28.854 27.1745 28.9265 27.4526C28.999 27.7307 29.0088 28.0214 28.955 28.3037ZM10.462 20.8937H11.396L14.696 24.4428V24.7537H5.35604C5.66792 23.6405 6.33615 22.6602 7.25837 21.963C8.1806 21.2659 9.30595 20.8903 10.462 20.8937ZM9.96204 8.93875V8.75175L12.204 6.94575C12.8863 7.7982 13.7914 8.44481 14.819 8.81375C16.5253 9.30563 18.278 9.61865 20.049 9.74775C20.3575 9.79936 20.6704 9.82013 20.983 9.80975V12.7987C20.983 14.252 20.4057 15.6457 19.3781 16.6733C18.3505 17.7009 16.9568 18.2782 15.5035 18.2782C14.0503 18.2782 12.6566 17.7009 11.629 16.6733C10.6013 15.6457 10.024 14.252 10.024 12.7987C9.96204 12.7987 9.96204 8.87575 9.96204 8.93875ZM15.441 19.6488C15.7756 19.6594 16.1104 19.6386 16.441 19.5868V21.0187H17.064L15.383 22.8867L13.638 21.0187H14.198V19.5238C14.6094 19.5962 15.0255 19.6379 15.443 19.6488H15.441Z" fill="black"/>
<path d="M15.6301 31.292C15.2359 31.292 14.8506 31.4089 14.5228 31.6279C14.1951 31.8469 13.9396 32.1581 13.7888 32.5223C13.6379 32.8865 13.5985 33.2872 13.6754 33.6738C13.7523 34.0604 13.9421 34.4155 14.2208 34.6943C14.4995 34.973 14.8547 35.1628 15.2413 35.2397C15.6279 35.3166 16.0286 35.2771 16.3928 35.1263C16.7569 34.9754 17.0682 34.72 17.2872 34.3922C17.5062 34.0645 17.6231 33.6792 17.6231 33.285C17.6197 32.7575 17.4086 32.2525 17.0356 31.8795C16.6626 31.5065 16.1576 31.2954 15.6301 31.292Z" fill="black"/>
<path d="M32.8811 3.5215C31.8912 3.51965 30.9107 3.71327 29.9958 4.09123C29.0809 4.4692 28.2496 5.02408 27.5496 5.72404C26.8496 6.42401 26.2948 7.25528 25.9168 8.17018C25.5388 9.08508 25.3452 10.0656 25.3471 11.0555C25.3609 12.3171 25.6815 13.5564 26.2811 14.6665L25.3471 17.1575C25.2859 17.3257 25.271 17.5072 25.3039 17.6831C25.3368 17.8589 25.4163 18.0228 25.5341 18.1575C25.6642 18.2849 25.8227 18.3795 25.9966 18.4335C26.1704 18.4876 26.3547 18.4996 26.5341 18.4685L29.3911 17.7215C30.5012 18.3211 31.7405 18.6416 33.0021 18.6555C33.992 18.6573 34.9725 18.4637 35.8874 18.0858C36.8023 17.7078 37.6336 17.1529 38.3335 16.453C39.0335 15.753 39.5884 14.9217 39.9663 14.0068C40.3443 13.0919 40.5379 12.1114 40.5361 11.1215C40.5046 9.10618 39.6862 7.18308 38.2559 5.763C36.8255 4.34293 34.8966 3.53848 32.8811 3.5215ZM29.8921 10.8065L28.2731 9.4985C28.1303 9.36893 28.0415 9.19048 28.0241 8.9985C28.0188 8.90074 28.039 8.80328 28.0826 8.71564C28.1262 8.62801 28.1919 8.55319 28.2731 8.4985L29.8921 7.1905C29.9531 7.13509 30.0245 7.09244 30.1022 7.06505C30.1799 7.03766 30.2623 7.02609 30.3445 7.03101C30.4268 7.03592 30.5072 7.05724 30.5811 7.09369C30.655 7.13015 30.7208 7.18101 30.7748 7.24329C30.8287 7.30557 30.8697 7.378 30.8952 7.45633C30.9207 7.53466 30.9304 7.61731 30.9235 7.69942C30.9166 7.78152 30.8934 7.86142 30.8552 7.93442C30.817 8.00742 30.7646 8.07205 30.7011 8.1245L29.6421 8.9335L30.7011 9.7425C30.7639 9.79465 30.8156 9.85899 30.8529 9.93165C30.8903 10.0043 30.9125 10.0838 30.9183 10.1653C30.9241 10.2467 30.9133 10.3286 30.8867 10.4058C30.86 10.483 30.8179 10.554 30.7631 10.6145C30.7199 10.686 30.6625 10.7479 30.5945 10.7965C30.5264 10.845 30.4492 10.879 30.3675 10.8965C30.2858 10.9141 30.2014 10.9147 30.1195 10.8983C30.0375 10.882 29.9598 10.849 29.8911 10.8015L29.8921 10.8065ZM32.0061 14.4215C31.9398 14.5702 31.8171 14.6864 31.6651 14.7446C31.5131 14.8028 31.3442 14.7983 31.1956 14.732C31.0469 14.6657 30.9307 14.5431 30.8725 14.3911C30.8142 14.2391 30.8188 14.0702 30.8851 13.9215L33.7491 7.7575C33.7819 7.68389 33.8289 7.61747 33.8874 7.56203C33.9459 7.50659 34.0148 7.46322 34.09 7.43439C34.1653 7.40555 34.2455 7.39183 34.326 7.39399C34.4066 7.39616 34.486 7.41417 34.5596 7.447C34.6332 7.47983 34.6996 7.52683 34.755 7.58533C34.8105 7.64383 34.8538 7.71268 34.8827 7.78794C34.9115 7.8632 34.9252 7.94341 34.9231 8.02397C34.9209 8.10454 34.9029 8.18389 34.8701 8.2575L32.0061 14.4215ZM37.4231 13.6125C36.5511 14.1125 35.6171 15.6675 34.9321 14.8575C34.8765 14.7973 34.8339 14.7264 34.8068 14.6491C34.7797 14.5718 34.7688 14.4898 34.7746 14.4081C34.7804 14.3264 34.8029 14.2468 34.8406 14.1741C34.8784 14.1014 34.9306 14.0372 34.9941 13.9855L35.9941 13.1765L34.9941 12.3675C34.8746 12.259 34.8024 12.1081 34.7928 11.947C34.7831 11.7859 34.8369 11.6275 34.9425 11.5055C35.0482 11.3835 35.1973 11.3077 35.3581 11.2942C35.5189 11.2808 35.6786 11.3308 35.8031 11.4335L37.4221 12.7415C37.5648 12.8711 37.6537 13.0495 37.6711 13.2415C37.6101 13.3595 37.5471 13.5465 37.4231 13.6085V13.6125Z" fill="black"/>
<path d="M15.4431 14.1702C15.6082 14.17 15.7665 14.1042 15.8833 13.9875C16.0001 13.8707 16.0658 13.7124 16.0661 13.5472V12.7382C16.0658 12.5731 16.0001 12.4148 15.8833 12.298C15.7665 12.1812 15.6082 12.1155 15.4431 12.1152C15.2815 12.1262 15.1293 12.1954 15.0148 12.3099C14.9002 12.4245 14.8311 12.5766 14.8201 12.7382V13.5472C14.815 13.6304 14.8276 13.7137 14.8571 13.7916C14.8866 13.8695 14.9323 13.9402 14.9912 13.9991C15.0501 14.058 15.1208 14.1037 15.1987 14.1332C15.2767 14.1627 15.3599 14.1754 15.4431 14.1702Z" fill="black"/>
<path d="M13.7 16.162C14.1494 16.601 14.7528 16.8469 15.381 16.847C15.693 16.8528 16.003 16.7951 16.292 16.6773C16.581 16.5596 16.843 16.3842 17.062 16.162C17.1193 16.1047 17.1647 16.0367 17.1957 15.9619C17.2267 15.8871 17.2426 15.8069 17.2426 15.726C17.2426 15.645 17.2267 15.5648 17.1957 15.49C17.1647 15.4152 17.1193 15.3472 17.062 15.29C17.0048 15.2327 16.9368 15.1873 16.862 15.1563C16.7872 15.1253 16.707 15.1094 16.626 15.1094C16.5451 15.1094 16.4649 15.1253 16.3901 15.1563C16.3153 15.1873 16.2473 15.2327 16.19 15.29C15.9727 15.4996 15.6825 15.6168 15.3805 15.6168C15.0786 15.6168 14.7884 15.4996 14.571 15.29C14.5138 15.2327 14.4458 15.1873 14.371 15.1563C14.2962 15.1253 14.216 15.1094 14.135 15.1094C14.0541 15.1094 13.9739 15.1253 13.8991 15.1563C13.8243 15.1873 13.7563 15.2327 13.699 15.29C13.6418 15.3472 13.5964 15.4152 13.5654 15.49C13.5344 15.5648 13.5184 15.645 13.5184 15.726C13.5184 15.8069 13.5344 15.8871 13.5654 15.9619C13.5964 16.0367 13.6428 16.1047 13.7 16.162Z" fill="black"/>
</svg>
