<svg width="25" height="25" viewBox="0 0 25 25" fill="none" xmlns="http://www.w3.org/2000/svg">
<path d="M16.473 14.4189H22.073C22.7095 14.4189 23.32 14.6718 23.7701 15.1219C24.2201 15.572 24.473 16.1824 24.473 16.8189V22.4189C24.473 23.0555 24.2201 23.6659 23.7701 24.116C23.32 24.5661 22.7095 24.8189 22.073 24.8189H16.473C15.8365 24.8189 15.226 24.5661 14.7759 24.116C14.3259 23.6659 14.073 23.0555 14.073 22.4189V16.8189C14.073 16.1824 14.3259 15.572 14.7759 15.1219C15.226 14.6718 15.8365 14.4189 16.473 14.4189ZM22.073 23.2189C22.2852 23.2189 22.4887 23.1347 22.6387 22.9846C22.7887 22.8346 22.873 22.6311 22.873 22.4189V16.8189C22.873 16.6068 22.7887 16.4033 22.6387 16.2533C22.4887 16.1032 22.2852 16.0189 22.073 16.0189H16.473C16.2608 16.0189 16.0573 16.1032 15.9073 16.2533C15.7573 16.4033 15.673 16.6068 15.673 16.8189V22.4189C15.673 22.6311 15.7573 22.8346 15.9073 22.9846C16.0573 23.1347 16.2608 23.2189 16.473 23.2189H22.073Z" fill="#29255E"/>
<path d="M16.473 0.819336H22.073C22.7095 0.819336 23.32 1.07219 23.7701 1.52228C24.2201 1.97237 24.473 2.58282 24.473 3.21934V8.81934C24.473 9.45586 24.2201 10.0663 23.7701 10.5164C23.32 10.9665 22.7095 11.2193 22.073 11.2193H16.473C15.8365 11.2193 15.226 10.9665 14.7759 10.5164C14.3259 10.0663 14.073 9.45586 14.073 8.81934V3.21934C14.073 2.58282 14.3259 1.97237 14.7759 1.52228C15.226 1.07219 15.8365 0.819336 16.473 0.819336ZM22.073 9.61934C22.2852 9.61934 22.4887 9.53505 22.6387 9.38502C22.7887 9.23499 22.873 9.03151 22.873 8.81934V3.21934C22.873 3.00716 22.7887 2.80368 22.6387 2.65365C22.4887 2.50362 22.2852 2.41934 22.073 2.41934H16.473C16.2608 2.41934 16.0573 2.50362 15.9073 2.65365C15.7573 2.80368 15.673 3.00716 15.673 3.21934V8.81934C15.673 9.03151 15.7573 9.23499 15.9073 9.38502C16.0573 9.53505 16.2608 9.61934 16.473 9.61934H22.073Z" fill="#29255E"/>
<path d="M2.87302 0.819336H8.47302C9.10954 0.819336 9.71999 1.07219 10.1701 1.52228C10.6202 1.97237 10.873 2.58282 10.873 3.21934V8.81934C10.873 9.45586 10.6202 10.0663 10.1701 10.5164C9.71999 10.9665 9.10954 11.2193 8.47302 11.2193H2.87302C2.2365 11.2193 1.62605 10.9665 1.17597 10.5164C0.725879 10.0663 0.473022 9.45586 0.473022 8.81934V3.21934C0.473022 2.58282 0.725879 1.97237 1.17597 1.52228C1.62605 1.07219 2.2365 0.819336 2.87302 0.819336ZM8.47302 9.61934C8.6852 9.61934 8.88868 9.53505 9.03871 9.38502C9.18874 9.23499 9.27302 9.03151 9.27302 8.81934V3.21934C9.27302 3.00716 9.18874 2.80368 9.03871 2.65365C8.88868 2.50362 8.6852 2.41934 8.47302 2.41934H2.87302C2.66085 2.41934 2.45737 2.50362 2.30734 2.65365C2.15731 2.80368 2.07302 3.00716 2.07302 3.21934V8.81934C2.07302 9.03151 2.15731 9.23499 2.30734 9.38502C2.45737 9.53505 2.66085 9.61934 2.87302 9.61934H8.47302Z" fill="#29255E"/>
<path d="M2.87302 14.4189H8.47302C9.10954 14.4189 9.71999 14.6718 10.1701 15.1219C10.6202 15.572 10.873 16.1824 10.873 16.8189V22.4189C10.873 23.0555 10.6202 23.6659 10.1701 24.116C9.71999 24.5661 9.10954 24.8189 8.47302 24.8189H2.87302C2.2365 24.8189 1.62605 24.5661 1.17597 24.116C0.725879 23.6659 0.473022 23.0555 0.473022 22.4189V16.8189C0.473022 16.1824 0.725879 15.572 1.17597 15.1219C1.62605 14.6718 2.2365 14.4189 2.87302 14.4189ZM8.47302 23.2189C8.6852 23.2189 8.88868 23.1347 9.03871 22.9846C9.18874 22.8346 9.27302 22.6311 9.27302 22.4189V16.8189C9.27302 16.6068 9.18874 16.4033 9.03871 16.2533C8.88868 16.1032 8.6852 16.0189 8.47302 16.0189H2.87302C2.66085 16.0189 2.45737 16.1032 2.30734 16.2533C2.15731 16.4033 2.07302 16.6068 2.07302 16.8189V22.4189C2.07302 22.6311 2.15731 22.8346 2.30734 22.9846C2.45737 23.1347 2.66085 23.2189 2.87302 23.2189H8.47302Z" fill="#29255E"/>
<path d="M16.473 14.4189H22.073C22.7095 14.4189 23.32 14.6718 23.7701 15.1219C24.2201 15.572 24.473 16.1824 24.473 16.8189V22.4189C24.473 23.0555 24.2201 23.6659 23.7701 24.116C23.32 24.5661 22.7095 24.8189 22.073 24.8189H16.473C15.8365 24.8189 15.226 24.5661 14.7759 24.116C14.3259 23.6659 14.073 23.0555 14.073 22.4189V16.8189C14.073 16.1824 14.3259 15.572 14.7759 15.1219C15.226 14.6718 15.8365 14.4189 16.473 14.4189ZM22.073 23.2189C22.2852 23.2189 22.4887 23.1347 22.6387 22.9846C22.7887 22.8346 22.873 22.6311 22.873 22.4189V16.8189C22.873 16.6068 22.7887 16.4033 22.6387 16.2533C22.4887 16.1032 22.2852 16.0189 22.073 16.0189H16.473C16.2608 16.0189 16.0573 16.1032 15.9073 16.2533C15.7573 16.4033 15.673 16.6068 15.673 16.8189V22.4189C15.673 22.6311 15.7573 22.8346 15.9073 22.9846C16.0573 23.1347 16.2608 23.2189 16.473 23.2189H22.073Z" fill="#29255E"/>
<path d="M16.473 0.819336H22.073C22.7095 0.819336 23.32 1.07219 23.7701 1.52228C24.2201 1.97237 24.473 2.58282 24.473 3.21934V8.81934C24.473 9.45586 24.2201 10.0663 23.7701 10.5164C23.32 10.9665 22.7095 11.2193 22.073 11.2193H16.473C15.8365 11.2193 15.226 10.9665 14.7759 10.5164C14.3259 10.0663 14.073 9.45586 14.073 8.81934V3.21934C14.073 2.58282 14.3259 1.97237 14.7759 1.52228C15.226 1.07219 15.8365 0.819336 16.473 0.819336ZM22.073 9.61934C22.2852 9.61934 22.4887 9.53505 22.6387 9.38502C22.7887 9.23499 22.873 9.03151 22.873 8.81934V3.21934C22.873 3.00716 22.7887 2.80368 22.6387 2.65365C22.4887 2.50362 22.2852 2.41934 22.073 2.41934H16.473C16.2608 2.41934 16.0573 2.50362 15.9073 2.65365C15.7573 2.80368 15.673 3.00716 15.673 3.21934V8.81934C15.673 9.03151 15.7573 9.23499 15.9073 9.38502C16.0573 9.53505 16.2608 9.61934 16.473 9.61934H22.073Z" fill="#29255E"/>
<path d="M2.87302 0.819336H8.47302C9.10954 0.819336 9.71999 1.07219 10.1701 1.52228C10.6202 1.97237 10.873 2.58282 10.873 3.21934V8.81934C10.873 9.45586 10.6202 10.0663 10.1701 10.5164C9.71999 10.9665 9.10954 11.2193 8.47302 11.2193H2.87302C2.2365 11.2193 1.62605 10.9665 1.17597 10.5164C0.725879 10.0663 0.473022 9.45586 0.473022 8.81934V3.21934C0.473022 2.58282 0.725879 1.97237 1.17597 1.52228C1.62605 1.07219 2.2365 0.819336 2.87302 0.819336ZM8.47302 9.61934C8.6852 9.61934 8.88868 9.53505 9.03871 9.38502C9.18874 9.23499 9.27302 9.03151 9.27302 8.81934V3.21934C9.27302 3.00716 9.18874 2.80368 9.03871 2.65365C8.88868 2.50362 8.6852 2.41934 8.47302 2.41934H2.87302C2.66085 2.41934 2.45737 2.50362 2.30734 2.65365C2.15731 2.80368 2.07302 3.00716 2.07302 3.21934V8.81934C2.07302 9.03151 2.15731 9.23499 2.30734 9.38502C2.45737 9.53505 2.66085 9.61934 2.87302 9.61934H8.47302Z" fill="#29255E"/>
<path d="M2.87302 14.4189H8.47302C9.10954 14.4189 9.71999 14.6718 10.1701 15.1219C10.6202 15.572 10.873 16.1824 10.873 16.8189V22.4189C10.873 23.0555 10.6202 23.6659 10.1701 24.116C9.71999 24.5661 9.10954 24.8189 8.47302 24.8189H2.87302C2.2365 24.8189 1.62605 24.5661 1.17597 24.116C0.725879 23.6659 0.473022 23.0555 0.473022 22.4189V16.8189C0.473022 16.1824 0.725879 15.572 1.17597 15.1219C1.62605 14.6718 2.2365 14.4189 2.87302 14.4189ZM8.47302 23.2189C8.6852 23.2189 8.88868 23.1347 9.03871 22.9846C9.18874 22.8346 9.27302 22.6311 9.27302 22.4189V16.8189C9.27302 16.6068 9.18874 16.4033 9.03871 16.2533C8.88868 16.1032 8.6852 16.0189 8.47302 16.0189H2.87302C2.66085 16.0189 2.45737 16.1032 2.30734 16.2533C2.15731 16.4033 2.07302 16.6068 2.07302 16.8189V22.4189C2.07302 22.6311 2.15731 22.8346 2.30734 22.9846C2.45737 23.1347 2.66085 23.2189 2.87302 23.2189H8.47302Z" fill="#29255E"/>
</svg>
