<svg width="25" height="25" viewBox="0 0 25 25" fill="none" xmlns="http://www.w3.org/2000/svg">
<path d="M12.4729 2.8252C10.4951 2.8252 8.56169 3.41168 6.9172 4.5105C5.27271 5.60931 3.99098 7.1711 3.23411 8.99836C2.47723 10.8256 2.2792 12.8363 2.66505 14.7761C3.0509 16.7159 4.00331 18.4977 5.40183 19.8963C6.80036 21.2948 8.58219 22.2472 10.522 22.633C12.4618 23.0189 14.4725 22.8209 16.2997 22.064C18.127 21.3071 19.6888 20.0254 20.7876 18.3809C21.8864 16.7364 22.4729 14.803 22.4729 12.8252C22.47 10.1739 21.4155 7.63208 19.5408 5.75734C17.666 3.88261 15.1242 2.82811 12.4729 2.8252ZM12.4729 0.825195C14.8463 0.825195 17.1664 1.52898 19.1397 2.84756C21.1131 4.16614 22.6512 6.04028 23.5595 8.23299C24.4677 10.4257 24.7053 12.8385 24.2423 15.1663C23.7793 17.4941 22.6364 19.6322 20.9582 21.3105C19.28 22.9887 17.1418 24.1316 14.814 24.5946C12.4862 25.0576 10.0734 24.82 7.8807 23.9117C5.68799 23.0035 3.81384 21.4654 2.49527 19.492C1.17669 17.5186 0.4729 15.1986 0.4729 12.8252C0.4729 9.6426 1.73718 6.59035 3.98762 4.33991C6.23806 2.08948 9.2903 0.825195 12.4729 0.825195Z" fill="#363B46"/>
<path d="M12.3951 14.7364C12.217 14.7368 12.0446 14.6736 11.9089 14.5584C11.7731 14.4431 11.6829 14.2832 11.6543 14.1074C11.6258 13.9316 11.6608 13.7514 11.7532 13.5991C11.8455 13.4468 11.989 13.3324 12.1581 13.2764C12.9521 13.0084 15.0171 12.0084 15.0171 10.6154C15.0214 9.99377 14.8047 9.39082 14.4057 8.91414C14.0067 8.43746 13.4512 8.11807 12.8385 8.01295C12.2258 7.90783 11.5957 8.02382 11.0606 8.34023C10.5255 8.65664 10.1202 9.15288 9.91711 9.7404C9.85081 9.92778 9.71278 10.0811 9.5334 10.1668C9.35403 10.2524 9.14799 10.2632 8.96061 10.1969C8.77323 10.1306 8.61987 9.99258 8.53426 9.8132C8.44865 9.63382 8.43781 9.42778 8.50411 9.2404C8.82731 8.32265 9.46483 7.54886 10.3038 7.05602C11.1427 6.56319 12.129 6.3831 13.088 6.54764C14.047 6.71218 14.9168 7.21074 15.5435 7.95505C16.1702 8.69936 16.5133 9.6414 16.5121 10.6144C16.4689 11.2674 16.2611 11.8987 15.9081 12.4497C15.5551 13.0007 15.0683 13.4533 14.4931 13.7654C13.9113 14.1489 13.2854 14.4612 12.6291 14.6954C12.5538 14.7214 12.4748 14.7353 12.3951 14.7364Z" fill="#363B46"/>
<path d="M12.9729 19.0381C13.8013 19.0381 14.4729 18.5904 14.4729 18.0381C14.4729 17.4858 13.8013 17.0381 12.9729 17.0381C12.1445 17.0381 11.4729 17.4858 11.4729 18.0381C11.4729 18.5904 12.1445 19.0381 12.9729 19.0381Z" fill="#363B46"/>
</svg>
