<svg width="25" height="25" viewBox="0 0 25 25" fill="none" xmlns="http://www.w3.org/2000/svg">
<path d="M12.468 0.825303C13.1845 0.819641 13.885 1.03678 14.4726 1.44669C15.0602 1.85659 15.5059 2.43899 15.748 3.1133L15.767 3.1653C15.9303 3.61342 16.262 3.98008 16.6916 4.18723C17.1212 4.39437 17.6147 4.42561 18.067 4.2743L18.144 4.2483C18.5063 4.12638 18.8858 4.06358 19.268 4.0623C19.8806 4.06749 20.4811 4.23366 21.0093 4.54414C21.5374 4.85463 21.9746 5.29852 22.277 5.8313C22.584 6.3606 22.7443 6.96222 22.7413 7.57411C22.7383 8.186 22.5722 8.78603 22.26 9.3123L22.089 9.6063C21.8567 10.008 21.785 10.4826 21.8881 10.935C21.9912 11.3874 22.2616 11.784 22.645 12.0453L22.938 12.2453C23.5493 12.6521 24.0152 13.243 24.268 13.9323C24.4947 14.5709 24.5336 15.2611 24.3801 15.9211C24.2266 16.5811 23.8872 17.1833 23.402 17.6563C22.8712 18.1641 22.1923 18.4895 21.464 18.5853L21.228 18.6183C20.7616 18.6827 20.3379 18.9242 20.0449 19.2927C19.7518 19.6612 19.6118 20.1284 19.654 20.5973L19.672 20.8033C19.7188 21.2819 19.6644 21.765 19.5123 22.2212C19.3601 22.6775 19.1137 23.0966 18.789 23.4513C18.4562 23.8126 18.052 24.101 17.6021 24.2982C17.1522 24.4955 16.6663 24.5973 16.175 24.5973C15.2682 24.5953 14.3988 24.236 13.755 23.5973C13.4124 23.2618 12.952 23.0739 12.4725 23.0739C11.993 23.0739 11.5326 23.2618 11.19 23.5973C10.5463 24.236 9.67682 24.5953 8.77002 24.5973C8.27849 24.5964 7.79249 24.4936 7.34273 24.2953C6.89297 24.097 6.48923 23.8076 6.15702 23.4453C5.83216 23.0906 5.58556 22.6716 5.43326 22.2154C5.28096 21.7592 5.22637 21.276 5.27303 20.7973L5.29102 20.5913C5.33136 20.1237 5.19067 19.6584 4.89798 19.2915C4.60529 18.9245 4.18293 18.6839 3.71802 18.6193L3.48202 18.5863C2.75371 18.4905 2.07488 18.1651 1.54402 17.6573C1.05886 17.1843 0.71943 16.5821 0.565948 15.9221C0.412467 15.2621 0.451361 14.5719 0.678025 13.9333C0.930323 13.2434 1.39583 12.6518 2.00702 12.2443L2.30002 12.0443C2.68344 11.783 2.95385 11.3864 3.05697 10.934C3.1601 10.4816 3.08831 10.007 2.85602 9.6053L2.68502 9.3113C2.37304 8.78514 2.207 8.18531 2.20401 7.57361C2.20102 6.96192 2.36119 6.36049 2.66802 5.8313C2.97084 5.29907 3.408 4.85561 3.93583 4.54519C4.46367 4.23477 5.06371 4.06826 5.67602 4.0623C6.05858 4.06344 6.43846 4.12624 6.80102 4.2483L6.87802 4.2743C7.33019 4.42566 7.82357 4.39456 8.25315 4.18761C8.68272 3.98067 9.01456 3.61423 9.17802 3.1663L9.19702 3.1143C9.43847 2.44126 9.88272 1.85967 10.4686 1.44971C11.0544 1.03974 11.753 0.821584 12.468 0.825303ZM17.483 6.0253C16.7688 6.0235 16.0722 5.80323 15.4868 5.39407C14.9014 4.9849 14.4551 4.40642 14.208 3.7363L14.189 3.6843C14.0598 3.3318 13.8254 3.02748 13.5176 2.81249C13.2099 2.5975 12.8435 2.48221 12.468 2.48221C12.0926 2.48221 11.7262 2.5975 11.4184 2.81249C11.1106 3.02748 10.8763 3.3318 10.747 3.6843L10.728 3.7363C10.4165 4.58845 9.78502 5.28556 8.96772 5.67955C8.15042 6.07354 7.21172 6.13336 6.35103 5.8463L6.27402 5.8203C6.08066 5.75508 5.87809 5.72132 5.67403 5.7203C5.35238 5.72512 5.03765 5.81441 4.7614 5.97922C4.48514 6.14402 4.25706 6.37856 4.10002 6.6593C3.93755 6.93608 3.85298 7.25166 3.85526 7.5726C3.85755 7.89353 3.94662 8.20787 4.11303 8.4823L4.28402 8.7763C4.72531 9.54041 4.8617 10.443 4.66589 11.3034C4.47008 12.1638 3.95652 12.9184 3.22802 13.4163L2.93502 13.6163C2.62859 13.8243 2.39233 14.1202 2.25736 14.465C2.1224 14.8099 2.09507 15.1876 2.17897 15.5483C2.26287 15.909 2.45406 16.2358 2.72737 16.4857C3.00067 16.7357 3.34327 16.8969 3.71002 16.9483L3.94602 16.9813C4.83176 17.1043 5.63637 17.5629 6.19359 18.2623C6.7508 18.9617 7.01802 19.8485 6.94002 20.7393L6.92203 20.9453C6.89478 21.1953 6.92128 21.4481 6.99976 21.687C7.07823 21.9259 7.20686 22.1452 7.37703 22.3303C7.555 22.5224 7.77039 22.676 8.00995 22.7818C8.24951 22.8876 8.50817 22.9432 8.77002 22.9453C9.00491 22.9447 9.23734 22.8975 9.45381 22.8063C9.67028 22.7152 9.86649 22.5819 10.031 22.4143C10.683 21.7753 11.5596 21.4173 12.4725 21.4173C13.3855 21.4173 14.262 21.7753 14.914 22.4143C15.0786 22.5819 15.2748 22.7152 15.4912 22.8063C15.7077 22.8975 15.9401 22.9447 16.175 22.9453C16.4367 22.9431 16.6952 22.8874 16.9346 22.7816C17.1739 22.6758 17.3892 22.5223 17.567 22.3303C17.7372 22.1452 17.8658 21.9259 17.9443 21.687C18.0228 21.4481 18.0493 21.1953 18.022 20.9453L18.004 20.7393C17.926 19.8485 18.1932 18.9617 18.7505 18.2623C19.3077 17.5629 20.1123 17.1043 20.998 16.9813L21.234 16.9483C21.6008 16.8969 21.9434 16.7357 22.2167 16.4857C22.49 16.2358 22.6812 15.909 22.7651 15.5483C22.849 15.1876 22.8216 14.8099 22.6867 14.465C22.5517 14.1202 22.3155 13.8243 22.009 13.6163L21.716 13.4163C20.9867 12.9187 20.4724 12.1638 20.2761 11.3029C20.0799 10.442 20.2163 9.53883 20.658 8.7743L20.829 8.4803C20.9954 8.20587 21.0845 7.89153 21.0868 7.5706C21.0891 7.24966 21.0045 6.93408 20.842 6.6573C20.6849 6.37674 20.4567 6.14241 20.1805 5.97779C19.9042 5.81316 19.5896 5.72402 19.268 5.7193C19.064 5.72035 18.8614 5.75412 18.668 5.8193L18.591 5.8453C18.2354 5.96394 17.8629 6.02439 17.488 6.0243L17.483 6.0253Z" fill="#363B46"/>
<path d="M12.472 10.4812C11.9807 10.4812 11.5004 10.6269 11.0919 10.8999C10.6834 11.1729 10.365 11.5609 10.177 12.0148C9.98902 12.4688 9.93988 12.9683 10.0358 13.4502C10.1317 13.932 10.3684 14.3746 10.7159 14.722C11.0634 15.0694 11.5061 15.3059 11.988 15.4016C12.4699 15.4973 12.9694 15.448 13.4233 15.2598C13.8772 15.0717 14.265 14.7531 14.5379 14.3445C14.8107 13.9359 14.9562 13.4555 14.956 12.9642C14.9552 12.3057 14.6932 11.6745 14.2275 11.209C13.7618 10.7435 13.1305 10.4817 12.472 10.4812ZM12.472 8.8252C13.2906 8.8252 14.0909 9.06794 14.7715 9.52274C15.4522 9.97754 15.9827 10.624 16.2959 11.3803C16.6092 12.1366 16.6912 12.9688 16.5315 13.7717C16.3718 14.5746 15.9776 15.3121 15.3987 15.8909C14.8199 16.4698 14.0824 16.864 13.2795 17.0237C12.4766 17.1834 11.6444 17.1014 10.8881 16.7881C10.1318 16.4749 9.48535 15.9444 9.03056 15.2637C8.57576 14.583 8.33301 13.7828 8.33301 12.9642C8.33301 11.8665 8.76908 10.8137 9.54529 10.0375C10.3215 9.26127 11.3743 8.8252 12.472 8.8252Z" fill="#363B46"/>
</svg>
