<svg width="41" height="41" viewBox="0 0 41 41" fill="none" xmlns="http://www.w3.org/2000/svg">
<path d="M40.2281 36.37H39.6861V18.879H40.2281C40.3888 18.8726 40.5409 18.8042 40.6524 18.6881C40.7638 18.5721 40.8261 18.4174 40.8261 18.2565C40.8261 18.0956 40.7638 17.9409 40.6524 17.8249C40.5409 17.7088 40.3888 17.6404 40.2281 17.634H33.3281L33.3341 13.817L35.7501 13.823C35.8885 13.8229 36.0231 13.7768 36.1325 13.6919C36.2419 13.6069 36.3199 13.488 36.3543 13.3539C36.3886 13.2197 36.3774 13.0779 36.3223 12.9509C36.2672 12.8238 36.1715 12.7186 36.0501 12.652L21.5671 4.805V3.972H24.4741C24.6392 3.97174 24.7975 3.90601 24.9143 3.78924C25.0311 3.67246 25.0968 3.51415 25.0971 3.349V0.623C25.0965 0.457933 25.0307 0.299776 24.914 0.183055C24.7973 0.0663339 24.6391 0.000527377 24.4741 0H20.9251C20.76 0.000527377 20.6018 0.0663339 20.4851 0.183055C20.3684 0.299776 20.3026 0.457933 20.3021 0.623L20.3221 4.807L5.80705 12.59C5.68454 12.6552 5.58737 12.7596 5.53101 12.8864C5.47465 13.0133 5.46234 13.1553 5.49603 13.29C5.52972 13.4246 5.60748 13.5441 5.71694 13.6295C5.82639 13.7148 5.96125 13.7611 6.10005 13.761L8.52205 13.767L8.51605 17.634H1.62305C1.53921 17.6306 1.45554 17.6443 1.37709 17.674C1.29863 17.7038 1.227 17.7491 1.16648 17.8072C1.10597 17.8654 1.05783 17.9351 1.02494 18.0123C0.99205 18.0895 0.975098 18.1726 0.975098 18.2565C0.975098 18.3404 0.99205 18.4235 1.02494 18.5007C1.05783 18.5779 1.10597 18.6476 1.16648 18.7058C1.227 18.7639 1.29863 18.8092 1.37709 18.839C1.45554 18.8687 1.53921 18.8824 1.62305 18.879H2.16505V36.369H1.62305C1.45799 36.3695 1.29983 36.4353 1.18311 36.5521C1.06639 36.6688 1.00058 36.8269 1.00005 36.992V39.483C1.00058 39.6481 1.06639 39.8062 1.18311 39.9229C1.29983 40.0397 1.45799 40.1055 1.62305 40.106H40.2231C40.3881 40.1055 40.5463 40.0397 40.663 39.9229C40.7797 39.8062 40.8455 39.6481 40.8461 39.483V36.992C40.8453 36.828 40.78 36.6708 40.6644 36.5544C40.5488 36.4381 40.3921 36.3718 40.2281 36.37ZM18.9001 9.751C18.8999 9.32968 19.0246 8.91777 19.2585 8.56736C19.4925 8.21695 19.8251 7.94379 20.2142 7.78242C20.6034 7.62106 21.0317 7.57873 21.445 7.66081C21.8582 7.74288 22.2379 7.94566 22.5358 8.24351C22.8338 8.54136 23.0368 8.92088 23.1191 9.33409C23.2013 9.7473 23.1592 10.1756 22.998 10.5649C22.8368 10.9541 22.5638 11.2869 22.2135 11.521C21.8632 11.7551 21.4514 11.88 21.0301 11.88C20.7503 11.8803 20.4733 11.8254 20.2149 11.7185C19.9564 11.6116 19.7215 11.4548 19.5237 11.2571C19.3259 11.0593 19.1689 10.8245 19.0619 10.5661C18.9549 10.3077 18.8999 10.0307 18.9001 9.751ZM9.76605 13.767L32.0881 13.817L32.0821 17.634L9.76605 17.584V13.767ZM20.6141 27.933C19.7449 28.0324 18.944 28.4525 18.3681 29.111C17.7922 29.7696 17.4827 30.6193 17.5001 31.494V36.369H14.8001V18.879H26.9711V36.369H24.2811V31.313C24.2797 30.8448 24.1818 30.3819 23.9932 29.9534C23.8047 29.5248 23.5297 29.1398 23.1854 28.8225C22.8411 28.5052 22.4351 28.2624 21.9926 28.1093C21.5501 27.9563 21.0808 27.8962 20.6141 27.933ZM38.4411 36.37H30.9131V18.879H38.4411V36.37ZM3.41005 18.879H10.8571V36.369H3.41005V18.879ZM2.24505 37.615H39.6001V38.86H2.24505V37.615Z" fill="black"/>
<path d="M12.2021 14.4766C12.1202 14.4763 12.0391 14.4922 11.9634 14.5235C11.8877 14.5547 11.8189 14.6005 11.761 14.6584C11.7031 14.7164 11.6572 14.7851 11.626 14.8608C11.5948 14.9365 11.5788 15.0177 11.5791 15.0996V16.2396C11.5758 16.3234 11.5894 16.4071 11.6191 16.4855C11.6489 16.564 11.6942 16.6356 11.7524 16.6961C11.8105 16.7566 11.8802 16.8048 11.9574 16.8377C12.0347 16.8706 12.1177 16.8875 12.2016 16.8875C12.2855 16.8875 12.3686 16.8706 12.4458 16.8377C12.523 16.8048 12.5927 16.7566 12.6509 16.6961C12.709 16.6356 12.7543 16.564 12.7841 16.4855C12.8139 16.4071 12.8275 16.3234 12.8241 16.2396V15.0996C12.8244 15.0178 12.8085 14.9367 12.7773 14.8611C12.7462 14.7854 12.7004 14.7167 12.6426 14.6588C12.5848 14.6009 12.5161 14.555 12.4405 14.5237C12.3649 14.4925 12.2839 14.4764 12.2021 14.4766Z" fill="black"/>
<path d="M15.6891 14.4766C15.6072 14.4763 15.526 14.4923 15.4503 14.5235C15.3746 14.5547 15.3058 14.6006 15.2479 14.6585C15.19 14.7164 15.1442 14.7852 15.1129 14.8609C15.0817 14.9366 15.0658 15.0177 15.0661 15.0996V16.2396C15.0627 16.3234 15.0763 16.4071 15.1061 16.4855C15.1358 16.564 15.1812 16.6356 15.2393 16.6962C15.2974 16.7567 15.3672 16.8048 15.4444 16.8377C15.5216 16.8706 15.6046 16.8875 15.6886 16.8875C15.7725 16.8875 15.8555 16.8706 15.9327 16.8377C16.0099 16.8048 16.0797 16.7567 16.1378 16.6962C16.196 16.6356 16.2413 16.564 16.271 16.4855C16.3008 16.4071 16.3144 16.3234 16.3111 16.2396V15.0996C16.3119 15.0176 16.2963 14.9363 16.2654 14.8605C16.2344 14.7846 16.1886 14.7156 16.1307 14.6576C16.0728 14.5996 16.0039 14.5537 15.9281 14.5227C15.8523 14.4916 15.771 14.4759 15.6891 14.4766Z" fill="black"/>
<path d="M19.1821 14.4766C19.1002 14.4763 19.0191 14.4922 18.9434 14.5235C18.8677 14.5547 18.7989 14.6005 18.741 14.6584C18.6831 14.7164 18.6372 14.7851 18.606 14.8608C18.5748 14.9365 18.5588 15.0177 18.5591 15.0996V16.2396C18.5557 16.3234 18.5693 16.4071 18.5991 16.4855C18.6289 16.564 18.6742 16.6356 18.7323 16.6961C18.7905 16.7566 18.8602 16.8048 18.9374 16.8377C19.0146 16.8706 19.0977 16.8875 19.1816 16.8875C19.2655 16.8875 19.3486 16.8706 19.4258 16.8377C19.503 16.8048 19.5727 16.7566 19.6309 16.6961C19.689 16.6356 19.7343 16.564 19.7641 16.4855C19.7938 16.4071 19.8075 16.3234 19.8041 16.2396V15.0996C19.8044 15.0178 19.7885 14.9367 19.7573 14.8611C19.7261 14.7854 19.6804 14.7167 19.6226 14.6588C19.5648 14.6009 19.4961 14.555 19.4205 14.5237C19.3449 14.4925 19.2639 14.4764 19.1821 14.4766Z" fill="black"/>
<path d="M22.669 14.4766C22.5871 14.4763 22.506 14.4923 22.4303 14.5235C22.3546 14.5547 22.2858 14.6006 22.2279 14.6585C22.17 14.7164 22.1241 14.7852 22.0929 14.8609C22.0617 14.9366 22.0458 15.0177 22.046 15.0996V16.2396C22.0427 16.3234 22.0563 16.4071 22.0861 16.4855C22.1158 16.564 22.1611 16.6356 22.2193 16.6962C22.2774 16.7567 22.3472 16.8048 22.4244 16.8377C22.5016 16.8706 22.5846 16.8875 22.6685 16.8875C22.7524 16.8875 22.8355 16.8706 22.9127 16.8377C22.9899 16.8048 23.0597 16.7567 23.1178 16.6962C23.1759 16.6356 23.2212 16.564 23.251 16.4855C23.2808 16.4071 23.2944 16.3234 23.291 16.2396V15.0996C23.2918 15.0176 23.2763 14.9363 23.2453 14.8605C23.2144 14.7846 23.1686 14.7156 23.1107 14.6576C23.0528 14.5996 22.9839 14.5537 22.9081 14.5227C22.8322 14.4916 22.751 14.4759 22.669 14.4766Z" fill="black"/>
<path d="M26.1621 14.4766C26.08 14.4758 25.9987 14.4914 25.9227 14.5224C25.8468 14.5534 25.7778 14.5993 25.7198 14.6573C25.6617 14.7153 25.6159 14.7843 25.5849 14.8602C25.5538 14.9362 25.5383 15.0176 25.5391 15.0996V16.2396C25.5357 16.3234 25.5493 16.4071 25.5791 16.4856C25.6089 16.564 25.6542 16.6356 25.7123 16.6962C25.7704 16.7567 25.8402 16.8048 25.9174 16.8377C25.9946 16.8706 26.0777 16.8875 26.1616 16.8875C26.2455 16.8875 26.3285 16.8706 26.4057 16.8377C26.4829 16.8048 26.5527 16.7567 26.6108 16.6962C26.669 16.6356 26.7143 16.564 26.7441 16.4856C26.7738 16.4071 26.7874 16.3234 26.7841 16.2396V15.0996C26.7843 15.0178 26.7684 14.9367 26.7373 14.8611C26.7061 14.7855 26.6603 14.7167 26.6025 14.6588C26.5447 14.6009 26.4761 14.555 26.4005 14.5238C26.3249 14.4925 26.2439 14.4765 26.1621 14.4766Z" fill="black"/>
<path d="M29.649 14.4766C29.5671 14.4763 29.486 14.4922 29.4103 14.5235C29.3346 14.5547 29.2658 14.6005 29.2079 14.6584C29.15 14.7164 29.1041 14.7851 29.0729 14.8608C29.0417 14.9365 29.0257 15.0177 29.026 15.0996V16.2396C29.0227 16.3234 29.0363 16.4071 29.066 16.4855C29.0958 16.564 29.1411 16.6356 29.1992 16.6961C29.2574 16.7566 29.3271 16.8048 29.4044 16.8377C29.4816 16.8706 29.5646 16.8875 29.6485 16.8875C29.7324 16.8875 29.8155 16.8706 29.8927 16.8377C29.9699 16.8048 30.0396 16.7566 30.0978 16.6961C30.1559 16.6356 30.2012 16.564 30.231 16.4855C30.2608 16.4071 30.2744 16.3234 30.271 16.2396V15.0996C30.2713 15.0178 30.2554 14.9367 30.2242 14.8611C30.1931 14.7854 30.1473 14.7167 30.0895 14.6588C30.0317 14.6009 29.963 14.555 29.8874 14.5237C29.8118 14.4925 29.7308 14.4764 29.649 14.4766Z" fill="black"/>
<path d="M8.70205 21.2266H5.72605C5.4999 21.2268 5.28309 21.3168 5.12318 21.4767C4.96327 21.6366 4.87331 21.8534 4.87305 22.0796V25.7416C4.87331 25.9677 4.96327 26.1845 5.12318 26.3444C5.28309 26.5043 5.4999 26.5943 5.72605 26.5946H8.70205C8.81401 26.5947 8.92489 26.5727 9.02833 26.5299C9.13177 26.487 9.22572 26.4242 9.3048 26.3449C9.38387 26.2656 9.44651 26.1715 9.48911 26.068C9.53171 25.9645 9.55344 25.8535 9.55305 25.7416V22.0796C9.55344 21.9676 9.53171 21.8567 9.48911 21.7531C9.44651 21.6496 9.38387 21.5555 9.3048 21.4762C9.22572 21.397 9.13177 21.3341 9.02833 21.2913C8.92489 21.2484 8.81401 21.2264 8.70205 21.2266Z" fill="black"/>
<path d="M25.7951 24.2335V20.9975C25.7956 20.8859 25.7741 20.7752 25.7318 20.6719C25.6895 20.5685 25.6272 20.4746 25.5485 20.3953C25.4699 20.3161 25.3763 20.2532 25.2733 20.2101C25.1703 20.1671 25.0597 20.1448 24.9481 20.1445H22.3391C22.227 20.1441 22.1159 20.1659 22.0122 20.2087C21.9085 20.2514 21.8143 20.3142 21.735 20.3935C21.6558 20.4728 21.5929 20.567 21.5502 20.6706C21.5075 20.7743 21.4857 20.8854 21.4861 20.9975V24.2355C21.4864 24.4617 21.5763 24.6785 21.7362 24.8384C21.8961 24.9983 22.1129 25.0883 22.3391 25.0885H24.9481C25.1736 25.087 25.3894 24.9961 25.5481 24.8359C25.7068 24.6756 25.7956 24.4591 25.7951 24.2335Z" fill="black"/>
<path d="M19.518 20.1426H16.909C16.7967 20.1422 16.6855 20.164 16.5817 20.2069C16.4779 20.2497 16.3836 20.3127 16.3043 20.3922C16.225 20.4717 16.1622 20.5662 16.1196 20.6701C16.077 20.774 16.0554 20.8853 16.056 20.9976V24.2356C16.0563 24.4617 16.1463 24.6785 16.3062 24.8385C16.4661 24.9984 16.6829 25.0883 16.909 25.0886H19.518C19.7432 25.087 19.9587 24.9964 20.1173 24.8366C20.276 24.6768 20.365 24.4608 20.365 24.2356V20.9976C20.3658 20.8858 20.3445 20.7749 20.3023 20.6713C20.2601 20.5677 20.1979 20.4735 20.1192 20.3941C20.0405 20.3146 19.9469 20.2515 19.8437 20.2084C19.7406 20.1652 19.6299 20.1428 19.518 20.1426Z" fill="black"/>
<path d="M8.70205 28.6553H5.72605C5.4999 28.6555 5.28309 28.7455 5.12318 28.9054C4.96327 29.0653 4.87331 29.2821 4.87305 29.5083V33.1693C4.87331 33.3954 4.96327 33.6122 5.12318 33.7721C5.28309 33.9321 5.4999 34.022 5.72605 34.0223H8.70205C8.81418 34.0227 8.92527 34.0009 9.02894 33.9582C9.13261 33.9154 9.2268 33.8526 9.30609 33.7733C9.38538 33.694 9.4482 33.5998 9.49092 33.4962C9.53365 33.3925 9.55544 33.2814 9.55505 33.1693V29.5083C9.55544 29.3962 9.53365 29.2851 9.49092 29.1814C9.4482 29.0777 9.38538 28.9835 9.30609 28.9042C9.2268 28.8249 9.13261 28.7621 9.02894 28.7194C8.92527 28.6767 8.81418 28.6549 8.70205 28.6553Z" fill="black"/>
<path d="M32.5441 25.7416C32.5436 25.8532 32.5651 25.9639 32.6074 26.0672C32.6497 26.1706 32.7119 26.2645 32.7906 26.3438C32.8693 26.423 32.9628 26.486 33.0659 26.529C33.1689 26.572 33.2794 26.5943 33.3911 26.5946H36.3741C36.4857 26.5943 36.5962 26.572 36.6993 26.529C36.8023 26.486 36.8959 26.423 36.9745 26.3438C37.0532 26.2645 37.1155 26.1706 37.1578 26.0672C37.2001 25.9639 37.2216 25.8532 37.2211 25.7416V22.0796C37.2216 21.9679 37.2001 21.8572 37.1578 21.7539C37.1155 21.6506 37.0532 21.5566 36.9745 21.4774C36.8959 21.3981 36.8023 21.3352 36.6993 21.2921C36.5962 21.2491 36.4857 21.2268 36.3741 21.2266H33.3911C33.2794 21.2268 33.1689 21.2491 33.0659 21.2921C32.9628 21.3352 32.8693 21.3981 32.7906 21.4774C32.7119 21.5566 32.6497 21.6506 32.6074 21.7539C32.5651 21.8572 32.5436 21.9679 32.5441 22.0796V25.7416Z" fill="black"/>
<path d="M36.3731 28.6553H33.3911C33.2794 28.6555 33.1689 28.6778 33.0659 28.7209C32.9628 28.7639 32.8693 28.8268 32.7906 28.9061C32.7119 28.9853 32.6497 29.0793 32.6074 29.1826C32.5651 29.2859 32.5436 29.3966 32.5441 29.5083V33.1693C32.5436 33.2809 32.5651 33.3916 32.6074 33.4949C32.6497 33.5983 32.7119 33.6923 32.7906 33.7715C32.8693 33.8507 32.9628 33.9137 33.0659 33.9567C33.1689 33.9997 33.2794 34.022 33.3911 34.0223H36.3741C36.4857 34.022 36.5962 33.9997 36.6993 33.9567C36.8023 33.9137 36.8959 33.8507 36.9745 33.7715C37.0532 33.6923 37.1155 33.5983 37.1578 33.4949C37.2001 33.3916 37.2216 33.2809 37.2211 33.1693V29.5083C37.2216 29.3965 37.2001 29.2858 37.1577 29.1824C37.1153 29.079 37.053 28.985 36.9742 28.9057C36.8954 28.8265 36.8017 28.7635 36.6986 28.7206C36.5954 28.6776 36.4848 28.6554 36.3731 28.6553Z" fill="black"/>
</svg>
