<svg xmlns="http://www.w3.org/2000/svg" width="19.04" height="17.452" viewBox="0 0 19.04 17.452">
  <g id="Group_1" data-name="Group 1" transform="translate(-7.48 -8.003)">
    <path id="Path_2" data-name="Path 2" d="M9.106,9.637a5.536,5.536,0,0,1,7.854,0l.04.04.04-.04a5.536,5.536,0,0,1,7.854,0,5.6,5.6,0,0,1,0,7.889L17,25.455,9.106,17.525h0A5.6,5.6,0,0,1,9.106,9.637Zm6.732,1.127a3.955,3.955,0,0,0-5.61,0,4,4,0,0,0,0,5.635L17,23.2l6.772-6.8a4,4,0,0,0,0-5.635,3.957,3.957,0,0,0-6.11.616l-.661,1-.661-1A3.991,3.991,0,0,0,15.838,10.764Z" fill="#fff" fill-rule="evenodd"/>
  </g>
</svg>
