<svg width="21" height="28" viewBox="0 0 21 28" fill="none" xmlns="http://www.w3.org/2000/svg">
<path d="M19.377 27.7749H15.046C14.6641 27.7747 14.2886 27.677 13.9551 27.4909C13.6215 27.3049 13.341 27.0367 13.1402 26.7119C12.9394 26.387 12.8248 26.0163 12.8075 25.6348C12.7901 25.2533 12.8705 24.8736 13.041 24.5319L13.794 23.0269C13.8174 22.979 13.8286 22.9261 13.8265 22.8729C13.8244 22.8197 13.8092 22.7678 13.7821 22.7219C13.7551 22.6761 13.7171 22.6376 13.6715 22.61C13.6259 22.5824 13.5742 22.5666 13.521 22.5639L1.66903 22.0349C1.41488 22.0237 1.17555 21.9121 1.00361 21.7246C0.831672 21.5371 0.741188 21.2891 0.752033 21.0349C0.755428 20.9084 0.784236 20.7838 0.836745 20.6686C0.889253 20.5534 0.964389 20.45 1.05768 20.3645C1.15098 20.2789 1.26052 20.213 1.37981 20.1706C1.49909 20.1283 1.62568 20.1103 1.75203 20.1179L13.604 20.6449C13.9772 20.6616 14.3403 20.7712 14.6604 20.9639C14.9804 21.1565 15.2472 21.4261 15.4366 21.7481C15.626 22.0701 15.7319 22.4344 15.7447 22.8077C15.7575 23.181 15.6769 23.5517 15.51 23.8859L14.757 25.3909C14.7327 25.4397 14.7212 25.4938 14.7236 25.5483C14.7261 25.6028 14.7424 25.6557 14.7711 25.7021C14.7997 25.7484 14.8397 25.7867 14.8873 25.8133C14.9349 25.8399 14.9885 25.8538 15.043 25.8539H19.375C19.6244 25.8619 19.8609 25.9667 20.0344 26.1459C20.208 26.3252 20.305 26.5649 20.305 26.8144C20.305 27.0639 20.208 27.3036 20.0344 27.4829C19.8609 27.6621 19.6244 27.7668 19.375 27.7749H19.377Z" fill="#363B46"/>
<path d="M13.742 10.0889C13.5493 10.0888 13.3611 10.0306 13.202 9.92194L7.91204 6.31093C7.80412 6.24144 7.71123 6.15102 7.63883 6.04503C7.56643 5.93904 7.516 5.81962 7.49051 5.69382C7.46502 5.56802 7.465 5.43839 7.49043 5.31258C7.51586 5.18676 7.56624 5.06732 7.63859 4.9613C7.71094 4.85528 7.8038 4.76482 7.91169 4.69528C8.01957 4.62573 8.14029 4.5785 8.26673 4.55638C8.39316 4.53425 8.52275 4.53768 8.64784 4.56646C8.77293 4.59524 8.89098 4.64878 8.99504 4.72393L14.285 8.33293C14.4544 8.44888 14.5822 8.61601 14.6497 8.80985C14.7172 9.00369 14.7209 9.21405 14.6602 9.41013C14.5995 9.60621 14.4776 9.7777 14.3124 9.89949C14.1472 10.0213 13.9473 10.087 13.742 10.0869V10.0889Z" fill="#363B46"/>
<path d="M1.71201 22.0371C1.4731 22.0371 1.24274 21.9481 1.06596 21.7874C0.88917 21.6267 0.778655 21.4059 0.756009 21.1681L0.278009 16.1891C0.256728 15.9652 0.314388 15.7409 0.441009 15.5551L9.82701 1.80306C10.1622 1.31211 10.6786 0.974376 11.2628 0.864111C11.8469 0.753847 12.4509 0.880082 12.942 1.21506L16.117 3.38106C16.6076 3.71657 16.9449 4.23306 17.055 4.81711C17.1651 5.40116 17.0388 6.00501 16.704 6.49606L7.31601 20.2491C7.18919 20.4346 7.00127 20.5698 6.78501 20.6311L1.97401 22.0001C1.88853 22.0248 1.79998 22.0372 1.71101 22.0371H1.71201ZM2.22301 16.3521L2.55801 19.8371L5.92501 18.8791L15.117 5.41506C15.1644 5.34477 15.1822 5.25861 15.1665 5.1753C15.1507 5.09199 15.1028 5.01824 15.033 4.97006L11.858 2.80206C11.7881 2.75435 11.7021 2.73629 11.6189 2.75185C11.5356 2.76741 11.462 2.81531 11.414 2.88506L2.22301 16.3521Z" fill="#363B46"/>
</svg>
