<svg xmlns="http://www.w3.org/2000/svg" width="18" height="23.625" viewBox="0 0 18 23.625">
  <path id="Path_4304" data-name="Path 4304" d="M16.08,8.563H14.955V6.313a5.625,5.625,0,0,0-11.25,0v2.25H2.58a2.257,2.257,0,0,0-2.25,2.25v11.25a2.257,2.257,0,0,0,2.25,2.25h13.5a2.257,2.257,0,0,0,2.25-2.25V10.813A2.257,2.257,0,0,0,16.08,8.563ZM9.33,18.688a2.25,2.25,0,1,1,2.25-2.25A2.257,2.257,0,0,1,9.33,18.688ZM12.817,8.563H5.842V6.313a3.488,3.488,0,0,1,6.975,0Z" transform="translate(-0.33 -0.688)" fill="#868aa5"/>
</svg>
