<svg xmlns="http://www.w3.org/2000/svg" xmlns:xlink="http://www.w3.org/1999/xlink" width="538.02" height="1500.865" viewBox="0 0 538.02 1500.865">
  <defs>
    <clipPath id="clip-path">
      <rect id="Rectangle_3409" data-name="Rectangle 3409" width="1500.865" height="538.02" fill="none"/>
    </clipPath>
  </defs>
  <g id="Group_8388" data-name="Group 8388" transform="translate(-5246.841 -2133.371)">
    <g id="Group_8387" data-name="Group 8387" transform="translate(5246.841 2133.371)">
      <g id="Group_5578" data-name="Group 5578" transform="translate(538.02) rotate(90)" clip-path="url(#clip-path)">
        <path id="Path_5647" data-name="Path 5647" d="M0,27.679C0,42.966,11.759,55.358,26.266,55.358S52.531,42.966,52.531,27.679,40.772,0,26.266,0,0,12.392,0,27.679" transform="translate(115.661 201.066)" fill="#fc7005"/>
        <path id="Path_5648" data-name="Path 5648" d="M6.561,4.836,2.015,8.071,0,5.079,7.366,0h3.446V23.9H6.561Z" transform="translate(129.029 236.15) rotate(-90)" fill="#fff"/>
        <path id="Path_5649" data-name="Path 5649" d="M0,27.679C0,42.966,11.759,55.358,26.266,55.358S52.531,42.966,52.531,27.679,40.772,0,26.266,0,0,12.392,0,27.679" transform="translate(355.321 446.895)" fill="#fc7005"/>
        <path id="Path_5650" data-name="Path 5650" d="M.035,21.427l8.1-8.1c2.051-2.053,3.554-3.792,3.554-5.844A3.658,3.658,0,0,0,7.843,3.756a5.384,5.384,0,0,0-4.8,2.818L0,4.522A8.747,8.747,0,0,1,8.138,0c4.142,0,7.88,2.643,7.88,7.026,0,2.644-.989,4.905-4.18,8.036L6.523,20.314l.038.1h9.715v3.688H.108Z" transform="translate(369.535 482.712) rotate(-90)" fill="#fff"/>
        <path id="Path_5651" data-name="Path 5651" d="M0,27.679C0,42.966,11.759,55.358,26.266,55.358S52.531,42.966,52.531,27.679,40.772,0,26.266,0,0,12.392,0,27.679" transform="translate(607.668 106.01)" fill="#fc7005"/>
        <path id="Path_5652" data-name="Path 5652" d="M0,19.339l3.666-1.53c.769,1.774,2.383,2.853,4.911,2.853,2.384,0,4.326-1.392,4.326-3.549,0-1.878-1.576-3.582-4.73-3.582h-1.9V10.122H8.577c2.639,0,3.665-1.5,3.665-3.167,0-1.912-1.685-3.235-3.774-3.235A4.582,4.582,0,0,0,4.326,5.808L.916,4.069C2.127,1.7,4.912,0,8.577,0c4.4,0,7.954,2.3,7.954,6.33A5.907,5.907,0,0,1,13.2,11.687v.1a6.245,6.245,0,0,1,4.033,5.878c0,4.071-3.556,6.75-8.359,6.75-4.4,0-7.624-2.157-8.87-5.08" transform="translate(621.723 142.302) rotate(-90)" fill="#fff"/>
        <path id="Path_5653" data-name="Path 5653" d="M0,27.679C0,42.966,11.759,55.358,26.266,55.358S52.531,42.966,52.531,27.679,40.772,0,26.266,0,0,12.392,0,27.679" transform="translate(845.988 364.875)" fill="#fc7005"/>
        <path id="Path_5654" data-name="Path 5654" d="M11,19.863H0V17.115L11.693,0H15.25V16.279h3.481v3.584H15.25V23.9H11Zm.146-3.479V6.818L4.95,16.384Z" transform="translate(860.305 401.918) rotate(-90)" fill="#fff"/>
        <path id="Path_5655" data-name="Path 5655" d="M0,27.679C0,42.966,11.759,55.358,26.266,55.358S52.53,42.966,52.53,27.679,40.771,0,26.266,0,0,12.392,0,27.679" transform="translate(1087.235 35.922)" fill="#fc7005"/>
        <path id="Path_5656" data-name="Path 5656" d="M17.487,16.244c0,4.7-3.557,7.932-8.91,7.932A10.764,10.764,0,0,1,0,20.315l3.08-2.332a6.247,6.247,0,0,0,5.131,2.47c3.081,0,4.95-1.843,4.95-4.279,0-2.679-2.493-4.139-4.877-4.139a6.354,6.354,0,0,0-4.1,1.252l-2.311-.764L2.6,0H16.239V3.722H6.6l-.33,5.356a12.277,12.277,0,0,1,3.262-.521c4.362,0,7.956,2.888,7.956,7.687" transform="translate(1101.412 72.344) rotate(-90)" fill="#fff"/>
        <path id="Path_5657" data-name="Path 5657" d="M0,27.679C0,42.966,11.759,55.358,26.266,55.358S52.532,42.966,52.532,27.679,40.772,0,26.266,0,0,12.392,0,27.679" transform="translate(1331.379 352.283)" fill="#fc7005"/>
        <path id="Path_5658" data-name="Path 5658" d="M17.961,17.079c0,4.558-3.921,7.828-8.981,7.828C3.958,24.907,0,21.115,0,15.27A15.387,15.387,0,0,1,13.087,0l1.355,3.374c-4.471,1.182-7.881,3.374-9.384,7.2l.073.069a10.005,10.005,0,0,1,5.022-1.252c4.4,0,7.808,2.817,7.808,7.686M13.71,17.01c0-2.3-1.834-3.966-4.619-3.966a6.508,6.508,0,0,0-4.949,2.4v.314A5.16,5.16,0,0,0,9.275,21.15a4.216,4.216,0,0,0,4.435-4.14" transform="translate(1345.191 388.943) rotate(-90)" fill="#fff"/>
        <path id="Path_5659" data-name="Path 5659" d="M0,475.4v-182c0-70.062,53.9-126.858,120.38-126.858H125.3c66.485,0,120.381,56.8,120.381,126.858V404.162c0,70.165,54.048,127,120.63,126.858l2.474-.005c66.387-.145,120.132-56.9,120.132-126.858V176.263c0-70.062,53.9-126.859,120.38-126.859s120.38,56.8,120.38,126.859V318.354c0,70.062,53.9,126.858,120.38,126.858h4.949c66.485,0,120.38-56.8,120.38-126.858v-191.5c0-70.212,54.12-127.075,120.747-126.857l1.792.005C1163.39.2,1216.4,56.091,1216.519,125.074c.125,71.488.209,103.033.042,174.963-.162,70.182,53.781,127.157,120.38,127.157h4.613c66.485,0,120.38-56.8,120.38-126.858V109.311" transform="translate(17.478 3.5)" fill="none" stroke="#651ded" stroke-miterlimit="10" stroke-width="7"/>
        <path id="Path_5660" data-name="Path 5660" d="M42.9,22.6c0,12.484-9.6,22.605-21.451,22.605S0,35.089,0,22.6,9.6,0,21.45,0,42.9,10.121,42.9,22.6" transform="translate(0 457.739)" fill="#fc7005"/>
        <path id="Path_5661" data-name="Path 5661" d="M42.9,22.605c0,12.484-9.6,22.605-21.451,22.605S0,35.089,0,22.605,9.6,0,21.45,0,42.9,10.121,42.9,22.605" transform="translate(1457.964 64.451)" fill="#fc7005"/>
      </g>
      <path id="Path_5711" data-name="Path 5711" d="M2.175,0H5.2V-5.025l2.025-2.4L12.35,0H16.1L9.225-9.825,15.9-17.75H12.05l-6.8,8.5H5.2v-8.5H2.175Zm16.5,0h2.8V-6.2c0-2.4,1.25-3.65,3.275-3.65,1.675,0,2.65.85,2.65,3.275V0h2.8V-7.3c0-3.65-1.875-5.075-4.55-5.075a5.483,5.483,0,0,0-4.15,1.7h-.025V-18.4h-2.8Zm20.65-16.525c.45,0,.725.2.725.525.025.55-.6,1.325-1.75,2.15h2.05a3.134,3.134,0,0,0,2-2.55c0-1.425-1-2.05-2.35-2.05a4.9,4.9,0,0,0-3.525,1.325l.65,1.45A3.613,3.613,0,0,1,39.325-16.525Zm6.35,2.4v1.6c0,1.3.025,2.425-.95,2.925A6.175,6.175,0,0,0,39.3-12.375a6.091,6.091,0,0,0-6.4,6.3A6.085,6.085,0,0,0,39.3.2a6.071,6.071,0,0,0,6.4-6.275,7.151,7.151,0,0,0-.2-1.675c2-.55,3.025-2.25,3.025-4.6v-1.775ZM39.3-2.35a3.543,3.543,0,0,1-3.55-3.725A3.543,3.543,0,0,1,39.3-9.85a3.544,3.544,0,0,1,3.55,3.775A3.545,3.545,0,0,1,39.3-2.35ZM52.225-14a1.894,1.894,0,0,0,1.9-1.875,1.889,1.889,0,0,0-1.9-1.85,1.867,1.867,0,0,0-1.875,1.85A1.872,1.872,0,0,0,52.225-14Zm-1.4,14h2.8V-12.2h-2.8ZM77.55-15.95H76V-18.4H73.225v2.45h-4.65v1.9h4.65v3.35H73.2a4.937,4.937,0,0,0-3.9-1.675c-3.35,0-5.9,2.65-5.9,6.325C63.4-2.275,65.95.2,69.325.2A4.758,4.758,0,0,0,73.3-1.65h.025V0H76V-14.05h1.55Zm-7.8,13.6a3.449,3.449,0,0,1-3.5-3.675A3.54,3.54,0,0,1,69.775-9.85a3.572,3.572,0,0,1,3.55,3.825A3.508,3.508,0,0,1,69.75-2.35ZM80.9-13.85h2.775l1.375-1.925h.05l1.35,1.925h2.725L86.55-17.475H83.625ZM85.05.2a6.071,6.071,0,0,0,6.4-6.275,6.064,6.064,0,0,0-6.4-6.3,6.091,6.091,0,0,0-6.4,6.3A6.085,6.085,0,0,0,85.05.2Zm0-2.55A3.543,3.543,0,0,1,81.5-6.075,3.543,3.543,0,0,1,85.05-9.85,3.544,3.544,0,0,1,88.6-6.075,3.545,3.545,0,0,1,85.05-2.35Zm0,4.3a1.894,1.894,0,0,0-1.9,1.875,1.889,1.889,0,0,0,1.9,1.85,1.863,1.863,0,1,0,0-3.725ZM94.375,0h2.8V-6.125c0-2.4,1.25-3.725,3.15-3.725,1.675,0,2.65.825,2.65,3.4V0h2.8V-7.175c0-3.675-1.8-5.2-4.475-5.2a5.231,5.231,0,0,0-4.075,1.85h-.05V-12.2h-2.8ZM114.65,5.125c4.525,0,6.225-2.675,6.225-6.375V-12.2h-2.8v1.3h-.05a5.5,5.5,0,0,0-3.8-1.475c-3.375,0-5.8,2.575-5.8,6.15A5.743,5.743,0,0,0,114.375-.2a5.128,5.128,0,0,0,3.7-1.475h.05V-.4c0,1.625-1.225,3-3.625,3a8.007,8.007,0,0,1-4.15-1.2l-.675,2.45A9.812,9.812,0,0,0,114.65,5.125Zm.1-7.9A3.333,3.333,0,0,1,111.275-6.3a3.333,3.333,0,0,1,3.475-3.525A3.342,3.342,0,0,1,118.2-6.35,3.382,3.382,0,0,1,114.75-2.775Z" transform="translate(108.434 139.587)" fill="#414042"/>
      <path id="Path_6348" data-name="Path 6348" d="M7.825-17.75H2.175v7.65H.7v2.575H2.175V0H7.9c5.7,0,9.15-3.625,9.15-8.85C17.05-14.1,13.45-17.75,7.825-17.75ZM7.725-2.7H5.2V-7.525H9.4V-10.1H5.2v-4.95H7.875a5.882,5.882,0,0,1,6.05,6.2A5.906,5.906,0,0,1,7.725-2.7Zm18.3-11a3.63,3.63,0,0,0,3.9-3.725h-2.2a1.631,1.631,0,0,1-1.7,1.575,1.631,1.631,0,0,1-1.7-1.575h-2.2A3.63,3.63,0,0,0,26.025-13.7ZM25.375.2A4.581,4.581,0,0,0,29.25-1.625l.05.025V0h2.675V-12.2h-2.8v1.475l-.05.025a4.68,4.68,0,0,0-3.775-1.675c-3.35,0-5.875,2.65-5.875,6.325C19.475-2.275,22,.2,25.375.2Zm.45-2.55a3.435,3.435,0,0,1-3.5-3.675,3.522,3.522,0,0,1,3.5-3.825A3.574,3.574,0,0,1,29.3-6.025,3.487,3.487,0,0,1,25.825-2.35Zm-.075,4.3a1.894,1.894,0,0,0-1.9,1.875,1.889,1.889,0,0,0,1.9,1.85,1.863,1.863,0,1,0,0-3.725ZM39.025.2a5.672,5.672,0,0,0,3.1-.725L41.4-2.95a4.092,4.092,0,0,1-1.8.525c-.8,0-1.175-.45-1.175-1.7v-5.7H42V-12.2H38.425v-4.35l-2.8.3v4.05h-1.5v2.375h1.5V-3.85C35.625-1.125,36.925.2,39.025.2Zm17.7,0a6.127,6.127,0,0,0,5.25-2.275l-1.925-1.7A3.817,3.817,0,0,1,56.975-2.35,3.5,3.5,0,0,1,53.35-6.1a3.5,3.5,0,0,1,3.625-3.75,3.949,3.949,0,0,1,3.075,1.4l1.9-1.65a6.68,6.68,0,0,0-5.125-2.275,6.03,6.03,0,0,0-6.325,6.3A6,6,0,0,0,56.725.2Zm9.45-14.05H68.95l1.375-1.925h.05l1.35,1.925H74.45l-2.625-3.625H68.9ZM69.675.2A4.581,4.581,0,0,0,73.55-1.625l.05.025V0h2.675V-12.2h-2.8v1.475l-.05.025a4.68,4.68,0,0,0-3.775-1.675c-3.35,0-5.875,2.65-5.875,6.325C63.775-2.275,66.3.2,69.675.2Zm.45-2.55a3.435,3.435,0,0,1-3.5-3.675,3.522,3.522,0,0,1,3.5-3.825A3.574,3.574,0,0,1,73.6-6.025,3.487,3.487,0,0,1,70.125-2.35Zm14,2.55A4.769,4.769,0,0,0,87.85-1.55l.05.025V0h2.8V-12.2H87.9v5.85c0,2.625-1.5,4-3.125,4-1.675,0-2.425-.75-2.425-3.175V-12.2h-2.8v7.425C79.55-1.15,81.425.2,84.125.2ZM100.95,0h2.8V-6.2c0-2.4,1.25-3.65,3.275-3.65,1.675,0,2.65.85,2.65,3.275V0h2.8V-7.3c0-3.65-1.875-5.075-4.55-5.075a5.483,5.483,0,0,0-4.15,1.7h-.025V-18.4h-2.8Zm19.625-13.85h2.05a3.134,3.134,0,0,0,2-2.55c0-1.425-1-2.05-2.35-2.05a4.9,4.9,0,0,0-3.525,1.325l.65,1.45a3.614,3.614,0,0,1,2.2-.85c.45,0,.725.2.725.525C122.35-15.45,121.725-14.675,120.575-13.85Zm1,14.05a6.071,6.071,0,0,0,6.4-6.275,6.064,6.064,0,0,0-6.4-6.3,6.091,6.091,0,0,0-6.4,6.3A6.085,6.085,0,0,0,121.575.2Zm0-2.55a3.543,3.543,0,0,1-3.55-3.725,3.543,3.543,0,0,1,3.55-3.775,3.544,3.544,0,0,1,3.55,3.775A3.545,3.545,0,0,1,121.575-2.35ZM132.475-14a1.894,1.894,0,0,0,1.9-1.875,1.889,1.889,0,0,0-1.9-1.85,1.867,1.867,0,0,0-1.875,1.85A1.872,1.872,0,0,0,132.475-14Zm-1.4,14h2.8V-12.2h-2.8ZM149.85,5.125c4.525,0,6.225-2.675,6.225-6.375V-12.2h-2.8v1.3h-.05a5.5,5.5,0,0,0-3.8-1.475c-3.375,0-5.8,2.575-5.8,6.15A5.743,5.743,0,0,0,149.575-.2a5.128,5.128,0,0,0,3.7-1.475h.05V-.4c0,1.625-1.225,3-3.625,3a8.007,8.007,0,0,1-4.15-1.2l-.675,2.45A9.812,9.812,0,0,0,149.85,5.125Zm.1-7.9A3.333,3.333,0,0,1,146.475-6.3a3.333,3.333,0,0,1,3.475-3.525A3.342,3.342,0,0,1,153.4-6.35,3.382,3.382,0,0,1,149.95-2.775Zm21.675-11.35v1.6c0,1.3.025,2.425-.95,2.925a6.175,6.175,0,0,0-5.425-2.775,6.091,6.091,0,0,0-6.4,6.3A6.085,6.085,0,0,0,165.25.2a6.071,6.071,0,0,0,6.4-6.275,7.151,7.151,0,0,0-.2-1.675c2-.55,3.025-2.25,3.025-4.6v-1.775ZM165.25-2.35a3.543,3.543,0,0,1-3.55-3.725,3.543,3.543,0,0,1,3.55-3.775,3.544,3.544,0,0,1,3.55,3.775A3.545,3.545,0,0,1,165.25-2.35Zm0,4.3a1.894,1.894,0,0,0-1.9,1.875,1.889,1.889,0,0,0,1.9,1.85,1.863,1.863,0,1,0,0-3.725ZM178.175-14a1.894,1.894,0,0,0,1.9-1.875,1.889,1.889,0,0,0-1.9-1.85,1.867,1.867,0,0,0-1.875,1.85A1.872,1.872,0,0,0,178.175-14Zm-1.4,14h2.8V-12.2h-2.8ZM190.1,0h2.8V-6.075c0-2.4,1.25-3.775,2.925-3.775,1.65,0,2.425,1.3,2.425,3.5V0h2.8V-6.075c0-2.4,1.275-3.775,2.85-3.775,1.65,0,2.375,1.3,2.375,3.5V0h2.8V-7.05c0-3.65-1.6-5.325-4.275-5.325a5.354,5.354,0,0,0-4.375,2.025h-.05a3.825,3.825,0,0,0-3.65-2.025,4.979,4.979,0,0,0-3.8,1.85H192.9V-12.2h-2.8Zm28.125-16.525c.45,0,.725.2.725.525.025.55-.6,1.325-1.75,2.15h2.05a3.134,3.134,0,0,0,2-2.55c0-1.425-1-2.05-2.35-2.05a4.9,4.9,0,0,0-3.525,1.325l.65,1.45A3.613,3.613,0,0,1,218.225-16.525Zm6.35,2.4v1.6c0,1.3.025,2.425-.95,2.925a6.175,6.175,0,0,0-5.425-2.775,6.091,6.091,0,0,0-6.4,6.3A6.085,6.085,0,0,0,218.2.2a6.071,6.071,0,0,0,6.4-6.275,7.151,7.151,0,0,0-.2-1.675c2-.55,3.025-2.25,3.025-4.6v-1.775ZM218.2-2.35a3.543,3.543,0,0,1-3.55-3.725A3.543,3.543,0,0,1,218.2-9.85a3.544,3.544,0,0,1,3.55,3.775A3.545,3.545,0,0,1,218.2-2.35Z" transform="translate(141.813 374.907)" fill="#414042"/>
      <path id="Path_6349" data-name="Path 6349" d="M5.325,0H8l4.85-12.2H9.875L6.7-3.5H6.675L3.5-12.2H.5Zm20.5-16.125L23.75-19.75H20.675l3.075,3.625Zm-6.15.35h.05l1.35,1.925H23.8l-2.625-3.625H18.25L15.525-13.85H18.3Zm-.075,3.4A5.92,5.92,0,0,0,13.475-6.1,5.99,5.99,0,0,0,19.8.2a6.018,6.018,0,0,0,5.175-2.3l-1.95-1.675A3.815,3.815,0,0,1,19.95-2.35a3.381,3.381,0,0,1-3.575-2.825h8.9A8.879,8.879,0,0,0,25.35-6.25C25.35-9.8,23.025-12.375,19.6-12.375ZM19.575-9.85a2.919,2.919,0,0,1,2.95,2.475h-6.1A3.086,3.086,0,0,1,19.575-9.85ZM40.45.2A6.127,6.127,0,0,0,45.7-2.075l-1.925-1.7A3.817,3.817,0,0,1,40.7-2.35,3.5,3.5,0,0,1,37.075-6.1,3.5,3.5,0,0,1,40.7-9.85a3.949,3.949,0,0,1,3.075,1.4l1.9-1.65a6.68,6.68,0,0,0-5.125-2.275,6.03,6.03,0,0,0-6.325,6.3A6,6,0,0,0,40.45.2Zm7.8-.2h2.8V-6.2c0-2.4,1.25-3.65,3.275-3.65,1.675,0,2.65.85,2.65,3.275V0h2.8V-7.3c0-3.65-1.875-5.075-4.55-5.075a5.483,5.483,0,0,0-4.15,1.7H51.05V-18.4h-2.8Zm19.3-13.85H69.6a3.134,3.134,0,0,0,2-2.55c0-1.425-1-2.05-2.35-2.05a4.9,4.9,0,0,0-3.525,1.325l.65,1.45a3.613,3.613,0,0,1,2.2-.85c.45,0,.725.2.725.525C69.325-15.45,68.7-14.675,67.55-13.85ZM67.525.2A4.769,4.769,0,0,0,71.25-1.55l.05.025V0h2.8V-12.2H71.3v5.85c0,2.625-1.5,4-3.125,4-1.675,0-2.425-.75-2.425-3.175V-12.2h-2.8v7.425C62.95-1.15,64.825.2,67.525.2ZM97.75-15.95H96.2V-18.4H93.425v2.45h-4.65v1.9h4.65v3.35H93.4a4.937,4.937,0,0,0-3.9-1.675c-3.35,0-5.9,2.65-5.9,6.325C83.6-2.275,86.15.2,89.525.2A4.758,4.758,0,0,0,93.5-1.65h.025V0H96.2V-14.05h1.55Zm-7.8,13.6a3.449,3.449,0,0,1-3.5-3.675A3.54,3.54,0,0,1,89.975-9.85a3.572,3.572,0,0,1,3.55,3.825A3.508,3.508,0,0,1,89.95-2.35ZM111.2-16.125l-2.075-3.625H106.05l3.075,3.625Zm-6.15.35h.05l1.35,1.925h2.725l-2.625-3.625h-2.925L100.9-13.85h2.775Zm-.075,3.4A5.92,5.92,0,0,0,98.85-6.1,5.99,5.99,0,0,0,105.175.2a6.018,6.018,0,0,0,5.175-2.3L108.4-3.775a3.815,3.815,0,0,1-3.075,1.425,3.381,3.381,0,0,1-3.575-2.825h8.9a8.879,8.879,0,0,0,.075-1.075C110.725-9.8,108.4-12.375,104.975-12.375ZM104.95-9.85a2.919,2.919,0,0,1,2.95,2.475h-6.1A3.086,3.086,0,0,1,104.95-9.85Z" transform="translate(141.813 406.846)" fill="#414042"/>
      <path id="Path_6345" data-name="Path 6345" d="M5.825,0H8.85V-15.05h5.1v-2.7H.8v2.7H5.825ZM17.5-14a1.894,1.894,0,0,0,1.9-1.875,1.889,1.889,0,0,0-1.9-1.85,1.867,1.867,0,0,0-1.875,1.85A1.872,1.872,0,0,0,17.5-14ZM16.1,0h2.8V-12.2H16.1ZM36.725-19.75H33.65l-2.075,3.625H33.65ZM28.2-15.775h.05L29.6-13.85h2.725L29.7-17.475H26.775L24.05-13.85h2.775Zm-.075,3.4A5.92,5.92,0,0,0,22-6.1,5.99,5.99,0,0,0,28.325.2,6.018,6.018,0,0,0,33.5-2.1L31.55-3.775A3.815,3.815,0,0,1,28.475-2.35,3.381,3.381,0,0,1,24.9-5.175h8.9a8.879,8.879,0,0,0,.075-1.075C33.875-9.8,31.55-12.375,28.125-12.375ZM28.1-9.85a2.919,2.919,0,0,1,2.95,2.475h-6.1A3.086,3.086,0,0,1,28.1-9.85Zm8.675,14.8h2.8V-1.475l.05-.025A4.7,4.7,0,0,0,43.45.2c3.4,0,5.925-2.475,5.925-6.25,0-3.675-2.525-6.325-5.9-6.325a4.921,4.921,0,0,0-3.85,1.625h-.05V-12.2h-2.8Zm6.25-7.3A3.508,3.508,0,0,1,39.45-6.025,3.572,3.572,0,0,1,43-9.85a3.54,3.54,0,0,1,3.525,3.825A3.449,3.449,0,0,1,43.025-2.35ZM64.5.2a6.127,6.127,0,0,0,5.25-2.275l-1.925-1.7A3.817,3.817,0,0,1,64.75-2.35,3.5,3.5,0,0,1,61.125-6.1,3.5,3.5,0,0,1,64.75-9.85a3.949,3.949,0,0,1,3.075,1.4l1.9-1.65A6.68,6.68,0,0,0,64.6-12.375a6.03,6.03,0,0,0-6.325,6.3A6,6,0,0,0,64.5.2Zm9.45-14.05h2.775L78.1-15.775h.05L79.5-13.85h2.725L79.6-17.475H76.675ZM77.45.2a4.581,4.581,0,0,0,3.875-1.825l.05.025V0H84.05V-12.2h-2.8v1.475l-.05.025a4.68,4.68,0,0,0-3.775-1.675c-3.35,0-5.875,2.65-5.875,6.325C71.55-2.275,74.075.2,77.45.2Zm.45-2.55a3.435,3.435,0,0,1-3.5-3.675A3.522,3.522,0,0,1,77.9-9.85a3.574,3.574,0,0,1,3.475,3.825A3.487,3.487,0,0,1,77.9-2.35Zm-.075,4.3a1.894,1.894,0,0,0-1.9,1.875,1.889,1.889,0,0,0,1.9,1.85,1.863,1.863,0,1,0,0-3.725ZM87.575,0h2.8V-6.125c0-2.4,1.25-3.725,3.15-3.725,1.675,0,2.65.825,2.65,3.4V0h2.8V-7.175c0-3.675-1.8-5.2-4.475-5.2a5.231,5.231,0,0,0-4.075,1.85h-.05V-12.2h-2.8ZM109.1,0h2.8V-6.125c0-2.4,1.25-3.725,3.15-3.725,1.675,0,2.65.825,2.65,3.4V0h2.8V-7.175c0-3.675-1.8-5.2-4.475-5.2a5.231,5.231,0,0,0-4.075,1.85h-.05V-12.2h-2.8Zm16.35-13.85h2.775l1.375-1.925h.05L131-13.85h2.725L131.1-17.475h-2.925ZM129.6.2A6.071,6.071,0,0,0,136-6.075a6.064,6.064,0,0,0-6.4-6.3,6.091,6.091,0,0,0-6.4,6.3A6.085,6.085,0,0,0,129.6.2Zm0-2.55a3.543,3.543,0,0,1-3.55-3.725A3.543,3.543,0,0,1,129.6-9.85a3.544,3.544,0,0,1,3.55,3.775A3.545,3.545,0,0,1,129.6-2.35Zm0,4.3a1.894,1.894,0,0,0-1.9,1.875,1.889,1.889,0,0,0,1.9,1.85,1.863,1.863,0,1,0,0-3.725ZM140.5-14a1.894,1.894,0,0,0,1.9-1.875,1.889,1.889,0,0,0-1.9-1.85,1.867,1.867,0,0,0-1.875,1.85A1.872,1.872,0,0,0,140.5-14ZM139.1,0h2.8V-12.2h-2.8Zm18.5.2a4.758,4.758,0,0,0,3.975-1.85h.025V0h2.675V-18.4H161.5v7.7h-.025a4.937,4.937,0,0,0-3.9-1.675c-3.35,0-5.9,2.65-5.9,6.325C151.675-2.275,154.225.2,157.6.2Zm.425-2.55a3.449,3.449,0,0,1-3.5-3.675A3.54,3.54,0,0,1,158.05-9.85a3.572,3.572,0,0,1,3.55,3.825A3.508,3.508,0,0,1,158.025-2.35ZM172.25.2a4.769,4.769,0,0,0,3.725-1.75l.05.025V0h2.8V-12.2h-2.8v5.85c0,2.625-1.5,4-3.125,4-1.675,0-2.425-.75-2.425-3.175V-12.2h-2.8v7.425C167.675-1.15,169.55.2,172.25.2ZM182.375,0h2.8V-6.125c0-2.4,1.25-3.725,3.15-3.725,1.675,0,2.65.825,2.65,3.4V0h2.8V-7.175c0-3.675-1.8-5.2-4.475-5.2a5.231,5.231,0,0,0-4.075,1.85h-.05V-12.2h-2.8ZM202.65,5.125c4.525,0,6.225-2.675,6.225-6.375V-12.2h-2.8v1.3h-.05a5.5,5.5,0,0,0-3.8-1.475c-3.375,0-5.8,2.575-5.8,6.15A5.743,5.743,0,0,0,202.375-.2a5.128,5.128,0,0,0,3.7-1.475h.05V-.4c0,1.625-1.225,3-3.625,3a8.007,8.007,0,0,1-4.15-1.2l-.675,2.45A9.812,9.812,0,0,0,202.65,5.125Zm.1-7.9A3.333,3.333,0,0,1,199.275-6.3a3.333,3.333,0,0,1,3.475-3.525A3.342,3.342,0,0,1,206.2-6.35,3.382,3.382,0,0,1,202.75-2.775ZM210.875,3.3h2.05l1.75-6.325h-3Z" transform="translate(111 607.724)" fill="#414042"/>
      <path id="Path_6346" data-name="Path 6346" d="M5.45.2a5.672,5.672,0,0,0,3.1-.725L7.825-2.95a4.092,4.092,0,0,1-1.8.525c-.8,0-1.175-.45-1.175-1.7v-5.7H8.425V-12.2H4.85v-4.35l-2.8.3v4.05H.55v2.375h1.5V-3.85C2.05-1.125,3.35.2,5.45.2ZM11.1-13.9h2.85l-2.025-3.6L8.85-17.525ZM11.125,0h2.8V-12.2h-2.8Zm6.65,0h2.8V-6.075c0-2.4,1.25-3.775,2.925-3.775,1.65,0,2.425,1.3,2.425,3.5V0h2.8V-6.075c0-2.4,1.275-3.775,2.85-3.775,1.65,0,2.375,1.3,2.375,3.5V0h2.8V-7.05c0-3.65-1.6-5.325-4.275-5.325A5.354,5.354,0,0,0,28.1-10.35h-.05a3.825,3.825,0,0,0-3.65-2.025,4.979,4.979,0,0,0-3.8,1.85h-.025V-12.2h-2.8ZM46.9,0h2.8V-6.2c0-2.4,1.25-3.65,3.275-3.65,1.675,0,2.65.85,2.65,3.275V0h2.8V-7.3c0-3.65-1.875-5.075-4.55-5.075a5.483,5.483,0,0,0-4.15,1.7H49.7V-18.4H46.9ZM63.425-14a1.894,1.894,0,0,0,1.9-1.875,1.889,1.889,0,0,0-1.9-1.85,1.867,1.867,0,0,0-1.875,1.85A1.872,1.872,0,0,0,63.425-14Zm-1.4,14h2.8V-12.2h-2.8ZM79.45-20.75A4.728,4.728,0,0,0,76.1-19.5l.6,1.375a3.526,3.526,0,0,1,2.1-.8c.425,0,.675.2.675.5.025.525-.55,1.25-1.65,2.05h1.95a3.041,3.041,0,0,0,1.9-2.425C81.675-20.15,80.725-20.75,79.45-20.75ZM74.1-15.775h.05L75.5-13.85h2.725L75.6-17.475H72.675L69.95-13.85h2.775Zm-.05,3.4A5.92,5.92,0,0,0,67.925-6.1,5.99,5.99,0,0,0,74.25.2a6.018,6.018,0,0,0,5.175-2.3l-1.95-1.675A3.815,3.815,0,0,1,74.4-2.35a3.381,3.381,0,0,1-3.575-2.825h8.9A8.879,8.879,0,0,0,79.8-6.25C79.8-9.8,77.475-12.375,74.05-12.375ZM74.025-9.85a2.919,2.919,0,0,1,2.95,2.475h-6.1A3.086,3.086,0,0,1,74.025-9.85ZM87.025.2A4.769,4.769,0,0,0,90.75-1.55l.05.025V0h2.8V-12.2H90.8v5.85c0,2.625-1.5,4-3.125,4C86-2.35,85.25-3.1,85.25-5.525V-12.2h-2.8v7.425C82.45-1.15,84.325.2,87.025.2ZM109.35.2a6.127,6.127,0,0,0,5.25-2.275l-1.925-1.7A3.817,3.817,0,0,1,109.6-2.35a3.5,3.5,0,0,1-3.625-3.75A3.5,3.5,0,0,1,109.6-9.85a3.949,3.949,0,0,1,3.075,1.4l1.9-1.65a6.68,6.68,0,0,0-5.125-2.275,6.03,6.03,0,0,0-6.325,6.3A6,6,0,0,0,109.35.2Zm7.8-.2h2.8V-6.2c0-2.4,1.25-3.65,3.275-3.65,1.675,0,2.65.85,2.65,3.275V0h2.8V-7.3c0-3.65-1.875-5.075-4.55-5.075a5.483,5.483,0,0,0-4.15,1.7h-.025V-18.4h-2.8Zm19.3-13.85h2.05a3.134,3.134,0,0,0,2-2.55c0-1.425-1-2.05-2.35-2.05a4.9,4.9,0,0,0-3.525,1.325l.65,1.45a3.613,3.613,0,0,1,2.2-.85c.45,0,.725.2.725.525C138.225-15.45,137.6-14.675,136.45-13.85ZM136.425.2a4.769,4.769,0,0,0,3.725-1.75l.05.025V0H143V-12.2h-2.8v5.85c0,2.625-1.5,4-3.125,4-1.675,0-2.425-.75-2.425-3.175V-12.2h-2.8v7.425C131.85-1.15,133.725.2,136.425.2ZM166.65-15.95H165.1V-18.4h-2.775v2.45h-4.65v1.9h4.65v3.35H162.3a4.937,4.937,0,0,0-3.9-1.675c-3.35,0-5.9,2.65-5.9,6.325,0,3.775,2.55,6.25,5.925,6.25A4.758,4.758,0,0,0,162.4-1.65h.025V0H165.1V-14.05h1.55Zm-7.8,13.6a3.449,3.449,0,0,1-3.5-3.675,3.54,3.54,0,0,1,3.525-3.825,3.572,3.572,0,0,1,3.55,3.825A3.508,3.508,0,0,1,158.85-2.35ZM180.1-16.125l-2.075-3.625H174.95l3.075,3.625Zm-6.15.35H174l1.35,1.925h2.725l-2.625-3.625h-2.925L169.8-13.85h2.775Zm-.075,3.4A5.92,5.92,0,0,0,167.75-6.1,5.99,5.99,0,0,0,174.075.2a6.018,6.018,0,0,0,5.175-2.3L177.3-3.775a3.815,3.815,0,0,1-3.075,1.425,3.381,3.381,0,0,1-3.575-2.825h8.9a8.877,8.877,0,0,0,.075-1.075C179.625-9.8,177.3-12.375,173.875-12.375ZM173.85-9.85a2.919,2.919,0,0,1,2.95,2.475h-6.1A3.086,3.086,0,0,1,173.85-9.85Z" transform="translate(140 639.631)" fill="#414042"/>
      <path id="Path_6347" data-name="Path 6347" d="M5.325,0H8l4.85-12.2H9.875L6.7-3.5H6.675L3.5-12.2H.5Zm19-17.525L21.25-17.5l-2.875,3.6h2.85Zm1.925,3.4v1.6c0,1.3.025,2.425-.95,2.925a6.175,6.175,0,0,0-5.425-2.775,6.091,6.091,0,0,0-6.4,6.3A6.085,6.085,0,0,0,19.875.2a6.071,6.071,0,0,0,6.4-6.275,7.151,7.151,0,0,0-.2-1.675c2-.55,3.025-2.25,3.025-4.6v-1.775ZM19.875-2.35a3.543,3.543,0,0,1-3.55-3.725,3.543,3.543,0,0,1,3.55-3.775,3.544,3.544,0,0,1,3.55,3.775A3.545,3.545,0,0,1,19.875-2.35ZM32.8-14a1.894,1.894,0,0,0,1.9-1.875,1.889,1.889,0,0,0-1.9-1.85,1.867,1.867,0,0,0-1.875,1.85A1.872,1.872,0,0,0,32.8-14ZM31.4,0h2.8V-12.2H31.4ZM48.35.2a5.672,5.672,0,0,0,3.1-.725L50.725-2.95a4.092,4.092,0,0,1-1.8.525c-.8,0-1.175-.45-1.175-1.7v-5.7h3.575V-12.2H47.75v-4.35l-2.8.3v4.05h-1.5v2.375h1.5V-3.85C44.95-1.125,46.25.2,48.35.2ZM66.075-14.125v1.6c0,1.475.05,2.675-1.325,3.075V-12.2h-2.8v5.85c0,2.625-1.5,4-3.125,4C57.15-2.35,56.4-3.1,56.4-5.525V-12.2H53.6v7.425C53.6-1.15,55.475.2,58.175.2A4.769,4.769,0,0,0,61.9-1.55l.05.025V0h2.8V-7.575c2.75-.15,4.175-2,4.175-4.775v-1.775ZM77.9,0h2.8V-18.4H77.9Zm8.2-14A1.894,1.894,0,0,0,88-15.875a1.889,1.889,0,0,0-1.9-1.85,1.867,1.867,0,0,0-1.875,1.85A1.872,1.872,0,0,0,86.1-14ZM84.7,0h2.8V-12.2H84.7ZM96.775-15.775h.05l1.35,1.925H100.9l-2.625-3.625H95.35L92.625-13.85H95.4Zm5.7,9.525c0-3.55-2.325-6.125-5.75-6.125A5.92,5.92,0,0,0,90.6-6.1,5.99,5.99,0,0,0,96.925.2,6.018,6.018,0,0,0,102.1-2.1l-1.95-1.675A3.815,3.815,0,0,1,97.075-2.35,3.381,3.381,0,0,1,93.5-5.175h8.9A8.879,8.879,0,0,0,102.475-6.25ZM96.7-9.85a2.919,2.919,0,0,1,2.95,2.475h-6.1A3.086,3.086,0,0,1,96.7-9.85Zm.2,11.8A1.894,1.894,0,0,0,95,3.825a1.889,1.889,0,0,0,1.9,1.85,1.863,1.863,0,1,0,0-3.725ZM109.7.2a4.769,4.769,0,0,0,3.725-1.75l.05.025V0h2.8V-12.2h-2.8v5.85c0,2.625-1.5,4-3.125,4-1.675,0-2.425-.75-2.425-3.175V-12.2h-2.8v7.425C105.125-1.15,107,.2,109.7.2Zm20.45,0a5.672,5.672,0,0,0,3.1-.725l-.725-2.425a4.092,4.092,0,0,1-1.8.525c-.8,0-1.175-.45-1.175-1.7v-5.7h3.575V-12.2H129.55v-4.35l-2.8.3v4.05h-1.5v2.375h1.5V-3.85C126.75-1.125,128.05.2,130.15.2Zm5.5-.2h2.8V-6.2c0-2.4,1.25-3.65,3.275-3.65,1.675,0,2.65.85,2.65,3.275V0h2.8V-7.3c0-3.65-1.875-5.075-4.55-5.075a5.483,5.483,0,0,0-4.15,1.7h-.025V-18.4h-2.8Zm27.175-14.125v1.6c0,1.475.05,2.675-1.325,3.075V-12.2h-2.8v5.85c0,2.625-1.5,4-3.125,4-1.675,0-2.425-.75-2.425-3.175V-12.2h-2.8v7.425C150.35-1.15,152.225.2,154.925.2a4.769,4.769,0,0,0,3.725-1.75l.05.025V0h2.8V-7.575c2.75-.15,4.175-2,4.175-4.775v-1.775ZM156.075,1.95a1.894,1.894,0,0,0-1.9,1.875,1.889,1.889,0,0,0,1.9,1.85,1.863,1.863,0,1,0,0-3.725ZM172.675.2a6.127,6.127,0,0,0,5.25-2.275L176-3.775a3.817,3.817,0,0,1-3.075,1.425A3.5,3.5,0,0,1,169.3-6.1a3.5,3.5,0,0,1,3.625-3.75A3.949,3.949,0,0,1,176-8.45l1.9-1.65a6.68,6.68,0,0,0-5.125-2.275,6.03,6.03,0,0,0-6.325,6.3A6,6,0,0,0,172.675.2ZM190.8.2a5.672,5.672,0,0,0,3.1-.725l-.725-2.425a4.092,4.092,0,0,1-1.8.525c-.8,0-1.175-.45-1.175-1.7v-5.7h3.575V-12.2H190.2v-4.35l-2.8.3v4.05h-1.5v2.375h1.5V-3.85C187.4-1.125,188.7.2,190.8.2Zm18.775-19.95H206.5l-2.075,3.625H206.5Zm-8.525,3.975h.05l1.35,1.925h2.725l-2.625-3.625h-2.925L196.9-13.85h2.775Zm-.075,3.4A5.92,5.92,0,0,0,194.85-6.1,5.99,5.99,0,0,0,201.175.2a6.018,6.018,0,0,0,5.175-2.3L204.4-3.775a3.815,3.815,0,0,1-3.075,1.425,3.381,3.381,0,0,1-3.575-2.825h8.9a8.877,8.877,0,0,0,.075-1.075C206.725-9.8,204.4-12.375,200.975-12.375ZM200.95-9.85a2.919,2.919,0,0,1,2.95,2.475h-6.1A3.086,3.086,0,0,1,200.95-9.85Z" transform="translate(117 671.941)" fill="#414042"/>
      <path id="Path_6341" data-name="Path 6341" d="M2.175,0H5.2V-7.125h8V0h3.025V-17.75H13.2v7.925h-8V-17.75H2.175ZM25.9.2a6.071,6.071,0,0,0,6.4-6.275,6.064,6.064,0,0,0-6.4-6.3,6.091,6.091,0,0,0-6.4,6.3A6.085,6.085,0,0,0,25.9.2Zm0-2.55a3.543,3.543,0,0,1-3.55-3.725A3.543,3.543,0,0,1,25.9-9.85a3.544,3.544,0,0,1,3.55,3.775A3.545,3.545,0,0,1,25.9-2.35Zm0,4.3A1.894,1.894,0,0,0,24,3.825a1.889,1.889,0,0,0,1.9,1.85,1.863,1.863,0,1,0,0-3.725ZM40.725.2a6.127,6.127,0,0,0,5.25-2.275l-1.925-1.7A3.817,3.817,0,0,1,40.975-2.35,3.5,3.5,0,0,1,37.35-6.1a3.5,3.5,0,0,1,3.625-3.75,3.949,3.949,0,0,1,3.075,1.4l1.9-1.65a6.68,6.68,0,0,0-5.125-2.275,6.03,6.03,0,0,0-6.325,6.3A6,6,0,0,0,40.725.2ZM58.85.2a5.672,5.672,0,0,0,3.1-.725L61.225-2.95a4.092,4.092,0,0,1-1.8.525c-.8,0-1.175-.45-1.175-1.7v-5.7h3.575V-12.2H58.25v-4.35l-2.8.3v4.05h-1.5v2.375h1.5V-3.85C55.45-1.125,56.75.2,58.85.2Zm5.5-.2h2.8V-6.2c0-2.4,1.25-3.65,3.275-3.65,1.675,0,2.65.85,2.65,3.275V0h2.8V-7.3c0-3.65-1.875-5.075-4.55-5.075a5.483,5.483,0,0,0-4.15,1.7H67.15V-18.4h-2.8ZM80.825-13.85H83.6l1.375-1.925h.05l1.35,1.925H89.1l-2.625-3.625H83.55ZM84.975.2a6.071,6.071,0,0,0,6.4-6.275,6.064,6.064,0,0,0-6.4-6.3,6.091,6.091,0,0,0-6.4,6.3A6.085,6.085,0,0,0,84.975.2Zm0-2.55a3.543,3.543,0,0,1-3.55-3.725,3.543,3.543,0,0,1,3.55-3.775,3.544,3.544,0,0,1,3.55,3.775A3.545,3.545,0,0,1,84.975-2.35ZM94.3,0h2.8V-6.125c0-2.4,1.25-3.725,3.15-3.725,1.675,0,2.65.825,2.65,3.4V0h2.8V-7.175c0-3.675-1.8-5.2-4.475-5.2a5.231,5.231,0,0,0-4.075,1.85H97.1V-12.2H94.3Zm20.275,5.125c4.525,0,6.225-2.675,6.225-6.375V-12.2H118v1.3h-.05a5.5,5.5,0,0,0-3.8-1.475c-3.375,0-5.8,2.575-5.8,6.15A5.743,5.743,0,0,0,114.3-.2,5.128,5.128,0,0,0,118-1.675h.05V-.4c0,1.625-1.225,3-3.625,3a8.007,8.007,0,0,1-4.15-1.2L109.6,3.85A9.812,9.812,0,0,0,114.575,5.125Zm.1-7.9A3.333,3.333,0,0,1,111.2-6.3a3.333,3.333,0,0,1,3.475-3.525,3.342,3.342,0,0,1,3.45,3.475A3.382,3.382,0,0,1,114.675-2.775Zm25.4,7.725h2.8V-12.2h-2.8v1.5h-.025a4.9,4.9,0,0,0-3.9-1.675c-3.35,0-5.875,2.65-5.875,6.325,0,3.775,2.525,6.25,5.9,6.25a4.764,4.764,0,0,0,3.875-1.7h.025Zm-3.45-7.3a3.435,3.435,0,0,1-3.5-3.675,3.522,3.522,0,0,1,3.5-3.825,3.572,3.572,0,0,1,3.55,3.825A3.5,3.5,0,0,1,136.625-2.35ZM150.725.2a4.769,4.769,0,0,0,3.725-1.75l.05.025V0h2.8V-12.2h-2.8v5.85c0,2.625-1.5,4-3.125,4-1.675,0-2.425-.75-2.425-3.175V-12.2h-2.8v7.425C146.15-1.15,148.025.2,150.725.2ZM166,.2a4.581,4.581,0,0,0,3.875-1.825l.05.025V0H172.6V-12.2h-2.8v1.475l-.05.025a4.68,4.68,0,0,0-3.775-1.675c-3.35,0-5.875,2.65-5.875,6.325C160.1-2.275,162.625.2,166,.2Zm.45-2.55a3.435,3.435,0,0,1-3.5-3.675,3.522,3.522,0,0,1,3.5-3.825,3.574,3.574,0,0,1,3.475,3.825A3.487,3.487,0,0,1,166.45-2.35Zm20,2.55a5.672,5.672,0,0,0,3.1-.725l-.725-2.425a4.092,4.092,0,0,1-1.8.525c-.8,0-1.175-.45-1.175-1.7v-5.7h3.575V-12.2H185.85v-4.35l-2.8.3v4.05h-1.5v2.375h1.5V-3.85C183.05-1.125,184.35.2,186.45.2Zm5.5-.2h2.8V-5.775A3.229,3.229,0,0,1,198.075-9.3c.2,0,.525.025.85.05v-3.125h-.35a4.688,4.688,0,0,0-3.775,2h-.05V-12.2h-2.8Zm13.4-13.85h2.775l-2.75-3.575-3.125-.025ZM206.325.2a6.071,6.071,0,0,0,6.4-6.275,6.064,6.064,0,0,0-6.4-6.3,6.091,6.091,0,0,0-6.4,6.3A6.085,6.085,0,0,0,206.325.2Zm0-2.55a3.543,3.543,0,0,1-3.55-3.725,3.543,3.543,0,0,1,3.55-3.775,3.544,3.544,0,0,1,3.55,3.775A3.545,3.545,0,0,1,206.325-2.35Z" transform="translate(224.313 836.614)" fill="#414042"/>
      <path id="Path_6342" data-name="Path 6342" d="M7.325.2a6.127,6.127,0,0,0,5.25-2.275l-1.925-1.7A3.817,3.817,0,0,1,7.575-2.35,3.5,3.5,0,0,1,3.95-6.1,3.5,3.5,0,0,1,7.575-9.85a3.949,3.949,0,0,1,3.075,1.4l1.9-1.65a6.68,6.68,0,0,0-5.125-2.275A6.03,6.03,0,0,0,1.1-6.075,6,6,0,0,0,7.325.2Zm7.8-.2h2.8V-6.2c0-2.4,1.25-3.65,3.275-3.65,1.675,0,2.65.85,2.65,3.275V0h2.8V-7.3c0-3.65-1.875-5.075-4.55-5.075a5.483,5.483,0,0,0-4.15,1.7h-.025V-18.4h-2.8Zm27-14.125v1.6c0,1.3.025,2.425-.95,2.925a6.175,6.175,0,0,0-5.425-2.775,6.091,6.091,0,0,0-6.4,6.3A6.085,6.085,0,0,0,35.75.2a6.071,6.071,0,0,0,6.4-6.275,7.151,7.151,0,0,0-.2-1.675c2-.55,3.025-2.25,3.025-4.6v-1.775ZM35.75-2.35A3.543,3.543,0,0,1,32.2-6.075,3.543,3.543,0,0,1,35.75-9.85,3.544,3.544,0,0,1,39.3-6.075,3.545,3.545,0,0,1,35.75-2.35ZM48.675-14a1.894,1.894,0,0,0,1.9-1.875,1.889,1.889,0,0,0-1.9-1.85,1.867,1.867,0,0,0-1.875,1.85A1.872,1.872,0,0,0,48.675-14Zm-1.4,14h2.8V-12.2h-2.8ZM52.75,3.3H54.8l1.75-6.325h-3ZM73.225.2c3.4,0,5.925-2.475,5.925-6.25,0-3.675-2.525-6.325-5.9-6.325a4.964,4.964,0,0,0-3.875,1.625H69.35V-18.4h-2.8V0h2.675V-1.625h.05A4.692,4.692,0,0,0,73.225.2ZM72.8-2.35a3.508,3.508,0,0,1-3.575-3.675,3.572,3.572,0,0,1,3.55-3.825A3.54,3.54,0,0,1,76.3-6.025,3.449,3.449,0,0,1,72.8-2.35Zm14.275-11.5H89.85L87.1-17.425l-3.125-.025ZM87.225.2A4.581,4.581,0,0,0,91.1-1.625l.05.025V0h2.675V-12.2h-2.8v1.475l-.05.025A4.68,4.68,0,0,0,87.2-12.375c-3.35,0-5.875,2.65-5.875,6.325C81.325-2.275,83.85.2,87.225.2Zm.45-2.55a3.435,3.435,0,0,1-3.5-3.675,3.522,3.522,0,0,1,3.5-3.825A3.574,3.574,0,0,1,91.15-6.025,3.487,3.487,0,0,1,87.675-2.35ZM98.925-14a1.894,1.894,0,0,0,1.9-1.875,1.889,1.889,0,0,0-1.9-1.85,1.867,1.867,0,0,0-1.875,1.85A1.872,1.872,0,0,0,98.925-14Zm-1.4,14h2.8V-12.2h-2.8ZM110.85,0h2.8V-6.2c0-2.4,1.25-3.65,3.275-3.65,1.675,0,2.65.85,2.65,3.275V0h2.8V-7.3c0-3.65-1.875-5.075-4.55-5.075a5.483,5.483,0,0,0-4.15,1.7h-.025V-18.4h-2.8ZM129.8-13.9h2.85l3.1-3.625-3.075.025ZM130.95.2a4.581,4.581,0,0,0,3.875-1.825l.05.025V0h2.675V-12.2h-2.8v1.475l-.05.025a4.68,4.68,0,0,0-3.775-1.675c-3.35,0-5.875,2.65-5.875,6.325C125.05-2.275,127.575.2,130.95.2Zm.45-2.55a3.435,3.435,0,0,1-3.5-3.675,3.522,3.522,0,0,1,3.5-3.825,3.574,3.574,0,0,1,3.475,3.825A3.487,3.487,0,0,1,131.4-2.35ZM144.6.2a5.672,5.672,0,0,0,3.1-.725l-.725-2.425a4.092,4.092,0,0,1-1.8.525c-.8,0-1.175-.45-1.175-1.7v-5.7h3.575V-12.2H144v-4.35l-2.8.3v4.05h-1.5v2.375h1.5V-3.85C141.2-1.125,142.5.2,144.6.2ZM160.3,0h2.675l4.85-12.2H164.85l-3.175,8.7h-.025l-3.175-8.7h-3Zm14.1-13.85h2.775l-2.75-3.575L171.3-17.45ZM174.55.2a4.581,4.581,0,0,0,3.875-1.825l.05.025V0h2.675V-12.2h-2.8v1.475l-.05.025a4.68,4.68,0,0,0-3.775-1.675c-3.35,0-5.875,2.65-5.875,6.325C168.65-2.275,171.175.2,174.55.2ZM175-2.35a3.435,3.435,0,0,1-3.5-3.675A3.522,3.522,0,0,1,175-9.85a3.574,3.574,0,0,1,3.475,3.825A3.487,3.487,0,0,1,175-2.35Z" transform="translate(224.313 868.624)" fill="#414042"/>
      <path id="Path_6343" data-name="Path 6343" d="M7.325.2a6.127,6.127,0,0,0,5.25-2.275l-1.925-1.7A3.817,3.817,0,0,1,7.575-2.35,3.5,3.5,0,0,1,3.95-6.1,3.5,3.5,0,0,1,7.575-9.85a3.949,3.949,0,0,1,3.075,1.4l1.9-1.65a6.68,6.68,0,0,0-5.125-2.275A6.03,6.03,0,0,0,1.1-6.075,6,6,0,0,0,7.325.2Zm11.8-14.1h2.85l3.1-3.625L22-17.5ZM20.275.2A4.581,4.581,0,0,0,24.15-1.625l.05.025V0h2.675V-12.2h-2.8v1.475l-.05.025a4.68,4.68,0,0,0-3.775-1.675c-3.35,0-5.875,2.65-5.875,6.325C14.375-2.275,16.9.2,20.275.2Zm.45-2.55a3.435,3.435,0,0,1-3.5-3.675,3.522,3.522,0,0,1,3.5-3.825A3.574,3.574,0,0,1,24.2-6.025,3.487,3.487,0,0,1,20.725-2.35ZM35.9.2a6.127,6.127,0,0,0,5.25-2.275l-1.925-1.7A3.817,3.817,0,0,1,36.15-2.35,3.5,3.5,0,0,1,32.525-6.1,3.5,3.5,0,0,1,36.15-9.85a3.949,3.949,0,0,1,3.075,1.4l1.9-1.65A6.68,6.68,0,0,0,36-12.375a6.03,6.03,0,0,0-6.325,6.3A6,6,0,0,0,35.9.2ZM50.4,0h2.8V-6.2c0-2.4,1.25-3.65,3.275-3.65,1.675,0,2.65.85,2.65,3.275V0h2.8V-7.3c0-3.65-1.875-5.075-4.55-5.075a5.483,5.483,0,0,0-4.15,1.7H53.2V-18.4H50.4ZM71.025.2a6.071,6.071,0,0,0,6.4-6.275,6.064,6.064,0,0,0-6.4-6.3,6.091,6.091,0,0,0-6.4,6.3A6.085,6.085,0,0,0,71.025.2Zm0-2.55a3.543,3.543,0,0,1-3.55-3.725,3.543,3.543,0,0,1,3.55-3.775,3.544,3.544,0,0,1,3.55,3.775A3.545,3.545,0,0,1,71.025-2.35ZM85.5.2a4.581,4.581,0,0,0,3.875-1.825l.05.025V0H92.1V-12.2H89.3v1.475l-.05.025a4.68,4.68,0,0,0-3.775-1.675c-3.35,0-5.875,2.65-5.875,6.325C79.6-2.275,82.125.2,85.5.2Zm.45-2.55a3.435,3.435,0,0,1-3.5-3.675,3.522,3.522,0,0,1,3.5-3.825,3.574,3.574,0,0,1,3.475,3.825A3.487,3.487,0,0,1,85.95-2.35Zm-.075,4.3a1.894,1.894,0,0,0-1.9,1.875,1.889,1.889,0,0,0,1.9,1.85,1.863,1.863,0,1,0,0-3.725ZM99.175.2a5.672,5.672,0,0,0,3.1-.725L101.55-2.95a4.092,4.092,0,0,1-1.8.525c-.8,0-1.175-.45-1.175-1.7v-5.7h3.575V-12.2H98.575v-4.35l-2.8.3v4.05h-1.5v2.375h1.5V-3.85C95.775-1.125,97.075.2,99.175.2Zm25.6-16.15h-1.55V-18.4H120.45v2.45H115.8v1.9h4.65v3.35h-.025a4.937,4.937,0,0,0-3.9-1.675c-3.35,0-5.9,2.65-5.9,6.325,0,3.775,2.55,6.25,5.925,6.25a4.758,4.758,0,0,0,3.975-1.85h.025V0h2.675V-14.05h1.55Zm-7.8,13.6a3.449,3.449,0,0,1-3.5-3.675A3.54,3.54,0,0,1,117-9.85a3.572,3.572,0,0,1,3.55,3.825A3.508,3.508,0,0,1,116.975-2.35Zm11.15-11.5H130.9l1.375-1.925h.05l1.35,1.925H136.4l-2.625-3.625H130.85ZM132.275.2a6.071,6.071,0,0,0,6.4-6.275,6.064,6.064,0,0,0-6.4-6.3,6.091,6.091,0,0,0-6.4,6.3A6.085,6.085,0,0,0,132.275.2Zm0-2.55a3.543,3.543,0,0,1-3.55-3.725,3.543,3.543,0,0,1,3.55-3.775,3.544,3.544,0,0,1,3.55,3.775A3.545,3.545,0,0,1,132.275-2.35Zm0,4.3a1.894,1.894,0,0,0-1.9,1.875,1.889,1.889,0,0,0,1.9,1.85,1.863,1.863,0,1,0,0-3.725ZM141.6,0h2.8V-6.125c0-2.4,1.25-3.725,3.15-3.725,1.675,0,2.65.825,2.65,3.4V0H153V-7.175c0-3.675-1.8-5.2-4.475-5.2a5.231,5.231,0,0,0-4.075,1.85h-.05V-12.2h-2.8Zm20.275,5.125c4.525,0,6.225-2.675,6.225-6.375V-12.2h-2.8v1.3h-.05a5.5,5.5,0,0,0-3.8-1.475c-3.375,0-5.8,2.575-5.8,6.15A5.743,5.743,0,0,0,161.6-.2a5.128,5.128,0,0,0,3.7-1.475h.05V-.4c0,1.625-1.225,3-3.625,3a8.007,8.007,0,0,1-4.15-1.2L156.9,3.85A9.812,9.812,0,0,0,161.875,5.125Zm.1-7.9A3.333,3.333,0,0,1,158.5-6.3a3.333,3.333,0,0,1,3.475-3.525,3.342,3.342,0,0,1,3.45,3.475A3.382,3.382,0,0,1,161.975-2.775Z" transform="translate(224.313 900.826)" fill="#414042"/>
      <path id="Path_6344" data-name="Path 6344" d="M5.45.2a5.672,5.672,0,0,0,3.1-.725L7.825-2.95a4.092,4.092,0,0,1-1.8.525c-.8,0-1.175-.45-1.175-1.7v-5.7H8.425V-12.2H4.85v-4.35l-2.8.3v4.05H.55v2.375h1.5V-3.85C2.05-1.125,3.35.2,5.45.2ZM23.175-14.125v1.6c0,1.475.05,2.675-1.325,3.075V-12.2h-2.8v5.85c0,2.625-1.5,4-3.125,4C14.25-2.35,13.5-3.1,13.5-5.525V-12.2H10.7v7.425C10.7-1.15,12.575.2,15.275.2A4.769,4.769,0,0,0,19-1.55l.05.025V0h2.8V-7.575c2.75-.15,4.175-2,4.175-4.775v-1.775Zm16.4,0v1.6c0,1.3.025,2.425-.95,2.925A6.175,6.175,0,0,0,33.2-12.375a6.091,6.091,0,0,0-6.4,6.3A6.085,6.085,0,0,0,33.2.2a6.071,6.071,0,0,0,6.4-6.275,7.151,7.151,0,0,0-.2-1.675c2-.55,3.025-2.25,3.025-4.6v-1.775ZM33.2-2.35a3.543,3.543,0,0,1-3.55-3.725A3.543,3.543,0,0,1,33.2-9.85a3.544,3.544,0,0,1,3.55,3.775A3.545,3.545,0,0,1,33.2-2.35ZM44.55,0h2.8V-6.125c0-2.4,1.25-3.725,3.15-3.725,1.675,0,2.65.825,2.65,3.4V0h2.8V-7.175c0-3.675-1.8-5.2-4.475-5.2a5.231,5.231,0,0,0-4.075,1.85h-.05V-12.2h-2.8ZM64.825,5.125c4.525,0,6.225-2.675,6.225-6.375V-12.2h-2.8v1.3H68.2a5.5,5.5,0,0,0-3.8-1.475c-3.375,0-5.8,2.575-5.8,6.15A5.743,5.743,0,0,0,64.55-.2a5.128,5.128,0,0,0,3.7-1.475h.05V-.4c0,1.625-1.225,3-3.625,3a8.007,8.007,0,0,1-4.15-1.2L59.85,3.85A9.812,9.812,0,0,0,64.825,5.125Zm.1-7.9A3.333,3.333,0,0,1,61.45-6.3a3.333,3.333,0,0,1,3.475-3.525,3.342,3.342,0,0,1,3.45,3.475A3.382,3.382,0,0,1,64.925-2.775ZM84.875.2a5.672,5.672,0,0,0,3.1-.725L87.25-2.95a4.092,4.092,0,0,1-1.8.525c-.8,0-1.175-.45-1.175-1.7v-5.7H87.85V-12.2H84.275v-4.35l-2.8.3v4.05h-1.5v2.375h1.5V-3.85C81.475-1.125,82.775.2,84.875.2ZM93.85-13.9H96.7l3.1-3.625-3.075.025ZM95,.2a4.581,4.581,0,0,0,3.875-1.825l.05.025V0H101.6V-12.2H98.8v1.475l-.05.025a4.68,4.68,0,0,0-3.775-1.675c-3.35,0-5.875,2.65-5.875,6.325C89.1-2.275,91.625.2,95,.2Zm.45-2.55a3.435,3.435,0,0,1-3.5-3.675,3.522,3.522,0,0,1,3.5-3.825,3.574,3.574,0,0,1,3.475,3.825A3.487,3.487,0,0,1,95.45-2.35ZM110.625.2a6.127,6.127,0,0,0,5.25-2.275l-1.925-1.7a3.817,3.817,0,0,1-3.075,1.425A3.5,3.5,0,0,1,107.25-6.1a3.5,3.5,0,0,1,3.625-3.75,3.949,3.949,0,0,1,3.075,1.4l1.9-1.65a6.68,6.68,0,0,0-5.125-2.275,6.03,6.03,0,0,0-6.325,6.3A6,6,0,0,0,110.625.2Zm9.1,0A1.867,1.867,0,0,0,121.6-1.65a1.889,1.889,0,0,0-1.875-1.875,1.894,1.894,0,0,0-1.9,1.875A1.873,1.873,0,0,0,119.725.2Z" transform="translate(224.313 932.933)" fill="#414042"/>
      <path id="Path_5712" data-name="Path 5712" d="M12.2,24h3.025V8.95h5.1V6.25H7.175v2.7H12.2Zm10.825,0h2.8V17.8c0-2.4,1.25-3.65,3.275-3.65,1.675,0,2.65.85,2.65,3.275V24h2.8V16.7c0-3.65-1.875-5.075-4.55-5.075a5.483,5.483,0,0,0-4.15,1.7h-.025V5.6h-2.8Zm19.275.2a4.769,4.769,0,0,0,3.725-1.75l.05.025V24h2.8V11.8h-2.8v5.85c0,2.625-1.5,4-3.125,4-1.675,0-2.425-.75-2.425-3.175V11.8h-2.8v7.425C37.725,22.85,39.6,24.2,42.3,24.2Zm11.575,4.75h2.9l6.7-17.15H60.6l-3.125,8.175h-.05L54.075,11.8h-3l5,11.525Zm25.05-24.7H75.85L73.775,7.875H75.85ZM70.4,8.225h.05L71.8,10.15h2.725L71.9,6.525H68.975L66.25,10.15h2.775Zm-.075,3.4A5.92,5.92,0,0,0,64.2,17.9a5.99,5.99,0,0,0,6.325,6.3A6.018,6.018,0,0,0,75.7,21.9l-1.95-1.675a3.815,3.815,0,0,1-3.075,1.425A3.381,3.381,0,0,1,67.1,18.825H76a8.879,8.879,0,0,0,.075-1.075C76.075,14.2,73.75,11.625,70.325,11.625ZM70.3,14.15a2.919,2.919,0,0,1,2.95,2.475h-6.1A3.086,3.086,0,0,1,70.3,14.15ZM82.6,24.2a5.672,5.672,0,0,0,3.1-.725l-.725-2.425a4.092,4.092,0,0,1-1.8.525c-.8,0-1.175-.45-1.175-1.7v-5.7h3.575V11.8H82V7.45l-2.8.3V11.8H77.7v2.375h1.5V20.15C79.2,22.875,80.5,24.2,82.6,24.2Zm15.825,0a5.672,5.672,0,0,0,3.1-.725L100.8,21.05a4.092,4.092,0,0,1-1.8.525c-.8,0-1.175-.45-1.175-1.7v-5.7H101.4V11.8H97.825V7.45l-2.8.3V11.8h-1.5v2.375h1.5V20.15C95.025,22.875,96.325,24.2,98.425,24.2Zm5.5-.2h2.8V18.225A3.229,3.229,0,0,1,110.05,14.7c.2,0,.525.025.85.05V11.625h-.35a4.688,4.688,0,0,0-3.775,2h-.05V11.8h-2.8Zm9.55-13.9h2.85L114.3,6.5l-3.075-.025ZM113.5,24h2.8V11.8h-2.8Zm6.65,0h2.8V17.875c0-2.4,1.25-3.725,3.15-3.725,1.675,0,2.65.825,2.65,3.4V24h2.8V16.825c0-3.675-1.8-5.2-4.475-5.2A5.231,5.231,0,0,0,123,13.475h-.05V11.8h-2.8Zm14.825,0h2.8V17.8c0-2.4,1.25-3.65,3.275-3.65,1.675,0,2.65.85,2.65,3.275V24h2.8V16.7c0-3.65-1.875-5.075-4.55-5.075a5.483,5.483,0,0,0-4.15,1.7h-.025V5.6h-2.8Zm13.8,3.3h2.05l1.75-6.325h-3Zm13.8-3.3h2.8V20.775l1.975-2.15L170.625,24h3.15L169.3,16.7l4.4-4.9h-3.325l-4.95,5.65-.05-.025V5.6h-2.8Zm15.35-14a1.863,1.863,0,1,0,0-3.725,1.863,1.863,0,1,0,0,3.725Zm-1.4,14h2.8V11.8h-2.8Zm1.4,1.95a1.863,1.863,0,1,0,0,3.725,1.863,1.863,0,1,0,0-3.725ZM188.65,24.2a6.127,6.127,0,0,0,5.25-2.275l-1.925-1.7A3.817,3.817,0,0,1,188.9,21.65a3.5,3.5,0,0,1-3.625-3.75,3.5,3.5,0,0,1,3.625-3.75,3.949,3.949,0,0,1,3.075,1.4l1.9-1.65a6.68,6.68,0,0,0-5.125-2.275,6.03,6.03,0,0,0-6.325,6.3A6,6,0,0,0,188.65,24.2Zm7.8-.2h2.8V17.8c0-2.4,1.25-3.65,3.275-3.65,1.675,0,2.65.85,2.65,3.275V24h2.8V16.7c0-3.65-1.875-5.075-4.55-5.075a5.483,5.483,0,0,0-4.15,1.7h-.025V5.6h-2.8Zm25.275.2a5.672,5.672,0,0,0,3.1-.725L224.1,21.05a4.092,4.092,0,0,1-1.8.525c-.8,0-1.175-.45-1.175-1.7v-5.7H224.7V11.8h-3.575V7.45l-2.8.3V11.8h-1.5v2.375h1.5V20.15C218.325,22.875,219.625,24.2,221.725,24.2ZM239.45,9.875v1.6c0,1.475.05,2.675-1.325,3.075V11.8h-2.8v5.85c0,2.625-1.5,4-3.125,4-1.675,0-2.425-.75-2.425-3.175V11.8h-2.8v7.425c0,3.625,1.875,4.975,4.575,4.975a4.769,4.769,0,0,0,3.725-1.75l.05.025V24h2.8V16.425c2.75-.15,4.175-2,4.175-4.775V9.875Zm16.4,0v1.6c0,1.3.025,2.425-.95,2.925a6.175,6.175,0,0,0-5.425-2.775,6.091,6.091,0,0,0-6.4,6.3,6.4,6.4,0,0,0,12.8,0,7.151,7.151,0,0,0-.2-1.675c2-.55,3.025-2.25,3.025-4.6V9.875ZM249.475,21.65a3.543,3.543,0,0,1-3.55-3.725,3.557,3.557,0,1,1,7.1,0A3.545,3.545,0,0,1,249.475,21.65ZM260.825,24h2.8V17.875c0-2.4,1.25-3.725,3.15-3.725,1.675,0,2.65.825,2.65,3.4V24h2.8V16.825c0-3.675-1.8-5.2-4.475-5.2a5.231,5.231,0,0,0-4.075,1.85h-.05V11.8h-2.8ZM281.1,29.125c4.525,0,6.225-2.675,6.225-6.375V11.8h-2.8v1.3h-.05a5.5,5.5,0,0,0-3.8-1.475c-3.375,0-5.8,2.575-5.8,6.15a5.743,5.743,0,0,0,5.95,6.025,5.128,5.128,0,0,0,3.7-1.475h.05V23.6c0,1.625-1.225,3-3.625,3a8.007,8.007,0,0,1-4.15-1.2l-.675,2.45A9.812,9.812,0,0,0,281.1,29.125Zm.1-7.9a3.333,3.333,0,0,1-3.475-3.525,3.463,3.463,0,1,1,6.925-.05A3.382,3.382,0,0,1,281.2,21.225ZM35.1,54.2a5.672,5.672,0,0,0,3.1-.725l-.725-2.425a4.092,4.092,0,0,1-1.8.525c-.8,0-1.175-.45-1.175-1.7v-5.7h3.575V41.8H34.5V37.45l-2.8.3V41.8H30.2v2.375h1.5V50.15C31.7,52.875,33,54.2,35.1,54.2Zm8.975-14.1h2.85l3.1-3.625L46.95,36.5Zm1.15,14.1A4.581,4.581,0,0,0,49.1,52.375l.05.025V54h2.675V41.8h-2.8v1.475l-.05.025A4.68,4.68,0,0,0,45.2,41.625c-3.35,0-5.875,2.65-5.875,6.325C39.325,51.725,41.85,54.2,45.225,54.2Zm.45-2.55a3.435,3.435,0,0,1-3.5-3.675,3.522,3.522,0,0,1,3.5-3.825,3.574,3.574,0,0,1,3.475,3.825A3.487,3.487,0,0,1,45.675,51.65ZM60.85,54.2a6.127,6.127,0,0,0,5.25-2.275l-1.925-1.7A3.817,3.817,0,0,1,61.1,51.65a3.5,3.5,0,0,1-3.625-3.75A3.5,3.5,0,0,1,61.1,44.15a3.949,3.949,0,0,1,3.075,1.4l1.9-1.65a6.68,6.68,0,0,0-5.125-2.275,6.03,6.03,0,0,0-6.325,6.3A6,6,0,0,0,60.85,54.2ZM71,54.2a1.867,1.867,0,0,0,1.875-1.85A1.888,1.888,0,1,0,71,54.2Zm8.325,0A1.867,1.867,0,0,0,81.2,52.35a1.888,1.888,0,1,0-1.875,1.85Zm8.35,0a1.867,1.867,0,0,0,1.875-1.85,1.888,1.888,0,1,0-1.875,1.85Zm8.65,0a5.672,5.672,0,0,0,3.1-.725L98.7,51.05a4.092,4.092,0,0,1-1.8.525c-.8,0-1.175-.45-1.175-1.7v-5.7H99.3V41.8H95.725V37.45l-2.8.3V41.8h-1.5v2.375h1.5V50.15C92.925,52.875,94.225,54.2,96.325,54.2ZM107.1,40.3a3.63,3.63,0,0,0,3.9-3.725h-2.2a1.7,1.7,0,0,1-3.4,0h-2.2A3.63,3.63,0,0,0,107.1,40.3Zm-.65,13.9a4.581,4.581,0,0,0,3.875-1.825l.05.025V54h2.675V41.8h-2.8v1.475l-.05.025a4.68,4.68,0,0,0-3.775-1.675c-3.35,0-5.875,2.65-5.875,6.325C100.55,51.725,103.075,54.2,106.45,54.2Zm.45-2.55a3.435,3.435,0,0,1-3.5-3.675,3.522,3.522,0,0,1,3.5-3.825,3.574,3.574,0,0,1,3.475,3.825A3.487,3.487,0,0,1,106.9,51.65ZM116.575,54h2.8V47.875c0-2.4,1.25-3.725,3.15-3.725,1.675,0,2.65.825,2.65,3.4V54h2.8V46.825c0-3.675-1.8-5.2-4.475-5.2a5.231,5.231,0,0,0-4.075,1.85h-.05V41.8h-2.8Zm20.275,5.125c4.525,0,6.225-2.675,6.225-6.375V41.8h-2.8v1.3h-.05a5.5,5.5,0,0,0-3.8-1.475c-3.375,0-5.8,2.575-5.8,6.15a5.743,5.743,0,0,0,5.95,6.025,5.128,5.128,0,0,0,3.7-1.475h.05V53.6c0,1.625-1.225,3-3.625,3a8.007,8.007,0,0,1-4.15-1.2l-.675,2.45A9.812,9.812,0,0,0,136.85,59.125Zm.1-7.9a3.526,3.526,0,1,1,3.45-3.575A3.382,3.382,0,0,1,136.95,51.225ZM158.775,54.2a6.127,6.127,0,0,0,5.25-2.275l-1.925-1.7a3.817,3.817,0,0,1-3.075,1.425A3.5,3.5,0,0,1,155.4,47.9a3.5,3.5,0,0,1,3.625-3.75,3.949,3.949,0,0,1,3.075,1.4L164,43.9a6.68,6.68,0,0,0-5.125-2.275,6.03,6.03,0,0,0-6.325,6.3A6,6,0,0,0,158.775,54.2ZM178.8,39.875v1.6c0,1.475.05,2.675-1.325,3.075V41.8h-2.8v5.85c0,2.625-1.5,4-3.125,4-1.675,0-2.425-.75-2.425-3.175V41.8h-2.8v7.425c0,3.625,1.875,4.975,4.575,4.975a4.769,4.769,0,0,0,3.725-1.75l.05.025V54h2.8V46.425c2.75-.15,4.175-2,4.175-4.775V39.875Zm11.825.275-2.75-3.575-3.125-.025,3.1,3.6Zm4.575-.275v1.6c0,1.3.025,2.425-.95,2.925a6.175,6.175,0,0,0-5.425-2.775,6.288,6.288,0,1,0,6.4,6.3,7.151,7.151,0,0,0-.2-1.675c2-.55,3.025-2.25,3.025-4.6V39.875ZM188.825,51.65a3.756,3.756,0,1,1,3.55-3.725A3.543,3.543,0,0,1,188.825,51.65ZM200.175,54h2.8V47.875c0-2.4,1.25-3.725,3.15-3.725,1.675,0,2.65.825,2.65,3.4V54h2.8V46.825c0-3.675-1.8-5.2-4.475-5.2a5.231,5.231,0,0,0-4.075,1.85h-.05V41.8h-2.8Zm20.275,5.125c4.525,0,6.225-2.675,6.225-6.375V41.8h-2.8v1.3h-.05a5.5,5.5,0,0,0-3.8-1.475c-3.375,0-5.8,2.575-5.8,6.15a5.743,5.743,0,0,0,5.95,6.025,5.128,5.128,0,0,0,3.7-1.475h.05V53.6c0,1.625-1.225,3-3.625,3a8.007,8.007,0,0,1-4.15-1.2l-.675,2.45A9.812,9.812,0,0,0,220.45,59.125Zm.1-7.9A3.526,3.526,0,1,1,224,47.65,3.382,3.382,0,0,1,220.55,51.225ZM240.5,54.2a5.672,5.672,0,0,0,3.1-.725l-.725-2.425a4.092,4.092,0,0,1-1.8.525c-.8,0-1.175-.45-1.175-1.7v-5.7h3.575V41.8H239.9V37.45l-2.8.3V41.8h-1.5v2.375h1.5V50.15C237.1,52.875,238.4,54.2,240.5,54.2ZM246,54h2.8V47.8c0-2.4,1.25-3.65,3.275-3.65,1.675,0,2.65.85,2.65,3.275V54h2.8V46.7c0-3.65-1.875-5.075-4.55-5.075a5.483,5.483,0,0,0-4.15,1.7H248.8V35.6H246Zm27.175-14.125v1.6c0,1.475.05,2.675-1.325,3.075V41.8h-2.8v5.85c0,2.625-1.5,4-3.125,4-1.675,0-2.425-.75-2.425-3.175V41.8h-2.8v7.425c0,3.625,1.875,4.975,4.575,4.975A4.769,4.769,0,0,0,269,52.45l.05.025V54h2.8V46.425c2.75-.15,4.175-2,4.175-4.775V39.875Zm-6.75,16.075a1.863,1.863,0,1,0,0,3.725,1.863,1.863,0,1,0,0-3.725Zm16.6-1.75a6.127,6.127,0,0,0,5.25-2.275l-1.925-1.7a3.817,3.817,0,0,1-3.075,1.425,3.5,3.5,0,0,1-3.625-3.75,3.5,3.5,0,0,1,3.625-3.75,3.949,3.949,0,0,1,3.075,1.4l1.9-1.65a6.68,6.68,0,0,0-5.125-2.275,6.03,6.03,0,0,0-6.325,6.3A6,6,0,0,0,283.025,54.2ZM66.975,84h2.8V77.8c0-2.4,1.25-3.65,3.275-3.65,1.675,0,2.65.85,2.65,3.275V84h2.8V76.7c0-3.65-1.875-5.075-4.55-5.075a5.483,5.483,0,0,0-4.15,1.7h-.025V65.6h-2.8Zm19.95-13.85H89.7l-2.75-3.575-3.125-.025Zm.15,14.05a4.581,4.581,0,0,0,3.875-1.825L91,82.4V84h2.675V71.8h-2.8v1.475l-.05.025a4.68,4.68,0,0,0-3.775-1.675c-3.35,0-5.875,2.65-5.875,6.325C81.175,81.725,83.7,84.2,87.075,84.2Zm.45-2.55a3.435,3.435,0,0,1-3.5-3.675,3.522,3.522,0,0,1,3.5-3.825A3.574,3.574,0,0,1,91,77.975,3.487,3.487,0,0,1,87.525,81.65ZM97.2,84H100V77.875c0-2.4,1.25-3.725,3.15-3.725,1.675,0,2.65.825,2.65,3.4V84h2.8V76.825c0-3.675-1.8-5.2-4.475-5.2a5.231,5.231,0,0,0-4.075,1.85H100V71.8H97.2Zm14.825,0h2.8V77.8c0-2.4,1.25-3.65,3.275-3.65,1.675,0,2.65.85,2.65,3.275V84h2.8V76.7c0-3.65-1.875-5.075-4.55-5.075a5.483,5.483,0,0,0-4.15,1.7h-.025V65.6h-2.8Zm21.65,0h2.8V77.875c0-2.4,1.25-3.725,3.15-3.725,1.675,0,2.65.825,2.65,3.4V84h2.8V76.825c0-3.675-1.8-5.2-4.475-5.2a5.231,5.231,0,0,0-4.075,1.85h-.05V71.8h-2.8Zm19-13.9h2.85l3.1-3.625-3.075.025Zm1.5,14.1a6.288,6.288,0,1,0-6.4-6.275A6.071,6.071,0,0,0,154.175,84.2Zm0-2.55a3.756,3.756,0,1,1,3.55-3.725A3.543,3.543,0,0,1,154.175,81.65ZM165.075,70a1.863,1.863,0,1,0,0-3.725,1.863,1.863,0,1,0,0,3.725Zm-1.4,14h2.8V71.8h-2.8Zm16.95.2a5.672,5.672,0,0,0,3.1-.725L183,81.05a4.092,4.092,0,0,1-1.8.525c-.8,0-1.175-.45-1.175-1.7v-5.7H183.6V71.8h-3.575V67.45l-2.8.3V71.8h-1.5v2.375h1.5V80.15C177.225,82.875,178.525,84.2,180.625,84.2ZM187.7,70a1.863,1.863,0,1,0,0-3.725,1.863,1.863,0,1,0,0,3.725Zm-1.4,14h2.8V71.8h-2.8Zm20.625-19.75H203.85l-2.075,3.625h2.075ZM198.4,68.225h.05l1.35,1.925h2.725L199.9,66.525h-2.925L194.25,70.15h2.775Zm-.075,3.4A5.92,5.92,0,0,0,192.2,77.9a6.528,6.528,0,0,0,11.5,4l-1.95-1.675a3.815,3.815,0,0,1-3.075,1.425,3.381,3.381,0,0,1-3.575-2.825H204a8.877,8.877,0,0,0,.075-1.075C204.075,74.2,201.75,71.625,198.325,71.625ZM198.3,74.15a2.919,2.919,0,0,1,2.95,2.475h-6.1A3.086,3.086,0,0,1,198.3,74.15ZM206.975,84h2.8V77.875c0-2.4,1.25-3.725,3.15-3.725,1.675,0,2.65.825,2.65,3.4V84h2.8V76.825c0-3.675-1.8-5.2-4.475-5.2a5.231,5.231,0,0,0-4.075,1.85h-.05V71.8h-2.8Zm20.275,5.125c4.525,0,6.225-2.675,6.225-6.375V71.8h-2.8v1.3h-.05a5.5,5.5,0,0,0-3.8-1.475c-3.375,0-5.8,2.575-5.8,6.15a5.743,5.743,0,0,0,5.95,6.025,5.128,5.128,0,0,0,3.7-1.475h.05V83.6c0,1.625-1.225,3-3.625,3a8.007,8.007,0,0,1-4.15-1.2l-.675,2.45A9.812,9.812,0,0,0,227.25,89.125Zm.1-7.9a3.526,3.526,0,1,1,3.45-3.575A3.382,3.382,0,0,1,227.35,81.225ZM242.425,84h3.15l1.325-3.825h7.25L255.5,84h3.15L252,66.25h-2.95Zm5.4-6.425,2.675-7.7h.05l2.7,7.7ZM261.05,84h2.8V77.875c0-2.4,1.25-3.725,3.15-3.725,1.675,0,2.65.825,2.65,3.4V84h2.8V76.825c0-3.675-1.8-5.2-4.475-5.2a5.231,5.231,0,0,0-4.075,1.85h-.05V71.8h-2.8Zm14.825,0h2.8V77.8c0-2.4,1.25-3.65,3.275-3.65,1.675,0,2.65.85,2.65,3.275V84h2.8V76.7c0-3.65-1.875-5.075-4.55-5.075a5.483,5.483,0,0,0-4.15,1.7h-.025V65.6h-2.8Zm-221.9,30h2.8v-6.125c0-2.4,1.25-3.725,3.15-3.725,1.675,0,2.65.825,2.65,3.4V114h2.8v-7.175c0-3.675-1.8-5.2-4.475-5.2a5.231,5.231,0,0,0-4.075,1.85h-.05V101.8h-2.8Zm20.275,5.125c4.525,0,6.225-2.675,6.225-6.375V101.8h-2.8v1.3h-.05a5.5,5.5,0,0,0-3.8-1.475c-3.375,0-5.8,2.575-5.8,6.15a5.743,5.743,0,0,0,5.95,6.025,5.128,5.128,0,0,0,3.7-1.475h.05V113.6c0,1.625-1.225,3-3.625,3a8.007,8.007,0,0,1-4.15-1.2l-.675,2.45A9.812,9.812,0,0,0,74.25,119.125Zm.1-7.9a3.526,3.526,0,1,1,3.45-3.575A3.382,3.382,0,0,1,74.35,111.225ZM89.125,114.2A4.581,4.581,0,0,0,93,112.375l.05.025V114h2.675V101.8h-2.8v1.475l-.05.025a4.68,4.68,0,0,0-3.775-1.675c-3.35,0-5.875,2.65-5.875,6.325C83.225,111.725,85.75,114.2,89.125,114.2Zm.45-2.55a3.435,3.435,0,0,1-3.5-3.675,3.522,3.522,0,0,1,3.5-3.825,3.574,3.574,0,0,1,3.475,3.825A3.487,3.487,0,0,1,89.575,111.65Zm11.125,7.3h2.9l6.7-17.15h-2.875l-3.125,8.175h-.05L100.9,101.8h-3l5,11.525Zm22.25-4.75a5.672,5.672,0,0,0,3.1-.725l-.725-2.425a4.092,4.092,0,0,1-1.8.525c-.8,0-1.175-.45-1.175-1.7v-5.7h3.575V101.8H122.35V97.45l-2.8.3v4.05h-1.5v2.375h1.5v5.975C119.55,112.875,120.85,114.2,122.95,114.2Zm5.5-.2h2.8v-5.775a3.229,3.229,0,0,1,3.325-3.525c.2,0,.525.025.85.05v-3.125h-.35a4.688,4.688,0,0,0-3.775,2h-.05V101.8h-2.8Zm14.625.2a6.288,6.288,0,1,0-6.4-6.275A6.071,6.071,0,0,0,143.075,114.2Zm0-2.55a3.756,3.756,0,1,1,3.55-3.725A3.543,3.543,0,0,1,143.075,111.65ZM152.4,114h2.8v-6.125c0-2.4,1.25-3.725,3.15-3.725,1.675,0,2.65.825,2.65,3.4V114h2.8v-7.175c0-3.675-1.8-5.2-4.475-5.2a5.231,5.231,0,0,0-4.075,1.85h-.05V101.8h-2.8Zm20.275,5.125c4.525,0,6.225-2.675,6.225-6.375V101.8h-2.8v1.3h-.05a5.5,5.5,0,0,0-3.8-1.475c-3.375,0-5.8,2.575-5.8,6.15a5.743,5.743,0,0,0,5.95,6.025,5.128,5.128,0,0,0,3.7-1.475h.05V113.6c0,1.625-1.225,3-3.625,3a8.007,8.007,0,0,1-4.15-1.2l-.675,2.45A9.812,9.812,0,0,0,172.675,119.125Zm.1-7.9a3.526,3.526,0,1,1,3.45-3.575A3.382,3.382,0,0,1,172.775,111.225Zm23,2.975c3.4,0,5.925-2.475,5.925-6.25,0-3.675-2.525-6.325-5.9-6.325a4.964,4.964,0,0,0-3.875,1.625H191.9V95.6h-2.8V114h2.675v-1.625h.05A4.692,4.692,0,0,0,195.775,114.2Zm-.425-2.55a3.508,3.508,0,0,1-3.575-3.675,3.548,3.548,0,1,1,7.075,0A3.449,3.449,0,0,1,195.35,111.65Zm13.6,2.55a4.769,4.769,0,0,0,3.725-1.75l.05.025V114h2.8V101.8h-2.8v5.85c0,2.625-1.5,4-3.125,4-1.675,0-2.425-.75-2.425-3.175V101.8h-2.8v7.425C204.375,112.85,206.25,114.2,208.95,114.2Zm19.525-16.575h1.95a3.041,3.041,0,0,0,1.9-2.425c0-1.35-.95-1.95-2.225-1.95a4.728,4.728,0,0,0-3.35,1.25l.6,1.375a3.526,3.526,0,0,1,2.1-.8c.425,0,.675.2.675.5C230.15,96.1,229.575,96.825,228.475,97.625ZM220.6,100.15h2.775l1.375-1.925h.05l1.35,1.925h2.725l-2.625-3.625h-2.925Zm4.15,14.05a6.288,6.288,0,1,0-6.4-6.275A6.071,6.071,0,0,0,224.75,114.2Zm0-2.55a3.756,3.756,0,1,1,3.55-3.725A3.543,3.543,0,0,1,224.75,111.65ZM235.65,100a1.863,1.863,0,1,0,0-3.725,1.863,1.863,0,1,0,0,3.725Zm-1.4,14h2.8V101.8h-2.8Zm13.325,0h2.8v-6.2c0-2.4,1.25-3.65,3.275-3.65,1.675,0,2.65.85,2.65,3.275V114h2.8v-7.3c0-3.65-1.875-5.075-4.55-5.075a5.483,5.483,0,0,0-4.15,1.7h-.025V95.6h-2.8Zm20.625.2a6.288,6.288,0,1,0-6.4-6.275A6.071,6.071,0,0,0,268.2,114.2Zm0-2.55a3.756,3.756,0,1,1,3.55-3.725A3.543,3.543,0,0,1,268.2,111.65Zm0,4.3a1.863,1.863,0,1,0,0,3.725,1.863,1.863,0,1,0,0-3.725Zm14.825-1.75a6.127,6.127,0,0,0,5.25-2.275l-1.925-1.7a3.817,3.817,0,0,1-3.075,1.425,3.752,3.752,0,0,1,0-7.5,3.949,3.949,0,0,1,3.075,1.4l1.9-1.65a6.68,6.68,0,0,0-5.125-2.275,6.288,6.288,0,0,0-.1,12.575Z" transform="translate(105.813 1048.058)" fill="#414042"/>
      <path id="Path_6338" data-name="Path 6338" d="M5.825,0H8.85V-15.05h5.1v-2.7H.8v2.7H5.825Zm16.1-16.375h1.95a3.041,3.041,0,0,0,1.9-2.425c0-1.35-.95-1.95-2.225-1.95A4.728,4.728,0,0,0,20.2-19.5l.6,1.375a3.526,3.526,0,0,1,2.1-.8c.425,0,.675.2.675.5C23.6-17.9,23.025-17.175,21.925-16.375ZM14.05-13.85h2.775L18.2-15.775h.05L19.6-13.85h2.725L19.7-17.475H16.775ZM18.2.2a6.071,6.071,0,0,0,6.4-6.275,6.064,6.064,0,0,0-6.4-6.3,6.091,6.091,0,0,0-6.4,6.3A6.085,6.085,0,0,0,18.2.2Zm0-2.55a3.543,3.543,0,0,1-3.55-3.725A3.543,3.543,0,0,1,18.2-9.85a3.544,3.544,0,0,1,3.55,3.775A3.545,3.545,0,0,1,18.2-2.35ZM27.525,0h2.8V-6.125c0-2.4,1.25-3.725,3.15-3.725,1.675,0,2.65.825,2.65,3.4V0h2.8V-7.175c0-3.675-1.8-5.2-4.475-5.2a5.231,5.231,0,0,0-4.075,1.85h-.05V-12.2h-2.8ZM47.8,5.125c4.525,0,6.225-2.675,6.225-6.375V-12.2h-2.8v1.3h-.05a5.5,5.5,0,0,0-3.8-1.475c-3.375,0-5.8,2.575-5.8,6.15A5.743,5.743,0,0,0,47.525-.2a5.128,5.128,0,0,0,3.7-1.475h.05V-.4c0,1.625-1.225,3-3.625,3A8.007,8.007,0,0,1,43.5,1.4l-.675,2.45A9.812,9.812,0,0,0,47.8,5.125Zm.1-7.9A3.333,3.333,0,0,1,44.425-6.3,3.333,3.333,0,0,1,47.9-9.825,3.342,3.342,0,0,1,51.35-6.35,3.382,3.382,0,0,1,47.9-2.775ZM64.225,0h2.8V-3.225L69-5.375,72.275,0h3.15L70.95-7.3l4.4-4.9H72.025l-4.95,5.65-.05-.025V-18.4h-2.8Zm26.7-19.75H87.85l-2.075,3.625H87.85ZM82.4-15.775h.05L83.8-13.85h2.725L83.9-17.475H80.975L78.25-13.85h2.775Zm-.075,3.4A5.92,5.92,0,0,0,76.2-6.1,5.99,5.99,0,0,0,82.525.2,6.018,6.018,0,0,0,87.7-2.1L85.75-3.775A3.815,3.815,0,0,1,82.675-2.35,3.381,3.381,0,0,1,79.1-5.175H88a8.879,8.879,0,0,0,.075-1.075C88.075-9.8,85.75-12.375,82.325-12.375ZM82.3-9.85a2.919,2.919,0,0,1,2.95,2.475h-6.1A3.086,3.086,0,0,1,82.3-9.85ZM94.6.2a5.672,5.672,0,0,0,3.1-.725L96.975-2.95a4.092,4.092,0,0,1-1.8.525c-.8,0-1.175-.45-1.175-1.7v-5.7h3.575V-12.2H94v-4.35l-2.8.3v4.05H89.7v2.375h1.5V-3.85C91.2-1.125,92.5.2,94.6.2Zm16.1,0c3.1,0,4.55-1.65,4.55-3.7,0-2.425-1.625-2.9-4.225-3.925C109.85-7.875,109.1-8.3,109.1-8.9c0-.75.775-1.05,1.325-1.05a4.483,4.483,0,0,1,3.05,1.3l1.4-2.2a6.489,6.489,0,0,0-4.3-1.525c-2.5,0-4.3,1.45-4.3,3.45,0,2.4,1.725,3.3,3.725,4,1.6.55,2.4.85,2.4,1.475,0,.725-.625,1.2-1.7,1.2a4.671,4.671,0,0,1-3.525-1.425l-1.4,2.1A7.283,7.283,0,0,0,110.7.2Zm12.125,0A4.581,4.581,0,0,0,126.7-1.625l.05.025V0h2.675V-12.2h-2.8v1.475l-.05.025a4.68,4.68,0,0,0-3.775-1.675c-3.35,0-5.875,2.65-5.875,6.325C116.925-2.275,119.45.2,122.825.2Zm.45-2.55a3.435,3.435,0,0,1-3.5-3.675,3.522,3.522,0,0,1,3.5-3.825,3.574,3.574,0,0,1,3.475,3.825A3.487,3.487,0,0,1,123.275-2.35Zm14,2.55A4.769,4.769,0,0,0,141-1.55l.05.025V0h2.8V-12.2h-2.8v5.85c0,2.625-1.5,4-3.125,4-1.675,0-2.425-.75-2.425-3.175V-12.2h-2.8v7.425C132.7-1.15,134.575.2,137.275.2ZM154.1,0h2.8V-6.075c0-2.4,1.25-3.775,2.925-3.775,1.65,0,2.425,1.3,2.425,3.5V0h2.8V-6.075c0-2.4,1.275-3.775,2.85-3.775,1.65,0,2.375,1.3,2.375,3.5V0h2.8V-7.05c0-3.65-1.6-5.325-4.275-5.325a5.354,5.354,0,0,0-4.375,2.025h-.05a3.825,3.825,0,0,0-3.65-2.025,4.979,4.979,0,0,0-3.8,1.85H156.9V-12.2h-2.8Zm25.325-18.5c.3-.8.8-1.25,1.2-1.3a2.641,2.641,0,0,1,1.475.55,3.927,3.927,0,0,0,2,.7c1.35,0,2.275-1.15,2.775-2.825l-1.7-.575c-.325.8-.75,1.3-1.425,1.3-.275,0-.5-.075-1.425-.625a3.647,3.647,0,0,0-1.925-.6c-1.4,0-2.175,1.075-2.675,2.6Zm-1.35,4.65h2.775l1.375-1.925h.05l1.35,1.925h2.725l-2.625-3.625H180.8ZM182.2.2a6.071,6.071,0,0,0,6.4-6.275,6.064,6.064,0,0,0-6.4-6.3,6.091,6.091,0,0,0-6.4,6.3A6.085,6.085,0,0,0,182.2.2Zm0-2.55a3.543,3.543,0,0,1-3.55-3.725A3.543,3.543,0,0,1,182.2-9.85a3.544,3.544,0,0,1,3.55,3.775A3.545,3.545,0,0,1,182.2-2.35ZM193.1-14a1.894,1.894,0,0,0,1.9-1.875,1.889,1.889,0,0,0-1.9-1.85,1.867,1.867,0,0,0-1.875,1.85A1.872,1.872,0,0,0,193.1-14ZM191.7,0h2.8V-12.2h-2.8Z" transform="translate(234.813 1329.326)" fill="#414042"/>
      <path id="Path_6339" data-name="Path 6339" d="M8.5.2c3.4,0,5.925-2.475,5.925-6.25,0-3.675-2.525-6.325-5.9-6.325A4.964,4.964,0,0,0,4.65-10.75H4.625V-18.4h-2.8V0H4.5V-1.625h.05A4.692,4.692,0,0,0,8.5.2ZM8.075-2.35A3.508,3.508,0,0,1,4.5-6.025,3.572,3.572,0,0,1,8.05-9.85a3.54,3.54,0,0,1,3.525,3.825A3.449,3.449,0,0,1,8.075-2.35ZM21.675.2A4.769,4.769,0,0,0,25.4-1.55l.05.025V0h2.8V-12.2h-2.8v5.85c0,2.625-1.5,4-3.125,4C20.65-2.35,19.9-3.1,19.9-5.525V-12.2H17.1v7.425C17.1-1.15,18.975.2,21.675.2ZM41.2-16.375h1.95a3.041,3.041,0,0,0,1.9-2.425c0-1.35-.95-1.95-2.225-1.95a4.728,4.728,0,0,0-3.35,1.25l.6,1.375a3.526,3.526,0,0,1,2.1-.8c.425,0,.675.2.675.5C42.875-17.9,42.3-17.175,41.2-16.375ZM33.325-13.85H36.1l1.375-1.925h.05l1.35,1.925H41.6l-2.625-3.625H36.05ZM37.475.2a6.071,6.071,0,0,0,6.4-6.275,6.064,6.064,0,0,0-6.4-6.3,6.091,6.091,0,0,0-6.4,6.3A6.085,6.085,0,0,0,37.475.2Zm0-2.55a3.543,3.543,0,0,1-3.55-3.725,3.543,3.543,0,0,1,3.55-3.775,3.544,3.544,0,0,1,3.55,3.775A3.545,3.545,0,0,1,37.475-2.35ZM48.375-14a1.894,1.894,0,0,0,1.9-1.875,1.889,1.889,0,0,0-1.9-1.85,1.867,1.867,0,0,0-1.875,1.85A1.872,1.872,0,0,0,48.375-14Zm-1.4,14h2.8V-12.2h-2.8ZM60.3,0h2.8V-6.2c0-2.4,1.25-3.65,3.275-3.65,1.675,0,2.65.85,2.65,3.275V0h2.8V-7.3c0-3.65-1.875-5.075-4.55-5.075a5.483,5.483,0,0,0-4.15,1.7H63.1V-18.4H60.3ZM80.925.2a6.071,6.071,0,0,0,6.4-6.275,6.064,6.064,0,0,0-6.4-6.3,6.091,6.091,0,0,0-6.4,6.3A6.085,6.085,0,0,0,80.925.2Zm0-2.55a3.543,3.543,0,0,1-3.55-3.725,3.543,3.543,0,0,1,3.55-3.775,3.544,3.544,0,0,1,3.55,3.775A3.545,3.545,0,0,1,80.925-2.35Zm0,4.3a1.894,1.894,0,0,0-1.9,1.875,1.889,1.889,0,0,0,1.9,1.85,1.863,1.863,0,1,0,0-3.725ZM95.75.2A6.127,6.127,0,0,0,101-2.075l-1.925-1.7A3.817,3.817,0,0,1,96-2.35,3.5,3.5,0,0,1,92.375-6.1,3.5,3.5,0,0,1,96-9.85a3.949,3.949,0,0,1,3.075,1.4l1.9-1.65a6.68,6.68,0,0,0-5.125-2.275,6.03,6.03,0,0,0-6.325,6.3A6,6,0,0,0,95.75.2Zm27.9-16.15H122.1V-18.4h-2.775v2.45h-4.65v1.9h4.65v3.35H119.3a4.937,4.937,0,0,0-3.9-1.675c-3.35,0-5.9,2.65-5.9,6.325,0,3.775,2.55,6.25,5.925,6.25A4.758,4.758,0,0,0,119.4-1.65h.025V0H122.1V-14.05h1.55Zm-7.8,13.6a3.449,3.449,0,0,1-3.5-3.675,3.54,3.54,0,0,1,3.525-3.825,3.572,3.572,0,0,1,3.55,3.825A3.508,3.508,0,0,1,115.85-2.35Zm20.425-18.4a4.728,4.728,0,0,0-3.35,1.25l.6,1.375a3.526,3.526,0,0,1,2.1-.8c.425,0,.675.2.675.5.025.525-.55,1.25-1.65,2.05h1.95a3.041,3.041,0,0,0,1.9-2.425C138.5-20.15,137.55-20.75,136.275-20.75Zm-5.35,4.975h.05l1.35,1.925h2.725l-2.625-3.625H129.5l-2.725,3.625h2.775Zm-.05,3.4A5.92,5.92,0,0,0,124.75-6.1,5.99,5.99,0,0,0,131.075.2a6.018,6.018,0,0,0,5.175-2.3L134.3-3.775a3.815,3.815,0,0,1-3.075,1.425,3.381,3.381,0,0,1-3.575-2.825h8.9a8.881,8.881,0,0,0,.075-1.075C136.625-9.8,134.3-12.375,130.875-12.375ZM130.85-9.85a2.919,2.919,0,0,1,2.95,2.475h-6.1A3.086,3.086,0,0,1,130.85-9.85ZM146.225,0h2.8V-6.2c0-2.4,1.25-3.65,3.275-3.65,1.675,0,2.65.85,2.65,3.275V0h2.8V-7.3c0-3.65-1.875-5.075-4.55-5.075a5.483,5.483,0,0,0-4.15,1.7h-.025V-18.4h-2.8Zm20.4-15.775h.05l1.35,1.925h2.725l-2.625-3.625H165.2l-2.725,3.625h2.775Zm5.7,9.525c0-3.55-2.325-6.125-5.75-6.125A5.92,5.92,0,0,0,160.45-6.1,5.99,5.99,0,0,0,166.775.2a6.018,6.018,0,0,0,5.175-2.3L170-3.775a3.815,3.815,0,0,1-3.075,1.425,3.381,3.381,0,0,1-3.575-2.825h8.9A8.877,8.877,0,0,0,172.325-6.25Zm-5.775-3.6a2.919,2.919,0,0,1,2.95,2.475h-6.1A3.086,3.086,0,0,1,166.55-9.85Zm.2,11.8a1.894,1.894,0,0,0-1.9,1.875,1.889,1.889,0,0,0,1.9,1.85,1.863,1.863,0,1,0,0-3.725Z" transform="translate(234.813 1359.326)" fill="#414042"/>
      <path id="Path_6340" data-name="Path 6340" d="M5.45.2a5.672,5.672,0,0,0,3.1-.725L7.825-2.95a4.092,4.092,0,0,1-1.8.525c-.8,0-1.175-.45-1.175-1.7v-5.7H8.425V-12.2H4.85v-4.35l-2.8.3v4.05H.55v2.375h1.5V-3.85C2.05-1.125,3.35.2,5.45.2Zm5.5-.2h2.8V-6.2c0-2.4,1.25-3.65,3.275-3.65,1.675,0,2.65.85,2.65,3.275V0h2.8V-7.3c0-3.65-1.875-5.075-4.55-5.075a5.483,5.483,0,0,0-4.15,1.7H13.75V-18.4h-2.8ZM34.975-16.125H37.05l3.075-3.625H37.05ZM27.45-13.85h2.775L31.6-15.775h.05L33-13.85h2.725L33.1-17.475H30.175ZM31.575.2a6.071,6.071,0,0,0,6.4-6.275,6.064,6.064,0,0,0-6.4-6.3,6.091,6.091,0,0,0-6.4,6.3A6.085,6.085,0,0,0,31.575.2Zm0-2.55a3.543,3.543,0,0,1-3.55-3.725,3.543,3.543,0,0,1,3.55-3.775,3.544,3.544,0,0,1,3.55,3.775A3.545,3.545,0,0,1,31.575-2.35ZM40.9,0h2.8V-6.125c0-2.4,1.25-3.725,3.15-3.725,1.675,0,2.65.825,2.65,3.4V0h2.8V-7.175c0-3.675-1.8-5.2-4.475-5.2a5.231,5.231,0,0,0-4.075,1.85H43.7V-12.2H40.9ZM61.175,5.125C65.7,5.125,67.4,2.45,67.4-1.25V-12.2H64.6v1.3h-.05a5.5,5.5,0,0,0-3.8-1.475c-3.375,0-5.8,2.575-5.8,6.15A5.743,5.743,0,0,0,60.9-.2a5.128,5.128,0,0,0,3.7-1.475h.05V-.4c0,1.625-1.225,3-3.625,3a8.007,8.007,0,0,1-4.15-1.2L56.2,3.85A9.812,9.812,0,0,0,61.175,5.125Zm.1-7.9A3.333,3.333,0,0,1,57.8-6.3a3.333,3.333,0,0,1,3.475-3.525,3.342,3.342,0,0,1,3.45,3.475A3.382,3.382,0,0,1,61.275-2.775ZM77.6,0h2.8V-3.225l1.975-2.15L85.65,0H88.8L84.325-7.3l4.4-4.9H85.4L80.45-6.55l-.05-.025V-18.4H77.6ZM92.975-14a1.894,1.894,0,0,0,1.9-1.875,1.889,1.889,0,0,0-1.9-1.85,1.867,1.867,0,0,0-1.875,1.85A1.872,1.872,0,0,0,92.975-14Zm-1.4,14h2.8V-12.2h-2.8ZM112.2-19.75h-3.075l-2.075,3.625h2.075Zm-8.525,3.975h.05l1.35,1.925H107.8l-2.625-3.625H102.25L99.525-13.85H102.3Zm-.075,3.4A5.92,5.92,0,0,0,97.475-6.1,5.99,5.99,0,0,0,103.8.2a6.018,6.018,0,0,0,5.175-2.3l-1.95-1.675A3.815,3.815,0,0,1,103.95-2.35a3.381,3.381,0,0,1-3.575-2.825h8.9a8.879,8.879,0,0,0,.075-1.075C109.35-9.8,107.025-12.375,103.6-12.375Zm-.025,2.525a2.919,2.919,0,0,1,2.95,2.475h-6.1A3.086,3.086,0,0,1,103.575-9.85ZM112.25,0h2.8V-6.125c0-2.4,1.25-3.725,3.15-3.725,1.675,0,2.65.825,2.65,3.4V0h2.8V-7.175c0-3.675-1.8-5.2-4.475-5.2a5.231,5.231,0,0,0-4.075,1.85h-.05V-12.2h-2.8ZM137.4.2a5.672,5.672,0,0,0,3.1-.725l-.725-2.425a4.092,4.092,0,0,1-1.8.525c-.8,0-1.175-.45-1.175-1.7v-5.7h3.575V-12.2H136.8v-4.35l-2.8.3v4.05h-1.5v2.375H134V-3.85C134-1.125,135.3.2,137.4.2Zm5.5-.2h2.8V-6.2c0-2.4,1.25-3.65,3.275-3.65,1.675,0,2.65.85,2.65,3.275V0h2.8V-7.3c0-3.65-1.875-5.075-4.55-5.075a5.483,5.483,0,0,0-4.15,1.7H145.7V-18.4h-2.8Zm24.8-17.525-3.075.025-2.875,3.6h2.85Zm2.375,3.4v1.6c0,1.475.05,2.675-1.325,3.075V-12.2h-2.8v5.85c0,2.625-1.5,4-3.125,4-1.675,0-2.425-.75-2.425-3.175V-12.2h-2.8v7.425C157.6-1.15,159.475.2,162.175.2A4.769,4.769,0,0,0,165.9-1.55l.05.025V0h2.8V-7.575c2.75-.15,4.175-2,4.175-4.775v-1.775ZM179.925.2a6.127,6.127,0,0,0,5.25-2.275l-1.925-1.7a3.817,3.817,0,0,1-3.075,1.425A3.5,3.5,0,0,1,176.55-6.1a3.5,3.5,0,0,1,3.625-3.75,3.949,3.949,0,0,1,3.075,1.4l1.9-1.65a6.68,6.68,0,0,0-5.125-2.275,6.03,6.03,0,0,0-6.325,6.3A6,6,0,0,0,179.925.2Zm9.1,0A1.867,1.867,0,0,0,190.9-1.65a1.889,1.889,0,0,0-1.875-1.875,1.894,1.894,0,0,0-1.9,1.875A1.873,1.873,0,0,0,189.025.2Z" transform="translate(234.813 1389.326)" fill="#414042"/>
    </g>
  </g>
</svg>
