<svg xmlns="http://www.w3.org/2000/svg" width="1581.625" height="538.02" viewBox="0 0 1581.625 538.02"><defs><clipPath id="a"><path fill="none" d="M0 0h1581.625v538.02H0z"/></clipPath></defs><path fill="#414042" d="M79.609 352.785h3.025v-5.025l2.025-2.4 5.125 7.425h3.75l-6.875-9.825 6.675-7.925h-3.85l-6.8 8.5h-.05v-8.5h-3.025Zm16.5 0h2.8v-6.2c0-2.4 1.25-3.65 3.275-3.65 1.675 0 2.65.85 2.65 3.275v6.575h2.8v-7.3c0-3.65-1.875-5.075-4.55-5.075a5.483 5.483 0 0 0-4.15 1.7h-.025v-7.725h-2.8Zm20.65-16.525c.45 0 .725.2.725.525.025.55-.6 1.325-1.75 2.15h2.05a3.134 3.134 0 0 0 2-2.55c0-1.425-1-2.05-2.35-2.05a4.9 4.9 0 0 0-3.525 1.325l.65 1.45a3.613 3.613 0 0 1 2.2-.85Zm6.35 2.4v1.6c0 1.3.025 2.425-.95 2.925a6.175 6.175 0 0 0-5.425-2.775 6.091 6.091 0 0 0-6.4 6.3 6.085 6.085 0 0 0 6.4 6.275 6.071 6.071 0 0 0 6.4-6.275 7.151 7.151 0 0 0-.2-1.675c2-.55 3.025-2.25 3.025-4.6v-1.775Zm-6.375 11.775a3.543 3.543 0 0 1-3.55-3.725 3.543 3.543 0 0 1 3.55-3.775 3.544 3.544 0 0 1 3.55 3.775 3.545 3.545 0 0 1-3.55 3.725Zm12.925-11.65a1.894 1.894 0 0 0 1.9-1.875 1.889 1.889 0 0 0-1.9-1.85 1.867 1.867 0 0 0-1.875 1.85 1.872 1.872 0 0 0 1.875 1.875Zm-1.4 14h2.8v-12.2h-2.8Zm26.725-15.95h-1.55v-2.45h-2.775v2.45h-4.65v1.9h4.65v3.35h-.025a4.937 4.937 0 0 0-3.9-1.675c-3.35 0-5.9 2.65-5.9 6.325 0 3.775 2.55 6.25 5.925 6.25a4.758 4.758 0 0 0 3.975-1.85h.025v1.65h2.675v-14.05h1.55Zm-7.8 13.6a3.449 3.449 0 0 1-3.5-3.675 3.54 3.54 0 0 1 3.525-3.825 3.572 3.572 0 0 1 3.55 3.825 3.508 3.508 0 0 1-3.575 3.675Zm11.15-11.5h2.775l1.375-1.925h.05l1.35 1.925h2.725l-2.625-3.625h-2.925Zm4.15 14.05a6.071 6.071 0 0 0 6.4-6.275 6.064 6.064 0 0 0-6.4-6.3 6.091 6.091 0 0 0-6.4 6.3 6.085 6.085 0 0 0 6.4 6.275Zm0-2.55a3.543 3.543 0 0 1-3.55-3.725 3.543 3.543 0 0 1 3.55-3.775 3.544 3.544 0 0 1 3.55 3.775 3.545 3.545 0 0 1-3.55 3.725Zm0 4.3a1.894 1.894 0 0 0-1.9 1.875 1.889 1.889 0 0 0 1.9 1.85 1.863 1.863 0 1 0 0-3.725Zm9.325-1.95h2.8v-6.125c0-2.4 1.25-3.725 3.15-3.725 1.675 0 2.65.825 2.65 3.4v6.45h2.8v-7.175c0-3.675-1.8-5.2-4.475-5.2a5.231 5.231 0 0 0-4.075 1.85h-.05v-1.675h-2.8Zm20.275 5.125c4.525 0 6.225-2.675 6.225-6.375v-10.95h-2.8v1.3h-.05a5.5 5.5 0 0 0-3.8-1.475c-3.375 0-5.8 2.575-5.8 6.15a5.743 5.743 0 0 0 5.95 6.025 5.128 5.128 0 0 0 3.7-1.475h.05v1.275c0 1.625-1.225 3-3.625 3a8.007 8.007 0 0 1-4.15-1.2l-.675 2.45a9.812 9.812 0 0 0 4.975 1.275Zm.1-7.9a3.333 3.333 0 0 1-3.475-3.525 3.333 3.333 0 0 1 3.475-3.525 3.342 3.342 0 0 1 3.45 3.475 3.382 3.382 0 0 1-3.45 3.575ZM298.459 311.86h-5.65v7.65h-1.475v2.575h1.475v7.525h5.725c5.7 0 9.15-3.625 9.15-8.85 0-5.25-3.6-8.9-9.225-8.9Zm-.1 15.05h-2.525v-4.825h4.2v-2.575h-4.2v-4.95h2.675a5.882 5.882 0 0 1 6.05 6.2 5.906 5.906 0 0 1-6.2 6.15Zm18.3-11a3.63 3.63 0 0 0 3.9-3.725h-2.2a1.631 1.631 0 0 1-1.7 1.575 1.631 1.631 0 0 1-1.7-1.575h-2.2a3.63 3.63 0 0 0 3.9 3.725Zm-.65 13.9a4.581 4.581 0 0 0 3.875-1.825l.05.025v1.6h2.675v-12.2h-2.8v1.475l-.05.025a4.68 4.68 0 0 0-3.775-1.675c-3.35 0-5.875 2.65-5.875 6.325 0 3.775 2.525 6.25 5.9 6.25Zm.45-2.55a3.435 3.435 0 0 1-3.5-3.675 3.522 3.522 0 0 1 3.5-3.825 3.574 3.574 0 0 1 3.475 3.825 3.487 3.487 0 0 1-3.475 3.675Zm-.075 4.3a1.894 1.894 0 0 0-1.9 1.875 1.889 1.889 0 0 0 1.9 1.85 1.863 1.863 0 1 0 0-3.725Zm13.275-1.75a5.672 5.672 0 0 0 3.1-.725l-.725-2.425a4.092 4.092 0 0 1-1.8.525c-.8 0-1.175-.45-1.175-1.7v-5.7h3.575v-2.375h-3.575v-4.35l-2.8.3v4.05h-1.5v2.375h1.5v5.975c0 2.725 1.3 4.05 3.4 4.05Zm17.7 0a6.127 6.127 0 0 0 5.25-2.275l-1.925-1.7a3.817 3.817 0 0 1-3.075 1.425 3.5 3.5 0 0 1-3.625-3.75 3.5 3.5 0 0 1 3.625-3.75 3.949 3.949 0 0 1 3.075 1.4l1.9-1.65a6.68 6.68 0 0 0-5.125-2.275 6.03 6.03 0 0 0-6.325 6.3 6 6 0 0 0 6.225 6.275Zm9.45-14.05h2.775l1.375-1.925h.05l1.35 1.925h2.725l-2.625-3.625h-2.925Zm3.5 14.05a4.581 4.581 0 0 0 3.875-1.825l.05.025v1.6h2.675v-12.2h-2.8v1.475l-.05.025a4.68 4.68 0 0 0-3.775-1.675c-3.35 0-5.875 2.65-5.875 6.325 0 3.775 2.525 6.25 5.9 6.25Zm.45-2.55a3.435 3.435 0 0 1-3.5-3.675 3.522 3.522 0 0 1 3.5-3.825 3.574 3.574 0 0 1 3.475 3.825 3.487 3.487 0 0 1-3.475 3.675Zm14 2.55a4.769 4.769 0 0 0 3.725-1.75l.05.025v1.525h2.8v-12.2h-2.8v5.85c0 2.625-1.5 4-3.125 4-1.675 0-2.425-.75-2.425-3.175v-6.675h-2.8v7.425c0 3.625 1.875 4.975 4.575 4.975Zm16.825-.2h2.8v-6.2c0-2.4 1.25-3.65 3.275-3.65 1.675 0 2.65.85 2.65 3.275v6.575h2.8v-7.3c0-3.65-1.875-5.075-4.55-5.075a5.483 5.483 0 0 0-4.15 1.7h-.025v-7.725h-2.8Zm19.625-13.85h2.05a3.134 3.134 0 0 0 2-2.55c0-1.425-1-2.05-2.35-2.05a4.9 4.9 0 0 0-3.525 1.325l.65 1.45a3.614 3.614 0 0 1 2.2-.85c.45 0 .725.2.725.525.025.55-.6 1.325-1.75 2.15Zm1 14.05a6.071 6.071 0 0 0 6.4-6.275 6.064 6.064 0 0 0-6.4-6.3 6.091 6.091 0 0 0-6.4 6.3 6.085 6.085 0 0 0 6.4 6.275Zm0-2.55a3.543 3.543 0 0 1-3.55-3.725 3.543 3.543 0 0 1 3.55-3.775 3.544 3.544 0 0 1 3.55 3.775 3.545 3.545 0 0 1-3.55 3.725Zm10.9-11.65a1.894 1.894 0 0 0 1.9-1.875 1.889 1.889 0 0 0-1.9-1.85 1.867 1.867 0 0 0-1.875 1.85 1.872 1.872 0 0 0 1.875 1.875Zm-1.4 14h2.8v-12.2h-2.8Zm18.775 5.125c4.525 0 6.225-2.675 6.225-6.375v-10.95h-2.8v1.3h-.05a5.5 5.5 0 0 0-3.8-1.475c-3.375 0-5.8 2.575-5.8 6.15a5.743 5.743 0 0 0 5.95 6.025 5.128 5.128 0 0 0 3.7-1.475h.05v1.275c0 1.625-1.225 3-3.625 3a8.007 8.007 0 0 1-4.15-1.2l-.675 2.45a9.812 9.812 0 0 0 4.975 1.275Zm.1-7.9a3.333 3.333 0 0 1-3.475-3.525 3.333 3.333 0 0 1 3.475-3.525 3.342 3.342 0 0 1 3.45 3.475 3.382 3.382 0 0 1-3.45 3.575Zm21.675-11.35v1.6c0 1.3.025 2.425-.95 2.925a6.175 6.175 0 0 0-5.425-2.775 6.091 6.091 0 0 0-6.4 6.3 6.085 6.085 0 0 0 6.4 6.275 6.071 6.071 0 0 0 6.4-6.275 7.151 7.151 0 0 0-.2-1.675c2-.55 3.025-2.25 3.025-4.6v-1.775Zm-6.375 11.775a3.543 3.543 0 0 1-3.55-3.725 3.543 3.543 0 0 1 3.55-3.775 3.544 3.544 0 0 1 3.55 3.775 3.545 3.545 0 0 1-3.55 3.725Zm0 4.3a1.894 1.894 0 0 0-1.9 1.875 1.889 1.889 0 0 0 1.9 1.85 1.863 1.863 0 1 0 0-3.725Zm12.925-15.95a1.894 1.894 0 0 0 1.9-1.875 1.889 1.889 0 0 0-1.9-1.85 1.867 1.867 0 0 0-1.875 1.85 1.872 1.872 0 0 0 1.875 1.875Zm-1.4 14h2.8v-12.2h-2.8Zm13.325 0h2.8v-6.075c0-2.4 1.25-3.775 2.925-3.775 1.65 0 2.425 1.3 2.425 3.5v6.35h2.8v-6.075c0-2.4 1.275-3.775 2.85-3.775 1.65 0 2.375 1.3 2.375 3.5v6.35h2.8v-7.05c0-3.65-1.6-5.325-4.275-5.325a5.354 5.354 0 0 0-4.375 2.025h-.05a3.825 3.825 0 0 0-3.65-2.025 4.979 4.979 0 0 0-3.8 1.85h-.025v-1.675h-2.8Zm28.125-16.525c.45 0 .725.2.725.525.025.55-.6 1.325-1.75 2.15h2.05a3.134 3.134 0 0 0 2-2.55c0-1.425-1-2.05-2.35-2.05a4.9 4.9 0 0 0-3.525 1.325l.65 1.45a3.613 3.613 0 0 1 2.2-.85Zm6.35 2.4v1.6c0 1.3.025 2.425-.95 2.925a6.175 6.175 0 0 0-5.425-2.775 6.091 6.091 0 0 0-6.4 6.3 6.085 6.085 0 0 0 6.4 6.275 6.071 6.071 0 0 0 6.4-6.275 7.151 7.151 0 0 0-.2-1.675c2-.55 3.025-2.25 3.025-4.6v-1.775Zm-6.375 11.775a3.543 3.543 0 0 1-3.55-3.725 3.543 3.543 0 0 1 3.55-3.775 3.544 3.544 0 0 1 3.55 3.775 3.545 3.545 0 0 1-3.55 3.725ZM344.259 359.61h2.675l4.85-12.2h-2.975l-3.175 8.7h-.025l-3.175-8.7h-3Zm20.5-16.125-2.075-3.625h-3.075l3.075 3.625Zm-6.15.35h.05l1.35 1.925h2.725l-2.625-3.625h-2.925l-2.725 3.625h2.775Zm-.075 3.4a5.92 5.92 0 0 0-6.125 6.275 5.99 5.99 0 0 0 6.325 6.3 6.018 6.018 0 0 0 5.175-2.3l-1.95-1.675a3.815 3.815 0 0 1-3.075 1.425 3.381 3.381 0 0 1-3.575-2.825h8.9a8.879 8.879 0 0 0 .075-1.075c0-3.55-2.325-6.125-5.75-6.125Zm-.025 2.525a2.919 2.919 0 0 1 2.95 2.475h-6.1a3.086 3.086 0 0 1 3.15-2.475Zm20.875 10.05a6.127 6.127 0 0 0 5.25-2.275l-1.925-1.7a3.817 3.817 0 0 1-3.075 1.425 3.5 3.5 0 0 1-3.625-3.75 3.5 3.5 0 0 1 3.625-3.75 3.949 3.949 0 0 1 3.075 1.4l1.9-1.65a6.68 6.68 0 0 0-5.125-2.275 6.03 6.03 0 0 0-6.325 6.3 6 6 0 0 0 6.225 6.275Zm7.8-.2h2.8v-6.2c0-2.4 1.25-3.65 3.275-3.65 1.675 0 2.65.85 2.65 3.275v6.575h2.8v-7.3c0-3.65-1.875-5.075-4.55-5.075a5.483 5.483 0 0 0-4.15 1.7h-.025v-7.725h-2.8Zm19.3-13.85h2.05a3.134 3.134 0 0 0 2-2.55c0-1.425-1-2.05-2.35-2.05a4.9 4.9 0 0 0-3.525 1.325l.65 1.45a3.613 3.613 0 0 1 2.2-.85c.45 0 .725.2.725.525.025.55-.6 1.325-1.75 2.15Zm-.025 14.05a4.769 4.769 0 0 0 3.725-1.75l.05.025v1.525h2.8v-12.2h-2.8v5.85c0 2.625-1.5 4-3.125 4-1.675 0-2.425-.75-2.425-3.175v-6.675h-2.8v7.425c0 3.625 1.875 4.975 4.575 4.975Zm30.225-16.15h-1.55v-2.45h-2.775v2.45h-4.65v1.9h4.65v3.35h-.025a4.937 4.937 0 0 0-3.9-1.675c-3.35 0-5.9 2.65-5.9 6.325 0 3.775 2.55 6.25 5.925 6.25a4.758 4.758 0 0 0 3.975-1.85h.025v1.65h2.675v-14.05h1.55Zm-7.8 13.6a3.449 3.449 0 0 1-3.5-3.675 3.54 3.54 0 0 1 3.525-3.825 3.572 3.572 0 0 1 3.55 3.825 3.508 3.508 0 0 1-3.575 3.675Zm21.25-13.775-2.075-3.625h-3.075l3.075 3.625Zm-6.15.35h.05l1.35 1.925h2.725l-2.625-3.625h-2.925l-2.725 3.625h2.775Zm-.075 3.4a5.92 5.92 0 0 0-6.125 6.275 5.99 5.99 0 0 0 6.325 6.3 6.018 6.018 0 0 0 5.175-2.3l-1.95-1.675a3.815 3.815 0 0 1-3.075 1.425 3.381 3.381 0 0 1-3.575-2.825h8.9a8.879 8.879 0 0 0 .075-1.075c0-3.55-2.325-6.125-5.75-6.125Zm-.025 2.525a2.919 2.919 0 0 1 2.95 2.475h-6.1a3.086 3.086 0 0 1 3.15-2.475ZM562.359 238.01h3.025v-15.05h5.1v-2.7h-13.15v2.7h5.025Zm11.675-14a1.894 1.894 0 0 0 1.9-1.875 1.889 1.889 0 0 0-1.9-1.85 1.867 1.867 0 0 0-1.875 1.85 1.872 1.872 0 0 0 1.875 1.875Zm-1.4 14h2.8v-12.2h-2.8Zm20.625-19.75h-3.075l-2.075 3.625h2.075Zm-8.525 3.975h.05l1.35 1.925h2.725l-2.625-3.625h-2.925l-2.725 3.625h2.775Zm-.075 3.4a5.92 5.92 0 0 0-6.125 6.275 5.99 5.99 0 0 0 6.325 6.3 6.018 6.018 0 0 0 5.175-2.3l-1.95-1.675a3.815 3.815 0 0 1-3.075 1.425 3.381 3.381 0 0 1-3.575-2.825h8.9a8.879 8.879 0 0 0 .075-1.075c0-3.55-2.325-6.125-5.75-6.125Zm-.025 2.525a2.919 2.919 0 0 1 2.95 2.475h-6.1a3.086 3.086 0 0 1 3.15-2.475Zm8.675 14.8h2.8v-6.425l.05-.025a4.7 4.7 0 0 0 3.825 1.7c3.4 0 5.925-2.475 5.925-6.25 0-3.675-2.525-6.325-5.9-6.325a4.921 4.921 0 0 0-3.85 1.625h-.05v-1.45h-2.8Zm6.25-7.3a3.508 3.508 0 0 1-3.575-3.675 3.572 3.572 0 0 1 3.55-3.825 3.54 3.54 0 0 1 3.525 3.825 3.449 3.449 0 0 1-3.5 3.675Zm21.475 2.55a6.127 6.127 0 0 0 5.25-2.275l-1.925-1.7a3.817 3.817 0 0 1-3.075 1.425 3.5 3.5 0 0 1-3.625-3.75 3.5 3.5 0 0 1 3.625-3.75 3.949 3.949 0 0 1 3.075 1.4l1.9-1.65a6.68 6.68 0 0 0-5.125-2.275 6.03 6.03 0 0 0-6.325 6.3 6 6 0 0 0 6.225 6.275Zm9.45-14.05h2.775l1.375-1.925h.05l1.35 1.925h2.725l-2.625-3.625h-2.925Zm3.5 14.05a4.581 4.581 0 0 0 3.875-1.825l.05.025v1.6h2.675v-12.2h-2.8v1.475l-.05.025a4.68 4.68 0 0 0-3.775-1.675c-3.35 0-5.875 2.65-5.875 6.325 0 3.775 2.525 6.25 5.9 6.25Zm.45-2.55a3.435 3.435 0 0 1-3.5-3.675 3.522 3.522 0 0 1 3.5-3.825 3.574 3.574 0 0 1 3.475 3.825 3.487 3.487 0 0 1-3.475 3.675Zm-.075 4.3a1.894 1.894 0 0 0-1.9 1.875 1.889 1.889 0 0 0 1.9 1.85 1.863 1.863 0 1 0 0-3.725Zm9.75-1.95h2.8v-6.125c0-2.4 1.25-3.725 3.15-3.725 1.675 0 2.65.825 2.65 3.4v6.45h2.8v-7.175c0-3.675-1.8-5.2-4.475-5.2a5.231 5.231 0 0 0-4.075 1.85h-.05v-1.675h-2.8Zm21.525 0h2.8v-6.125c0-2.4 1.25-3.725 3.15-3.725 1.675 0 2.65.825 2.65 3.4v6.45h2.8v-7.175c0-3.675-1.8-5.2-4.475-5.2a5.231 5.231 0 0 0-4.075 1.85h-.05v-1.675h-2.8Zm16.35-13.85h2.775l1.375-1.925h.05l1.35 1.925h2.725l-2.625-3.625h-2.925Zm4.15 14.05a6.071 6.071 0 0 0 6.4-6.275 6.064 6.064 0 0 0-6.4-6.3 6.091 6.091 0 0 0-6.4 6.3 6.085 6.085 0 0 0 6.4 6.275Zm0-2.55a3.543 3.543 0 0 1-3.55-3.725 3.543 3.543 0 0 1 3.55-3.775 3.544 3.544 0 0 1 3.55 3.775 3.545 3.545 0 0 1-3.55 3.725Zm0 4.3a1.894 1.894 0 0 0-1.9 1.875 1.889 1.889 0 0 0 1.9 1.85 1.863 1.863 0 1 0 0-3.725Zm10.9-15.95a1.894 1.894 0 0 0 1.9-1.875 1.889 1.889 0 0 0-1.9-1.85 1.867 1.867 0 0 0-1.875 1.85 1.872 1.872 0 0 0 1.875 1.875Zm-1.4 14h2.8v-12.2h-2.8Zm18.5.2a4.758 4.758 0 0 0 3.975-1.85h.025v1.65h2.675v-18.4h-2.775v7.7h-.025a4.937 4.937 0 0 0-3.9-1.675c-3.35 0-5.9 2.65-5.9 6.325 0 3.775 2.55 6.25 5.925 6.25Zm.425-2.55a3.449 3.449 0 0 1-3.5-3.675 3.54 3.54 0 0 1 3.525-3.825 3.572 3.572 0 0 1 3.55 3.825 3.508 3.508 0 0 1-3.575 3.675Zm14.225 2.55a4.769 4.769 0 0 0 3.725-1.75l.05.025v1.525h2.8v-12.2h-2.8v5.85c0 2.625-1.5 4-3.125 4-1.675 0-2.425-.75-2.425-3.175v-6.675h-2.8v7.425c0 3.625 1.875 4.975 4.575 4.975Zm10.125-.2h2.8v-6.125c0-2.4 1.25-3.725 3.15-3.725 1.675 0 2.65.825 2.65 3.4v6.45h2.8v-7.175c0-3.675-1.8-5.2-4.475-5.2a5.231 5.231 0 0 0-4.075 1.85h-.05v-1.675h-2.8Zm20.275 5.125c4.525 0 6.225-2.675 6.225-6.375v-10.95h-2.8v1.3h-.05a5.5 5.5 0 0 0-3.8-1.475c-3.375 0-5.8 2.575-5.8 6.15a5.743 5.743 0 0 0 5.95 6.025 5.128 5.128 0 0 0 3.7-1.475h.05v1.275c0 1.625-1.225 3-3.625 3a8.007 8.007 0 0 1-4.15-1.2l-.675 2.45a9.812 9.812 0 0 0 4.975 1.275Zm.1-7.9a3.333 3.333 0 0 1-3.475-3.525 3.333 3.333 0 0 1 3.475-3.525 3.342 3.342 0 0 1 3.45 3.475 3.382 3.382 0 0 1-3.45 3.575Zm8.125 6.075h2.05l1.75-6.325h-3ZM576.659 268.21a5.672 5.672 0 0 0 3.1-.725l-.725-2.425a4.092 4.092 0 0 1-1.8.525c-.8 0-1.175-.45-1.175-1.7v-5.7h3.575v-2.375h-3.575v-4.35l-2.8.3v4.05h-1.5v2.375h1.5v5.975c0 2.725 1.3 4.05 3.4 4.05Zm5.65-14.1h2.85l-2.025-3.6-3.075-.025Zm.025 13.9h2.8v-12.2h-2.8Zm6.65 0h2.8v-6.075c0-2.4 1.25-3.775 2.925-3.775 1.65 0 2.425 1.3 2.425 3.5v6.35h2.8v-6.075c0-2.4 1.275-3.775 2.85-3.775 1.65 0 2.375 1.3 2.375 3.5v6.35h2.8v-7.05c0-3.65-1.6-5.325-4.275-5.325a5.354 5.354 0 0 0-4.375 2.025h-.05a3.825 3.825 0 0 0-3.65-2.025 4.979 4.979 0 0 0-3.8 1.85h-.025v-1.675h-2.8Zm29.125 0h2.8v-6.2c0-2.4 1.25-3.65 3.275-3.65 1.675 0 2.65.85 2.65 3.275v6.575h2.8v-7.3c0-3.65-1.875-5.075-4.55-5.075a5.483 5.483 0 0 0-4.15 1.7h-.025v-7.725h-2.8Zm16.525-14a1.894 1.894 0 0 0 1.9-1.875 1.889 1.889 0 0 0-1.9-1.85 1.867 1.867 0 0 0-1.875 1.85 1.872 1.872 0 0 0 1.875 1.875Zm-1.4 14h2.8v-12.2h-2.8Zm17.425-20.75a4.728 4.728 0 0 0-3.35 1.25l.6 1.375a3.526 3.526 0 0 1 2.1-.8c.425 0 .675.2.675.5.025.525-.55 1.25-1.65 2.05h1.95a3.041 3.041 0 0 0 1.9-2.425c0-1.35-.95-1.95-2.225-1.95Zm-5.35 4.975h.05l1.35 1.925h2.725l-2.625-3.625h-2.925l-2.725 3.625h2.775Zm-.05 3.4a5.92 5.92 0 0 0-6.125 6.275 5.99 5.99 0 0 0 6.325 6.3 6.018 6.018 0 0 0 5.175-2.3l-1.95-1.675a3.815 3.815 0 0 1-3.075 1.425 3.381 3.381 0 0 1-3.575-2.825h8.9a8.879 8.879 0 0 0 .075-1.075c0-3.55-2.325-6.125-5.75-6.125Zm-.025 2.525a2.919 2.919 0 0 1 2.95 2.475h-6.1a3.086 3.086 0 0 1 3.15-2.475Zm13 10.05a4.769 4.769 0 0 0 3.725-1.75l.05.025v1.525h2.8v-12.2h-2.8v5.85c0 2.625-1.5 4-3.125 4-1.675 0-2.425-.75-2.425-3.175v-6.675h-2.8v7.425c0 3.625 1.875 4.975 4.575 4.975Zm22.325 0a6.127 6.127 0 0 0 5.25-2.275l-1.925-1.7a3.817 3.817 0 0 1-3.075 1.425 3.5 3.5 0 0 1-3.625-3.75 3.5 3.5 0 0 1 3.625-3.75 3.949 3.949 0 0 1 3.075 1.4l1.9-1.65a6.68 6.68 0 0 0-5.125-2.275 6.03 6.03 0 0 0-6.325 6.3 6 6 0 0 0 6.225 6.275Zm7.8-.2h2.8v-6.2c0-2.4 1.25-3.65 3.275-3.65 1.675 0 2.65.85 2.65 3.275v6.575h2.8v-7.3c0-3.65-1.875-5.075-4.55-5.075a5.483 5.483 0 0 0-4.15 1.7h-.025v-7.725h-2.8Zm19.3-13.85h2.05a3.134 3.134 0 0 0 2-2.55c0-1.425-1-2.05-2.35-2.05a4.9 4.9 0 0 0-3.525 1.325l.65 1.45a3.613 3.613 0 0 1 2.2-.85c.45 0 .725.2.725.525.025.55-.6 1.325-1.75 2.15Zm-.025 14.05a4.769 4.769 0 0 0 3.725-1.75l.05.025v1.525h2.8v-12.2h-2.8v5.85c0 2.625-1.5 4-3.125 4-1.675 0-2.425-.75-2.425-3.175v-6.675h-2.8v7.425c0 3.625 1.875 4.975 4.575 4.975Zm30.225-16.15h-1.55v-2.45h-2.775v2.45h-4.65v1.9h4.65v3.35h-.025a4.937 4.937 0 0 0-3.9-1.675c-3.35 0-5.9 2.65-5.9 6.325 0 3.775 2.55 6.25 5.925 6.25a4.758 4.758 0 0 0 3.975-1.85h.025v1.65h2.675v-14.05h1.55Zm-7.8 13.6a3.449 3.449 0 0 1-3.5-3.675 3.54 3.54 0 0 1 3.525-3.825 3.572 3.572 0 0 1 3.55 3.825 3.508 3.508 0 0 1-3.575 3.675Zm21.25-13.775-2.075-3.625h-3.075l3.075 3.625Zm-6.15.35h.05l1.35 1.925h2.725l-2.625-3.625h-2.925l-2.725 3.625h2.775Zm-.075 3.4a5.92 5.92 0 0 0-6.125 6.275 5.99 5.99 0 0 0 6.325 6.3 6.018 6.018 0 0 0 5.175-2.3l-1.95-1.675a3.815 3.815 0 0 1-3.075 1.425 3.381 3.381 0 0 1-3.575-2.825h8.9a8.877 8.877 0 0 0 .075-1.075c0-3.55-2.325-6.125-5.75-6.125Zm-.025 2.525a2.919 2.919 0 0 1 2.95 2.475h-6.1a3.086 3.086 0 0 1 3.15-2.475ZM567.459 298.01h2.675l4.85-12.2h-2.975l-3.175 8.7h-.025l-3.175-8.7h-3Zm19-17.525-3.075.025-2.875 3.6h2.85Zm1.925 3.4v1.6c0 1.3.025 2.425-.95 2.925a6.175 6.175 0 0 0-5.425-2.775 6.091 6.091 0 0 0-6.4 6.3 6.085 6.085 0 0 0 6.4 6.275 6.071 6.071 0 0 0 6.4-6.275 7.151 7.151 0 0 0-.2-1.675c2-.55 3.025-2.25 3.025-4.6v-1.775Zm-6.375 11.775a3.543 3.543 0 0 1-3.55-3.725 3.543 3.543 0 0 1 3.55-3.775 3.544 3.544 0 0 1 3.55 3.775 3.545 3.545 0 0 1-3.55 3.725Zm12.925-11.65a1.894 1.894 0 0 0 1.9-1.875 1.889 1.889 0 0 0-1.9-1.85 1.867 1.867 0 0 0-1.875 1.85 1.872 1.872 0 0 0 1.875 1.875Zm-1.4 14h2.8v-12.2h-2.8Zm16.95.2a5.672 5.672 0 0 0 3.1-.725l-.725-2.425a4.092 4.092 0 0 1-1.8.525c-.8 0-1.175-.45-1.175-1.7v-5.7h3.575v-2.375h-3.575v-4.35l-2.8.3v4.05h-1.5v2.375h1.5v5.975c0 2.725 1.3 4.05 3.4 4.05Zm17.725-14.325v1.6c0 1.475.05 2.675-1.325 3.075v-2.75h-2.8v5.85c0 2.625-1.5 4-3.125 4-1.675 0-2.425-.75-2.425-3.175v-6.675h-2.8v7.425c0 3.625 1.875 4.975 4.575 4.975a4.769 4.769 0 0 0 3.725-1.75l.05.025v1.525h2.8v-7.575c2.75-.15 4.175-2 4.175-4.775v-1.775Zm11.825 14.125h2.8v-18.4h-2.8Zm8.2-14a1.894 1.894 0 0 0 1.9-1.875 1.889 1.889 0 0 0-1.9-1.85 1.867 1.867 0 0 0-1.875 1.85 1.872 1.872 0 0 0 1.875 1.875Zm-1.4 14h2.8v-12.2h-2.8Zm12.075-15.775h.05l1.35 1.925h2.725l-2.625-3.625h-2.925l-2.725 3.625h2.775Zm5.7 9.525c0-3.55-2.325-6.125-5.75-6.125a5.92 5.92 0 0 0-6.125 6.275 5.99 5.99 0 0 0 6.325 6.3 6.018 6.018 0 0 0 5.175-2.3l-1.95-1.675a3.815 3.815 0 0 1-3.075 1.425 3.381 3.381 0 0 1-3.575-2.825h8.9a8.879 8.879 0 0 0 .075-1.075Zm-5.775-3.6a2.919 2.919 0 0 1 2.95 2.475h-6.1a3.086 3.086 0 0 1 3.15-2.475Zm.2 11.8a1.894 1.894 0 0 0-1.9 1.875 1.889 1.889 0 0 0 1.9 1.85 1.863 1.863 0 1 0 0-3.725Zm12.8-1.75a4.769 4.769 0 0 0 3.725-1.75l.05.025v1.525h2.8v-12.2h-2.8v5.85c0 2.625-1.5 4-3.125 4-1.675 0-2.425-.75-2.425-3.175v-6.675h-2.8v7.425c0 3.625 1.875 4.975 4.575 4.975Zm20.45 0a5.672 5.672 0 0 0 3.1-.725l-.725-2.425a4.092 4.092 0 0 1-1.8.525c-.8 0-1.175-.45-1.175-1.7v-5.7h3.575v-2.375h-3.575v-4.35l-2.8.3v4.05h-1.5v2.375h1.5v5.975c0 2.725 1.3 4.05 3.4 4.05Zm5.5-.2h2.8v-6.2c0-2.4 1.25-3.65 3.275-3.65 1.675 0 2.65.85 2.65 3.275v6.575h2.8v-7.3c0-3.65-1.875-5.075-4.55-5.075a5.483 5.483 0 0 0-4.15 1.7h-.025v-7.725h-2.8Zm27.175-14.125v1.6c0 1.475.05 2.675-1.325 3.075v-2.75h-2.8v5.85c0 2.625-1.5 4-3.125 4-1.675 0-2.425-.75-2.425-3.175v-6.675h-2.8v7.425c0 3.625 1.875 4.975 4.575 4.975a4.769 4.769 0 0 0 3.725-1.75l.05.025v1.525h2.8v-7.575c2.75-.15 4.175-2 4.175-4.775v-1.775Zm-6.75 16.075a1.894 1.894 0 0 0-1.9 1.875 1.889 1.889 0 0 0 1.9 1.85 1.863 1.863 0 1 0 0-3.725Zm16.6-1.75a6.127 6.127 0 0 0 5.25-2.275l-1.925-1.7a3.817 3.817 0 0 1-3.075 1.425 3.5 3.5 0 0 1-3.625-3.75 3.5 3.5 0 0 1 3.625-3.75 3.949 3.949 0 0 1 3.075 1.4l1.9-1.65a6.68 6.68 0 0 0-5.125-2.275 6.03 6.03 0 0 0-6.325 6.3 6 6 0 0 0 6.225 6.275Zm18.125 0a5.672 5.672 0 0 0 3.1-.725l-.725-2.425a4.092 4.092 0 0 1-1.8.525c-.8 0-1.175-.45-1.175-1.7v-5.7h3.575v-2.375h-3.575v-4.35l-2.8.3v4.05h-1.5v2.375h1.5v5.975c0 2.725 1.3 4.05 3.4 4.05Zm18.775-19.95h-3.075l-2.075 3.625h2.075Zm-8.525 3.975h.05l1.35 1.925h2.725l-2.625-3.625h-2.925l-2.725 3.625h2.775Zm-.075 3.4a5.92 5.92 0 0 0-6.125 6.275 5.99 5.99 0 0 0 6.325 6.3 6.018 6.018 0 0 0 5.175-2.3l-1.95-1.675a3.815 3.815 0 0 1-3.075 1.425 3.381 3.381 0 0 1-3.575-2.825h8.9a8.877 8.877 0 0 0 .075-1.075c0-3.55-2.325-6.125-5.75-6.125Zm-.025 2.525a2.919 2.919 0 0 1 2.95 2.475h-6.1a3.086 3.086 0 0 1 3.15-2.475ZM810.659 238.01h3.025v-7.125h8v7.125h3.025v-17.75h-3.025v7.925h-8v-7.925h-3.025Zm23.725.2a6.071 6.071 0 0 0 6.4-6.275 6.064 6.064 0 0 0-6.4-6.3 6.091 6.091 0 0 0-6.4 6.3 6.085 6.085 0 0 0 6.4 6.275Zm0-2.55a3.543 3.543 0 0 1-3.55-3.725 3.543 3.543 0 0 1 3.55-3.775 3.544 3.544 0 0 1 3.55 3.775 3.545 3.545 0 0 1-3.55 3.725Zm0 4.3a1.894 1.894 0 0 0-1.9 1.875 1.889 1.889 0 0 0 1.9 1.85 1.863 1.863 0 1 0 0-3.725Zm14.825-1.75a6.127 6.127 0 0 0 5.25-2.275l-1.925-1.7a3.817 3.817 0 0 1-3.075 1.425 3.5 3.5 0 0 1-3.625-3.75 3.5 3.5 0 0 1 3.625-3.75 3.949 3.949 0 0 1 3.075 1.4l1.9-1.65a6.68 6.68 0 0 0-5.125-2.275 6.03 6.03 0 0 0-6.325 6.3 6 6 0 0 0 6.225 6.275Zm18.125 0a5.672 5.672 0 0 0 3.1-.725l-.725-2.425a4.092 4.092 0 0 1-1.8.525c-.8 0-1.175-.45-1.175-1.7v-5.7h3.575v-2.375h-3.575v-4.35l-2.8.3v4.05h-1.5v2.375h1.5v5.975c0 2.725 1.3 4.05 3.4 4.05Zm5.5-.2h2.8v-6.2c0-2.4 1.25-3.65 3.275-3.65 1.675 0 2.65.85 2.65 3.275v6.575h2.8v-7.3c0-3.65-1.875-5.075-4.55-5.075a5.483 5.483 0 0 0-4.15 1.7h-.025v-7.725h-2.8Zm16.475-13.85h2.775l1.375-1.925h.05l1.35 1.925h2.725l-2.625-3.625h-2.925Zm4.15 14.05a6.071 6.071 0 0 0 6.4-6.275 6.064 6.064 0 0 0-6.4-6.3 6.091 6.091 0 0 0-6.4 6.3 6.085 6.085 0 0 0 6.4 6.275Zm0-2.55a3.543 3.543 0 0 1-3.55-3.725 3.543 3.543 0 0 1 3.55-3.775 3.544 3.544 0 0 1 3.55 3.775 3.545 3.545 0 0 1-3.55 3.725Zm9.325 2.35h2.8v-6.125c0-2.4 1.25-3.725 3.15-3.725 1.675 0 2.65.825 2.65 3.4v6.45h2.8v-7.175c0-3.675-1.8-5.2-4.475-5.2a5.231 5.231 0 0 0-4.075 1.85h-.05v-1.675h-2.8Zm20.275 5.125c4.525 0 6.225-2.675 6.225-6.375v-10.95h-2.8v1.3h-.05a5.5 5.5 0 0 0-3.8-1.475c-3.375 0-5.8 2.575-5.8 6.15a5.743 5.743 0 0 0 5.95 6.025 5.128 5.128 0 0 0 3.7-1.475h.05v1.275c0 1.625-1.225 3-3.625 3a8.007 8.007 0 0 1-4.15-1.2l-.675 2.45a9.812 9.812 0 0 0 4.975 1.275Zm.1-7.9a3.333 3.333 0 0 1-3.475-3.525 3.333 3.333 0 0 1 3.475-3.525 3.342 3.342 0 0 1 3.45 3.475 3.382 3.382 0 0 1-3.45 3.575Zm25.4 7.725h2.8v-17.15h-2.8v1.5h-.025a4.9 4.9 0 0 0-3.9-1.675c-3.35 0-5.875 2.65-5.875 6.325 0 3.775 2.525 6.25 5.9 6.25a4.764 4.764 0 0 0 3.875-1.7h.025Zm-3.45-7.3a3.435 3.435 0 0 1-3.5-3.675 3.522 3.522 0 0 1 3.5-3.825 3.572 3.572 0 0 1 3.55 3.825 3.5 3.5 0 0 1-3.55 3.675Zm14.1 2.55a4.769 4.769 0 0 0 3.725-1.75l.05.025v1.525h2.8v-12.2h-2.8v5.85c0 2.625-1.5 4-3.125 4-1.675 0-2.425-.75-2.425-3.175v-6.675h-2.8v7.425c0 3.625 1.875 4.975 4.575 4.975Zm15.275 0a4.581 4.581 0 0 0 3.875-1.825l.05.025v1.6h2.675v-12.2h-2.8v1.475l-.05.025a4.68 4.68 0 0 0-3.775-1.675c-3.35 0-5.875 2.65-5.875 6.325 0 3.775 2.525 6.25 5.9 6.25Zm.45-2.55a3.435 3.435 0 0 1-3.5-3.675 3.522 3.522 0 0 1 3.5-3.825 3.574 3.574 0 0 1 3.475 3.825 3.487 3.487 0 0 1-3.475 3.675Zm20 2.55a5.672 5.672 0 0 0 3.1-.725l-.725-2.425a4.092 4.092 0 0 1-1.8.525c-.8 0-1.175-.45-1.175-1.7v-5.7h3.575v-2.375h-3.575v-4.35l-2.8.3v4.05h-1.5v2.375h1.5v5.975c0 2.725 1.3 4.05 3.4 4.05Zm5.5-.2h2.8v-5.775a3.229 3.229 0 0 1 3.325-3.525c.2 0 .525.025.85.05v-3.125h-.35a4.688 4.688 0 0 0-3.775 2h-.05v-1.825h-2.8Zm13.4-13.85h2.775l-2.75-3.575-3.125-.025Zm.975 14.05a6.071 6.071 0 0 0 6.4-6.275 6.064 6.064 0 0 0-6.4-6.3 6.091 6.091 0 0 0-6.4 6.3 6.085 6.085 0 0 0 6.4 6.275Zm0-2.55a3.543 3.543 0 0 1-3.55-3.725 3.543 3.543 0 0 1 3.55-3.775 3.544 3.544 0 0 1 3.55 3.775 3.545 3.545 0 0 1-3.55 3.725ZM833.134 268.21a6.127 6.127 0 0 0 5.25-2.275l-1.925-1.7a3.817 3.817 0 0 1-3.075 1.425 3.5 3.5 0 0 1-3.625-3.75 3.5 3.5 0 0 1 3.625-3.75 3.949 3.949 0 0 1 3.075 1.4l1.9-1.65a6.68 6.68 0 0 0-5.125-2.275 6.03 6.03 0 0 0-6.325 6.3 6 6 0 0 0 6.225 6.275Zm7.8-.2h2.8v-6.2c0-2.4 1.25-3.65 3.275-3.65 1.675 0 2.65.85 2.65 3.275v6.575h2.8v-7.3c0-3.65-1.875-5.075-4.55-5.075a5.483 5.483 0 0 0-4.15 1.7h-.025v-7.725h-2.8Zm27-14.125v1.6c0 1.3.025 2.425-.95 2.925a6.175 6.175 0 0 0-5.425-2.775 6.091 6.091 0 0 0-6.4 6.3 6.085 6.085 0 0 0 6.4 6.275 6.071 6.071 0 0 0 6.4-6.275 7.151 7.151 0 0 0-.2-1.675c2-.55 3.025-2.25 3.025-4.6v-1.775Zm-6.375 11.775a3.543 3.543 0 0 1-3.55-3.725 3.543 3.543 0 0 1 3.55-3.775 3.544 3.544 0 0 1 3.55 3.775 3.545 3.545 0 0 1-3.55 3.725Zm12.925-11.65a1.894 1.894 0 0 0 1.9-1.875 1.889 1.889 0 0 0-1.9-1.85 1.867 1.867 0 0 0-1.875 1.85 1.872 1.872 0 0 0 1.875 1.875Zm-1.4 14h2.8v-12.2h-2.8Zm5.475 3.3h2.05l1.75-6.325h-3Zm20.475-3.1c3.4 0 5.925-2.475 5.925-6.25 0-3.675-2.525-6.325-5.9-6.325a4.964 4.964 0 0 0-3.875 1.625h-.025v-7.65h-2.8v18.4h2.675v-1.625h.05a4.692 4.692 0 0 0 3.95 1.825Zm-.425-2.55a3.508 3.508 0 0 1-3.575-3.675 3.572 3.572 0 0 1 3.55-3.825 3.54 3.54 0 0 1 3.525 3.825 3.449 3.449 0 0 1-3.5 3.675Zm14.275-11.5h2.775l-2.75-3.575-3.125-.025Zm.15 14.05a4.581 4.581 0 0 0 3.875-1.825l.05.025v1.6h2.675v-12.2h-2.8v1.475l-.05.025a4.68 4.68 0 0 0-3.775-1.675c-3.35 0-5.875 2.65-5.875 6.325 0 3.775 2.525 6.25 5.9 6.25Zm.45-2.55a3.435 3.435 0 0 1-3.5-3.675 3.522 3.522 0 0 1 3.5-3.825 3.574 3.574 0 0 1 3.475 3.825 3.487 3.487 0 0 1-3.475 3.675Zm11.25-11.65a1.894 1.894 0 0 0 1.9-1.875 1.889 1.889 0 0 0-1.9-1.85 1.867 1.867 0 0 0-1.875 1.85 1.872 1.872 0 0 0 1.875 1.875Zm-1.4 14h2.8v-12.2h-2.8Zm13.325 0h2.8v-6.2c0-2.4 1.25-3.65 3.275-3.65 1.675 0 2.65.85 2.65 3.275v6.575h2.8v-7.3c0-3.65-1.875-5.075-4.55-5.075a5.483 5.483 0 0 0-4.15 1.7h-.025v-7.725h-2.8Zm18.95-13.9h2.85l3.1-3.625-3.075.025Zm1.15 14.1a4.581 4.581 0 0 0 3.875-1.825l.05.025v1.6h2.675v-12.2h-2.8v1.475l-.05.025a4.68 4.68 0 0 0-3.775-1.675c-3.35 0-5.875 2.65-5.875 6.325 0 3.775 2.525 6.25 5.9 6.25Zm.45-2.55a3.435 3.435 0 0 1-3.5-3.675 3.522 3.522 0 0 1 3.5-3.825 3.574 3.574 0 0 1 3.475 3.825 3.487 3.487 0 0 1-3.475 3.675Zm13.2 2.55a5.672 5.672 0 0 0 3.1-.725l-.725-2.425a4.092 4.092 0 0 1-1.8.525c-.8 0-1.175-.45-1.175-1.7v-5.7h3.575v-2.375h-3.575v-4.35l-2.8.3v4.05h-1.5v2.375h1.5v5.975c0 2.725 1.3 4.05 3.4 4.05Zm15.7-.2h2.675l4.85-12.2h-2.975l-3.175 8.7h-.025l-3.175-8.7h-3Zm14.1-13.85h2.775l-2.75-3.575-3.125-.025Zm.15 14.05a4.581 4.581 0 0 0 3.875-1.825l.05.025v1.6h2.675v-12.2h-2.8v1.475l-.05.025a4.68 4.68 0 0 0-3.775-1.675c-3.35 0-5.875 2.65-5.875 6.325 0 3.775 2.525 6.25 5.9 6.25Zm.45-2.55a3.435 3.435 0 0 1-3.5-3.675 3.522 3.522 0 0 1 3.5-3.825 3.574 3.574 0 0 1 3.475 3.825 3.487 3.487 0 0 1-3.475 3.675ZM836.859 298.21a6.127 6.127 0 0 0 5.25-2.275l-1.925-1.7a3.817 3.817 0 0 1-3.075 1.425 3.5 3.5 0 0 1-3.625-3.75 3.5 3.5 0 0 1 3.625-3.75 3.949 3.949 0 0 1 3.075 1.4l1.9-1.65a6.68 6.68 0 0 0-5.125-2.275 6.03 6.03 0 0 0-6.325 6.3 6 6 0 0 0 6.225 6.275Zm11.8-14.1h2.85l3.1-3.625-3.075.025Zm1.15 14.1a4.581 4.581 0 0 0 3.875-1.825l.05.025v1.6h2.675v-12.2h-2.8v1.475l-.05.025a4.68 4.68 0 0 0-3.775-1.675c-3.35 0-5.875 2.65-5.875 6.325 0 3.775 2.525 6.25 5.9 6.25Zm.45-2.55a3.435 3.435 0 0 1-3.5-3.675 3.522 3.522 0 0 1 3.5-3.825 3.574 3.574 0 0 1 3.475 3.825 3.487 3.487 0 0 1-3.475 3.675Zm15.175 2.55a6.127 6.127 0 0 0 5.25-2.275l-1.925-1.7a3.817 3.817 0 0 1-3.075 1.425 3.5 3.5 0 0 1-3.625-3.75 3.5 3.5 0 0 1 3.625-3.75 3.949 3.949 0 0 1 3.075 1.4l1.9-1.65a6.68 6.68 0 0 0-5.125-2.275 6.03 6.03 0 0 0-6.325 6.3 6 6 0 0 0 6.225 6.275Zm14.5-.2h2.8v-6.2c0-2.4 1.25-3.65 3.275-3.65 1.675 0 2.65.85 2.65 3.275v6.575h2.8v-7.3c0-3.65-1.875-5.075-4.55-5.075a5.483 5.483 0 0 0-4.15 1.7h-.025v-7.725h-2.8Zm20.625.2a6.071 6.071 0 0 0 6.4-6.275 6.064 6.064 0 0 0-6.4-6.3 6.091 6.091 0 0 0-6.4 6.3 6.085 6.085 0 0 0 6.4 6.275Zm0-2.55a3.543 3.543 0 0 1-3.55-3.725 3.543 3.543 0 0 1 3.55-3.775 3.544 3.544 0 0 1 3.55 3.775 3.545 3.545 0 0 1-3.55 3.725Zm14.475 2.55a4.581 4.581 0 0 0 3.875-1.825l.05.025v1.6h2.675v-12.2h-2.8v1.475l-.05.025a4.68 4.68 0 0 0-3.775-1.675c-3.35 0-5.875 2.65-5.875 6.325 0 3.775 2.525 6.25 5.9 6.25Zm.45-2.55a3.435 3.435 0 0 1-3.5-3.675 3.522 3.522 0 0 1 3.5-3.825 3.574 3.574 0 0 1 3.475 3.825 3.487 3.487 0 0 1-3.475 3.675Zm-.075 4.3a1.894 1.894 0 0 0-1.9 1.875 1.889 1.889 0 0 0 1.9 1.85 1.863 1.863 0 1 0 0-3.725Zm13.3-1.75a5.672 5.672 0 0 0 3.1-.725l-.725-2.425a4.092 4.092 0 0 1-1.8.525c-.8 0-1.175-.45-1.175-1.7v-5.7h3.575v-2.375h-3.575v-4.35l-2.8.3v4.05h-1.5v2.375h1.5v5.975c0 2.725 1.3 4.05 3.4 4.05Zm25.6-16.15h-1.55v-2.45h-2.775v2.45h-4.65v1.9h4.65v3.35h-.025a4.937 4.937 0 0 0-3.9-1.675c-3.35 0-5.9 2.65-5.9 6.325 0 3.775 2.55 6.25 5.925 6.25a4.758 4.758 0 0 0 3.975-1.85h.025v1.65h2.675v-14.05h1.55Zm-7.8 13.6a3.449 3.449 0 0 1-3.5-3.675 3.54 3.54 0 0 1 3.525-3.825 3.572 3.572 0 0 1 3.55 3.825 3.508 3.508 0 0 1-3.575 3.675Zm11.15-11.5h2.775l1.375-1.925h.05l1.35 1.925h2.725l-2.625-3.625h-2.925Zm4.15 14.05a6.071 6.071 0 0 0 6.4-6.275 6.064 6.064 0 0 0-6.4-6.3 6.091 6.091 0 0 0-6.4 6.3 6.085 6.085 0 0 0 6.4 6.275Zm0-2.55a3.543 3.543 0 0 1-3.55-3.725 3.543 3.543 0 0 1 3.55-3.775 3.544 3.544 0 0 1 3.55 3.775 3.545 3.545 0 0 1-3.55 3.725Zm0 4.3a1.894 1.894 0 0 0-1.9 1.875 1.889 1.889 0 0 0 1.9 1.85 1.863 1.863 0 1 0 0-3.725Zm9.325-1.95h2.8v-6.125c0-2.4 1.25-3.725 3.15-3.725 1.675 0 2.65.825 2.65 3.4v6.45h2.8v-7.175c0-3.675-1.8-5.2-4.475-5.2a5.231 5.231 0 0 0-4.075 1.85h-.05v-1.675h-2.8Zm20.275 5.125c4.525 0 6.225-2.675 6.225-6.375v-10.95h-2.8v1.3h-.05a5.5 5.5 0 0 0-3.8-1.475c-3.375 0-5.8 2.575-5.8 6.15a5.743 5.743 0 0 0 5.95 6.025 5.128 5.128 0 0 0 3.7-1.475h.05v1.275c0 1.625-1.225 3-3.625 3a8.007 8.007 0 0 1-4.15-1.2l-.675 2.45a9.812 9.812 0 0 0 4.975 1.275Zm.1-7.9a3.333 3.333 0 0 1-3.475-3.525 3.333 3.333 0 0 1 3.475-3.525 3.342 3.342 0 0 1 3.45 3.475 3.382 3.382 0 0 1-3.45 3.575ZM856.509 328.21a5.672 5.672 0 0 0 3.1-.725l-.725-2.425a4.092 4.092 0 0 1-1.8.525c-.8 0-1.175-.45-1.175-1.7v-5.7h3.575v-2.375h-3.575v-4.35l-2.8.3v4.05h-1.5v2.375h1.5v5.975c0 2.725 1.3 4.05 3.4 4.05Zm17.725-14.325v1.6c0 1.475.05 2.675-1.325 3.075v-2.75h-2.8v5.85c0 2.625-1.5 4-3.125 4-1.675 0-2.425-.75-2.425-3.175v-6.675h-2.8v7.425c0 3.625 1.875 4.975 4.575 4.975a4.769 4.769 0 0 0 3.725-1.75l.05.025v1.525h2.8v-7.575c2.75-.15 4.175-2 4.175-4.775v-1.775Zm16.4 0v1.6c0 1.3.025 2.425-.95 2.925a6.175 6.175 0 0 0-5.425-2.775 6.091 6.091 0 0 0-6.4 6.3 6.085 6.085 0 0 0 6.4 6.275 6.071 6.071 0 0 0 6.4-6.275 7.151 7.151 0 0 0-.2-1.675c2-.55 3.025-2.25 3.025-4.6v-1.775Zm-6.375 11.775a3.543 3.543 0 0 1-3.55-3.725 3.543 3.543 0 0 1 3.55-3.775 3.544 3.544 0 0 1 3.55 3.775 3.545 3.545 0 0 1-3.55 3.725Zm11.35 2.35h2.8v-6.125c0-2.4 1.25-3.725 3.15-3.725 1.675 0 2.65.825 2.65 3.4v6.45h2.8v-7.175c0-3.675-1.8-5.2-4.475-5.2a5.231 5.231 0 0 0-4.075 1.85h-.05v-1.675h-2.8Zm20.275 5.125c4.525 0 6.225-2.675 6.225-6.375v-10.95h-2.8v1.3h-.05a5.5 5.5 0 0 0-3.8-1.475c-3.375 0-5.8 2.575-5.8 6.15a5.743 5.743 0 0 0 5.95 6.025 5.128 5.128 0 0 0 3.7-1.475h.05v1.275c0 1.625-1.225 3-3.625 3a8.007 8.007 0 0 1-4.15-1.2l-.675 2.45a9.812 9.812 0 0 0 4.975 1.275Zm.1-7.9a3.333 3.333 0 0 1-3.475-3.525 3.333 3.333 0 0 1 3.475-3.525 3.342 3.342 0 0 1 3.45 3.475 3.382 3.382 0 0 1-3.45 3.575Zm19.95 2.975a5.672 5.672 0 0 0 3.1-.725l-.725-2.425a4.092 4.092 0 0 1-1.8.525c-.8 0-1.175-.45-1.175-1.7v-5.7h3.575v-2.375h-3.575v-4.35l-2.8.3v4.05h-1.5v2.375h1.5v5.975c0 2.725 1.3 4.05 3.4 4.05Zm8.975-14.1h2.85l3.1-3.625-3.075.025Zm1.15 14.1a4.581 4.581 0 0 0 3.875-1.825l.05.025v1.6h2.675v-12.2h-2.8v1.475l-.05.025a4.68 4.68 0 0 0-3.775-1.675c-3.35 0-5.875 2.65-5.875 6.325 0 3.775 2.525 6.25 5.9 6.25Zm.45-2.55a3.435 3.435 0 0 1-3.5-3.675 3.522 3.522 0 0 1 3.5-3.825 3.574 3.574 0 0 1 3.475 3.825 3.487 3.487 0 0 1-3.475 3.675Zm15.175 2.55a6.127 6.127 0 0 0 5.25-2.275l-1.925-1.7a3.817 3.817 0 0 1-3.075 1.425 3.5 3.5 0 0 1-3.625-3.75 3.5 3.5 0 0 1 3.625-3.75 3.949 3.949 0 0 1 3.075 1.4l1.9-1.65a6.68 6.68 0 0 0-5.125-2.275 6.03 6.03 0 0 0-6.325 6.3 6 6 0 0 0 6.225 6.275Zm9.1 0a1.867 1.867 0 0 0 1.875-1.85 1.889 1.889 0 0 0-1.875-1.875 1.894 1.894 0 0 0-1.9 1.875 1.873 1.873 0 0 0 1.9 1.85ZM1075.584 183.135h3.025v-15.05h5.1v-2.7h-13.15v2.7h5.025Zm10.825 0h2.8v-6.2c0-2.4 1.25-3.65 3.275-3.65 1.675 0 2.65.85 2.65 3.275v6.575h2.8v-7.3c0-3.65-1.875-5.075-4.55-5.075a5.483 5.483 0 0 0-4.15 1.7h-.025v-7.725h-2.8Zm19.275.2a4.769 4.769 0 0 0 3.725-1.75l.05.025v1.525h2.8v-12.2h-2.8v5.85c0 2.625-1.5 4-3.125 4-1.675 0-2.425-.75-2.425-3.175v-6.675h-2.8v7.425c0 3.625 1.875 4.975 4.575 4.975Zm11.575 4.75h2.9l6.7-17.15h-2.875l-3.125 8.175h-.05l-3.35-8.175h-3l5 11.525Zm25.05-24.7h-3.075l-2.075 3.625h2.075Zm-8.525 3.975h.05l1.35 1.925h2.725l-2.625-3.625h-2.925l-2.725 3.625h2.775Zm-.075 3.4a5.92 5.92 0 0 0-6.125 6.275 5.99 5.99 0 0 0 6.325 6.3 6.018 6.018 0 0 0 5.175-2.3l-1.95-1.675a3.815 3.815 0 0 1-3.075 1.425 3.381 3.381 0 0 1-3.575-2.825h8.9a8.879 8.879 0 0 0 .075-1.075c0-3.55-2.325-6.125-5.75-6.125Zm-.025 2.525a2.919 2.919 0 0 1 2.95 2.475h-6.1a3.086 3.086 0 0 1 3.15-2.475Zm12.3 10.05a5.672 5.672 0 0 0 3.1-.725l-.725-2.425a4.092 4.092 0 0 1-1.8.525c-.8 0-1.175-.45-1.175-1.7v-5.7h3.575v-2.375h-3.575v-4.35l-2.8.3v4.05h-1.5v2.375h1.5v5.975c0 2.725 1.3 4.05 3.4 4.05Zm15.825 0a5.672 5.672 0 0 0 3.1-.725l-.725-2.425a4.092 4.092 0 0 1-1.8.525c-.8 0-1.175-.45-1.175-1.7v-5.7h3.575v-2.375h-3.575v-4.35l-2.8.3v4.05h-1.5v2.375h1.5v5.975c0 2.725 1.3 4.05 3.4 4.05Zm5.5-.2h2.8v-5.775a3.229 3.229 0 0 1 3.325-3.525c.2 0 .525.025.85.05v-3.125h-.35a4.688 4.688 0 0 0-3.775 2h-.05v-1.825h-2.8Zm9.55-13.9h2.85l-2.025-3.6-3.075-.025Zm.025 13.9h2.8v-12.2h-2.8Zm6.65 0h2.8v-6.125c0-2.4 1.25-3.725 3.15-3.725 1.675 0 2.65.825 2.65 3.4v6.45h2.8v-7.175c0-3.675-1.8-5.2-4.475-5.2a5.231 5.231 0 0 0-4.075 1.85h-.05v-1.675h-2.8Zm14.825 0h2.8v-6.2c0-2.4 1.25-3.65 3.275-3.65 1.675 0 2.65.85 2.65 3.275v6.575h2.8v-7.3c0-3.65-1.875-5.075-4.55-5.075a5.483 5.483 0 0 0-4.15 1.7h-.025v-7.725h-2.8Zm13.8 3.3h2.05l1.75-6.325h-3Zm13.8-3.3h2.8v-3.225l1.975-2.15 3.275 5.375h3.15l-4.475-7.3 4.4-4.9h-3.325l-4.95 5.65-.05-.025v-11.825h-2.8Zm15.35-14a1.894 1.894 0 0 0 1.9-1.875 1.889 1.889 0 0 0-1.9-1.85 1.867 1.867 0 0 0-1.875 1.85 1.872 1.872 0 0 0 1.875 1.875Zm-1.4 14h2.8v-12.2h-2.8Zm1.4 1.95a1.894 1.894 0 0 0-1.9 1.875 1.889 1.889 0 0 0 1.9 1.85 1.863 1.863 0 1 0 0-3.725Zm10.725-1.75a6.127 6.127 0 0 0 5.25-2.275l-1.925-1.7a3.817 3.817 0 0 1-3.075 1.425 3.5 3.5 0 0 1-3.625-3.75 3.5 3.5 0 0 1 3.625-3.75 3.949 3.949 0 0 1 3.075 1.4l1.9-1.65a6.68 6.68 0 0 0-5.125-2.275 6.03 6.03 0 0 0-6.325 6.3 6 6 0 0 0 6.225 6.275Zm7.8-.2h2.8v-6.2c0-2.4 1.25-3.65 3.275-3.65 1.675 0 2.65.85 2.65 3.275v6.575h2.8v-7.3c0-3.65-1.875-5.075-4.55-5.075a5.483 5.483 0 0 0-4.15 1.7h-.025v-7.725h-2.8ZM1079.084 213.335a5.672 5.672 0 0 0 3.1-.725l-.725-2.425a4.092 4.092 0 0 1-1.8.525c-.8 0-1.175-.45-1.175-1.7v-5.7h3.575v-2.375h-3.575v-4.35l-2.8.3v4.05h-1.5v2.375h1.5v5.975c0 2.725 1.3 4.05 3.4 4.05Zm17.725-14.325v1.6c0 1.475.05 2.675-1.325 3.075v-2.75h-2.8v5.85c0 2.625-1.5 4-3.125 4-1.675 0-2.425-.75-2.425-3.175v-6.675h-2.8v7.425c0 3.625 1.875 4.975 4.575 4.975a4.769 4.769 0 0 0 3.725-1.75l.05.025v1.525h2.8v-7.575c2.75-.15 4.175-2 4.175-4.775v-1.775Zm16.4 0v1.6c0 1.3.025 2.425-.95 2.925a6.175 6.175 0 0 0-5.425-2.775 6.091 6.091 0 0 0-6.4 6.3 6.085 6.085 0 0 0 6.4 6.275 6.071 6.071 0 0 0 6.4-6.275 7.151 7.151 0 0 0-.2-1.675c2-.55 3.025-2.25 3.025-4.6v-1.775Zm-6.375 11.775a3.543 3.543 0 0 1-3.55-3.725 3.543 3.543 0 0 1 3.55-3.775 3.544 3.544 0 0 1 3.55 3.775 3.545 3.545 0 0 1-3.55 3.725Zm11.35 2.35h2.8v-6.125c0-2.4 1.25-3.725 3.15-3.725 1.675 0 2.65.825 2.65 3.4v6.45h2.8v-7.175c0-3.675-1.8-5.2-4.475-5.2a5.231 5.231 0 0 0-4.075 1.85h-.05v-1.675h-2.8Zm20.275 5.125c4.525 0 6.225-2.675 6.225-6.375v-10.95h-2.8v1.3h-.05a5.5 5.5 0 0 0-3.8-1.475c-3.375 0-5.8 2.575-5.8 6.15a5.743 5.743 0 0 0 5.95 6.025 5.128 5.128 0 0 0 3.7-1.475h.05v1.275c0 1.625-1.225 3-3.625 3a8.007 8.007 0 0 1-4.15-1.2l-.675 2.45a9.812 9.812 0 0 0 4.975 1.275Zm.1-7.9a3.333 3.333 0 0 1-3.475-3.525 3.333 3.333 0 0 1 3.475-3.525 3.342 3.342 0 0 1 3.45 3.475 3.382 3.382 0 0 1-3.45 3.575Zm19.95 2.975a5.672 5.672 0 0 0 3.1-.725l-.725-2.425a4.092 4.092 0 0 1-1.8.525c-.8 0-1.175-.45-1.175-1.7v-5.7h3.575v-2.375h-3.575v-4.35l-2.8.3v4.05h-1.5v2.375h1.5v5.975c0 2.725 1.3 4.05 3.4 4.05Zm8.975-14.1h2.85l3.1-3.625-3.075.025Zm1.15 14.1a4.581 4.581 0 0 0 3.875-1.825l.05.025v1.6h2.675v-12.2h-2.8v1.475l-.05.025a4.68 4.68 0 0 0-3.775-1.675c-3.35 0-5.875 2.65-5.875 6.325 0 3.775 2.525 6.25 5.9 6.25Zm.45-2.55a3.435 3.435 0 0 1-3.5-3.675 3.522 3.522 0 0 1 3.5-3.825 3.574 3.574 0 0 1 3.475 3.825 3.487 3.487 0 0 1-3.475 3.675Zm15.175 2.55a6.127 6.127 0 0 0 5.25-2.275l-1.925-1.7a3.817 3.817 0 0 1-3.075 1.425 3.5 3.5 0 0 1-3.625-3.75 3.5 3.5 0 0 1 3.625-3.75 3.949 3.949 0 0 1 3.075 1.4l1.9-1.65a6.68 6.68 0 0 0-5.125-2.275 6.03 6.03 0 0 0-6.325 6.3 6 6 0 0 0 6.225 6.275Zm9.9 0a1.867 1.867 0 0 0 1.875-1.85 1.889 1.889 0 0 0-1.875-1.875 1.894 1.894 0 0 0-1.9 1.875 1.873 1.873 0 0 0 1.9 1.85Zm8.325 0a1.867 1.867 0 0 0 1.875-1.85 1.889 1.889 0 0 0-1.875-1.875 1.894 1.894 0 0 0-1.9 1.875 1.873 1.873 0 0 0 1.9 1.85Zm8.35 0a1.867 1.867 0 0 0 1.875-1.85 1.889 1.889 0 0 0-1.875-1.875 1.894 1.894 0 0 0-1.9 1.875 1.873 1.873 0 0 0 1.9 1.85Zm8.65 0a5.672 5.672 0 0 0 3.1-.725l-.725-2.425a4.092 4.092 0 0 1-1.8.525c-.8 0-1.175-.45-1.175-1.7v-5.7h3.575v-2.375h-3.575v-4.35l-2.8.3v4.05h-1.5v2.375h1.5v5.975c0 2.725 1.3 4.05 3.4 4.05Zm10.775-13.9a3.63 3.63 0 0 0 3.9-3.725h-2.2a1.631 1.631 0 0 1-1.7 1.575 1.631 1.631 0 0 1-1.7-1.575h-2.2a3.63 3.63 0 0 0 3.9 3.725Zm-.65 13.9a4.581 4.581 0 0 0 3.875-1.825l.05.025v1.6h2.675v-12.2h-2.8v1.475l-.05.025a4.68 4.68 0 0 0-3.775-1.675c-3.35 0-5.875 2.65-5.875 6.325 0 3.775 2.525 6.25 5.9 6.25Zm.45-2.55a3.435 3.435 0 0 1-3.5-3.675 3.522 3.522 0 0 1 3.5-3.825 3.574 3.574 0 0 1 3.475 3.825 3.487 3.487 0 0 1-3.475 3.675Zm9.675 2.35h2.8v-6.125c0-2.4 1.25-3.725 3.15-3.725 1.675 0 2.65.825 2.65 3.4v6.45h2.8v-7.175c0-3.675-1.8-5.2-4.475-5.2a5.231 5.231 0 0 0-4.075 1.85h-.05v-1.675h-2.8Zm20.275 5.125c4.525 0 6.225-2.675 6.225-6.375v-10.95h-2.8v1.3h-.05a5.5 5.5 0 0 0-3.8-1.475c-3.375 0-5.8 2.575-5.8 6.15a5.743 5.743 0 0 0 5.95 6.025 5.128 5.128 0 0 0 3.7-1.475h.05v1.275c0 1.625-1.225 3-3.625 3a8.007 8.007 0 0 1-4.15-1.2l-.675 2.45a9.812 9.812 0 0 0 4.975 1.275Zm.1-7.9a3.333 3.333 0 0 1-3.475-3.525 3.333 3.333 0 0 1 3.475-3.525 3.342 3.342 0 0 1 3.45 3.475 3.382 3.382 0 0 1-3.45 3.575ZM1078.684 243.335a6.127 6.127 0 0 0 5.25-2.275l-1.925-1.7a3.817 3.817 0 0 1-3.075 1.425 3.5 3.5 0 0 1-3.625-3.75 3.5 3.5 0 0 1 3.625-3.75 3.949 3.949 0 0 1 3.075 1.4l1.9-1.65a6.68 6.68 0 0 0-5.125-2.275 6.03 6.03 0 0 0-6.325 6.3 6 6 0 0 0 6.225 6.275Zm20.025-14.325v1.6c0 1.475.05 2.675-1.325 3.075v-2.75h-2.8v5.85c0 2.625-1.5 4-3.125 4-1.675 0-2.425-.75-2.425-3.175v-6.675h-2.8v7.425c0 3.625 1.875 4.975 4.575 4.975a4.769 4.769 0 0 0 3.725-1.75l.05.025v1.525h2.8v-7.575c2.75-.15 4.175-2 4.175-4.775v-1.775Zm11.825.275-2.75-3.575-3.125-.025 3.1 3.6Zm4.575-.275v1.6c0 1.3.025 2.425-.95 2.925a6.175 6.175 0 0 0-5.425-2.775 6.091 6.091 0 0 0-6.4 6.3 6.085 6.085 0 0 0 6.4 6.275 6.071 6.071 0 0 0 6.4-6.275 7.151 7.151 0 0 0-.2-1.675c2-.55 3.025-2.25 3.025-4.6v-1.775Zm-6.375 11.775a3.543 3.543 0 0 1-3.55-3.725 3.543 3.543 0 0 1 3.55-3.775 3.544 3.544 0 0 1 3.55 3.775 3.545 3.545 0 0 1-3.55 3.725Zm11.35 2.35h2.8v-6.125c0-2.4 1.25-3.725 3.15-3.725 1.675 0 2.65.825 2.65 3.4v6.45h2.8v-7.175c0-3.675-1.8-5.2-4.475-5.2a5.231 5.231 0 0 0-4.075 1.85h-.05v-1.675h-2.8Zm20.275 5.125c4.525 0 6.225-2.675 6.225-6.375v-10.95h-2.8v1.3h-.05a5.5 5.5 0 0 0-3.8-1.475c-3.375 0-5.8 2.575-5.8 6.15a5.743 5.743 0 0 0 5.95 6.025 5.128 5.128 0 0 0 3.7-1.475h.05v1.275c0 1.625-1.225 3-3.625 3a8.007 8.007 0 0 1-4.15-1.2l-.675 2.45a9.812 9.812 0 0 0 4.975 1.275Zm.1-7.9a3.333 3.333 0 0 1-3.475-3.525 3.333 3.333 0 0 1 3.475-3.525 3.342 3.342 0 0 1 3.45 3.475 3.382 3.382 0 0 1-3.45 3.575Zm19.95 2.975a5.672 5.672 0 0 0 3.1-.725l-.725-2.425a4.092 4.092 0 0 1-1.8.525c-.8 0-1.175-.45-1.175-1.7v-5.7h3.575v-2.375h-3.575v-4.35l-2.8.3v4.05h-1.5v2.375h1.5v5.975c0 2.725 1.3 4.05 3.4 4.05Zm5.5-.2h2.8v-6.2c0-2.4 1.25-3.65 3.275-3.65 1.675 0 2.65.85 2.65 3.275v6.575h2.8v-7.3c0-3.65-1.875-5.075-4.55-5.075a5.483 5.483 0 0 0-4.15 1.7h-.025v-7.725h-2.8Zm27.175-14.125v1.6c0 1.475.05 2.675-1.325 3.075v-2.75h-2.8v5.85c0 2.625-1.5 4-3.125 4-1.675 0-2.425-.75-2.425-3.175v-6.675h-2.8v7.425c0 3.625 1.875 4.975 4.575 4.975a4.769 4.769 0 0 0 3.725-1.75l.05.025v1.525h2.8v-7.575c2.75-.15 4.175-2 4.175-4.775v-1.775Zm-6.75 16.075a1.894 1.894 0 0 0-1.9 1.875 1.889 1.889 0 0 0 1.9 1.85 1.863 1.863 0 1 0 0-3.725Zm16.6-1.75a6.127 6.127 0 0 0 5.25-2.275l-1.925-1.7a3.817 3.817 0 0 1-3.075 1.425 3.5 3.5 0 0 1-3.625-3.75 3.5 3.5 0 0 1 3.625-3.75 3.949 3.949 0 0 1 3.075 1.4l1.9-1.65a6.68 6.68 0 0 0-5.125-2.275 6.03 6.03 0 0 0-6.325 6.3 6 6 0 0 0 6.225 6.275Zm14.5-.2h2.8v-6.2c0-2.4 1.25-3.65 3.275-3.65 1.675 0 2.65.85 2.65 3.275v6.575h2.8v-7.3c0-3.65-1.875-5.075-4.55-5.075a5.483 5.483 0 0 0-4.15 1.7h-.025v-7.725h-2.8Zm19.95-13.85h2.775l-2.75-3.575-3.125-.025Zm.15 14.05a4.581 4.581 0 0 0 3.875-1.825l.05.025v1.6h2.675v-12.2h-2.8v1.475l-.05.025a4.68 4.68 0 0 0-3.775-1.675c-3.35 0-5.875 2.65-5.875 6.325 0 3.775 2.525 6.25 5.9 6.25Zm.45-2.55a3.435 3.435 0 0 1-3.5-3.675 3.522 3.522 0 0 1 3.5-3.825 3.574 3.574 0 0 1 3.475 3.825 3.487 3.487 0 0 1-3.475 3.675Zm9.675 2.35h2.8v-6.125c0-2.4 1.25-3.725 3.15-3.725 1.675 0 2.65.825 2.65 3.4v6.45h2.8v-7.175c0-3.675-1.8-5.2-4.475-5.2a5.231 5.231 0 0 0-4.075 1.85h-.05v-1.675h-2.8Zm14.825 0h2.8v-6.2c0-2.4 1.25-3.65 3.275-3.65 1.675 0 2.65.85 2.65 3.275v6.575h2.8v-7.3c0-3.65-1.875-5.075-4.55-5.075a5.483 5.483 0 0 0-4.15 1.7h-.025v-7.725h-2.8ZM1091.459 273.135h2.8v-6.125c0-2.4 1.25-3.725 3.15-3.725 1.675 0 2.65.825 2.65 3.4v6.45h2.8v-7.175c0-3.675-1.8-5.2-4.475-5.2a5.231 5.231 0 0 0-4.075 1.85h-.05v-1.675h-2.8Zm19-13.9h2.85l3.1-3.625-3.075.025Zm1.5 14.1a6.071 6.071 0 0 0 6.4-6.275 6.064 6.064 0 0 0-6.4-6.3 6.091 6.091 0 0 0-6.4 6.3 6.085 6.085 0 0 0 6.4 6.275Zm0-2.55a3.543 3.543 0 0 1-3.55-3.725 3.543 3.543 0 0 1 3.55-3.775 3.544 3.544 0 0 1 3.55 3.775 3.545 3.545 0 0 1-3.55 3.725Zm10.9-11.65a1.894 1.894 0 0 0 1.9-1.875 1.889 1.889 0 0 0-1.9-1.85 1.867 1.867 0 0 0-1.875 1.85 1.872 1.872 0 0 0 1.875 1.875Zm-1.4 14h2.8v-12.2h-2.8Zm16.95.2a5.672 5.672 0 0 0 3.1-.725l-.725-2.425a4.092 4.092 0 0 1-1.8.525c-.8 0-1.175-.45-1.175-1.7v-5.7h3.575v-2.375h-3.575v-4.35l-2.8.3v4.05h-1.5v2.375h1.5v5.975c0 2.725 1.3 4.05 3.4 4.05Zm7.075-14.2a1.894 1.894 0 0 0 1.9-1.875 1.889 1.889 0 0 0-1.9-1.85 1.867 1.867 0 0 0-1.875 1.85 1.872 1.872 0 0 0 1.875 1.875Zm-1.4 14h2.8v-12.2h-2.8Zm20.625-19.75h-3.075l-2.075 3.625h2.075Zm-8.525 3.975h.05l1.35 1.925h2.725l-2.625-3.625h-2.925l-2.725 3.625h2.775Zm-.075 3.4a5.92 5.92 0 0 0-6.125 6.275 5.99 5.99 0 0 0 6.325 6.3 6.018 6.018 0 0 0 5.175-2.3l-1.95-1.675a3.815 3.815 0 0 1-3.075 1.425 3.381 3.381 0 0 1-3.575-2.825h8.9a8.879 8.879 0 0 0 .075-1.075c0-3.55-2.325-6.125-5.75-6.125Zm-.025 2.525a2.919 2.919 0 0 1 2.95 2.475h-6.1a3.086 3.086 0 0 1 3.15-2.475Zm8.675 9.85h2.8v-6.125c0-2.4 1.25-3.725 3.15-3.725 1.675 0 2.65.825 2.65 3.4v6.45h2.8v-7.175c0-3.675-1.8-5.2-4.475-5.2a5.231 5.231 0 0 0-4.075 1.85h-.05v-1.675h-2.8Zm20.275 5.125c4.525 0 6.225-2.675 6.225-6.375v-10.95h-2.8v1.3h-.05a5.5 5.5 0 0 0-3.8-1.475c-3.375 0-5.8 2.575-5.8 6.15a5.743 5.743 0 0 0 5.95 6.025 5.128 5.128 0 0 0 3.7-1.475h.05v1.275c0 1.625-1.225 3-3.625 3a8.007 8.007 0 0 1-4.15-1.2l-.675 2.45a9.812 9.812 0 0 0 4.975 1.275Zm.1-7.9a3.333 3.333 0 0 1-3.475-3.525 3.333 3.333 0 0 1 3.475-3.525 3.342 3.342 0 0 1 3.45 3.475 3.382 3.382 0 0 1-3.45 3.575Zm15.075 2.775h3.15l1.325-3.825h7.25l1.35 3.825h3.15l-6.65-17.75h-2.95Zm5.4-6.425 2.675-7.7h.05l2.7 7.7Zm13.15 6.425h2.8v-6.125c0-2.4 1.25-3.725 3.15-3.725 1.675 0 2.65.825 2.65 3.4v6.45h2.8v-7.175c0-3.675-1.8-5.2-4.475-5.2a5.231 5.231 0 0 0-4.075 1.85h-.05v-1.675h-2.8Zm14.825 0h2.8v-6.2c0-2.4 1.25-3.65 3.275-3.65 1.675 0 2.65.85 2.65 3.275v6.575h2.8v-7.3c0-3.65-1.875-5.075-4.55-5.075a5.483 5.483 0 0 0-4.15 1.7h-.025v-7.725h-2.8ZM1078.509 303.135h2.8v-6.125c0-2.4 1.25-3.725 3.15-3.725 1.675 0 2.65.825 2.65 3.4v6.45h2.8v-7.175c0-3.675-1.8-5.2-4.475-5.2a5.231 5.231 0 0 0-4.075 1.85h-.05v-1.675h-2.8Zm20.275 5.125c4.525 0 6.225-2.675 6.225-6.375v-10.95h-2.8v1.3h-.05a5.5 5.5 0 0 0-3.8-1.475c-3.375 0-5.8 2.575-5.8 6.15a5.743 5.743 0 0 0 5.95 6.025 5.128 5.128 0 0 0 3.7-1.475h.05v1.275c0 1.625-1.225 3-3.625 3a8.007 8.007 0 0 1-4.15-1.2l-.675 2.45a9.812 9.812 0 0 0 4.975 1.275Zm.1-7.9a3.333 3.333 0 0 1-3.475-3.525 3.333 3.333 0 0 1 3.475-3.525 3.342 3.342 0 0 1 3.45 3.475 3.382 3.382 0 0 1-3.45 3.575Zm14.775 2.975a4.581 4.581 0 0 0 3.875-1.825l.05.025v1.6h2.675v-12.2h-2.8v1.475l-.05.025a4.68 4.68 0 0 0-3.775-1.675c-3.35 0-5.875 2.65-5.875 6.325 0 3.775 2.525 6.25 5.9 6.25Zm.45-2.55a3.435 3.435 0 0 1-3.5-3.675 3.522 3.522 0 0 1 3.5-3.825 3.574 3.574 0 0 1 3.475 3.825 3.487 3.487 0 0 1-3.475 3.675Zm10.925 7.3h2.9l6.7-17.15h-2.875l-3.125 8.175h-.05l-3.35-8.175h-3l5 11.525Zm22.25-4.75a5.672 5.672 0 0 0 3.1-.725l-.725-2.425a4.092 4.092 0 0 1-1.8.525c-.8 0-1.175-.45-1.175-1.7v-5.7h3.575v-2.375h-3.575v-4.35l-2.8.3v4.05h-1.5v2.375h1.5v5.975c0 2.725 1.3 4.05 3.4 4.05Zm5.5-.2h2.8v-5.775a3.229 3.229 0 0 1 3.325-3.525c.2 0 .525.025.85.05v-3.125h-.35a4.688 4.688 0 0 0-3.775 2h-.05v-1.825h-2.8Zm14.375.2a6.071 6.071 0 0 0 6.4-6.275 6.064 6.064 0 0 0-6.4-6.3 6.091 6.091 0 0 0-6.4 6.3 6.085 6.085 0 0 0 6.4 6.275Zm0-2.55a3.543 3.543 0 0 1-3.55-3.725 3.543 3.543 0 0 1 3.55-3.775 3.544 3.544 0 0 1 3.55 3.775 3.545 3.545 0 0 1-3.55 3.725Zm9.325 2.35h2.8v-6.125c0-2.4 1.25-3.725 3.15-3.725 1.675 0 2.65.825 2.65 3.4v6.45h2.8v-7.175c0-3.675-1.8-5.2-4.475-5.2a5.231 5.231 0 0 0-4.075 1.85h-.05v-1.675h-2.8Zm20.275 5.125c4.525 0 6.225-2.675 6.225-6.375v-10.95h-2.8v1.3h-.05a5.5 5.5 0 0 0-3.8-1.475c-3.375 0-5.8 2.575-5.8 6.15a5.743 5.743 0 0 0 5.95 6.025 5.128 5.128 0 0 0 3.7-1.475h.05v1.275c0 1.625-1.225 3-3.625 3a8.007 8.007 0 0 1-4.15-1.2l-.675 2.45a9.812 9.812 0 0 0 4.975 1.275Zm.1-7.9a3.333 3.333 0 0 1-3.475-3.525 3.333 3.333 0 0 1 3.475-3.525 3.342 3.342 0 0 1 3.45 3.475 3.382 3.382 0 0 1-3.45 3.575Zm23 2.975c3.4 0 5.925-2.475 5.925-6.25 0-3.675-2.525-6.325-5.9-6.325a4.964 4.964 0 0 0-3.875 1.625h-.025v-7.65h-2.8v18.4h2.675v-1.625h.05a4.692 4.692 0 0 0 3.95 1.825Zm-.425-2.55a3.508 3.508 0 0 1-3.575-3.675 3.572 3.572 0 0 1 3.55-3.825 3.54 3.54 0 0 1 3.525 3.825 3.449 3.449 0 0 1-3.5 3.675Zm13.6 2.55a4.769 4.769 0 0 0 3.725-1.75l.05.025v1.525h2.8v-12.2h-2.8v5.85c0 2.625-1.5 4-3.125 4-1.675 0-2.425-.75-2.425-3.175v-6.675h-2.8v7.425c0 3.625 1.875 4.975 4.575 4.975Zm19.525-16.575h1.95a3.041 3.041 0 0 0 1.9-2.425c0-1.35-.95-1.95-2.225-1.95a4.728 4.728 0 0 0-3.35 1.25l.6 1.375a3.526 3.526 0 0 1 2.1-.8c.425 0 .675.2.675.5.025.525-.55 1.25-1.65 2.05Zm-7.875 2.525h2.775l1.375-1.925h.05l1.35 1.925h2.725l-2.625-3.625h-2.925Zm4.15 14.05a6.071 6.071 0 0 0 6.4-6.275 6.064 6.064 0 0 0-6.4-6.3 6.091 6.091 0 0 0-6.4 6.3 6.085 6.085 0 0 0 6.4 6.275Zm0-2.55a3.543 3.543 0 0 1-3.55-3.725 3.543 3.543 0 0 1 3.55-3.775 3.544 3.544 0 0 1 3.55 3.775 3.545 3.545 0 0 1-3.55 3.725Zm10.9-11.65a1.894 1.894 0 0 0 1.9-1.875 1.889 1.889 0 0 0-1.9-1.85 1.867 1.867 0 0 0-1.875 1.85 1.872 1.872 0 0 0 1.875 1.875Zm-1.4 14h2.8v-12.2h-2.8ZM1142.809 333.135h2.8v-6.2c0-2.4 1.25-3.65 3.275-3.65 1.675 0 2.65.85 2.65 3.275v6.575h2.8v-7.3c0-3.65-1.875-5.075-4.55-5.075a5.483 5.483 0 0 0-4.15 1.7h-.025v-7.725h-2.8Zm20.625.2a6.071 6.071 0 0 0 6.4-6.275 6.064 6.064 0 0 0-6.4-6.3 6.091 6.091 0 0 0-6.4 6.3 6.085 6.085 0 0 0 6.4 6.275Zm0-2.55a3.543 3.543 0 0 1-3.55-3.725 3.543 3.543 0 0 1 3.55-3.775 3.544 3.544 0 0 1 3.55 3.775 3.545 3.545 0 0 1-3.55 3.725Zm0 4.3a1.894 1.894 0 0 0-1.9 1.875 1.889 1.889 0 0 0 1.9 1.85 1.863 1.863 0 1 0 0-3.725Zm14.825-1.75a6.127 6.127 0 0 0 5.25-2.275l-1.925-1.7a3.817 3.817 0 0 1-3.075 1.425 3.5 3.5 0 0 1-3.625-3.75 3.5 3.5 0 0 1 3.625-3.75 3.949 3.949 0 0 1 3.075 1.4l1.9-1.65a6.68 6.68 0 0 0-5.125-2.275 6.03 6.03 0 0 0-6.325 6.3 6 6 0 0 0 6.225 6.275ZM1335.084 228.21h3.025v-15.05h5.1v-2.7h-13.15v2.7h5.025Zm16.1-16.375h1.95a3.041 3.041 0 0 0 1.9-2.425c0-1.35-.95-1.95-2.225-1.95a4.728 4.728 0 0 0-3.35 1.25l.6 1.375a3.526 3.526 0 0 1 2.1-.8c.425 0 .675.2.675.5.025.525-.55 1.25-1.65 2.05Zm-7.875 2.525h2.775l1.375-1.925h.05l1.35 1.925h2.725l-2.625-3.625h-2.925Zm4.15 14.05a6.071 6.071 0 0 0 6.4-6.275 6.064 6.064 0 0 0-6.4-6.3 6.091 6.091 0 0 0-6.4 6.3 6.085 6.085 0 0 0 6.4 6.275Zm0-2.55a3.543 3.543 0 0 1-3.55-3.725 3.543 3.543 0 0 1 3.55-3.775 3.544 3.544 0 0 1 3.55 3.775 3.545 3.545 0 0 1-3.55 3.725Zm9.325 2.35h2.8v-6.125c0-2.4 1.25-3.725 3.15-3.725 1.675 0 2.65.825 2.65 3.4v6.45h2.8v-7.175c0-3.675-1.8-5.2-4.475-5.2a5.231 5.231 0 0 0-4.075 1.85h-.05v-1.675h-2.8Zm20.275 5.125c4.525 0 6.225-2.675 6.225-6.375v-10.95h-2.8v1.3h-.05a5.5 5.5 0 0 0-3.8-1.475c-3.375 0-5.8 2.575-5.8 6.15a5.743 5.743 0 0 0 5.95 6.025 5.128 5.128 0 0 0 3.7-1.475h.05v1.275c0 1.625-1.225 3-3.625 3a8.007 8.007 0 0 1-4.15-1.2l-.675 2.45a9.812 9.812 0 0 0 4.975 1.275Zm.1-7.9a3.333 3.333 0 0 1-3.475-3.525 3.333 3.333 0 0 1 3.475-3.525 3.342 3.342 0 0 1 3.45 3.475 3.382 3.382 0 0 1-3.45 3.575Zm16.325 2.775h2.8v-3.225l1.975-2.15 3.275 5.375h3.15l-4.475-7.3 4.4-4.9h-3.325l-4.95 5.65-.05-.025V209.81h-2.8Zm26.7-19.75h-3.075l-2.075 3.625h2.075Zm-8.525 3.975h.05l1.35 1.925h2.725l-2.625-3.625h-2.925l-2.725 3.625h2.775Zm-.075 3.4a5.92 5.92 0 0 0-6.125 6.275 5.99 5.99 0 0 0 6.325 6.3 6.018 6.018 0 0 0 5.175-2.3l-1.95-1.675a3.815 3.815 0 0 1-3.075 1.425 3.381 3.381 0 0 1-3.575-2.825h8.9a8.879 8.879 0 0 0 .075-1.075c0-3.55-2.325-6.125-5.75-6.125Zm-.025 2.525a2.919 2.919 0 0 1 2.95 2.475h-6.1a3.086 3.086 0 0 1 3.15-2.475Zm12.3 10.05a5.672 5.672 0 0 0 3.1-.725l-.725-2.425a4.092 4.092 0 0 1-1.8.525c-.8 0-1.175-.45-1.175-1.7v-5.7h3.575v-2.375h-3.575v-4.35l-2.8.3v4.05h-1.5v2.375h1.5v5.975c0 2.725 1.3 4.05 3.4 4.05Zm16.1 0c3.1 0 4.55-1.65 4.55-3.7 0-2.425-1.625-2.9-4.225-3.925-1.175-.45-1.925-.875-1.925-1.475 0-.75.775-1.05 1.325-1.05a4.483 4.483 0 0 1 3.05 1.3l1.4-2.2a6.489 6.489 0 0 0-4.3-1.525c-2.5 0-4.3 1.45-4.3 3.45 0 2.4 1.725 3.3 3.725 4 1.6.55 2.4.85 2.4 1.475 0 .725-.625 1.2-1.7 1.2a4.671 4.671 0 0 1-3.525-1.425l-1.4 2.1a7.283 7.283 0 0 0 4.925 1.775Zm12.125 0a4.581 4.581 0 0 0 3.875-1.825l.05.025v1.6h2.675v-12.2h-2.8v1.475l-.05.025a4.68 4.68 0 0 0-3.775-1.675c-3.35 0-5.875 2.65-5.875 6.325 0 3.775 2.525 6.25 5.9 6.25Zm.45-2.55a3.435 3.435 0 0 1-3.5-3.675 3.522 3.522 0 0 1 3.5-3.825 3.574 3.574 0 0 1 3.475 3.825 3.487 3.487 0 0 1-3.475 3.675Zm14 2.55a4.769 4.769 0 0 0 3.725-1.75l.05.025v1.525h2.8v-12.2h-2.8v5.85c0 2.625-1.5 4-3.125 4-1.675 0-2.425-.75-2.425-3.175v-6.675h-2.8v7.425c0 3.625 1.875 4.975 4.575 4.975Zm16.825-.2h2.8v-6.075c0-2.4 1.25-3.775 2.925-3.775 1.65 0 2.425 1.3 2.425 3.5v6.35h2.8v-6.075c0-2.4 1.275-3.775 2.85-3.775 1.65 0 2.375 1.3 2.375 3.5v6.35h2.8v-7.05c0-3.65-1.6-5.325-4.275-5.325a5.354 5.354 0 0 0-4.375 2.025h-.05a3.825 3.825 0 0 0-3.65-2.025 4.979 4.979 0 0 0-3.8 1.85h-.025v-1.675h-2.8Zm25.325-18.5c.3-.8.8-1.25 1.2-1.3a2.641 2.641 0 0 1 1.475.55 3.927 3.927 0 0 0 2 .7c1.35 0 2.275-1.15 2.775-2.825l-1.7-.575c-.325.8-.75 1.3-1.425 1.3-.275 0-.5-.075-1.425-.625a3.647 3.647 0 0 0-1.925-.6c-1.4 0-2.175 1.075-2.675 2.6Zm-1.35 4.65h2.775l1.375-1.925h.05l1.35 1.925h2.725l-2.625-3.625h-2.925Zm4.125 14.05a6.071 6.071 0 0 0 6.4-6.275 6.064 6.064 0 0 0-6.4-6.3 6.091 6.091 0 0 0-6.4 6.3 6.085 6.085 0 0 0 6.4 6.275Zm0-2.55a3.543 3.543 0 0 1-3.55-3.725 3.543 3.543 0 0 1 3.55-3.775 3.544 3.544 0 0 1 3.55 3.775 3.545 3.545 0 0 1-3.55 3.725Zm10.9-11.65a1.894 1.894 0 0 0 1.9-1.875 1.889 1.889 0 0 0-1.9-1.85 1.867 1.867 0 0 0-1.875 1.85 1.872 1.872 0 0 0 1.875 1.875Zm-1.4 14h2.8v-12.2h-2.8ZM1348.509 258.41c3.4 0 5.925-2.475 5.925-6.25 0-3.675-2.525-6.325-5.9-6.325a4.964 4.964 0 0 0-3.875 1.625h-.025v-7.65h-2.8v18.4h2.675v-1.625h.05a4.692 4.692 0 0 0 3.95 1.825Zm-.425-2.55a3.508 3.508 0 0 1-3.575-3.675 3.572 3.572 0 0 1 3.55-3.825 3.54 3.54 0 0 1 3.525 3.825 3.449 3.449 0 0 1-3.5 3.675Zm13.6 2.55a4.769 4.769 0 0 0 3.725-1.75l.05.025v1.525h2.8v-12.2h-2.8v5.85c0 2.625-1.5 4-3.125 4-1.675 0-2.425-.75-2.425-3.175v-6.675h-2.8v7.425c0 3.625 1.875 4.975 4.575 4.975Zm19.525-16.575h1.95a3.041 3.041 0 0 0 1.9-2.425c0-1.35-.95-1.95-2.225-1.95a4.728 4.728 0 0 0-3.35 1.25l.6 1.375a3.526 3.526 0 0 1 2.1-.8c.425 0 .675.2.675.5.025.525-.55 1.25-1.65 2.05Zm-7.875 2.525h2.775l1.375-1.925h.05l1.35 1.925h2.725l-2.625-3.625h-2.925Zm4.15 14.05a6.071 6.071 0 0 0 6.4-6.275 6.064 6.064 0 0 0-6.4-6.3 6.091 6.091 0 0 0-6.4 6.3 6.085 6.085 0 0 0 6.4 6.275Zm0-2.55a3.543 3.543 0 0 1-3.55-3.725 3.543 3.543 0 0 1 3.55-3.775 3.544 3.544 0 0 1 3.55 3.775 3.545 3.545 0 0 1-3.55 3.725Zm10.9-11.65a1.894 1.894 0 0 0 1.9-1.875 1.889 1.889 0 0 0-1.9-1.85 1.867 1.867 0 0 0-1.875 1.85 1.872 1.872 0 0 0 1.875 1.875Zm-1.4 14h2.8v-12.2h-2.8Zm13.325 0h2.8v-6.2c0-2.4 1.25-3.65 3.275-3.65 1.675 0 2.65.85 2.65 3.275v6.575h2.8v-7.3c0-3.65-1.875-5.075-4.55-5.075a5.483 5.483 0 0 0-4.15 1.7h-.025v-7.725h-2.8Zm20.625.2a6.071 6.071 0 0 0 6.4-6.275 6.064 6.064 0 0 0-6.4-6.3 6.091 6.091 0 0 0-6.4 6.3 6.085 6.085 0 0 0 6.4 6.275Zm0-2.55a3.543 3.543 0 0 1-3.55-3.725 3.543 3.543 0 0 1 3.55-3.775 3.544 3.544 0 0 1 3.55 3.775 3.545 3.545 0 0 1-3.55 3.725Zm0 4.3a1.894 1.894 0 0 0-1.9 1.875 1.889 1.889 0 0 0 1.9 1.85 1.863 1.863 0 1 0 0-3.725Zm14.825-1.75a6.127 6.127 0 0 0 5.25-2.275l-1.925-1.7a3.817 3.817 0 0 1-3.075 1.425 3.5 3.5 0 0 1-3.625-3.75 3.5 3.5 0 0 1 3.625-3.75 3.949 3.949 0 0 1 3.075 1.4l1.9-1.65a6.68 6.68 0 0 0-5.125-2.275 6.03 6.03 0 0 0-6.325 6.3 6 6 0 0 0 6.225 6.275Zm27.9-16.15h-1.55v-2.45h-2.775v2.45h-4.65v1.9h4.65v3.35h-.025a4.937 4.937 0 0 0-3.9-1.675c-3.35 0-5.9 2.65-5.9 6.325 0 3.775 2.55 6.25 5.925 6.25a4.758 4.758 0 0 0 3.975-1.85h.025v1.65h2.675v-14.05h1.55Zm-7.8 13.6a3.449 3.449 0 0 1-3.5-3.675 3.54 3.54 0 0 1 3.525-3.825 3.572 3.572 0 0 1 3.55 3.825 3.508 3.508 0 0 1-3.575 3.675Zm20.425-18.4a4.728 4.728 0 0 0-3.35 1.25l.6 1.375a3.526 3.526 0 0 1 2.1-.8c.425 0 .675.2.675.5.025.525-.55 1.25-1.65 2.05h1.95a3.041 3.041 0 0 0 1.9-2.425c0-1.35-.95-1.95-2.225-1.95Zm-5.35 4.975h.05l1.35 1.925h2.725l-2.625-3.625h-2.925l-2.725 3.625h2.775Zm-.05 3.4a5.92 5.92 0 0 0-6.125 6.275 5.99 5.99 0 0 0 6.325 6.3 6.018 6.018 0 0 0 5.175-2.3l-1.95-1.675a3.815 3.815 0 0 1-3.075 1.425 3.381 3.381 0 0 1-3.575-2.825h8.9a8.881 8.881 0 0 0 .075-1.075c0-3.55-2.325-6.125-5.75-6.125Zm-.025 2.525a2.919 2.919 0 0 1 2.95 2.475h-6.1a3.086 3.086 0 0 1 3.15-2.475Zm15.375 9.85h2.8v-6.2c0-2.4 1.25-3.65 3.275-3.65 1.675 0 2.65.85 2.65 3.275v6.575h2.8v-7.3c0-3.65-1.875-5.075-4.55-5.075a5.483 5.483 0 0 0-4.15 1.7h-.025v-7.725h-2.8Zm20.4-15.775h.05l1.35 1.925h2.725l-2.625-3.625h-2.925l-2.725 3.625h2.775Zm5.7 9.525c0-3.55-2.325-6.125-5.75-6.125a5.92 5.92 0 0 0-6.125 6.275 5.99 5.99 0 0 0 6.325 6.3 6.018 6.018 0 0 0 5.175-2.3l-1.95-1.675a3.815 3.815 0 0 1-3.075 1.425 3.381 3.381 0 0 1-3.575-2.825h8.9a8.877 8.877 0 0 0 .075-1.075Zm-5.775-3.6a2.919 2.919 0 0 1 2.95 2.475h-6.1a3.086 3.086 0 0 1 3.15-2.475Zm.2 11.8a1.894 1.894 0 0 0-1.9 1.875 1.889 1.889 0 0 0 1.9 1.85 1.863 1.863 0 1 0 0-3.725ZM1337.734 288.41a5.672 5.672 0 0 0 3.1-.725l-.725-2.425a4.092 4.092 0 0 1-1.8.525c-.8 0-1.175-.45-1.175-1.7v-5.7h3.575v-2.375h-3.575v-4.35l-2.8.3v4.05h-1.5v2.375h1.5v5.975c0 2.725 1.3 4.05 3.4 4.05Zm5.5-.2h2.8v-6.2c0-2.4 1.25-3.65 3.275-3.65 1.675 0 2.65.85 2.65 3.275v6.575h2.8v-7.3c0-3.65-1.875-5.075-4.55-5.075a5.483 5.483 0 0 0-4.15 1.7h-.025v-7.725h-2.8Zm24.025-16.125h2.075l3.075-3.625h-3.075Zm-7.525 2.275h2.775l1.375-1.925h.05l1.35 1.925h2.725l-2.625-3.625h-2.925Zm4.125 14.05a6.071 6.071 0 0 0 6.4-6.275 6.064 6.064 0 0 0-6.4-6.3 6.091 6.091 0 0 0-6.4 6.3 6.085 6.085 0 0 0 6.4 6.275Zm0-2.55a3.543 3.543 0 0 1-3.55-3.725 3.543 3.543 0 0 1 3.55-3.775 3.544 3.544 0 0 1 3.55 3.775 3.545 3.545 0 0 1-3.55 3.725Zm9.325 2.35h2.8v-6.125c0-2.4 1.25-3.725 3.15-3.725 1.675 0 2.65.825 2.65 3.4v6.45h2.8v-7.175c0-3.675-1.8-5.2-4.475-5.2a5.231 5.231 0 0 0-4.075 1.85h-.05v-1.675h-2.8Zm20.275 5.125c4.525 0 6.225-2.675 6.225-6.375v-10.95h-2.8v1.3h-.05a5.5 5.5 0 0 0-3.8-1.475c-3.375 0-5.8 2.575-5.8 6.15a5.743 5.743 0 0 0 5.95 6.025 5.128 5.128 0 0 0 3.7-1.475h.05v1.275c0 1.625-1.225 3-3.625 3a8.007 8.007 0 0 1-4.15-1.2l-.675 2.45a9.812 9.812 0 0 0 4.975 1.275Zm.1-7.9a3.333 3.333 0 0 1-3.475-3.525 3.333 3.333 0 0 1 3.475-3.525 3.342 3.342 0 0 1 3.45 3.475 3.382 3.382 0 0 1-3.45 3.575Zm16.325 2.775h2.8v-3.225l1.975-2.15 3.275 5.375h3.15l-4.475-7.3 4.4-4.9h-3.325l-4.95 5.65-.05-.025V269.81h-2.8Zm15.375-14a1.894 1.894 0 0 0 1.9-1.875 1.889 1.889 0 0 0-1.9-1.85 1.867 1.867 0 0 0-1.875 1.85 1.872 1.872 0 0 0 1.875 1.875Zm-1.4 14h2.8v-12.2h-2.8Zm20.625-19.75h-3.075l-2.075 3.625h2.075Zm-8.525 3.975h.05l1.35 1.925h2.725l-2.625-3.625h-2.925l-2.725 3.625h2.775Zm-.075 3.4a5.92 5.92 0 0 0-6.125 6.275 5.99 5.99 0 0 0 6.325 6.3 6.018 6.018 0 0 0 5.175-2.3l-1.95-1.675a3.815 3.815 0 0 1-3.075 1.425 3.381 3.381 0 0 1-3.575-2.825h8.9a8.879 8.879 0 0 0 .075-1.075c0-3.55-2.325-6.125-5.75-6.125Zm-.025 2.525a2.919 2.919 0 0 1 2.95 2.475h-6.1a3.086 3.086 0 0 1 3.15-2.475Zm8.675 9.85h2.8v-6.125c0-2.4 1.25-3.725 3.15-3.725 1.675 0 2.65.825 2.65 3.4v6.45h2.8v-7.175c0-3.675-1.8-5.2-4.475-5.2a5.231 5.231 0 0 0-4.075 1.85h-.05v-1.675h-2.8Zm25.15.2a5.672 5.672 0 0 0 3.1-.725l-.725-2.425a4.092 4.092 0 0 1-1.8.525c-.8 0-1.175-.45-1.175-1.7v-5.7h3.575v-2.375h-3.575v-4.35l-2.8.3v4.05h-1.5v2.375h1.5v5.975c0 2.725 1.3 4.05 3.4 4.05Zm5.5-.2h2.8v-6.2c0-2.4 1.25-3.65 3.275-3.65 1.675 0 2.65.85 2.65 3.275v6.575h2.8v-7.3c0-3.65-1.875-5.075-4.55-5.075a5.483 5.483 0 0 0-4.15 1.7h-.025v-7.725h-2.8Zm24.8-17.525-3.075.025-2.875 3.6h2.85Zm2.375 3.4v1.6c0 1.475.05 2.675-1.325 3.075v-2.75h-2.8v5.85c0 2.625-1.5 4-3.125 4-1.675 0-2.425-.75-2.425-3.175v-6.675h-2.8v7.425c0 3.625 1.875 4.975 4.575 4.975a4.769 4.769 0 0 0 3.725-1.75l.05.025v1.525h2.8v-7.575c2.75-.15 4.175-2 4.175-4.775v-1.775Zm9.85 14.325a6.127 6.127 0 0 0 5.25-2.275l-1.925-1.7a3.817 3.817 0 0 1-3.075 1.425 3.5 3.5 0 0 1-3.625-3.75 3.5 3.5 0 0 1 3.625-3.75 3.949 3.949 0 0 1 3.075 1.4l1.9-1.65a6.68 6.68 0 0 0-5.125-2.275 6.03 6.03 0 0 0-6.325 6.3 6 6 0 0 0 6.225 6.275Zm9.1 0a1.867 1.867 0 0 0 1.875-1.85 1.889 1.889 0 0 0-1.875-1.875 1.894 1.894 0 0 0-1.9 1.875 1.873 1.873 0 0 0 1.9 1.85Z"/><g clip-path="url(#a)"><path fill="#fc7005" d="M121.885 228.745a27.679 27.679 0 1 0 27.679-27.679 27.679 27.679 0 0 0-27.679 27.679"/><path fill="#fff" d="m148.719 221.248-4.546 3.409-2.015-3.153 7.366-5.352h3.446v25.184h-4.251Z"/><path fill="#fc7005" d="M374.441 474.574a27.679 27.679 0 1 0 27.679-27.679 27.679 27.679 0 0 0-27.679 27.679"/><path fill="#fff" d="m394.018 484.452 8.1-8.54c2.051-2.163 3.554-4 3.554-6.159a3.755 3.755 0 0 0-3.849-3.923 5.344 5.344 0 0 0-4.8 2.97l-3.042-2.163a8.678 8.678 0 0 1 8.138-4.765c4.142 0 7.88 2.785 7.88 7.4 0 2.786-.989 5.169-4.18 8.468l-5.315 5.535.038.11h9.715v3.886h-16.166Z"/><path fill="#fc7005" d="M640.366 133.689a27.679 27.679 0 1 0 27.679-27.679 27.679 27.679 0 0 0-27.679 27.679"/><path fill="#fff" d="m659.43 141.2 3.666-1.612a4.853 4.853 0 0 0 4.911 3.006c2.384 0 4.326-1.467 4.326-3.74 0-1.979-1.576-3.775-4.73-3.775h-1.9v-3.592h2.308c2.639 0 3.665-1.577 3.665-3.337a3.519 3.519 0 0 0-3.774-3.409 4.522 4.522 0 0 0-4.142 2.2l-3.41-1.833c1.211-2.492 4-4.288 7.661-4.288 4.4 0 7.954 2.419 7.954 6.671a6.265 6.265 0 0 1-3.335 5.645v.11a6.582 6.582 0 0 1 4.033 6.194c0 4.29-3.556 7.113-8.359 7.113-4.4 0-7.624-2.273-8.87-5.353"/><path fill="#fc7005" d="M891.51 392.554a27.679 27.679 0 1 0 27.679-27.679 27.679 27.679 0 0 0-27.679 27.679"/><path fill="#fff" d="M920.821 400.894h-11V398l11.693-18.036h3.557v17.155h3.481v3.777h-3.481v4.251h-4.253Zm.146-3.666v-10.081l-6.193 10.081Z"/><path fill="#fc7005" d="M1145.738 63.6a27.678 27.678 0 1 0 27.679-27.679 27.679 27.679 0 0 0-27.679 27.679"/><path fill="#fff" d="M1182.16 67.981c0 4.949-3.557 8.359-8.91 8.359a10.541 10.541 0 0 1-8.577-4.069l3.08-2.457a6.141 6.141 0 0 0 5.131 2.6c3.081 0 4.95-1.942 4.95-4.509 0-2.823-2.493-4.362-4.877-4.362a6.132 6.132 0 0 0-4.1 1.319l-2.311-.805.735-13.2h13.635v3.922h-9.64l-.33 5.644a11.7 11.7 0 0 1 3.262-.549 7.7 7.7 0 0 1 7.956 8.1"/><path fill="#fc7005" d="M1403.019 379.962a27.68 27.68 0 1 0 27.679-27.679 27.679 27.679 0 0 0-27.679 27.679"/><path fill="#fff" d="M1439.679 384.836c0 4.8-3.921 8.249-8.981 8.249-5.022 0-8.98-4-8.98-10.155a15.975 15.975 0 0 1 13.087-16.092l1.355 3.556c-4.471 1.246-7.881 3.556-9.384 7.588l.073.073a9.6 9.6 0 0 1 5.022-1.319c4.4 0 7.808 2.969 7.808 8.1m-4.251-.073c0-2.419-1.834-4.179-4.619-4.179a6.4 6.4 0 0 0-4.949 2.529v.331c0 3.372 2.346 5.682 5.133 5.682a4.321 4.321 0 0 0 4.435-4.363"/><path fill="none" stroke="#651ded" stroke-miterlimit="10" stroke-width="7" d="M18.419 478.9v-182a126.858 126.858 0 0 1 126.858-126.863h5.188a126.859 126.859 0 0 1 126.859 126.858v110.767A126.858 126.858 0 0 0 404.445 534.52l2.607-.005a126.859 126.859 0 0 0 126.6-126.858V179.763a126.858 126.858 0 1 1 253.716 0v142.091a126.858 126.858 0 0 0 126.854 126.858h5.215A126.858 126.858 0 0 0 1046.3 321.854v-191.5A126.855 126.855 0 0 1 1173.539 3.5l1.888.005A125.306 125.306 0 0 1 1300.4 128.574c.132 71.488.22 103.033.045 174.963A126.849 126.849 0 0 0 1427.3 430.694h4.861a126.858 126.858 0 0 0 126.858-126.858V112.811"/><path fill="#fc7005" d="M45.209 480.344a22.6 22.6 0 1 1-22.6-22.6 22.6 22.6 0 0 1 22.6 22.6M1581.625 87.056a22.6 22.6 0 1 1-22.6-22.605 22.6 22.6 0 0 1 22.6 22.605"/></g></svg>