<svg xmlns="http://www.w3.org/2000/svg" width="350" height="82" viewBox="0 0 350 82" fill="none"><g clip-path="url(#clip0_73_3)"><path d="M0 0.233013H17.923L25.1386 27.6216L32.4319 0.233013H48.415L48.3375 81.4688H37.7079V21.8804L25.1385 69.0549L12.6468 21.8804V81.4688H1.93974V2.56025L0 0.233013ZM50.9755 0.154666H63.3897L72.0019 34.6048L80.5367 0.154666H91.5543L77.4332 56.6381L77.2781 57.3364V81.4663H66.6485V57.259L66.4933 56.6383L52.993 2.56037L50.9755 0.154666ZM104.123 12.3364H92.5627V0H126.392V12.3364H111.65L114.831 14.6641V81.3125H104.124L104.123 12.3364ZM141.521 0.000868954V34.451H154.012V0.000868954H164.642V81.2367H154.012V46.7111H138.34L141.521 49.1163V81.2392H130.814V2.33066L128.874 0.00301643L141.521 0.000868954ZM179.927 69.209H192.496V12.4934H176.823L179.927 14.8986V69.209ZM203.125 7.91407V73.7878C203.125 78.1326 199.789 81.4691 195.443 81.4691H176.978C172.633 81.4691 169.296 78.1329 169.296 73.7878V7.91407C169.296 3.80193 172.632 0.232725 176.978 0.232725H195.443C199.788 0.232725 203.125 3.80164 203.125 7.91407ZM240.833 7.91407V24.6731H230.203V12.4142H214.53L217.634 14.8194V24.6731L240.833 53.1478V65.4067V73.7863C240.833 77.8984 237.496 81.4676 233.151 81.4676H214.685C210.341 81.4676 207.004 77.8987 207.004 73.7863V56.484H217.634V69.2084H230.203V56.9495L207.004 28.4747V7.91372C207.004 3.56886 210.34 0.232376 214.685 0.232376H233.151C237.496 0.232376 240.833 3.56892 240.833 7.91407ZM244.713 2.6386L242.773 0.233361H273.265V12.4923H252.239L255.42 14.8975V34.6826H267.99V47.019H252.239L255.421 49.3466V69.2091H273.266V81.4681H244.713V69.2091V47.0188V34.6824L244.713 2.6386ZM288.318 69.209H300.809V12.4934H285.137L288.318 14.8986V69.209ZM311.517 7.91407V73.7878C311.517 78.1326 308.103 81.4691 303.758 81.4691H277.611V69.2102V2.64005L275.671 0.234814H303.758C308.025 0.234814 311.517 3.80164 311.517 7.91407ZM326.801 69.209H339.293V0.154956H350V73.7097C350 78.0546 346.431 81.3911 342.319 81.3911L323.853 81.4687C319.508 81.4687 316.171 78.0547 316.171 73.7098V2.56066H316.094L314.154 0.155413H326.801L326.801 69.209Z" fill="#0DCEDA"></path></g><defs><clipPath id="clip0_73_3"><rect width="350" height="81.4691" fill="white"></rect></clipPath></defs></svg>