<svg width="159" height="32" viewBox="0 0 159 32" fill="none" xmlns="http://www.w3.org/2000/svg">
<path d="M0 31.1377H19.95V25.8877H5.796V18.9577H16.424V13.7497H5.796V6.60968H19.068V1.31768H0V31.1377ZM39.144 0.225679V12.9517H39.018C38.2499 12.0799 37.2973 11.3902 36.2294 10.9325C35.1614 10.4748 34.005 10.2607 32.844 10.3057C27.344 10.3057 23.184 14.7157 23.184 20.9317C23.184 27.2737 27.342 31.4737 33.012 31.4737C34.2089 31.5291 35.4021 31.3034 36.4961 30.8148C37.5902 30.3261 38.5545 29.588 39.312 28.6597H39.396V31.1377H44.646V0.225679H39.144ZM34.024 26.5597C30.958 26.5597 28.774 24.2917 28.774 20.9737C28.774 17.4457 31.084 15.2197 34.024 15.2197C34.7639 15.221 35.4957 15.3733 36.1746 15.6673C36.8536 15.9613 37.4654 16.3908 37.9726 16.9294C38.4798 17.4681 38.8718 18.1046 39.1244 18.8C39.3771 19.4954 39.4851 20.2351 39.442 20.9737C39.4788 21.7027 39.3651 22.4316 39.1081 23.1148C38.851 23.798 38.4561 24.421 37.9478 24.945C37.4396 25.469 36.829 25.8827 36.1539 26.1605C35.4788 26.4383 34.7538 26.5742 34.024 26.5597ZM63.546 10.6377V20.5917C63.546 24.5397 61.404 26.5557 59.01 26.5557C56.448 26.5557 55.31 25.2957 55.31 21.5157V10.6377H49.854V22.9897C49.854 29.2477 52.962 31.4737 57.372 31.4737C58.5359 31.4822 59.6869 31.2301 60.7407 30.7359C61.7945 30.2417 62.7243 29.5179 63.462 28.6177H63.546V31.1377H69.046V10.6377H63.546ZM80.808 31.4737C82.7099 31.5708 84.601 31.1344 86.268 30.2137L84.84 25.8037C84.0336 26.223 83.1474 26.4664 82.24 26.5177C80.98 26.5177 80.434 25.6777 80.434 23.9177V15.1777H86.02V10.6377H80.43V3.33768L74.97 3.92568V10.6457H72.534V15.1817H74.97V24.6737C74.97 29.2897 77.28 31.4737 80.808 31.4737ZM108.192 20.6797C108.192 14.6737 104.16 10.3057 98.154 10.3057C92.316 10.3057 87.99 14.6317 87.99 20.8477C87.99 27.2737 92.524 31.4737 98.532 31.4737C100.207 31.553 101.877 31.2458 103.414 30.5757C104.951 29.9056 106.313 28.8908 107.394 27.6097L103.824 24.2917C103.246 25.038 102.499 25.6366 101.645 26.0381C100.791 26.4397 99.8534 26.6328 98.91 26.6017C97.7133 26.6525 96.536 26.2869 95.5787 25.567C94.6213 24.8471 93.9433 23.8175 93.66 22.6537H108.066C108.182 22.0026 108.225 21.3403 108.192 20.6797ZM98.324 15.1377C99.3659 15.1013 100.386 15.4425 101.196 16.0985C102.007 16.7544 102.553 17.681 102.734 18.7077H93.704C93.9305 17.6639 94.5181 16.7336 95.3633 16.0805C96.2084 15.4275 97.2569 15.0936 98.324 15.1377ZM121.044 22.9897L125.916 31.1377H132.048L124.698 18.7897L131.924 10.6377H125.498L118.148 18.9117H118.106V0.22168H112.606V31.1377H118.106V26.2237L120.962 22.9897H121.044ZM138.264 7.74368C139.165 7.75145 140.033 7.40261 140.678 6.7732C141.323 6.1438 141.694 5.28487 141.708 4.38368C141.694 3.48249 141.323 2.62356 140.678 1.99416C140.033 1.36475 139.165 1.01591 138.264 1.02368C137.37 1.02517 136.512 1.3784 135.876 2.00706C135.239 2.63573 134.876 3.48939 134.864 4.38368C134.876 5.27797 135.239 6.13163 135.876 6.7603C136.512 7.38897 137.37 7.74219 138.264 7.74368ZM135.492 31.1377H140.992V10.6377H135.492V31.1377ZM153.048 31.4737C154.95 31.5708 156.841 31.1344 158.508 30.2137L157.08 25.8037C156.274 26.223 155.387 26.4664 154.48 26.5177C153.22 26.5177 152.674 25.6777 152.674 23.9177V15.1777H158.26V10.6377H152.674V3.33768L147.214 3.92568V10.6457H144.774V15.1817H147.21V24.6737C147.21 29.2897 149.524 31.4737 153.048 31.4737Z" fill="#29255E"/>
</svg>
