<svg xmlns="http://www.w3.org/2000/svg" width="349.142" height="69.976" viewBox="0 0 349.142 69.976"><path fill="#171554" d="M207.495 53.541h-2.177a.627.627 0 0 0-.63.64v2.14a.614.614 0 0 0 .63.619h2.177a.615.615 0 0 0 .633-.619v-2.14a.629.629 0 0 0-.633-.64Zm11.489-1.776h4.889V35.957h-4.889Zm-5.427-15.808a131.043 131.043 0 0 0-13.579 0 3.682 3.682 0 0 0-3.263 2.679 22.342 22.342 0 0 0-.361 5.092 24.065 24.065 0 0 0 .361 5.357 3.405 3.405 0 0 0 3.263 2.587 55.918 55.918 0 0 0 6.786.269c3.264 0 5.519-.086 6.793-.176a3.789 3.789 0 0 0 3.25-2.68 24.332 24.332 0 0 0 .367-5.271 23.378 23.378 0 0 0-.367-5.178 3.652 3.652 0 0 0-3.25-2.679Zm-1.09 10.367c-.184.446-.277.8-.636.979a2.384 2.384 0 0 1-1.356.44 33.4 33.4 0 0 1-3.711.1 39.464 39.464 0 0 1-3.982-.1 1.649 1.649 0 0 1-1.631-1.419 5.982 5.982 0 0 1-.176-2.06 12.4 12.4 0 0 1 .267-3.216 1.366 1.366 0 0 1 1.087-.988 20.639 20.639 0 0 1 4.435-.256c2.175 0 3.531.078 4.071.078a1.892 1.892 0 0 1 1.176.716 1.984 1.984 0 0 1 .456 1.154 17.379 17.379 0 0 1 .094 2.512 11.014 11.014 0 0 1-.09 2.06Zm124.356-12.6c1 0 2.258.444 3.353.444a5.063 5.063 0 0 0 2.715-.809s-1.09-1.069-1.454-1.418a3.951 3.951 0 0 1-1.9.528c-1 0-2.179-.528-3.175-.528a6.891 6.891 0 0 0-2.8.618l1.439 1.515a4 4 0 0 1 1.826-.348Zm-147.164 7.852h-10.5v-5.619h-4.8v15.808h4.8v-5.721h10.5v5.721h4.8V35.957h-4.8Zm12.945-7.672 4.07-.9 4.073.9.45-.981-4.523-2.058-4.616 2.058Zm64.713 19.635h-2.181a.623.623 0 0 0-.627.64v2.14a.61.61 0 0 0 .627.619h2.181a.613.613 0 0 0 .632-.619v-2.14a.626.626 0 0 0-.628-.638Zm-4.257-8.12h12.218v-3.48H263.06v-2.233h12.218v-3.749h-16.741v15.808h16.832v-3.843h-12.3Zm13.577-5.446h6.788v11.789h4.8V39.973h6.78v-4.016h-18.368Zm66.53-4.019-4.8 6.344-4.889-6.344h-6.066l8.7 10.179v5.629h4.707v-5.626l8.329-10.179Zm-81.288-3.032.557.981 4.066-.9 4.075.9.453-.981-4.528-2.058Zm52.054 13.3-4.526-10.27h-8.42V51.76h4.612l-.177-11.883h.9l5.707 11.883h3.8l5.7-11.883h.818l-.094 11.883h4.532V35.957h-8.339Zm-62.452 5.538h4.885V35.957h-4.885Zm-11.224-4.017h-.906l-5.523-11.786h-5.06l7.514 15.808h7.054l7.423-15.808h-5.073Zm-61.111-22h6.865l.963 1.907h3.572l-5.508-10.871h-4.928l-5.5 10.871h3.678Zm3.088-6.47h.682l2.029 4.093h-4.644Zm58.159 8.383.866-1.907h6.961l.864 1.907h3.674l-5.511-10.871h-4.923l-5.6 10.871Zm4.059-8.383h.677l1.935 4.093h-4.644Zm-10.337 8.383 5.121-10.871h-3.48l-3.762 8.109h-.588l-3.857-8.109h-3.481l5.211 10.871Zm-28.5 0V16.782h-3.284l.1 8.109h-.389l-5.4-8.109h-5.609v10.871h3.19v-8.1h.294l5.5 8.1Zm37.591-12.489a4.062 4.062 0 0 0 1.63.376 2.314 2.314 0 0 0 1.844-.657 2.283 2.283 0 0 0 .48-.96h-.972a1.1 1.1 0 0 1-.482.482 2.168 2.168 0 0 1-.87.1 2.62 2.62 0 0 1-1.06-.192c-.191 0-.285-.195-.384-.386h-.97a1.821 1.821 0 0 0 .782 1.234Zm19.021 12.489h5.511V16.782h-3.192v8.109h-.287l-5.507-8.109h-5.511v10.871h3.189l-.091-8.1h.385Zm-41.348 0V16.782h-3.287v3.815h-7.24v-3.815h-3.285v10.871h3.285v-4h7.24v4ZM36.557 46.908 58.793 1.279H42.605L29.181 32.213h-.149L15.747 1.279H0l24.7 51.454a68.587 68.587 0 0 1 11.857-5.825Zm37.545-7.576c12.275.432 27.45 5.286 38.567 7.426a37.583 37.583 0 0 0 7.37 1c4.61.132 23.963-1 23.963-17.675 0-13.414-22.954-11.555-31.333-14.681-1.883-.724-3.042-1.717-3.042-3.143 0-2.132 1.159-3.414 3.042-4.282a17.4 17.4 0 0 1 5.628-.857c5.636 0 8.672 2.146 9.1 6.565h15.025c-.72-9.989-11.691-13.687-22.541-13.687a54.8 54.8 0 0 0-7.211.427c-9.247.991-14.167 4.13-16.472 7.552v-6.7H81.177V26.52c0 7.694-2.45 10.267-10.119 10.267-7.8 0-10.1-2.573-10.1-10.267V7.979l-13.86 27.945c0 2.845 1.44 4.979 5.056 6.556a61.825 61.825 0 0 1 21.945-3.148Zm22.1-19.65c3.037 4.689 9.819 6.254 16.472 7.112 8.226 1.286 16.312 1.566 16.312 6.138 0 3.126-2.89 4.985-9.669 4.985a20.645 20.645 0 0 1-6.643-.869 5.886 5.886 0 0 1-4.331-6.126H96.202Z"/><path fill="#ba0000" fill-rule="evenodd" d="M130.144 50.742C109.05 59.297 63.698 20.38 15.599 69.976h17.913c30.466-35.192 63.987-13.67 87.965-14.675a21.608 21.608 0 0 0 16.755-9.262 25.294 25.294 0 0 1-8.088 4.703ZM44.921 69.973h16.162c1.894-3.7 9.971-14.675 42.622-13.111 9.39.437 10.4 0 10.4 0s-4.612-.42-8.51-1.137c-40.448-7.262-56.908 9.554-60.674 14.248Zm26.283 0h15.17c2.166-8.676 22.676-10.971 22.676-10.971S82.036 57.73 71.204 69.973Z"/></svg>