<svg xmlns="http://www.w3.org/2000/svg" width="349.148" height="69.979" viewBox="0 0 349.148 69.979"><g fill="#fff" data-name="Group 5597"><path d="M207.496 53.544h-2.177a.627.627 0 0 0-.63.64v2.14a.615.615 0 0 0 .63.619h2.176a.614.614 0 0 0 .633-.619v-2.14a.628.628 0 0 0-.633-.64Zm11.489-1.776h4.889V35.96h-4.889Zm-5.427-15.808a131.039 131.039 0 0 0-13.579 0 3.682 3.682 0 0 0-3.263 2.679 22.338 22.338 0 0 0-.361 5.092 24.05 24.05 0 0 0 .361 5.357 3.4 3.4 0 0 0 3.263 2.587 55.914 55.914 0 0 0 6.786.269c3.264 0 5.519-.086 6.793-.176a3.789 3.789 0 0 0 3.25-2.68 24.354 24.354 0 0 0 .367-5.271 23.358 23.358 0 0 0-.367-5.178 3.652 3.652 0 0 0-3.25-2.679Zm-1.09 10.367c-.184.446-.277.8-.636.979a2.385 2.385 0 0 1-1.356.44 33.388 33.388 0 0 1-3.711.1 39.461 39.461 0 0 1-3.981-.1 1.649 1.649 0 0 1-1.631-1.419 5.967 5.967 0 0 1-.176-2.06 12.4 12.4 0 0 1 .268-3.216 1.367 1.367 0 0 1 1.086-.988 20.642 20.642 0 0 1 4.435-.256c2.175 0 3.531.078 4.071.078a1.892 1.892 0 0 1 1.176.716 1.985 1.985 0 0 1 .456 1.154 17.335 17.335 0 0 1 .094 2.512 10.967 10.967 0 0 1-.09 2.06Zm124.356-12.6c1 0 2.258.444 3.353.444a5.063 5.063 0 0 0 2.715-.809s-1.09-1.069-1.454-1.418a3.952 3.952 0 0 1-1.9.528c-1 0-2.179-.528-3.175-.528a6.892 6.892 0 0 0-2.8.618l1.439 1.515a4 4 0 0 1 1.826-.348Zm-147.166 7.849h-10.5V35.96h-4.8v15.808h4.8v-5.721h10.5v5.721h4.8V35.96h-4.8Zm12.945-7.672 4.07-.9 4.073.9.45-.981-4.523-2.058-4.615 2.061Zm64.713 19.635h-2.181a.623.623 0 0 0-.626.64v2.14a.61.61 0 0 0 .627.619h2.181a.612.612 0 0 0 .632-.619v-2.14a.626.626 0 0 0-.627-.638Zm-4.257-8.12h12.218v-3.48h-12.219v-2.23h12.218V35.96h-16.738v15.808h16.832v-3.843h-12.3Zm13.579-5.443h6.788v11.789h4.8V39.976h6.78V35.96h-18.368Zm66.53-4.019-4.8 6.344-4.889-6.344h-6.066l8.7 10.179v5.629h4.707v-5.626l8.329-10.179Zm-81.288-3.032.557.981 4.066-.9 4.075.9.453-.981-4.528-2.058Zm52.054 13.3-4.526-10.27h-8.42v15.808h4.612l-.177-11.883h.9l5.707 11.883h3.8l5.7-11.883h.818l-.094 11.883h4.532v-15.8h-8.339Zm-62.452 5.538h4.885v-15.8h-4.885Zm-11.224-4.017h-.906l-5.523-11.786h-5.06l7.514 15.808h7.054l7.423-15.808h-5.073Zm-61.111-22h6.865l.963 1.907h3.572l-5.508-10.871h-4.928l-5.5 10.871h3.678Zm3.088-6.47h.682l2.029 4.093h-4.644Zm58.159 8.383.866-1.907h6.961l.864 1.907h3.674l-5.511-10.871h-4.923l-5.6 10.871Zm4.059-8.383h.677l1.935 4.093h-4.644Zm-10.337 8.383 5.121-10.871h-3.48l-3.762 8.109h-.588l-3.857-8.109h-3.481l5.211 10.871Zm-28.5 0V16.785h-3.284l.1 8.109h-.389l-5.4-8.109h-5.609v10.871h3.19v-8.1h.294l5.5 8.1Zm37.591-12.489a4.064 4.064 0 0 0 1.63.376 2.315 2.315 0 0 0 1.845-.657 2.286 2.286 0 0 0 .479-.96h-.972a1.1 1.1 0 0 1-.482.482 2.169 2.169 0 0 1-.871.1 2.618 2.618 0 0 1-1.059-.192c-.191 0-.286-.195-.384-.386h-.97a1.822 1.822 0 0 0 .782 1.234Zm19.021 12.489h5.511V16.785h-3.192v8.109h-.287l-5.507-8.109h-5.511v10.871h3.189l-.091-8.1h.385Zm-41.348 0V16.785h-3.287V20.6h-7.24v-3.815h-3.285v10.871h3.285v-4h7.24v4Z" data-name="Path 5713"/><path d="M36.558 46.911 58.794 1.282H42.606L29.182 32.216h-.149L15.748 1.282H.001l24.7 51.454a68.61 68.61 0 0 1 11.857-5.825Zm37.545-7.576c12.275.432 27.45 5.286 38.567 7.426a37.584 37.584 0 0 0 7.37 1c4.61.132 23.963-1 23.963-17.675 0-13.414-22.954-11.555-31.333-14.681-1.883-.724-3.042-1.717-3.042-3.143 0-2.132 1.159-3.414 3.042-4.282a17.4 17.4 0 0 1 5.628-.857c5.636 0 8.672 2.146 9.1 6.565h15.025C141.703 3.699 130.732.001 119.882.001a54.8 54.8 0 0 0-7.211.427c-9.247.991-14.167 4.13-16.472 7.552V1.276H81.178v25.247c0 7.694-2.45 10.267-10.119 10.267-7.8 0-10.1-2.573-10.1-10.267V7.982l-13.86 27.945c0 2.845 1.44 4.979 5.056 6.556A61.826 61.826 0 0 1 74.1 39.335Zm22.1-19.65c3.037 4.689 9.819 6.254 16.472 7.112 8.226 1.286 16.312 1.566 16.312 6.138 0 3.126-2.89 4.985-9.669 4.985a20.645 20.645 0 0 1-6.643-.869 5.886 5.886 0 0 1-4.331-6.126H96.203Z" data-name="Path 5714"/><path fill-rule="evenodd" d="M130.145 50.745C109.051 59.3 63.699 20.383 15.6 69.979h17.913c30.466-35.192 63.987-13.67 87.965-14.675a21.608 21.608 0 0 0 16.755-9.262 25.3 25.3 0 0 1-8.087 4.7ZM44.922 69.976h16.162c1.894-3.7 9.971-14.675 42.622-13.111 9.39.437 10.4 0 10.4 0s-4.612-.42-8.51-1.137c-40.448-7.262-56.908 9.554-60.674 14.248Zm26.283 0h15.17c2.166-8.676 22.676-10.971 22.676-10.971s-27.014-1.272-37.846 10.971Z" data-name="Path 5715"/></g></svg>