<svg width="15" height="16" viewBox="0 0 15 16" fill="none" xmlns="http://www.w3.org/2000/svg">
<path d="M13.056 6.56935H8.611V2.12435C8.611 1.75597 8.46466 1.40267 8.20417 1.14218C7.94368 0.88169 7.59039 0.735352 7.222 0.735352C6.85361 0.735352 6.50031 0.88169 6.23983 1.14218C5.97934 1.40267 5.833 1.75597 5.833 2.12435V6.56935H1.389C1.02061 6.56935 0.667314 6.71569 0.406826 6.97618C0.146338 7.23667 0 7.58997 0 7.95835C0 8.32674 0.146338 8.68003 0.406826 8.94052C0.667314 9.20101 1.02061 9.34735 1.389 9.34735H5.834V13.7924C5.834 14.1607 5.98034 14.514 6.24083 14.7745C6.50132 15.035 6.85461 15.1814 7.223 15.1814C7.59139 15.1814 7.94468 15.035 8.20517 14.7745C8.46566 14.514 8.612 14.1607 8.612 13.7924V9.34635H13.057C13.4254 9.34635 13.7787 9.20001 14.0392 8.93952C14.2997 8.67903 14.446 8.32574 14.446 7.95735C14.446 7.58897 14.2997 7.23567 14.0392 6.97518C13.7787 6.71469 13.4254 6.56835 13.057 6.56835L13.056 6.56935Z" fill="#29255E"/>
</svg>
