<svg xmlns="http://www.w3.org/2000/svg" width="40" height="40" viewBox="0 0 40 40"><g fill="#fff" stroke="#f2f2f2" stroke-width="1.5"><circle cx="20" cy="20" r="20" stroke="none"/><circle cx="20" cy="20" r="19.25" fill="none"/></g><g stroke-linecap="round" stroke-linejoin="round" stroke-width="2"><path fill="#ba0611" stroke="#ba0611" d="M30.54 14.42a2.78 2.78 0 0 0-1.94-2C26.88 12 20 12 20 12s-6.88 0-8.6.46a2.78 2.78 0 0 0-1.94 2A29 29 0 0 0 9 19.75a29 29 0 0 0 .46 5.33A2.78 2.78 0 0 0 11.4 27c1.72.46 8.6.46 8.6.46s6.88 0 8.6-.46a2.78 2.78 0 0 0 1.94-2 29 29 0 0 0 .46-5.25 29 29 0 0 0-.46-5.33Z"/><path fill="#fff" stroke="#fff" d="m17.75 23.02 5.75-3.27-5.75-3.27Z"/></g></svg>