<svg width="21" height="15" viewBox="0 0 21 15" fill="none" xmlns="http://www.w3.org/2000/svg">
<path d="M16 8H4C3.73478 8 3.48043 7.89464 3.29289 7.70711C3.10536 7.51957 3 7.26522 3 7C3 6.73478 3.10536 6.48043 3.29289 6.29289C3.48043 6.10536 3.73478 6 4 6H16C16.2652 6 16.5196 6.10536 16.7071 6.29289C16.8946 6.48043 17 6.73478 17 7C17 7.26522 16.8946 7.51957 16.7071 7.70711C16.5196 7.89464 16.2652 8 16 8Z" fill="#898989"/>
<path d="M13 2H7C6.73478 2 6.48043 1.89464 6.29289 1.70711C6.10536 1.51957 6 1.26522 6 1C6 0.734784 6.10536 0.480429 6.29289 0.292892C6.48043 0.105356 6.73478 0 7 0H13C13.2652 0 13.5196 0.105356 13.7071 0.292892C13.8946 0.480429 14 0.734784 14 1C14 1.26522 13.8946 1.51957 13.7071 1.70711C13.5196 1.89464 13.2652 2 13 2Z" fill="#898989"/>
<path d="M19.0017 14.0017H1.0017C0.868289 14.0097 0.734692 13.9894 0.609732 13.9419C0.484772 13.8945 0.371292 13.8211 0.276784 13.7266C0.182276 13.6321 0.108891 13.5186 0.0614729 13.3937C0.0140549 13.2687 -0.00631687 13.1351 0.00170277 13.0017C-0.00631687 12.8683 0.0140549 12.7347 0.0614729 12.6097C0.108891 12.4848 0.182276 12.3713 0.276784 12.2768C0.371292 12.1823 0.484772 12.1089 0.609732 12.0615C0.734692 12.0141 0.868289 11.9937 1.0017 12.0017H19.0017C19.1351 11.9937 19.2687 12.0141 19.3937 12.0615C19.5186 12.1089 19.6321 12.1823 19.7266 12.2768C19.8211 12.3713 19.8945 12.4848 19.9419 12.6097C19.9894 12.7347 20.0097 12.8683 20.0017 13.0017C20.0097 13.1351 19.9894 13.2687 19.9419 13.3937C19.8945 13.5186 19.8211 13.6321 19.7266 13.7266C19.6321 13.8211 19.5186 13.8945 19.3937 13.9419C19.2687 13.9894 19.1351 14.0097 19.0017 14.0017Z" fill="#898989"/>
</svg>
