<svg width="22" height="15" viewBox="0 0 22 15" fill="none" xmlns="http://www.w3.org/2000/svg">
<path d="M17 9H5C4.73478 9 4.48043 8.89464 4.29289 8.70711C4.10536 8.51957 4 8.26522 4 8C4 7.73478 4.10536 7.48043 4.29289 7.29289C4.48043 7.10536 4.73478 7 5 7H17C17.2652 7 17.5196 7.10536 17.7071 7.29289C17.8946 7.48043 18 7.73478 18 8C18 8.26522 17.8946 8.51957 17.7071 8.70711C17.5196 8.89464 17.2652 9 17 9Z" fill="#898989"/>
<path d="M14 15H8C7.73478 15 7.48043 14.8946 7.29289 14.7071C7.10536 14.5196 7 14.2652 7 14C7 13.7348 7.10536 13.4804 7.29289 13.2929C7.48043 13.1054 7.73478 13 8 13H14C14.2652 13 14.5196 13.1054 14.7071 13.2929C14.8946 13.4804 15 13.7348 15 14C15 14.2652 14.8946 14.5196 14.7071 14.7071C14.5196 14.8946 14.2652 15 14 15Z" fill="#898989"/>
<path d="M20 2.99975H1.99999C1.86658 3.00777 1.73298 2.9874 1.60802 2.93998C1.48306 2.89256 1.36958 2.81918 1.27508 2.72467C1.18057 2.63016 1.10718 2.51668 1.05976 2.39172C1.01235 2.26676 0.991974 2.13316 0.999994 1.99975C0.991974 1.86634 1.01235 1.73274 1.05976 1.60778C1.10718 1.48282 1.18057 1.36934 1.27508 1.27483C1.36958 1.18032 1.48306 1.10694 1.60802 1.05952C1.73298 1.0121 1.86658 0.99173 1.99999 0.99975H20C20.1334 0.99173 20.267 1.0121 20.392 1.05952C20.5169 1.10694 20.6304 1.18032 20.7249 1.27483C20.8194 1.36934 20.8928 1.48282 20.9402 1.60778C20.9876 1.73274 21.008 1.86634 21 1.99975C21.008 2.13316 20.9876 2.26676 20.9402 2.39172C20.8928 2.51668 20.8194 2.63016 20.7249 2.72467C20.6304 2.81918 20.5169 2.89256 20.392 2.93998C20.267 2.9874 20.1334 3.00777 20 2.99975Z" fill="#898989"/>
</svg>
