<svg width="30" height="30" viewBox="0 0 30 30" fill="none" xmlns="http://www.w3.org/2000/svg">
<path d="M15 30C23.2843 30 30 23.2843 30 15C30 6.71573 23.2843 0 15 0C6.71573 0 0 6.71573 0 15C0 23.2843 6.71573 30 15 30Z" fill="#BB1413"/>
<path d="M16.6666 16.667H13.3333C11.5658 16.669 9.87129 17.372 8.62139 18.6218C7.37159 19.8716 6.6686 21.5662 6.6666 23.3337C6.6665 23.5103 6.72259 23.6825 6.82669 23.8252C6.93079 23.968 7.07749 24.0739 7.24579 24.1278C9.77649 24.7826 12.387 25.0763 15 25.0003C17.6129 25.0763 20.2234 24.7826 22.7541 24.1278C22.9224 24.0739 23.0692 23.968 23.1733 23.8252C23.2774 23.6825 23.3334 23.5103 23.3333 23.3337C23.3313 21.5662 22.6283 19.8716 21.3785 18.6218C20.1287 17.372 18.4341 16.669 16.6666 16.667Z" fill="white"/>
<path d="M15 15.0001C17.5833 15.0001 19.5833 12.1084 19.5833 9.62093C19.5833 8.40536 19.1004 7.23957 18.2409 6.38002C17.3813 5.52048 16.2155 5.0376 15 5.0376C13.7844 5.0376 12.6186 5.52048 11.7591 6.38002C10.8995 7.23957 10.4166 8.40536 10.4166 9.62093C10.4166 12.1084 12.4166 15.0001 15 15.0001Z" fill="white"/>
</svg>
